<!-- Generator: Adobe Illustrator 21.0.0, SVG Export Plug-In  -->
<svg version="1.1"
	 xmlns="http://www.w3.org/2000/svg" xmlns:xlink="http://www.w3.org/1999/xlink" xmlns:a="http://ns.adobe.com/AdobeSVGViewerExtensions/3.0/"
	 x="0px" y="0px" width="378px" height="83.4px" viewBox="0 0 378 83.4" style="enable-background:new 0 0 378 83.4;"
	 xml:space="preserve">
<style type="text/css">
	.st0{opacity:0.5;}
	.st1{fill:#FFFFFF;}
	.st2{fill:#00F3FF;}
	.st3{fill:#16F2E7;}
	.st4{fill:#00CFFF;}
	.st5{fill:none;stroke:#16F2E7;stroke-width:2;stroke-linecap:round;stroke-linejoin:round;stroke-miterlimit:10;}
	.st6{fill:none;}
</style>
<defs>
</defs>
<rect y="23.7" width="376.2" height="50.7"/>
<g class="st0">
	<g>
		<path class="st1" d="M142.6,41.7c-0.1,0-0.2,0-0.3-0.1l-7.4-4.9c-0.2-0.2-0.3-0.5-0.1-0.7s0.5-0.3,0.7-0.1l7.4,4.9
			c0.2,0.2,0.3,0.5,0.1,0.7C143,41.6,142.8,41.7,142.6,41.7z"/>
	</g>
	<g>
		<path class="st1" d="M147.6,52.1h-18.7c-0.3,0-0.5-0.2-0.5-0.5c0-0.3,0.2-0.5,0.5-0.5h18.7c1.7,0,3-1.5,3-3.5V35
			c0-1.9-1.4-3.5-3-3.5c-0.3,0-0.5-0.2-0.5-0.5s0.2-0.5,0.5-0.5c2.2,0,4,2,4,4.5v12.6C151.6,50.1,149.8,52.1,147.6,52.1z"/>
	</g>
	<g>
		<path class="st1" d="M128.9,52.1c-2.2,0-4-2-4-4.5V35c0-2.5,1.8-4.5,4-4.5h18.7c0.3,0,0.5,0.2,0.5,0.5s-0.2,0.5-0.5,0.5h-18.7
			c-1.7,0-3,1.5-3,3.5v12.6c0,1.9,1.4,3.5,3,3.5c0.3,0,0.5,0.2,0.5,0.5C129.4,51.9,129.1,52.1,128.9,52.1z"/>
	</g>
	<g>
		<path class="st1" d="M135.2,45.9c-0.3,0-0.5-0.2-0.5-0.5v-9c0-0.3,0.2-0.5,0.5-0.5c0.3,0,0.5,0.2,0.5,0.5v9
			C135.7,45.6,135.5,45.9,135.2,45.9z"/>
	</g>
	<g>
		<path class="st1" d="M135.3,45.8c-0.2,0-0.3-0.1-0.4-0.3c-0.1-0.2,0-0.5,0.2-0.7l7.3-4.1c0.2-0.1,0.5,0,0.7,0.2
			c0.1,0.2,0,0.5-0.2,0.7l-7.3,4.1C135.5,45.8,135.4,45.8,135.3,45.8z"/>
	</g>
</g>
<g class="st0">
	<g>
		<path class="st1" d="M339,40.3c-0.1,0-0.3,0-0.4-0.1c-0.2-0.2-0.2-0.5,0-0.7c1.9-1.9,1.9-4.9,0-6.8c-0.9-0.9-2.1-1.4-3.4-1.4
			c0,0,0,0,0,0c-1.3,0-2.5,0.5-3.4,1.4c-0.2,0.2-0.5,0.2-0.7,0c-0.2-0.2-0.2-0.5,0-0.7c1.1-1.1,2.6-1.7,4.1-1.7c1.6,0,3,0.6,4.1,1.7
			c2.3,2.3,2.2,6,0,8.2C339.3,40.2,339.2,40.3,339,40.3z"/>
	</g>
	<g>
		<path class="st1" d="M335.3,41.8c-1.6,0-3-0.6-4.1-1.7c-1.1-1.1-1.7-2.6-1.7-4.1c0-1.6,0.6-3,1.7-4.1c0.2-0.2,0.5-0.2,0.7,0
			c0.2,0.2,0.2,0.5,0,0.7c-0.9,0.9-1.4,2.1-1.4,3.4c0,1.3,0.5,2.5,1.4,3.4c0.9,0.9,2.1,1.4,3.4,1.4s2.5-0.5,3.4-1.4
			c0.2-0.2,0.5-0.2,0.7,0c0.2,0.2,0.2,0.5,0,0.7C338.3,41.2,336.9,41.8,335.3,41.8z"/>
	</g>
	<g>
		<path class="st1" d="M342.9,51.8h-14.3c-0.5,0-1-0.2-1.3-0.6c-0.3-0.4-0.5-0.9-0.4-1.4c0.7-4.4,4.4-7.5,8.9-7.5
			c4.4,0,8.2,3.2,8.9,7.5c0.1,0.5-0.1,1-0.4,1.4C343.9,51.6,343.4,51.8,342.9,51.8z M335.7,43.3c-3.9,0-7.2,2.8-7.9,6.7
			c0,0.2,0,0.4,0.2,0.5c0.1,0.2,0.3,0.3,0.5,0.3h14.3c0.2,0,0.4-0.1,0.5-0.3c0.1-0.2,0.2-0.3,0.2-0.5
			C343,46.1,339.7,43.3,335.7,43.3z"/>
	</g>
</g>
<g class="st0">
	<g>
		<path class="st1" d="M233.2,45.9c0,0-0.1,0-0.1,0c-0.3-0.1-0.4-0.3-0.4-0.6l2.4-11.7c0.1-0.3,0.3-0.4,0.6-0.4
			c0.3,0.1,0.4,0.3,0.4,0.6l-2.4,11.7C233.7,45.7,233.4,45.9,233.2,45.9z"/>
	</g>
	<g>
		<path class="st1" d="M241.4,45.4c-0.2,0-0.4-0.2-0.5-0.4l-2.6-11.1c-0.1-0.3,0.1-0.5,0.4-0.6c0.3-0.1,0.5,0.1,0.6,0.4l2.6,11.1
			c0.1,0.3-0.1,0.5-0.4,0.6C241.4,45.4,241.4,45.4,241.4,45.4z"/>
	</g>
	<g>
		<path class="st1" d="M224.4,43.9c-0.1,0-0.1,0-0.2,0c-0.3-0.1-0.4-0.4-0.3-0.7l4.7-12c0.1-0.3,0.4-0.4,0.7-0.3
			c0.3,0.1,0.4,0.4,0.3,0.7l-4.7,12C224.8,43.8,224.6,43.9,224.4,43.9z"/>
	</g>
	<g>
		<path class="st1" d="M250.5,45c-0.2,0-0.4-0.1-0.5-0.3l-5.2-13.1c-0.1-0.3,0-0.5,0.3-0.7c0.3-0.1,0.6,0,0.7,0.3l5.2,13.1
			c0.1,0.3,0,0.5-0.3,0.7C250.6,44.9,250.6,45,250.5,45z"/>
	</g>
	<g>
		<path class="st1" d="M231.9,51.1c-0.1,0-0.3,0-0.4-0.1c-0.2-0.2-0.2-0.5,0-0.7c1.8-1.8,1.8-4.7,0-6.5c-1.8-1.8-4.7-1.8-6.5,0
			c-0.2,0.2-0.5,0.2-0.7,0c-0.2-0.2-0.2-0.5,0-0.7c2.2-2.2,5.8-2.2,8,0c2.2,2.2,2.2,5.8,0,8C232.1,51,232,51.1,231.9,51.1z"/>
	</g>
	<g>
		<path class="st1" d="M228.3,52.6c-1.4,0-2.9-0.5-4-1.6c-1.1-1.1-1.6-2.5-1.6-4c0-1.5,0.6-2.9,1.6-4c0.2-0.2,0.5-0.2,0.7,0
			c0.2,0.2,0.2,0.5,0,0.7c-0.9,0.9-1.4,2-1.4,3.3c0,1.2,0.5,2.4,1.4,3.3c1.8,1.8,4.7,1.8,6.5,0c0.2-0.2,0.5-0.2,0.7,0
			c0.2,0.2,0.2,0.5,0,0.7C231.1,52.1,229.7,52.6,228.3,52.6z"/>
	</g>
	<g>
		<path class="st1" d="M225.7,47.1c-0.3,0-0.5-0.2-0.5-0.5c0-1.6,1.3-2.8,2.8-2.8c0.3,0,0.5,0.2,0.5,0.5c0,0.3-0.2,0.5-0.5,0.5
			c-1,0-1.8,0.8-1.8,1.8C226.2,46.8,226,47.1,225.7,47.1z"/>
	</g>
	<g>
		<path class="st1" d="M243.5,47.1c-0.3,0-0.5-0.2-0.5-0.5c0-1.6,1.3-2.8,2.8-2.8c0.3,0,0.5,0.2,0.5,0.5c0,0.3-0.2,0.5-0.5,0.5
			c-1,0-1.8,0.8-1.8,1.8C244,46.8,243.7,47.1,243.5,47.1z"/>
	</g>
	<g>
		<path class="st1" d="M249.6,51.1c-0.1,0-0.3,0-0.4-0.1c-0.2-0.2-0.2-0.5,0-0.7c0.9-0.9,1.4-2,1.4-3.3c0-1.2-0.5-2.4-1.4-3.3
			c-1.8-1.8-4.7-1.8-6.5,0c-0.2,0.2-0.5,0.2-0.7,0c-0.2-0.2-0.2-0.5,0-0.7c2.2-2.2,5.8-2.2,8,0c1.1,1.1,1.6,2.5,1.6,4
			c0,1.5-0.6,2.9-1.6,4C249.9,51,249.8,51.1,249.6,51.1z"/>
	</g>
	<g>
		<path class="st1" d="M246,52.6c-1.4,0-2.9-0.5-4-1.6c-1.1-1.1-1.6-2.5-1.6-4c0-1.5,0.6-2.9,1.6-4c0.2-0.2,0.5-0.2,0.7,0
			c0.2,0.2,0.2,0.5,0,0.7c-0.9,0.9-1.4,2-1.4,3.3c0,1.2,0.5,2.4,1.4,3.3c1.8,1.8,4.7,1.8,6.5,0c0.2-0.2,0.5-0.2,0.7,0
			c0.2,0.2,0.2,0.5,0,0.7C248.9,52.1,247.5,52.6,246,52.6z"/>
	</g>
	<g>
		<path class="st1" d="M235.6,34.2c-0.2,0-0.4-0.1-0.5-0.3c-0.5-1.4-1.3-2.3-2.2-2.6c-1.6-0.6-3.3,0.3-3.3,0.3
			c-0.2,0.1-0.5,0-0.7-0.2c-0.1-0.2,0-0.5,0.2-0.7c0.1,0,2.1-1.1,4.2-0.3c1.3,0.5,2.2,1.6,2.8,3.2c0.1,0.3,0,0.5-0.3,0.6
			C235.7,34.2,235.7,34.2,235.6,34.2z"/>
	</g>
	<g>
		<path class="st1" d="M238.8,34.2c-0.1,0-0.1,0-0.2,0c-0.3-0.1-0.4-0.4-0.3-0.6c0.6-1.7,1.6-2.7,2.8-3.2c2-0.8,4.1,0.3,4.2,0.3
			c0.2,0.1,0.3,0.4,0.2,0.7c-0.1,0.2-0.4,0.3-0.7,0.2c0,0-1.8-0.9-3.3-0.3c-1,0.4-1.7,1.3-2.2,2.6C239.1,34.1,239,34.2,238.8,34.2z"
			/>
	</g>
	<g>
		<path class="st1" d="M238.8,37.4h-3.1c-0.3,0-0.5-0.2-0.5-0.5s0.2-0.5,0.5-0.5h3.1c0.3,0,0.5,0.2,0.5,0.5S239,37.4,238.8,37.4z"/>
	</g>
	<g>
		<path class="st1" d="M240.1,41.2h-5.2c-0.3,0-0.5-0.2-0.5-0.5c0-0.3,0.2-0.5,0.5-0.5h5.2c0.3,0,0.5,0.2,0.5,0.5
			C240.6,40.9,240.3,41.2,240.1,41.2z"/>
	</g>
</g>
<g>
	<path class="st2" d="M37.7,70.3H37v-0.4h-5.2v0.4H31v-6.2h2.7c0.1-0.3,0.2-0.7,0.2-1h-4v-0.7h2.6c-0.2-0.4-0.3-0.8-0.5-1.1l0.7-0.3
		c0.2,0.4,0.4,0.8,0.6,1.4h2.2c0.2-0.4,0.4-0.9,0.6-1.4l0.7,0.3c-0.2,0.4-0.3,0.8-0.5,1.1h2.6v0.7h-4.1c-0.1,0.4-0.1,0.7-0.2,1h3.2
		V70.3z M37,65.8v-1h-5.2v1H37z M37,67.5v-1h-5.2v1H37z M37,69.2v-1.1h-5.2v1.1H37z"/>
	<path class="st2" d="M48.3,68h-0.7v-4h-4.8V68H42v-4.8h2.5c0.1-0.4,0.2-0.7,0.2-1.1h-4v-0.7h8.8v0.7h-4c-0.1,0.4-0.1,0.8-0.2,1.1h3
		V68z M45.6,64.5v1.6c0,1.1-0.4,2-1.1,2.6c-0.6,0.6-1.7,1.1-3.2,1.4l-0.4-0.6c1.5-0.3,2.5-0.7,3-1.3c0.5-0.6,0.8-1.3,0.9-2.2v-1.6
		H45.6z M49.4,69.6l-0.4,0.7c-1.1-0.7-2.3-1.3-3.5-1.7l0.4-0.6C47.1,68.5,48.3,69,49.4,69.6z"/>
</g>
<g class="st0">
	<path class="st1" d="M131.9,62c0-0.3,0.1-0.6,0.1-0.9l0.7,0.1c0,0.3-0.1,0.6-0.1,0.8h3.9v0.7h-4c-0.1,0.3-0.1,0.6-0.2,0.8h2.9v5.9
		h1.5V70h-8.9v-0.7h1.4v-5.9h2.4c0.1-0.3,0.1-0.6,0.2-0.8h-3.8V62H131.9z M134.6,65v-0.9H130V65H134.6z M134.6,66.4v-0.8H130v0.8
		H134.6z M134.6,67.9V67H130v0.9H134.6z M134.6,69.3v-0.9H130v0.9H134.6z"/>
	<path class="st1" d="M142.7,69.8v0.5h-0.7v-4.1c-0.1,0.1-0.3,0.1-0.4,0.2l-0.3-0.6v0.1c-0.3,0.2-0.5,0.3-0.8,0.4v3
		c0,0.6-0.3,0.8-0.9,0.8h-0.9l-0.2-0.7c0.3,0,0.5,0.1,0.8,0.1c0.3,0,0.4-0.1,0.4-0.4v-2.5c-0.4,0.2-0.8,0.3-1.2,0.4l-0.2-0.7
		c0.5-0.1,0.9-0.3,1.3-0.4v-2.3h-1.2V63h1.2v-1.9h0.7V63h0.9v0.7h-0.9v2c0.3-0.1,0.6-0.3,0.8-0.4v0.5c1-0.4,1.7-0.9,2.2-1.5h-1.9
		v-0.6h1.1c-0.1-0.3-0.3-0.6-0.5-0.9l0.6-0.2c0.2,0.3,0.3,0.7,0.5,1.1h0.8v-1.5c-0.7,0-1.5,0.1-2.3,0.1l-0.2-0.6
		c2.2,0,3.9-0.2,5.4-0.5l0.3,0.6c-0.7,0.2-1.6,0.3-2.5,0.4v1.5h0.8c0.2-0.4,0.4-0.9,0.6-1.3l0.6,0.2c-0.2,0.4-0.4,0.8-0.6,1.1h1.2
		v0.6h-2c0.5,0.5,1.3,1,2.3,1.4l-0.3,0.6c-1-0.5-1.9-1.2-2.5-2h-0.1v1.4h-0.7v-1.4h-0.1c-0.4,0.7-1,1.3-1.8,1.8h4.8v4.2h-0.7v-0.5
		H142.7z M142.7,66.6v1h1.5v-1H142.7z M142.7,68.2v1h1.5v-1H142.7z M146.4,67.6v-1h-1.5v1H146.4z M146.4,69.2v-1h-1.5v1H146.4z"/>
</g>
<g class="st0">
	<path class="st1" d="M233.8,61.2c-0.2,0.7-0.5,1.4-0.9,1.9h2.1v0.7h-3.4v0.5c0,0.5-0.1,1-0.1,1.4h4.1v0.7h-3.7
		c0.5,1.4,1.8,2.4,3.9,3.2l-0.4,0.7c-2.2-0.9-3.6-2.1-4.1-3.6c-0.2,0.6-0.4,1.1-0.8,1.5c-0.7,0.9-1.8,1.6-3.3,2.1l-0.4-0.6
		c1.5-0.5,2.6-1.1,3.2-1.9c0.2-0.4,0.4-0.8,0.6-1.2H227v-0.7h3.8c0.1-0.4,0.1-0.9,0.2-1.4v-0.5h-3.4v-0.7h4.6c0.4-0.6,0.7-1.3,1-2.1
		L233.8,61.2z M230.5,62.8l-0.7,0.3c-0.4-0.6-0.7-1.2-1.2-1.7l0.7-0.3C229.8,61.6,230.1,62.2,230.5,62.8z"/>
	<path class="st1" d="M239.8,65l-0.5,0.5c-0.4-0.5-1-1-1.7-1.5l0.5-0.5C238.8,64.1,239.3,64.5,239.8,65z M240,66.6
		c-0.5,1.3-1,2.5-1.5,3.6l-0.7-0.3c0.6-1.1,1.1-2.3,1.6-3.5L240,66.6z M240.1,62.7l-0.5,0.5c-0.4-0.5-1-1-1.8-1.5l0.5-0.5
		C239.1,61.7,239.6,62.2,240.1,62.7z M243.2,62.7c-0.2-0.5-0.4-1.1-0.7-1.6l0.7-0.2c0.3,0.6,0.5,1.1,0.7,1.6l-0.4,0.2h3v0.7h-2.6
		v2.4h2.3v0.7h-2.3v2.6h2.8v0.7h-6.4v-0.7h2.9v-2.6h-2.3v-0.7h2.3v-2.4h-2.6v-0.7H243.2z"/>
</g>
<g class="st0">
	<path class="st1" d="M330.5,61c0.8,1.4,2.3,2.6,4.3,3.7l-0.4,0.7c-1.9-1-3.3-2.2-4.2-3.6c-1.1,1.6-2.5,2.8-4.2,3.7l-0.4-0.7
		c1.9-1,3.3-2.2,4.3-3.7H330.5z M330.6,64v6.2h-0.7V64H330.6z"/>
	<path class="st1" d="M341.3,63.3c0.6,2.7,2,4.8,4.4,6.3l-0.5,0.6c-2-1.3-3.4-3.2-4.1-5.4c-0.6,2.2-2,4-4.3,5.4l-0.4-0.6
		c2.8-1.7,4.2-4,4.3-6.9c0-0.7,0-1.2,0-1.6h0.7C341.4,61.9,341.4,62.7,341.3,63.3z"/>
</g>
<g>
	<g>
		<path class="st3" d="M28.1,39.9c-0.2,0-0.3-0.1-0.4-0.2c-0.2-0.2-0.1-0.5,0.1-0.7l11.8-8.6c0.2-0.2,0.5-0.1,0.7,0.1
			c0.2,0.2,0.1,0.5-0.1,0.7l-11.8,8.6C28.3,39.8,28.2,39.9,28.1,39.9z"/>
	</g>
	<g>
		<path class="st3" d="M51.7,39.9c-0.1,0-0.2,0-0.3-0.1l-11.8-8.7c-0.2-0.2-0.3-0.5-0.1-0.7c0.2-0.2,0.5-0.3,0.7-0.1L52,38.9
			c0.2,0.2,0.3,0.5,0.1,0.7C52,39.8,51.9,39.9,51.7,39.9z"/>
	</g>
	<g>
		<path class="st3" d="M34.5,51.7h-4.9c-1.1,0-2-0.9-2-2V39.4c0-0.3,0.2-0.5,0.5-0.5s0.5,0.2,0.5,0.5v10.3c0,0.5,0.4,1,1,1h4.9
			c0.5,0,1-0.4,1-1v-3c0-0.5,0.2-1,0.6-1.4c0.4-0.4,0.8-0.6,1.4-0.6c0,0,0,0,0,0l6.3,0c0.3,0,0.5,0.2,0.5,0.5s-0.2,0.5-0.5,0.5
			c0,0,0,0,0,0l-6.3,0c0,0,0,0,0,0c-0.2,0-0.5,0.1-0.7,0.3c-0.2,0.2-0.3,0.4-0.3,0.7v3C36.5,50.8,35.6,51.7,34.5,51.7z"/>
	</g>
	<g>
		<path class="st4" d="M50.3,51.7h-4.9c-1.1,0-2-0.9-2-2v-4.4c0-0.3,0.2-0.5,0.5-0.5s0.5,0.2,0.5,0.5v4.4c0,0.5,0.4,1,1,1h4.9
			c0.5,0,1-0.4,1-1V39.4c0-0.3,0.2-0.5,0.5-0.5s0.5,0.2,0.5,0.5v10.3C52.2,50.8,51.4,51.7,50.3,51.7z"/>
	</g>
	<g>
		<path class="st5" d="M43.9,44.9"/>
	</g>
</g>
<rect x="194.5" class="st6" width="183.5" height="83.4"/>
</svg>
