<!-- Generator: Adobe Illustrator 21.0.0, SVG Export Plug-In  -->
<svg version="1.1"
	 xmlns="http://www.w3.org/2000/svg" xmlns:xlink="http://www.w3.org/1999/xlink" xmlns:a="http://ns.adobe.com/AdobeSVGViewerExtensions/3.0/"
	 x="0px" y="0px" width="750px" height="99.1px" viewBox="0 0 750 99.1" style="enable-background:new 0 0 750 99.1;"
	 xml:space="preserve">
<style type="text/css">
	.st0{opacity:0.5;}
	.st1{fill:#FFFFFF;}
	.st2{fill:#16F2E7;}
	.st3{fill:#00E1FF;}
	.st4{fill:#00F3FF;}
	.st5{fill:none;stroke:#FFFFFF;stroke-width:2;stroke-linecap:round;stroke-linejoin:round;stroke-miterlimit:10;}
</style>
<defs>
</defs>
<rect width="750" height="99.1"/>
<g class="st0">
	<g>
		<path class="st1" d="M281.5,33.1c-0.2,0-0.4-0.1-0.5-0.2l-14.8-9.7c-0.5-0.3-0.6-0.9-0.3-1.4c0.3-0.5,0.9-0.6,1.4-0.3l14.8,9.7
			c0.5,0.3,0.6,0.9,0.3,1.4C282.1,32.9,281.8,33.1,281.5,33.1z"/>
	</g>
	<g>
		<path class="st1" d="M291.3,53.8H254c-0.6,0-1-0.4-1-1s0.4-1,1-1h37.3c3.3,0,6-3.1,6-6.9V19.8c0-3.8-2.7-6.9-6-6.9
			c-0.6,0-1-0.4-1-1s0.4-1,1-1c4.4,0,8,4,8,8.9v25.1C299.3,49.8,295.7,53.8,291.3,53.8z"/>
	</g>
	<g>
		<path class="st1" d="M254,53.8c-4.4,0-8-4-8-8.9V19.8c0-4.9,3.6-8.9,8-8.9h37.3c0.6,0,1,0.4,1,1s-0.4,1-1,1H254
			c-3.3,0-6,3.1-6,6.9v25.1c0,3.8,2.7,6.9,6,6.9c0.6,0,1,0.4,1,1S254.6,53.8,254,53.8z"/>
	</g>
	<g>
		<path class="st1" d="M266.7,41.4c-0.6,0-1-0.4-1-1V22.4c0-0.6,0.4-1,1-1s1,0.4,1,1v17.9C267.7,40.9,267.3,41.4,266.7,41.4z"/>
	</g>
	<g>
		<path class="st1" d="M266.9,41.2c-0.4,0-0.7-0.2-0.9-0.5c-0.3-0.5-0.1-1.1,0.4-1.4l14.6-8.2c0.5-0.3,1.1-0.1,1.4,0.4
			c0.3,0.5,0.1,1.1-0.4,1.4l-14.6,8.2C267.2,41.2,267.1,41.2,266.9,41.2z"/>
	</g>
</g>
<g>
	<path class="st2" d="M672.4,30.2c-0.3,0-0.5-0.1-0.7-0.3c-0.4-0.4-0.4-1,0-1.4c3.7-3.7,3.8-9.8,0.1-13.5c-1.8-1.8-4.2-2.8-6.8-2.8
		c0,0,0,0,0,0c-2.5,0-4.9,1-6.7,2.8c-0.4,0.4-1,0.4-1.4,0c-0.4-0.4-0.4-1,0-1.4c4.5-4.5,11.9-4.5,16.4,0.1s4.5,11.9-0.1,16.4
		C672.9,30.1,672.7,30.2,672.4,30.2z"/>
</g>
<g>
	<g>
		<path class="st2" d="M665.1,33.3c-3,0-5.9-1.1-8.2-3.4c-4.5-4.5-4.5-11.8,0-16.4c0.4-0.4,1-0.4,1.4,0s0.4,1,0,1.4
			c-3.7,3.7-3.7,9.8,0,13.5c3.7,3.7,9.8,3.7,13.5,0c0.4-0.4,1-0.4,1.4,0s0.4,1,0,1.4C671,32.2,668,33.3,665.1,33.3z"/>
	</g>
</g>
<g>
	<path class="st3" d="M680.2,53.1h-28.6c-1,0-2-0.4-2.6-1.2c-0.6-0.8-0.9-1.7-0.8-2.7c1.4-8.7,8.8-15,17.6-15
		c8.8,0,16.2,6.3,17.6,15c0.2,1-0.1,2-0.8,2.7C682.1,52.7,681.2,53.1,680.2,53.1z M665.9,36.3c-7.8,0-14.4,5.6-15.7,13.3
		c-0.1,0.4,0,0.8,0.3,1.1c0.3,0.3,0.7,0.5,1.1,0.5h28.6c0.4,0,0.8-0.2,1.1-0.5c0.3-0.3,0.4-0.7,0.3-1.1
		C680.3,41.9,673.7,36.3,665.9,36.3z"/>
</g>
<g class="st0">
	<g>
		<path class="st1" d="M461.8,41.4c-0.1,0-0.1,0-0.2,0c-0.5-0.1-0.9-0.6-0.8-1.2l4.8-23.2c0.1-0.5,0.6-0.9,1.2-0.8
			c0.5,0.1,0.9,0.6,0.8,1.2l-4.8,23.2C462.7,41.1,462.2,41.4,461.8,41.4z"/>
	</g>
	<g>
		<path class="st1" d="M478,40.4c-0.5,0-0.9-0.3-1-0.8l-5.2-22.2c-0.1-0.5,0.2-1.1,0.7-1.2c0.5-0.1,1.1,0.2,1.2,0.7l5.2,22.2
			c0.1,0.5-0.2,1.1-0.7,1.2C478.2,40.4,478.1,40.4,478,40.4z"/>
	</g>
	<g>
		<path class="st1" d="M444.2,37.5c-0.1,0-0.2,0-0.4-0.1c-0.5-0.2-0.8-0.8-0.6-1.3l9.4-24c0.2-0.5,0.8-0.8,1.3-0.6
			c0.5,0.2,0.8,0.8,0.6,1.3l-9.4,24C444.9,37.2,444.6,37.5,444.2,37.5z"/>
	</g>
	<g>
		<path class="st1" d="M496.2,39.5c-0.4,0-0.8-0.2-0.9-0.6l-10.4-26c-0.2-0.5,0-1.1,0.6-1.3c0.5-0.2,1.1,0,1.3,0.6l10.4,26
			c0.2,0.5,0,1.1-0.6,1.3C496.5,39.5,496.4,39.5,496.2,39.5z"/>
	</g>
	<g>
		<path class="st1" d="M459.1,51.7c-0.3,0-0.5-0.1-0.7-0.3c-0.4-0.4-0.4-1,0-1.4c1.7-1.7,2.7-4,2.7-6.5c0-2.5-1-4.8-2.7-6.5
			s-4-2.7-6.5-2.7s-4.8,1-6.5,2.7c-0.4,0.4-1,0.4-1.4,0s-0.4-1,0-1.4c4.4-4.4,11.5-4.4,15.8,0c2.1,2.1,3.3,4.9,3.3,7.9
			c0,3-1.2,5.8-3.3,7.9C459.6,51.7,459.3,51.7,459.1,51.7z"/>
	</g>
	<g>
		<path class="st1" d="M451.9,54.8c-2.9,0-5.7-1.1-7.9-3.3c-2.1-2.1-3.3-4.9-3.3-7.9c0-3,1.2-5.8,3.3-7.9c0.4-0.4,1-0.4,1.4,0
			s0.4,1,0,1.4c-1.7,1.7-2.7,4-2.7,6.5c0,2.5,1,4.8,2.7,6.5s4,2.7,6.5,2.7s4.8-1,6.5-2.7c0.4-0.4,1-0.4,1.4,0s0.4,1,0,1.4
			C457.7,53.7,454.8,54.8,451.9,54.8z"/>
	</g>
	<g>
		<path class="st1" d="M446.8,43.7c-0.6,0-1-0.4-1-1c0-3.1,2.5-5.6,5.6-5.6c0.6,0,1,0.4,1,1s-0.4,1-1,1c-2,0-3.6,1.6-3.6,3.6
			C447.8,43.3,447.3,43.7,446.8,43.7z"/>
	</g>
	<g>
		<path class="st1" d="M482.2,43.7c-0.6,0-1-0.4-1-1c0-3.1,2.5-5.6,5.6-5.6c0.6,0,1,0.4,1,1s-0.4,1-1,1c-2,0-3.6,1.6-3.6,3.6
			C483.2,43.3,482.7,43.7,482.2,43.7z"/>
	</g>
	<g>
		<path class="st1" d="M494.5,51.7c-0.3,0-0.5-0.1-0.7-0.3c-0.4-0.4-0.4-1,0-1.4c3.6-3.6,3.6-9.4,0-13c-3.6-3.6-9.4-3.6-13,0
			c-0.4,0.4-1,0.4-1.4,0s-0.4-1,0-1.4c4.4-4.4,11.5-4.4,15.8,0c4.4,4.4,4.4,11.5,0,15.8C495,51.7,494.7,51.7,494.5,51.7z"/>
	</g>
	<g>
		<path class="st1" d="M487.3,54.8c-2.9,0-5.7-1.1-7.9-3.3c-4.4-4.4-4.4-11.5,0-15.8c0.4-0.4,1-0.4,1.4,0s0.4,1,0,1.4
			c-3.6,3.6-3.6,9.4,0,13c3.6,3.6,9.4,3.6,13,0c0.4-0.4,1-0.4,1.4,0s0.4,1,0,1.4C493.1,53.7,490.2,54.8,487.3,54.8z"/>
	</g>
	<g>
		<path class="st1" d="M466.6,18.2c-0.4,0-0.8-0.2-0.9-0.7c-1-2.7-2.5-4.5-4.5-5.2c-3.2-1.2-6.6,0.5-6.6,0.6
			c-0.5,0.3-1.1,0.1-1.3-0.4c-0.3-0.5-0.1-1.1,0.4-1.3c0.2-0.1,4.2-2.2,8.3-0.7c2.5,1,4.4,3.1,5.6,6.4c0.2,0.5-0.1,1.1-0.6,1.3
			C466.8,18.2,466.7,18.2,466.6,18.2z"/>
	</g>
	<g>
		<path class="st1" d="M472.8,18.2c-0.1,0-0.2,0-0.3-0.1c-0.5-0.2-0.8-0.8-0.6-1.3c1.2-3.3,3.1-5.4,5.6-6.4c4-1.5,8.1,0.6,8.3,0.7
			c0.5,0.3,0.7,0.9,0.4,1.4c-0.3,0.5-0.9,0.7-1.3,0.4c-0.1,0-3.5-1.8-6.6-0.6c-2,0.8-3.5,2.5-4.5,5.2
			C473.6,17.9,473.2,18.2,472.8,18.2z"/>
	</g>
	<g>
		<path class="st1" d="M472.8,24.4h-6.2c-0.6,0-1-0.4-1-1s0.4-1,1-1h6.2c0.6,0,1,0.4,1,1S473.4,24.4,472.8,24.4z"/>
	</g>
	<g>
		<path class="st1" d="M475.4,32H465c-0.6,0-1-0.4-1-1s0.4-1,1-1h10.4c0.6,0,1,0.4,1,1S476,32,475.4,32z"/>
	</g>
</g>
<g class="st0">
	<path class="st1" d="M72.5,89.9h-1.4v-0.8H60.7v0.8h-1.4V77.6h5.4c0.2-0.6,0.3-1.3,0.4-2h-8v-1.4h5.1c-0.3-0.8-0.6-1.5-1-2.2
		l1.4-0.5c0.4,0.8,0.8,1.7,1.1,2.7h4.4c0.5-0.9,0.9-1.8,1.2-2.8l1.4,0.5c-0.3,0.9-0.7,1.6-1,2.3h5.1v1.4h-8.2
		c-0.1,0.7-0.2,1.4-0.4,2h6.4V89.9z M71.1,81v-2.1H60.7V81H71.1z M71.1,84.4v-2.1H60.7v2.1H71.1z M71.1,87.8v-2.1H60.7v2.1H71.1z"/>
	<path class="st1" d="M93.6,85.4h-1.4v-8.1h-9.6v8.1h-1.4v-9.5h5.1c0.2-0.7,0.3-1.4,0.4-2.2h-8v-1.4h17.6v1.4h-8
		c-0.1,0.8-0.3,1.5-0.5,2.2h5.9V85.4z M88.2,78.5v3.2c-0.1,2.2-0.8,3.9-2.1,5.3c-1.3,1.2-3.4,2.2-6.3,2.8l-0.8-1.3
		c2.9-0.6,4.9-1.5,6.1-2.5c1.1-1.1,1.6-2.5,1.7-4.3v-3.2H88.2z M95.8,88.6L94.9,90c-2.3-1.4-4.6-2.5-7-3.3l0.8-1.2
		C91.3,86.3,93.7,87.4,95.8,88.6z"/>
</g>
<g class="st0">
	<path class="st1" d="M260.1,73.4c0.1-0.6,0.2-1.3,0.2-1.9l1.5,0.2c-0.1,0.6-0.1,1.1-0.2,1.7h7.8v1.4h-8c-0.1,0.6-0.2,1.1-0.3,1.7
		h5.8v11.7h3v1.3H252v-1.3h2.9V76.4h4.7c0.1-0.6,0.2-1.1,0.3-1.7h-7.5v-1.4H260.1z M265.4,79.4v-1.7h-9.1v1.7H265.4z M265.4,82.3
		v-1.7h-9.1v1.7H265.4z M265.4,85.2v-1.7h-9.1v1.7H265.4z M265.4,88.1v-1.8h-9.1v1.8H265.4z"/>
	<path class="st1" d="M281.7,88.9v1h-1.3v-8.2c-0.3,0.1-0.5,0.3-0.8,0.4l-0.7-1.1v0.3c-0.5,0.3-1.1,0.6-1.6,0.9v5.9
		c0,1.1-0.6,1.7-1.7,1.7h-1.7l-0.3-1.4c0.5,0.1,1,0.1,1.5,0.1c0.5,0,0.8-0.3,0.8-0.8v-4.9c-0.8,0.3-1.5,0.6-2.3,0.9l-0.4-1.4
		c0.9-0.2,1.8-0.5,2.7-0.9v-4.6h-2.3v-1.4h2.3v-3.8h1.4v3.8h1.7v1.4h-1.7v4c0.6-0.3,1.1-0.6,1.6-0.9v1.1c2-0.8,3.5-1.8,4.4-2.9h-3.8
		v-1.3h2.3c-0.3-0.6-0.6-1.2-0.9-1.7l1.2-0.5c0.3,0.6,0.7,1.3,0.9,2.2h1.6v-2.9c-1.4,0.1-3,0.1-4.6,0.1l-0.4-1.2
		c4.3,0,7.8-0.4,10.7-1.1l0.7,1.2c-1.4,0.4-3.1,0.7-5,0.8v3h1.5c0.4-0.8,0.8-1.7,1.2-2.6l1.2,0.4c-0.3,0.8-0.7,1.5-1.1,2.2h2.5V78
		h-3.9c1.1,1.1,2.6,2,4.6,2.8l-0.6,1.2c-2.1-1-3.7-2.3-5-4h-0.2v2.9h-1.3V78h-0.2c-0.8,1.4-2.1,2.5-3.7,3.5h9.5v8.4h-1.3v-1H281.7z
		 M281.7,82.7v2h3v-2H281.7z M281.7,85.8v1.9h3v-1.9H281.7z M288.9,84.7v-2h-3v2H288.9z M288.9,87.7v-1.9h-3v1.9H288.9z"/>
</g>
<g class="st0">
	<path class="st1" d="M463,71.8c-0.5,1.4-1.1,2.7-1.8,3.9h4.1v1.4h-6.7v0.9c0,1-0.1,1.9-0.3,2.8h8.1v1.4h-7.3c1,2.7,3.6,4.8,7.8,6.3
		l-0.8,1.3c-4.4-1.8-7.1-4.2-8.2-7.2c-0.4,1.1-0.9,2.1-1.5,3c-1.4,1.8-3.6,3.1-6.7,4.1l-0.8-1.3c3.1-1,5.2-2.3,6.4-3.9
		c0.5-0.7,0.9-1.5,1.1-2.4h-7.2v-1.4h7.5c0.2-0.9,0.3-1.8,0.3-2.8v-0.9h-6.7v-1.4h9.1c0.8-1.2,1.4-2.6,2-4.3L463,71.8z M456.4,75
		l-1.3,0.7c-0.7-1.3-1.5-2.4-2.3-3.4l1.3-0.6C454.9,72.7,455.7,73.8,456.4,75z"/>
	<path class="st1" d="M474.8,79.5l-1,1c-0.8-0.9-1.9-1.9-3.3-3l1-1C472.9,77.6,474,78.5,474.8,79.5z M475.3,82.6
		c-0.9,2.5-1.9,4.9-3,7.1l-1.4-0.6c1.2-2.3,2.3-4.6,3.2-7L475.3,82.6z M475.5,74.8l-1,1c-0.8-0.9-2-1.9-3.5-3l1-1
		C473.4,72.9,474.6,73.8,475.5,74.8z M481.7,74.9c-0.4-1.1-0.8-2.1-1.4-3.1l1.4-0.4c0.6,1.2,1,2.2,1.3,3.2l-0.8,0.3h6v1.4H483v4.8
		h4.6v1.4H483v5.3h5.5v1.4h-12.7v-1.4h5.7v-5.3h-4.6v-1.4h4.6v-4.8h-5.2v-1.4H481.7z"/>
</g>
<g>
	<g>
		<path class="st4" d="M655.5,71.6c1.7,2.8,4.6,5.2,8.6,7.3l-0.9,1.3c-3.8-2-6.6-4.4-8.4-7.2c-2.2,3.2-5,5.6-8.4,7.3l-0.9-1.3
			c3.7-1.9,6.6-4.4,8.6-7.4H655.5z M655.6,77.5v12.4h-1.5V77.5H655.6z"/>
		<path class="st4" d="M677,76c1.1,5.4,4,9.6,8.7,12.5l-0.9,1.3c-4.1-2.7-6.8-6.3-8.3-10.8c-1.2,4.4-4,8-8.5,10.8l-0.9-1.3
			c5.5-3.4,8.3-8,8.5-13.7c0-1.4,0-2.4,0-3.2h1.5C677.1,73.3,677.1,74.8,677,76z"/>
	</g>
</g>
<g class="st0">
	<g>
		<path class="st1" d="M53.5,29.4c-0.3,0-0.6-0.1-0.8-0.4c-0.3-0.4-0.2-1.1,0.2-1.4l23.5-17.1c0.4-0.3,1.1-0.2,1.4,0.2
			c0.3,0.4,0.2,1.1-0.2,1.4L54.1,29.2C53.9,29.3,53.7,29.4,53.5,29.4z"/>
	</g>
	<g>
		<path class="st1" d="M100.5,29.4c-0.2,0-0.4-0.1-0.6-0.2L76.4,12c-0.4-0.3-0.5-1-0.2-1.4c0.3-0.4,1-0.5,1.4-0.2l23.5,17.2
			c0.4,0.3,0.5,1,0.2,1.4C101.1,29.2,100.8,29.4,100.5,29.4z"/>
	</g>
	<g>
		<path class="st1" d="M66.2,52.9h-9.8c-2.2,0-3.9-1.8-3.9-3.9V28.4c0-0.6,0.4-1,1-1s1,0.4,1,1v20.6c0,1.1,0.9,1.9,1.9,1.9h9.8
			c1.1,0,1.9-0.9,1.9-1.9v-6c0-1,0.4-2,1.1-2.7c0.7-0.7,1.7-1.1,2.7-1.1c0,0,0,0,0,0l12.5,0c0.6,0,1,0.4,1,1s-0.4,1-1,1h0l-12.5,0
			c0,0,0,0,0,0c-0.5,0-0.9,0.2-1.3,0.5c-0.3,0.3-0.5,0.8-0.5,1.3v6C70.1,51.1,68.4,52.9,66.2,52.9z"/>
	</g>
	<g>
		<path class="st1" d="M97.5,52.9h-9.8c-2.2,0-3.9-1.8-3.9-3.9v-8.8c0-0.6,0.4-1,1-1s1,0.4,1,1v8.8c0,1.1,0.9,1.9,1.9,1.9h9.8
			c1.1,0,1.9-0.9,1.9-1.9V28.4c0-0.6,0.4-1,1-1s1,0.4,1,1v20.6C101.5,51.1,99.7,52.9,97.5,52.9z"/>
	</g>
	<g>
		<path class="st5" d="M84.8,39.3"/>
	</g>
</g>
</svg>
