<!-- Generator: Adobe Illustrator 21.0.0, SVG Export Plug-In  -->
<svg version="1.1"
	 xmlns="http://www.w3.org/2000/svg" xmlns:xlink="http://www.w3.org/1999/xlink" xmlns:a="http://ns.adobe.com/AdobeSVGViewerExtensions/3.0/"
	 x="0px" y="0px" width="750.5px" height="308px" viewBox="0 0 750.5 308" style="enable-background:new 0 0 750.5 308;"
	 xml:space="preserve">
<style type="text/css">
	.st0{clip-path:url(#SVGID_2_);fill:#F6F6F6;}
	.st1{clip-path:url(#SVGID_2_);fill:#B3B3B3;}
	.st2{clip-path:url(#SVGID_2_);fill:#FFFFFF;stroke:#DBDBDB;stroke-miterlimit:10;}
	.st3{clip-path:url(#SVGID_2_);}
	.st4{fill:#4D4D4D;}
	.st5{fill:none;}
	.st6{clip-path:url(#SVGID_4_);fill:#F6F6F6;}
	.st7{clip-path:url(#SVGID_4_);fill:#B3B3B3;}
	.st8{clip-path:url(#SVGID_4_);fill:#FFFFFF;stroke:#DBDBDB;stroke-miterlimit:10;}
	.st9{clip-path:url(#SVGID_4_);}
</style>
<defs>
</defs>
<g>
	<defs>
		<rect id="SVGID_1_" width="750.5" height="277"/>
	</defs>
	<clipPath id="SVGID_2_">
		<use xlink:href="#SVGID_1_"  style="overflow:visible;"/>
	</clipPath>
	<rect class="st0" width="750.5" height="284"/>
	<rect class="st0" width="750.5" height="277"/>
	<path class="st1" d="M693.8,43.7l-12.5,12.5c-0.3,0.3-0.9,0.3-1.2,0c-0.3-0.3-0.3-0.9,0-1.2l13.1-13.1c0.2-0.2,0.4-0.3,0.6-0.3
		c0.2,0,0.5,0.1,0.6,0.3l13.1,13.1c0.3,0.3,0.3,0.9,0,1.2c-0.3,0.3-0.9,0.3-1.2,0L693.8,43.7z"/>
	<path class="st2" d="M282.5,76.5h-231c-16.5,0-30-13.5-30-30v0c0-16.5,13.5-30,30-30h231c16.5,0,30,13.5,30,30v0
		C312.5,63,299,76.5,282.5,76.5z"/>
	<path class="st2" d="M601.5,76.5h-231c-16.5,0-30-13.5-30-30v0c0-16.5,13.5-30,30-30h231c16.5,0,30,13.5,30,30v0
		C631.5,63,618,76.5,601.5,76.5z"/>
	<path class="st2" d="M467.5,154.5h-97c-16.5,0-30-13.5-30-30v0c0-16.5,13.5-30,30-30h97c16.5,0,30,13.5,30,30v0
		C497.5,141,484,154.5,467.5,154.5z"/>
	<path class="st2" d="M703.5,154.5h-149c-16.5,0-30-13.5-30-30v0c0-16.5,13.5-30,30-30h149c16.5,0,30,13.5,30,30v0
		C733.5,141,720,154.5,703.5,154.5z"/>
	<path class="st2" d="M703.5,232.5h-333c-16.5,0-30-13.5-30-30v0c0-16.5,13.5-30,30-30h333c16.5,0,30,13.5,30,30v0
		C733.5,219,720,232.5,703.5,232.5z"/>
	<path class="st2" d="M488.5,305.5h-118c-16.5,0-30-13.5-30-30v0c0-16.5,13.5-30,30-30h118c16.5,0,30,13.5,30,30v0
		C518.5,292,505,305.5,488.5,305.5z"/>
	<g class="st3">
		<g>
			<path class="st4" d="M121.4,38.9c1.7,0.9,2.7,2.5,3.1,4.7h-2.3c-0.3-1.3-0.8-2.2-1.7-2.7s-2-0.9-3.3-0.9c-1.6,0-2.9,0.6-3.9,1.8
				s-1.6,3-1.6,5.3c0,2,0.4,3.7,1.3,5c0.9,1.3,2.3,1.9,4.3,1.9c1.5,0,2.8-0.5,3.8-1.4s1.5-2.4,1.5-4.4h-5.4v-1.9h7.6v9.2h-1.5
				l-0.6-2.2c-0.8,0.9-1.5,1.5-2.1,1.8c-1,0.6-2.3,0.9-3.8,0.9c-2,0-3.7-0.7-5.2-2c-1.6-1.7-2.4-3.9-2.4-6.8c0-2.9,0.8-5.2,2.3-6.9
				c1.5-1.6,3.4-2.4,5.7-2.4C118.9,37.9,120.2,38.2,121.4,38.9z"/>
			<path class="st4" d="M128.4,43h2v2.2c0.2-0.4,0.6-0.9,1.2-1.5s1.4-0.9,2.2-0.9c0,0,0.1,0,0.2,0s0.3,0,0.5,0V45
				c-0.1,0-0.2,0-0.3,0s-0.2,0-0.3,0c-1.1,0-1.9,0.3-2.4,1s-0.9,1.5-0.9,2.4v7.2h-2.1V43z"/>
			<path class="st4" d="M144.1,43.4c0.8,0.4,1.5,1,1.9,1.6c0.4,0.6,0.7,1.4,0.8,2.2c0.1,0.6,0.2,1.5,0.2,2.8h-9.1
				c0,1.3,0.3,2.3,0.9,3.1c0.6,0.8,1.4,1.2,2.6,1.2c1.1,0,2-0.4,2.6-1.1c0.4-0.4,0.6-0.9,0.8-1.5h2.1c-0.1,0.5-0.2,1-0.5,1.5
				s-0.7,1-1,1.4c-0.6,0.6-1.4,1-2.4,1.3c-0.5,0.1-1.1,0.2-1.7,0.2c-1.6,0-2.9-0.6-3.9-1.7c-1.1-1.1-1.6-2.7-1.6-4.8
				c0-2,0.5-3.7,1.6-4.9c1.1-1.3,2.5-1.9,4.3-1.9C142.4,42.8,143.2,43,144.1,43.4z M144.8,48.3c-0.1-0.9-0.3-1.6-0.6-2.2
				c-0.6-1-1.5-1.5-2.9-1.5c-1,0-1.8,0.3-2.4,1s-1,1.6-1,2.7H144.8z"/>
			<path class="st4" d="M157.4,43.4c0.8,0.4,1.5,1,1.9,1.6c0.4,0.6,0.7,1.4,0.8,2.2c0.1,0.6,0.2,1.5,0.2,2.8h-9.1
				c0,1.3,0.3,2.3,0.9,3.1c0.6,0.8,1.4,1.2,2.6,1.2c1.1,0,2-0.4,2.6-1.1c0.4-0.4,0.6-0.9,0.8-1.5h2.1c-0.1,0.5-0.2,1-0.5,1.5
				s-0.7,1-1,1.4c-0.6,0.6-1.4,1-2.4,1.3c-0.5,0.1-1.1,0.2-1.7,0.2c-1.6,0-2.9-0.6-3.9-1.7c-1.1-1.1-1.6-2.7-1.6-4.8
				c0-2,0.5-3.7,1.6-4.9c1.1-1.3,2.5-1.9,4.3-1.9C155.7,42.8,156.6,43,157.4,43.4z M158.2,48.3c-0.1-0.9-0.3-1.6-0.6-2.2
				c-0.6-1-1.5-1.5-2.9-1.5c-1,0-1.8,0.3-2.4,1s-1,1.6-1,2.7H158.2z"/>
			<path class="st4" d="M163,43h2v1.8c0.6-0.7,1.2-1.3,1.9-1.6s1.4-0.5,2.2-0.5c1.8,0,3,0.6,3.6,1.9c0.3,0.7,0.5,1.7,0.5,2.9v8.1
				h-2.1v-7.9c0-0.8-0.1-1.4-0.3-1.9c-0.4-0.8-1.1-1.2-2-1.2c-0.5,0-0.9,0.1-1.2,0.2c-0.6,0.2-1.1,0.5-1.5,1
				c-0.4,0.4-0.6,0.8-0.7,1.3s-0.2,1.1-0.2,1.9v6.6H163V43z"/>
			<path class="st4" d="M183.4,38.4h6.9c2.3,0,4.1,0.8,5.4,2.5c1.1,1.5,1.7,3.5,1.7,5.8c0,1.8-0.3,3.5-1,5c-1.2,2.6-3.2,3.9-6.2,3.9
				h-6.9V38.4z M189.8,53.6c0.8,0,1.4-0.1,1.9-0.2c0.9-0.3,1.6-0.9,2.2-1.8c0.5-0.7,0.8-1.6,1-2.7c0.1-0.6,0.2-1.2,0.2-1.8
				c0-2.1-0.4-3.8-1.2-5s-2.2-1.8-4-1.8h-4v13.2H189.8z"/>
			<path class="st4" d="M207.1,48c0.5-0.1,0.8-0.3,1-0.6c0.1-0.2,0.1-0.5,0.1-0.8c0-0.7-0.3-1.2-0.8-1.6c-0.5-0.3-1.2-0.5-2.2-0.5
				c-1.1,0-1.9,0.3-2.3,0.9c-0.3,0.3-0.4,0.8-0.5,1.5h-2c0-1.6,0.5-2.6,1.5-3.2c1-0.6,2.1-0.9,3.4-0.9c1.5,0,2.7,0.3,3.6,0.8
				c0.9,0.6,1.4,1.4,1.4,2.6v7.2c0,0.2,0,0.4,0.1,0.5c0.1,0.1,0.3,0.2,0.6,0.2c0.1,0,0.2,0,0.3,0s0.2,0,0.4-0.1v1.6
				c-0.3,0.1-0.6,0.2-0.8,0.2s-0.4,0-0.7,0c-0.7,0-1.3-0.3-1.6-0.8c-0.2-0.3-0.3-0.7-0.4-1.2c-0.4,0.6-1,1.1-1.9,1.5
				s-1.7,0.6-2.7,0.6c-1.2,0-2.1-0.4-2.9-1.1s-1.1-1.6-1.1-2.7c0-1.2,0.4-2.1,1.1-2.7s1.7-1,2.9-1.2L207.1,48z M202.6,53.7
				c0.4,0.4,1,0.5,1.6,0.5c0.7,0,1.5-0.2,2.2-0.5c1.2-0.6,1.8-1.5,1.8-2.8v-1.7c-0.3,0.2-0.6,0.3-1,0.4c-0.4,0.1-0.8,0.2-1.2,0.2
				l-1.3,0.2c-0.8,0.1-1.3,0.3-1.7,0.5c-0.7,0.4-1,1-1,1.8C202,52.9,202.2,53.3,202.6,53.7z"/>
			<path class="st4" d="M221.6,43h2.3c-0.3,0.8-1,2.6-2,5.5c-0.8,2.2-1.4,3.9-1.9,5.3c-1.2,3.2-2.1,5.2-2.6,5.9
				c-0.5,0.7-1.4,1.1-2.6,1.1c-0.3,0-0.5,0-0.7,0c-0.2,0-0.4-0.1-0.6-0.1v-1.9c0.4,0.1,0.6,0.2,0.8,0.2c0.2,0,0.3,0,0.4,0
				c0.4,0,0.7-0.1,0.9-0.2c0.2-0.1,0.3-0.3,0.5-0.5c0-0.1,0.2-0.4,0.4-1c0.2-0.6,0.4-1,0.5-1.3L212.4,43h2.4l3.4,10.2L221.6,43z"/>
		</g>
	</g>
	<g class="st3">
		<g>
			<path class="st4" d="M430.2,38.4h7.8c1.3,0,2.4,0.2,3.2,0.6c1.6,0.7,2.4,2.1,2.4,4.1c0,1-0.2,1.9-0.6,2.5s-1,1.2-1.8,1.6
				c0.7,0.3,1.2,0.6,1.5,1.1s0.5,1.2,0.6,2.2l0.1,2.3c0,0.7,0.1,1.1,0.2,1.5c0.1,0.5,0.4,0.9,0.8,1.1v0.4h-2.9
				c-0.1-0.1-0.1-0.3-0.2-0.6s-0.1-0.7-0.1-1.4l-0.1-2.9c-0.1-1.1-0.5-1.9-1.2-2.3c-0.4-0.2-1.1-0.3-2-0.3h-5.2v7.4h-2.3V38.4z
				 M437.8,46.3c1.1,0,1.9-0.2,2.5-0.7s0.9-1.2,0.9-2.4c0-1.2-0.4-2.1-1.3-2.5c-0.5-0.2-1.1-0.4-1.9-0.4h-5.5v5.9H437.8z"/>
			<path class="st4" d="M453.7,48c0.5-0.1,0.8-0.3,1-0.6c0.1-0.2,0.1-0.5,0.1-0.8c0-0.7-0.3-1.2-0.8-1.6c-0.5-0.3-1.2-0.5-2.2-0.5
				c-1.1,0-1.9,0.3-2.3,0.9c-0.3,0.3-0.4,0.8-0.5,1.5h-2c0-1.6,0.5-2.6,1.5-3.2c1-0.6,2.1-0.9,3.4-0.9c1.5,0,2.7,0.3,3.6,0.8
				c0.9,0.6,1.4,1.4,1.4,2.6v7.2c0,0.2,0,0.4,0.1,0.5c0.1,0.1,0.3,0.2,0.6,0.2c0.1,0,0.2,0,0.3,0s0.2,0,0.4-0.1v1.6
				c-0.3,0.1-0.6,0.2-0.8,0.2s-0.4,0-0.7,0c-0.7,0-1.3-0.3-1.6-0.8c-0.2-0.3-0.3-0.7-0.4-1.2c-0.4,0.6-1,1.1-1.9,1.5
				s-1.7,0.6-2.7,0.6c-1.2,0-2.1-0.4-2.9-1.1s-1.1-1.6-1.1-2.7c0-1.2,0.4-2.1,1.1-2.7s1.7-1,2.9-1.2L453.7,48z M449.3,53.7
				c0.4,0.4,1,0.5,1.6,0.5c0.7,0,1.5-0.2,2.2-0.5c1.2-0.6,1.8-1.5,1.8-2.8v-1.7c-0.3,0.2-0.6,0.3-1,0.4c-0.4,0.1-0.8,0.2-1.2,0.2
				l-1.3,0.2c-0.8,0.1-1.3,0.3-1.7,0.5c-0.7,0.4-1,1-1,1.8C448.6,52.9,448.8,53.3,449.3,53.7z"/>
			<path class="st4" d="M467.2,43.4c0.4,0.2,0.8,0.6,1.3,1.2v-6.3h2v17.3h-1.9v-1.7c-0.5,0.8-1.1,1.3-1.7,1.7
				c-0.7,0.3-1.4,0.5-2.3,0.5c-1.4,0-2.6-0.6-3.6-1.8s-1.5-2.7-1.5-4.7c0-1.8,0.5-3.4,1.4-4.8c0.9-1.3,2.3-2,4-2
				C465.8,42.8,466.6,43,467.2,43.4z M462.5,52.8c0.6,0.9,1.5,1.4,2.7,1.4c1,0,1.8-0.4,2.4-1.3s0.9-2,0.9-3.6c0-1.6-0.3-2.8-1-3.5
				s-1.4-1.1-2.4-1.1c-1.1,0-1.9,0.4-2.6,1.2c-0.7,0.8-1,2-1,3.6C461.7,50.8,462,51.9,462.5,52.8z"/>
			<path class="st4" d="M473.7,38.4h2.1v2.4h-2.1V38.4z M473.7,43.1h2.1v12.5h-2.1V43.1z"/>
			<path class="st4" d="M488.1,44.3c1.1,1.1,1.7,2.7,1.7,4.8c0,2-0.5,3.7-1.5,5c-1,1.3-2.5,2-4.5,2c-1.7,0-3.1-0.6-4.1-1.8
				s-1.5-2.7-1.5-4.7c0-2.1,0.5-3.8,1.6-5c1.1-1.2,2.5-1.9,4.3-1.9C485.6,42.7,487,43.2,488.1,44.3z M486.8,52.6
				c0.5-1.1,0.8-2.2,0.8-3.5c0-1.2-0.2-2.1-0.6-2.9c-0.6-1.2-1.6-1.7-3-1.7c-1.3,0-2.2,0.5-2.8,1.5s-0.9,2.2-0.9,3.6
				c0,1.3,0.3,2.4,0.9,3.3s1.5,1.3,2.8,1.3C485.3,54.2,486.3,53.7,486.8,52.6z"/>
			<path class="st4" d="M492.4,38.3h2.1v6.4c0.5-0.6,0.9-1.1,1.3-1.3c0.7-0.4,1.5-0.7,2.5-0.7c1.8,0,3.1,0.6,3.7,1.9
				c0.4,0.7,0.5,1.7,0.5,2.9v8.1h-2.2v-7.9c0-0.9-0.1-1.6-0.4-2c-0.4-0.7-1.1-1-2.2-1c-0.9,0-1.7,0.3-2.4,0.9s-1.1,1.7-1.1,3.4v6.7
				h-2.1V38.3z"/>
			<path class="st4" d="M513.5,43.4c0.8,0.4,1.5,1,1.9,1.6c0.4,0.6,0.7,1.4,0.8,2.2c0.1,0.6,0.2,1.5,0.2,2.8h-9.1
				c0,1.3,0.3,2.3,0.9,3.1c0.6,0.8,1.4,1.2,2.6,1.2c1.1,0,2-0.4,2.6-1.1c0.4-0.4,0.6-0.9,0.8-1.5h2.1c-0.1,0.5-0.2,1-0.5,1.5
				s-0.7,1-1,1.4c-0.6,0.6-1.4,1-2.4,1.3c-0.5,0.1-1.1,0.2-1.7,0.2c-1.6,0-2.9-0.6-3.9-1.7c-1.1-1.1-1.6-2.7-1.6-4.8
				c0-2,0.5-3.7,1.6-4.9c1.1-1.3,2.5-1.9,4.3-1.9C511.8,42.8,512.6,43,513.5,43.4z M514.2,48.3c-0.1-0.9-0.3-1.6-0.6-2.2
				c-0.6-1-1.5-1.5-2.9-1.5c-1,0-1.8,0.3-2.4,1s-1,1.6-1,2.7H514.2z"/>
			<path class="st4" d="M525.8,48c0.5-0.1,0.8-0.3,1-0.6c0.1-0.2,0.1-0.5,0.1-0.8c0-0.7-0.3-1.2-0.8-1.6c-0.5-0.3-1.2-0.5-2.2-0.5
				c-1.1,0-1.9,0.3-2.3,0.9c-0.3,0.3-0.4,0.8-0.5,1.5h-2c0-1.6,0.5-2.6,1.5-3.2c1-0.6,2.1-0.9,3.4-0.9c1.5,0,2.7,0.3,3.6,0.8
				c0.9,0.6,1.4,1.4,1.4,2.6v7.2c0,0.2,0,0.4,0.1,0.5c0.1,0.1,0.3,0.2,0.6,0.2c0.1,0,0.2,0,0.3,0s0.2,0,0.4-0.1v1.6
				c-0.3,0.1-0.6,0.2-0.8,0.2s-0.4,0-0.7,0c-0.7,0-1.3-0.3-1.6-0.8c-0.2-0.3-0.3-0.7-0.4-1.2c-0.4,0.6-1,1.1-1.9,1.5
				s-1.7,0.6-2.7,0.6c-1.2,0-2.1-0.4-2.9-1.1s-1.1-1.6-1.1-2.7c0-1.2,0.4-2.1,1.1-2.7s1.7-1,2.9-1.2L525.8,48z M521.3,53.7
				c0.4,0.4,1,0.5,1.6,0.5c0.7,0,1.5-0.2,2.2-0.5c1.2-0.6,1.8-1.5,1.8-2.8v-1.7c-0.3,0.2-0.6,0.3-1,0.4c-0.4,0.1-0.8,0.2-1.2,0.2
				l-1.3,0.2c-0.8,0.1-1.3,0.3-1.7,0.5c-0.7,0.4-1,1-1,1.8C520.7,52.9,520.9,53.3,521.3,53.7z"/>
			<path class="st4" d="M539.3,43.4c0.4,0.2,0.8,0.6,1.3,1.2v-6.3h2v17.3h-1.9v-1.7c-0.5,0.8-1.1,1.3-1.7,1.7
				c-0.7,0.3-1.4,0.5-2.3,0.5c-1.4,0-2.6-0.6-3.6-1.8s-1.5-2.7-1.5-4.7c0-1.8,0.5-3.4,1.4-4.8c0.9-1.3,2.3-2,4-2
				C537.9,42.8,538.7,43,539.3,43.4z M534.6,52.8c0.6,0.9,1.5,1.4,2.7,1.4c1,0,1.8-0.4,2.4-1.3s0.9-2,0.9-3.6c0-1.6-0.3-2.8-1-3.5
				s-1.4-1.1-2.4-1.1c-1.1,0-1.9,0.4-2.6,1.2c-0.7,0.8-1,2-1,3.6C533.7,50.8,534,51.9,534.6,52.8z"/>
		</g>
	</g>
	<path class="st2" d="M282.5,153.5h-228c-16.5,0-30-13.5-30-30v0c0-16.5,13.5-30,30-30h228c16.5,0,30,13.5,30,30v0
		C312.5,140,299,153.5,282.5,153.5z"/>
	<path class="st2" d="M282.5,230.5h-228c-16.5,0-30-13.5-30-30v0c0-16.5,13.5-30,30-30h228c16.5,0,30,13.5,30,30v0
		C312.5,217,299,230.5,282.5,230.5z"/>
	<path class="st2" d="M282.5,307.5h-228c-16.5,0-30-13.5-30-30v0c0-16.5,13.5-30,30-30h228c16.5,0,30,13.5,30,30v0
		C312.5,294,299,307.5,282.5,307.5z"/>
	<g class="st3">
		<g>
			<path class="st4" d="M112.1,117.8c1.1,1.5,1.7,3.5,1.7,5.8c0,2.6-0.7,4.7-2,6.4c-1.5,2-3.7,3-6.6,3c-2.6,0-4.7-0.9-6.2-2.6
				c-1.4-1.7-2-3.8-2-6.4c0-2.3,0.6-4.3,1.7-6c1.5-2.1,3.7-3.2,6.6-3.2C108.4,114.9,110.7,115.9,112.1,117.8z M110.1,128.8
				c0.9-1.5,1.4-3.2,1.4-5.1c0-2-0.5-3.7-1.6-4.9s-2.5-1.9-4.3-1.9c-1.8,0-3.2,0.6-4.4,1.8s-1.7,3-1.7,5.4c0,1.9,0.5,3.5,1.4,4.8
				c1,1.3,2.5,2,4.7,2C107.7,131,109.1,130.3,110.1,128.8z"/>
			<path class="st4" d="M116.3,120h2v1.8c0.6-0.7,1.2-1.3,1.9-1.6s1.4-0.5,2.2-0.5c1.8,0,3,0.6,3.6,1.9c0.3,0.7,0.5,1.7,0.5,2.9v8.1
				h-2.1v-7.9c0-0.8-0.1-1.4-0.3-1.9c-0.4-0.8-1.1-1.2-2-1.2c-0.5,0-0.9,0.1-1.2,0.2c-0.6,0.2-1.1,0.5-1.5,1
				c-0.4,0.4-0.6,0.8-0.7,1.3s-0.2,1.1-0.2,1.9v6.6h-2.1V120z"/>
			<path class="st4" d="M137.4,120.4c0.8,0.4,1.5,1,1.9,1.6c0.4,0.6,0.7,1.4,0.8,2.2c0.1,0.6,0.2,1.5,0.2,2.8h-9.1
				c0,1.3,0.3,2.3,0.9,3.1c0.6,0.8,1.4,1.2,2.6,1.2c1.1,0,2-0.4,2.6-1.1c0.4-0.4,0.6-0.9,0.8-1.5h2.1c-0.1,0.5-0.2,1-0.5,1.5
				s-0.7,1-1,1.4c-0.6,0.6-1.4,1-2.4,1.3c-0.5,0.1-1.1,0.2-1.7,0.2c-1.6,0-2.9-0.6-3.9-1.7c-1.1-1.1-1.6-2.7-1.6-4.8
				c0-2,0.5-3.7,1.6-4.9c1.1-1.3,2.5-1.9,4.3-1.9C135.7,119.8,136.6,120,137.4,120.4z M138.2,125.3c-0.1-0.9-0.3-1.6-0.6-2.2
				c-0.6-1-1.5-1.5-2.9-1.5c-1,0-1.8,0.3-2.4,1s-1,1.6-1,2.7H138.2z"/>
			<path class="st4" d="M150.2,115.4h7.8c1.3,0,2.4,0.2,3.2,0.6c1.6,0.7,2.4,2.1,2.4,4.1c0,1-0.2,1.9-0.6,2.5s-1,1.2-1.8,1.6
				c0.7,0.3,1.2,0.6,1.5,1.1s0.5,1.2,0.6,2.2l0.1,2.3c0,0.7,0.1,1.1,0.2,1.5c0.1,0.5,0.4,0.9,0.8,1.1v0.4h-2.9
				c-0.1-0.1-0.1-0.3-0.2-0.6s-0.1-0.7-0.1-1.4l-0.1-2.9c-0.1-1.1-0.5-1.9-1.2-2.3c-0.4-0.2-1.1-0.3-2-0.3h-5.2v7.4h-2.3V115.4z
				 M157.8,123.3c1.1,0,1.9-0.2,2.5-0.7s0.9-1.2,0.9-2.4c0-1.2-0.4-2.1-1.3-2.5c-0.5-0.2-1.1-0.4-1.9-0.4h-5.5v5.9H157.8z"/>
			<path class="st4" d="M174.8,120.4c0.8,0.4,1.5,1,1.9,1.6c0.4,0.6,0.7,1.4,0.8,2.2c0.1,0.6,0.2,1.5,0.2,2.8h-9.1
				c0,1.3,0.3,2.3,0.9,3.1c0.6,0.8,1.4,1.2,2.6,1.2c1.1,0,2-0.4,2.6-1.1c0.4-0.4,0.6-0.9,0.8-1.5h2.1c-0.1,0.5-0.2,1-0.5,1.5
				s-0.7,1-1,1.4c-0.6,0.6-1.4,1-2.4,1.3c-0.5,0.1-1.1,0.2-1.7,0.2c-1.6,0-2.9-0.6-3.9-1.7c-1.1-1.1-1.6-2.7-1.6-4.8
				c0-2,0.5-3.7,1.6-4.9c1.1-1.3,2.5-1.9,4.3-1.9C173.1,119.8,173.9,120,174.8,120.4z M175.5,125.3c-0.1-0.9-0.3-1.6-0.6-2.2
				c-0.6-1-1.5-1.5-2.9-1.5c-1,0-1.8,0.3-2.4,1s-1,1.6-1,2.7H175.5z"/>
			<path class="st4" d="M180.2,120.1h2.1v1.7c0.4-0.6,0.9-1,1.4-1.3c0.7-0.5,1.6-0.7,2.5-0.7c1.4,0,2.6,0.5,3.6,1.6s1.5,2.6,1.5,4.7
				c0,2.7-0.7,4.7-2.2,5.9c-0.9,0.7-2,1.1-3.2,1.1c-0.9,0-1.7-0.2-2.4-0.6c-0.4-0.2-0.8-0.6-1.3-1.2v6.4h-2.1V120.1z M188.1,129.9
				c0.7-0.8,1-2.1,1-3.7c0-1-0.1-1.9-0.4-2.6c-0.5-1.4-1.6-2.1-3-2.1c-1.5,0-2.5,0.7-3,2.2c-0.3,0.8-0.4,1.8-0.4,3
				c0,1,0.1,1.8,0.4,2.5c0.5,1.3,1.6,1.9,3,1.9C186.7,131.2,187.5,130.8,188.1,129.9z"/>
			<path class="st4" d="M195.8,120v8.3c0,0.6,0.1,1.2,0.3,1.6c0.4,0.8,1,1.1,2,1.1c1.4,0,2.4-0.7,2.9-2c0.3-0.7,0.4-1.7,0.4-2.9V120
				h2.1v12.6h-2l0-1.9c-0.3,0.5-0.6,0.9-1,1.2c-0.8,0.7-1.7,1-2.9,1c-1.8,0-3-0.6-3.6-1.8c-0.3-0.6-0.5-1.5-0.5-2.6V120H195.8z"/>
			<path class="st4" d="M206.9,115.3h2.1v6.2c0.5-0.6,1-1.1,1.7-1.4c0.6-0.3,1.3-0.5,2.1-0.5c1.6,0,2.8,0.5,3.8,1.6s1.5,2.7,1.5,4.8
				c0,2-0.5,3.6-1.4,4.9s-2.3,2-4,2c-1,0-1.8-0.2-2.4-0.7c-0.4-0.3-0.8-0.7-1.3-1.3v1.6h-1.9V115.3z M215,129.8
				c0.6-0.9,0.9-2.1,0.9-3.6c0-1.3-0.3-2.4-0.9-3.3s-1.4-1.3-2.5-1.3c-1,0-1.8,0.4-2.5,1.1c-0.7,0.7-1.1,1.9-1.1,3.5
				c0,1.2,0.1,2.1,0.4,2.9c0.6,1.4,1.6,2.1,3.1,2.1C213.5,131.1,214.4,130.7,215,129.8z"/>
			<path class="st4" d="M220.5,115.4h2.1v17.2h-2.1V115.4z"/>
			<path class="st4" d="M225.7,115.4h2.1v2.4h-2.1V115.4z M225.7,120.1h2.1v12.5h-2.1V120.1z"/>
			<path class="st4" d="M239.4,120.7c0.9,0.7,1.4,1.9,1.6,3.6h-2.1c-0.1-0.8-0.4-1.4-0.9-1.9s-1.2-0.8-2.1-0.8c-1.3,0-2.3,0.7-2.9,2
				c-0.4,0.8-0.6,1.9-0.6,3.1c0,1.3,0.3,2.3,0.8,3.2s1.4,1.3,2.5,1.3c0.9,0,1.6-0.3,2.1-0.8s0.9-1.3,1.1-2.2h2.1
				c-0.2,1.7-0.8,2.9-1.8,3.7s-2.1,1.2-3.6,1.2c-1.6,0-2.9-0.6-3.9-1.8s-1.5-2.7-1.5-4.5c0-2.2,0.5-3.9,1.6-5.1s2.4-1.8,4.1-1.8
				C237.3,119.7,238.5,120,239.4,120.7z"/>
		</g>
	</g>
	<g class="st3">
		<path class="st4" d="M409,130c0.1,0.7,0.2,1.2,0.5,1.6c0.5,0.7,1.5,1,2.8,1c0.8,0,1.5-0.2,2.1-0.5s0.9-0.9,0.9-1.6
			c0-0.5-0.2-0.9-0.7-1.2c-0.3-0.2-0.9-0.4-1.8-0.6l-1.7-0.4c-1.1-0.3-1.9-0.6-2.4-0.9c-0.9-0.6-1.4-1.4-1.4-2.4
			c0-1.2,0.4-2.1,1.3-2.9s2-1.1,3.5-1.1c1.9,0,3.3,0.6,4.1,1.7c0.5,0.7,0.8,1.5,0.8,2.3h-2c0-0.5-0.2-0.9-0.5-1.3
			c-0.5-0.6-1.4-0.8-2.6-0.8c-0.8,0-1.4,0.2-1.9,0.5s-0.6,0.7-0.6,1.2c0,0.5,0.3,1,0.8,1.3c0.3,0.2,0.8,0.4,1.4,0.5l1.4,0.3
			c1.5,0.4,2.6,0.7,3.1,1.1c0.8,0.5,1.2,1.4,1.2,2.5c0,1.1-0.4,2.1-1.3,2.9c-0.9,0.8-2.2,1.2-3.9,1.2c-1.9,0-3.2-0.4-4-1.3
			s-1.2-1.9-1.3-3.1H409z"/>
		<path class="st4" d="M419.7,116.7h2.1v2.4h-2.1V116.7z M419.7,121.4h2.1v12.5h-2.1V121.4z"/>
		<path class="st4" d="M431.8,126.3c0.5-0.1,0.8-0.3,1-0.6c0.1-0.2,0.1-0.5,0.1-0.8c0-0.7-0.3-1.2-0.8-1.6s-1.2-0.5-2.2-0.5
			c-1.1,0-1.9,0.3-2.3,0.9c-0.3,0.3-0.4,0.8-0.5,1.5h-2c0-1.6,0.5-2.6,1.5-3.2c1-0.6,2.1-0.9,3.4-0.9c1.5,0,2.7,0.3,3.6,0.8
			c0.9,0.6,1.4,1.4,1.4,2.6v7.2c0,0.2,0,0.4,0.1,0.5c0.1,0.1,0.3,0.2,0.6,0.2c0.1,0,0.2,0,0.3,0s0.2,0,0.4-0.1v1.6
			c-0.3,0.1-0.6,0.2-0.8,0.2s-0.4,0-0.7,0c-0.7,0-1.3-0.3-1.6-0.8c-0.2-0.3-0.3-0.7-0.4-1.2c-0.4,0.6-1,1.1-1.9,1.5
			s-1.7,0.6-2.7,0.6c-1.2,0-2.1-0.4-2.9-1.1s-1.1-1.6-1.1-2.7c0-1.2,0.4-2.1,1.1-2.7s1.7-1,2.9-1.2L431.8,126.3z M427.3,132
			c0.4,0.4,1,0.5,1.6,0.5c0.7,0,1.5-0.2,2.2-0.5c1.2-0.6,1.8-1.5,1.8-2.8v-1.7c-0.3,0.2-0.6,0.3-1,0.4c-0.4,0.1-0.8,0.2-1.2,0.2
			l-1.3,0.2c-0.8,0.1-1.3,0.3-1.7,0.5c-0.7,0.4-1,1-1,1.8C426.7,131.2,426.9,131.7,427.3,132z"/>
	</g>
	<g class="st3">
		<path class="st4" d="M390.3,266.7h7.8c1.3,0,2.4,0.2,3.2,0.6c1.6,0.7,2.4,2.1,2.4,4.1c0,1-0.2,1.9-0.6,2.5s-1,1.2-1.8,1.6
			c0.7,0.3,1.2,0.6,1.5,1.1s0.5,1.2,0.6,2.2l0.1,2.3c0,0.7,0.1,1.1,0.2,1.5c0.1,0.5,0.4,0.9,0.8,1.1v0.4h-2.9
			c-0.1-0.1-0.1-0.3-0.2-0.6s-0.1-0.7-0.1-1.4l-0.1-2.9c-0.1-1.1-0.5-1.9-1.2-2.3c-0.4-0.2-1.1-0.3-2-0.3h-5.2v7.4h-2.3V266.7z
			 M397.9,274.6c1.1,0,1.9-0.2,2.5-0.7c0.6-0.4,0.9-1.2,0.9-2.4c0-1.2-0.4-2.1-1.3-2.5c-0.5-0.2-1.1-0.4-1.9-0.4h-5.5v5.9H397.9z"/>
		<path class="st4" d="M407,266.7h2.1v2.4H407V266.7z M407,271.4h2.1v12.5H407V271.4z"/>
		<path class="st4" d="M412.4,266.6h2.1v6.4c0.5-0.6,0.9-1.1,1.3-1.3c0.7-0.4,1.5-0.7,2.5-0.7c1.8,0,3.1,0.6,3.7,1.9
			c0.4,0.7,0.5,1.7,0.5,2.9v8.1h-2.2V276c0-0.9-0.1-1.6-0.4-2c-0.4-0.7-1.1-1-2.2-1c-0.9,0-1.7,0.3-2.4,0.9s-1.1,1.7-1.1,3.4v6.7
			h-2.1V266.6z"/>
		<path class="st4" d="M432.5,276.3c0.5-0.1,0.8-0.3,1-0.6c0.1-0.2,0.1-0.5,0.1-0.8c0-0.7-0.3-1.2-0.8-1.6s-1.2-0.5-2.2-0.5
			c-1.1,0-1.9,0.3-2.3,0.9c-0.3,0.3-0.4,0.8-0.5,1.5h-2c0-1.6,0.5-2.6,1.5-3.2c1-0.6,2.1-0.9,3.4-0.9c1.5,0,2.7,0.3,3.6,0.8
			c0.9,0.6,1.4,1.4,1.4,2.6v7.2c0,0.2,0,0.4,0.1,0.5c0.1,0.1,0.3,0.2,0.6,0.2c0.1,0,0.2,0,0.3,0s0.2,0,0.4-0.1v1.6
			c-0.3,0.1-0.6,0.2-0.8,0.2s-0.4,0-0.7,0c-0.7,0-1.3-0.3-1.6-0.8c-0.2-0.3-0.3-0.7-0.4-1.2c-0.4,0.6-1,1.1-1.9,1.5
			s-1.7,0.6-2.7,0.6c-1.2,0-2.1-0.4-2.9-1.1s-1.1-1.6-1.1-2.7c0-1.2,0.4-2.1,1.1-2.7s1.7-1,2.9-1.2L432.5,276.3z M428,282
			c0.4,0.4,1,0.5,1.6,0.5c0.7,0,1.5-0.2,2.2-0.5c1.2-0.6,1.8-1.5,1.8-2.8v-1.7c-0.3,0.2-0.6,0.3-1,0.4c-0.4,0.1-0.8,0.2-1.2,0.2
			l-1.3,0.2c-0.8,0.1-1.3,0.3-1.7,0.5c-0.7,0.4-1,1-1,1.8C427.3,281.2,427.6,281.7,428,282z"/>
		<path class="st4" d="M439.1,271.4h2v1.8c0.6-0.7,1.2-1.3,1.9-1.6s1.4-0.5,2.2-0.5c1.8,0,3,0.6,3.6,1.9c0.3,0.7,0.5,1.7,0.5,2.9
			v8.1h-2.1V276c0-0.8-0.1-1.4-0.3-1.9c-0.4-0.8-1.1-1.2-2-1.2c-0.5,0-0.9,0.1-1.2,0.2c-0.6,0.2-1.1,0.5-1.5,1
			c-0.4,0.4-0.6,0.8-0.7,1.3s-0.2,1.1-0.2,1.9v6.6h-2.1V271.4z"/>
		<path class="st4" d="M452.4,271.4h2v1.8c0.6-0.7,1.2-1.3,1.9-1.6s1.4-0.5,2.2-0.5c1.8,0,3,0.6,3.6,1.9c0.3,0.7,0.5,1.7,0.5,2.9
			v8.1h-2.1V276c0-0.8-0.1-1.4-0.3-1.9c-0.4-0.8-1.1-1.2-2-1.2c-0.5,0-0.9,0.1-1.2,0.2c-0.6,0.2-1.1,0.5-1.5,1
			c-0.4,0.4-0.6,0.8-0.7,1.3s-0.2,1.1-0.2,1.9v6.6h-2.1V271.4z"/>
		<path class="st4" d="M472.5,276.3c0.5-0.1,0.8-0.3,1-0.6c0.1-0.2,0.1-0.5,0.1-0.8c0-0.7-0.3-1.2-0.8-1.6s-1.2-0.5-2.2-0.5
			c-1.1,0-1.9,0.3-2.3,0.9c-0.3,0.3-0.4,0.8-0.5,1.5h-2c0-1.6,0.5-2.6,1.5-3.2c1-0.6,2.1-0.9,3.4-0.9c1.5,0,2.7,0.3,3.6,0.8
			c0.9,0.6,1.4,1.4,1.4,2.6v7.2c0,0.2,0,0.4,0.1,0.5c0.1,0.1,0.3,0.2,0.6,0.2c0.1,0,0.2,0,0.3,0s0.2,0,0.4-0.1v1.6
			c-0.3,0.1-0.6,0.2-0.8,0.2s-0.4,0-0.7,0c-0.7,0-1.3-0.3-1.6-0.8c-0.2-0.3-0.3-0.7-0.4-1.2c-0.4,0.6-1,1.1-1.9,1.5
			s-1.7,0.6-2.7,0.6c-1.2,0-2.1-0.4-2.9-1.1s-1.1-1.6-1.1-2.7c0-1.2,0.4-2.1,1.1-2.7s1.7-1,2.9-1.2L472.5,276.3z M468.1,282
			c0.4,0.4,1,0.5,1.6,0.5c0.7,0,1.5-0.2,2.2-0.5c1.2-0.6,1.8-1.5,1.8-2.8v-1.7c-0.3,0.2-0.6,0.3-1,0.4c-0.4,0.1-0.8,0.2-1.2,0.2
			l-1.3,0.2c-0.8,0.1-1.3,0.3-1.7,0.5c-0.7,0.4-1,1-1,1.8C467.4,281.2,467.6,281.7,468.1,282z"/>
	</g>
	<path class="st2" d="M703.5,305.5h-131c-16.5,0-30-13.5-30-30v0c0-16.5,13.5-30,30-30h131c16.5,0,30,13.5,30,30v0
		C733.5,292,720,305.5,703.5,305.5z"/>
	<g class="st3">
		<path class="st4" d="M596.9,266.7h7.4c2,0,3.5,0.6,4.3,1.8c0.5,0.7,0.8,1.5,0.8,2.5c0,1.1-0.3,2-0.9,2.7c-0.3,0.4-0.8,0.7-1.4,1
			c0.9,0.3,1.5,0.7,2,1.1c0.8,0.8,1.2,1.8,1.2,3.1c0,1.1-0.4,2.1-1,3c-1,1.3-2.7,2-5,2h-7.3V266.7z M603.5,274c1,0,1.8-0.1,2.3-0.4
			c0.9-0.4,1.3-1.2,1.3-2.3c0-1.1-0.5-1.9-1.4-2.3c-0.5-0.2-1.3-0.3-2.3-0.3h-4.2v5.3H603.5z M604.3,281.9c1.4,0,2.5-0.4,3.1-1.2
			c0.4-0.5,0.6-1.2,0.6-1.9c0-1.2-0.6-2.1-1.7-2.6c-0.6-0.2-1.4-0.4-2.4-0.4h-4.7v6.1H604.3z"/>
		<path class="st4" d="M620.5,271.7c0.8,0.4,1.5,1,1.9,1.6c0.4,0.6,0.7,1.4,0.8,2.2c0.1,0.6,0.2,1.5,0.2,2.8h-9.1
			c0,1.3,0.3,2.3,0.9,3.1s1.4,1.2,2.6,1.2c1.1,0,2-0.4,2.6-1.1c0.4-0.4,0.6-0.9,0.8-1.5h2.1c-0.1,0.5-0.2,1-0.5,1.5s-0.7,1-1,1.4
			c-0.6,0.6-1.4,1-2.4,1.3c-0.5,0.1-1.1,0.2-1.7,0.2c-1.6,0-2.9-0.6-3.9-1.7s-1.6-2.7-1.6-4.8c0-2,0.5-3.7,1.6-4.9s2.5-1.9,4.3-1.9
			C618.8,271.1,619.6,271.3,620.5,271.7z M621.2,276.6c-0.1-0.9-0.3-1.6-0.6-2.2c-0.6-1-1.5-1.5-2.9-1.5c-1,0-1.8,0.3-2.4,1
			s-1,1.6-1,2.7H621.2z"/>
		<path class="st4" d="M633.9,271.4h2.3c-0.3,0.8-1,2.6-2,5.5c-0.8,2.2-1.4,3.9-1.9,5.3c-1.2,3.2-2.1,5.2-2.6,5.9
			c-0.5,0.7-1.4,1.1-2.6,1.1c-0.3,0-0.5,0-0.7,0s-0.4-0.1-0.6-0.1V287c0.4,0.1,0.6,0.2,0.8,0.2s0.3,0,0.4,0c0.4,0,0.7-0.1,0.9-0.2
			c0.2-0.1,0.3-0.3,0.5-0.5c0-0.1,0.2-0.4,0.4-1c0.2-0.6,0.4-1,0.5-1.3l-4.6-12.9h2.4l3.4,10.2L633.9,271.4z"/>
		<path class="st4" d="M647.2,272.6c1.1,1.1,1.7,2.7,1.7,4.8c0,2-0.5,3.7-1.5,5s-2.5,2-4.5,2c-1.7,0-3.1-0.6-4.1-1.8
			c-1-1.2-1.5-2.7-1.5-4.7c0-2.1,0.5-3.8,1.6-5c1.1-1.2,2.5-1.9,4.3-1.9C644.7,271,646.1,271.5,647.2,272.6z M645.9,280.9
			c0.5-1.1,0.8-2.2,0.8-3.5c0-1.2-0.2-2.1-0.6-2.9c-0.6-1.2-1.6-1.7-3-1.7c-1.3,0-2.2,0.5-2.8,1.5c-0.6,1-0.9,2.2-0.9,3.6
			c0,1.3,0.3,2.4,0.9,3.3c0.6,0.9,1.5,1.3,2.8,1.3C644.4,282.5,645.3,282,645.9,280.9z"/>
		<path class="st4" d="M651.4,271.4h2v1.8c0.6-0.7,1.2-1.3,1.9-1.6s1.4-0.5,2.2-0.5c1.8,0,3,0.6,3.6,1.9c0.3,0.7,0.5,1.7,0.5,2.9
			v8.1h-2.1V276c0-0.8-0.1-1.4-0.3-1.9c-0.4-0.8-1.1-1.2-2-1.2c-0.5,0-0.9,0.1-1.2,0.2c-0.6,0.2-1.1,0.5-1.5,1
			c-0.4,0.4-0.6,0.8-0.7,1.3s-0.2,1.1-0.2,1.9v6.6h-2.1V271.4z"/>
		<path class="st4" d="M673.1,272c0.9,0.7,1.4,1.9,1.6,3.6h-2.1c-0.1-0.8-0.4-1.4-0.9-1.9s-1.2-0.8-2.1-0.8c-1.3,0-2.3,0.7-2.9,2
			c-0.4,0.8-0.6,1.9-0.6,3.1c0,1.3,0.3,2.3,0.8,3.2s1.4,1.3,2.5,1.3c0.9,0,1.6-0.3,2.1-0.8s0.9-1.3,1.1-2.2h2.1
			c-0.2,1.7-0.8,2.9-1.8,3.7s-2.1,1.2-3.6,1.2c-1.6,0-2.9-0.6-3.9-1.8s-1.5-2.7-1.5-4.5c0-2.2,0.5-3.9,1.6-5.1s2.4-1.8,4.1-1.8
			C671,271,672.2,271.3,673.1,272z"/>
		<path class="st4" d="M684.5,271.7c0.8,0.4,1.5,1,1.9,1.6c0.4,0.6,0.7,1.4,0.8,2.2c0.1,0.6,0.2,1.5,0.2,2.8h-9.1
			c0,1.3,0.3,2.3,0.9,3.1s1.4,1.2,2.6,1.2c1.1,0,2-0.4,2.6-1.1c0.4-0.4,0.6-0.9,0.8-1.5h2.1c-0.1,0.5-0.2,1-0.5,1.5s-0.7,1-1,1.4
			c-0.6,0.6-1.4,1-2.4,1.3c-0.5,0.1-1.1,0.2-1.7,0.2c-1.6,0-2.9-0.6-3.9-1.7s-1.6-2.7-1.6-4.8c0-2,0.5-3.7,1.6-4.9s2.5-1.9,4.3-1.9
			C682.8,271.1,683.7,271.3,684.5,271.7z M685.3,276.6c-0.1-0.9-0.3-1.6-0.6-2.2c-0.6-1-1.5-1.5-2.9-1.5c-1,0-1.8,0.3-2.4,1
			s-1,1.6-1,2.7H685.3z"/>
	</g>
	<g class="st3">
		<path class="st4" d="M583.9,116.7h3.3l5,14.6l4.9-14.6h3.3v17.2h-2.2v-10.2c0-0.4,0-0.9,0-1.7s0-1.7,0-2.6l-4.9,14.5h-2.3l-5-14.5
			v0.5c0,0.4,0,1.1,0,1.9s0,1.5,0,1.9v10.2h-2.2V116.7z"/>
		<path class="st4" d="M610.4,126.3c0.5-0.1,0.8-0.3,1-0.6c0.1-0.2,0.1-0.5,0.1-0.8c0-0.7-0.3-1.2-0.8-1.6s-1.2-0.5-2.2-0.5
			c-1.1,0-1.9,0.3-2.3,0.9c-0.3,0.3-0.4,0.8-0.5,1.5h-2c0-1.6,0.5-2.6,1.5-3.2c1-0.6,2.1-0.9,3.4-0.9c1.5,0,2.7,0.3,3.6,0.8
			c0.9,0.6,1.4,1.4,1.4,2.6v7.2c0,0.2,0,0.4,0.1,0.5c0.1,0.1,0.3,0.2,0.6,0.2c0.1,0,0.2,0,0.3,0s0.2,0,0.4-0.1v1.6
			c-0.3,0.1-0.6,0.2-0.8,0.2s-0.4,0-0.7,0c-0.7,0-1.3-0.3-1.6-0.8c-0.2-0.3-0.3-0.7-0.4-1.2c-0.4,0.6-1,1.1-1.9,1.5
			s-1.7,0.6-2.7,0.6c-1.2,0-2.1-0.4-2.9-1.1s-1.1-1.6-1.1-2.7c0-1.2,0.4-2.1,1.1-2.7s1.7-1,2.9-1.2L610.4,126.3z M606,132
			c0.4,0.4,1,0.5,1.6,0.5c0.7,0,1.5-0.2,2.2-0.5c1.2-0.6,1.8-1.5,1.8-2.8v-1.7c-0.3,0.2-0.6,0.3-1,0.4c-0.4,0.1-0.8,0.2-1.2,0.2
			l-1.3,0.2c-0.8,0.1-1.3,0.3-1.7,0.5c-0.7,0.4-1,1-1,1.8C605.3,131.2,605.5,131.7,606,132z"/>
		<path class="st4" d="M617.1,121.4h2v2.2c0.2-0.4,0.6-0.9,1.2-1.5s1.4-0.9,2.2-0.9c0,0,0.1,0,0.2,0s0.3,0,0.5,0v2.2
			c-0.1,0-0.2,0-0.3,0s-0.2,0-0.3,0c-1.1,0-1.9,0.3-2.4,1s-0.9,1.5-0.9,2.4v7.2h-2.1V121.4z"/>
		<path class="st4" d="M634.1,122.6c1.1,1.1,1.7,2.7,1.7,4.8c0,2-0.5,3.7-1.5,5s-2.5,2-4.5,2c-1.7,0-3.1-0.6-4.1-1.8
			c-1-1.2-1.5-2.7-1.5-4.7c0-2.1,0.5-3.8,1.6-5c1.1-1.2,2.5-1.9,4.3-1.9C631.7,121,633,121.5,634.1,122.6z M632.8,130.9
			c0.5-1.1,0.8-2.2,0.8-3.5c0-1.2-0.2-2.1-0.6-2.9c-0.6-1.2-1.6-1.7-3-1.7c-1.3,0-2.2,0.5-2.8,1.5c-0.6,1-0.9,2.2-0.9,3.6
			c0,1.3,0.3,2.4,0.9,3.3c0.6,0.9,1.5,1.3,2.8,1.3C631.4,132.5,632.3,132,632.8,130.9z"/>
		<path class="st4" d="M647.5,122.6c1.1,1.1,1.7,2.7,1.7,4.8c0,2-0.5,3.7-1.5,5s-2.5,2-4.5,2c-1.7,0-3.1-0.6-4.1-1.8
			c-1-1.2-1.5-2.7-1.5-4.7c0-2.1,0.5-3.8,1.6-5c1.1-1.2,2.5-1.9,4.3-1.9C645,121,646.4,121.5,647.5,122.6z M646.2,130.9
			c0.5-1.1,0.8-2.2,0.8-3.5c0-1.2-0.2-2.1-0.6-2.9c-0.6-1.2-1.6-1.7-3-1.7c-1.3,0-2.2,0.5-2.8,1.5c-0.6,1-0.9,2.2-0.9,3.6
			c0,1.3,0.3,2.4,0.9,3.3c0.6,0.9,1.5,1.3,2.8,1.3C644.7,132.5,645.7,132,646.2,130.9z"/>
		<path class="st4" d="M651.7,121.4h2v1.8c0.6-0.7,1.2-1.3,1.9-1.6s1.4-0.5,2.2-0.5c1.8,0,3,0.6,3.6,1.9c0.3,0.7,0.5,1.7,0.5,2.9
			v8.1h-2.1V126c0-0.8-0.1-1.4-0.3-1.9c-0.4-0.8-1.1-1.2-2-1.2c-0.5,0-0.9,0.1-1.2,0.2c-0.6,0.2-1.1,0.5-1.5,1
			c-0.4,0.4-0.6,0.8-0.7,1.3s-0.2,1.1-0.2,1.9v6.6h-2.1V121.4z"/>
		<path class="st4" d="M666.5,129.6c0.1,1.2,0.7,2,1.7,2.5c0.5,0.2,1.1,0.4,1.7,0.4c1.2,0,2.2-0.4,2.8-1.2s0.9-1.7,0.9-2.6
			c0-1.2-0.4-2.1-1.1-2.7s-1.6-1-2.6-1c-0.7,0-1.3,0.1-1.9,0.4s-1,0.7-1.3,1.2l-1.8-0.1l1.3-9h8.7v2h-7.1l-0.7,4.7
			c0.4-0.3,0.8-0.5,1.1-0.7c0.6-0.3,1.3-0.4,2.2-0.4c1.5,0,2.8,0.5,3.9,1.5s1.6,2.2,1.6,3.8c0,1.6-0.5,3-1.5,4.2s-2.5,1.8-4.7,1.8
			c-1.4,0-2.6-0.4-3.6-1.2s-1.6-2-1.8-3.5H666.5z"/>
	</g>
	<g class="st3">
		<path class="st4" d="M109,191.7h2.3v15.2h8.6v2.1h-11V191.7z"/>
		<path class="st4" d="M122.1,191.7h2.1v2.4h-2.1V191.7z M122.1,196.4h2.1v12.5h-2.1V196.4z"/>
		<path class="st4" d="M127.4,196.4h2v1.8c0.6-0.7,1.2-1.3,1.9-1.6s1.4-0.5,2.2-0.5c1.8,0,3,0.6,3.6,1.9c0.3,0.7,0.5,1.7,0.5,2.9
			v8.1h-2.1V201c0-0.8-0.1-1.4-0.3-1.9c-0.4-0.8-1.1-1.2-2-1.2c-0.5,0-0.9,0.1-1.2,0.2c-0.6,0.2-1.1,0.5-1.5,1
			c-0.4,0.4-0.6,0.8-0.7,1.3s-0.2,1.1-0.2,1.9v6.6h-2.1V196.4z"/>
		<path class="st4" d="M140.7,191.7h2v10l5.4-5.3h2.7L146,201l5.1,7.9h-2.7l-3.9-6.4l-1.7,1.7v4.7h-2V191.7z"/>
		<path class="st4" d="M152.7,191.7h2.1v2.4h-2.1V191.7z M152.7,196.4h2.1v12.5h-2.1V196.4z"/>
		<path class="st4" d="M158.1,196.4h2v1.8c0.6-0.7,1.2-1.3,1.9-1.6s1.4-0.5,2.2-0.5c1.8,0,3,0.6,3.6,1.9c0.3,0.7,0.5,1.7,0.5,2.9
			v8.1h-2.1V201c0-0.8-0.1-1.4-0.3-1.9c-0.4-0.8-1.1-1.2-2-1.2c-0.5,0-0.9,0.1-1.2,0.2c-0.6,0.2-1.1,0.5-1.5,1
			c-0.4,0.4-0.6,0.8-0.7,1.3s-0.2,1.1-0.2,1.9v6.6h-2.1V196.4z"/>
		<path class="st4" d="M178.6,191.7h7.7c1.5,0,2.8,0.4,3.7,1.3c0.9,0.9,1.4,2.1,1.4,3.6c0,1.3-0.4,2.5-1.3,3.5s-2.1,1.5-3.8,1.5
			h-5.4v7.3h-2.3V191.7z M187.6,194.1c-0.5-0.2-1.2-0.4-2.1-0.4h-4.6v6h4.6c1,0,1.9-0.2,2.5-0.7c0.6-0.4,1-1.2,1-2.4
			C189,195.4,188.6,194.5,187.6,194.1z"/>
		<path class="st4" d="M200.8,201.3c0.5-0.1,0.8-0.3,1-0.6c0.1-0.2,0.1-0.5,0.1-0.8c0-0.7-0.3-1.2-0.8-1.6s-1.2-0.5-2.2-0.5
			c-1.1,0-1.9,0.3-2.3,0.9c-0.3,0.3-0.4,0.8-0.5,1.5h-2c0-1.6,0.5-2.6,1.5-3.2c1-0.6,2.1-0.9,3.4-0.9c1.5,0,2.7,0.3,3.6,0.8
			c0.9,0.6,1.4,1.4,1.4,2.6v7.2c0,0.2,0,0.4,0.1,0.5c0.1,0.1,0.3,0.2,0.6,0.2c0.1,0,0.2,0,0.3,0s0.2,0,0.4-0.1v1.6
			c-0.3,0.1-0.6,0.2-0.8,0.2s-0.4,0-0.7,0c-0.7,0-1.3-0.3-1.6-0.8c-0.2-0.3-0.3-0.7-0.4-1.2c-0.4,0.6-1,1.1-1.9,1.5
			s-1.7,0.6-2.7,0.6c-1.2,0-2.1-0.4-2.9-1.1s-1.1-1.6-1.1-2.7c0-1.2,0.4-2.1,1.1-2.7s1.7-1,2.9-1.2L200.8,201.3z M196.4,207
			c0.4,0.4,1,0.5,1.6,0.5c0.7,0,1.5-0.2,2.2-0.5c1.2-0.6,1.8-1.5,1.8-2.8v-1.7c-0.3,0.2-0.6,0.3-1,0.4c-0.4,0.1-0.8,0.2-1.2,0.2
			l-1.3,0.2c-0.8,0.1-1.3,0.3-1.7,0.5c-0.7,0.4-1,1-1,1.8C195.7,206.2,195.9,206.7,196.4,207z"/>
		<path class="st4" d="M207.5,196.4h2v2.2c0.2-0.4,0.6-0.9,1.2-1.5s1.4-0.9,2.2-0.9c0,0,0.1,0,0.2,0s0.3,0,0.5,0v2.2
			c-0.1,0-0.2,0-0.3,0s-0.2,0-0.3,0c-1.1,0-1.9,0.3-2.4,1s-0.9,1.5-0.9,2.4v7.2h-2.1V196.4z"/>
		<path class="st4" d="M215.4,191.7h2v10l5.4-5.3h2.7l-4.8,4.7l5.1,7.9h-2.7l-3.9-6.4l-1.7,1.7v4.7h-2V191.7z"/>
	</g>
	<g class="st3">
		<path class="st4" d="M105.5,266.7v2.1h-5.8v15.2h-2.4v-15.2h-5.8v-2.1H105.5z"/>
		<path class="st4" d="M107.4,266.6h2.1v6.4c0.5-0.6,0.9-1.1,1.3-1.3c0.7-0.4,1.5-0.7,2.5-0.7c1.8,0,3.1,0.6,3.7,1.9
			c0.4,0.7,0.5,1.7,0.5,2.9v8.1h-2.2V276c0-0.9-0.1-1.6-0.4-2c-0.4-0.7-1.1-1-2.2-1c-0.9,0-1.7,0.3-2.4,0.9s-1.1,1.7-1.1,3.4v6.7
			h-2.1V266.6z"/>
		<path class="st4" d="M128.5,271.7c0.8,0.4,1.5,1,1.9,1.6c0.4,0.6,0.7,1.4,0.8,2.2c0.1,0.6,0.2,1.5,0.2,2.8h-9.1
			c0,1.3,0.3,2.3,0.9,3.1s1.4,1.2,2.6,1.2c1.1,0,2-0.4,2.6-1.1c0.4-0.4,0.6-0.9,0.8-1.5h2.1c-0.1,0.5-0.2,1-0.5,1.5s-0.7,1-1,1.4
			c-0.6,0.6-1.4,1-2.4,1.3c-0.5,0.1-1.1,0.2-1.7,0.2c-1.6,0-2.9-0.6-3.9-1.7s-1.6-2.7-1.6-4.8c0-2,0.5-3.7,1.6-4.9s2.5-1.9,4.3-1.9
			C126.8,271.1,127.6,271.3,128.5,271.7z M129.2,276.6c-0.1-0.9-0.3-1.6-0.6-2.2c-0.6-1-1.5-1.5-2.9-1.5c-1,0-1.8,0.3-2.4,1
			s-1,1.6-1,2.7H129.2z"/>
		<path class="st4" d="M142.2,266.7l3.2,14l3.9-14h2.5l3.9,14l3.2-14h2.6l-4.5,17.2h-2.4l-4-14.3l-4,14.3h-2.4l-4.5-17.2H142.2z"/>
		<path class="st4" d="M170.7,271.7c0.8,0.4,1.5,1,1.9,1.6c0.4,0.6,0.7,1.4,0.8,2.2c0.1,0.6,0.2,1.5,0.2,2.8h-9.1
			c0,1.3,0.3,2.3,0.9,3.1s1.4,1.2,2.6,1.2c1.1,0,2-0.4,2.6-1.1c0.4-0.4,0.6-0.9,0.8-1.5h2.1c-0.1,0.5-0.2,1-0.5,1.5s-0.7,1-1,1.4
			c-0.6,0.6-1.4,1-2.4,1.3c-0.5,0.1-1.1,0.2-1.7,0.2c-1.6,0-2.9-0.6-3.9-1.7s-1.6-2.7-1.6-4.8c0-2,0.5-3.7,1.6-4.9s2.5-1.9,4.3-1.9
			C169,271.1,169.9,271.3,170.7,271.7z M171.5,276.6c-0.1-0.9-0.3-1.6-0.6-2.2c-0.6-1-1.5-1.5-2.9-1.5c-1,0-1.8,0.3-2.4,1
			s-1,1.6-1,2.7H171.5z"/>
		<path class="st4" d="M184.1,271.7c0.8,0.4,1.5,1,1.9,1.6c0.4,0.6,0.7,1.4,0.8,2.2c0.1,0.6,0.2,1.5,0.2,2.8h-9.1
			c0,1.3,0.3,2.3,0.9,3.1s1.4,1.2,2.6,1.2c1.1,0,2-0.4,2.6-1.1c0.4-0.4,0.6-0.9,0.8-1.5h2.1c-0.1,0.5-0.2,1-0.5,1.5s-0.7,1-1,1.4
			c-0.6,0.6-1.4,1-2.4,1.3c-0.5,0.1-1.1,0.2-1.7,0.2c-1.6,0-2.9-0.6-3.9-1.7s-1.6-2.7-1.6-4.8c0-2,0.5-3.7,1.6-4.9s2.5-1.9,4.3-1.9
			C182.4,271.1,183.2,271.3,184.1,271.7z M184.8,276.6c-0.1-0.9-0.3-1.6-0.6-2.2c-0.6-1-1.5-1.5-2.9-1.5c-1,0-1.8,0.3-2.4,1
			s-1,1.6-1,2.7H184.8z"/>
		<path class="st4" d="M189.6,266.7h2v10l5.4-5.3h2.7l-4.8,4.7l5.1,7.9h-2.7l-3.9-6.4l-1.7,1.7v4.7h-2V266.7z"/>
		<path class="st4" d="M209.4,271.7c0.8,0.4,1.5,1,1.9,1.6c0.4,0.6,0.7,1.4,0.8,2.2c0.1,0.6,0.2,1.5,0.2,2.8h-9.1
			c0,1.3,0.3,2.3,0.9,3.1s1.4,1.2,2.6,1.2c1.1,0,2-0.4,2.6-1.1c0.4-0.4,0.6-0.9,0.8-1.5h2.1c-0.1,0.5-0.2,1-0.5,1.5s-0.7,1-1,1.4
			c-0.6,0.6-1.4,1-2.4,1.3c-0.5,0.1-1.1,0.2-1.7,0.2c-1.6,0-2.9-0.6-3.9-1.7s-1.6-2.7-1.6-4.8c0-2,0.5-3.7,1.6-4.9s2.5-1.9,4.3-1.9
			C207.7,271.1,208.6,271.3,209.4,271.7z M210.2,276.6c-0.1-0.9-0.3-1.6-0.6-2.2c-0.6-1-1.5-1.5-2.9-1.5c-1,0-1.8,0.3-2.4,1
			s-1,1.6-1,2.7H210.2z"/>
		<path class="st4" d="M215,271.4h2v1.8c0.6-0.7,1.2-1.3,1.9-1.6s1.4-0.5,2.2-0.5c1.8,0,3,0.6,3.6,1.9c0.3,0.7,0.5,1.7,0.5,2.9v8.1
			h-2.1V276c0-0.8-0.1-1.4-0.3-1.9c-0.4-0.8-1.1-1.2-2-1.2c-0.5,0-0.9,0.1-1.2,0.2c-0.6,0.2-1.1,0.5-1.5,1c-0.4,0.4-0.6,0.8-0.7,1.3
			s-0.2,1.1-0.2,1.9v6.6H215V271.4z"/>
		<path class="st4" d="M235.3,271.7c0.4,0.2,0.8,0.6,1.3,1.2v-6.3h2v17.3h-1.9v-1.7c-0.5,0.8-1.1,1.3-1.7,1.7
			c-0.7,0.3-1.4,0.5-2.3,0.5c-1.4,0-2.6-0.6-3.6-1.8s-1.5-2.7-1.5-4.7c0-1.8,0.5-3.4,1.4-4.8c0.9-1.3,2.3-2,4-2
			C233.8,271.1,234.6,271.3,235.3,271.7z M230.5,281.1c0.6,0.9,1.5,1.4,2.7,1.4c1,0,1.8-0.4,2.4-1.3c0.6-0.8,0.9-2,0.9-3.6
			c0-1.6-0.3-2.8-1-3.5s-1.4-1.1-2.4-1.1c-1.1,0-1.9,0.4-2.6,1.2c-0.7,0.8-1,2-1,3.6C229.7,279.1,230,280.2,230.5,281.1z"/>
	</g>
	<g class="st3">
		<path class="st4" d="M467,191.7h2.3v15.2h8.6v2.1h-11V191.7z"/>
		<path class="st4" d="M486.8,201.3c0.5-0.1,0.8-0.3,1-0.6c0.1-0.2,0.1-0.5,0.1-0.8c0-0.7-0.3-1.2-0.8-1.6s-1.2-0.5-2.2-0.5
			c-1.1,0-1.9,0.3-2.3,0.9c-0.3,0.3-0.4,0.8-0.5,1.5h-2c0-1.6,0.5-2.6,1.5-3.2c1-0.6,2.1-0.9,3.4-0.9c1.5,0,2.7,0.3,3.6,0.8
			c0.9,0.6,1.4,1.4,1.4,2.6v7.2c0,0.2,0,0.4,0.1,0.5c0.1,0.1,0.3,0.2,0.6,0.2c0.1,0,0.2,0,0.3,0s0.2,0,0.4-0.1v1.6
			c-0.3,0.1-0.6,0.2-0.8,0.2s-0.4,0-0.7,0c-0.7,0-1.3-0.3-1.6-0.8c-0.2-0.3-0.3-0.7-0.4-1.2c-0.4,0.6-1,1.1-1.9,1.5
			s-1.7,0.6-2.7,0.6c-1.2,0-2.1-0.4-2.9-1.1s-1.1-1.6-1.1-2.7c0-1.2,0.4-2.1,1.1-2.7s1.7-1,2.9-1.2L486.8,201.3z M482.3,207
			c0.4,0.4,1,0.5,1.6,0.5c0.7,0,1.5-0.2,2.2-0.5c1.2-0.6,1.8-1.5,1.8-2.8v-1.7c-0.3,0.2-0.6,0.3-1,0.4c-0.4,0.1-0.8,0.2-1.2,0.2
			l-1.3,0.2c-0.8,0.1-1.3,0.3-1.7,0.5c-0.7,0.4-1,1-1,1.8C481.7,206.2,481.9,206.7,482.3,207z"/>
		<path class="st4" d="M493.4,196.4h2v1.8c0.6-0.7,1.2-1.3,1.9-1.6s1.4-0.5,2.2-0.5c1.8,0,3,0.6,3.6,1.9c0.3,0.7,0.5,1.7,0.5,2.9
			v8.1h-2.1V201c0-0.8-0.1-1.4-0.3-1.9c-0.4-0.8-1.1-1.2-2-1.2c-0.5,0-0.9,0.1-1.2,0.2c-0.6,0.2-1.1,0.5-1.5,1
			c-0.4,0.4-0.6,0.8-0.7,1.3s-0.2,1.1-0.2,1.9v6.6h-2.1V196.4z"/>
		<path class="st4" d="M513.5,201.3c0.5-0.1,0.8-0.3,1-0.6c0.1-0.2,0.1-0.5,0.1-0.8c0-0.7-0.3-1.2-0.8-1.6s-1.2-0.5-2.2-0.5
			c-1.1,0-1.9,0.3-2.3,0.9c-0.3,0.3-0.4,0.8-0.5,1.5h-2c0-1.6,0.5-2.6,1.5-3.2c1-0.6,2.1-0.9,3.4-0.9c1.5,0,2.7,0.3,3.6,0.8
			c0.9,0.6,1.4,1.4,1.4,2.6v7.2c0,0.2,0,0.4,0.1,0.5c0.1,0.1,0.3,0.2,0.6,0.2c0.1,0,0.2,0,0.3,0s0.2,0,0.4-0.1v1.6
			c-0.3,0.1-0.6,0.2-0.8,0.2s-0.4,0-0.7,0c-0.7,0-1.3-0.3-1.6-0.8c-0.2-0.3-0.3-0.7-0.4-1.2c-0.4,0.6-1,1.1-1.9,1.5
			s-1.7,0.6-2.7,0.6c-1.2,0-2.1-0.4-2.9-1.1s-1.1-1.6-1.1-2.7c0-1.2,0.4-2.1,1.1-2.7s1.7-1,2.9-1.2L513.5,201.3z M509,207
			c0.4,0.4,1,0.5,1.6,0.5c0.7,0,1.5-0.2,2.2-0.5c1.2-0.6,1.8-1.5,1.8-2.8v-1.7c-0.3,0.2-0.6,0.3-1,0.4c-0.4,0.1-0.8,0.2-1.2,0.2
			l-1.3,0.2c-0.8,0.1-1.3,0.3-1.7,0.5c-0.7,0.4-1,1-1,1.8C508.4,206.2,508.6,206.7,509,207z"/>
		<path class="st4" d="M527.2,191.7h6.9c2.3,0,4.1,0.8,5.4,2.5c1.1,1.5,1.7,3.5,1.7,5.8c0,1.8-0.3,3.5-1,5c-1.2,2.6-3.2,3.9-6.2,3.9
			h-6.9V191.7z M533.6,206.9c0.8,0,1.4-0.1,1.9-0.2c0.9-0.3,1.6-0.9,2.2-1.8c0.5-0.7,0.8-1.6,1-2.7c0.1-0.6,0.2-1.2,0.2-1.8
			c0-2.1-0.4-3.8-1.2-5c-0.8-1.2-2.2-1.8-4-1.8h-4v13.2H533.6z"/>
		<path class="st4" d="M551.9,196.7c0.8,0.4,1.5,1,1.9,1.6c0.4,0.6,0.7,1.4,0.8,2.2c0.1,0.6,0.2,1.5,0.2,2.8h-9.1
			c0,1.3,0.3,2.3,0.9,3.1s1.4,1.2,2.6,1.2c1.1,0,2-0.4,2.6-1.1c0.4-0.4,0.6-0.9,0.8-1.5h2.1c-0.1,0.5-0.2,1-0.5,1.5s-0.7,1-1,1.4
			c-0.6,0.6-1.4,1-2.4,1.3c-0.5,0.1-1.1,0.2-1.7,0.2c-1.6,0-2.9-0.6-3.9-1.7s-1.6-2.7-1.6-4.8c0-2,0.5-3.7,1.6-4.9s2.5-1.9,4.3-1.9
			C550.2,196.1,551,196.3,551.9,196.7z M552.6,201.6c-0.1-0.9-0.3-1.6-0.6-2.2c-0.6-1-1.5-1.5-2.9-1.5c-1,0-1.8,0.3-2.4,1
			s-1,1.6-1,2.7H552.6z"/>
		<path class="st4" d="M557.5,191.7h2.1v17.2h-2.1V191.7z"/>
		<path class="st4" d="M570,191.7h7.8c1.3,0,2.4,0.2,3.2,0.6c1.6,0.7,2.4,2.1,2.4,4.1c0,1-0.2,1.9-0.6,2.5s-1,1.2-1.8,1.6
			c0.7,0.3,1.2,0.6,1.5,1.1s0.5,1.2,0.6,2.2l0.1,2.3c0,0.7,0.1,1.1,0.2,1.5c0.1,0.5,0.4,0.9,0.8,1.1v0.4h-2.9
			c-0.1-0.1-0.1-0.3-0.2-0.6s-0.1-0.7-0.1-1.4l-0.1-2.9c-0.1-1.1-0.5-1.9-1.2-2.3c-0.4-0.2-1.1-0.3-2-0.3h-5.2v7.4H570V191.7z
			 M577.6,199.6c1.1,0,1.9-0.2,2.5-0.7c0.6-0.4,0.9-1.2,0.9-2.4c0-1.2-0.4-2.1-1.3-2.5c-0.5-0.2-1.1-0.4-1.9-0.4h-5.5v5.9H577.6z"/>
		<path class="st4" d="M594.5,196.7c0.8,0.4,1.5,1,1.9,1.6c0.4,0.6,0.7,1.4,0.8,2.2c0.1,0.6,0.2,1.5,0.2,2.8h-9.1
			c0,1.3,0.3,2.3,0.9,3.1s1.4,1.2,2.6,1.2c1.1,0,2-0.4,2.6-1.1c0.4-0.4,0.6-0.9,0.8-1.5h2.1c-0.1,0.5-0.2,1-0.5,1.5s-0.7,1-1,1.4
			c-0.6,0.6-1.4,1-2.4,1.3c-0.5,0.1-1.1,0.2-1.7,0.2c-1.6,0-2.9-0.6-3.9-1.7s-1.6-2.7-1.6-4.8c0-2,0.5-3.7,1.6-4.9s2.5-1.9,4.3-1.9
			C592.8,196.1,593.7,196.3,594.5,196.7z M595.3,201.6c-0.1-0.9-0.3-1.6-0.6-2.2c-0.6-1-1.5-1.5-2.9-1.5c-1,0-1.8,0.3-2.4,1
			s-1,1.6-1,2.7H595.3z"/>
		<path class="st4" d="M608,196.4h2.3c-0.3,0.8-1,2.6-2,5.5c-0.8,2.2-1.4,3.9-1.9,5.3c-1.2,3.2-2.1,5.2-2.6,5.9
			c-0.5,0.7-1.4,1.1-2.6,1.1c-0.3,0-0.5,0-0.7,0s-0.4-0.1-0.6-0.1V212c0.4,0.1,0.6,0.2,0.8,0.2s0.3,0,0.4,0c0.4,0,0.7-0.1,0.9-0.2
			c0.2-0.1,0.3-0.3,0.5-0.5c0-0.1,0.2-0.4,0.4-1c0.2-0.6,0.4-1,0.5-1.3l-4.6-12.9h2.4l3.4,10.2L608,196.4z"/>
	</g>
	<g class="st3">
		<rect x="416.2" y="188.3" class="st5" width="308.8" height="48.3"/>
	</g>
</g>
</svg>
