<!-- Generator: Adobe Illustrator 21.0.0, SVG Export Plug-In  -->
<svg version="1.1"
	 xmlns="http://www.w3.org/2000/svg" xmlns:xlink="http://www.w3.org/1999/xlink" xmlns:a="http://ns.adobe.com/AdobeSVGViewerExtensions/3.0/"
	 x="0px" y="0px" width="376px" height="153.3px" viewBox="0 0 376 153.3" style="enable-background:new 0 0 376 153.3;"
	 xml:space="preserve">
<style type="text/css">
	.st0{clip-path:url(#SVGID_2_);fill:#F2F2F2;}
	.st1{clip-path:url(#SVGID_2_);fill:#FFFFFF;stroke:#DBDBDB;stroke-miterlimit:10;}
	.st2{clip-path:url(#SVGID_2_);}
	.st3{fill:#4D4D4D;}
	.st4{clip-path:url(#SVGID_2_);fill:#B3B3B3;}
	.st5{clip-path:url(#SVGID_4_);fill:#F2F2F2;}
	.st6{clip-path:url(#SVGID_4_);fill:#FFFFFF;stroke:#DBDBDB;stroke-miterlimit:10;}
	.st7{clip-path:url(#SVGID_4_);}
	.st8{clip-path:url(#SVGID_4_);fill:#B3B3B3;}
</style>
<defs>
</defs>
<g>
	<defs>
		<rect id="SVGID_1_" width="376" height="138.3"/>
	</defs>
	<clipPath id="SVGID_2_">
		<use xlink:href="#SVGID_1_"  style="overflow:visible;"/>
	</clipPath>
	<rect class="st0" width="376" height="138.3"/>
	<path class="st1" d="M88.5,38.8H30.8c-8.3,0-15-6.8-15-15v0c0-8.3,6.8-15,15-15l57.7,0c8.3,0,15,6.8,15,15v0
		C103.5,32.1,96.7,38.8,88.5,38.8z"/>
	<path class="st1" d="M191.5,38.8h-57.7c-8.3,0-15-6.8-15-15v0c0-8.3,6.8-15,15-15l57.7,0c8.3,0,15,6.8,15,15v0
		C206.5,32.1,199.7,38.8,191.5,38.8z"/>
	<path class="st1" d="M294.5,38.8h-57.7c-8.3,0-15-6.8-15-15v0c0-8.3,6.8-15,15-15l57.7,0c8.3,0,15,6.8,15,15v0
		C309.5,32.1,302.7,38.8,294.5,38.8z"/>
	<path class="st1" d="M79.5,76.8H31.3c-8.3,0-15-6.8-15-15v0c0-8.3,6.8-15,15-15h48.2c8.3,0,15,6.8,15,15v0
		C94.5,70.1,87.7,76.8,79.5,76.8z"/>
	<path class="st1" d="M78.5,114.8H30.3c-8.3,0-15-6.8-15-15v0c0-8.3,6.8-15,15-15h48.2c8.3,0,15,6.8,15,15v0
		C93.5,108.1,86.7,114.8,78.5,114.8z"/>
	<path class="st1" d="M78.5,152.8H30.3c-8.3,0-15-6.8-15-15v0c0-8.3,6.8-15,15-15h48.2c8.3,0,15,6.8,15,15v0
		C93.5,146.1,86.7,152.8,78.5,152.8z"/>
	<path class="st1" d="M169.5,152.8h-48.2c-8.3,0-15-6.8-15-15v0c0-8.3,6.8-15,15-15h48.2c8.3,0,15,6.8,15,15v0
		C184.5,146.1,177.7,152.8,169.5,152.8z"/>
	<path class="st1" d="M260.5,152.8h-48.2c-8.3,0-15-6.8-15-15v0c0-8.3,6.8-15,15-15h48.2c8.3,0,15,6.8,15,15v0
		C275.5,146.1,268.7,152.8,260.5,152.8z"/>
	<path class="st1" d="M351.5,152.8h-48.2c-8.3,0-15-6.8-15-15v0c0-8.3,6.8-15,15-15h48.2c8.3,0,15,6.8,15,15v0
		C366.5,146.1,359.7,152.8,351.5,152.8z"/>
	<path class="st1" d="M169.5,114.8h-48.2c-8.3,0-15-6.8-15-15v0c0-8.3,6.8-15,15-15h48.2c8.3,0,15,6.8,15,15v0
		C184.5,108.1,177.7,114.8,169.5,114.8z"/>
	<path class="st1" d="M260.5,114.8h-48.2c-8.3,0-15-6.8-15-15v0c0-8.3,6.8-15,15-15h48.2c8.3,0,15,6.8,15,15v0
		C275.5,108.1,268.7,114.8,260.5,114.8z"/>
	<path class="st1" d="M351.5,114.8h-48.2c-8.3,0-15-6.8-15-15v0c0-8.3,6.8-15,15-15h48.2c8.3,0,15,6.8,15,15v0
		C366.5,108.1,359.7,114.8,351.5,114.8z"/>
	<path class="st1" d="M169.5,76.8h-48.2c-8.3,0-15-6.8-15-15v0c0-8.3,6.8-15,15-15h48.2c8.3,0,15,6.8,15,15v0
		C184.5,70.1,177.7,76.8,169.5,76.8z"/>
	<path class="st1" d="M250.5,76.8h-35.2c-8.3,0-15-6.8-15-15v0c0-8.3,6.8-15,15-15h35.2c8.3,0,15,6.8,15,15v0
		C265.5,70.1,258.7,76.8,250.5,76.8z"/>
	<path class="st1" d="M336.5,76.8h-35.2c-8.3,0-15-6.8-15-15v0c0-8.3,6.8-15,15-15h35.2c8.3,0,15,6.8,15,15v0
		C351.5,70.1,344.7,76.8,336.5,76.8z"/>
	<g class="st2">
		<path class="st3" d="M50.8,22.8l-0.6,0.6c-0.5-0.6-1.1-1.1-1.9-1.8l0.6-0.6C49.7,21.7,50.3,22.3,50.8,22.8z M50.9,24.6
			c-0.5,1.5-1,3-1.6,4.3l-0.8-0.3c0.6-1.4,1.2-2.8,1.6-4.3L50.9,24.6z M51.1,19.8l-0.6,0.6c-0.5-0.5-1.1-1-1.9-1.6l0.6-0.6
			C49.9,18.7,50.6,19.2,51.1,19.8z M53.1,23.6c0,1.6-0.2,2.7-0.5,3.5c-0.3,0.8-0.8,1.4-1.5,2l-0.6-0.7c0.6-0.5,1-1,1.2-1.7
			c0.2-0.6,0.4-1.7,0.4-3.1H53.1z M51.6,22.3c0.1,0,0.1,0,0.2-0.1c0.5-0.3,1-1,1.8-2.2h-2.1v-0.8h3.4c-0.2-0.4-0.3-0.9-0.5-1.2
			l0.9-0.1c0.2,0.4,0.4,0.9,0.5,1.4h3.2v0.8h-4.4c-0.6,1-1.1,1.7-1.5,2.2c1.4-0.1,2.8-0.2,4.1-0.4c-0.3-0.3-0.5-0.7-0.8-1.1l0.7-0.4
			c0.8,1,1.4,1.8,1.9,2.6l-0.7,0.5c-0.2-0.3-0.4-0.6-0.6-0.9c-1.8,0.2-3.7,0.4-5.8,0.5L51.6,22.3z M55.1,23.6v5.2h-0.9v-5.2H55.1z
			 M57.4,29c-0.7,0-1-0.3-1-0.9v-4.4h0.8v4.2c0,0.2,0.1,0.3,0.2,0.3H58c0.2,0,0.3-0.2,0.4-0.4c0-0.3,0.1-0.8,0.1-1.4l0.8,0.3
			c0,1.1-0.1,1.7-0.2,1.9c-0.1,0.2-0.4,0.3-0.9,0.4H57.4z"/>
		<path class="st3" d="M63.6,18.5c-0.7,1.3-1.8,2.5-3.2,3.5l-0.3-0.9c1.3-0.9,2.2-1.9,2.7-3L63.6,18.5z M64.2,21.3
			c-0.3,0.7-0.8,1.3-1.3,1.9v5.9H62v-5c-0.5,0.4-1,0.9-1.6,1.3l-0.3-0.9c1.5-1,2.5-2.2,3.2-3.5L64.2,21.3z M71.1,21.9v0.9h-1.9V28
			c0,0.7-0.4,1-1.2,1h-1.8L66,28.2c0.6,0,1.1,0.1,1.6,0.1c0.4,0,0.6-0.2,0.6-0.5v-5h-3.8v-0.9H71.1z M70.5,18.8v0.9h-5.8v-0.9H70.5z
			"/>
	</g>
	<g class="st2">
		<path class="st3" d="M152.5,27.4c1.1-0.2,2.1-0.5,3.2-0.9l0.2,0.8c-1.1,0.4-2.6,0.7-4.3,1.1l-0.2-0.8c0.2-0.1,0.3-0.2,0.3-0.4V18
			h8.6v3.5h-3.4c0,0.6,0.1,1.2,0.2,1.7h3.9v0.8h-3.7c0.1,0.3,0.2,0.6,0.3,0.9c0.4,0.9,0.8,1.6,1.3,2c0.4,0.4,0.8,0.6,1.2,0.6
			c0.1,0,0.3-0.1,0.4-0.3c0.1-0.2,0.2-0.8,0.3-1.6l0.8,0.4c-0.1,1-0.3,1.7-0.5,2c-0.2,0.3-0.4,0.5-0.7,0.5c-0.6,0-1.1-0.3-1.7-0.8
			c-0.6-0.6-1.1-1.3-1.6-2.4c-0.2-0.4-0.3-0.8-0.4-1.2h-3.9V27.4z M152.5,18.8v1.9h6.9v-1.9H152.5z M152.5,21.5v1.7h3.7
			c-0.1-0.5-0.2-1.1-0.3-1.7H152.5z"/>
		<path class="st3" d="M164.8,21.2v5.3c0.4-0.3,0.7-0.7,1.2-1.1l0.2,0.9c-0.7,0.7-1.4,1.3-2.1,1.8l-0.3-0.8c0.1-0.1,0.2-0.3,0.2-0.5
			v-4.8h-1.6v-0.8H164.8z M165.7,19.5l-0.6,0.6c-0.5-0.6-1.1-1.2-1.9-1.8l0.6-0.6C164.6,18.3,165.2,18.9,165.7,19.5z M166.9,24.1
			l-0.7-0.4c0.6-0.6,1-1.4,1.2-2.2l0.8,0.2c-0.1,0.2-0.2,0.4-0.2,0.7h4.7v0.8h-2.4v1.2h3.1v0.8h-3.1v2.1h1.8v-1.6h0.8v3H172V28h-4.4
			v0.6h-0.8v-3h0.8v1.6h1.8v-2.1h-3.1v-0.8h3.1v-1.2h-1.8C167.4,23.5,167.1,23.8,166.9,24.1z M173,18.3c-1.6,0.5-3.8,0.7-6.5,0.7
			l-0.3-0.8c2.6,0,4.7-0.2,6.4-0.7L173,18.3z M168.2,21.2l-0.7,0.3c-0.3-0.6-0.6-1.2-0.9-1.7l0.7-0.3
			C167.6,20,167.9,20.6,168.2,21.2z M170.4,21l-0.7,0.3c-0.3-0.7-0.6-1.2-0.9-1.7l0.7-0.3C169.9,19.8,170.2,20.4,170.4,21z
			 M173,19.3c-0.3,0.9-0.6,1.7-1,2.4l-0.7-0.3c0.4-0.6,0.7-1.4,1-2.3L173,19.3z"/>
	</g>
	<g class="st2">
		<path class="st3" d="M254.9,28.4l-0.2-0.8c0.3,0,0.6,0.1,0.9,0.1c0.3,0,0.4-0.2,0.4-0.5v-3c-0.5,0.2-1,0.4-1.5,0.5l-0.2-0.9
			c0.6-0.1,1.1-0.3,1.7-0.5v-2.8h-1.5v-0.8h1.5v-2.2h0.9v2.2h1.3v0.8h-1.3V23c0.4-0.2,0.9-0.4,1.3-0.6v0.9c-0.4,0.2-0.8,0.4-1.3,0.6
			v3.5c0,0.7-0.3,1-1,1H254.9z M260.4,21.2l-0.7,0.3l0.7,0.2c-0.1,0.2-0.2,0.4-0.2,0.7h4.7v0.8h-2.5v1.2h3.2v0.8h-3.2v2.1h1.8v-1.6
			h0.8v2.9h-0.8V28h-4.5v0.6h-0.8v-2.9h0.8v1.6h1.8v-2.1h-3.1v-0.8h3.1v-1.2h-1.6c-0.2,0.4-0.4,0.7-0.6,1l-0.7-0.4
			c0.5-0.7,0.9-1.4,1.1-2.2h0c-0.3-0.7-0.5-1.3-0.8-1.8l0.7-0.3C259.9,20,260.1,20.6,260.4,21.2z M265.2,18.3
			c-1.6,0.5-3.8,0.7-6.5,0.7l-0.3-0.8c2.5,0,4.6-0.2,6.3-0.6L265.2,18.3z M262.6,21l-0.7,0.3c-0.3-0.7-0.6-1.2-0.9-1.7l0.7-0.3
			C262,19.8,262.3,20.4,262.6,21z M265,19.3c-0.3,0.9-0.6,1.7-1,2.4l-0.7-0.3c0.4-0.6,0.7-1.4,1-2.3L265,19.3z"/>
		<path class="st3" d="M269.2,22.4l-0.6,0.6c-0.5-0.6-1.2-1.2-2.1-1.9l0.6-0.6C268,21.2,268.7,21.8,269.2,22.4z M269.3,24
			c-0.6,1.6-1.2,3.1-1.8,4.4l-0.8-0.4c0.7-1.4,1.4-2.9,1.9-4.4L269.3,24z M269.4,19.5l-0.6,0.6c-0.5-0.6-1.2-1.2-2.1-1.8l0.6-0.6
			C268.2,18.3,268.9,18.9,269.4,19.5z M273.3,23.6c-0.3,0.6-0.7,1.2-1.2,1.7v2.2c0.6-0.2,1.2-0.4,1.8-0.6l0.1,0.7
			c-0.8,0.3-1.7,0.6-2.8,0.9l-0.2-0.7c0.2-0.1,0.3-0.2,0.3-0.4v-1.4c-0.5,0.4-1.1,0.8-1.8,1.2l-0.4-0.7c1.5-0.7,2.7-1.6,3.4-2.7
			c-0.7,0.1-1.3,0.1-2,0.2l-0.2-0.7c0.1,0,0.2-0.1,0.3-0.1c0.6-0.3,1.4-1.2,2.4-2.5l0.7,0.3c-0.8,1-1.5,1.7-2.1,2.2
			c1.1-0.1,2.1-0.2,3.2-0.3c-0.3-0.4-0.6-0.7-1-1.1l0.6-0.4c0.9,0.9,1.5,1.7,2,2.4l-0.6,0.4c-0.2-0.2-0.3-0.5-0.5-0.7
			c-0.4,0.1-0.8,0.1-1.2,0.2c0.2,0.7,0.4,1.4,0.8,2c0.5-0.3,1-0.8,1.5-1.3l0.6,0.6c-0.5,0.6-1.1,1-1.7,1.3c0.6,0.7,1.3,1.3,2.2,1.7
			l-0.5,0.7C275.1,27.3,273.8,25.7,273.3,23.6L273.3,23.6z M272.4,19.9c-0.6,0.9-1.5,1.6-2.4,2.3l-0.5-0.6c0.9-0.6,1.7-1.3,2.3-2.1
			L272.4,19.9z M273.1,18.5c-0.2-0.3-0.3-0.6-0.5-0.9l0.9-0.1c0.2,0.3,0.3,0.7,0.5,1.1h3v0.8h-7v-0.8H273.1z M277.2,21.6l-0.6,0.6
			c-0.6-0.7-1.4-1.5-2.5-2.3l0.6-0.5C275.7,20.1,276.5,20.8,277.2,21.6z"/>
	</g>
	<g class="st2">
		<path class="st3" d="M53.9,56.9c-2.3,0.4-5.4,0.5-9.3,0.5l-0.2-0.7c3.7,0,6.7-0.2,9.1-0.5L53.9,56.9z M44.6,67l-0.3-0.7
			c0.2,0,0.3-0.2,0.3-0.4v-4.7h4.1v3.3h-0.7c0.5,0.6,0.9,1.3,1.3,2.1L48.7,67c-0.1-0.3-0.3-0.6-0.4-0.8C47.2,66.5,46,66.8,44.6,67z
			 M45.9,58.4c-0.1-0.3-0.3-0.5-0.5-0.8l0.8-0.1c0.2,0.3,0.3,0.6,0.5,0.9h2.2c-0.1-0.3-0.3-0.6-0.4-0.8l0.8-0.1
			c0.1,0.3,0.3,0.6,0.4,1h2c0.2-0.4,0.4-0.8,0.5-1.2l0.9,0.1c-0.1,0.4-0.3,0.7-0.5,1h1.3v2.3h-9.3v-2.3H45.9z M47.4,59.1h-2.1v1h2.1
			V59.1z M48,61.9h-2.5v0.7H48V61.9z M45.4,64H48v-0.7h-2.5V64z M45.4,64.6v1.5c0.8-0.2,1.6-0.3,2.4-0.6c-0.2-0.3-0.3-0.5-0.5-0.7
			l0.6-0.3H45.4z M50.1,59.1h-2v1h2V59.1z M52.4,62v-0.8h0.8V62h1.1v0.8h-1.1v3.4c0,0.6-0.3,0.9-0.9,0.9h-1.5l-0.2-0.8
			c0.5,0,0.9,0.1,1.4,0.1c0.3,0,0.4-0.1,0.4-0.4v-3.2h-3V62H52.4z M51.6,65.1l-0.7,0.3c-0.4-0.7-0.9-1.3-1.3-1.9l0.7-0.3
			C50.7,63.8,51.1,64.4,51.6,65.1z M53,59.1h-2.1v1H53V59.1z"/>
		<path class="st3" d="M60.7,59.9V56h0.9v3.9h4.9v0.8h-4.9v4.8h4.4v0.8h-9.8v-0.8h4.4v-4.8h-4.9v-0.8H60.7z"/>
	</g>
	<path class="st4" d="M345.1,20.9l-6.3,6.3c-0.2,0.2-0.5,0.2-0.6,0c-0.2-0.2-0.2-0.5,0-0.6l6.6-6.6c0.1-0.1,0.2-0.1,0.3-0.1
		c0.1,0,0.2,0,0.3,0.1l6.6,6.6c0.2,0.2,0.2,0.5,0,0.6c-0.2,0.2-0.5,0.2-0.6,0L345.1,20.9z"/>
	<g class="st2">
		<path class="st3" d="M140.7,57.8v-2.2h0.9v2.2h4.8v0.8h-4.8V61h3.2v5.6h-0.9v-0.7h-5.6v0.7h-0.9V61h3.2v-2.3h-4.9v-0.8H140.7z
			 M143.9,65v-3.3h-5.6V65H143.9z"/>
		<path class="st3" d="M157.4,62.8h1.1v0.8h-10.9v-0.8h1.2v-5.6h2.6v-1.6h0.8v1.6h1.8v-1.6h0.8v1.6h2.6V62.8z M152,64.5
			c-1,0.9-2.3,1.6-3.8,2.2l-0.4-0.8c1.5-0.5,2.7-1.2,3.7-2L152,64.5z M151.4,59.9v-2h-1.7v2H151.4z M151.4,62.8v-2.1h-1.7v2.1H151.4
			z M152.2,59.9h1.8v-2h-1.8V59.9z M154,62.8v-2.1h-1.8v2.1H154z M158.4,66l-0.5,0.7c-1.2-0.9-2.4-1.6-3.7-2.1l0.4-0.7
			C156.1,64.5,157.3,65.2,158.4,66z M154.9,59.9h1.7v-2h-1.7V59.9z M156.6,62.8v-2.1h-1.7v2.1H156.6z"/>
	</g>
	<g class="st2">
		<path class="st3" d="M47.8,104.6c0,0.6-0.4,1-1.1,1h-1.5l-0.2-0.8c0.5,0,1,0,1.5,0c0.3,0,0.5-0.2,0.5-0.5v-8.4h-7.3v4
			c0,2.4-0.4,4.3-1.2,5.7l-0.6-0.6c0.6-1.3,1-3,1-5.1v-4.8h9V104.6z M43.7,96.3v1h2.2V98h-2.2v1.2h2.6v0.8h-5.9v-0.8h2.5V98h-2.2
			v-0.7h2.2v-1H43.7z M45.6,100.8v3h-4.8v-3H45.6z M44.8,101.6h-3.2v1.5h3.2V101.6z"/>
		<path class="st3" d="M54.7,96.5v-1.8h0.8v1.8h4.5v0.8h-3.7c0.8,1.4,2.3,2.6,4.3,3.7l-0.6,0.8c-2.1-1.3-3.6-2.8-4.4-4.5h-0.1v4.9
			h-0.8v-4.9h-0.1c-0.9,1.8-2.4,3.4-4.5,4.6l-0.5-0.8c2-1,3.4-2.3,4.3-3.8h-3.7v-0.8H54.7z M51.9,102.9c-0.5,1-1,1.9-1.6,2.7
			l-0.7-0.5c0.6-0.7,1.1-1.5,1.6-2.5L51.9,102.9z M54.6,105.4l-0.9,0.2c-0.2-1-0.4-1.8-0.7-2.6l0.8-0.2
			C54.2,103.6,54.4,104.5,54.6,105.4z M57.4,105.3l-0.9,0.2c-0.2-1-0.5-1.9-0.9-2.7l0.8-0.2C56.8,103.5,57.1,104.4,57.4,105.3z
			 M60.6,105l-0.7,0.5c-0.5-0.8-1.1-1.7-1.9-2.6l0.7-0.4C59.5,103.4,60.2,104.3,60.6,105z"/>
		<path class="st3" d="M65.1,94.9c-0.3,0.9-0.7,1.8-1.2,2.6v8.1h-0.9v-6.8c-0.4,0.5-0.8,1-1.3,1.5l-0.3-0.9c1.3-1.4,2.2-3.1,2.8-5
			L65.1,94.9z M68.9,94.7c0.7,1.5,2,2.8,3.8,3.9l-0.5,0.7c-1.6-1-2.8-2.3-3.6-3.8c-1,1.7-2.2,3-3.6,3.9l-0.5-0.8
			c1.6-1,2.9-2.3,3.7-3.9H68.9z M67.5,105.4c-0.8,0-1.2-0.4-1.2-1.2V99h0.9v2.1c1.3-0.4,2.5-0.9,3.7-1.6l0.5,0.7
			c-1.5,0.8-2.9,1.3-4.2,1.7v2.1c0,0.4,0.2,0.6,0.6,0.6h2.5c0.4,0,0.6-0.1,0.8-0.3c0.2-0.2,0.3-0.8,0.4-1.8l0.8,0.3
			c-0.1,1.3-0.3,2-0.6,2.3c-0.3,0.2-0.7,0.4-1.2,0.4H67.5z"/>
	</g>
	<g class="st2">
		<path class="st3" d="M40.2,136.3v5.3c0.4-0.4,0.9-0.8,1.4-1.2l0.2,0.9c-0.7,0.7-1.5,1.3-2.4,1.9l-0.3-0.8c0.2-0.2,0.3-0.3,0.3-0.5
			v-4.7h-1.7v-0.8H40.2z M41,134.6l-0.6,0.6c-0.5-0.6-1.2-1.2-2.1-1.9l0.6-0.6C39.8,133.4,40.5,134,41,134.6z M41.5,137.2l-0.6-0.7
			c1-1,1.7-2.3,2.1-3.9l0.8,0.1c-0.1,0.5-0.3,1-0.4,1.5h4.8v0.8h-2.5v2.9h3v0.8h-3v4.9h-0.9v-4.9h-3.6v-0.8h3.6V135h-1.8
			C42.7,135.9,42.2,136.6,41.5,137.2z"/>
		<path class="st3" d="M51.9,133.7v-1h0.9v1h1.8v0.8h-1.8v1.4c0.6-0.1,1.2-0.2,1.7-0.3v0.8c-0.5,0.1-1.1,0.2-1.7,0.3v1.4
			c0,0.6-0.3,1-1,1h-1.2l-0.2-0.8c0.4,0,0.8,0.1,1.1,0.1c0.3,0,0.4-0.2,0.4-0.5v-1.1c-0.6,0.1-1.3,0.1-2,0.2l-0.1-0.8
			c0.7-0.1,1.5-0.1,2.1-0.2v-1.5h-2v-0.8H51.9z M59.1,143.6h-0.9v-0.6H52v0.6h-0.9v-4h7.9V143.6z M58.2,142.3v-1.9H52v1.9H58.2z
			 M54.7,139.1l-0.6-0.6c0.7-0.7,1.1-1.6,1.2-2.7v-2.4c1.6,0,3.1-0.2,4.4-0.6l0.4,0.7c-1.2,0.3-2.5,0.5-4,0.6v1.3h4.3v0.8H59v2.9
			h-0.9v-2.9h-2C56,137.3,55.5,138.3,54.7,139.1z"/>
		<path class="st3" d="M64.6,132.9c-0.2,0.8-0.5,1.6-0.9,2.4v8.3h-0.8v-6.8c-0.3,0.6-0.7,1.1-1.1,1.6l-0.3-0.9
			c1.1-1.5,1.8-3.1,2.3-5L64.6,132.9z M71.4,133.1v6.5c0,1.3,0,2.2,0.1,2.5c0.1,0.4,0.2,0.5,0.3,0.5c0.1,0,0.3-0.7,0.3-2l0.6,0.3
			c-0.1,1-0.3,1.7-0.4,2.1c-0.1,0.3-0.3,0.5-0.5,0.5c-0.4,0-0.7-0.3-0.9-0.8c-0.2-0.5-0.3-1.6-0.3-3.2v-5.7h-4.9v4.2
			c0,2.2-0.3,4-1,5.5l-0.6-0.5c0.6-1.3,0.9-3,0.9-5v-5H71.4z M70.1,135v0.7h-1.5v1.2H70v4.5c0,0.6-0.2,0.8-0.6,0.8h-0.9v1.1h-0.7
			v-5.8H67v4.8h-0.6V137h1.5v-1.2h-1.6V135H70.1z M69.1,141.7c0.2,0,0.3-0.1,0.3-0.4v-3.7h-0.9v4L69.1,141.7z"/>
	</g>
	<g class="st2">
		<path class="st3" d="M138.9,133.2v0.8h-4.4v3.5h3.8v0.8h-3.8v3.9h4.8v0.8h-10.4v-0.8h4.8v-3.9h-3.8v-0.8h3.8V134h-4.4v-0.8H138.9z
			"/>
		<path class="st3" d="M150,143.5h-0.8v-0.7h-5.1v0.7h-0.8v-3.7c-0.7,0.6-1.5,1.1-2.4,1.5l-0.4-0.8c1.7-0.7,2.9-1.7,3.8-2.9h-3.5
			v-0.8h3.9c0.2-0.5,0.4-0.9,0.6-1.4l0.8,0.1c-0.1,0.5-0.3,0.9-0.5,1.3h5.7v0.8h-6.1c-0.3,0.6-0.7,1.1-1.2,1.5h5.9V143.5z
			 M143.6,133.8v-1.1h0.8v1.1h3.3v-1.1h0.8v1.1h2.7v0.8h-2.7v1.1h-0.8v-1.1h-3.3v1.1h-0.8v-1.1h-2.7v-0.8H143.6z M149.3,142v-2.1
			h-5.1v2.1H149.3z"/>
		<path class="st3" d="M153.9,137.1v-2.9h-1.2v-0.8h3.2v0.8h-1.2v2.9h1v0.8h-1v3.1c0.4-0.1,0.8-0.3,1.2-0.4v0.8
			c-1,0.4-2.1,0.7-3.2,0.9l-0.2-0.8c0.5-0.1,0.9-0.2,1.4-0.3v-3.3h-1.1v-0.8H153.9z M157.2,134.9v-2.2h0.8v2.2h1.1v0.8H158v0.9
			c0.5,0.6,0.9,1.3,1.4,2l-0.5,0.7c-0.4-0.8-0.7-1.4-0.9-1.9v6.2h-0.8v-6.1c-0.3,1.1-0.8,2.1-1.3,3l-0.4-0.9
			c0.8-1.1,1.3-2.4,1.7-3.8v-0.1h-1.3v-0.8H157.2z M160.8,134.9v-2.2h0.8v2.2h1.6v0.8h-1.4c0.4,1.9,1,3.5,1.8,4.8l-0.6,0.8
			c-0.6-1.1-1.1-2.5-1.5-4.3v6.7h-0.8V137c-0.4,1.8-1,3.3-1.6,4.5l-0.5-0.8c0.8-1.2,1.5-2.9,1.9-5h-1v-0.8H160.8z"/>
	</g>
	<g class="st2">
		<path class="st3" d="M235.9,133.2v0.8h-4.4v3.5h3.8v0.8h-3.8v3.9h4.8v0.8h-10.4v-0.8h4.8v-3.9h-3.8v-0.8h3.8V134h-4.4v-0.8H235.9z
			"/>
		<path class="st3" d="M240.5,133.5v-0.9h0.9v0.9h3.4v-0.9h0.9v0.9h2.7v0.8h-2.7v1h-0.9v-1h-3.4v1h-0.9v-1h-2.7v-0.8H240.5z
			 M242.2,135.5v8.2h-0.9v-2h-3.5v-0.8h3.5v-1.3h-3v-0.8h3v-1.3h-3.4v-0.8h3.4v-1.1H242.2z M244.9,135.4v1.1h3.4v0.8h-3.4v1.3h3v0.8
			h-3v1.3h3.4v0.8h-3.4v2H244v-8.2H244.9z"/>
	</g>
	<g class="st2">
		<path class="st3" d="M316.5,136.4c1,1.2,2.7,2.3,5,3.2l-0.5,0.7c-0.5-0.2-0.9-0.4-1.3-0.6v3.9h-0.8v-0.5h-5.4v0.5h-0.8v-4
			c-0.5,0.2-1,0.4-1.5,0.6l-0.5-0.7c2.2-0.8,3.9-1.9,5.1-3.2H316.5z M315.2,135.4c-1,0.9-2.3,1.7-3.8,2.3l-0.5-0.7
			c1.5-0.6,2.7-1.3,3.7-2.2L315.2,135.4z M316.7,133.6h4.4v2.1h-0.8v-1.3H312v1.4h-0.8v-2.2h4.6c-0.1-0.3-0.3-0.6-0.4-0.9l0.9-0.2
			C316.4,132.9,316.5,133.2,316.7,133.6z M319.6,139.6c-1.5-0.7-2.6-1.6-3.4-2.5c-1,1-2.1,1.8-3.4,2.5H319.6z M318.9,142.3v-1.9
			h-5.4v1.9H318.9z M321.2,137.2l-0.6,0.6c-0.9-0.7-2.1-1.5-3.6-2.3l0.6-0.5C319,135.7,320.2,136.4,321.2,137.2z"/>
		<path class="st3" d="M322.9,140.1l-0.3-0.9c1.6-1.4,2.7-2.7,3.2-4h-3v-0.8h1.9c-0.2-0.5-0.4-1-0.7-1.5l0.8-0.2
			c0.3,0.6,0.5,1.1,0.7,1.6l-0.3,0.1h1.5v0.7c-0.3,0.8-0.8,1.7-1.4,2.5c0.6,0.4,1.2,0.8,1.7,1.4l-0.5,0.7c-0.4-0.5-0.8-0.9-1.3-1.2
			v5.2h-0.9v-5C324,139.1,323.5,139.6,322.9,140.1z M332.6,142.4h1v0.8h-7.1v-0.8h1.2v-9.3h5V142.4z M331.8,136.1v-2.2h-3.3v2.2
			H331.8z M331.8,139.3V137h-3.3v2.3H331.8z M331.8,142.4v-2.3h-3.3v2.3H331.8z"/>
		<path class="st3" d="M338.4,132.9v4.1c0,3-1,5.2-2.9,6.6l-0.7-0.6c1.8-1.2,2.7-3.2,2.7-6v-4.1H338.4z M342.3,143.3
			c-0.8,0-1.2-0.4-1.2-1.3v-9h0.9v8.9c0,0.4,0.2,0.7,0.6,0.7h1.2c0.3,0,0.5-0.1,0.6-0.3c0.2-0.2,0.3-0.9,0.3-1.9l0.8,0.3
			c-0.1,1.3-0.3,2.1-0.5,2.4c-0.2,0.2-0.6,0.4-1.1,0.4H342.3z"/>
	</g>
	<g class="st2">
		<path class="st3" d="M132.5,95.1v0.7c-0.3,1.1-0.7,2.2-1.1,3.4c0.6,1,1,1.9,1.1,2.7c0,0.6-0.1,1-0.3,1.2c-0.3,0.3-0.8,0.5-1.6,0.5
			l-0.3-0.9c0.2,0,0.3,0,0.5,0c0.3,0,0.5-0.1,0.6-0.2c0.1-0.1,0.2-0.3,0.2-0.6c0-0.8-0.4-1.6-1.1-2.6c0.5-1.2,0.8-2.4,1.1-3.4H130
			v9.7h-0.8V95.1H132.5z M134.7,101.9c-0.6,1.2-1.3,2.2-2.1,3.1l-0.7-0.5c0.8-0.8,1.5-1.8,2-3L134.7,101.9z M134.3,105.6l-0.2-0.8
			c0.3,0,0.7,0.1,1,0.1c0.4,0,0.6-0.2,0.6-0.6v-3.5h-2.6l-0.2-0.8c0.6-0.8,1.1-1.8,1.6-3h-1.8v-0.8h2.1c0.2-0.5,0.3-1,0.5-1.6
			l0.8,0.2c-0.1,0.5-0.3,0.9-0.4,1.4h3.7V97h-4c-0.4,1.1-0.9,2.1-1.5,3h1.8v-1.8h0.8v1.8h2.5v0.8h-2.5v3.7c0,0.8-0.4,1.2-1.2,1.2
			H134.3z M139.7,104.7L139,105c-0.5-1.2-1-2.2-1.6-3.1l0.7-0.3C138.6,102.5,139.2,103.5,139.7,104.7z"/>
		<path class="st3" d="M146.6,100.6c0,0.3-0.1,0.7-0.2,1h5v0.8h-4.4c1,1.2,2.5,2,4.7,2.4l-0.5,0.7c-2.3-0.6-4-1.6-5.1-3.2
			c-0.3,0.6-0.6,1.1-1.1,1.5c-0.8,0.7-2.2,1.3-4.1,1.7l-0.3-0.8c1.7-0.4,3-0.9,3.7-1.5c0.3-0.3,0.6-0.6,0.8-1h-4.3v-0.8h4.6
			c0.1-0.3,0.2-0.6,0.2-1H146.6z M143.5,97.7c-0.6,0.8-1.4,1.4-2.3,2l-0.5-0.7c0.9-0.5,1.6-1.2,2.2-1.9L143.5,97.7z M141,96.5v-0.8
			h4.7c-0.1-0.4-0.3-0.7-0.5-1l0.9-0.2c0.2,0.3,0.3,0.7,0.5,1.2h4.7v0.8h-3.1v2.6c0,0.7-0.3,1.1-1,1.1h-1.2l-0.2-0.8
			c0.4,0,0.8,0.1,1.1,0.1c0.3,0,0.5-0.2,0.5-0.6v-2.4h-1.9v0.7c0,1.6-0.7,2.7-2,3.4l-0.6-0.6c1.2-0.6,1.8-1.5,1.8-2.8v-0.7H141z
			 M151.7,99.2l-0.6,0.6c-0.6-0.7-1.4-1.4-2.4-2.1l0.6-0.6C150.2,97.8,151,98.5,151.7,99.2z"/>
		<path class="st3" d="M158.6,105.4c-0.8,0-1.5-0.1-2-0.2c-0.5-0.1-0.9-0.4-1.3-0.9c-0.2-0.2-0.3-0.3-0.5-0.3
			c-0.3,0-0.8,0.6-1.5,1.7l-0.6-0.6c0.6-1,1.2-1.7,1.7-1.9v-3.6h-1.7v-0.8h2.6v4.5c0.1,0.1,0.2,0.2,0.3,0.3c0.3,0.3,0.6,0.6,1,0.8
			c0.4,0.2,1,0.2,1.7,0.3c0.7,0,1.5,0,2.5,0c0.5,0,1.1,0,1.6,0c0.5,0,1,0,1.3,0l-0.2,0.9h-2.5C160.2,105.4,159.4,105.4,158.6,105.4z
			 M155.6,96.7l-0.6,0.6c-0.5-0.6-1.2-1.2-2-1.9l0.6-0.6C154.4,95.4,155.1,96,155.6,96.7z M161.7,103.3c-0.5-0.7-0.7-2-0.7-3.9v-3.5
			h-2.3v2.9h1.6v0.8h-1.6v4.4h-0.8v-4.4h-1.7v-0.8h1.7v-2.9h-1.6v-0.8h5.5v4.3c0,1.6,0.1,2.7,0.4,3.3c0.1,0.3,0.2,0.4,0.3,0.4
			c0.1,0,0.2-0.2,0.3-0.5c0.1-0.4,0.1-0.9,0.2-1.6l0.6,0.3c-0.1,1.1-0.2,1.9-0.4,2.2c-0.2,0.2-0.3,0.4-0.5,0.4
			C162.3,103.9,162,103.7,161.7,103.3z"/>
	</g>
	<g class="st2">
		<path class="st3" d="M219.1,101.8l-0.4-0.7c0.8-0.2,1.5-0.4,2-0.7c-0.3-0.3-0.6-0.6-1-1c-0.1,0.1-0.3,0.2-0.4,0.3l-0.5-0.6
			c1.2-0.7,2-1.5,2.4-2.4l0.5,0.1V96h-2.8v-0.8h2.8v-0.7h0.8v0.7h3.2v-0.7h0.8v0.7h2.8V96h-2.8v0.7h-0.8V96h-3.2v0.7H222
			c-0.1,0.2-0.2,0.4-0.3,0.6h2.3v0.6c-0.3,0.8-0.8,1.6-1.5,2.2h4.1c-1-0.8-1.7-1.9-2.1-3.1l0.7-0.3c0,0.2,0.1,0.4,0.2,0.6h3.3v0.5
			c-0.2,0.7-0.7,1.3-1.4,1.8c0.7,0.5,1.5,0.9,2.4,1.2l-0.4,0.7c-0.9-0.3-1.7-0.7-2.3-1.2v0.5H222v-0.4
			C221.2,101,220.3,101.5,219.1,101.8z M222.1,103.5c-0.7,0.8-1.6,1.4-2.6,2l-0.5-0.7c1-0.5,1.8-1.2,2.5-1.9L222.1,103.5z
			 M228.9,101.9v0.8h-4.1v1.9c0,0.6-0.3,1-0.9,1h-1.3l-0.2-0.8c0.4,0,0.8,0.1,1.2,0.1c0.2,0,0.4-0.1,0.4-0.4v-1.7h-4.4v-0.8H228.9z
			 M220.2,99c0.4,0.3,0.8,0.7,1.1,1c0.2-0.1,0.4-0.3,0.6-0.4c-0.3-0.3-0.7-0.7-1.2-1C220.5,98.7,220.4,98.9,220.2,99z M223.2,98
			h-1.9l-0.1,0.1c0.5,0.4,0.9,0.7,1.2,1C222.7,98.8,223,98.4,223.2,98z M226.7,99.2c0.5-0.4,0.9-0.8,1.1-1.2h-2.1
			C225.9,98.4,226.3,98.8,226.7,99.2z M229.3,104.9l-0.6,0.6c-0.6-0.6-1.6-1.3-2.7-1.9l0.6-0.5C227.6,103.7,228.5,104.3,229.3,104.9
			z"/>
		<path class="st3" d="M230.8,100.3l-0.3-0.9c1-1.4,1.6-3,2.1-4.8l0.8,0.4c-0.2,0.8-0.5,1.6-0.8,2.4v8.3h-0.8V99
			C231.4,99.4,231.1,99.9,230.8,100.3z M235.8,95.8v0.7c-0.5,1-1,1.9-1.4,2.6h1.5v0.5c0,1.5-0.3,2.7-0.7,3.7
			c0.4,0.4,0.8,0.7,1.3,0.9c0.6,0.3,1.6,0.4,3,0.5c0.9,0,1.7,0,2.2,0l-0.2,0.8h-1.5c-2.1,0-3.5-0.2-4.2-0.7c-0.4-0.2-0.7-0.4-1-0.7
			c-0.4,0.6-0.9,1.2-1.5,1.6l-0.4-0.7c0.6-0.4,1-0.9,1.4-1.5c-0.5-0.7-0.9-1.6-1.2-2.6l0.7-0.3c0.2,0.8,0.5,1.5,0.9,2.1
			c0.3-0.8,0.5-1.7,0.5-2.7h-1.7v-0.6c0.6-0.8,1.1-1.7,1.5-2.6h-1.5v-0.8H235.8z M238.8,99.7v0.9h2.2v0.7h-2.2v0.9h2.6v0.7h-2.6v1.2
			H238v-1.2h-2v-0.7h2v-0.9h-1.6v-0.7h1.6v-0.9h-1.5V99h1.5v-1h-2v-0.7h2v-1h-1.5v-0.7h1.5v-0.9h0.8v0.9h2v1.7h0.8V98h-0.8v1.7
			H238.8z M238.8,97.3h1.2v-1h-1.2V97.3z M238.8,99h1.2v-1h-1.2V99z"/>
		<path class="st3" d="M248.9,105.6h-0.8v-6.5c-0.2,0.5-0.5,1-0.8,1.4l-0.6-0.5l0-0.1h-0.4v4.7c0,0.6-0.3,1-0.9,1h-1.1l-0.2-0.8
			c0.3,0,0.7,0.1,1,0.1c0.3,0,0.4-0.2,0.4-0.4V100c-0.6,2-1.4,3.5-2.5,4.6l-0.6-0.6c1.1-1.2,1.9-2.6,2.4-4.2h-2.1
			c0.3-1.3,0.5-2.4,0.6-3.4l0.8,0.1c-0.2,1-0.3,1.8-0.5,2.5h1.8v-3h-2.7v-0.8h4.4V96h-0.9v3h0.8c0.6-1.3,1.1-2.7,1.4-4.4l0.8,0.2
			c-0.1,0.7-0.3,1.3-0.5,1.9h1.8c-0.2-0.6-0.4-1.3-0.6-1.9l0.8-0.2c0.2,0.7,0.4,1.4,0.6,1.9l-0.4,0.1h2.2v0.8h-1.8v1.6h1.6v0.8h-1.6
			v1.6h1.6v0.8h-1.6v1.8h2v0.8h-4.6V105.6z M248.9,97.5v1.6h1.8v-1.6H248.9z M248.9,101.5h1.8v-1.6h-1.8V101.5z M248.9,104.2h1.8
			v-1.8h-1.8V104.2z"/>
	</g>
	<g class="st2">
		<path class="st3" d="M314.6,99.1l0.6-3h-4v-0.8h9.8v0.8h-4.9l-0.6,3h4v5.1h2v0.9h-10.7v-0.9h2.7l0.9-4.3h-2.5v-0.8H314.6z
			 M318.6,104.3v-4.3h-3.3l-0.9,4.3H318.6z"/>
		<path class="st3" d="M324.4,105.7l-0.7-0.6c0.8-1.1,1.2-2.4,1.2-4.1v-5.9h6.9v9.4c0,0.7-0.3,1-1,1h-1.5l-0.2-0.9
			c0.6,0,1.1,0,1.5,0c0.3,0,0.4-0.2,0.4-0.5v-2.4h-5.2C325.7,103.4,325.2,104.6,324.4,105.7z M331,95.9h-5.1V98h5.1V95.9z
			 M325.9,101h5.1v-2.2h-5.1V101z"/>
		<path class="st3" d="M339.4,98.9c0.1-0.8,0.2-1.7,0.3-2.8h-4.3v-0.8h9.5v0.8h-4.3c-0.1,1-0.2,1.9-0.3,2.8h4.9v0.8h-4.4
			c0.8,2.3,2.4,4,4.8,5.3l-0.5,0.7c-2.5-1.3-4.1-3.2-5-5.7c-0.2,0.8-0.5,1.5-0.8,2.1c-0.8,1.4-2.2,2.6-4.1,3.7l-0.5-0.7
			c1.8-0.9,3.1-2,3.8-3.3c0.3-0.5,0.6-1.2,0.8-2h-4.2v-0.8H339.4z"/>
	</g>
	<g class="st2">
		<path class="st3" d="M227,55.9c-0.5,0.8-1,1.4-1.5,1.9c0.1,0.2,0.2,0.3,0.2,0.5c0.3,1,0.5,2.3,0.6,4.1c0,1.9-0.2,3-0.7,3.4
			c-0.3,0.2-0.7,0.3-1.2,0.3c-0.4,0-0.6,0-0.9,0l-0.3-0.8c0.3,0,0.6,0,0.9,0c0.4,0,0.7-0.1,0.8-0.2c0.3-0.3,0.5-1.2,0.5-2.8
			c0-0.5,0-1-0.1-1.4c-0.6,0.9-1.3,1.6-2.2,2.2l-0.5-0.7c1.1-0.7,1.9-1.6,2.5-2.6c-0.1-0.4-0.2-0.8-0.3-1.2c0-0.1-0.1-0.2-0.1-0.3
			c-0.5,0.4-1,0.7-1.6,1.1l-0.5-0.7c0.6-0.3,1.2-0.7,1.7-1.1c-0.3-0.6-0.8-1.1-1.3-1.5l0.7-0.5c0.5,0.5,0.9,1,1.2,1.5
			c0.4-0.5,0.9-1,1.2-1.6L227,55.9z M229.6,57.3v-2h0.9v2h2.5v4.8h-2.5v2.7c0.6-0.1,1.2-0.2,1.7-0.3c-0.2-0.6-0.4-1.1-0.6-1.7
			l0.7-0.2c0.4,1,0.8,2.2,1.1,3.5l-0.8,0.2c-0.1-0.4-0.2-0.7-0.3-1c-1.3,0.3-3.2,0.6-5.6,0.8l-0.1-0.9c1.1-0.1,2-0.1,2.9-0.2v-2.9
			h-2.4v-4.8H229.6z M229.6,58.1H228v3.2h1.6V58.1z M232.1,58.1h-1.6v3.2h1.6V58.1z"/>
		<path class="st3" d="M240.7,64.7c0.7-1.6,1.4-3.6,1.9-6l0.9,0.2c-0.5,2.2-1.1,4.1-1.8,5.8h3.9v0.8h-10.9v-0.8H240.7z M239.7,57.2
			c-0.2-0.6-0.4-1.2-0.6-1.8l1-0.2c0.2,0.6,0.4,1.2,0.6,1.9h4.5V58h-10v-0.8H239.7z M239.1,64.1l-0.9,0.2c-0.4-1.8-0.8-3.6-1.4-5.3
			l0.9-0.3C238.2,60.3,238.7,62.1,239.1,64.1z"/>
	</g>
	<g class="st2">
		<path class="st3" d="M314.3,57.7c0.1-0.4,0.2-0.7,0.3-1.1h-4.1v3.8c0,2.4-0.4,4.3-1.2,5.8l-0.6-0.6c0.6-1.3,0.9-3,0.9-5.2v-4.7
			h9.8v0.9h-3.9c-0.1,0.4-0.2,0.8-0.3,1.1h3.3v4.6h-2.8v3c0,0.6-0.3,0.9-1,0.9h-1.2l-0.2-0.9c0.4,0,0.7,0.1,1.1,0.1
			c0.3,0,0.4-0.1,0.4-0.4v-2.8h-3v-4.6H314.3z M313.4,63.2c-0.6,1-1.2,1.9-1.9,2.7l-0.7-0.5c0.7-0.7,1.4-1.5,1.9-2.5L313.4,63.2z
			 M317.6,59.6v-1.1h-5v1.1H317.6z M317.6,60.4h-5v1.2h5V60.4z M319.4,65.4l-0.7,0.5c-0.5-0.8-1.1-1.7-1.9-2.6l0.7-0.4
			C318.3,63.8,319,64.7,319.4,65.4z"/>
		<path class="st3" d="M324.4,55.4c1,1.1,2.1,2.3,3,3.5l-0.6,0.6c-1-1.4-1.9-2.5-2.7-3.3c-0.9,1.3-1.9,2.5-3.1,3.6l-0.5-0.7
			c1.2-1.1,2.2-2.3,3.2-3.8H324.4z M322.7,59.9v5c0,0.3,0.1,0.4,0.5,0.4h2.3c0.4,0,0.7-0.1,0.8-0.3c0.1-0.2,0.2-0.7,0.2-1.3l0.8,0.3
			c-0.1,1-0.2,1.6-0.5,1.9c-0.2,0.2-0.6,0.3-1.1,0.3h-2.9c-0.7,0-1-0.3-1-0.9v-6h4.3v3.2c0,0.6-0.3,1-1,1c-0.5,0-0.9,0-1.3,0
			l-0.2-0.8c0.5,0,0.9,0.1,1.2,0.1c0.3,0,0.5-0.2,0.5-0.5v-2.2H322.7z M328.2,66.2l-0.2-0.8c0.6,0,1.2,0.1,1.8,0.1
			c0.3,0,0.5-0.2,0.5-0.5v-9.5h0.9v9.8c0,0.7-0.3,1.1-1,1.1H328.2z M328.9,56.3v7.5h-0.8v-7.5H328.9z"/>
	</g>
</g>
</svg>
