<!-- Generator: Adobe Illustrator 21.0.0, SVG Export Plug-In  -->
<svg version="1.1"
	 xmlns="http://www.w3.org/2000/svg" xmlns:xlink="http://www.w3.org/1999/xlink" xmlns:a="http://ns.adobe.com/AdobeSVGViewerExtensions/3.0/"
	 x="0px" y="0px" width="376px" height="150.3px" viewBox="0 0 376 150.3" style="enable-background:new 0 0 376 150.3;"
	 xml:space="preserve">
<style type="text/css">
	.st0{clip-path:url(#SVGID_2_);fill:#F2F2F2;}
	.st1{clip-path:url(#SVGID_2_);fill:#FFFFFF;stroke:#DBDBDB;stroke-miterlimit:10;}
	.st2{clip-path:url(#SVGID_2_);}
	.st3{fill:#4D4D4D;}
	.st4{clip-path:url(#SVGID_2_);fill:#B3B3B3;}
	.st5{clip-path:url(#SVGID_4_);fill:#F2F2F2;}
	.st6{clip-path:url(#SVGID_4_);fill:#FFFFFF;stroke:#DBDBDB;stroke-miterlimit:10;}
	.st7{clip-path:url(#SVGID_4_);}
	.st8{clip-path:url(#SVGID_4_);fill:#B3B3B3;}
</style>
<defs>
</defs>
<g>
	<defs>
		<rect id="SVGID_1_" width="376" height="139"/>
	</defs>
	<clipPath id="SVGID_2_">
		<use xlink:href="#SVGID_1_"  style="overflow:visible;"/>
	</clipPath>
	<rect class="st0" width="376" height="139"/>
	<path class="st1" d="M140.5,38.8H36.3c-8.2,0-15-6.7-15-15v-0.1c0-8.2,6.7-15,15-15l104.2,0c8.2,0,15,6.7,15,15v0.1
		C155.5,32.1,148.8,38.8,140.5,38.8z"/>
	<path class="st1" d="M232.5,75.8h-77.2c-8.2,0-15-6.7-15-15v-0.1c0-8.2,6.7-15,15-15h77.2c8.2,0,15,6.7,15,15v0.1
		C247.5,69.1,240.8,75.8,232.5,75.8z"/>
	<path class="st1" d="M344.5,75.8h-60.2c-8.2,0-15-6.7-15-15v-0.1c0-8.2,6.7-15,15-15l60.2,0c8.2,0,15,6.7,15,15v0.1
		C359.5,69.1,352.8,75.8,344.5,75.8z"/>
	<path class="st1" d="M296.5,38.8H187.3c-8.2,0-15-6.7-15-15v-0.1c0-8.2,6.7-15,15-15h109.2c8.2,0,15,6.7,15,15v0.1
		C311.5,32.1,304.8,38.8,296.5,38.8z"/>
	<path class="st1" d="M105,75.8H36.3c-8.2,0-15-6.7-15-15v-0.1c0-8.2,6.7-15,15-15H105c8.2,0,15,6.7,15,15v0.1
		C120,69.1,113.2,75.8,105,75.8z"/>
	<path class="st1" d="M153.5,112.8H37.3c-8.2,0-15-6.7-15-15v-0.1c0-8.2,6.7-15,15-15h116.2c8.2,0,15,6.7,15,15v0.1
		C168.5,106.1,161.8,112.8,153.5,112.8z"/>
	<path class="st1" d="M319.5,112.8H203.3c-8.2,0-15-6.7-15-15v-0.1c0-8.2,6.7-15,15-15h116.2c8.2,0,15,6.7,15,15v0.1
		C334.5,106.1,327.8,112.8,319.5,112.8z"/>
	<path class="st1" d="M121.5,149.8H38.3c-8.2,0-15-6.7-15-15v-0.1c0-8.2,6.7-15,15-15h83.2c8.2,0,15,6.7,15,15v0.1
		C136.5,143.1,129.8,149.8,121.5,149.8z"/>
	<path class="st1" d="M264.5,149.8h-93.2c-8.2,0-15-6.7-15-15v-0.1c0-8.2,6.7-15,15-15h93.2c8.2,0,15,6.7,15,15v0.1
		C279.5,143.1,272.8,149.8,264.5,149.8z"/>
	<g class="st2">
		<path class="st3" d="M75.6,22.1h-0.8v-1.5h-8.1v1.5h-0.8v-2.2h2.5V19h-2.8v-0.7h2.8v-0.8h0.9v0.8h3.1v-0.7h0.9v0.7h2.8V19h-2.8
			v0.9h2.5V22.1z M75.8,22.6v0.7h-5.2c0.7,0.4,1.1,1,1.3,1.7c0.9-0.3,1.8-0.9,2.7-1.6l0.6,0.6c-0.6,0.5-1.3,0.9-2,1.2
			c0.6,1,1.6,1.7,2.8,2.3l-0.6,0.7c-1.4-0.7-2.3-1.6-2.9-2.8c-0.2,0.1-0.3,0.1-0.5,0.2c0,0.1,0,0.3,0,0.5c0,1.1-0.2,1.8-0.5,2
			c-0.3,0.2-0.8,0.3-1.4,0.4c-0.2,0-0.4,0-0.6,0l-0.2-0.7h0.7c0.4,0,0.7-0.1,0.9-0.2c0.2-0.2,0.3-0.6,0.3-1.4c0,0,0-0.1,0-0.1
			c-1.5,1-3.3,1.8-5.3,2.3l-0.5-0.7c2.2-0.5,4.1-1.3,5.6-2.3c-0.1-0.3-0.2-0.5-0.3-0.7c-1.2,0.8-2.8,1.4-4.8,1.9L65.7,26
			c2.1-0.5,3.7-1,4.8-1.8c-0.2-0.2-0.4-0.3-0.6-0.5c-0.9,0.5-2.2,1-3.7,1.3l-0.4-0.7c1.7-0.3,2.9-0.7,3.8-1.1h-4v-0.7H75.8z
			 M73.8,21.2v0.6h-6.2v-0.6H73.8z M72.2,19h-3.1v0.9h3.1V19z"/>
		<path class="st3" d="M88,18v0.8h-4.8c-0.1,0.5-0.3,1-0.4,1.5h4.6v8.2h-0.8V28h-7.7v0.6H78v-8.2h3.9c0.2-0.5,0.3-1,0.4-1.5h-5V18
			H88z M80.5,27.2v-6h-1.7v6H80.5z M84.1,22.7v-1.5h-2.7v1.5H84.1z M84.1,24.9v-1.5h-2.7v1.5H84.1z M84.1,27.2v-1.5h-2.7v1.5H84.1z
			 M86.6,27.2v-6h-1.7v6H86.6z"/>
		<path class="st3" d="M92.1,28.5l-0.2-0.8c0.4,0,0.7,0,1,0c0.3,0,0.5-0.2,0.5-0.5v-3.7h-4.1v-0.8h5.7v0.8h-0.8v3.9c0,0.7-0.3,1-1,1
			H92.1z M89.6,18.8V18h5.3v0.8h-0.6v3.5h-0.8v-3.5H89.6z M92.7,19.7v2.3h-2.9v-2.3H92.7z M92.7,24.5v2.3h-2.9v-2.3H92.7z M92,20.2
			h-1.4v1.1H92V20.2z M92,25h-1.5v1.2H92V25z M97.6,21.2c0,0.8,0,1.6-0.1,2.2c0.6,1.9,1.5,3.3,2.8,4.4l-0.6,0.7
			c-1-1-1.9-2.2-2.4-3.6l0,0.2c-0.3,1.4-1.1,2.5-2.3,3.5l-0.5-0.7c1-0.8,1.7-1.8,2-2.9c0.2-1,0.4-2.2,0.4-3.8H97.6z M96.6,17.7
			c-0.1,0.6-0.1,1.1-0.2,1.5h3.4v0.6c-0.2,1.1-0.4,2.1-0.6,3.2l-0.8-0.2c0.3-0.8,0.5-1.7,0.6-2.7h-2.7c-0.3,1.1-0.6,1.9-1,2.6
			l-0.7-0.5c0.7-1.1,1.1-2.6,1.3-4.6L96.6,17.7z"/>
		<path class="st3" d="M111.5,18.1V19h-4.4v3.5h3.8v0.8h-3.8v3.9h4.8V28h-10.5v-0.8h4.8v-3.9h-3.8v-0.8h3.8V19h-4.4v-0.8H111.5z"/>
	</g>
	<g class="st2">
		<path class="st3" d="M216.8,17v2.2h4.3v5.7h-0.9v-0.8h-3.5v4.1h-0.9v-4.1h-3.4v0.8h-0.9v-5.7h4.3V17H216.8z M215.9,23.2V20h-3.4
			v3.2H215.9z M220.2,23.2V20h-3.5v3.2H220.2z"/>
		<path class="st3" d="M233.3,28h-0.9v-0.5h-8.1V28h-0.9V17.6h9.9V28z M232.4,26.7v-8.3h-8.1v8.3H232.4z M231.3,19.5v0.8h-2.5V22
			h2.2v0.8h-2.2v1.9h2.9v0.8H225v-0.8h2.9v-1.9h-2.2V22h2.2v-1.7h-2.5v-0.8H231.3z M231,24.4l-0.7,0.3c-0.2-0.5-0.5-1-0.8-1.4
			l0.7-0.2C230.5,23.5,230.8,23.9,231,24.4z"/>
		<path class="st3" d="M238.6,25.5V28h-0.8v-6.3c-0.7,0.8-1.5,1.6-2.3,2.3l-0.6-0.7c1.5-1.2,2.7-2.6,3.5-4.1h-3.2v-0.8h3.6
			c0.2-0.5,0.4-0.9,0.5-1.4l0.9,0.1c-0.1,0.4-0.3,0.9-0.5,1.3h6v0.8h-6.3c-0.2,0.5-0.5,1-0.8,1.4h5.6v6.5c0,0.6-0.3,0.9-1,0.9h-1.3
			l-0.2-0.8c0.5,0,0.9,0,1.3,0c0.3,0,0.5-0.1,0.5-0.4v-1.4H238.6z M238.6,22.7h4.8v-1.3h-4.8V22.7z M238.6,23.4v1.3h4.8v-1.3H238.6z
			"/>
		<path class="st3" d="M250.2,26.9h-0.8v-0.8h-1.1v1.1h-0.8v-9.1h2.8V26.9z M249.4,25.3v-6.4h-1.1v6.4H249.4z M257,20.6v2.2h-0.9
			l-0.3,0.9h2.1v0.7h-7.2v-0.7h2.1l-0.3-0.9h-1v-2.2H257z M253.8,17.8v-0.8h0.9v0.8h3.1v0.7h-3.1v0.7h2.7V20H251v-0.7h2.7v-0.7h-3
			v-0.7H253.8z M257.1,28.1h-0.8v-0.5h-4.2v0.5h-0.8v-2.9h5.8V28.1z M256.3,26.9v-1.1h-4.2v1.1H256.3z M256.2,21.3h-3.9v0.9h3.9
			V21.3z M255.3,22.9h-2.1l0.3,0.9h1.4L255.3,22.9z"/>
		<path class="st3" d="M266.6,17.2c0.8,1.5,1.9,2.7,3.4,3.7l-0.5,0.7c-1.4-0.9-2.5-2.1-3.3-3.6c-0.9,1.5-2,2.8-3.3,3.7l-0.4-0.6v5.6
			h-0.8V26h-1.5v0.9h-0.8v-8.9h3.1v2.8c1.3-1,2.5-2.2,3.3-3.7H266.6z M261.7,25.2v-6.4h-1.5v6.4H261.7z M268.8,28.1H268v-0.7h-3.5
			v0.7h-0.8v-4.8h5.2V28.1z M268.3,20.9v0.8h-4.2v-0.8H268.3z M268,26.6V24h-3.5v2.6H268z"/>
	</g>
	<g class="st2">
		<path class="st3" d="M53.1,54.7c1.5,1.8,3.3,3.2,5.3,4.2l-0.5,0.8c-2-1.1-3.7-2.5-5.1-4.2c-1.3,1.6-3,3-5.2,4.2l-0.5-0.8
			c2.1-1.1,3.9-2.5,5.3-4.2H53.1z M56.6,65.7h-0.8V65h-5.9v0.7H49v-4.8h7.6V65.7z M55.9,58.5v0.8h-6.3v-0.8H55.9z M55.7,64.1v-2.5
			h-5.9v2.5H55.7z"/>
		<path class="st3" d="M63,64.3h-0.9v-0.6h-1.6v0.9h-0.9v-8.9H63V64.3z M62.2,62.8v-6.3h-1.6v6.3H62.2z M69.9,65.7h-0.8v-0.6h-4.4
			v0.6h-0.8v-5.3h6V65.7z M69.4,55.1v4.3h-5.1v-4.3H69.4z M69.1,62.4v-1.2h-4.4v1.2H69.1z M69.1,64.4v-1.2h-4.4v1.2H69.1z M68.6,57
			v-1.1h-3.5V57H68.6z M68.6,57.7h-3.5v1.1h3.5V57.7z"/>
		<path class="st3" d="M75.5,55.2v3.7h-1.1v1.9h1.3v0.8h-1.3v2.2c0.5-0.1,1-0.3,1.4-0.4v0.8c-1.2,0.4-2.6,0.8-4.2,1.2l-0.2-0.8
			l0.6-0.1v-4.3h0.8v4.2c0.3-0.1,0.6-0.2,1-0.2v-5.1h-1.8v-3.7H75.5z M74.7,56h-2v2.1h2V56z M82.1,61.4c-0.5,0.6-1.1,1.2-1.7,1.5
			c0.5,0.7,1.2,1.4,2,1.9l-0.5,0.8c-1.9-1.3-3-3-3.4-5.3h-1.2v4.1c0.7-0.2,1.4-0.5,2-0.8l0.2,0.8c-0.8,0.4-1.9,0.7-3.2,1l-0.2-0.7
			c0.2-0.1,0.3-0.2,0.3-0.3v-9.2h5v5.1h-2.1c0.1,0.7,0.4,1.4,0.7,2c0.6-0.3,1.1-0.8,1.6-1.4L82.1,61.4z M80.6,56h-3.3v1.4h3.3V56z
			 M77.3,59.5h3.3v-1.3h-3.3V59.5z"/>
		<path class="st3" d="M87.1,64.3h-0.9v-0.6h-1.6v0.9h-0.9v-8.9h3.3V64.3z M86.2,62.8v-6.3h-1.6v6.3H86.2z M93.9,65.7h-0.8v-0.6
			h-4.4v0.6H88v-5.3h6V65.7z M93.5,55.1v4.3h-5.1v-4.3H93.5z M93.1,62.4v-1.2h-4.4v1.2H93.1z M93.1,64.4v-1.2h-4.4v1.2H93.1z
			 M92.7,57v-1.1h-3.5V57H92.7z M92.7,57.7h-3.5v1.1h3.5V57.7z"/>
	</g>
	<path class="st4" d="M345.6,20.9l-6.3,6.3c-0.2,0.2-0.5,0.2-0.6,0c-0.2-0.2-0.2-0.5,0-0.6l6.6-6.6c0.1-0.1,0.2-0.1,0.3-0.1
		c0.1,0,0.2,0,0.3,0.1l6.6,6.6c0.2,0.2,0.2,0.5,0,0.6c-0.2,0.2-0.5,0.2-0.6,0L345.6,20.9z"/>
	<g class="st2">
		<path class="st3" d="M179.3,65.7h-0.8v-6c-0.4,1.1-0.8,2.2-1.4,3.1l-0.4-0.9c0.8-1.2,1.4-2.4,1.8-3.9v-0.1h-1.4v-0.8h1.4v-2.3h0.8
			v2.3h1.3v0.8h-1.3v0.8c0.5,0.6,1,1.3,1.6,2.1l-0.5,0.7c-0.4-0.8-0.8-1.4-1.1-1.9V65.7z M183.3,64.1c-0.6,0.7-1.5,1.2-2.9,1.6
			l-0.3-0.7c1.2-0.3,2.1-0.8,2.6-1.4c0.1-0.2,0.2-0.3,0.3-0.5h-2.8v-0.8h3.2c0.1-0.3,0.2-0.6,0.2-0.9h-2.5v-3.6h5.7v3.6h-2.5
			c0,0.3-0.1,0.6-0.2,0.9h3.5v0.8h-3c0.7,0.8,1.8,1.5,3.2,2l-0.6,0.7c-1.6-0.7-2.7-1.5-3.4-2.5C183.7,63.6,183.5,63.9,183.3,64.1z
			 M182.2,55.7v-1h0.8v1h1.9v-1h0.8v1h1.9v0.8h-1.9v0.9h-0.8v-0.9H183v0.9h-0.8v-0.9h-1.8v-0.8H182.2z M186,59.3v-0.8h-4.2v0.8H186z
			 M186,59.9h-4.2v0.8h4.2V59.9z"/>
		<path class="st3" d="M192.2,55.1c-0.3,0.8-0.6,1.6-1,2.4v8.3h-0.9v-6.9c-0.4,0.6-0.9,1.2-1.4,1.7l-0.3-0.9
			c1.2-1.4,2.2-3.1,2.7-4.9L192.2,55.1z M192.2,57.4v-0.8h3.3c-0.2-0.6-0.4-1.2-0.7-1.8l0.9-0.2c0.2,0.6,0.4,1.2,0.6,1.9h3.2v0.8
			h-4.7v1.1c0,0.3,0,0.7,0,1h3.9c0,2.6-0.1,4.2-0.3,5c-0.2,0.8-0.7,1.2-1.5,1.2c-0.5,0-1.1,0-1.8,0l-0.3-0.8c0.8,0,1.4,0,1.9,0
			c0.5,0,0.8-0.3,0.9-0.9c0.1-0.6,0.1-1.8,0.1-3.6h-3.1c-0.3,2.4-1,4.2-2.2,5.4l-0.7-0.6c1.4-1.4,2.1-3.6,2.1-6.6v-1.1H192.2z"/>
		<path class="st3" d="M206.7,57.9V60h-0.9v-2.1h-0.3c-0.7,1.1-2.1,2-4.1,2.7l-0.5-0.8c1.8-0.6,3.1-1.2,3.8-2h-3.5v-0.8h4.7v-1
			c-1.1,0.1-2.3,0.1-3.5,0.1l-0.3-0.7c3.1,0,5.7-0.2,7.7-0.6l0.4,0.7c-1,0.2-2.2,0.4-3.5,0.5v1.1h4.5v0.8h-3.4
			c0.8,0.8,2.1,1.4,3.7,1.9l-0.4,0.8c-2-0.7-3.3-1.6-4.2-2.7H206.7z M202.8,61.4v-0.8h6.1V61l-0.4,1.2h2.2v0.4
			c-0.1,1.4-0.3,2.3-0.6,2.6c-0.2,0.2-0.4,0.4-0.8,0.4c-0.4,0-1.1,0.1-1.9,0.1l-0.2-0.8c0.6,0,1.2,0,1.7,0c0.2,0,0.4-0.1,0.5-0.2
			c0.2-0.2,0.4-0.8,0.5-1.8h-2.4l0.5-1.6h-2.7c-0.2,2-1.4,3.4-3.7,4.4l-0.5-0.8c2.1-0.7,3.2-1.9,3.4-3.6H202.8z"/>
	</g>
	<g class="st2">
		<path class="st3" d="M72.8,94.1c0,1.2-0.2,2.4-0.4,3.4l-0.7-0.2c0.3-1,0.4-2.1,0.5-3.3L72.8,94.1z M74.3,91.8v10.9h-0.9V91.8H74.3
			z M76.1,96.4l-0.7,0.2c-0.2-0.9-0.5-1.8-0.8-2.6l0.6-0.2C75.5,94.6,75.8,95.4,76.1,96.4z M78.2,93.6v-1.8H79v1.8h2.6v3.6h0.9V98
			h-3.3c0.7,1.6,1.9,3,3.5,4l-0.6,0.7c-1.6-1.1-2.8-2.5-3.6-4.2c-0.5,1.9-1.6,3.3-3.2,4.2l-0.5-0.7c1.5-0.8,2.5-2.1,3-3.9h-2.3v-0.8
			h2.5c0.1-0.6,0.1-1.2,0.1-1.8v-1h-2.1v-0.8H78.2z M79,95.3c0,0.7,0,1.3-0.1,2h1.9v-2.8H79V95.3z"/>
		<path class="st3" d="M86.8,98.6c-0.6,1.4-1.3,2.6-2.2,3.7l-0.7-0.5c0.8-1,1.6-2.1,2.2-3.5L86.8,98.6z M85.3,92.6
			c0.2,0,0.5,0.1,0.7,0.1c2.8,0,5.1-0.3,6.9-0.9l0.4,0.7c-1.8,0.5-4.3,0.8-7.3,0.9c-0.2,1.1-0.4,2.1-0.6,3h3.4v-2.4h0.9v2.4h4.4v0.8
			h-4.4v4.3c0,0.8-0.4,1.2-1.1,1.2H87l-0.2-0.9c0.5,0,1,0.1,1.5,0.1c0.4,0,0.5-0.2,0.5-0.6v-4h-4.4C84.9,95.5,85.2,94,85.3,92.6z
			 M94.3,101.9l-0.8,0.4c-0.6-1.4-1.3-2.7-2.1-3.8l0.8-0.4C92.9,99.3,93.6,100.5,94.3,101.9z"/>
		<path class="st3" d="M101.5,97.5c0,0.3-0.1,0.6-0.1,0.9h4.6c0,1.8-0.2,3-0.4,3.5c-0.3,0.5-0.8,0.7-1.6,0.7c-0.5,0-1,0-1.3,0
			l-0.2-0.8c0.6,0,1.1,0.1,1.5,0.1c0.6,0,1-0.3,1.1-0.8c0.1-0.6,0.1-1.1,0.1-1.8h-3.9c-0.3,0.7-0.6,1.3-1,1.8
			c-0.7,0.8-2,1.4-3.7,1.8L96,102c1.5-0.4,2.7-0.9,3.4-1.6c0.3-0.3,0.6-0.7,0.8-1.2h-3.8v-0.8h4.1c0.1-0.3,0.1-0.6,0.2-0.9H101.5z
			 M105.4,92.2v4.9h-8.3v-4.9H105.4z M100.9,94.3V93H98v1.3H100.9z M100.9,95H98v1.3h2.9V95z M104.6,94.3V93h-2.9v1.3H104.6z
			 M104.6,95h-2.9v1.3h2.9V95z"/>
		<path class="st3" d="M108.5,102.8l-0.7-0.6c0.8-1.1,1.2-2.5,1.3-4.3v-1.7h8.5v3h-7.7C109.6,100.6,109.2,101.8,108.5,102.8z
			 M112.8,92.7v-1h0.9v1h4.7v0.8h-4.7v1.1h4.1v0.8h-9.1v-0.8h4.1v-1.1h-4.7v-0.8H112.8z M109.9,97v0.9c0,0.2,0,0.4,0,0.6h3V97H109.9
			z M116.7,98.5V97h-2.9v1.5H116.7z"/>
	</g>
	<g class="st2">
		<path class="st3" d="M56.7,129.7v2.2H61v5.6h-0.9v-0.8h-3.4v4.1h-0.9v-4.1h-3.4v0.8h-0.9v-5.6h4.3v-2.2H56.7z M55.8,135.9v-3.2
			h-3.4v3.2H55.8z M60.1,135.9v-3.2h-3.4v3.2H60.1z"/>
		<path class="st3" d="M73.2,140.7h-0.9v-0.5h-8.1v0.5h-0.9v-10.4h9.9V140.7z M72.3,139.4v-8.3h-8.1v8.3H72.3z M71.2,132.2v0.8h-2.5
			v1.7h2.1v0.8h-2.1v1.9h2.9v0.8h-6.6v-0.8h2.9v-1.9h-2.1v-0.8h2.1V133h-2.5v-0.8H71.2z M70.9,137.1l-0.7,0.3
			c-0.2-0.5-0.5-1-0.8-1.4l0.7-0.2C70.4,136.1,70.7,136.6,70.9,137.1z"/>
		<path class="st3" d="M76.7,137.2c-0.3,1.2-0.8,2.3-1.3,3.2l-0.7-0.5c0.6-0.9,1-1.8,1.2-2.9L76.7,137.2z M76.2,133.5
			c-0.2-0.5-0.4-0.9-0.6-1.4l0.8-0.3c0.2,0.4,0.4,1,0.6,1.6h1.3c0.2-0.5,0.4-1.1,0.6-1.7l0.8,0.3c-0.2,0.5-0.4,1-0.6,1.4h1.4v0.8
			h-2.3v1.3h2.1v0.8h-2.1v3.4c0,0.6-0.3,1-1,1h-0.6l-0.2-0.8c0.2,0,0.4,0.1,0.5,0.1c0.3,0,0.5-0.1,0.5-0.4v-3.2H75v-0.8h2.2v-1.3
			h-2.4v-0.8H76.2z M77.3,130.8c-0.2-0.4-0.3-0.7-0.6-1l0.9-0.1c0.2,0.4,0.3,0.8,0.5,1.2h2.3v0.8H75v-0.8H77.3z M80.2,139.1
			l-0.7,0.3c-0.2-0.8-0.5-1.5-0.8-2.2l0.7-0.2C79.7,137.8,80,138.5,80.2,139.1z M85.4,130.6c-1.1,0.4-2.2,0.7-3.5,0.7v2.2h3.9v0.8
			h-1.2v6.4h-0.9v-6.4h-1.8v1.4c-0.1,2.1-0.5,3.7-1.4,4.9l-0.6-0.6c0.7-1,1.1-2.5,1.2-4.3v-5.1c1.5,0,2.8-0.3,3.9-0.8L85.4,130.6z"
			/>
		<path class="st3" d="M89.6,140.7l-0.2-0.8c0.4,0,0.7,0,1,0c0.3,0,0.5-0.2,0.5-0.5v-3.7h-4.1V135h5.7v0.8h-0.8v3.9c0,0.7-0.3,1-1,1
			H89.6z M87.1,131v-0.8h5.3v0.8h-0.6v3.5H91V131H87.1z M90.2,131.9v2.3h-2.9v-2.3H90.2z M90.2,136.6v2.3h-2.9v-2.3H90.2z
			 M89.5,132.4h-1.4v1.1h1.4V132.4z M89.5,137.2h-1.5v1.2h1.5V137.2z M95.1,133.4c0,0.8,0,1.6-0.1,2.2c0.6,1.8,1.5,3.3,2.7,4.4
			l-0.6,0.7c-1-1-1.8-2.2-2.4-3.6l0,0.2c-0.3,1.4-1.1,2.5-2.3,3.4l-0.5-0.7c1-0.8,1.7-1.8,2-2.9c0.2-1,0.4-2.2,0.4-3.8H95.1z
			 M94.1,129.9c-0.1,0.6-0.1,1.1-0.2,1.5h3.3v0.6c-0.2,1.1-0.4,2.1-0.6,3.2l-0.8-0.2c0.3-0.8,0.5-1.7,0.6-2.7h-2.7
			c-0.3,1.1-0.6,1.9-1,2.6l-0.7-0.5c0.7-1.1,1.1-2.6,1.3-4.6L94.1,129.9z"/>
		<path class="st3" d="M99.5,140.8l-0.7-0.6c0.8-1.1,1.2-2.5,1.3-4.3v-1.7h8.5v3h-7.7C100.6,138.6,100.2,139.8,99.5,140.8z
			 M103.8,130.7v-1h0.9v1h4.7v0.8h-4.7v1.1h4.1v0.8h-9.1v-0.8h4.1v-1.1h-4.7v-0.8H103.8z M100.9,135v0.9c0,0.2,0,0.4,0,0.6h3V135
			H100.9z M107.7,136.5V135h-2.9v1.5H107.7z"/>
	</g>
	<g class="st2">
		<path class="st3" d="M196.4,136.2c-0.7,0.2-1.4,0.4-2.2,0.6v2.7c0,0.7-0.4,1-1.1,1h-1.3l-0.2-0.8c0.4,0,0.8,0.1,1.2,0.1
			c0.3,0,0.5-0.2,0.5-0.5v-2.3c-0.8,0.2-1.5,0.3-2.4,0.5l-0.1-0.9c0.9-0.1,1.7-0.3,2.5-0.5v-2.4h-2.5V133h2.5v-1.6
			c-0.6,0.1-1.3,0.2-2,0.3l-0.2-0.8c1.7-0.2,3.2-0.5,4.5-1.1l0.3,0.8c-0.6,0.2-1.2,0.4-1.8,0.5v1.8h2.9c-0.1-1-0.1-2-0.1-3.2h0.9
			c0,1.2,0,2.3,0.1,3.2h3.7v0.8H198c0.1,0.9,0.2,1.6,0.3,2.2c0.1,0.3,0.2,0.6,0.2,0.9c0.6-0.7,1.1-1.5,1.5-2.4l0.7,0.4
			c-0.6,1.1-1.2,2.1-2,2.9c0.2,0.4,0.3,0.8,0.5,1c0.4,0.6,0.7,0.9,0.9,0.9c0.2,0,0.4-0.7,0.6-2l0.8,0.4c-0.3,1.7-0.7,2.6-1.3,2.6
			c-0.5,0-1-0.4-1.6-1.1c-0.2-0.3-0.5-0.7-0.7-1.1c-0.9,0.8-1.8,1.4-2.9,1.8l-0.5-0.7c1.2-0.4,2.2-1.1,3.1-1.9
			c-0.1-0.4-0.3-0.9-0.4-1.3c-0.2-0.7-0.3-1.5-0.4-2.4h-3v2.2c0.8-0.2,1.5-0.4,2.2-0.6V136.2z M201.3,131.6l-0.6,0.6
			c-0.5-0.6-1.2-1.2-2.1-1.8l0.6-0.6C200,130.5,200.7,131,201.3,131.6z"/>
		<path class="st3" d="M205.8,136.4h-0.9v-3.2c-0.5,1-1.2,1.8-1.9,2.7l-0.3-0.8c0.9-0.8,1.7-1.8,2.2-3h-2v-0.8h2v-1.3h0.9v1.3h1.6
			v0.8h-1.6v0.6c0.6,0.4,1.3,0.9,1.9,1.5l-0.5,0.7c-0.6-0.6-1-1.1-1.4-1.5V136.4z M204.9,137.2c-0.3,1.2-0.7,2.2-1.3,3l-0.7-0.5
			c0.6-0.8,0.9-1.7,1.2-2.7L204.9,137.2z M206.8,140.5c-0.8,0-1.2-0.4-1.2-1.2v-2.4h0.9v2.2c0,0.4,0.2,0.5,0.5,0.5h2.6
			c0.3,0,0.5-0.1,0.6-0.2c0.1-0.2,0.3-0.6,0.3-1.4l0.8,0.3c-0.1,1-0.3,1.6-0.5,1.8c-0.2,0.2-0.6,0.3-1,0.3H206.8z M209.5,138.3
			l-0.7,0.5c-0.3-0.5-0.8-1.1-1.3-1.7l0.7-0.4C208.7,137.3,209.2,137.8,209.5,138.3z M212.8,130.2v5.9h-4.6v-5.9H212.8z M211.9,132
			v-1H209v1H211.9z M211.9,133.7v-1H209v1H211.9z M211.9,134.4H209v1h2.9V134.4z M213.8,139.4l-0.7,0.5c-0.5-0.8-1.1-1.7-1.8-2.7
			l0.7-0.4C212.7,137.7,213.3,138.6,213.8,139.4z"/>
		<path class="st3" d="M217.2,133v-1.7c-0.6,0.1-1.2,0.2-1.8,0.2l-0.3-0.8c1.8-0.1,3.3-0.4,4.5-0.9l0.4,0.7
			c-0.6,0.2-1.3,0.4-1.9,0.6v1.9h2.1v0.8H218v0.6c0.7,0.6,1.4,1.3,2.1,2.1l-0.5,0.7c-0.6-0.9-1.2-1.5-1.6-2v5.4h-0.8v-5.3
			c-0.5,1.1-1.2,2.2-2.1,3.1l-0.4-0.9c1.1-1.1,1.9-2.2,2.4-3.6v-0.1h-2.1V133H217.2z M225.2,140.3h-0.8v-0.9h-2.9v1.1h-0.8v-9.8h4.6
			V140.3z M224.3,138.5v-7.1h-2.9v7.1H224.3z"/>
		<path class="st3" d="M226.9,135.7l-0.3-0.9c1.3-1.5,2.2-3.2,2.8-5l0.8,0.4c-0.3,0.9-0.7,1.8-1.2,2.7v8h-0.9v-6.7
			C227.8,134.6,227.4,135.2,226.9,135.7z M230.5,134.6l-0.7-0.5c0.9-1.3,1.6-2.8,2-4.4l0.8,0.2c-0.1,0.5-0.3,0.9-0.4,1.3h5.1v0.6
			c-0.2,0.7-0.4,1.5-0.7,2.2l-0.8-0.2c0.3-0.5,0.5-1.1,0.7-1.7h-4.5C231.4,133,231,133.8,230.5,134.6z M232.3,134.8
			c-0.4,1.7-1,3.1-1.7,4.4l-0.8-0.3c0.6-1.1,1.2-2.6,1.7-4.3L232.3,134.8z M231.8,140.7l-0.2-0.8c0.5,0,1,0.1,1.5,0.1
			c0.3,0,0.5-0.2,0.5-0.5v-6.4h0.8v6.6c0,0.7-0.3,1-1,1H231.8z M237.6,139.1l-0.8,0.3c-0.5-1.8-1-3.3-1.6-4.7l0.8-0.3
			C236.6,135.9,237.1,137.5,237.6,139.1z"/>
		<path class="st3" d="M242.5,139.4h-0.9v-0.6H240v0.9h-0.9v-8.9h3.3V139.4z M241.6,137.9v-6.3H240v6.3H241.6z M249.3,140.8h-0.8
			v-0.6h-4.3v0.6h-0.8v-5.3h5.9V140.8z M248.8,130.2v4.3h-5v-4.3H248.8z M248.5,137.5v-1.2h-4.3v1.2H248.5z M248.5,139.4v-1.2h-4.3
			v1.2H248.5z M248.1,132V131h-3.5v1.1H248.1z M248.1,132.7h-3.5v1.1h3.5V132.7z"/>
	</g>
	<g class="st2">
		<path class="st3" d="M243.8,100.7h-2.7v0.9h-0.9v-9.2h3.6V100.7z M243,96.1v-2.8h-1.9v2.8H243z M243,99.9v-2.9h-1.9v2.9H243z
			 M244.5,102.8l-0.7-0.6c0.8-1.2,1.3-2.6,1.3-4.4v-5.7h4.9v9.4c0,0.7-0.4,1.1-1.1,1.1h-1.6l-0.2-0.9c0.6,0,1.1,0,1.5,0
			c0.3,0,0.5-0.2,0.5-0.6v-2.5H246C245.8,100.4,245.3,101.7,244.5,102.8z M249.2,93H246v2.1h3.2V93z M246,98h3.2v-2.1H246V98z"/>
		<path class="st3" d="M261.1,102.7h-0.9v-0.9h-5.7v0.9h-0.9V92.2h7.4V102.7z M260.2,96.5v-3.4h-5.7v3.4H260.2z M260.2,100.9v-3.6
			h-5.7v3.6H260.2z"/>
		<path class="st3" d="M269.8,93.8h3.7v0.6c-1.4,2.7-3.4,4.7-6.1,6.1l0.1,0.1c0.5,0.6,1.2,0.9,2,1c0.6,0,1.4,0,2.4,0
			c0.6,0,1.5,0,2.6-0.1l-0.2,0.9H272c-1.1,0-1.8,0-2.3,0c-1.3,0-2.3-0.5-2.9-1.3c-0.2-0.3-0.4-0.4-0.6-0.4c-0.3,0-0.8,0.7-1.5,2
			l-0.7-0.5c0.8-1.6,1.5-2.4,2.2-2.4c0.2,0,0.3,0,0.4,0.1l0.1,0.1c2.5-1.3,4.4-3.1,5.7-5.3h-7.7v-0.8h4.1c-0.3-0.7-0.7-1.4-1.1-2
			l1-0.2C269.1,92.3,269.5,93,269.8,93.8z"/>
		<path class="st3" d="M281,96.9v-1.7c1-0.6,2-1.3,3-2.1h-6.7v-0.8h7.9v0.8c-0.9,0.9-2,1.8-3.3,2.6v1.3h4.6v0.8h-4.6v3.8
			c0,0.7-0.4,1.1-1.1,1.1h-2.1l-0.2-0.8c0.6,0,1.2,0,1.9,0c0.4,0,0.6-0.2,0.6-0.6v-3.6h-5v-0.8H281z"/>
	</g>
	<g class="st2">
		<path class="st3" d="M308.6,65.5c-0.8,0-1.4-0.1-1.9-0.2c-0.5-0.1-0.9-0.4-1.3-0.9c-0.2-0.2-0.3-0.3-0.5-0.3
			c-0.3,0-0.8,0.6-1.5,1.7l-0.6-0.6c0.6-1,1.2-1.6,1.7-1.9v-3.6h-1.7v-0.8h2.5v4.5c0.1,0.1,0.2,0.2,0.3,0.3c0.3,0.3,0.6,0.6,0.9,0.8
			c0.4,0.2,0.9,0.3,1.6,0.3c0.6,0,1.4,0,2.4,0c0.6,0,1.2,0,1.8,0c0.6,0,1,0,1.4,0l-0.2,0.9h-2.8C310.1,65.5,309.4,65.5,308.6,65.5z
			 M305.8,56.8l-0.6,0.6c-0.5-0.6-1.2-1.2-2-1.9l0.6-0.6C304.6,55.6,305.2,56.2,305.8,56.8z M310.5,54.7v1.5h2.4v0.8h-2.4v1.7h2.8
			v0.8h-2v3.2c0,0.2,0.1,0.3,0.4,0.3h0.4c0.2,0,0.3,0,0.4-0.1c0.1-0.1,0.2-0.6,0.3-1.4l0.8,0.3c-0.1,1-0.2,1.6-0.4,1.8
			c-0.2,0.2-0.5,0.3-0.9,0.3h-0.9c-0.3,0-0.5-0.1-0.7-0.3c-0.2-0.2-0.2-0.4-0.2-0.6v-3.4h-1.2c0,0.8-0.2,1.5-0.4,2.1
			c-0.3,0.9-1,1.7-2.2,2.3l-0.6-0.7c1-0.5,1.6-1.1,1.9-1.8c0.2-0.5,0.3-1.2,0.4-1.9h-1.9v-0.8h3.1v-1.7h-1.9
			c-0.2,0.5-0.5,0.9-0.7,1.2l-0.8-0.5c0.6-0.9,1.1-1.9,1.4-3l0.8,0.2c-0.1,0.4-0.3,0.8-0.4,1.2h1.6v-1.5H310.5z"/>
		<path class="st3" d="M320.7,57.9V60h-0.9v-2.1h-0.3c-0.7,1.1-2.1,2-4.1,2.7l-0.5-0.8c1.8-0.6,3.1-1.2,3.8-2h-3.5v-0.8h4.7v-1
			c-1.1,0.1-2.3,0.1-3.5,0.1l-0.3-0.7c3.1,0,5.7-0.2,7.7-0.6l0.4,0.7c-1,0.2-2.2,0.4-3.5,0.5v1.1h4.5v0.8h-3.4
			c0.8,0.8,2.1,1.4,3.7,1.9l-0.4,0.8c-2-0.7-3.3-1.6-4.2-2.7H320.7z M316.8,61.4v-0.8h6.1V61l-0.4,1.2h2.2v0.4
			c-0.1,1.4-0.3,2.3-0.6,2.6c-0.2,0.2-0.4,0.4-0.8,0.4c-0.4,0-1.1,0.1-1.9,0.1l-0.2-0.8c0.6,0,1.2,0,1.7,0c0.2,0,0.4-0.1,0.5-0.2
			c0.2-0.2,0.4-0.8,0.5-1.8h-2.4l0.5-1.6h-2.7c-0.2,2-1.4,3.4-3.7,4.4l-0.5-0.8c2.1-0.7,3.2-1.9,3.4-3.6H316.8z"/>
	</g>
</g>
</svg>
