<!-- Generator: Adobe Illustrator 21.0.0, SVG Export Plug-In  -->
<svg version="1.1"
	 xmlns="http://www.w3.org/2000/svg" xmlns:xlink="http://www.w3.org/1999/xlink" xmlns:a="http://ns.adobe.com/AdobeSVGViewerExtensions/3.0/"
	 x="0px" y="0px" width="34.8px" height="16.8px" viewBox="0 0 34.8 16.8" style="enable-background:new 0 0 34.8 16.8;"
	 xml:space="preserve">
<style type="text/css">
	.st0{fill:#FFFFFF;}
</style>
<defs>
</defs>
<g>
	<path class="st0" d="M13.9,12.5h-2.8l1.8,0.4c-0.3,0.6-0.6,1.2-0.9,1.7h4.6v1.8H0.7v-1.8h4.4C5,14.1,4.7,13.4,4.4,13l1.4-0.4H3.2
		V7.8C2.6,8.3,2,8.6,1.3,8.9C1,8.5,0.4,7.7,0,7.3c1-0.4,2.1-1.1,3.1-1.9C2.6,4.9,1.8,4.3,1.2,3.9l1.2-1.2c0.7,0.4,1.5,1,2,1.5
		c0.5-0.6,1-1.2,1.4-1.9H1.4V0.6h5.3l0.4-0.1l1.4,0.7C8,2.5,7.4,3.7,6.6,4.7h4.3c-1-1.2-1.7-2.6-2.4-4.2L10.4,0
		c0.3,0.6,0.6,1.3,0.9,1.8c0.7-0.5,1.4-1.2,1.8-1.7l1.6,1.2C14,1.9,13,2.6,12.3,3.2c0.3,0.3,0.5,0.6,0.8,0.9
		c0.8-0.6,1.6-1.3,2.1-1.9l1.6,1.1C16,4,15.1,4.7,14.3,5.2C15.2,6,16.3,6.6,17.4,7c-0.5,0.4-1.1,1.3-1.5,1.8c-0.7-0.3-1.4-0.7-2-1.1
		V12.5z M5.6,5.8C5,6.5,4.3,7,3.6,7.5h10.1c-0.7-0.5-1.3-1-1.9-1.7v0.6H5.6V5.8z M11.6,9.2H5.4v1.6h6.3V9.2z M9.9,14.6
		c0.3-0.6,0.7-1.5,0.9-2.1H6.4c0.4,0.6,0.7,1.3,0.8,1.8l-0.9,0.3H9.9z"/>
	<path class="st0" d="M33.7,9.8c-1,0.8-2.2,1.7-3.3,2.4c1.2,0.9,2.7,1.7,4.4,2.1c-0.5,0.4-1.1,1.3-1.4,1.9c-2.4-0.8-4.2-2.1-5.7-3.9
		v2.6c0,1-0.2,1.5-1,1.8c-0.7,0.3-1.7,0.3-3.1,0.3c-0.1-0.6-0.4-1.3-0.7-1.9c0.8,0.1,1.9,0.1,2.2,0c0.3,0,0.4-0.1,0.4-0.3v-1.3
		c-2,0.9-4,1.7-5.7,2.4l-1.2-1.9c1.7-0.6,4.3-1.6,6.9-2.6V8.5h-6.7V6.6h11.3l0.1-1h-9.7V3.7h9.8l0-1H19.9V0.8h10.7L31,0.7l1.7,0.1
		c0,1.9-0.2,3.9-0.3,5.8h2.2v1.9H32L33.7,9.8z M23,12.2c-0.6-0.7-2.1-1.7-3.2-2.3l1.4-1.3c1.1,0.6,2.6,1.5,3.3,2.2L23,12.2z
		 M27.7,8.9c0.4,0.7,0.8,1.4,1.4,2c1-0.7,2.1-1.6,2.8-2.4h-4.2V8.9z"/>
</g>
</svg>
