<!-- Generator: Adobe Illustrator 21.0.0, SVG Export Plug-In  -->
<svg version="1.1"
	 xmlns="http://www.w3.org/2000/svg" xmlns:xlink="http://www.w3.org/1999/xlink" xmlns:a="http://ns.adobe.com/AdobeSVGViewerExtensions/3.0/"
	 x="0px" y="0px" width="49.1px" height="58.7px" viewBox="0 0 49.1 58.7" style="enable-background:new 0 0 49.1 58.7;"
	 xml:space="preserve">
<style type="text/css">
	.st0{fill:#4D4D4D;}
	.st1{opacity:0.83;}
	.st2{fill:#1FB192;}
	.st3{opacity:0.75;}
	.st4{fill:#2A3D96;}
</style>
<defs>
</defs>
<g>
	<path class="st0" d="M7,50v0.9H4v7.7H3v-7.7H0V50H7z"/>
	<path class="st0" d="M8.4,50l2.7,7.5h0l2.7-7.5h1.1l-3.2,8.6h-1.2L7.3,50H8.4z"/>
	<path class="st0" d="M24.9,50.5c0.6,0.5,0.9,1.1,1,2h-1c-0.1-0.6-0.3-1.1-0.7-1.4c-0.4-0.3-0.9-0.5-1.6-0.5c-0.6,0-1.1,0.1-1.5,0.3
		c-0.4,0.2-0.6,0.6-0.6,1.1c0,0.4,0.2,0.8,0.7,1c0.2,0.1,0.7,0.3,1.6,0.5c1.1,0.3,1.9,0.6,2.2,0.8c0.7,0.4,1.1,1,1.1,1.8
		c0,0.7-0.3,1.3-0.9,1.8c-0.6,0.4-1.4,0.6-2.4,0.6c-1,0-1.8-0.2-2.4-0.6c-0.7-0.5-1-1.3-1.1-2.4h1c0.1,0.7,0.3,1.3,0.8,1.6
		c0.4,0.3,1,0.5,1.7,0.5c0.7,0,1.3-0.1,1.7-0.4c0.4-0.3,0.6-0.6,0.6-1.1c0-0.5-0.3-1-0.9-1.3c-0.2-0.1-0.9-0.3-1.8-0.6
		c-1-0.3-1.7-0.6-2-0.7c-0.7-0.4-1-0.9-1-1.7c0-0.7,0.3-1.3,0.9-1.7c0.6-0.4,1.3-0.6,2.2-0.6C23.6,49.8,24.3,50.1,24.9,50.5z"/>
	<path class="st0" d="M28.2,49.8v3.5c0.2-0.4,0.5-0.7,0.9-0.9c0.3-0.2,0.7-0.3,1.1-0.3c0.7,0,1.3,0.2,1.7,0.6c0.4,0.4,0.6,1,0.6,1.8
		v3.9h-1v-3.8c0-0.6-0.1-1-0.4-1.3c-0.3-0.3-0.7-0.5-1.2-0.5c-0.5,0-0.9,0.2-1.2,0.6c-0.3,0.4-0.5,0.9-0.5,1.5v3.5h-1v-8.7H28.2z"/>
	<path class="st0" d="M38.9,53.2c0.5,0.6,0.8,1.4,0.8,2.3c0,0.9-0.3,1.7-0.8,2.3c-0.6,0.6-1.3,1-2.2,1c-0.9,0-1.7-0.3-2.2-1
		c-0.5-0.6-0.8-1.4-0.8-2.3c0-0.9,0.3-1.7,0.8-2.3c0.6-0.6,1.3-1,2.2-1C37.6,52.2,38.3,52.5,38.9,53.2z M35.1,53.8
		c-0.3,0.5-0.5,1-0.5,1.7c0,0.7,0.2,1.2,0.5,1.7c0.4,0.5,0.9,0.8,1.5,0.8c0.6,0,1.2-0.3,1.5-0.8c0.3-0.5,0.5-1,0.5-1.7
		c0-0.7-0.2-1.3-0.5-1.7c-0.4-0.5-0.9-0.8-1.5-0.8C36,53,35.5,53.3,35.1,53.8z"/>
	<path class="st0" d="M41.3,52.4l1.5,5l1.4-5h0.9l1.4,5l1.5-5h1.1L47,58.6h-0.9l-1.4-5l-1.5,5h-0.9l-2.1-6.2H41.3z"/>
</g>
<g>
	<g class="st1">
		<g>
			<path class="st2" d="M23.4,33.6c-0.7,0-1.2-0.6-1.2-1.2v-6.2c0-0.7,0.6-1.2,1.2-1.2c0.7,0,1.2,0.6,1.2,1.2v6.2
				C24.7,33,24.1,33.6,23.4,33.6z"/>
		</g>
		<g>
			<path class="st2" d="M28.3,33.6c-0.7,0-1.2-0.6-1.2-1.2v-6.2c0-0.7,0.6-1.2,1.2-1.2s1.2,0.6,1.2,1.2v6.2
				C29.5,33,28.9,33.6,28.3,33.6z"/>
		</g>
	</g>
	<g>
		<g class="st3">
			<path class="st4" d="M38.4,27.4H13c-0.7,0-1.2-0.6-1.2-1.2s0.6-1.2,1.2-1.2h25.4c2,0,3.5-1.6,3.5-3.5V6c0-2-1.6-3.5-3.5-3.5
				c-0.7,0-1.2-0.6-1.2-1.2S37.7,0,38.4,0c3.3,0,6,2.7,6,6v15.3C44.4,24.7,41.7,27.4,38.4,27.4z"/>
		</g>
		<g class="st3">
			<path class="st4" d="M32.8,33.6h-14c-0.7,0-1.2-0.6-1.2-1.2c0-0.7,0.6-1.2,1.2-1.2h14c0.7,0,1.2,0.6,1.2,1.2
				C34.1,33,33.5,33.6,32.8,33.6z"/>
		</g>
		<g class="st1">
			<path class="st2" d="M13,27.4c-3.3,0-6-2.7-6-6V6c0-3.3,2.7-6,6-6h25.4c0.7,0,1.2,0.6,1.2,1.2s-0.6,1.2-1.2,1.2H13
				c-2,0-3.5,1.6-3.5,3.5v15.3c0,2,1.6,3.5,3.5,3.5c0.7,0,1.2,0.6,1.2,1.2S13.7,27.4,13,27.4z"/>
		</g>
		<g class="st3">
			<path class="st4" d="M43.2,21.3H8.2C7.6,21.3,7,20.7,7,20c0-0.7,0.6-1.2,1.2-1.2h34.9c0.7,0,1.2,0.6,1.2,1.2
				C44.4,20.7,43.9,21.3,43.2,21.3z"/>
		</g>
	</g>
</g>
</svg>
