<!-- Generator: Adobe Illustrator 21.0.0, SVG Export Plug-In  -->
<svg version="1.1"
	 xmlns="http://www.w3.org/2000/svg" xmlns:xlink="http://www.w3.org/1999/xlink" xmlns:a="http://ns.adobe.com/AdobeSVGViewerExtensions/3.0/"
	 x="0px" y="0px" width="376px" height="49px" viewBox="0 0 376 49" style="enable-background:new 0 0 376 49;"
	 xml:space="preserve">
<style type="text/css">
	.st0{fill:#00E1FF;}
	.st1{fill:#16F2E7;}
	.st2{opacity:0.5;}
	.st3{fill:#FFFFFF;}
	.st4{fill:#00F3FF;}
	.st5{fill:none;stroke:#FFFFFF;stroke-width:2;stroke-linecap:round;stroke-linejoin:round;stroke-miterlimit:10;}
</style>
<defs>
</defs>
<rect width="376" height="49"/>
<g>
	<g>
		<path class="st0" d="M145.5,17c-0.1,0-0.2,0-0.3-0.1l-7.4-4.8c-0.2-0.2-0.3-0.5-0.1-0.7c0.2-0.2,0.5-0.3,0.7-0.1l7.4,4.8
			c0.2,0.2,0.3,0.5,0.1,0.7C145.8,16.9,145.7,17,145.5,17z"/>
	</g>
	<g>
		<path class="st0" d="M150.4,27.3h-18.6c-0.3,0-0.5-0.2-0.5-0.5s0.2-0.5,0.5-0.5h18.6c1.7,0,3-1.5,3-3.4V10.3c0-1.9-1.4-3.4-3-3.4
			c-0.3,0-0.5-0.2-0.5-0.5s0.2-0.5,0.5-0.5c2.2,0,4,2,4,4.4v12.6C154.4,25.3,152.6,27.3,150.4,27.3z"/>
	</g>
	<g>
		<path class="st1" d="M131.8,27.3c-2.2,0-4-2-4-4.4V10.3c0-2.4,1.8-4.4,4-4.4h18.6c0.3,0,0.5,0.2,0.5,0.5s-0.2,0.5-0.5,0.5h-18.6
			c-1.7,0-3,1.5-3,3.4v12.6c0,1.9,1.4,3.4,3,3.4c0.3,0,0.5,0.2,0.5,0.5S132.1,27.3,131.8,27.3z"/>
	</g>
	<g>
		<g>
			<path class="st1" d="M138.1,21.1c-0.3,0-0.5-0.2-0.5-0.5v-9c0-0.3,0.2-0.5,0.5-0.5s0.5,0.2,0.5,0.5v9
				C138.6,20.9,138.4,21.1,138.1,21.1z"/>
		</g>
	</g>
	<g>
		<path class="st0" d="M138.2,21.1c-0.2,0-0.3-0.1-0.4-0.3c-0.1-0.2,0-0.5,0.2-0.7l7.3-4.1c0.2-0.1,0.5,0,0.7,0.2
			c0.1,0.2,0,0.5-0.2,0.7l-7.3,4.1C138.4,21,138.3,21.1,138.2,21.1z"/>
	</g>
</g>
<g class="st2">
	<g>
		<path class="st3" d="M341,15.5c-0.1,0-0.3,0-0.4-0.1c-0.2-0.2-0.2-0.5,0-0.7c1.9-1.9,1.9-4.9,0-6.8c-0.9-0.9-2.1-1.4-3.4-1.4
			c0,0,0,0,0,0c-1.3,0-2.5,0.5-3.4,1.4c-0.2,0.2-0.5,0.2-0.7,0c-0.2-0.2-0.2-0.5,0-0.7c2.3-2.2,5.9-2.2,8.2,0c2.2,2.3,2.2,5.9,0,8.2
			C341.2,15.5,341.1,15.5,341,15.5z"/>
	</g>
	<g>
		<path class="st3" d="M337.3,17.1c-1.5,0-3-0.6-4.1-1.7c-2.3-2.3-2.3-5.9,0-8.2c0.2-0.2,0.5-0.2,0.7,0s0.2,0.5,0,0.7
			c-1.9,1.9-1.9,4.9,0,6.8c1.9,1.9,4.9,1.9,6.8,0c0.2-0.2,0.5-0.2,0.7,0s0.2,0.5,0,0.7C340.3,16.5,338.8,17.1,337.3,17.1z"/>
	</g>
	<g>
		<path class="st3" d="M344.9,27h-14.3c-0.5,0-1-0.2-1.3-0.6c-0.3-0.4-0.5-0.9-0.4-1.4c0.7-4.3,4.4-7.5,8.8-7.5
			c4.4,0,8.1,3.1,8.8,7.5c0.1,0.5-0.1,1-0.4,1.4C345.8,26.8,345.4,27,344.9,27z M337.7,18.6c-3.9,0-7.2,2.8-7.8,6.6
			c0,0.2,0,0.4,0.2,0.5c0.1,0.2,0.3,0.3,0.5,0.3h14.3c0.2,0,0.4-0.1,0.5-0.3c0.1-0.2,0.2-0.3,0.2-0.5
			C344.9,21.4,341.6,18.6,337.7,18.6z"/>
	</g>
</g>
<g class="st2">
	<g>
		<path class="st3" d="M235.7,21.1c0,0-0.1,0-0.1,0c-0.3-0.1-0.4-0.3-0.4-0.6l2.4-11.6c0.1-0.3,0.3-0.4,0.6-0.4
			c0.3,0.1,0.4,0.3,0.4,0.6l-2.4,11.6C236.1,21,235.9,21.1,235.7,21.1z"/>
	</g>
	<g>
		<path class="st3" d="M243.8,20.6c-0.2,0-0.4-0.2-0.5-0.4l-2.6-11.1c-0.1-0.3,0.1-0.5,0.4-0.6c0.3-0.1,0.5,0.1,0.6,0.4l2.6,11.1
			c0.1,0.3-0.1,0.5-0.4,0.6C243.8,20.6,243.8,20.6,243.8,20.6z"/>
	</g>
	<g>
		<path class="st3" d="M226.8,19.2c-0.1,0-0.1,0-0.2,0c-0.3-0.1-0.4-0.4-0.3-0.6l4.7-12c0.1-0.3,0.4-0.4,0.6-0.3
			c0.3,0.1,0.4,0.4,0.3,0.6l-4.7,12C227.2,19,227,19.2,226.8,19.2z"/>
	</g>
	<g>
		<path class="st3" d="M252.9,20.2c-0.2,0-0.4-0.1-0.5-0.3l-5.2-13c-0.1-0.3,0-0.5,0.3-0.6c0.3-0.1,0.5,0,0.6,0.3l5.2,13
			c0.1,0.3,0,0.5-0.3,0.6C253,20.2,252.9,20.2,252.9,20.2z"/>
	</g>
	<g>
		<path class="st3" d="M234.3,26.3c-0.1,0-0.3,0-0.4-0.1c-0.2-0.2-0.2-0.5,0-0.7c0.9-0.9,1.3-2,1.3-3.3c0-1.2-0.5-2.4-1.3-3.3
			s-2-1.3-3.3-1.3s-2.4,0.5-3.3,1.3c-0.2,0.2-0.5,0.2-0.7,0s-0.2-0.5,0-0.7c2.2-2.2,5.7-2.2,7.9,0c1.1,1.1,1.6,2.5,1.6,4
			c0,1.5-0.6,2.9-1.6,4C234.6,26.3,234.4,26.3,234.3,26.3z"/>
	</g>
	<g>
		<path class="st3" d="M230.7,27.8c-1.4,0-2.9-0.5-4-1.6c-1.1-1.1-1.6-2.5-1.6-4c0-1.5,0.6-2.9,1.6-4c0.2-0.2,0.5-0.2,0.7,0
			s0.2,0.5,0,0.7c-0.9,0.9-1.3,2-1.3,3.3c0,1.2,0.5,2.4,1.3,3.3s2,1.3,3.3,1.3s2.4-0.5,3.3-1.3c0.2-0.2,0.5-0.2,0.7,0s0.2,0.5,0,0.7
			C233.6,27.3,232.2,27.8,230.7,27.8z"/>
	</g>
	<g>
		<path class="st3" d="M228.2,22.3c-0.3,0-0.5-0.2-0.5-0.5c0-1.5,1.3-2.8,2.8-2.8c0.3,0,0.5,0.2,0.5,0.5s-0.2,0.5-0.5,0.5
			c-1,0-1.8,0.8-1.8,1.8C228.7,22.1,228.4,22.3,228.2,22.3z"/>
	</g>
	<g>
		<path class="st3" d="M245.9,22.3c-0.3,0-0.5-0.2-0.5-0.5c0-1.5,1.3-2.8,2.8-2.8c0.3,0,0.5,0.2,0.5,0.5s-0.2,0.5-0.5,0.5
			c-1,0-1.8,0.8-1.8,1.8C246.4,22.1,246.1,22.3,245.9,22.3z"/>
	</g>
	<g>
		<path class="st3" d="M252,26.3c-0.1,0-0.3,0-0.4-0.1c-0.2-0.2-0.2-0.5,0-0.7c1.8-1.8,1.8-4.7,0-6.5c-1.8-1.8-4.7-1.8-6.5,0
			c-0.2,0.2-0.5,0.2-0.7,0s-0.2-0.5,0-0.7c2.2-2.2,5.7-2.2,7.9,0c2.2,2.2,2.2,5.7,0,7.9C252.3,26.3,252.1,26.3,252,26.3z"/>
	</g>
	<g>
		<path class="st3" d="M248.4,27.8c-1.4,0-2.9-0.5-4-1.6c-2.2-2.2-2.2-5.7,0-7.9c0.2-0.2,0.5-0.2,0.7,0s0.2,0.5,0,0.7
			c-1.8,1.8-1.8,4.7,0,6.5c1.8,1.8,4.7,1.8,6.5,0c0.2-0.2,0.5-0.2,0.7,0s0.2,0.5,0,0.7C251.3,27.3,249.9,27.8,248.4,27.8z"/>
	</g>
	<g>
		<path class="st3" d="M238,9.5c-0.2,0-0.4-0.1-0.5-0.3c-0.5-1.4-1.2-2.2-2.2-2.6C233.8,6,232,6.9,232,6.9c-0.2,0.1-0.5,0-0.7-0.2
			c-0.1-0.2,0-0.5,0.2-0.7c0.1,0,2.1-1.1,4.1-0.3c1.3,0.5,2.2,1.6,2.8,3.2c0.1,0.3,0,0.5-0.3,0.6C238.2,9.5,238.1,9.5,238,9.5z"/>
	</g>
	<g>
		<path class="st3" d="M241.2,9.5c-0.1,0-0.1,0-0.2,0c-0.3-0.1-0.4-0.4-0.3-0.6c0.6-1.6,1.6-2.7,2.8-3.2c2-0.8,4,0.3,4.1,0.3
			c0.2,0.1,0.3,0.4,0.2,0.7c-0.1,0.2-0.4,0.3-0.7,0.2c0,0-1.7-0.9-3.3-0.3c-1,0.4-1.7,1.3-2.2,2.6C241.6,9.4,241.4,9.5,241.2,9.5z"
			/>
	</g>
	<g>
		<path class="st3" d="M241.2,12.6H238c-0.3,0-0.5-0.2-0.5-0.5s0.2-0.5,0.5-0.5h3.1c0.3,0,0.5,0.2,0.5,0.5S241.4,12.6,241.2,12.6z"
			/>
	</g>
	<g>
		<path class="st3" d="M242.5,16.4h-5.2c-0.3,0-0.5-0.2-0.5-0.5s0.2-0.5,0.5-0.5h5.2c0.3,0,0.5,0.2,0.5,0.5S242.7,16.4,242.5,16.4z"
			/>
	</g>
</g>
<g class="st2">
	<path class="st3" d="M41,45.4h-0.7V45h-5.2v0.4h-0.7v-6.2h2.7c0.1-0.3,0.1-0.7,0.2-1h-4v-0.7h2.6c-0.2-0.4-0.3-0.8-0.5-1.1l0.7-0.3
		c0.2,0.4,0.4,0.8,0.6,1.4h2.2c0.2-0.4,0.4-0.9,0.6-1.4l0.7,0.2c-0.2,0.4-0.3,0.8-0.5,1.1h2.6v0.7h-4.1c-0.1,0.4-0.1,0.7-0.2,1H41
		V45.4z M40.3,40.9v-1h-5.2v1H40.3z M40.3,42.6v-1h-5.2v1H40.3z M40.3,44.3v-1.1h-5.2v1.1H40.3z"/>
	<path class="st3" d="M51.6,43.1h-0.7v-4h-4.8v4.1h-0.7v-4.8h2.5c0.1-0.4,0.2-0.7,0.2-1.1h-4v-0.7h8.8v0.7h-4
		c-0.1,0.4-0.1,0.8-0.2,1.1h2.9V43.1z M48.8,39.7v1.6c0,1.1-0.4,2-1.1,2.6c-0.6,0.6-1.7,1.1-3.2,1.4l-0.4-0.6c1.5-0.3,2.5-0.7,3-1.3
		c0.5-0.6,0.8-1.3,0.9-2.1v-1.6H48.8z M52.7,44.7l-0.4,0.7c-1.1-0.7-2.3-1.3-3.5-1.7l0.4-0.6C50.4,43.6,51.6,44.1,52.7,44.7z"/>
</g>
<g>
	<g>
		<path class="st4" d="M134.8,37.1c0-0.3,0.1-0.6,0.1-0.9l0.7,0.1c0,0.3-0.1,0.6-0.1,0.8h3.9v0.7h-4c-0.1,0.3-0.1,0.6-0.2,0.8h2.9
			v5.8h1.5v0.7h-8.9v-0.7h1.4v-5.8h2.3c0.1-0.3,0.1-0.6,0.2-0.8H131v-0.7H134.8z M137.5,40.1v-0.9h-4.5v0.9H137.5z M137.5,41.6v-0.8
			h-4.5v0.8H137.5z M137.5,43v-0.9h-4.5V43H137.5z M137.5,44.5v-0.9h-4.5v0.9H137.5z"/>
		<path class="st4" d="M145.6,44.9v0.5h-0.7v-4.1c-0.1,0.1-0.3,0.1-0.4,0.2l-0.3-0.6v0.1c-0.3,0.1-0.5,0.3-0.8,0.4v3
			c0,0.6-0.3,0.8-0.9,0.8h-0.9l-0.2-0.7c0.3,0,0.5,0,0.8,0c0.2,0,0.4-0.1,0.4-0.4v-2.5c-0.4,0.2-0.8,0.3-1.2,0.4l-0.2-0.7
			c0.5-0.1,0.9-0.3,1.3-0.4v-2.3h-1.2v-0.7h1.2v-1.9h0.7v1.9h0.9v0.7h-0.9v2c0.3-0.1,0.6-0.3,0.8-0.4v0.5c1-0.4,1.7-0.9,2.2-1.5
			h-1.9v-0.6h1.1c-0.1-0.3-0.3-0.6-0.5-0.9l0.6-0.2c0.2,0.3,0.3,0.7,0.5,1.1h0.8v-1.5c-0.7,0-1.5,0.1-2.3,0.1l-0.2-0.6
			c2.1,0,3.9-0.2,5.3-0.5l0.3,0.6c-0.7,0.2-1.5,0.3-2.5,0.4v1.5h0.8c0.2-0.4,0.4-0.9,0.6-1.3l0.6,0.2c-0.2,0.4-0.4,0.8-0.6,1.1h1.2
			v0.6h-2c0.5,0.5,1.3,1,2.3,1.4l-0.3,0.6c-1-0.5-1.9-1.2-2.5-2h-0.1v1.4h-0.7v-1.4H147c-0.4,0.7-1,1.3-1.8,1.8h4.7v4.2h-0.7v-0.5
			H145.6z M145.6,41.8v1h1.5v-1H145.6z M145.6,43.3v1h1.5v-1H145.6z M149.2,42.8v-1h-1.5v1H149.2z M149.2,44.3v-1h-1.5v1H149.2z"/>
	</g>
</g>
<g class="st2">
	<path class="st3" d="M236.3,36.3c-0.2,0.7-0.5,1.4-0.9,1.9h2.1V39h-3.3v0.5c0,0.5-0.1,1-0.1,1.4h4.1v0.7h-3.6
		c0.5,1.4,1.8,2.4,3.9,3.2l-0.4,0.7c-2.2-0.9-3.6-2.1-4.1-3.6c-0.2,0.6-0.4,1.1-0.8,1.5c-0.7,0.9-1.8,1.6-3.3,2.1l-0.4-0.6
		c1.5-0.5,2.6-1.1,3.2-1.9c0.2-0.4,0.4-0.8,0.6-1.2h-3.6v-0.7h3.8c0.1-0.4,0.1-0.9,0.1-1.4V39H230v-0.7h4.6c0.4-0.6,0.7-1.3,1-2.1
		L236.3,36.3z M233,37.9l-0.7,0.3c-0.4-0.6-0.7-1.2-1.2-1.7l0.7-0.3C232.2,36.8,232.6,37.3,233,37.9z"/>
	<path class="st3" d="M242.2,40.2l-0.5,0.5c-0.4-0.5-1-1-1.7-1.5l0.5-0.5C241.2,39.2,241.7,39.7,242.2,40.2z M242.4,41.7
		c-0.5,1.3-1,2.5-1.5,3.6l-0.7-0.3c0.6-1.1,1.1-2.3,1.6-3.5L242.4,41.7z M242.5,37.8l-0.5,0.5c-0.4-0.5-1-1-1.8-1.5l0.5-0.5
		C241.5,36.9,242.1,37.3,242.5,37.8z M245.6,37.9c-0.2-0.5-0.4-1.1-0.7-1.6l0.7-0.2c0.3,0.6,0.5,1.1,0.7,1.6l-0.4,0.2h3v0.7h-2.6V41
		h2.3v0.7h-2.3v2.6h2.8V45h-6.4v-0.7h2.9v-2.6h-2.3V41h2.3v-2.4h-2.6v-0.7H245.6z"/>
</g>
<g class="st2">
	<path class="st3" d="M332.5,36.2c0.8,1.4,2.3,2.6,4.3,3.6l-0.4,0.7c-1.9-1-3.3-2.2-4.2-3.6c-1.1,1.6-2.5,2.8-4.2,3.7l-0.4-0.6
		c1.9-1,3.3-2.2,4.3-3.7H332.5z M332.6,39.2v6.2h-0.7v-6.2H332.6z"/>
	<path class="st3" d="M343.3,38.4c0.6,2.7,2,4.8,4.3,6.2l-0.5,0.6c-2-1.3-3.4-3.1-4.1-5.4c-0.6,2.2-2,4-4.2,5.4l-0.4-0.6
		c2.8-1.7,4.2-4,4.3-6.9c0-0.7,0-1.2,0-1.6h0.7C343.3,37.1,343.3,37.8,343.3,38.4z"/>
</g>
<g class="st2">
	<g>
		<g>
			<path class="st3" d="M31.5,15.1c-0.2,0-0.3-0.1-0.4-0.2c-0.2-0.2-0.1-0.5,0.1-0.7L43,5.6c0.2-0.2,0.5-0.1,0.7,0.1
				c0.2,0.2,0.1,0.5-0.1,0.7L31.8,15C31.7,15.1,31.6,15.1,31.5,15.1z"/>
		</g>
	</g>
	<g>
		<g>
			<path class="st3" d="M55,15.1c-0.1,0-0.2,0-0.3-0.1L43,6.4c-0.2-0.2-0.3-0.5-0.1-0.7c0.2-0.2,0.5-0.3,0.7-0.1l11.8,8.6
				c0.2,0.2,0.3,0.5,0.1,0.7C55.3,15,55.2,15.1,55,15.1z"/>
		</g>
	</g>
	<g>
		<g>
			<path class="st3" d="M37.9,26.9H33c-1.1,0-2-0.9-2-2V14.6c0-0.3,0.2-0.5,0.5-0.5s0.5,0.2,0.5,0.5v10.3c0,0.5,0.4,1,1,1h4.9
				c0.5,0,1-0.4,1-1v-3c0-0.5,0.2-1,0.6-1.4c0.4-0.4,0.8-0.6,1.4-0.6c0,0,0,0,0,0l6.2,0c0.3,0,0.5,0.2,0.5,0.5S47.3,21,47,21h0
				l-6.2,0c0,0,0,0,0,0c-0.2,0-0.5,0.1-0.6,0.3c-0.2,0.2-0.3,0.4-0.3,0.6v3C39.8,26,39,26.9,37.9,26.9z"/>
		</g>
	</g>
	<g>
		<g>
			<path class="st3" d="M53.5,26.9h-4.9c-1.1,0-2-0.9-2-2v-4.4c0-0.3,0.2-0.5,0.5-0.5s0.5,0.2,0.5,0.5v4.4c0,0.5,0.4,1,1,1h4.9
				c0.5,0,1-0.4,1-1V14.6c0-0.3,0.2-0.5,0.5-0.5s0.5,0.2,0.5,0.5v10.3C55.5,26,54.6,26.9,53.5,26.9z"/>
		</g>
	</g>
	<g>
		<g>
			<path class="st5" d="M47.2,20.1"/>
		</g>
	</g>
</g>
</svg>
