<!-- Generator: Adobe Illustrator 21.0.0, SVG Export Plug-In  -->
<svg version="1.1"
	 xmlns="http://www.w3.org/2000/svg" xmlns:xlink="http://www.w3.org/1999/xlink" xmlns:a="http://ns.adobe.com/AdobeSVGViewerExtensions/3.0/"
	 x="0px" y="0px" width="376px" height="65px" viewBox="0 0 376 65" style="enable-background:new 0 0 376 65;"
	 xml:space="preserve">
<style type="text/css">
	.st0{clip-path:url(#SVGID_2_);}
	.st1{clip-path:url(#SVGID_4_);fill:#FFFFFF;}
	.st2{clip-path:url(#SVGID_6_);}
	.st3{clip-path:url(#SVGID_8_);fill:#FFFFFF;}
	.st4{clip-path:url(#SVGID_10_);}
	.st5{clip-path:url(#SVGID_12_);fill:#FFFFFF;}
	.st6{fill:#FFFFFF;}
	.st7{clip-path:url(#SVGID_14_);}
	.st8{clip-path:url(#SVGID_16_);fill:#FFFFFF;}
	.st9{clip-path:url(#SVGID_18_);}
	.st10{clip-path:url(#SVGID_20_);fill:#FFFFFF;}
	.st11{clip-path:url(#SVGID_22_);}
	.st12{clip-path:url(#SVGID_24_);fill:#FFFFFF;}
</style>
<defs>
</defs>
<rect width="376" height="65"/>
<g>
	<defs>
		<path id="SVGID_1_" d="M346.3,7.9h19.3c0.3,0,0.5,0.2,0.5,0.5v6.4c0,0.3-0.2,0.5-0.5,0.5h-19.3c-0.3,0-0.5-0.2-0.5-0.5V8.4
			C345.8,8.1,346,7.9,346.3,7.9z M346.3,7.4c-0.6,0-1,0.5-1,1v6.4c0,0.6,0.4,1,1,1h19.3c0.6,0,1-0.5,1-1V8.4c0-0.6-0.4-1-1-1H346.3z
			 M367.6,9.9h0.7c0.4,0,0.7,0.3,0.7,0.7v2c0,0.4-0.3,0.7-0.7,0.7h-0.7V9.9z M346.3,6.9h19.3c0.8,0,1.5,0.7,1.5,1.5v6.4
			c0,0.8-0.7,1.5-1.5,1.5h-19.3c-0.8,0-1.5-0.7-1.5-1.5V8.4C344.8,7.6,345.5,6.9,346.3,6.9z"/>
	</defs>
	<clipPath id="SVGID_2_">
		<use xlink:href="#SVGID_1_"  style="overflow:visible;"/>
	</clipPath>
	<g class="st0">
		<defs>
			<rect id="SVGID_3_" x="3.5" y="1.5" width="371" height="19.8"/>
		</defs>
		<clipPath id="SVGID_4_">
			<use xlink:href="#SVGID_3_"  style="overflow:visible;"/>
		</clipPath>
		<rect x="339.9" y="2" class="st1" width="34.1" height="19.3"/>
	</g>
</g>
<g>
	<defs>
		<path id="SVGID_5_" d="M102.9,9.6l-1.1,1c-1.3-1.4-3.3-2.2-5.4-2.2c-2.1,0-4,0.9-5.3,2.2l-1.1-1C91.7,8,94,6.9,96.5,6.9
			C99,6.9,101.3,8,102.9,9.6z M100.8,11.7L100.8,11.7l-1.1,1c-0.8-0.9-1.9-1.4-3.2-1.4c-1.3,0-2.4,0.5-3.2,1.4l-1.1-1
			c1.1-1.1,2.6-1.8,4.3-1.8C98.2,9.9,99.7,10.6,100.8,11.7z M98.6,13.8l-2.1,2l-2.1-2.1c0.5-0.6,1.3-0.9,2.1-0.9
			C97.3,12.8,98.1,13.2,98.6,13.8z"/>
	</defs>
	<clipPath id="SVGID_6_">
		<use xlink:href="#SVGID_5_"  style="overflow:visible;"/>
	</clipPath>
	<g class="st2">
		<defs>
			<rect id="SVGID_7_" x="3.5" y="1.5" width="371" height="19.8"/>
		</defs>
		<clipPath id="SVGID_8_">
			<use xlink:href="#SVGID_7_"  style="overflow:visible;"/>
		</clipPath>
		<rect x="85.1" y="2" class="st3" width="22.8" height="18.8"/>
	</g>
</g>
<g>
	<defs>
		<path id="SVGID_9_" d="M40.4,14.4c-1.5,0-2.7-1.2-2.7-2.7s1.2-2.7,2.7-2.7c1.5,0,2.7,1.2,2.7,2.7S41.9,14.4,40.4,14.4z M33.4,14.4
			c-1.5,0-2.7-1.2-2.7-2.7s1.2-2.7,2.7-2.7c1.5,0,2.7,1.2,2.7,2.7S34.9,14.4,33.4,14.4z M26.5,14.4c-1.5,0-2.7-1.2-2.7-2.7
			s1.2-2.7,2.7-2.7c1.5,0,2.7,1.2,2.7,2.7S28,14.4,26.5,14.4z M19.6,14.4c-1.5,0-2.7-1.2-2.7-2.7s1.2-2.7,2.7-2.7s2.7,1.2,2.7,2.7
			S21.1,14.4,19.6,14.4z M12.7,14.4c-1.5,0-2.7-1.2-2.7-2.7s1.2-2.7,2.7-2.7s2.7,1.2,2.7,2.7S14.2,14.4,12.7,14.4z"/>
	</defs>
	<clipPath id="SVGID_10_">
		<use xlink:href="#SVGID_9_"  style="overflow:visible;"/>
	</clipPath>
	<g class="st4">
		<defs>
			<rect id="SVGID_11_" x="3.5" y="1.5" width="371" height="19.8"/>
		</defs>
		<clipPath id="SVGID_12_">
			<use xlink:href="#SVGID_11_"  style="overflow:visible;"/>
		</clipPath>
		<rect x="5" y="4" class="st5" width="43" height="15.3"/>
	</g>
</g>
<g>
	<path class="st6" d="M52.2,14.5c0,0.4,0,0.7,0,1c0,0.3,0,0.5,0.1,0.7h-0.8c0-0.2,0-0.5,0.1-0.7c0-0.3,0-0.6,0-1v-1.4h-2.4v0.8h-0.6
		c0-0.2,0-0.4,0-0.6c0-0.2,0-0.4,0-0.6v-2.2c0-0.2,0-0.3,0-0.5c0-0.2,0-0.3,0-0.4c0.2,0,0.6,0.1,1.1,0.1c0.5,0,1.2,0,2,0V9.1
		c0-0.2,0-0.4,0-0.7s0-0.4-0.1-0.6c0.1,0,0.3,0.1,0.4,0.1c0.1,0,0.2,0,0.3,0c0.1,0,0.2,0,0.2,0.1c0,0,0,0.1-0.1,0.2
		c0,0-0.1,0.1-0.1,0.1s0,0.1,0,0.2v1.2c0.8,0,1.4,0,1.9,0c0.5,0,0.8,0,1.1-0.1c0,0.1,0,0.1,0,0.2c0,0.1,0,0.2,0,0.3
		c0,0.1,0,0.2,0,0.3s0,0.2,0,0.3v1.8c0,0.2,0,0.4,0,0.6c0,0.2,0,0.5,0,0.7h-0.6v-0.7h-2.4V14.5z M51.6,10.2h-2.4v2.5h2.4V10.2z
		 M52.2,12.7h2.4v-2.5h-2.4V12.7z"/>
	<path class="st6" d="M58.1,16.1h-0.6c0-0.5,0.1-1,0.1-1.5v-5c0-0.2,0-0.4,0-0.5c0-0.2,0-0.4,0-0.6c0.1,0,0.2,0,0.3,0s0.3,0,0.6,0
		c0.2,0,0.6,0,1,0s0.9,0,1.5,0s1.1,0,1.5,0s0.7,0,0.9,0c0.2,0,0.4,0,0.5,0s0.2,0,0.3,0c0,0.2,0,0.4,0,0.6s0,0.3,0,0.5v4.9
		c0,0.3,0,0.5,0,0.8c0,0.2,0,0.5,0,0.7h-0.6v-0.5h-5.6V16.1z M63.6,9h-5.6v6h5.6V9z M61,11.5c0.2,0,0.4,0,0.6,0c0.2,0,0.3,0,0.5,0
		s0.3,0,0.4,0s0.3,0,0.4,0V12c-0.1,0-0.3,0-0.4,0c-0.1,0-0.3,0-0.4,0c-0.1,0-0.3,0-0.5,0c-0.2,0-0.4,0-0.6,0v1.7c0.5,0,0.9,0,1.3,0
		c0.4,0,0.7,0,1-0.1v0.5c-0.3,0-0.6,0-1-0.1c-0.4,0-0.9,0-1.4,0c-0.5,0-1,0-1.4,0c-0.4,0-0.8,0-1,0.1v-0.5c0.2,0,0.5,0,0.9,0
		c0.3,0,0.7,0,1.2,0v-1.7c-0.2,0-0.4,0-0.5,0c-0.2,0-0.3,0-0.4,0c-0.1,0-0.3,0-0.4,0c-0.1,0-0.2,0-0.4,0v-0.5c0.1,0,0.2,0,0.4,0
		s0.2,0,0.4,0c0.1,0,0.3,0,0.4,0c0.2,0,0.3,0,0.5,0v-1.4c-0.4,0-0.7,0-1,0s-0.5,0-0.8,0.1V9.7c0.1,0,0.3,0,0.4,0s0.3,0,0.5,0
		s0.4,0,0.6,0s0.4,0,0.7,0c0.3,0,0.5,0,0.7,0c0.2,0,0.4,0,0.6,0s0.3,0,0.5,0c0.1,0,0.3,0,0.4,0v0.5c-0.3,0-0.5,0-0.8-0.1
		c-0.3,0-0.7,0-1.1,0V11.5z M62.5,13.5c-0.1-0.2-0.3-0.4-0.4-0.5s-0.3-0.3-0.5-0.4l0.3-0.3c0.2,0.1,0.4,0.3,0.5,0.4
		c0.2,0.2,0.3,0.3,0.5,0.5L62.5,13.5z"/>
	<path class="st6" d="M67.5,9.1c-0.1,0-0.2,0-0.3,0.1c-0.1,0-0.2,0-0.3,0c-0.1,0-0.2,0-0.3,0c-0.1,0-0.2,0-0.2,0
		c0-0.1-0.1-0.2-0.1-0.3c0-0.1-0.1-0.1-0.2-0.2c0.6,0,1.1-0.1,1.6-0.1s0.9-0.2,1.2-0.4c0,0.1,0.1,0.2,0.1,0.2c0,0.1,0.1,0.1,0.2,0.2
		c0,0,0.1,0.1,0.1,0.1s0,0.1,0,0.1c0,0,0,0-0.1,0.1s-0.1,0-0.2,0c0,0-0.1,0-0.1,0c-0.1,0-0.2,0-0.3,0s-0.2,0-0.3,0
		C68.2,9,68.1,9,68,9v1.6c0.3,0,0.5,0,0.7,0c0.2,0,0.4,0,0.5-0.1v0.6c-0.2,0-0.3,0-0.5,0c-0.2,0-0.4,0-0.7,0v0.5
		c0.2,0.2,0.5,0.4,0.7,0.7c0.2,0.2,0.4,0.4,0.6,0.6l-0.5,0.4c-0.1-0.2-0.2-0.4-0.4-0.5c-0.1-0.2-0.3-0.3-0.5-0.6v2.4
		c0,0.2,0,0.5,0,0.7c0,0.3,0,0.5,0.1,0.8h-0.7c0-0.3,0-0.5,0.1-0.8c0-0.3,0-0.5,0-0.7v-2.5c-0.2,0.4-0.4,0.8-0.5,1.2
		s-0.4,0.8-0.7,1.1c-0.1-0.1-0.1-0.2-0.2-0.2c-0.1-0.1-0.2-0.1-0.3-0.2c0.4-0.4,0.7-0.8,1-1.3c0.3-0.5,0.6-1.1,0.8-1.7
		c-0.4,0-0.7,0-0.9,0c-0.2,0-0.5,0-0.7,0.1v-0.6c0.2,0,0.4,0,0.7,0.1c0.2,0,0.6,0,0.9,0V9.1z M72.1,14.4c0.3-0.2,0.5-0.5,0.7-0.7
		c0.2-0.3,0.4-0.6,0.5-0.9h-1.8c-0.3,0.3-0.5,0.6-0.9,0.8c-0.3,0.3-0.7,0.5-1.1,0.7c-0.1-0.2-0.2-0.4-0.4-0.5
		c0.3-0.1,0.7-0.3,0.9-0.4c0.3-0.2,0.6-0.4,0.8-0.6c0.2-0.2,0.4-0.4,0.5-0.6c0.1-0.2,0.3-0.4,0.4-0.7c0.2,0.1,0.4,0.2,0.6,0.2
		c0.1,0,0.1,0,0.1,0.1c0,0,0,0.1-0.1,0.1c-0.1,0-0.1,0.1-0.2,0.1s-0.2,0.2-0.3,0.3h0.8c0.3,0,0.6,0,0.9,0s0.4,0,0.5,0
		c-0.1,0.2-0.1,0.5-0.2,0.7c-0.1,0.2-0.2,0.4-0.3,0.6c-0.1,0.2-0.3,0.4-0.5,0.6c-0.2,0.2-0.4,0.4-0.6,0.6c-0.2,0.2-0.4,0.3-0.6,0.5
		s-0.5,0.2-0.7,0.4s-0.5,0.2-0.9,0.3S69.4,16,69,16.1c0-0.1-0.1-0.2-0.1-0.3c-0.1-0.1-0.1-0.2-0.2-0.3c0.6,0,1.2-0.1,1.7-0.3
		c0.5-0.1,0.9-0.3,1.3-0.5c-0.1-0.2-0.2-0.3-0.4-0.5S71,14,70.8,13.9l0.4-0.4c0.2,0.2,0.3,0.3,0.5,0.5
		C71.8,14.1,71.9,14.3,72.1,14.4z M71.5,10.9c0.2-0.2,0.4-0.4,0.6-0.6c0.2-0.2,0.3-0.5,0.5-0.7h-2.2c-0.1,0.1-0.1,0.2-0.2,0.3
		c-0.1,0.1-0.1,0.2-0.2,0.3c-0.1,0.1-0.2,0.2-0.2,0.3c-0.1,0.1-0.2,0.2-0.3,0.3c-0.1-0.1-0.1-0.1-0.2-0.2c-0.1-0.1-0.2-0.1-0.2-0.2
		c0.2-0.1,0.4-0.3,0.6-0.5c0.2-0.2,0.3-0.4,0.5-0.6s0.2-0.4,0.3-0.6s0.2-0.4,0.2-0.6C70.8,8,71,8.1,71.2,8.1c0.1,0,0.1,0,0.1,0.1
		c0,0,0,0.1-0.1,0.1c0,0-0.1,0.1-0.2,0.2c-0.1,0.1-0.2,0.3-0.4,0.6h1.1c0.2,0,0.4,0,0.6,0c0.2,0,0.3,0,0.5,0s0.3,0,0.4,0
		c0.1,0,0.2,0,0.2,0c-0.1,0.3-0.2,0.5-0.3,0.7c-0.1,0.2-0.2,0.4-0.3,0.5s-0.3,0.3-0.4,0.5c-0.2,0.2-0.3,0.3-0.5,0.5
		c-0.3,0.3-0.6,0.5-1,0.7c-0.4,0.2-0.8,0.5-1.3,0.7c-0.1-0.2-0.2-0.4-0.5-0.5c0.5-0.2,0.9-0.3,1.2-0.5c0.3-0.2,0.6-0.3,0.9-0.5
		c-0.1-0.2-0.3-0.3-0.4-0.4c-0.1-0.1-0.3-0.2-0.5-0.3l0.4-0.4c0.2,0.2,0.3,0.3,0.5,0.4S71.4,10.7,71.5,10.9z"/>
	<path class="st6" d="M76.4,11.4c-0.3,0-0.6,0-0.8,0s-0.5,0-0.6,0.1v-0.6c0.2,0,0.5,0,0.9,0.1c0.3,0,0.7,0,1.1,0c0.4,0,0.8,0,1.2,0
		c0.3,0,0.6,0,0.9-0.1v0.6c-0.2,0-0.5,0-0.8-0.1c-0.3,0-0.7,0-1.1,0c-0.1,0.3-0.2,0.5-0.3,0.7c-0.1,0.2-0.2,0.5-0.3,0.7
		c-0.1,0.2-0.2,0.4-0.3,0.7c-0.1,0.2-0.2,0.5-0.3,0.7l2.4-0.3c-0.2-0.5-0.5-1-0.9-1.5l0.5-0.3c0.3,0.4,0.5,0.8,0.7,1.3
		c0.2,0.4,0.4,0.9,0.6,1.3l-0.5,0.3c0-0.1-0.1-0.2-0.1-0.3c0-0.1-0.1-0.2-0.1-0.3l-1.5,0.2c-0.4,0.1-0.8,0.1-1,0.2
		c-0.3,0.1-0.5,0.1-0.7,0.2c0-0.3-0.1-0.5-0.3-0.6c0.1,0,0.2,0,0.2-0.1c0.1,0,0.1-0.1,0.2-0.2c0.1-0.1,0.1-0.2,0.2-0.4
		c0.1-0.2,0.2-0.4,0.3-0.6c0.1-0.2,0.1-0.4,0.2-0.5s0.1-0.3,0.2-0.4c0-0.1,0.1-0.2,0.1-0.4C76.4,11.6,76.4,11.5,76.4,11.4z
		 M78.7,9.5c-0.2,0-0.4,0-0.7-0.1c-0.3,0-0.6,0-0.9,0c-0.3,0-0.7,0-1,0c-0.3,0-0.5,0-0.7,0.1V8.9c0.2,0,0.4,0,0.7,0.1
		c0.3,0,0.6,0,0.9,0c0.4,0,0.7,0,1,0c0.3,0,0.5,0,0.7-0.1V9.5z M80.9,10.3c0,0.8-0.1,1.5-0.1,2.1c-0.1,0.6-0.2,1.1-0.3,1.6
		s-0.3,0.9-0.6,1.2c-0.2,0.4-0.6,0.7-0.9,1.1c-0.1-0.2-0.3-0.3-0.6-0.4c0.4-0.3,0.8-0.6,1-0.9c0.3-0.3,0.5-0.7,0.6-1.1
		s0.3-0.9,0.3-1.5c0.1-0.6,0.1-1.2,0.1-2c-0.1,0-0.3,0-0.4,0c-0.2,0-0.3,0-0.4,0c-0.1,0-0.3,0-0.4,0c-0.1,0-0.2,0-0.3,0V9.8
		c0.1,0,0.3,0,0.6,0.1c0.2,0,0.5,0,0.9,0c0-0.3,0-0.6,0-0.8s0-0.4,0-0.5c0-0.1,0-0.3,0-0.3s0-0.2,0-0.2C80.5,8,80.6,8,80.7,8
		c0.1,0,0.2,0,0.4,0c0.1,0,0.1,0,0.1,0.1s0,0.1-0.1,0.2c0,0-0.1,0.1-0.1,0.1s0,0.1-0.1,0.2c0,0.1,0,0.3,0,0.5c0,0.2,0,0.5,0,0.8
		c0.4,0,0.8,0,1.1,0c0.3,0,0.6,0,0.7-0.1l-0.1,4.9c0,0.2,0,0.4-0.1,0.6c0,0.2-0.1,0.3-0.2,0.4c-0.1,0.1-0.3,0.2-0.5,0.2
		c-0.2,0.1-0.5,0.1-0.9,0.1c0-0.2,0-0.3-0.1-0.4c0-0.1-0.1-0.2-0.2-0.4c0.3,0,0.6,0,0.8,0s0.3,0,0.4-0.1S82,15.1,82,15
		c0-0.1,0.1-0.2,0.1-0.4l0.1-4.3H80.9z"/>
</g>
<g>
	<path class="st6" d="M173.6,14.9l-0.5-0.3l1.7-2.6c-0.2,0.1-0.5,0.1-0.7,0.1c-0.5,0-0.9-0.2-1.3-0.6c-0.4-0.4-0.5-0.8-0.5-1.4
		s0.2-1,0.6-1.4c0.4-0.4,0.9-0.6,1.4-0.6s1,0.2,1.4,0.6c0.4,0.4,0.6,0.9,0.6,1.4c0,0.3-0.1,0.6-0.2,0.9c-0.1,0.3-0.3,0.6-0.5,1
		L173.6,14.9z M172.9,10.1c0,0.4,0.1,0.7,0.4,1c0.3,0.3,0.6,0.4,1,0.4c0.4,0,0.7-0.1,1-0.4c0.3-0.3,0.4-0.6,0.4-1
		c0-0.4-0.1-0.7-0.4-1c-0.3-0.3-0.6-0.4-1-0.4c-0.4,0-0.7,0.1-1,0.4C173,9.4,172.9,9.7,172.9,10.1z"/>
	<path class="st6" d="M177.7,10.4c0-0.1,0.1-0.3,0.2-0.4c0.1-0.1,0.2-0.2,0.4-0.2s0.3,0.1,0.4,0.2c0.1,0.1,0.2,0.2,0.2,0.4
		c0,0.2-0.1,0.3-0.2,0.4s-0.2,0.2-0.4,0.2c-0.2,0-0.3-0.1-0.4-0.2S177.7,10.5,177.7,10.4z M177.7,14.3c0-0.2,0.1-0.3,0.2-0.4
		s0.2-0.2,0.4-0.2s0.3,0.1,0.4,0.2c0.1,0.1,0.2,0.2,0.2,0.4c0,0.2-0.1,0.3-0.2,0.4c-0.1,0.1-0.2,0.2-0.4,0.2s-0.3-0.1-0.4-0.2
		C177.7,14.6,177.7,14.5,177.7,14.3z"/>
	<path class="st6" d="M181.8,14.9c-0.7,0-1.2-0.3-1.6-0.9s-0.6-1.4-0.6-2.5c0-1.1,0.2-2,0.6-2.5s0.9-0.9,1.6-0.9
		c0.7,0,1.2,0.3,1.6,0.9c0.4,0.6,0.6,1.4,0.6,2.5c0,1.1-0.2,1.9-0.6,2.5S182.5,14.9,181.8,14.9z M181.8,8.7c-0.5,0-0.9,0.2-1.2,0.7
		c-0.3,0.5-0.4,1.2-0.4,2.1c0,1.9,0.5,2.8,1.6,2.8c0.5,0,0.9-0.2,1.2-0.7s0.4-1.2,0.4-2.1c0-0.9-0.1-1.6-0.4-2.1
		C182.7,9,182.3,8.7,181.8,8.7z"/>
	<path class="st6" d="M186.8,14.9c-0.7,0-1.2-0.3-1.6-0.9s-0.6-1.4-0.6-2.5c0-1.1,0.2-2,0.6-2.5s0.9-0.9,1.6-0.9
		c0.7,0,1.2,0.3,1.6,0.9c0.4,0.6,0.6,1.4,0.6,2.5c0,1.1-0.2,1.9-0.6,2.5S187.4,14.9,186.8,14.9z M186.8,8.7c-0.5,0-0.9,0.2-1.2,0.7
		c-0.3,0.5-0.4,1.2-0.4,2.1c0,1.9,0.5,2.8,1.6,2.8c0.5,0,0.9-0.2,1.2-0.7s0.4-1.2,0.4-2.1c0-0.9-0.1-1.6-0.4-2.1
		C187.7,9,187.3,8.7,186.8,8.7z"/>
	<path class="st6" d="M197.2,8l3,6.7h-0.7l-1-2.2h-2.8l-1,2.2H194l3.1-6.7H197.2z M197.1,9.4l-1.1,2.4h2.2L197.1,9.4z"/>
	<path class="st6" d="M201,14.7l0.9-6.5h0.1l2.6,5.3l2.6-5.3h0.1l0.9,6.5h-0.6l-0.6-4.6l-2.3,4.6h-0.2l-2.3-4.7l-0.6,4.7H201z"/>
</g>
<g>
	<path class="st6" d="M321.5,8.3h1.3v6.5h-0.6V8.9h-1L321.5,8.3z"/>
	<path class="st6" d="M327.3,14.9c-0.7,0-1.2-0.3-1.6-0.9s-0.6-1.4-0.6-2.5c0-1.1,0.2-2,0.6-2.5s0.9-0.9,1.6-0.9
		c0.7,0,1.2,0.3,1.6,0.9c0.4,0.6,0.6,1.4,0.6,2.5c0,1.1-0.2,1.9-0.6,2.5S328,14.9,327.3,14.9z M327.3,8.7c-0.5,0-0.9,0.2-1.2,0.7
		c-0.3,0.5-0.4,1.2-0.4,2.1c0,1.9,0.5,2.8,1.6,2.8c0.5,0,0.9-0.2,1.2-0.7s0.4-1.2,0.4-2.1c0-0.9-0.1-1.6-0.4-2.1
		C328.2,9,327.8,8.7,327.3,8.7z"/>
	<path class="st6" d="M332.3,14.9c-0.7,0-1.2-0.3-1.6-0.9s-0.6-1.4-0.6-2.5c0-1.1,0.2-2,0.6-2.5s0.9-0.9,1.6-0.9
		c0.7,0,1.2,0.3,1.6,0.9c0.4,0.6,0.6,1.4,0.6,2.5c0,1.1-0.2,1.9-0.6,2.5S333,14.9,332.3,14.9z M332.3,8.7c-0.5,0-0.9,0.2-1.2,0.7
		c-0.3,0.5-0.4,1.2-0.4,2.1c0,1.9,0.5,2.8,1.6,2.8c0.5,0,0.9-0.2,1.2-0.7s0.4-1.2,0.4-2.1c0-0.9-0.1-1.6-0.4-2.1
		C333.2,9,332.8,8.7,332.3,8.7z"/>
	<path class="st6" d="M340.9,8l-4.7,7.2h-0.6l4.3-6.6c-0.3,0.1-0.7,0.1-1.1,0.2c-0.4,0-0.6,0-0.8,0l-0.2,0C338,9,338,9.3,338,9.6
		c0,0.4-0.1,0.8-0.4,1.1c-0.3,0.3-0.7,0.5-1.1,0.5c-0.4,0-0.8-0.1-1.1-0.4c-0.3-0.3-0.4-0.7-0.4-1.1s0.2-0.8,0.5-1.1
		c0.3-0.3,0.7-0.4,1-0.4c0.2,0,0.4,0,0.7,0.1c0.3,0.1,0.7,0.1,1.1,0.1c0.7,0,1.4-0.1,2.1-0.3H340.9z M337.5,9.6
		c0-0.3-0.1-0.5-0.3-0.7c-0.2-0.2-0.4-0.3-0.7-0.3c-0.3,0-0.5,0.1-0.7,0.3s-0.3,0.4-0.3,0.7c0,0.3,0.1,0.5,0.3,0.7
		c0.2,0.2,0.4,0.3,0.7,0.3c0.3,0,0.5-0.1,0.7-0.3C337.4,10.1,337.5,9.9,337.5,9.6z M338.5,13.4c0-0.4,0.1-0.8,0.4-1.1
		c0.3-0.3,0.7-0.5,1.1-0.5s0.8,0.1,1.1,0.4c0.3,0.3,0.4,0.7,0.4,1.1s-0.1,0.8-0.4,1.1c-0.3,0.3-0.7,0.4-1.1,0.4s-0.8-0.1-1.1-0.4
		C338.7,14.2,338.5,13.8,338.5,13.4z M341,13.4c0-0.3-0.1-0.5-0.3-0.7s-0.4-0.3-0.7-0.3s-0.5,0.1-0.7,0.3s-0.3,0.4-0.3,0.7
		c0,0.3,0.1,0.5,0.3,0.7c0.2,0.2,0.4,0.3,0.7,0.3s0.5-0.1,0.7-0.3C340.9,13.9,341,13.7,341,13.4z"/>
</g>
<g>
	<path class="st6" d="M95.9,47c-0.5,1.8-1.1,3.4-2,4.8l-1.1-0.7c0.8-1.3,1.5-2.7,1.9-4.3L95.9,47z M95.2,41.4c-0.3-0.7-0.6-1.4-1-2
		l1.2-0.4c0.3,0.7,0.7,1.5,1,2.4h2c0.4-0.8,0.7-1.6,0.9-2.5l1.2,0.4c-0.3,0.8-0.6,1.5-0.9,2.1h2v1.2h-3.5v2h3.2v1.2h-3.2v5.1
		c0,1-0.5,1.5-1.6,1.5h-1l-0.3-1.2c0.3,0.1,0.6,0.1,0.8,0.1c0.5,0,0.7-0.2,0.7-0.6v-4.8h-3.3v-1.2h3.3v-2h-3.6v-1.2H95.2z
		 M96.8,37.3c-0.3-0.6-0.5-1.1-0.8-1.6l1.3-0.2c0.3,0.5,0.5,1.1,0.8,1.8h3.4v1.2h-8.1v-1.2H96.8z M101.1,49.9l-1.1,0.4
		c-0.3-1.1-0.8-2.2-1.3-3.3l1.1-0.3C100.4,47.8,100.9,48.9,101.1,49.9z M109,37.1c-1.6,0.6-3.3,1-5.3,1.1v3.3h5.8v1.2h-1.9v9.6h-1.3
		v-9.6h-2.7v2.1c-0.1,3.1-0.8,5.6-2.1,7.4l-0.9-1c1.1-1.5,1.6-3.7,1.7-6.4v-7.7c2.2,0,4.1-0.4,5.9-1.2L109,37.1z"/>
	<path class="st6" d="M113.9,39.3v-3.5h1.2v3.5h2.2v1.2h-2.2v1.3c0.8,0.9,1.7,1.9,2.5,3l-0.7,1.1c-0.7-1.1-1.3-2.1-1.8-2.7v9.1h-1.2
		v-9.2c-0.6,1.9-1.4,3.6-2.4,5.2l-0.6-1.4c1.4-1.8,2.3-3.9,2.9-6.3h-2.6v-1.2H113.9z M126.5,52.2h-1.3v-0.9h-5.7v0.9h-1.2V38.5h2.7
		c0.3-0.9,0.5-1.9,0.6-2.8l1.3,0.2c-0.1,1-0.4,1.8-0.6,2.7h4.3V52.2z M125.2,44.2v-4.5h-5.7v4.5H125.2z M125.2,50v-4.6h-5.7V50
		H125.2z"/>
	<path class="st6" d="M132.2,39.3v-3.5h1.3v3.5h2.4v1.2h-2.4v1c1,0.9,1.9,1.9,2.9,3l-0.8,1.1c-0.8-1.2-1.6-2.2-2.2-3v9.4h-1.3v-9.4
		c-0.7,1.9-1.5,3.7-2.7,5.2l-0.6-1.4c1.5-1.8,2.5-3.8,3.2-6h-2.7v-1.2H132.2z M140,39.3v-3.5h1.3v3.5h3.8v1.2h-3.5
		c0.9,2.9,2.3,5.4,4,7.3l-0.8,1.2c-1.4-1.8-2.5-4.2-3.5-7.1v10.3H140V42c-1,3-2.2,5.4-3.8,7.2l-0.7-1.2c1.8-1.8,3.2-4.3,4.2-7.3h-3
		v-1.2H140z"/>
	<path class="st6" d="M151.5,36.9v-1.2h1.3v1.2h4.8v-1.2h1.3v1.2h4.1v1.2H159v0.9h-1.3v-0.9h-4.8v1.2h-1.3v-1.2h-4.1v-1.2H151.5z
		 M153.3,40.4v1c-0.4,0.9-1,1.9-1.6,2.9c1,1,1.5,1.9,1.6,2.7c0,0.7-0.2,1.2-0.5,1.5c-0.5,0.4-1.3,0.6-2.5,0.6l-0.4-1.2
		c0.3,0,0.5,0.1,0.7,0.1c0.5,0,0.9-0.1,1.1-0.2c0.2-0.1,0.3-0.3,0.3-0.6c0-0.8-0.5-1.6-1.6-2.5c0.7-1.1,1.2-2.1,1.6-2.9h-2.6v10.7
		h-1.2V40.4H153.3z M163.2,45.6h-7.7v1.5c-0.1,2.2-0.7,3.9-1.9,5.2l-1-0.9c1.1-1,1.7-2.5,1.7-4.3v-2.7h2.2c-0.3-0.6-0.6-1.1-1-1.6
		l1.1-0.4c0.4,0.6,0.7,1.3,1,2h1.9c0.4-0.7,0.8-1.4,1.1-2.1l1.2,0.4c-0.3,0.6-0.6,1.2-0.9,1.7h2.4V45.6z M158,40.7
		c-0.1-0.4-0.3-0.8-0.4-1.2l1.3-0.2c0.1,0.4,0.3,0.9,0.5,1.4h3.6v1.2h-8.8v-1.2H158z"/>
	<path class="st6" d="M173.9,35.7v1.9h7v1.3h-7v1.9h5v5.2h-3.1v3.8c0,0.6,0.3,0.8,0.9,0.8h2.2c0.3,0,0.6-0.1,0.8-0.2
		c0.3-0.2,0.4-0.9,0.5-2l1.2,0.4c-0.2,1.5-0.4,2.4-0.8,2.7c-0.3,0.3-0.8,0.4-1.4,0.4h-2.9c-1.2,0-1.8-0.6-1.8-1.9v-4h-2.9
		c-0.2,1.7-0.6,2.9-1.3,3.7c-0.9,1-2.3,1.8-4.3,2.5l-0.8-1.1c1.8-0.6,3.1-1.3,3.9-2.1c0.6-0.7,1.1-1.7,1.2-3.1h-2.7v-5.2h5v-1.9h-7
		v-1.3h7v-1.9H173.9z M177.6,42h-8.7v2.8h8.7V42z"/>
	<path class="st6" d="M186.5,48.8c-0.7,1.3-1.5,2.4-2.4,3.4l-1.1-0.8c0.9-0.9,1.7-1.9,2.4-3.2L186.5,48.8z M185.8,35.9v2h3.2v-1.9
		h1.3v1.9h1.2V39h-1.2v7.5h1.2v1.2h-8.2v-1.2h1.3V39h-1.2v-1.2h1.2v-2H185.8z M185.8,39v1.8h3.2V39H185.8z M189.1,43.7v-1.7h-3.2
		v1.7H189.1z M189.1,46.6v-1.8h-3.2v1.8H189.1z M190.4,50.6l-1,0.7c-0.4-0.7-0.9-1.5-1.5-2.4l1-0.6C189.5,49.2,190,49.9,190.4,50.6z
		 M199,37.1c-1.6,0.7-3.4,1.1-5.3,1.2v3.3h5.6v1.2h-1.9v9.4h-1.3v-9.4h-2.4v1.5c-0.1,3.3-0.8,5.9-2.2,7.9l-0.9-1
		c1.2-1.7,1.9-4,2-6.9v-7c2.2-0.1,4.1-0.5,5.9-1.3L199,37.1z"/>
	<path class="st6" d="M216.6,52h-1.3v-1h-12.2v1h-1.3V36.9h14.8V52z M215.3,49.8V38.1h-3.5V45c0,0.4,0.2,0.6,0.7,0.6h2.2v1.2h-2.6
		c-1.1,0-1.6-0.5-1.6-1.5v-7.1h-2.7V42c0,2.5-1.1,4.3-3.1,5.5l-1-0.9c1.8-1,2.8-2.5,2.8-4.6v-3.9h-3.4v11.7H215.3z"/>
	<path class="st6" d="M226.6,41.1v-1.2h-7v-1.1h7v-1.3c-1.8,0.1-3.7,0.2-5.7,0.3l-0.2-1.1c4.7-0.1,8.8-0.4,12.4-0.8l0.4,1.1
		c-1.7,0.2-3.6,0.3-5.6,0.5v1.4h7.1v1.1h-7.1v1.2h5.6v6h-5.6v1.2h6.4v1h-6.4v1.3h7.3v1.1h-15.9v-1.1h7.3v-1.3h-6.4v-1h6.4V47H221v-6
		H226.6z M226.6,43.5v-1.4h-4.3v1.4H226.6z M226.6,44.5h-4.3V46h4.3V44.5z M227.9,43.5h4.3v-1.4h-4.3V43.5z M232.2,44.5h-4.3V46h4.3
		V44.5z"/>
	<path class="st6" d="M244.6,36.8c0.1-0.4,0.2-0.8,0.2-1.3l1.3,0.2c-0.1,0.4-0.1,0.7-0.2,1.1h6.4V38h-6.7c-0.1,0.5-0.3,1-0.5,1.4
		h6.2v1.1h-6.7c-0.2,0.5-0.5,0.9-0.7,1.3h9v1.2h-4c1,1.3,2.5,2.3,4.5,3.1l-0.6,1.2c-1.6-0.7-3-1.6-3.9-2.6v1h-3v1.4
		c0,0.1,0,0.2,0,0.2h5.4v1.2h-5.7c-0.3,0.9-0.7,1.6-1.4,2.2c-1,0.8-2.6,1.5-4.9,1.9l-0.7-1.1c2.2-0.4,3.8-1,4.6-1.6
		c0.5-0.4,0.8-0.9,1-1.4h-4.8v-1.2h5.1c0-0.1,0-0.2,0-0.2v-1.4h-2.9v-1c-1.1,1.1-2.4,2-3.9,2.7l-0.7-1.1c1.8-0.8,3.3-1.9,4.5-3.2
		h-4.1v-1.2h5c0.3-0.4,0.5-0.9,0.8-1.3h-3.9v-1.1h4.4c0.2-0.4,0.3-0.9,0.5-1.4h-5.7v-1.1H244.6z M248.9,44.4c-0.5-0.5-0.9-1-1.2-1.5
		h-4.5c-0.4,0.6-0.9,1.1-1.4,1.5H248.9z M252.3,51.4l-0.7,1c-1.9-1.1-3.9-1.9-5.9-2.5l0.6-0.9C248.5,49.6,250.5,50.4,252.3,51.4z"/>
	<path class="st6" d="M264.1,51.9c-1.2,0-2.2-0.1-3-0.3c-0.8-0.2-1.4-0.7-2-1.3c-0.3-0.3-0.5-0.5-0.7-0.5c-0.4,0-1.2,0.8-2.2,2.5
		l-1-0.9c1-1.5,1.8-2.5,2.6-2.8v-5.4h-2.6V42h3.8v6.8c0.1,0.1,0.3,0.2,0.5,0.4c0.5,0.5,1,0.9,1.5,1.1c0.6,0.2,1.4,0.4,2.6,0.4
		c1,0,2.2,0,3.7,0c0.8,0,1.6,0,2.4,0c0.8,0,1.4,0,1.9-0.1l-0.3,1.3h-3.8C266.4,52,265.3,51.9,264.1,51.9z M259.5,38.9l-0.9,0.9
		c-0.8-0.9-1.8-1.8-3.2-2.9l0.9-0.8C257.6,37.1,258.7,38,259.5,38.9z M264,36.4c-0.7,2.2-1.5,4.3-2.5,6.2c1,2.2,1.8,4.3,2.4,6.3
		l-1.2,0.5c-0.7-2.2-1.6-4.5-2.6-6.8c1-2.1,1.9-4.3,2.6-6.6L264,36.4z M267.6,36.4c-0.7,2.2-1.6,4.3-2.6,6.2c1,2.2,1.9,4.2,2.6,6.1
		l-1.2,0.5c-0.7-2.2-1.6-4.4-2.7-6.7c1-2.1,2-4.3,2.7-6.6L267.6,36.4z M271,36.4c-0.7,2.2-1.6,4.3-2.6,6.2c1.1,2.1,2.1,4.2,2.8,6
		l-1.2,0.5c-0.8-2.1-1.8-4.3-3-6.6c1.1-2.1,2-4.3,2.8-6.6L271,36.4z"/>
	<path class="st6" d="M277,43l-0.9,0.9c-0.7-0.9-1.7-1.8-3-2.7l0.9-0.9C275.2,41.2,276.2,42.1,277,43z M277.5,38.8l-0.9,0.9
		c-0.8-0.9-1.9-1.8-3.2-2.8l0.9-0.9C275.5,36.9,276.6,37.8,277.5,38.8z M277.4,45.7c-0.9,2.2-1.8,4.3-2.8,6.3l-1.2-0.5
		c1.1-2,2.1-4.1,2.9-6.2L277.4,45.7z M282.6,50c-1.2,0.9-2.7,1.7-4.5,2.3l-0.8-1c1.7-0.6,3.2-1.3,4.4-2.1L282.6,50z M289.1,40.4
		h-1.3v-2.1h-8.5v2.1H278v-3.3h4.8c-0.1-0.4-0.3-0.8-0.5-1.2l1.3-0.2c0.2,0.4,0.3,0.9,0.5,1.4h5V40.4z M287.8,39.7v1.1h-3.6v1.3h4.2
		v6.5h-9.6v-6.5h4.2v-1.3h-3.6v-1.1H287.8z M283,44.9v-1.6H280v1.6H283z M283,45.9H280v1.6h2.9V45.9z M284.2,44.9h2.9v-1.6h-2.9
		V44.9z M287.1,45.9h-2.9v1.6h2.9V45.9z M289.6,51.2l-0.7,1.1c-1.3-0.9-2.7-1.7-4.1-2.2l0.6-1C286.9,49.7,288.3,50.4,289.6,51.2z"/>
</g>
<path class="st6" d="M28.9,37.8h-6.8v-1.9c0-0.7-0.5-1-1.1-0.6l-3.6,2.3c-0.6,0.4-0.6,1,0,1.4l3.6,2.3c0.6,0.4,1.1,0.1,1.1-0.6v-1.6
	h6.4c3.6,0,5.5,1.6,5.5,5.2c0,2.7-1.1,5.2-5.5,5.2h-9c0,0,0,0,0,0c0,0,0,0,0,0c-0.4,0-0.8,0.4-0.8,0.8c0,0.4,0.4,0.8,0.8,0.8
	c0,0,0,0,0,0c0,0,0,0,0,0h9.3c3.6,0,6.4-2.2,6.4-5.8v-1.9C35.4,39.7,32.5,37.8,28.9,37.8L28.9,37.8L28.9,37.8z"/>
</svg>
