<!-- Generator: Adobe Illustrator 21.0.0, SVG Export Plug-In  -->
<svg version="1.1"
	 xmlns="http://www.w3.org/2000/svg" xmlns:xlink="http://www.w3.org/1999/xlink" xmlns:a="http://ns.adobe.com/AdobeSVGViewerExtensions/3.0/"
	 x="0px" y="0px" width="335.7px" height="35.9px" viewBox="0 0 335.7 35.9" style="enable-background:new 0 0 335.7 35.9;"
	 xml:space="preserve">
<style type="text/css">
	.st0{fill:#FFFFFF;stroke:#DBDBDB;stroke-miterlimit:10;}
	.st1{fill:#4D4D4D;}
	.st2{fill:#B3B3B3;}
	.st3{fill:#F4F4F4;}
</style>
<defs>
</defs>
<path class="st0" d="M55.4,32.7h-40c-8.2,0-15-6.7-15-15v0c0-8.2,6.7-15,15-15l40,0c8.2,0,15,6.7,15,15v0
	C70.4,26,63.7,32.7,55.4,32.7z"/>
<path class="st0" d="M138.3,32.7h-40c-8.2,0-15-6.7-15-15v0c0-8.2,6.7-15,15-15l40,0c8.2,0,15,6.7,15,15v0
	C153.3,26,146.6,32.7,138.3,32.7z"/>
<path class="st0" d="M221.2,32.7h-40c-8.2,0-15-6.7-15-15v0c0-8.2,6.7-15,15-15h40c8.2,0,15,6.7,15,15v0
	C236.2,26,229.4,32.7,221.2,32.7z"/>
<path class="st0" d="M304.1,32.7h-40c-8.2,0-15-6.7-15-15v0c0-8.2,6.7-15,15-15h40c8.2,0,15,6.7,15,15v0
	C319.1,26,312.3,32.7,304.1,32.7z"/>
<g>
	<path class="st1" d="M26.3,17.8l-0.6,0.6c-0.4-0.6-1-1.2-1.8-1.8l0.6-0.6C25.2,16.6,25.8,17.2,26.3,17.8z M26.7,19.6
		c-0.5,1.5-1.1,2.9-1.7,4.3l-0.9-0.4c0.7-1.4,1.3-2.8,1.8-4.2L26.7,19.6z M26.8,15l-0.6,0.6c-0.5-0.6-1.1-1.2-2-1.8l0.6-0.6
		C25.6,13.8,26.2,14.4,26.8,15z M31.1,13v1.9h3.1v0.8h-3.1V18h3.4v0.8h-3.9c-0.8,1.8-1.4,3.1-2,3.9c1.5-0.2,2.9-0.4,4.4-0.7
		c-0.3-0.7-0.7-1.4-1.1-2l0.8-0.3c0.7,1.2,1.4,2.5,1.9,3.9L33.9,24c-0.2-0.4-0.3-0.8-0.5-1.2c-1.8,0.3-3.8,0.6-5.9,0.8l-0.2-0.8
		c0.1,0,0.1-0.1,0.2-0.1c0.6-0.5,1.3-1.8,2.2-4h-2.8V18h3.4v-2.2h-2.8v-0.8h2.8V13H31.1z"/>
	<path class="st1" d="M38.3,16.7V22c0.4-0.3,0.8-0.7,1.2-1.2l0.2,0.9c-0.7,0.7-1.4,1.3-2.2,1.8l-0.3-0.8c0.2-0.2,0.3-0.3,0.3-0.5
		v-4.8h-1.8v-0.8H38.3z M39.2,14.9l-0.6,0.6c-0.5-0.6-1.1-1.1-2-1.7l0.6-0.6C38,13.7,38.7,14.3,39.2,14.9z M46.4,13.5v0.8h-3.3
		l-0.3,1.3h2.9V18h1.1v0.8h-7.2V18h1.9l0.3-1.6h-1.6v-0.8h1.8l0.3-1.3h-2.3v-0.8H46.4z M46,24h-0.9v-0.6h-3.8V24h-0.9v-4.1H46V24z
		 M45.1,22.6v-2h-3.8v2H45.1z M44.8,18v-1.6h-2.2L42.3,18H44.8z"/>
</g>
<g>
	<path class="st1" d="M106.7,14.6v-2.2h0.9v2.2h4.8v0.8h-4.8v2.3h3.2v5.6H110v-0.7h-5.6v0.7h-0.9v-5.6h3.2v-2.3h-4.9v-0.8H106.7z
		 M110,21.9v-3.3h-5.6v3.3H110z"/>
	<path class="st1" d="M123.5,19.7h1.1v0.8h-10.9v-0.8h1.2V14h2.6v-1.6h0.8V14h1.8v-1.6h0.8V14h2.6V19.7z M118.1,21.4
		c-1,0.9-2.3,1.6-3.8,2.2l-0.4-0.8c1.5-0.5,2.7-1.2,3.7-2L118.1,21.4z M117.4,16.8v-2h-1.7v2H117.4z M117.4,19.7v-2.1h-1.7v2.1
		H117.4z M118.2,16.8h1.8v-2h-1.8V16.8z M120.1,19.7v-2.1h-1.8v2.1H120.1z M124.5,22.8l-0.5,0.7c-1.2-0.9-2.4-1.6-3.7-2.1l0.4-0.7
		C122.1,21.3,123.3,22,124.5,22.8z M120.9,16.8h1.7v-2h-1.7V16.8z M122.6,19.7v-2.1h-1.7v2.1H122.6z"/>
	<path class="st1" d="M128.7,19.3c-0.6,1.4-1.3,2.6-2.2,3.7l-0.7-0.5c0.8-1,1.6-2.1,2.2-3.5L128.7,19.3z M127.2,13.3
		c0.2,0,0.5,0.1,0.7,0.1c2.8,0,5.1-0.3,6.9-0.9l0.4,0.7c-1.8,0.5-4.3,0.8-7.3,0.9c-0.2,1.1-0.4,2.1-0.6,3h3.4v-2.3h0.9v2.3h4.4V18
		h-4.4v4.3c0,0.8-0.4,1.2-1.1,1.2h-1.6l-0.2-0.9c0.5,0,1,0.1,1.5,0.1c0.4,0,0.5-0.2,0.5-0.6v-4h-4.4
		C126.8,16.3,127.1,14.7,127.2,13.3z M136.2,22.6l-0.8,0.4c-0.6-1.4-1.3-2.7-2-3.8l0.8-0.4C134.8,20,135.5,21.3,136.2,22.6z"/>
</g>
<g>
	<path class="st1" d="M194.4,13.1c-0.5,0.8-1,1.4-1.5,1.9c0.1,0.2,0.2,0.3,0.2,0.5c0.3,1,0.5,2.3,0.6,4.1c0,1.9-0.2,3-0.7,3.4
		c-0.3,0.2-0.7,0.3-1.2,0.3c-0.4,0-0.6,0-0.9,0l-0.3-0.8c0.3,0,0.6,0,0.9,0c0.4,0,0.7-0.1,0.8-0.2c0.3-0.3,0.5-1.2,0.5-2.8
		c0-0.5,0-1-0.1-1.4c-0.6,0.9-1.3,1.6-2.2,2.2l-0.5-0.7c1.1-0.7,1.9-1.6,2.5-2.6c-0.1-0.4-0.2-0.8-0.3-1.2c0-0.1-0.1-0.2-0.1-0.3
		c-0.5,0.4-1,0.7-1.6,1.1l-0.5-0.7c0.6-0.3,1.2-0.7,1.7-1.1c-0.3-0.6-0.8-1.1-1.3-1.5l0.7-0.5c0.5,0.5,0.9,1,1.2,1.5
		c0.4-0.5,0.9-1,1.2-1.6L194.4,13.1z M197,14.5v-2h0.9v2h2.5v4.8h-2.5v2.7c0.6-0.1,1.2-0.2,1.7-0.3c-0.2-0.6-0.4-1.1-0.6-1.7
		l0.7-0.2c0.4,1,0.8,2.2,1.1,3.5l-0.8,0.2c-0.1-0.4-0.2-0.7-0.3-1c-1.3,0.3-3.2,0.6-5.6,0.8l-0.1-0.9c1.1-0.1,2-0.1,2.9-0.2v-2.9
		h-2.4v-4.8H197z M197,15.3h-1.6v3.2h1.6V15.3z M199.5,15.3h-1.6v3.2h1.6V15.3z"/>
	<path class="st1" d="M207.1,13.2c0.1-0.3,0.1-0.6,0.2-0.8l0.9,0.1c0,0.2-0.1,0.5-0.1,0.7h4.3v0.7h-4.5c-0.1,0.3-0.2,0.6-0.3,0.9
		h4.1v0.7h-4.4c-0.2,0.3-0.3,0.6-0.5,0.9h6v0.8H210c0.6,0.9,1.7,1.5,3,2l-0.4,0.8c-1.1-0.5-2-1.1-2.6-1.7V19h-2v0.9
		c0,0.1,0,0.1,0,0.2h3.6v0.8h-3.8c-0.2,0.6-0.5,1.1-0.9,1.4c-0.7,0.6-1.8,1-3.3,1.3l-0.5-0.7c1.5-0.3,2.5-0.6,3.1-1.1
		c0.3-0.3,0.5-0.6,0.7-0.9h-3.2V20h3.4c0,0,0-0.1,0-0.2V19h-1.9v-0.7c-0.7,0.7-1.6,1.3-2.6,1.8l-0.5-0.7c1.2-0.5,2.2-1.2,3-2.1h-2.7
		v-0.8h3.3c0.2-0.3,0.4-0.6,0.5-0.9h-2.6v-0.7h2.9c0.1-0.3,0.2-0.6,0.3-0.9h-3.8v-0.7H207.1z M209.9,18.3c-0.3-0.3-0.6-0.7-0.8-1h-3
		c-0.3,0.4-0.6,0.7-0.9,1H209.9z M212.2,22.9l-0.4,0.7c-1.3-0.7-2.6-1.3-3.9-1.7l0.4-0.6C209.7,21.7,211,22.2,212.2,22.9z"/>
</g>
<g>
	<path class="st1" d="M274.8,13v0.8h-3.6v1.8h2.9v7.7h-0.9v-0.5h-7.6v0.5h-0.9v-7.7h2.9v-1.8h-3.6V13H274.8z M273.2,22.1v-1.9h-1.7
		c-0.8,0-1.2-0.4-1.2-1.2v-2.5h-1.8v0.2c0,1.9-0.7,3.3-2,4.1l-0.7-0.6c1.2-0.7,1.8-1.9,1.8-3.6v-0.2h-2v5.6H273.2z M268.5,15.7h1.8
		v-1.8h-1.8V15.7z M271.2,18.8c0,0.4,0.2,0.6,0.6,0.6h1.5v-2.9h-2.1V18.8z"/>
	<path class="st1" d="M279.6,13.3v0.8h-1.3v3.1h1.1V18h-1.1v3.2c0.5-0.2,1-0.4,1.5-0.6v0.9c-1.1,0.5-2.3,0.9-3.6,1.3l-0.2-0.8
		c0.5-0.1,1-0.3,1.5-0.4V18h-1.3v-0.8h1.3v-3.1h-1.4v-0.8H279.6z M282.6,12.5v5.4c0,2.6-0.9,4.4-2.6,5.6l-0.6-0.6
		c1.6-1,2.3-2.7,2.4-5v-5.4H282.6z M280.9,14.5v1.3c0,1.7-0.3,2.9-0.8,3.7l-0.6-0.5c0.4-0.7,0.6-1.7,0.6-3.2v-1.3H280.9z
		 M286.7,13.2V14h-1.5v3.4h1.3v0.8h-1.3v4h1.7V23h-4.3v-0.8h1.8v-4h-1.3v-0.8h1.3V14H283v-0.8H286.7z"/>
	<path class="st1" d="M289.8,14.4l0.9,0.1c-0.2,0.9-0.3,1.8-0.5,2.5h5v-3.1h-6.3V13h9.3v0.8H296v3.1h2.6v0.8H296v4.5
		c0,0.7-0.4,1.1-1.1,1.1h-2l-0.2-0.8c0.6,0,1.3,0,1.9,0c0.3,0,0.5-0.2,0.5-0.5v-4.3h-0.3c-1,2-3.1,3.7-6.2,5.2l-0.5-0.7
		c2.9-1.3,4.9-2.8,5.8-4.4h-4.9C289.4,16.5,289.6,15.4,289.8,14.4z"/>
	<path class="st1" d="M302.5,16.2v5.3c0.4-0.3,0.8-0.7,1.2-1.2l0.2,0.9c-0.7,0.7-1.4,1.3-2.2,1.8l-0.3-0.8c0.2-0.2,0.3-0.3,0.3-0.5
		V17h-1.8v-0.8H302.5z M303.3,14.4l-0.6,0.6c-0.5-0.6-1.1-1.1-2-1.7l0.6-0.6C302.2,13.2,302.8,13.8,303.3,14.4z M310.6,13v0.8h-3.3
		l-0.3,1.3h2.9v2.4h1.1v0.8h-7.2v-0.8h1.9l0.3-1.6h-1.6v-0.8h1.8l0.3-1.3H304V13H310.6z M310.1,23.5h-0.9v-0.6h-3.8v0.6h-0.9v-4.1
		h5.5V23.5z M309.3,22.1v-2h-3.8v2H309.3z M308.9,17.5v-1.6h-2.2l-0.3,1.6H308.9z"/>
</g>
<path class="st2" d="M328.7,20.1l6.2-6.2c0.2-0.2,0.5-0.2,0.6,0c0.2,0.2,0.2,0.5,0,0.6l-6.5,6.5c-0.1,0.1-0.2,0.1-0.3,0.1
	c-0.1,0-0.2,0-0.3-0.1l-6.5-6.5c-0.2-0.2-0.2-0.5,0-0.6c0.2-0.2,0.5-0.2,0.6,0L328.7,20.1z"/>
<rect x="296.4" class="st3" width="24" height="35.9"/>
</svg>
