<!-- Generator: Adobe Illustrator 21.0.0, SVG Export Plug-In  -->
<svg version="1.1"
	 xmlns="http://www.w3.org/2000/svg" xmlns:xlink="http://www.w3.org/1999/xlink" xmlns:a="http://ns.adobe.com/AdobeSVGViewerExtensions/3.0/"
	 x="0px" y="0px" width="35px" height="60.6px" viewBox="0 0 35 60.6" style="enable-background:new 0 0 35 60.6;"
	 xml:space="preserve">
<style type="text/css">
	.st0{opacity:0.73;}
	.st1{fill:#2A3D96;}
	.st2{opacity:0.75;}
	.st3{opacity:0.83;}
	.st4{fill:#1FB192;}
	.st5{opacity:0.87;}
	.st6{fill:#4D4D4D;}
</style>
<defs>
</defs>
<g>
	<g class="st0">
		<path class="st1" d="M14.4,30c-0.6,0-1.2-0.5-1.2-1.1L11.4,15c-0.1-0.7,0.4-1.3,1.1-1.4c0.7-0.1,1.3,0.4,1.4,1.1l1.8,13.8
			c0.1,0.7-0.4,1.3-1.1,1.4C14.5,29.9,14.5,30,14.4,30z"/>
	</g>
	<g class="st2">
		<path class="st1" d="M22.1,30c-0.1,0-0.1,0-0.2,0c-0.7-0.1-1.2-0.7-1.1-1.4l1.8-13.8c0.1-0.7,0.7-1.2,1.4-1.1
			c0.7,0.1,1.2,0.7,1.1,1.4l-1.8,13.8C23.3,29.5,22.8,30,22.1,30z"/>
	</g>
	<g class="st2">
		<path class="st1" d="M12.7,16.1c-0.3,0-0.6-0.1-0.9-0.4c-1.7-1.7-2.7-4.1-2.7-6.5c0-2.5,1-4.8,2.7-6.5C13.6,1,15.9,0,18.4,0
			s4.8,1,6.5,2.7c0.5,0.5,0.5,1.3,0,1.8c-0.5,0.5-1.3,0.5-1.8,0c-1.3-1.3-3-2-4.8-2c-1.8,0-3.5,0.7-4.8,2c-1.3,1.3-2,3-2,4.8
			s0.7,3.5,2,4.8c0.5,0.5,0.5,1.3,0,1.8C13.4,16,13.1,16.1,12.7,16.1z"/>
	</g>
	<g class="st3">
		<path class="st4" d="M18.3,18.5c-2.4,0-4.7-0.9-6.5-2.7c-0.5-0.5-0.5-1.3,0-1.8c0.5-0.5,1.3-0.5,1.8,0c2.6,2.6,6.9,2.6,9.5,0
			c1.3-1.3,2-3,2-4.8s-0.7-3.5-2-4.8c-0.5-0.5-0.5-1.3,0-1.8c0.5-0.5,1.3-0.5,1.8,0c1.7,1.7,2.7,4.1,2.7,6.5c0,2.5-1,4.8-2.7,6.5
			C23,17.6,20.7,18.5,18.3,18.5z"/>
	</g>
	<g class="st5">
		<path class="st1" d="M18.2,31.4c-1.3,0-2.9-0.4-4.5-1.4c-0.6-0.4-0.7-1.2-0.3-1.7c0.4-0.6,1.2-0.7,1.7-0.3c3.3,2.2,6.2,0.1,6.3,0
			c0.6-0.4,1.3-0.3,1.7,0.2c0.4,0.6,0.3,1.3-0.2,1.7C22.8,30,20.9,31.4,18.2,31.4z"/>
	</g>
	<g class="st5">
		<path class="st1" d="M13.7,37.5c-0.5,0-1-0.3-1.2-0.9c-0.2-0.7,0.1-1.4,0.8-1.6c3.8-1.2,3.9-4.8,3.9-4.9c0-0.7,0.6-1.2,1.3-1.2
			c0.7,0,1.2,0.6,1.2,1.3c0,0.2-0.2,5.4-5.7,7.2C13.9,37.5,13.8,37.5,13.7,37.5z"/>
	</g>
</g>
<g>
	<path class="st6" d="M2.6,54.4L2,55c-0.5-0.6-1.2-1.2-2-1.8l0.6-0.6C1.4,53.2,2.1,53.8,2.6,54.4z M2.9,51.6l-0.6,0.6
		c-0.5-0.6-1.2-1.2-2.1-1.8l0.6-0.6C1.7,50.4,2.4,51,2.9,51.6z M2.9,56.2c-0.6,1.5-1.2,2.9-1.9,4.2l-0.8-0.3
		c0.7-1.4,1.4-2.7,1.9-4.2L2.9,56.2z M6.4,59c-0.8,0.6-1.8,1.1-3,1.6l-0.5-0.7C4,59.5,5,59,5.8,58.5L6.4,59z M10.7,52.7H9.9v-1.4
		H4.2v1.4H3.3v-2.2h3.2c-0.1-0.3-0.2-0.6-0.3-0.8L7,49.5c0.1,0.3,0.2,0.6,0.3,1h3.3V52.7z M9.8,52.2V53H7.4v0.9h2.8v4.3H3.8v-4.3
		h2.8V53H4.2v-0.7H9.8z M6.6,55.6v-1.1h-2v1.1H6.6z M6.6,56.3h-2v1.1h2V56.3z M7.4,55.6h2v-1.1h-2V55.6z M9.4,56.3h-2v1.1h2V56.3z
		 M11,59.9l-0.5,0.7c-0.9-0.6-1.8-1.1-2.7-1.5l0.4-0.6C9.2,58.9,10.2,59.3,11,59.9z"/>
	<path class="st6" d="M15.7,59.2h-0.9v-0.6h-1.6v0.9h-0.9v-8.9h3.3V59.2z M14.8,57.7v-6.3h-1.6v6.3H14.8z M22.5,60.6h-0.8V60h-4.3
		v0.6h-0.8v-5.3h5.9V60.6z M22.1,50.1v4.3h-5v-4.3H22.1z M21.7,57.3v-1.2h-4.3v1.2H21.7z M21.7,59.3v-1.2h-4.3v1.2H21.7z M21.3,51.9
		v-1.1h-3.5v1.1H21.3z M21.3,52.6h-3.5v1.1h3.5V52.6z"/>
	<path class="st6" d="M29.8,49.6c1.5,1.7,3.3,3,5.3,4l-0.5,0.8c-2-1-3.7-2.4-5.1-4.1c-1.3,1.6-3,2.9-5.1,4.1l-0.5-0.8
		c2.1-1.1,3.9-2.4,5.3-4H29.8z M34.3,55.7v0.8h-5.6c-0.6,1.1-1.3,2.1-2.1,3c2-0.1,3.8-0.3,5.6-0.5c-0.4-0.5-0.9-1.1-1.3-1.6l0.7-0.4
		c1.1,1.2,1.9,2.3,2.5,3.2l-0.7,0.5c-0.2-0.3-0.4-0.6-0.7-1c-1.9,0.3-4.2,0.5-7.1,0.7l-0.2-0.8c0.2-0.1,0.4-0.1,0.5-0.2
		c0.8-0.9,1.4-1.8,1.9-2.8h-3v-0.8H34.3z M32.4,53.3v0.8h-5.9v-0.8H32.4z"/>
</g>
</svg>
