<!-- Generator: Adobe Illustrator 21.0.0, SVG Export Plug-In  -->
<svg version="1.1"
	 xmlns="http://www.w3.org/2000/svg" xmlns:xlink="http://www.w3.org/1999/xlink" xmlns:a="http://ns.adobe.com/AdobeSVGViewerExtensions/3.0/"
	 x="0px" y="0px" width="267px" height="109px" viewBox="0 0 267 109" style="enable-background:new 0 0 267 109;"
	 xml:space="preserve">
<style type="text/css">
	.st0{opacity:0.6;fill:#FFFFFF;}
	.st1{opacity:0.57;fill:none;stroke:#FFFFFF;stroke-miterlimit:10;}
	.st2{opacity:0.6;}
	.st3{fill:#FFFFFF;}
	.st4{clip-path:url(#SVGID_2_);fill:#FFFFFF;}
	.st5{opacity:0.7;}
	.st6{clip-path:url(#SVGID_4_);fill:#FFFFFF;}
</style>
<defs>
</defs>
<g>
	<path class="st0" d="M11.3,20.2H7.3c-3.7,0-6.7,0-6.7-1.9v-0.4c0-3.6,3-6.6,6.7-6.6h4c3.7,0,6.7,3,6.7,6.6v0.4
		C18,20.2,14.9,20.2,11.3,20.2 M7.3,12.4c-3.1,0-5.6,2.5-5.6,5.5v0.4c0,0.8,3.3,0.8,5.6,0.8h4c2,0,5.6,0,5.6-0.8v-0.4
		c0-3.1-2.5-5.5-5.6-5.5H7.3 M9.1,10.5c-2.9,0-5.3-2.4-5.3-5.2S6.2,0,9.1,0s5.3,2.4,5.3,5.2S12.1,10.5,9.1,10.5 M4.9,5.2
		c0,2.3,1.9,4.1,4.2,4.1s4.2-1.9,4.2-4.1s-1.9-4.1-4.2-4.1C6.8,1.1,4.9,2.9,4.9,5.2z"/>
	<line class="st1" x1="36" y1="28.5" x2="267" y2="28.5"/>
	<line class="st1" x1="36" y1="108.5" x2="267" y2="108.5"/>
	<g class="st2">
		<path class="st3" d="M251.6,96.1c0-0.5,0.4-0.9,0.9-0.9c0.5,0,0.9,0.4,0.9,0.9v0c0,0.5-0.4,0.9-0.9,0.9
			C252,97,251.6,96.6,251.6,96.1z M252.5,100c-4.7,0-8.5-3.8-8.5-8.5c0-4.7,3.8-8.5,8.5-8.5s8.5,3.8,8.5,8.5
			C261,96.2,257.2,100,252.5,100L252.5,100z M252.5,84.2c-4,0-7.3,3.3-7.3,7.3c0,4,3.3,7.3,7.3,7.3c4,0,7.3-3.3,7.3-7.3
			C259.7,87.5,256.5,84.2,252.5,84.2z M252.5,94.5c-0.3,0-0.6-0.3-0.6-0.6v-1c0-1,0.8-1.7,1.4-2.4c0.5-0.5,1-1,1-1.4
			c0-1-0.8-1.8-1.8-1.8c-1,0-1.8,0.8-1.8,1.8c0,0.3-0.3,0.6-0.6,0.6c-0.3,0-0.6-0.3-0.6-0.6c0-1.7,1.4-3,3-3c1.7,0,3,1.4,3,3
			c0,0.9-0.7,1.6-1.4,2.3c-0.5,0.5-1.1,1.1-1.1,1.6v1C253.1,94.3,252.8,94.5,252.5,94.5z"/>
	</g>
	<g class="st2">
		<g>
			<defs>
				<rect id="SVGID_1_" y="77" width="18.6" height="22.5"/>
			</defs>
			<clipPath id="SVGID_2_">
				<use xlink:href="#SVGID_1_"  style="overflow:visible;"/>
			</clipPath>
			<path class="st4" d="M13.8,85.8c-0.5,0-0.9-0.4-0.9-0.9v-2.5c0-2-1.6-3.6-3.6-3.6c-2,0-3.6,1.6-3.6,3.6v2.5
				c0,0.5-0.4,0.9-0.9,0.9c-0.5,0-0.9-0.4-0.9-0.9v-2.5c0-3,2.4-5.4,5.4-5.4c3,0,5.4,2.4,5.4,5.4v2.5C14.7,85.4,14.3,85.8,13.8,85.8
				L13.8,85.8z M13.8,85.8"/>
			<path class="st4" d="M16,99.5H2.6c-1.4,0-2.6-1.2-2.6-2.6v-9.3C0,86.1,1.2,85,2.6,85H16c1.4,0,2.6,1.2,2.6,2.6v9.3
				C18.6,98.3,17.4,99.5,16,99.5L16,99.5z M2.6,86.8c-0.4,0-0.8,0.3-0.8,0.8v9.3c0,0.4,0.3,0.8,0.8,0.8H16c0.4,0,0.8-0.3,0.8-0.8
				v-9.3c0-0.4-0.3-0.8-0.8-0.8H2.6z M2.6,86.8"/>
		</g>
		<path class="st3" d="M9.3,95.5c-0.8,0-1.5-0.7-1.5-1.5v-3.6c0-0.8,0.7-1.5,1.5-1.5c0.8,0,1.5,0.7,1.5,1.5V94
			C10.7,94.8,10.1,95.5,9.3,95.5L9.3,95.5z M9.3,95.5"/>
	</g>
	<g class="st5">
		<path class="st3" d="M43.2,15.8l-0.5-0.5c0.9-1.2,1.3-2.7,1.3-4.5V4.7h9.5v9.7c0,0.8-0.4,1.3-1.3,1.3h-1.5L50.5,15
			c0.5,0,1,0,1.4,0c0.5,0,0.8-0.3,0.8-0.9v-2.5H49v3.9h-0.7v-3.9h-3.6C44.5,13.3,44,14.7,43.2,15.8z M44.7,10.8c0,0.1,0,0.1,0,0.2
			h3.6V8.5h-3.6V10.8z M44.7,5.3v2.5h3.6V5.3H44.7z M52.8,5.3H49v2.5h3.8V5.3z M52.8,8.5H49V11h3.8V8.5z"/>
		<path class="st3" d="M56.1,16l-0.5-0.5c1.1-1.5,1.7-3.4,1.7-5.8v-4h4.3c-0.2-0.6-0.5-1.1-0.8-1.6L61.5,4c0.3,0.5,0.5,1.1,0.7,1.7
			h4.1v4.2h-8.4C57.9,12.3,57.2,14.3,56.1,16z M57.9,6.5v2.8h7.7V6.5H57.9z"/>
		<path class="st3" d="M72.6,15.9h-0.7v-4.7c-0.9,0.3-1.8,0.6-2.7,0.8l-0.4-0.7c2.3-0.5,4.2-1.2,5.7-2c-0.6-0.5-1.4-1.1-2.5-1.7
			l0.6-0.4c1.1,0.6,1.9,1.2,2.4,1.7c1.4-0.9,2.5-1.9,3.1-3h-5.1c-0.9,0.8-2,1.6-3.4,2.2l-0.5-0.6c2.2-1,3.7-2.2,4.5-3.6l0.8,0.1
			c-0.2,0.4-0.5,0.8-0.8,1.2H79V6c-1,1.9-2.8,3.4-5.4,4.6h5.8v5.3h-0.7v-0.8h-6.1V15.9z M78.6,11.2h-6.1v3.2h6.1V11.2z"/>
	</g>
	<g class="st5">
		<path class="st3" d="M52.9,86c-1.2,1.5-2.8,2.8-4.8,3.8c0.1,0.1,0.3,0.2,0.5,0.2h2.6c0.3,0,0.6-0.1,0.7-0.2
			c0.2-0.2,0.3-0.7,0.4-1.5l0.7,0.2c-0.1,1-0.3,1.6-0.5,1.9c-0.2,0.2-0.6,0.3-1.1,0.3h-3c-0.5,0-0.9-0.2-1-0.5
			c-1.1,0.5-2.2,0.9-3.4,1.2l-0.3-0.6c1.3-0.4,2.5-0.8,3.6-1.3v-2.7H48V89c1.8-0.9,3.3-2.1,4.4-3.5L52.9,86z M54.9,86.7h-0.7v-1.9
			h-9.4v1.9h-0.7v-2.5h5.1c-0.2-0.4-0.3-0.7-0.5-1l0.7-0.1c0.2,0.4,0.3,0.7,0.5,1.2h4.9V86.7z M46.6,86.3c-0.4,1.2-0.9,2.2-1.6,3.1
			L44.4,89c0.7-0.8,1.2-1.8,1.6-2.8L46.6,86.3z M50,91v2.7h3.5v-2.3h0.7V95h-0.7v-0.6h-7.6V95h-0.7v-3.5h0.7v2.2h3.4V91H50z
			 M50.3,86.8l-0.5,0.4c-0.4-0.5-0.8-1-1.5-1.6l0.5-0.3C49.4,85.8,49.9,86.4,50.3,86.8z M55.4,89.6L54.8,90c-0.5-0.9-1.2-1.8-2-2.7
			l0.5-0.4C54.2,87.9,54.9,88.8,55.4,89.6z"/>
		<path class="st3" d="M60.9,94.3h-0.7v-0.8h-1.6v1h-0.7v-5.6c-0.3,0.6-0.6,1.2-1,1.7L56.5,90c1.1-1.6,1.8-3.4,2.1-5.4h-1.7v-0.7
			h4.4v0.7h-2c-0.2,1.1-0.5,2.2-0.8,3.1h2.4V94.3z M60.2,92.8v-4.4h-1.6v4.4H60.2z M66.4,91.4V92h-4.7v-0.7H66.4z M63.6,85.5
			L63,88.8h3l0.7-4.5h-4.7v-0.7h5.4l-0.8,5.1h1.4c0,3.1-0.2,4.8-0.5,5.3c-0.3,0.5-1,0.7-2.1,0.7c-0.4,0-0.8,0-1.2,0L64,94.2
			c0.6,0,1,0.1,1.2,0.1c1,0,1.6-0.2,1.8-0.7c0.2-0.5,0.3-1.8,0.3-4h-5.2l0.7-4.1L63.6,85.5z"/>
	</g>
</g>
</svg>
