<!-- Generator: Adobe Illustrator 21.0.0, SVG Export Plug-In  -->
<svg version="1.1"
	 xmlns="http://www.w3.org/2000/svg" xmlns:xlink="http://www.w3.org/1999/xlink" xmlns:a="http://ns.adobe.com/AdobeSVGViewerExtensions/3.0/"
	 x="0px" y="0px" width="34.6px" height="17px" viewBox="0 0 34.6 17" style="enable-background:new 0 0 34.6 17;"
	 xml:space="preserve">
<style type="text/css">
	.st0{fill:#FFFFFF;}
</style>
<defs>
</defs>
<g>
	<path class="st0" d="M3.3,8.8C2.6,8.2,1.1,7.4,0,6.9l1.1-1.6C2.2,5.7,3.7,6.5,4.5,7L3.3,8.8z M5.5,11.1c-1,1.9-2.1,3.9-3.2,5.7
		l-1.8-1.4c1-1.4,2.3-3.6,3.4-5.7L5.5,11.1z M4.3,3.9C3.6,3.3,2.1,2.4,1,1.9l1.2-1.6c1.1,0.5,2.6,1.3,3.4,1.8L4.3,3.9z M16.7,14.3v2
		H5.1v-2H10v-3.7H6.3v-2H10V5.5H5.6v-2h4.8c-0.2-0.8-0.8-1.9-1.3-2.8l2-0.7c0.5,0.8,1.2,2,1.4,2.8l-1.7,0.6h5.5v2h-4.1v3.2h3.4v2
		h-3.4v3.7H16.7z"/>
	<path class="st0" d="M34.6,9.1H33v5.4c0,1-0.2,1.6-0.8,1.9c-0.6,0.4-1.5,0.4-2.7,0.4c-0.1-0.6-0.4-1.5-0.6-2c0.7,0,1.5,0,1.7,0
		c0.3,0,0.3-0.1,0.3-0.4V9.1h-1.9c-0.1,2.6-0.6,5.8-2.1,7.8c-0.3-0.4-0.9-1-1.4-1.4c-0.1,0.3-0.3,0.6-0.7,0.8
		c-0.6,0.3-1.4,0.4-2.6,0.4c-0.1-0.5-0.4-1.4-0.7-1.9c0.7,0,1.5,0,1.7,0c0.3,0,0.3-0.1,0.3-0.3V9.1h-1.7c-0.2,2.7-0.8,5.8-2.4,7.9
		c-0.3-0.4-1.1-1.3-1.5-1.5c1.3-1.8,1.7-4.2,1.9-6.4H18V7.1h1.9v0V1.2h5.7v5.9h1.3V1.2h6v5.9h1.7V9.1z M23.5,7.1V3.2h-1.6v3.9v0
		H23.5z M25.6,14.6c0,0.1,0,0.2,0,0.3c0.9-1.7,1.2-3.8,1.3-5.8h-1.3V14.6z M30.8,7.1V3.2H29v3.9H30.8z"/>
</g>
</svg>
