<!-- Generator: Adobe Illustrator 21.0.0, SVG Export Plug-In  -->
<svg version="1.1"
	 xmlns="http://www.w3.org/2000/svg" xmlns:xlink="http://www.w3.org/1999/xlink" xmlns:a="http://ns.adobe.com/AdobeSVGViewerExtensions/3.0/"
	 x="0px" y="0px" width="50.8px" height="12.1px" viewBox="0 0 50.8 12.1" style="enable-background:new 0 0 50.8 12.1;"
	 xml:space="preserve">
<style type="text/css">
	.st0{opacity:0.7;}
	.st1{fill:#FFFFFF;}
</style>
<defs>
</defs>
<g class="st0">
	<path class="st1" d="M2.8,5.3L2.1,6C1.6,5.4,0.9,4.7,0,4l0.7-0.6C1.5,4,2.2,4.7,2.8,5.3z M3.1,7.3c-0.6,1.6-1.2,3.1-2,4.6l-0.9-0.4
		C1,10,1.7,8.5,2.3,6.9L3.1,7.3z M3.3,2.2L2.7,2.9c-0.6-0.6-1.3-1.3-2.3-2L1,0.3C1.9,0.9,2.7,1.6,3.3,2.2z M3.9,6.6V5.7h6.9v0.9
		c-0.5,1.2-1.3,2.3-2.4,3.2c1,0.7,2.2,1.1,3.6,1.5l-0.5,0.8c-1.6-0.4-2.9-1-3.9-1.8C6.5,11,5.2,11.6,3.7,12l-0.5-0.9
		c1.4-0.4,2.6-0.9,3.6-1.5c-1-0.9-1.7-1.9-2.1-3.1H3.9z M9.7,0.6v2.8c0,0.3,0.2,0.4,0.5,0.4h1.5v0.9H10c-0.8,0-1.2-0.4-1.2-1.1V1.5
		H6.1v0.6c0,1.4-0.7,2.5-2.1,3.2L3.4,4.6C4.5,4,5.1,3.2,5.1,2.2V0.6H9.7z M9.7,6.6H5.6c0.4,1,1.1,1.9,2,2.6C8.6,8.5,9.3,7.6,9.7,6.6
		z"/>
	<path class="st1" d="M17,9.2V12h-0.9V5.2c-0.7,0.9-1.6,1.8-2.5,2.5L13,6.9c1.6-1.3,2.9-2.8,3.8-4.5h-3.4V1.5h3.9
		c0.2-0.5,0.4-1,0.6-1.5l0.9,0.1c-0.2,0.5-0.3,0.9-0.5,1.4h6.5v0.9h-6.9c-0.3,0.5-0.5,1-0.8,1.5h6v7c0,0.6-0.4,1-1.1,1h-1.5
		l-0.2-0.9c0.5,0,1,0.1,1.4,0.1c0.3,0,0.5-0.2,0.5-0.5V9.2H17z M17,6.2h5.2V4.8H17V6.2z M17,7v1.4h5.2V7H17z"/>
	<path class="st1" d="M29.1,2.4v4.2c0,1.5-0.2,2.6-0.7,3.5c-0.4,0.8-1.1,1.4-2,1.9L26,11.3c0.9-0.4,1.5-1,1.8-1.7
		c0.3-0.8,0.5-1.7,0.5-2.9V2.4H29.1z M31,8.8h-0.8V1.5h-2.8v7.3h-0.9V0.6H31V8.8z M31.4,11.3l-0.7,0.7c-0.4-0.7-1-1.4-1.7-2.2
		l0.6-0.6C30.3,9.9,30.9,10.6,31.4,11.3z M33.4,6.4v4.4c0.6-0.2,1.2-0.5,1.8-0.9l0.2,0.8c-0.8,0.5-1.7,0.9-2.8,1.2l-0.4-0.8
		c0.2-0.1,0.3-0.2,0.3-0.4V6.4h-0.9V5.5h0.9V0.1h0.9v5.4h4.3v0.9h-2.4c0.6,2.1,1.5,3.7,2.6,4.8l-0.6,0.7c-1.2-1.2-2.2-3.1-2.8-5.5
		H33.4z M37.5,1.3c-0.9,1.5-2,2.5-3.2,3.2l-0.5-0.7c1.2-0.7,2.2-1.7,3-3.1L37.5,1.3z"/>
	<path class="st1" d="M39.1,6.1V5.2h11.7v0.9H43l-0.4,1.5h6.4c-0.1,2.1-0.3,3.3-0.6,3.7c-0.3,0.4-0.9,0.6-1.8,0.6
		c-0.6,0-1.2,0-1.7-0.1L44.5,11c0.7,0.1,1.3,0.1,1.8,0.1c0.7,0,1.1-0.1,1.3-0.4c0.2-0.3,0.3-1,0.4-2.2h-6.5L42,6.1H39.1z M48.7,0.5
		v3.5h-7.6V0.5H48.7z M47.8,1.4h-5.7v1.8h5.7V1.4z"/>
</g>
</svg>
