<!-- Generator: Adobe Illustrator 21.0.0, SVG Export Plug-In  -->
<svg version="1.1"
	 xmlns="http://www.w3.org/2000/svg" xmlns:xlink="http://www.w3.org/1999/xlink" xmlns:a="http://ns.adobe.com/AdobeSVGViewerExtensions/3.0/"
	 x="0px" y="0px" width="752.5px" height="100px" viewBox="0 0 752.5 100" style="enable-background:new 0 0 752.5 100;"
	 xml:space="preserve">
<style type="text/css">
	.st0{opacity:0.5;}
	.st1{fill:#FFFFFF;}
	.st2{fill:#16F2E7;}
	.st3{fill:#00E1FF;}
	.st4{fill:#00F3FF;}
	.st5{fill:none;stroke:#FFFFFF;stroke-width:2;stroke-linecap:round;stroke-linejoin:round;stroke-miterlimit:10;}
</style>
<defs>
</defs>
<rect width="752.5" height="100"/>
<g class="st0">
	<g>
		<g>
			<path class="st1" d="M287.5,33.1c-0.2,0-0.4-0.1-0.5-0.2l-14.8-9.7c-0.5-0.3-0.6-0.9-0.3-1.4c0.3-0.5,0.9-0.6,1.4-0.3l14.8,9.7
				c0.5,0.3,0.6,0.9,0.3,1.4C288.1,32.9,287.8,33.1,287.5,33.1z"/>
		</g>
	</g>
	<g>
		<g>
			<path class="st1" d="M297.3,53.8H260c-0.6,0-1-0.4-1-1s0.4-1,1-1h37.3c3.3,0,6-3.1,6-6.9V19.8c0-3.8-2.7-6.9-6-6.9
				c-0.6,0-1-0.4-1-1s0.4-1,1-1c4.4,0,8,4,8,8.9v25.1C305.3,49.8,301.7,53.8,297.3,53.8z"/>
		</g>
	</g>
	<g>
		<g>
			<path class="st1" d="M260,53.8c-4.4,0-8-4-8-8.9V19.8c0-4.9,3.6-8.9,8-8.9h37.3c0.6,0,1,0.4,1,1s-0.4,1-1,1H260
				c-3.3,0-6,3.1-6,6.9v25.1c0,3.8,2.7,6.9,6,6.9c0.6,0,1,0.4,1,1S260.6,53.8,260,53.8z"/>
		</g>
	</g>
	<g>
		<g>
			<path class="st1" d="M272.7,41.4c-0.6,0-1-0.4-1-1V22.4c0-0.6,0.4-1,1-1s1,0.4,1,1v17.9C273.7,40.9,273.3,41.4,272.7,41.4z"/>
		</g>
	</g>
	<g>
		<g>
			<path class="st1" d="M272.9,41.2c-0.4,0-0.7-0.2-0.9-0.5c-0.3-0.5-0.1-1.1,0.4-1.4l14.6-8.2c0.5-0.3,1.1-0.1,1.4,0.4
				c0.3,0.5,0.1,1.1-0.4,1.4l-14.6,8.2C273.2,41.2,273.1,41.2,272.9,41.2z"/>
		</g>
	</g>
</g>
<g>
	<g>
		<path class="st2" d="M678.4,30.2c-0.3,0-0.5-0.1-0.7-0.3c-0.4-0.4-0.4-1,0-1.4c3.7-3.7,3.8-9.8,0.1-13.5c-1.8-1.8-4.2-2.8-6.8-2.8
			c0,0,0,0,0,0c-2.5,0-4.9,1-6.7,2.8c-0.4,0.4-1,0.4-1.4,0c-0.4-0.4-0.4-1,0-1.4c4.5-4.5,11.9-4.5,16.4,0.1
			c4.5,4.5,4.5,11.9-0.1,16.4C678.9,30.1,678.7,30.2,678.4,30.2z"/>
	</g>
</g>
<g>
	<g>
		<path class="st2" d="M671.1,33.3c-3,0-5.9-1.1-8.2-3.4c-4.5-4.5-4.5-11.8,0-16.4c0.4-0.4,1-0.4,1.4,0s0.4,1,0,1.4
			c-3.7,3.7-3.7,9.8,0,13.5c3.7,3.7,9.8,3.7,13.5,0c0.4-0.4,1-0.4,1.4,0s0.4,1,0,1.4C677,32.2,674,33.3,671.1,33.3z"/>
	</g>
</g>
<g>
	<g>
		<path class="st3" d="M686.2,53.1h-28.6c-1,0-2-0.4-2.6-1.2c-0.6-0.8-0.9-1.7-0.8-2.7c1.4-8.7,8.8-15,17.6-15
			c8.8,0,16.2,6.3,17.6,15c0.2,1-0.1,2-0.8,2.7C688.1,52.7,687.2,53.1,686.2,53.1z M671.9,36.3c-7.8,0-14.4,5.6-15.7,13.3
			c-0.1,0.4,0,0.8,0.3,1.1c0.3,0.3,0.7,0.5,1.1,0.5h28.6c0.4,0,0.8-0.2,1.1-0.5c0.3-0.3,0.4-0.7,0.3-1.1
			C686.3,41.9,679.7,36.3,671.9,36.3z"/>
	</g>
</g>
<g class="st0">
	<g>
		<g>
			<path class="st1" d="M467.8,41.4c-0.1,0-0.1,0-0.2,0c-0.5-0.1-0.9-0.6-0.8-1.2l4.8-23.2c0.1-0.5,0.6-0.9,1.2-0.8
				c0.5,0.1,0.9,0.6,0.8,1.2l-4.8,23.2C468.7,41.1,468.2,41.4,467.8,41.4z"/>
		</g>
	</g>
	<g>
		<g>
			<path class="st1" d="M484,40.4c-0.5,0-0.9-0.3-1-0.8l-5.2-22.2c-0.1-0.5,0.2-1.1,0.7-1.2c0.5-0.1,1.1,0.2,1.2,0.7l5.2,22.2
				c0.1,0.5-0.2,1.1-0.7,1.2C484.2,40.4,484.1,40.4,484,40.4z"/>
		</g>
	</g>
	<g>
		<g>
			<path class="st1" d="M450.2,37.5c-0.1,0-0.2,0-0.4-0.1c-0.5-0.2-0.8-0.8-0.6-1.3l9.4-24c0.2-0.5,0.8-0.8,1.3-0.6
				c0.5,0.2,0.8,0.8,0.6,1.3l-9.4,24C450.9,37.2,450.6,37.5,450.2,37.5z"/>
		</g>
	</g>
	<g>
		<g>
			<path class="st1" d="M502.2,39.5c-0.4,0-0.8-0.2-0.9-0.6l-10.4-26c-0.2-0.5,0-1.1,0.6-1.3c0.5-0.2,1.1,0,1.3,0.6l10.4,26
				c0.2,0.5,0,1.1-0.6,1.3C502.5,39.5,502.4,39.5,502.2,39.5z"/>
		</g>
	</g>
	<g>
		<g>
			<path class="st1" d="M465.1,51.7c-0.3,0-0.5-0.1-0.7-0.3c-0.4-0.4-0.4-1,0-1.4c1.7-1.7,2.7-4,2.7-6.5c0-2.5-1-4.8-2.7-6.5
				s-4-2.7-6.5-2.7s-4.8,1-6.5,2.7c-0.4,0.4-1,0.4-1.4,0s-0.4-1,0-1.4c4.4-4.4,11.5-4.4,15.8,0c2.1,2.1,3.3,4.9,3.3,7.9
				c0,3-1.2,5.8-3.3,7.9C465.6,51.7,465.3,51.7,465.1,51.7z"/>
		</g>
	</g>
	<g>
		<g>
			<path class="st1" d="M457.9,54.8c-2.9,0-5.7-1.1-7.9-3.3c-2.1-2.1-3.3-4.9-3.3-7.9c0-3,1.2-5.8,3.3-7.9c0.4-0.4,1-0.4,1.4,0
				s0.4,1,0,1.4c-1.7,1.7-2.7,4-2.7,6.5c0,2.5,1,4.8,2.7,6.5s4,2.7,6.5,2.7s4.8-1,6.5-2.7c0.4-0.4,1-0.4,1.4,0s0.4,1,0,1.4
				C463.7,53.7,460.8,54.8,457.9,54.8z"/>
		</g>
	</g>
	<g>
		<g>
			<path class="st1" d="M452.8,43.7c-0.6,0-1-0.4-1-1c0-3.1,2.5-5.6,5.6-5.6c0.6,0,1,0.4,1,1s-0.4,1-1,1c-2,0-3.6,1.6-3.6,3.6
				C453.8,43.3,453.3,43.7,452.8,43.7z"/>
		</g>
	</g>
	<g>
		<g>
			<path class="st1" d="M488.2,43.7c-0.6,0-1-0.4-1-1c0-3.1,2.5-5.6,5.6-5.6c0.6,0,1,0.4,1,1s-0.4,1-1,1c-2,0-3.6,1.6-3.6,3.6
				C489.2,43.3,488.7,43.7,488.2,43.7z"/>
		</g>
	</g>
	<g>
		<g>
			<path class="st1" d="M500.5,51.7c-0.3,0-0.5-0.1-0.7-0.3c-0.4-0.4-0.4-1,0-1.4c3.6-3.6,3.6-9.4,0-13c-3.6-3.6-9.4-3.6-13,0
				c-0.4,0.4-1,0.4-1.4,0s-0.4-1,0-1.4c4.4-4.4,11.5-4.4,15.8,0c4.4,4.4,4.4,11.5,0,15.8C501,51.7,500.7,51.7,500.5,51.7z"/>
		</g>
	</g>
	<g>
		<g>
			<path class="st1" d="M493.3,54.8c-2.9,0-5.7-1.1-7.9-3.3c-4.4-4.4-4.4-11.5,0-15.8c0.4-0.4,1-0.4,1.4,0s0.4,1,0,1.4
				c-3.6,3.6-3.6,9.4,0,13c3.6,3.6,9.4,3.6,13,0c0.4-0.4,1-0.4,1.4,0s0.4,1,0,1.4C499.1,53.7,496.2,54.8,493.3,54.8z"/>
		</g>
	</g>
	<g>
		<g>
			<path class="st1" d="M472.6,18.2c-0.4,0-0.8-0.2-0.9-0.7c-1-2.7-2.5-4.5-4.5-5.2c-3.2-1.2-6.6,0.5-6.6,0.6
				c-0.5,0.3-1.1,0.1-1.3-0.4c-0.3-0.5-0.1-1.1,0.4-1.3c0.2-0.1,4.2-2.2,8.3-0.7c2.5,1,4.4,3.1,5.6,6.4c0.2,0.5-0.1,1.1-0.6,1.3
				C472.8,18.2,472.7,18.2,472.6,18.2z"/>
		</g>
	</g>
	<g>
		<g>
			<path class="st1" d="M478.8,18.2c-0.1,0-0.2,0-0.3-0.1c-0.5-0.2-0.8-0.8-0.6-1.3c1.2-3.3,3.1-5.4,5.6-6.4c4-1.5,8.1,0.6,8.3,0.7
				c0.5,0.3,0.7,0.9,0.4,1.4c-0.3,0.5-0.9,0.7-1.3,0.4c-0.1,0-3.5-1.8-6.6-0.6c-2,0.8-3.5,2.5-4.5,5.2
				C479.6,17.9,479.2,18.2,478.8,18.2z"/>
		</g>
	</g>
	<g>
		<g>
			<path class="st1" d="M478.8,24.4h-6.2c-0.6,0-1-0.4-1-1s0.4-1,1-1h6.2c0.6,0,1,0.4,1,1S479.4,24.4,478.8,24.4z"/>
		</g>
	</g>
	<g>
		<g>
			<path class="st1" d="M481.4,32H471c-0.6,0-1-0.4-1-1s0.4-1,1-1h10.4c0.6,0,1,0.4,1,1S482,32,481.4,32z"/>
		</g>
	</g>
</g>
<g class="st0">
	<path class="st1" d="M78.5,89.9h-1.4v-0.8H66.7v0.8h-1.4V77.6h5.4c0.2-0.6,0.3-1.3,0.4-2h-8v-1.4h5.1c-0.3-0.8-0.6-1.5-1-2.2
		l1.4-0.5c0.4,0.8,0.8,1.7,1.1,2.7h4.4c0.5-0.9,0.9-1.8,1.2-2.8l1.4,0.5c-0.3,0.9-0.7,1.6-1,2.3h5.1v1.4h-8.2
		c-0.1,0.7-0.2,1.4-0.4,2h6.4V89.9z M77.1,81v-2.1H66.7V81H77.1z M77.1,84.4v-2.1H66.7v2.1H77.1z M77.1,87.8v-2.1H66.7v2.1H77.1z"/>
	<path class="st1" d="M99.6,85.4h-1.4v-8.1h-9.6v8.1h-1.4v-9.5h5.1c0.2-0.7,0.3-1.4,0.4-2.2h-8v-1.4h17.6v1.4h-8
		c-0.1,0.8-0.3,1.5-0.5,2.2h5.9V85.4z M94.2,78.5v3.2c-0.1,2.2-0.8,3.9-2.1,5.3c-1.3,1.2-3.4,2.2-6.3,2.8l-0.8-1.3
		c2.9-0.6,4.9-1.5,6.1-2.5c1.1-1.1,1.6-2.5,1.7-4.3v-3.2H94.2z M101.8,88.6l-0.9,1.4c-2.3-1.4-4.6-2.5-7-3.3l0.8-1.2
		C97.3,86.3,99.7,87.4,101.8,88.6z"/>
</g>
<g class="st0">
	<path class="st1" d="M266.1,73.4c0.1-0.6,0.2-1.3,0.2-1.9l1.5,0.2c-0.1,0.6-0.1,1.1-0.2,1.7h7.8v1.4h-8c-0.1,0.6-0.2,1.1-0.3,1.7
		h5.8v11.7h3v1.3H258v-1.3h2.9V76.4h4.7c0.1-0.6,0.2-1.1,0.3-1.7h-7.5v-1.4H266.1z M271.4,79.4v-1.7h-9.1v1.7H271.4z M271.4,82.3
		v-1.7h-9.1v1.7H271.4z M271.4,85.2v-1.7h-9.1v1.7H271.4z M271.4,88.1v-1.8h-9.1v1.8H271.4z"/>
	<path class="st1" d="M287.7,88.9v1h-1.3v-8.2c-0.3,0.1-0.5,0.3-0.8,0.4l-0.7-1.1v0.3c-0.5,0.3-1.1,0.6-1.6,0.9v5.9
		c0,1.1-0.6,1.7-1.7,1.7h-1.7l-0.3-1.4c0.5,0.1,1,0.1,1.5,0.1c0.5,0,0.8-0.3,0.8-0.8v-4.9c-0.8,0.3-1.5,0.6-2.3,0.9l-0.4-1.4
		c0.9-0.2,1.8-0.5,2.7-0.9v-4.6h-2.3v-1.4h2.3v-3.8h1.4v3.8h1.7v1.4h-1.7v4c0.6-0.3,1.1-0.6,1.6-0.9v1.1c2-0.8,3.5-1.8,4.4-2.9h-3.8
		v-1.3h2.3c-0.3-0.6-0.6-1.2-0.9-1.7l1.2-0.5c0.3,0.6,0.7,1.3,0.9,2.2h1.6v-2.9c-1.4,0.1-3,0.1-4.6,0.1l-0.4-1.2
		c4.3,0,7.8-0.4,10.7-1.1l0.7,1.2c-1.4,0.4-3.1,0.7-5,0.8v3h1.5c0.4-0.8,0.8-1.7,1.2-2.6l1.2,0.4c-0.3,0.8-0.7,1.5-1.1,2.2h2.5V78
		h-3.9c1.1,1.1,2.6,2,4.6,2.8l-0.6,1.2c-2.1-1-3.7-2.3-5-4h-0.2v2.9h-1.3V78h-0.2c-0.8,1.4-2.1,2.5-3.7,3.5h9.5v8.4h-1.3v-1H287.7z
		 M287.7,82.7v2h3v-2H287.7z M287.7,85.8v1.9h3v-1.9H287.7z M294.9,84.7v-2h-3v2H294.9z M294.9,87.7v-1.9h-3v1.9H294.9z"/>
</g>
<g class="st0">
	<path class="st1" d="M469,71.8c-0.5,1.4-1.1,2.7-1.8,3.9h4.1v1.4h-6.7v0.9c0,1-0.1,1.9-0.3,2.8h8.1v1.4h-7.3c1,2.7,3.6,4.8,7.8,6.3
		l-0.8,1.3c-4.4-1.8-7.1-4.2-8.2-7.2c-0.4,1.1-0.9,2.1-1.5,3c-1.4,1.8-3.6,3.1-6.7,4.1l-0.8-1.3c3.1-1,5.2-2.3,6.4-3.9
		c0.5-0.7,0.9-1.5,1.1-2.4h-7.2v-1.4h7.5c0.2-0.9,0.3-1.8,0.3-2.8v-0.9h-6.7v-1.4h9.1c0.8-1.2,1.4-2.6,2-4.3L469,71.8z M462.4,75
		l-1.3,0.7c-0.7-1.3-1.5-2.4-2.3-3.4l1.3-0.6C460.9,72.7,461.7,73.8,462.4,75z"/>
	<path class="st1" d="M480.8,79.5l-1,1c-0.8-0.9-1.9-1.9-3.3-3l1-1C478.9,77.6,480,78.5,480.8,79.5z M481.3,82.6
		c-0.9,2.5-1.9,4.9-3,7.1l-1.4-0.6c1.2-2.3,2.3-4.6,3.2-7L481.3,82.6z M481.5,74.8l-1,1c-0.8-0.9-2-1.9-3.5-3l1-1
		C479.4,72.9,480.6,73.8,481.5,74.8z M487.7,74.9c-0.4-1.1-0.8-2.1-1.4-3.1l1.4-0.4c0.6,1.2,1,2.2,1.3,3.2l-0.8,0.3h6v1.4H489v4.8
		h4.6v1.4H489v5.3h5.5v1.4h-12.7v-1.4h5.7v-5.3h-4.6v-1.4h4.6v-4.8h-5.2v-1.4H487.7z"/>
</g>
<g>
	<g>
		<path class="st4" d="M661.5,71.6c1.7,2.8,4.6,5.2,8.6,7.3l-0.9,1.3c-3.8-2-6.6-4.4-8.4-7.2c-2.2,3.2-5,5.6-8.4,7.3l-0.9-1.3
			c3.7-1.9,6.6-4.4,8.6-7.4H661.5z M661.6,77.5v12.4h-1.5V77.5H661.6z"/>
		<path class="st4" d="M683,76c1.1,5.4,4,9.6,8.7,12.5l-0.9,1.3c-4.1-2.7-6.8-6.3-8.3-10.8c-1.2,4.4-4,8-8.5,10.8l-0.9-1.3
			c5.5-3.4,8.3-8,8.5-13.7c0-1.4,0-2.4,0-3.2h1.5C683.1,73.3,683.1,74.8,683,76z"/>
	</g>
</g>
<g class="st0">
	<g>
		<g>
			<g>
				<path class="st1" d="M59.5,29.4c-0.3,0-0.6-0.1-0.8-0.4c-0.3-0.4-0.2-1.1,0.2-1.4l23.5-17.1c0.4-0.3,1.1-0.2,1.4,0.2
					c0.3,0.4,0.2,1.1-0.2,1.4L60.1,29.2C59.9,29.3,59.7,29.4,59.5,29.4z"/>
			</g>
		</g>
	</g>
	<g>
		<g>
			<g>
				<path class="st1" d="M106.5,29.4c-0.2,0-0.4-0.1-0.6-0.2L82.4,12c-0.4-0.3-0.5-1-0.2-1.4c0.3-0.4,1-0.5,1.4-0.2l23.5,17.2
					c0.4,0.3,0.5,1,0.2,1.4C107.1,29.2,106.8,29.4,106.5,29.4z"/>
			</g>
		</g>
	</g>
	<g>
		<g>
			<g>
				<path class="st1" d="M72.2,52.9h-9.8c-2.2,0-3.9-1.8-3.9-3.9V28.4c0-0.6,0.4-1,1-1s1,0.4,1,1v20.6c0,1.1,0.9,1.9,1.9,1.9h9.8
					c1.1,0,1.9-0.9,1.9-1.9v-6c0-1,0.4-2,1.1-2.7c0.7-0.7,1.7-1.1,2.7-1.1c0,0,0,0,0,0l12.5,0c0.6,0,1,0.4,1,1s-0.4,1-1,1
					c0,0,0,0,0,0l-12.5,0c0,0,0,0,0,0c-0.5,0-0.9,0.2-1.3,0.5c-0.3,0.3-0.5,0.8-0.5,1.3v6C76.1,51.1,74.4,52.9,72.2,52.9z"/>
			</g>
		</g>
	</g>
	<g>
		<g>
			<g>
				<path class="st1" d="M103.5,52.9h-9.8c-2.2,0-3.9-1.8-3.9-3.9v-8.8c0-0.6,0.4-1,1-1s1,0.4,1,1v8.8c0,1.1,0.9,1.9,1.9,1.9h9.8
					c1.1,0,1.9-0.9,1.9-1.9V28.4c0-0.6,0.4-1,1-1s1,0.4,1,1v20.6C107.5,51.1,105.7,52.9,103.5,52.9z"/>
			</g>
		</g>
	</g>
	<g>
		<g>
			<g>
				<path class="st5" d="M90.8,39.3"/>
			</g>
		</g>
	</g>
</g>
</svg>
