<!-- Generator: Adobe Illustrator 21.0.0, SVG Export Plug-In  -->
<svg version="1.1"
	 xmlns="http://www.w3.org/2000/svg" xmlns:xlink="http://www.w3.org/1999/xlink" xmlns:a="http://ns.adobe.com/AdobeSVGViewerExtensions/3.0/"
	 x="0px" y="0px" width="750.5px" height="1335px" viewBox="0 0 750.5 1335" style="enable-background:new 0 0 750.5 1335;"
	 xml:space="preserve">
<style type="text/css">
	.st0{clip-path:url(#SVGID_2_);}
	.st1{clip-path:url(#SVGID_4_);fill:#FFFFFF;}
	.st2{clip-path:url(#SVGID_6_);}
	.st3{clip-path:url(#SVGID_8_);fill:#FFFFFF;}
	.st4{clip-path:url(#SVGID_10_);}
	.st5{clip-path:url(#SVGID_12_);fill:#FFFFFF;}
	.st6{fill:#FFFFFF;}
	.st7{fill:none;stroke:#FFFFFF;stroke-miterlimit:10;}
	.st8{opacity:0.7;fill:none;stroke:#E85E38;stroke-width:6;stroke-linecap:round;stroke-linejoin:round;stroke-miterlimit:10;}
	.st9{opacity:0.25;}
	.st10{opacity:0.82;fill:#E85E38;}
	.st11{opacity:0.5;}
	.st12{opacity:0.75;fill:none;stroke:#2A3D96;stroke-width:5;stroke-linecap:round;stroke-linejoin:round;stroke-miterlimit:10;}
	.st13{opacity:0.83;fill:none;stroke:#53BFA4;stroke-width:5;stroke-linecap:round;stroke-linejoin:round;stroke-miterlimit:10;}
	.st14{fill:none;stroke:#53BFA4;stroke-width:5;stroke-linecap:round;stroke-linejoin:round;stroke-miterlimit:10;}
	.st15{opacity:0.83;fill:none;stroke:#53BFA4;stroke-width:3;stroke-linecap:round;stroke-linejoin:round;stroke-miterlimit:10;}
	.st16{opacity:0.75;fill:none;stroke:#2A3D96;stroke-width:3;stroke-linecap:round;stroke-linejoin:round;stroke-miterlimit:10;}
	.st17{opacity:0.75;fill:none;stroke:#2A3D96;stroke-width:5;stroke-linecap:round;stroke-miterlimit:10;}
	.st18{opacity:0.83;fill:none;stroke:#1FB192;stroke-width:5;stroke-linecap:round;stroke-miterlimit:10;}
	.st19{opacity:0.83;fill:none;stroke:#53BFA4;stroke-width:5;stroke-linecap:round;stroke-miterlimit:10;}
	.st20{clip-path:url(#SVGID_14_);fill:#FFCC33;}
	.st21{fill:#FFCC33;}
	.st22{opacity:0.68;fill:none;stroke:#FFCC33;stroke-width:8;stroke-linecap:round;stroke-linejoin:round;stroke-miterlimit:10;}
	.st23{font-family:'huxiaobo-gdh';}
	.st24{font-size:15.0485px;}
	.st25{opacity:0.7;fill:none;stroke:#E85E38;stroke-width:8;stroke-linecap:round;stroke-linejoin:round;stroke-miterlimit:10;}
	.st26{fill:none;stroke:#FFDE8D;stroke-width:8;stroke-linecap:round;stroke-linejoin:round;stroke-miterlimit:10;}
	.st27{fill:#16F2E7;}
	.st28{fill:#00E1FF;}
	.st29{fill:#00F3FF;}
	.st30{fill:none;stroke:#FFFFFF;stroke-width:2;stroke-linecap:round;stroke-linejoin:round;stroke-miterlimit:10;}
	.st31{clip-path:url(#SVGID_16_);}
	.st32{clip-path:url(#SVGID_18_);fill:#FFFFFF;}
	.st33{clip-path:url(#SVGID_20_);}
	.st34{clip-path:url(#SVGID_22_);fill:#FFFFFF;}
	.st35{clip-path:url(#SVGID_24_);}
	.st36{clip-path:url(#SVGID_26_);fill:#FFFFFF;}
	.st37{clip-path:url(#SVGID_28_);fill:#FFCC33;}
</style>
<defs>
</defs>
<rect x="1.5" width="749" height="130.9"/>
<g>
	<defs>
		<path id="SVGID_1_" d="M690.6,18.7h38.6c0.5,0,1,0.4,1,1v12.9c0,0.5-0.4,1-1,1h-38.6c-0.5,0-1-0.4-1-1V19.7
			C689.6,19.1,690.1,18.7,690.6,18.7z M690.6,17.7c-1.1,0-2,0.9-2,2v12.8c0,1.1,0.9,2,2,2h38.6c1.1,0,2-0.9,2-2V19.7
			c0-1.1-0.9-2-2-2H690.6z M733.1,22.7h1.5c0.8,0,1.5,0.7,1.5,1.5v4c0,0.8-0.7,1.5-1.5,1.5h-1.5V22.7z M690.6,16.7h38.6
			c1.6,0,3,1.3,3,3v12.8c0,1.7-1.3,3-3,3h-38.6c-1.6,0-3-1.3-3-3V19.7C687.6,18.1,689,16.7,690.6,16.7z"/>
	</defs>
	<clipPath id="SVGID_2_">
		<use xlink:href="#SVGID_1_"  style="overflow:visible;"/>
	</clipPath>
	<g class="st0">
		<defs>
			<rect id="SVGID_3_" x="5" y="5.9" width="742" height="39.6"/>
		</defs>
		<clipPath id="SVGID_4_">
			<use xlink:href="#SVGID_3_"  style="overflow:visible;"/>
		</clipPath>
		<rect x="677.7" y="6.8" class="st1" width="68.3" height="38.6"/>
	</g>
</g>
<g>
	<defs>
		<path id="SVGID_5_" d="M203.9,22.1l-2.2,2.1c-2.7-2.8-6.5-4.5-10.7-4.5c-4.2,0-8,1.7-10.7,4.4l-2.2-2.1c3.2-3.3,7.8-5.3,12.8-5.3
			C196,16.7,200.6,18.8,203.9,22.1z M199.5,26.3L199.5,26.3l-2.2,2.1c-1.6-1.7-3.9-2.8-6.4-2.8c-2.5,0-4.8,1-6.4,2.7l-2.2-2.1
			c2.1-2.2,5.2-3.6,8.5-3.6C194.4,22.6,197.4,24,199.5,26.3z M195.2,30.5l-4.2,4.1l-4.3-4.1c1-1.1,2.5-1.9,4.2-1.9
			C192.7,28.5,194.2,29.3,195.2,30.5z"/>
	</defs>
	<clipPath id="SVGID_6_">
		<use xlink:href="#SVGID_5_"  style="overflow:visible;"/>
	</clipPath>
	<g class="st2">
		<defs>
			<rect id="SVGID_7_" x="5" y="5.9" width="742" height="39.6"/>
		</defs>
		<clipPath id="SVGID_8_">
			<use xlink:href="#SVGID_7_"  style="overflow:visible;"/>
		</clipPath>
		<rect x="168.2" y="6.8" class="st3" width="45.5" height="37.6"/>
	</g>
</g>
<g>
	<defs>
		<path id="SVGID_9_" d="M78.7,31.6c-3,0-5.4-2.4-5.4-5.4s2.4-5.4,5.4-5.4c3,0,5.4,2.4,5.4,5.4S81.7,31.6,78.7,31.6z M64.9,31.6
			c-3,0-5.4-2.4-5.4-5.4s2.4-5.4,5.4-5.4c3,0,5.4,2.4,5.4,5.4S67.9,31.6,64.9,31.6z M51,31.6c-3,0-5.4-2.4-5.4-5.4s2.4-5.4,5.4-5.4
			c3,0,5.4,2.4,5.4,5.4S54,31.6,51,31.6z M37.2,31.6c-3,0-5.4-2.4-5.4-5.4s2.4-5.4,5.4-5.4s5.4,2.4,5.4,5.4S40.2,31.6,37.2,31.6z
			 M23.3,31.6c-3,0-5.4-2.4-5.4-5.4s2.4-5.4,5.4-5.4s5.4,2.4,5.4,5.4S26.3,31.6,23.3,31.6z"/>
	</defs>
	<clipPath id="SVGID_10_">
		<use xlink:href="#SVGID_9_"  style="overflow:visible;"/>
	</clipPath>
	<g class="st4">
		<defs>
			<rect id="SVGID_11_" x="5" y="5.9" width="742" height="39.6"/>
		</defs>
		<clipPath id="SVGID_12_">
			<use xlink:href="#SVGID_11_"  style="overflow:visible;"/>
		</clipPath>
		<rect x="8" y="10.8" class="st5" width="86.1" height="30.7"/>
	</g>
</g>
<g>
	<path class="st6" d="M102.3,31.9c0,0.8,0,1.4,0,2c0,0.5,0.1,1,0.1,1.4H101c0-0.4,0.1-0.9,0.1-1.4c0-0.5,0-1.2,0-2v-2.8h-4.9v1.6H95
		c0-0.4,0.1-0.8,0.1-1.2c0-0.4,0-0.8,0-1.2v-4.3c0-0.3,0-0.6,0-1c0-0.3-0.1-0.6-0.1-0.9c0.5,0.1,1.2,0.1,2.2,0.1
		c1,0,2.3,0.1,3.9,0.1V21c0-0.4,0-0.9,0-1.3s-0.1-0.8-0.1-1.2c0.3,0.1,0.5,0.1,0.8,0.1c0.3,0,0.5,0,0.7,0c0.2,0,0.3,0,0.3,0.1
		c0,0.1-0.1,0.2-0.3,0.3c-0.1,0.1-0.1,0.1-0.2,0.2s-0.1,0.3-0.1,0.5v2.4c1.6,0,2.9,0,3.9-0.1c1,0,1.7-0.1,2.2-0.1c0,0.1,0,0.3,0,0.5
		c0,0.2,0,0.4,0,0.6c0,0.2,0,0.4,0,0.6s0,0.4,0,0.5V28c0,0.4,0,0.8,0,1.3c0,0.5,0,0.9,0.1,1.3h-1.2v-1.4h-4.8V31.9z M101.2,23.2
		h-4.9v5h4.9V23.2z M102.3,28.2h4.8v-5h-4.8V28.2z"/>
	<path class="st6" d="M114.1,35H113c0.1-1,0.1-2,0.1-3V22c0-0.4,0-0.7,0-1.1c0-0.3,0-0.7-0.1-1.1c0.2,0,0.4,0,0.6,0s0.6,0,1.1,0
		c0.5,0,1.1,0,1.9,0s1.8,0,3.1,0s2.3,0,3.1,0s1.4,0,1.9,0c0.5,0,0.8,0,1.1,0s0.5,0,0.6,0c0,0.4,0,0.8,0,1.1s0,0.7,0,1v9.8
		c0,0.5,0,1.1,0,1.5c0,0.5,0,1,0.1,1.5h-1.2v-1.1h-11.1V35z M125.2,20.8h-11.1v12h11.1V20.8z M120.1,25.9c0.4,0,0.8,0,1.2,0
		c0.3,0,0.7,0,1,0s0.6,0,0.8,0s0.5,0,0.8-0.1v1.1c-0.3,0-0.5,0-0.8-0.1c-0.3,0-0.5,0-0.8,0c-0.3,0-0.6,0-1,0c-0.3,0-0.7,0-1.2,0v3.4
		c0.9,0,1.8,0,2.6,0c0.8,0,1.4-0.1,1.9-0.1v1.1c-0.5,0-1.2-0.1-2.1-0.1c-0.8,0-1.8,0-2.8,0c-1,0-1.9,0-2.8,0c-0.8,0-1.5,0.1-2.1,0.1
		V30c0.5,0,1,0.1,1.7,0.1c0.7,0,1.5,0,2.3,0.1v-3.4c-0.4,0-0.7,0-1,0c-0.3,0-0.6,0-0.9,0c-0.3,0-0.5,0-0.8,0c-0.2,0-0.5,0-0.7,0.1
		v-1.1c0.2,0,0.5,0,0.7,0.1s0.5,0,0.8,0c0.3,0,0.6,0,0.9,0c0.3,0,0.7,0,1,0v-2.7c-0.8,0-1.5,0-2,0s-1.1,0.1-1.5,0.1v-1.1
		c0.3,0,0.5,0,0.8,0.1s0.6,0,0.9,0s0.7,0,1.1,0s0.9,0,1.4,0c0.5,0,1,0,1.4,0c0.4,0,0.8,0,1.1,0s0.6,0,0.9,0c0.3,0,0.6,0,0.8-0.1v1.1
		c-0.5,0-1-0.1-1.6-0.1c-0.6,0-1.3,0-2.2,0V25.9z M123,29.8c-0.3-0.4-0.5-0.7-0.8-1s-0.7-0.6-1.1-0.9l0.7-0.6
		c0.4,0.3,0.7,0.6,1.1,0.9c0.3,0.3,0.7,0.6,1,1L123,29.8z"/>
	<path class="st6" d="M133,21.1c-0.2,0-0.4,0.1-0.6,0.1c-0.2,0-0.4,0.1-0.7,0.1c-0.2,0-0.4,0.1-0.6,0.1c-0.2,0-0.4,0-0.5,0.1
		c-0.1-0.2-0.1-0.4-0.2-0.6c-0.1-0.1-0.2-0.3-0.3-0.5c1.2,0,2.3-0.1,3.3-0.3s1.8-0.4,2.5-0.8c0.1,0.2,0.2,0.4,0.3,0.5
		c0.1,0.1,0.2,0.2,0.4,0.4c0.1,0.1,0.1,0.1,0.2,0.2s0.1,0.1,0,0.2c0,0-0.1,0.1-0.1,0.1s-0.2,0-0.3,0c0,0-0.1,0-0.3,0
		c-0.1,0-0.3,0-0.5,0s-0.4,0-0.7,0.1c-0.2,0-0.5,0.1-0.7,0.1v3.3c0.5,0,1,0,1.4,0c0.4,0,0.8-0.1,1.1-0.1v1.1c-0.3,0-0.7-0.1-1.1-0.1
		c-0.4,0-0.9,0-1.4,0v1.1c0.5,0.4,1,0.8,1.4,1.3c0.5,0.5,0.8,0.9,1.2,1.3l-1,0.8c-0.2-0.4-0.5-0.8-0.7-1.1c-0.2-0.3-0.6-0.7-0.9-1.1
		v4.8c0,0.4,0,0.9,0,1.5c0,0.5,0.1,1.1,0.1,1.6h-1.3c0-0.5,0.1-1.1,0.1-1.6c0-0.5,0-1,0-1.5v-4.9c-0.3,0.9-0.7,1.7-1.1,2.4
		s-0.8,1.5-1.4,2.3c-0.1-0.2-0.3-0.3-0.5-0.5c-0.2-0.1-0.4-0.3-0.6-0.4c0.7-0.7,1.4-1.6,2-2.6c0.6-1,1.1-2.1,1.6-3.4
		c-0.7,0-1.4,0-1.8,0c-0.5,0-0.9,0.1-1.3,0.1v-1.1c0.4,0,0.8,0.1,1.3,0.1c0.5,0,1.1,0,1.8,0V21.1z M142.1,31.7c0.5-0.5,1-1,1.4-1.5
		c0.4-0.5,0.7-1.1,1-1.8H141c-0.5,0.6-1.1,1.1-1.8,1.7c-0.7,0.5-1.4,1-2.1,1.3c-0.2-0.4-0.5-0.7-0.9-1c0.7-0.2,1.3-0.5,1.9-0.9
		c0.6-0.4,1.1-0.7,1.5-1.2c0.4-0.4,0.8-0.8,1-1.2c0.3-0.4,0.5-0.9,0.8-1.4c0.3,0.2,0.7,0.4,1.1,0.5c0.1,0,0.2,0.1,0.2,0.2
		c0,0.1-0.1,0.2-0.2,0.2c-0.1,0-0.2,0.1-0.4,0.3s-0.3,0.3-0.5,0.6h1.6c0.7,0,1.3,0,1.7,0s0.8,0,0.9-0.1c-0.1,0.5-0.3,1-0.5,1.4
		c-0.2,0.4-0.4,0.9-0.7,1.3c-0.3,0.4-0.6,0.8-0.9,1.2c-0.3,0.4-0.7,0.8-1.2,1.1c-0.4,0.4-0.9,0.7-1.3,0.9s-0.9,0.5-1.4,0.7
		s-1.1,0.4-1.7,0.5s-1.3,0.3-2.2,0.4c-0.1-0.3-0.1-0.5-0.2-0.7c-0.1-0.2-0.2-0.4-0.4-0.5c1.2-0.1,2.3-0.3,3.3-0.6
		c1-0.3,1.9-0.6,2.5-1c-0.2-0.3-0.5-0.6-0.8-0.9s-0.6-0.6-0.9-0.8l0.8-0.8c0.3,0.3,0.7,0.7,0.9,1C141.6,31,141.9,31.4,142.1,31.7z
		 M141.1,24.6c0.4-0.4,0.8-0.8,1.2-1.2c0.4-0.4,0.7-0.9,1-1.4h-4.3c-0.1,0.2-0.3,0.4-0.4,0.6c-0.1,0.2-0.3,0.4-0.4,0.5
		c-0.1,0.2-0.3,0.3-0.5,0.5c-0.2,0.2-0.4,0.4-0.6,0.6c-0.1-0.1-0.2-0.3-0.4-0.4c-0.2-0.1-0.3-0.2-0.5-0.3c0.4-0.3,0.8-0.6,1.2-1
		c0.3-0.4,0.7-0.8,0.9-1.2s0.5-0.8,0.7-1.3s0.3-0.8,0.4-1.2c0.3,0.2,0.7,0.3,1.2,0.3c0.1,0,0.2,0.1,0.2,0.1c0,0.1,0,0.2-0.2,0.2
		c-0.1,0.1-0.2,0.2-0.4,0.4c-0.2,0.2-0.4,0.6-0.7,1.2h2.2c0.4,0,0.8,0,1.1,0c0.3,0,0.7,0,0.9,0s0.5,0,0.7,0c0.2,0,0.3,0,0.4,0
		c-0.2,0.5-0.4,0.9-0.6,1.3c-0.2,0.4-0.4,0.7-0.6,1.1s-0.5,0.6-0.8,1c-0.3,0.3-0.7,0.7-1.1,1.1c-0.6,0.5-1.2,1-2,1.5
		c-0.8,0.5-1.7,0.9-2.6,1.4c-0.2-0.4-0.5-0.8-0.9-1c0.9-0.3,1.7-0.6,2.4-1c0.7-0.3,1.3-0.7,1.8-1c-0.3-0.3-0.5-0.6-0.8-0.8
		c-0.2-0.2-0.5-0.5-0.9-0.7l0.7-0.8c0.3,0.3,0.7,0.6,0.9,0.9S140.8,24.3,141.1,24.6z"/>
	<path class="st6" d="M150.8,25.7c-0.6,0-1.2,0-1.7,0s-0.9,0.1-1.3,0.1v-1.2c0.5,0.1,1,0.1,1.7,0.1c0.7,0,1.4,0,2.3,0
		c0.9,0,1.6,0,2.3,0c0.7,0,1.3-0.1,1.7-0.1v1.2c-0.4-0.1-1-0.1-1.7-0.1c-0.7,0-1.4,0-2.2,0c-0.2,0.5-0.4,1-0.5,1.5
		c-0.2,0.5-0.4,0.9-0.5,1.4c-0.2,0.4-0.4,0.9-0.6,1.3c-0.2,0.4-0.4,0.9-0.7,1.4l4.8-0.6c-0.5-1-1.1-2-1.8-3.1l0.9-0.6
		c0.5,0.8,1,1.7,1.5,2.5c0.4,0.8,0.9,1.7,1.3,2.7l-1.1,0.6c-0.1-0.2-0.1-0.4-0.2-0.6c-0.1-0.2-0.1-0.4-0.2-0.6l-3,0.5
		c-0.8,0.1-1.5,0.2-2,0.4c-0.5,0.1-1,0.3-1.4,0.4c-0.1-0.5-0.3-1-0.6-1.3c0.2,0,0.3-0.1,0.5-0.1c0.1-0.1,0.3-0.2,0.4-0.4
		c0.1-0.2,0.3-0.4,0.4-0.7c0.1-0.3,0.3-0.7,0.5-1.2c0.2-0.4,0.3-0.8,0.4-1.1s0.2-0.6,0.3-0.9c0.1-0.3,0.2-0.5,0.2-0.7
		C150.7,26.1,150.8,25.9,150.8,25.7z M155.4,21.8c-0.4,0-0.9-0.1-1.4-0.1c-0.6,0-1.2,0-1.9,0c-0.7,0-1.3,0-1.9,0
		c-0.6,0-1.1,0.1-1.4,0.1v-1.2c0.4,0,0.9,0.1,1.4,0.1c0.6,0,1.2,0,1.9,0c0.7,0,1.3,0,1.9,0c0.6,0,1-0.1,1.4-0.1V21.8z M159.8,23.5
		c0,1.6-0.1,3-0.2,4.1c-0.1,1.2-0.3,2.2-0.6,3.1s-0.7,1.7-1.2,2.4c-0.5,0.7-1.1,1.4-1.9,2.1c-0.3-0.3-0.7-0.6-1.2-0.8
		c0.8-0.6,1.5-1.2,2.1-1.8c0.5-0.7,0.9-1.4,1.2-2.3s0.5-1.8,0.6-3c0.1-1.1,0.2-2.4,0.2-3.9c-0.3,0-0.6,0-0.9,0c-0.3,0-0.6,0-0.9,0
		c-0.3,0-0.5,0-0.7,0.1c-0.2,0-0.4,0-0.5,0v-1.2c0.3,0,0.7,0.1,1.2,0.1c0.5,0,1.1,0,1.8,0c0-0.6,0-1.1,0-1.6s0-0.8,0-1.1
		c0-0.3,0-0.5,0-0.7s0-0.3-0.1-0.5c0.2,0.1,0.5,0.1,0.7,0.1c0.2,0,0.5,0,0.7,0c0.2,0,0.3,0,0.3,0.1s0,0.2-0.2,0.3
		c-0.1,0-0.1,0.1-0.2,0.2s-0.1,0.2-0.1,0.5c0,0.2,0,0.5-0.1,0.9c0,0.4,0,0.9,0,1.6c0.8,0,1.6,0,2.3,0c0.7,0,1.1-0.1,1.4-0.1
		l-0.3,9.9c0,0.5-0.1,0.9-0.1,1.2c-0.1,0.3-0.2,0.6-0.5,0.7c-0.2,0.2-0.6,0.3-1,0.4c-0.4,0.1-1,0.2-1.8,0.3c0-0.3-0.1-0.6-0.2-0.8
		c-0.1-0.2-0.2-0.5-0.4-0.7c0.6,0.1,1.1,0.1,1.5,0.1s0.7,0,0.9-0.1s0.3-0.2,0.4-0.5c0.1-0.2,0.1-0.5,0.1-0.9l0.3-8.6H159.8z"/>
</g>
<g>
	<path class="st6" d="M345.1,32.6l-1.1-0.7l3.5-5.3c-0.5,0.2-0.9,0.2-1.3,0.2c-1,0-1.9-0.4-2.6-1.1c-0.7-0.7-1.1-1.7-1.1-2.8
		s0.4-2,1.2-2.8c0.8-0.8,1.7-1.1,2.9-1.1s2.1,0.4,2.8,1.2c0.7,0.8,1.1,1.7,1.1,2.8c0,0.6-0.1,1.2-0.4,1.8c-0.2,0.6-0.6,1.3-1.1,2
		L345.1,32.6z M343.8,23c0,0.8,0.3,1.4,0.8,1.9c0.5,0.5,1.2,0.8,1.9,0.8c0.8,0,1.4-0.3,1.9-0.8c0.5-0.5,0.8-1.2,0.8-1.9
		c0-0.7-0.3-1.4-0.8-1.9c-0.5-0.5-1.2-0.8-1.9-0.8c-0.8,0-1.4,0.3-1.9,0.8C344.1,21.6,343.8,22.3,343.8,23z"/>
	<path class="st6" d="M353.3,23.6c0-0.3,0.1-0.6,0.3-0.8c0.2-0.2,0.5-0.3,0.8-0.3s0.5,0.1,0.8,0.3c0.2,0.2,0.3,0.5,0.3,0.8
		c0,0.3-0.1,0.6-0.3,0.8s-0.5,0.3-0.8,0.3c-0.3,0-0.6-0.1-0.8-0.3S353.3,23.9,353.3,23.6z M353.3,31.5c0-0.3,0.1-0.6,0.3-0.8
		s0.5-0.3,0.8-0.3s0.5,0.1,0.8,0.3c0.2,0.2,0.3,0.5,0.3,0.8c0,0.3-0.1,0.6-0.3,0.8c-0.2,0.2-0.5,0.3-0.8,0.3s-0.5-0.1-0.8-0.3
		C353.4,32,353.3,31.8,353.3,31.5z"/>
	<path class="st6" d="M361.6,32.6c-1.4,0-2.5-0.6-3.2-1.7c-0.8-1.1-1.1-2.8-1.1-5.1c0-2.2,0.4-3.9,1.1-5.1s1.8-1.7,3.2-1.7
		c1.4,0,2.5,0.6,3.3,1.8c0.8,1.2,1.2,2.8,1.2,5c0,2.2-0.4,3.9-1.2,5C364,32,362.9,32.6,361.6,32.6z M361.6,20.3
		c-1,0-1.8,0.5-2.3,1.4c-0.6,1-0.8,2.3-0.8,4.2c0,3.7,1,5.6,3.2,5.6c1,0,1.8-0.5,2.4-1.5s0.9-2.4,0.9-4.1c0-1.8-0.3-3.2-0.9-4.1
		C363.4,20.8,362.6,20.3,361.6,20.3z"/>
	<path class="st6" d="M371.5,32.6c-1.4,0-2.5-0.6-3.2-1.7c-0.8-1.1-1.1-2.8-1.1-5.1c0-2.2,0.4-3.9,1.1-5.1s1.8-1.7,3.2-1.7
		c1.4,0,2.5,0.6,3.3,1.8c0.8,1.2,1.2,2.8,1.2,5c0,2.2-0.4,3.9-1.2,5C374,32,372.9,32.6,371.5,32.6z M371.6,20.3
		c-1,0-1.8,0.5-2.3,1.4c-0.6,1-0.8,2.3-0.8,4.2c0,3.7,1,5.6,3.2,5.6c1,0,1.8-0.5,2.4-1.5s0.9-2.4,0.9-4.1c0-1.8-0.3-3.2-0.9-4.1
		C373.3,20.8,372.6,20.3,371.6,20.3z"/>
	<path class="st6" d="M392.5,18.9l6,13.4h-1.4l-2-4.4h-5.6l-2,4.4H386l6.1-13.4H392.5z M392.3,21.7l-2.2,4.9h4.4L392.3,21.7z"/>
	<path class="st6" d="M399.9,32.3l1.8-12.9h0.2l5.3,10.6l5.2-10.6h0.2l1.9,12.9h-1.3l-1.3-9.3l-4.6,9.3H407l-4.6-9.3l-1.3,9.3H399.9
		z"/>
</g>
<g>
	<path class="st6" d="M641,19.4h2.5v12.9h-1.3V20.6h-2L641,19.4z"/>
	<path class="st6" d="M652.6,32.6c-1.4,0-2.5-0.6-3.2-1.7c-0.8-1.1-1.1-2.8-1.1-5.1c0-2.2,0.4-3.9,1.1-5.1s1.8-1.7,3.2-1.7
		c1.4,0,2.5,0.6,3.3,1.8c0.8,1.2,1.2,2.8,1.2,5c0,2.2-0.4,3.9-1.2,5C655,32,653.9,32.6,652.6,32.6z M652.6,20.3
		c-1,0-1.8,0.5-2.3,1.4c-0.6,1-0.8,2.3-0.8,4.2c0,3.7,1,5.6,3.2,5.6c1,0,1.8-0.5,2.4-1.5s0.9-2.4,0.9-4.1c0-1.8-0.3-3.2-0.9-4.1
		C654.4,20.8,653.6,20.3,652.6,20.3z"/>
	<path class="st6" d="M662.5,32.6c-1.4,0-2.5-0.6-3.2-1.7c-0.8-1.1-1.1-2.8-1.1-5.1c0-2.2,0.4-3.9,1.1-5.1s1.8-1.7,3.2-1.7
		c1.4,0,2.5,0.6,3.3,1.8c0.8,1.2,1.2,2.8,1.2,5c0,2.2-0.4,3.9-1.2,5C665,32,663.9,32.6,662.5,32.6z M662.6,20.3
		c-1,0-1.8,0.5-2.3,1.4c-0.6,1-0.8,2.3-0.8,4.2c0,3.7,1,5.6,3.2,5.6c1,0,1.8-0.5,2.4-1.5s0.9-2.4,0.9-4.1c0-1.8-0.3-3.2-0.9-4.1
		C664.4,20.8,663.6,20.3,662.6,20.3z"/>
	<path class="st6" d="M679.7,18.8l-9.4,14.4h-1.2l8.6-13.1c-0.7,0.2-1.4,0.3-2.1,0.3c-0.7,0-1.3,0.1-1.6,0.1l-0.5,0
		c0.4,0.5,0.5,1,0.5,1.6c0,0.9-0.3,1.6-0.9,2.2c-0.6,0.6-1.3,0.9-2.2,0.9c-0.9,0-1.6-0.3-2.2-0.9c-0.6-0.6-0.9-1.3-0.9-2.2
		s0.3-1.6,0.9-2.2c0.6-0.6,1.3-0.9,2.1-0.9c0.3,0,0.8,0.1,1.4,0.2c0.6,0.1,1.3,0.2,2.2,0.2c1.4,0,2.8-0.2,4.1-0.6H679.7z M673,22.1
		c0-0.5-0.2-1-0.6-1.4c-0.4-0.4-0.8-0.6-1.4-0.6c-0.5,0-1,0.2-1.4,0.6s-0.6,0.8-0.6,1.4c0,0.5,0.2,1,0.6,1.4
		c0.4,0.4,0.8,0.6,1.4,0.6c0.5,0,1-0.2,1.4-0.6C672.8,23.1,673,22.6,673,22.1z M675.1,29.6c0-0.8,0.3-1.5,0.9-2.1
		c0.6-0.6,1.3-0.9,2.1-0.9s1.5,0.3,2.1,0.9c0.6,0.6,0.9,1.3,0.9,2.2s-0.3,1.6-0.9,2.2c-0.6,0.6-1.3,0.9-2.1,0.9s-1.5-0.3-2.1-0.9
		C675.4,31.2,675.1,30.5,675.1,29.6z M680,29.6c0-0.5-0.2-1-0.6-1.4s-0.8-0.6-1.4-0.6s-1,0.2-1.4,0.6s-0.6,0.8-0.6,1.4
		c0,0.5,0.2,1,0.6,1.4c0.4,0.4,0.8,0.6,1.4,0.6s1-0.2,1.4-0.6C679.9,30.6,680,30.2,680,29.6z"/>
</g>
<line class="st7" x1="0" y1="133.4" x2="750" y2="133.4"/>
<rect y="1235.9" width="750" height="99.1"/>
<g>
	<path class="st6" d="M316.1,69.2c5.1,5.7,10.9,10.1,17.5,13.4l-1.6,2.8c-6.6-3.5-12.3-8-17-13.6c-4.3,5.3-10,9.8-17.1,13.7
		l-1.5-2.8c7-3.6,12.9-8.1,17.6-13.5H316.1z M331.2,89.5v2.8h-18.8c-1.9,3.8-4.2,7-7,9.9c6.5-0.4,12.7-1,18.6-1.8
		c-1.4-1.8-2.8-3.6-4.5-5.4l2.2-1.4c3.6,4.1,6.4,7.6,8.4,10.6l-2.4,1.7c-0.7-1.1-1.4-2.2-2.2-3.3c-6.2,1-14.1,1.8-23.6,2.4l-0.8-2.5
		c0.7-0.2,1.2-0.4,1.5-0.8c2.6-3,4.7-6,6.4-9.3h-10v-2.8H331.2z M324.9,81.5v2.7h-19.6v-2.7H324.9z"/>
	<path class="st6" d="M356.9,89.2c-0.6,5.9-1.8,9.8-3.7,11.9c-2.1,2.5-6.8,4.1-14.3,4.8l-1.1-2.6c6.5-0.4,10.8-1.7,12.9-3.9
		c1.8-2,3-5.5,3.3-10.4L356.9,89.2z M368.5,98.6h-2.8V86.4h-21.2v12.7h-2.8V83.7h26.9V98.6z M366.1,70.7v10H344v-10H366.1z
		 M363.3,73.3h-16.5v5h16.5V73.3z M372.2,103.6l-1.6,2.4c-4.6-2.4-9.3-4.2-14.1-5.6l1.4-2.2C363.1,99.7,367.8,101.5,372.2,103.6z"/>
	<path class="st6" d="M396.5,69.1v7.2h14.3v18.8h-2.9v-2.5h-11.5v13.6h-3V92.5h-11.4v2.5h-2.9V76.3h14.3v-7.2H396.5z M393.5,89.7
		V79.1h-11.4v10.7H393.5z M407.9,89.7V79.1h-11.5v10.7H407.9z"/>
	<path class="st6" d="M423.8,82.4c-1.1,6.9-2.7,12.8-4.8,17.7l-2.5-1.6c2.1-5.1,3.6-10.7,4.5-16.7L423.8,82.4z M431.1,104.6
		c-2.8,0-4.2-1.4-4.2-4V77.6h2.9v22.3c0,1.2,0.7,1.8,2.2,1.8h7.5c1,0,1.6-0.4,2-1.2c0.5-1,0.8-3.8,1-8.4l2.7,0.9
		c-0.3,5.5-0.9,8.8-1.7,10c-0.8,1-2,1.5-3.6,1.5H431.1z M440.9,79.6l-2.4,1.6c-2.1-3.1-4.9-6.6-8.5-10.3l2.4-1.5
		C436.1,73.3,438.9,76.7,440.9,79.6z M453.5,97.2l-2.6,1.2c-2.1-6.4-4.4-12-6.8-16.9l2.8-0.9C449.3,85.8,451.5,91.3,453.5,97.2z"/>
</g>
<circle class="st8" cx="307.3" cy="210.7" r="4.7"/>
<circle class="st8" cx="424.4" cy="211.7" r="4.7"/>
<circle class="st8" cx="365.9" cy="186" r="4.7"/>
<path class="st9" d="M435.6,343H297.6c-8.2,0-14.8-6.6-14.8-14.8v0c0-8.2,6.6-14.8,14.8-14.8h138.1c8.2,0,14.8,6.6,14.8,14.8v0
	C450.5,336.4,443.8,343,435.6,343z"/>
<g>
	<path class="st6" d="M310.7,316.7c3,3.5,6.6,6.2,10.6,8.3l-0.7,1.2c-4.1-2.2-7.5-4.9-10.4-8.3c-2.6,3.2-6.1,6-10.5,8.4l-0.7-1.2
		c4.3-2.2,7.8-5,10.7-8.3H310.7z M319.8,329v1.3h-11.4c-1.2,2.4-2.7,4.6-4.5,6.5c4.3-0.2,8.4-0.6,12.1-1.2c-0.9-1.2-1.8-2.4-2.9-3.6
		l1-0.6c2.2,2.5,3.9,4.6,5,6.5l-1.1,0.8c-0.4-0.7-0.9-1.4-1.3-2.1c-3.7,0.6-8.5,1.1-14.4,1.5l-0.4-1.2c0.3-0.1,0.5-0.2,0.7-0.4
		c1.8-2,3.2-4,4.3-6.2h-6.3V329H319.8z M316.1,324.2v1.2h-11.6v-1.2H316.1z"/>
	<path class="st6" d="M335.1,328.6c-0.3,3.5-1.1,5.8-2.3,7.1c-1.3,1.5-4.1,2.5-8.4,2.9l-0.5-1.2c3.9-0.3,6.6-1.1,7.8-2.4
		c1.2-1.3,1.8-3.4,2-6.5L335.1,328.6z M342.2,334.4h-1.3v-7.7h-13.3v7.9h-1.3v-9.1h15.9V334.4z M340.7,317.7v5.7h-13v-5.7H340.7z
		 M339.4,318.9H329v3.4h10.4V318.9z M344.4,337.6l-0.7,1.1c-2.8-1.5-5.6-2.6-8.5-3.5l0.7-1C338.9,335.1,341.8,336.3,344.4,337.6z"/>
	<path class="st6" d="M357.6,323.9v-1.7h1.3v1.7h7.2v1.2h-7.2v2.7h10v1.2H364v2.6h3.8v1.2H364v4.1c0,1.2-0.6,1.8-1.9,1.8h-3.5
		l-0.3-1.2c1.2,0,2.3,0.1,3.4,0.1c0.7,0,1-0.3,1-0.9v-3.8H349v-1.2h13.7v-2.6h-15.1v-1.2h10v-2.7h-7.3v-1.2H357.6z M348.8,322.8
		l-1.1-0.7c1.4-1.6,2.5-3.4,3.1-5.5l1.3,0.3c-0.2,0.6-0.4,1.2-0.6,1.7h6.5v1.1h-4.3c0.7,0.9,1.2,1.8,1.7,2.6l-1.2,0.4
		c-0.5-1-1.2-2-1.9-3h-1.3C350.3,320.9,349.6,321.9,348.8,322.8z M355.9,337l-1,0.7c-0.7-1.1-1.8-2.2-3.1-3.5l1.1-0.7
		C354.1,334.9,355.2,336,355.9,337z M359.2,321.9l-1.1-0.7c1.1-1.4,1.8-2.9,2.4-4.6l1.2,0.3c-0.2,0.6-0.4,1.1-0.6,1.7h7.2v1.1h-4.7
		c0.7,0.9,1.3,1.8,1.7,2.6l-1.2,0.5c-0.6-1.1-1.2-2.1-1.9-3h-1.6C360.2,320.4,359.7,321.2,359.2,321.9z"/>
	<path class="st6" d="M378.6,335c-2.1,0.9-4.5,1.6-7.2,2.1l-0.2-1.3c2.8-0.5,5.2-1.2,7.3-2.1V335z M377.1,317.2
		c-1.3,3.2-2.7,5.6-4,7.5c1.3-0.1,2.6-0.3,4-0.5c0.5-0.8,1-1.7,1.5-2.6l1.2,0.5c-2.4,4.1-4.3,7-5.8,8.6c1.9-0.3,3.7-0.8,5.6-1.4v1.2
		c-2.5,0.7-4.9,1.3-7.2,1.6l-0.4-1.2c0.2-0.1,0.4-0.2,0.6-0.4c1.1-1,2.4-2.7,3.8-5.1c-1.5,0.2-3,0.4-4.5,0.6l-0.3-1.2
		c0.2-0.1,0.4-0.2,0.6-0.5c1.5-2.2,2.7-4.7,3.8-7.6L377.1,317.2z M379.9,319.1v-1.2h10.3v0.8c-0.4,2.3-0.8,4.2-1.2,5.8h3.1v0.8
		c-0.5,3.4-1.7,6.2-3.4,8.5c1.3,1.4,2.8,2.7,4.5,3.8l-0.8,1.1c-1.8-1.2-3.3-2.5-4.5-3.9c-1.4,1.6-3.2,2.9-5.4,4l-0.7-1.2
		c2.1-1.1,3.9-2.3,5.3-3.8c-1.7-2.2-2.9-4.7-3.6-7.5c-0.7,5.4-2.3,9.6-4.9,12.4l-1-0.8c3.2-3.6,4.8-9.3,4.9-17.1v-1.5H379.9z
		 M390.8,325.6h-3.4c0.4-1.5,0.9-3.6,1.4-6.5h-5.1v1.5c0,0.8,0,1.6-0.1,2.4c0.6,3.7,2,7,4.2,9.7
		C389.3,330.6,390.3,328.3,390.8,325.6z"/>
	<path class="st6" d="M401.1,322.3c0.2,0.2,0.3,0.5,0.3,0.9c0,0.3-0.1,0.6-0.3,0.9c-0.2,0.2-0.6,0.4-0.9,0.4c-0.4,0-0.6-0.1-0.9-0.4
		s-0.3-0.5-0.3-0.9c0-0.4,0.1-0.6,0.3-0.9c0.2-0.2,0.5-0.4,0.9-0.4C400.5,321.9,400.9,322,401.1,322.3z M401.1,331.1
		c0.2,0.2,0.3,0.5,0.3,0.9c0,0.3-0.1,0.6-0.3,0.9c-0.2,0.2-0.6,0.4-0.9,0.4c-0.4,0-0.6-0.1-0.9-0.4s-0.3-0.5-0.3-0.9
		c0-0.4,0.1-0.6,0.3-0.9c0.2-0.2,0.5-0.4,0.9-0.4C400.5,330.7,400.9,330.8,401.1,331.1z"/>
	<path class="st6" d="M429.4,320c1,0.8,1.4,2,1.4,3.4c0,2-0.9,3.3-2.8,3.9c1,0.3,1.8,0.8,2.3,1.5c0.6,0.7,0.8,1.5,0.8,2.5
		c0,1.5-0.6,2.8-1.6,3.8c-1.1,1-2.5,1.5-4.2,1.5c-1.5,0-2.8-0.4-3.8-1.2c-1.2-1-1.9-2.4-2.1-4.3h1.5c0.1,1.5,0.6,2.6,1.5,3.3
		c0.8,0.6,1.7,0.9,2.8,0.9c1.3,0,2.4-0.4,3.2-1.1c0.8-0.7,1.2-1.7,1.2-2.8c0-1.1-0.4-1.9-1.1-2.5c-0.7-0.6-1.7-0.9-2.9-0.9h-1.5
		v-1.2h1.4c1.2,0,2.2-0.3,2.8-0.8c0.6-0.6,1-1.4,1-2.4c0-1-0.3-1.8-1-2.4c-0.7-0.6-1.7-0.9-2.9-0.9c-1.2,0-2.2,0.3-2.9,1
		c-0.7,0.7-1.2,1.6-1.3,2.9H420c0.1-1.6,0.7-2.9,1.8-3.8c1-0.9,2.3-1.4,3.8-1.4C427.2,318.8,428.5,319.2,429.4,320z"/>
</g>
<path class="st10" d="M459.3,1204.6H294.7c-16.7,0-30.3-13.6-30.3-30.3v0c0-16.7,13.6-30.3,30.3-30.3h164.6
	c16.7,0,30.3,13.6,30.3,30.3v0C489.6,1191,476,1204.6,459.3,1204.6z"/>
<g>
	<path class="st6" d="M341.9,1160.2c-1.4,3.7-2.8,6.8-4.2,9.1c1-0.1,2-0.3,3.1-0.5c0.5-1,1.1-2.1,1.7-3.2l2.8,1.1
		c-2.6,4.7-4.7,8.2-6.4,10.3c1.7-0.4,3.4-0.9,5.1-1.5v2.8c-3.1,1-6,1.7-8.7,2.1l-0.8-2.8c0.5-0.2,1-0.5,1.4-0.9c1-1,2.1-2.7,3.6-5.2
		c-1.4,0.2-2.9,0.4-4.4,0.7l-0.7-2.8c0.4-0.2,0.9-0.5,1.2-1.1c1.3-2.8,2.6-5.9,3.6-9.3L341.9,1160.2z M344.3,1184.3
		c-2.8,1.1-5.9,2-9.4,2.7l-0.4-3c3.7-0.6,6.9-1.5,9.7-2.6V1184.3z M349.4,1177.4c-1.5-1.2-2.9-2.2-4.4-3l1.4-2.1
		c1.7,0.8,3.3,1.8,4.7,3l-1.3,2h3.8c0.1-0.6,0.1-1.2,0.2-1.8v-6h2.9v6c0,0.6-0.1,1.2-0.1,1.8h7.2v2.8h-7.7c-0.1,0.4-0.2,0.7-0.4,1.1
		c3,1.4,5.8,3,8.3,4.9l-1.7,2.6c-2.6-2.2-5.1-3.9-7.7-5.2c-0.1,0.2-0.3,0.4-0.4,0.6c-1.5,2-4.1,3.5-7.5,4.6l-1.7-2.7
		c3.4-1,5.6-2.3,6.8-3.9c0.4-0.6,0.8-1.3,1.1-2h-7.9v-2.8H349.4z M352.7,1160.9v-1.9h2.9v1.9h6.6v2.8h-6.6v2.2h7.2v1.9
		c-0.4,2-1.1,4.1-1.8,6l-2.9-0.8c0.6-1.2,1.2-2.7,1.6-4.3h-14.2v-2.8h7.2v-2.2h-6.2v-2.8H352.7z M353.2,1171.9l-1.4,2.1
		c-1.4-1.3-2.8-2.2-4.3-2.9l1.3-2C350.4,1169.8,351.9,1170.8,353.2,1171.9z"/>
	<path class="st6" d="M401.9,1178.4c-0.4,3.7-1.4,6.1-2.9,7.3c-1.6,1.5-5.4,2.6-11.3,3l-1.2-2.7c5-0.2,8.4-0.9,10-2
		c1.4-1.2,2.2-3.1,2.5-5.9L401.9,1178.4z M405,1168.4h8.4c0,2.5-0.3,4.1-0.8,4.7c-0.5,0.7-1.7,1.1-3.6,1.1c-0.5,0-1,0-1.5-0.1
		l-0.5-2.1c0.6,0.1,1.2,0.1,1.7,0.1c0.8,0,1.3-0.1,1.5-0.4c0.2-0.3,0.3-0.6,0.3-1.1H405v3.3h-2.9v-3.3h-5.2c-0.4,0.8-0.9,1.5-1.5,2
		c-0.7,0.7-1.7,1.3-2.9,1.9h18.3v8.9h-3v-6.2h-14.7v6.2h-3v-8c-0.6,0.2-1.3,0.4-2,0.5l-1.5-2.4c3.2-0.7,5.4-1.6,6.6-2.7
		c0.1-0.1,0.2-0.3,0.3-0.3h-5.8l1.2-6.2h6.1v-1.6h-7.1v-2.5h7.1v-1.4h2.9v1.4h4.1v-1.4h2.9v1.4h6.8v6.4H405V1168.4z M390.9,1168.4
		h3.8c0.1-0.5,0.2-1,0.3-1.6h-3.6L390.9,1168.4z M397.7,1168.4h4.4v-1.6h-4.2C397.9,1167.4,397.8,1167.9,397.7,1168.4z
		 M397.9,1164.5h4.1v-1.6h-4.1V1164.5z M413.7,1186.4l-1.7,2.5c-3.6-1.6-7.3-2.8-11.2-3.7l1.5-2.3
		C406.5,1183.9,410.3,1185,413.7,1186.4z M405,1164.5h4v-1.6h-4V1164.5z"/>
</g>
<g>
	<path d="M82.1,551.2c-1.7-0.1-3-0.2-4-0.5c-1-0.3-1.9-0.9-2.8-1.9c-0.3-0.5-0.7-0.7-1-0.7c-0.7,0-1.8,1.2-3.3,3.6l-1.1-0.9
		c1.5-2.3,2.7-3.6,3.8-4v-8.3h-3.8v-1.4H75v9.8c0.3,0.1,0.5,0.4,0.8,0.7c0.6,0.8,1.3,1.4,2.1,1.7c0.8,0.3,2,0.5,3.5,0.5
		c1.3,0,3,0.1,5,0.1h3.6c1.2-0.1,2.1-0.1,2.8-0.1l-0.3,1.4h-5.9C85.2,551.3,83.7,551.2,82.1,551.2z M75.8,532.6l-1,1
		c-1.1-1.3-2.6-2.7-4.4-4.1l1-0.9C73.1,529.9,74.6,531.2,75.8,532.6z M81,532.3V528h1.4v4.3h4.5V528h1.4v4.2h3.4v1.3h-3.4v5.6h4.3
		v1.4h-4.3v7.7h-1.4v-7.7h-5c-0.7,3.2-2,5.6-4.1,7.1l-0.8-1.1c1.8-1.3,2.9-3.3,3.5-6h-3.6v-1.4h3.9c0.2-1,0.2-2.2,0.2-3.4v-2.2h-3.2
		v-1.3H81z M82.4,535.5c0,1.3-0.1,2.5-0.2,3.7h4.8v-5.6h-4.5V535.5z"/>
	<path d="M98.9,535.4v-6.8h1.4v6.8h3.5v1.4h-3.5v9.6c1.2-0.4,2.4-0.8,3.6-1.2v1.4c-2.5,1-5.3,1.8-8.2,2.4l-0.4-1.5
		c1.2-0.2,2.4-0.5,3.6-0.8v-10h-3.3v-1.4H98.9z M105.1,538.5v-1.3c3.3-2,6.4-4,9.2-6.3h-8.9v-1.3h10.9v1.3c-2.7,2.3-5.6,4.4-8.7,6.4
		H118c-0.1,5.9-0.4,9.7-0.8,11.4c-0.4,1.8-1.6,2.7-3.4,2.7c-0.9,0-1.7,0-2.5-0.1l-0.4-1.4c0.9,0.1,1.8,0.1,2.7,0.1
		c1.1-0.1,1.8-0.6,2.2-1.6c0.4-1,0.6-4.3,0.8-10h-2.3c-0.6,3.2-1.6,5.8-2.8,7.6c-1.4,1.9-3.4,3.7-6.1,5.3l-0.9-1.1
		c2.5-1.4,4.4-3,5.7-4.7c1.2-1.8,2.1-4.1,2.7-7.1h-2.4c-1,3.3-2.6,5.9-5,7.7l-0.9-1.1c2.2-1.7,3.7-3.9,4.6-6.6H105.1z"/>
	<path d="M127.6,543.2c-1.5,3.1-3.3,5.6-5.6,7.3l-0.7-1.2c2.2-1.8,4.1-4.2,5.4-7.3c-1.7-2.2-3.3-4.2-4.8-5.9l1-0.9
		c1.4,1.4,2.9,3.2,4.5,5.3c0.8-2.3,1.5-5,1.9-8h-7.5v-1.4h8.9v1.3c-0.5,3.5-1.3,6.6-2.4,9.3c1,1.4,2.1,3,3.3,4.7l-1,1
		C129.5,545.9,128.5,544.5,127.6,543.2z M138.7,535.6c0,1.8-0.1,3.4-0.3,4.8c1.3,4.2,3.5,7.6,6.6,10.1l-1,1.1
		c-2.7-2.4-4.7-5.3-6-8.8c-0.1,0.4-0.2,0.9-0.3,1.3c-0.9,3.1-3.1,5.6-6.3,7.5l-0.9-1.1c2.9-1.7,4.8-3.9,5.8-6.5
		c0.7-2.2,1.1-5,1.1-8.4H138.7z M136.3,528c-0.2,1.5-0.5,2.9-0.8,4.2h8.5v0.9c-0.4,2.3-1,4.5-1.7,6.7l-1.4-0.4
		c0.7-1.7,1.2-3.7,1.6-5.8h-7.4c-0.6,2-1.5,3.6-2.4,4.9l-1.1-0.8c1.8-2.4,2.9-5.7,3.4-9.9L136.3,528z"/>
	<path d="M160.3,551.2c-1.8-0.1-3.2-0.2-4.2-0.5c-1.1-0.3-2-0.9-2.9-1.9c-0.4-0.5-0.7-0.7-1-0.7c-0.7,0-1.9,1.3-3.5,3.8l-1-0.9
		c1.5-2.4,2.8-3.8,3.9-4.1v-8.4h-3.9v-1.3h5.2v9.7c0.3,0.1,0.6,0.4,0.9,0.7c0.7,0.8,1.4,1.4,2.2,1.7c0.9,0.3,2.1,0.5,3.7,0.6
		c1.4,0,3.1,0.1,5.3,0.1c1.1,0,2.3,0,3.4,0c1.2-0.1,2.1-0.1,2.7-0.1l-0.3,1.4h-5.6C163.7,551.3,162,551.2,160.3,551.2z M153.7,532.4
		l-1,1c-1-1.2-2.5-2.6-4.3-4l1-0.9C151.1,529.7,152.5,531.1,153.7,532.4z M155.5,544.9c0.3-0.2,0.5-0.4,0.5-0.8v-13.7
		c2.2-0.7,4-1.5,5.2-2.3l0.8,1.2c-1.1,0.8-2.7,1.4-4.7,2.1v13.1c1.5-0.4,3-0.8,4.4-1.3l0.3,1.4c-1.7,0.5-3.7,1.1-6.1,1.7
		L155.5,544.9z M166,545.4l-0.4-1.4l1.9,0.1c0.7,0,1-0.3,1-0.9V531h-4.1v17.8h-1.4v-19h6.8v13.7c0,1.3-0.6,1.9-1.9,1.9H166z"/>
</g>
<g class="st11">
	<path d="M89.7,585.8c-1.3,0-2.3-0.2-3.1-0.4c-0.8-0.2-1.5-0.7-2.1-1.5c-0.3-0.4-0.5-0.5-0.8-0.5c-0.5,0-1.4,0.9-2.6,2.8l-0.8-0.7
		c1.1-1.7,2.1-2.8,2.9-3v-6.4h-3v-1h4v7.5c0.2,0.1,0.4,0.3,0.6,0.5c0.5,0.6,1,1,1.6,1.3c0.6,0.2,1.5,0.4,2.7,0.4c1,0,2.3,0,3.8,0
		h2.8c0.9,0,1.6-0.1,2.2-0.1l-0.3,1.1h-4.5C92.1,585.9,90.9,585.9,89.7,585.8z M84.8,571.5l-0.8,0.8c-0.8-1-2-2-3.4-3.1l0.8-0.7
		C82.8,569.5,83.9,570.5,84.8,571.5z M88.9,571.3V568h1.1v3.3h3.5V568h1.1v3.3h2.6v1h-2.6v4.3h3.3v1h-3.3v5.9h-1.1v-5.9h-3.8
		c-0.5,2.5-1.6,4.3-3.1,5.5l-0.6-0.9c1.4-1,2.3-2.5,2.7-4.6h-2.8v-1h3c0.1-0.8,0.2-1.7,0.2-2.6v-1.7h-2.5v-1H88.9z M89.9,573.8
		c0,1-0.1,2-0.2,2.8h3.7v-4.3h-3.5V573.8z"/>
	<path d="M102.6,573.7v-5.2h1.1v5.2h2.7v1.1h-2.7v7.4c0.9-0.3,1.9-0.6,2.7-0.9v1.1c-1.9,0.7-4.1,1.4-6.3,1.8l-0.3-1.1
		c1-0.2,1.9-0.4,2.8-0.6v-7.7h-2.6v-1.1H102.6z M107.4,576.1v-1c2.6-1.5,4.9-3.1,7-4.8h-6.8v-1h8.4v1c-2.1,1.8-4.3,3.4-6.7,4.9h8
		c-0.1,4.5-0.3,7.5-0.6,8.8c-0.3,1.4-1.2,2-2.6,2.1c-0.7,0-1.3,0-1.9,0l-0.3-1.1c0.7,0,1.4,0.1,2,0.1c0.8,0,1.4-0.4,1.7-1.2
		c0.3-0.7,0.5-3.3,0.6-7.7h-1.7c-0.5,2.5-1.2,4.4-2.1,5.9c-1,1.5-2.6,2.8-4.7,4l-0.7-0.8c2-1.1,3.4-2.3,4.4-3.6
		c1-1.4,1.6-3.2,2.1-5.4h-1.9c-0.7,2.5-2,4.5-3.9,5.9l-0.7-0.8c1.7-1.3,2.9-3,3.5-5.1H107.4z"/>
	<path d="M127.5,577.8v6.8h3.1v-6.8h1.1v6.8h6.1v1.1h-17.5v-1.1h6.1v-6.8H127.5z M124.6,582.8l-0.8,0.6c-0.6-1.3-1.5-2.7-2.5-4.2
		l0.9-0.6C123.2,580.2,124.1,581.6,124.6,582.8z M135.5,568.8v7.9h-12.9v-7.9H135.5z M134.4,572.3v-2.5h-10.8v2.5H134.4z
		 M134.4,573.3h-10.8v2.4h10.8V573.3z M136.8,578.7c-0.8,1.8-1.6,3.4-2.7,4.7l-0.8-0.6c1-1.3,1.8-2.8,2.5-4.6L136.8,578.7z"/>
	<path d="M144.8,578c-0.8,2.7-2,5.1-3.6,7.1l-0.9-0.6c1.6-2,2.7-4.3,3.5-6.8L144.8,578z M145.4,586l-0.2-1c0.9,0,1.7,0.1,2.4,0.1
		c0.6,0,1-0.3,1-0.9v-8.7h-8v-1.1h17v1.1h-7.8v9c0,1.1-0.6,1.6-1.7,1.6H145.4z M155.7,569.2v1.1h-13.3v-1.1H155.7z M157.5,584.5
		l-1,0.4c-1.1-2.6-2.3-5-3.6-7l1-0.3C155.3,579.8,156.5,582.1,157.5,584.5z"/>
	<path d="M69.4,591c2.5,2.9,5.5,5.2,8.8,6.9l-0.6,1c-3.4-1.8-6.3-4.1-8.6-6.9c-2.2,2.7-5.1,5-8.7,7l-0.6-1c3.6-1.8,6.5-4.1,8.9-6.9
		H69.4z M77,601.3v1.1h-9.5c-1,2-2.3,3.8-3.8,5.4c3.6-0.2,7-0.5,10.1-1c-0.7-1-1.5-2-2.4-3l0.8-0.5c1.8,2.1,3.2,3.9,4.2,5.4
		l-0.9,0.6c-0.3-0.6-0.7-1.1-1.1-1.7c-3.1,0.5-7.1,0.9-12,1.2l-0.3-1c0.3-0.1,0.4-0.2,0.6-0.3c1.5-1.6,2.7-3.4,3.6-5.2H61v-1.1H77z
		 M73.9,597.3v1h-9.7v-1H73.9z"/>
	<path d="M89.7,600.9c-0.3,2.9-0.9,4.9-1.9,5.9c-1.1,1.3-3.4,2.1-7,2.4l-0.4-1c3.3-0.2,5.5-0.9,6.5-2c1-1.1,1.5-2.9,1.7-5.4
		L89.7,600.9z M95.6,605.7h-1.1v-6.4H83.5v6.6h-1.1v-7.6h13.3V605.7z M94.4,591.9v4.8H83.6v-4.8H94.4z M93.4,592.8h-8.7v2.8h8.7
		V592.8z M97.5,608.4l-0.6,0.9c-2.3-1.2-4.7-2.2-7.1-2.9l0.6-0.8C92.9,606.4,95.3,607.3,97.5,608.4z"/>
	<path d="M102,594.9c-0.1,2-0.5,3.9-1.1,5.7l-0.9-0.3c0.7-1.7,1-3.6,1.1-5.5L102,594.9z M107.3,594.8c-0.7,1-1.7,2.1-2.9,3.1v0.4
		c0,1.4-0.1,2.6-0.3,3.8c1,1.1,2.1,2.4,3.2,3.9l-0.7,0.9c-1.1-1.6-2-2.8-2.7-3.7c-0.6,2.6-1.6,4.7-3.1,6.2l-0.8-0.7
		c2.2-2.1,3.4-5.6,3.4-10.3v-7.1h1v5.6c0.9-0.9,1.7-1.8,2.3-2.7L107.3,594.8z M117.9,609.2l-1,0.3c-0.2-0.8-0.4-1.5-0.6-2.3
		c-2.6,0.6-5.5,1.1-8.7,1.4l-0.2-1c1.6-0.9,3.3-2.9,5.2-6c-1.6,0.2-3.2,0.4-4.8,0.6l-0.3-0.9c0.2-0.1,0.3-0.2,0.4-0.4
		c1.4-1.7,2.5-3.7,3.6-6h-3.9v-1h4.5c-0.3-1-0.7-1.8-1.1-2.6l1.1-0.2c0.4,0.8,0.7,1.7,1.1,2.8h4.5v1h-5.1c-1.3,2.7-2.6,4.8-3.9,6.3
		c1.4-0.1,2.9-0.3,4.4-0.5c0.6-1,1.2-2.1,1.8-3.3l1,0.3c-2.3,4.4-4.6,7.7-6.8,9.9c2.4-0.3,4.7-0.7,6.7-1.2c-0.3-1-0.7-2-1-3l0.9-0.3
		C116.7,604.7,117.3,606.8,117.9,609.2z"/>
	<path d="M128.4,591.9v1h-2.6v2.7h2v13.6h-0.9V608h-5.3v1.2h-0.9v-13.6h2v-2.7H120v-1H128.4z M121.6,603.8h5.3v-2.2h-1.2
		c-0.5,0-0.8-0.3-0.8-1v-4.1h-1.3v1.5c0,2.1-0.5,3.6-1.5,4.6l-0.4-0.4V603.8z M121.6,596.5v5.5c0.8-0.9,1.3-2.2,1.3-4v-1.5H121.6z
		 M126.9,607.1v-2.4h-5.3v2.4H126.9z M125,595.6v-2.7h-1.4v2.7H125z M126.9,596.5h-1.3v4c0,0.2,0.1,0.4,0.2,0.4h1.1V596.5z
		 M129.4,597.5l-0.8-0.5c0.8-1.6,1.5-3.4,1.9-5.4l0.9,0.2c-0.2,0.9-0.4,1.7-0.6,2.4h2.3v-3.1h1v3.1h3.6v1h-3.6v3.6h3.9v1h-9.3v-1
		h4.4v-3.6h-2.6C130.1,596,129.8,596.8,129.4,597.5z M137.1,609.2h-1v-1h-5.4v1h-1V602h7.4V609.2z M136.1,607.3V603h-5.4v4.2H136.1z
		"/>
	<path d="M140.9,599.4l-1-0.3c0.6-2.1,1-4.2,1.1-6.5l1,0.1c0,0.9-0.1,1.8-0.2,2.6h2.1V591h1.1v4.3h2v1h-2v5.2c0.7-0.3,1.3-0.5,2-0.8
		v1c-0.7,0.3-1.3,0.6-2,0.9v6.6h-1.1V603c-1.2,0.4-2.4,0.8-3.6,1.1l-0.3-1c1.3-0.3,2.6-0.7,3.9-1.1v-5.6h-2.2
		C141.4,597.4,141.2,598.4,140.9,599.4z M153.3,591v2.2h3.8v1h-3.8v2.6h4.7v1h-10.5v-1h4.7v-2.6h-3.6v-1h3.6V591H153.3z
		 M154.5,600.6v-1.4h1.1v1.4h2.3v1h-2.3v6c0,1-0.5,1.5-1.4,1.5h-2.6l-0.2-1c0.8,0,1.7,0.1,2.4,0.1c0.4,0,0.7-0.3,0.7-0.8v-5.7H148
		v-1H154.5z M151.7,605.9l-0.9,0.6c-0.6-1-1.4-2-2.4-3.2l0.9-0.5C150.3,604,151.1,605,151.7,605.9z"/>
	<path d="M165,602.6c0.5-1,0.9-2,1.3-3.2l1,0.4c-0.4,1.3-0.9,2.5-1.4,3.6c0.9,0.9,1.7,1.8,2.5,2.7l-0.7,0.8
		c-0.8-0.9-1.5-1.7-2.3-2.5c-1.2,2-2.9,3.6-4.8,4.7l-0.7-1c1.9-1.1,3.5-2.6,4.7-4.5c-0.9-0.9-1.8-1.7-2.7-2.4l0.7-0.8
		C163.4,601.1,164.2,601.9,165,602.6z M163.8,595.9c-0.8,1.8-1.8,3.4-3,4.8l-0.9-0.6c1.1-1.3,2.1-2.8,2.9-4.6L163.8,595.9z
		 M165.5,593.2h3.8v1.1h-9.2v-1.1h4.3c-0.3-0.8-0.7-1.6-1-2.2l1.1-0.2C164.9,591.5,165.2,592.3,165.5,593.2z M165.3,596l0.7-0.7
		c0.8,0.6,1.7,1.6,2.8,2.9l-0.7,0.7C167.1,597.8,166.2,596.8,165.3,596z M170.7,598.5c-0.4,0.8-0.8,1.6-1.3,2.3l-0.7-0.8
		c1.4-2.2,2.4-5.2,2.9-9l1.1,0.2c-0.2,1.2-0.4,2.3-0.6,3.3h5.8v1.1h-1.8c-0.1,3.2-0.8,6-2.2,8.4c1.2,2,2.6,3.4,4.3,4.5l-0.7,0.9
		c-1.7-1.1-3.1-2.5-4.2-4.4c-1.3,1.8-2.9,3.3-5,4.5l-0.6-1c2.2-1.2,3.8-2.7,5-4.5C172,602.2,171.3,600.4,170.7,598.5z M171.3,597
		c0.5,2.2,1.2,4.1,2,5.7c1.1-2.1,1.7-4.5,1.7-7.3h-3.3C171.7,596,171.5,596.5,171.3,597z"/>
</g>
<g class="st11">
	<path d="M91.4,816.9v1.1H80v-1.1H91.4z M84.7,804.8l-0.3,2.9h12.4v1.1H84.3l-0.4,3.6h11.3c0,5.3-0.4,8.4-1.1,9.2
		c-0.8,0.8-2.3,1.2-4.7,1.2c-0.6,0-1.3,0-1.9,0l-0.3-1c1,0,1.6,0.1,2,0.1c2.4,0,3.8-0.4,4.3-1.2c0.5-0.8,0.7-3.3,0.7-7.3H82.7
		l0.9-8.6L84.7,804.8z"/>
	<path d="M109.4,804.8c2.4,3.2,5.3,5.7,8.5,7.5l-0.6,1c-3.2-1.9-6-4.4-8.3-7.5c-2.1,2.9-4.9,5.4-8.4,7.6l-0.5-1
		c3.4-2,6.3-4.5,8.6-7.6H109.4z M105.8,811.9c0,1.4-0.1,2.6-0.3,3.7c1.3,1.2,2.4,2.4,3.3,3.7l-0.8,0.8c-0.7-1.1-1.6-2.2-2.7-3.4
		c-0.1,0.3-0.2,0.6-0.2,0.9c-0.7,2.1-2.1,3.8-4.4,5.1l-0.7-0.8c2-1.1,3.3-2.6,4-4.3c0.5-1.5,0.7-3.4,0.8-5.6H105.8z M112.9,811.7
		c0,1.2-0.1,2.3-0.2,3.4c1,2.9,2.8,5.2,5.3,6.8l-0.7,0.8c-2.2-1.6-3.9-3.5-5-5.9l-0.2,0.7c-0.6,2.1-1.9,3.9-3.9,5.2l-0.7-0.8
		c1.7-1.2,2.9-2.6,3.5-4.5c0.4-1.5,0.7-3.5,0.7-5.8H112.9z"/>
	<path d="M137.4,806v1.1h-6.5c-0.4,0.9-0.8,1.7-1.3,2.5v13.6h-1.1v-11.9c-1.9,2.5-4.5,4.7-7.7,6.6l-0.7-0.9c4.7-2.7,7.9-6,9.6-9.9
		h-9.1V806H137.4z M138,816.9l-0.8,0.8c-1.4-1.8-3.4-3.7-5.8-5.7l0.8-0.8C134.4,813.1,136.4,815,138,816.9z"/>
	<path d="M152.6,823l-0.3-1.1l2.6,0.1c0.6,0,0.9-0.3,0.9-0.9v-14.3h-13.6v16.3h-1.1v-17.4h15.8v15.6c0,1.2-0.5,1.7-1.6,1.7H152.6z
		 M154.2,809.3v1h-10.3v-1H154.2z M153,812.8v6.3h-7.9v-6.3H153z M151.9,813.8h-5.8v4.3h5.8V813.8z"/>
	<path d="M76.9,844.8h-1v-1.2h-4v1.8h-1v-14h1.8c0.4-1.1,0.7-2.3,0.9-3.6l1.1,0.1c-0.2,1.2-0.5,2.4-1,3.4h3.3V844.8z M75.9,836.9
		v-4.5h-4v4.5H75.9z M75.9,842.6v-4.7h-4v4.7H75.9z M87,843.4c-0.2,1.6-1.1,2.4-2.8,2.4c-0.4,0-1,0-2,0l-0.3-1
		c0.8,0,1.5,0.1,2.1,0.1c1.1,0,1.7-0.6,1.9-1.8c0.2-1.2,0.2-4.7,0.3-10.5h-5.9c-0.6,1.3-1.2,2.5-2,3.5l-0.6-0.8
		c1.4-2,2.4-4.5,2.9-7.4l1.1,0.1c-0.2,1.2-0.5,2.4-0.9,3.5h6.5C87.3,837.9,87.2,841.9,87,843.4z M83.8,840.3l-0.9,0.6
		c-0.8-1.4-2-2.8-3.5-4.5l0.9-0.6C81.8,837.6,83,839.1,83.8,840.3z"/>
	<path d="M99.4,827.8c2.5,2.9,5.5,5.2,8.8,6.9l-0.6,1c-3.4-1.8-6.3-4.1-8.6-6.9c-2.2,2.7-5.1,5-8.7,7l-0.6-1
		c3.6-1.8,6.5-4.1,8.9-6.9H99.4z M107,838.1v1.1h-9.5c-1,2-2.3,3.8-3.8,5.4c3.6-0.2,7-0.5,10.1-1c-0.7-1-1.5-2-2.4-3l0.8-0.5
		c1.8,2.1,3.2,3.9,4.2,5.4l-0.9,0.6c-0.3-0.6-0.7-1.1-1.1-1.7c-3.1,0.5-7.1,0.9-12,1.2l-0.3-1c0.3-0.1,0.4-0.2,0.6-0.3
		c1.5-1.6,2.7-3.4,3.6-5.2H91v-1.1H107z M103.9,834.1v1h-9.7v-1H103.9z"/>
	<path d="M119.7,837.8c-0.3,2.9-0.9,4.9-1.9,5.9c-1.1,1.3-3.4,2.1-7,2.4l-0.4-1c3.3-0.2,5.5-0.9,6.5-2c1-1.1,1.5-2.9,1.7-5.4
		L119.7,837.8z M125.6,842.5h-1.1v-6.4h-11.1v6.6h-1.1v-7.6h13.3V842.5z M124.4,828.7v4.8h-10.8v-4.8H124.4z M123.4,829.6h-8.7v2.8
		h8.7V829.6z M127.5,845.2l-0.6,0.9c-2.3-1.2-4.7-2.2-7.1-2.9l0.6-0.8C122.9,843.2,125.3,844.1,127.5,845.2z"/>
	<path d="M131.4,837.7h4.4c0,3.3-0.1,5.5-0.3,6.5c-0.3,1.1-1.3,1.7-3,1.8c-0.4,0-0.9,0-1.3-0.1l-0.3-1c0.5,0.1,0.9,0.1,1.4,0.1
		c1.3,0,2-0.4,2.3-1.2c0.2-0.8,0.3-2.5,0.3-5.1h-4.5l0.5-5.5h3.7v-3.4h-4v-1h5.1v5.3h-3.9L131.4,837.7z M143.4,831.1
		c0.6-1.1,1.1-2.2,1.6-3.4l1,0.4c-0.4,1.2-1,2.2-1.5,3.1h2.7v7.8h-4.3v2.1h5.3v1h-5.3v4h-1.1v-4h-5.2v-1h5.2V839h-4.3v-7.8H143.4z
		 M141.7,834.6v-2.5h-3.3v2.5H141.7z M141.7,835.5h-3.3v2.5h3.3V835.5z M141.2,830.5l-0.9,0.4c-0.5-1-1.1-2-1.7-2.8l1-0.3
		C140.2,828.6,140.7,829.5,141.2,830.5z M142.8,834.6h3.3v-2.5h-3.3V834.6z M146.2,835.5h-3.3v2.5h3.3V835.5z"/>
	<path d="M154.4,842.1v3.4h-1v-4.2c-0.9,0.4-1.9,0.9-2.9,1.2l-0.5-0.9c2.4-0.8,4.2-1.7,5.4-2.8h-4.9V838h5.8
		c0.3-0.4,0.5-0.8,0.7-1.3h-4.2v-5.1h2.4v-1.5h-4.9v-0.9h4.9v-1.4h1.1v1.4h5.7v-1.4h1.1v1.4h4.9v0.9h-4.9v1.5h2.4v5.1h-7.4
		c-0.2,0.4-0.4,0.9-0.6,1.3h10.3v0.9h-4.7c1.1,1.1,2.8,2,5.2,2.7l-0.4,0.9c-1-0.3-1.8-0.7-2.6-1.1v2.7c0,0.9-0.5,1.4-1.5,1.4H162
		l-0.2-0.9l1.5,0c0.5,0,0.8-0.3,0.8-0.7v-1.8h-4.5v3.9h-1v-3.9H154.4z M159.6,839.7v1.5h5.1c-1.2-0.7-2.2-1.4-2.8-2.3h-5.3
		c-0.8,0.9-1.7,1.6-3,2.3h4.9v-1.5H159.6z M164.3,833.8v-1.4h-10.5v1.4H164.3z M164.3,834.5h-10.5v1.4h10.5V834.5z M156.1,830.1v1.5
		h5.7v-1.5H156.1z"/>
</g>
<g class="st11">
	<path d="M94.5,1033.1v1h-7.9v2h6.2v7.7h-6.5c-0.2,1.4-0.7,2.6-1.3,3.4c2.8,1.3,6.2,2,10.2,2.1l-0.3,1c-4.1-0.2-7.6-1-10.6-2.4
		c-1.4,1.2-3.7,2-6.9,2.4l-0.5-1c3-0.3,5.1-0.9,6.4-1.9c-1.3-0.7-2.4-1.5-3.5-2.4l0.9-0.6c1,0.9,2.1,1.6,3.3,2.2
		c0.6-0.8,1-1.8,1.2-3h-6v-7.7h6.2v-2h-7.9v-1H94.5z M85.5,1039.5v-2.4h-5.1v2.4H85.5z M85.5,1041.3v-0.9h-5.1v2.4h5
		C85.4,1042.4,85.5,1041.8,85.5,1041.3z M91.7,1040.4h-5.2v0.9c0,0.6,0,1.1-0.1,1.6h5.3V1040.4z M86.6,1039.5h5.2v-2.4h-5.2V1039.5z
		"/>
	<path d="M101.6,1032.3v4.2h4.1c0,6-0.1,9.8-0.3,11.2c-0.2,1.7-1.2,2.6-2.9,2.6c-0.3,0-0.8,0-1.5-0.1l-0.3-1c0.6,0,1.2,0.1,1.6,0.1
		c1.2,0,1.8-0.7,2-2c0.1-1.1,0.2-4.4,0.3-9.8h-3.1v0c-0.1,5.9-1.4,10.2-4,13l-0.8-0.7c2.4-2.5,3.7-6.6,3.7-12.2v0h-3.3v-1.1h3.3
		v-4.2H101.6z M114.1,1050.2H113v-1.4h-4.2v1.4h-1v-14.8h6.3V1050.2z M113,1047.8v-11.4h-4.2v11.4H113z"/>
	<path d="M118.5,1036.1c0,2-0.3,3.9-0.8,5.7l-0.9-0.2c0.4-1.8,0.7-3.6,0.8-5.5L118.5,1036.1z M120.9,1032.3v18.1h-1.1v-18.1H120.9z
		 M123.9,1040l-0.9,0.2c-0.4-1.5-0.9-3-1.4-4.3l0.8-0.3C123,1036.9,123.5,1038.4,123.9,1040z M127.8,1035.4v-3.1h1.1v3.1h4.2v6.1
		h1.7v1.1H129c1.3,2.9,3.4,5.2,6.2,7l-0.7,0.9c-2.9-1.9-5-4.4-6.2-7.3c-0.9,3.3-2.7,5.8-5.4,7.3l-0.7-0.9c2.7-1.4,4.4-3.7,5.1-7
		h-4.1v-1.1h4.3c0.2-1,0.2-2,0.2-3.2v-1.9h-3.7v-1H127.8z M128.8,1038.1c0,1.2-0.1,2.3-0.3,3.4h3.5v-5h-3.2V1038.1z"/>
	<path d="M146.6,1050.1c-1.3,0-2.3-0.2-3.1-0.4c-0.8-0.2-1.5-0.7-2.1-1.5c-0.3-0.4-0.5-0.5-0.8-0.5c-0.5,0-1.4,0.9-2.5,2.8l-0.8-0.7
		c1.1-1.7,2-2.8,2.8-3v-6.4h-3v-1h4v7.5c0.2,0.1,0.4,0.3,0.6,0.6c0.5,0.6,1,1,1.6,1.3c0.7,0.2,1.6,0.4,2.8,0.4c1,0,2.3,0,3.9,0h2.8
		c0.9,0,1.7-0.1,2.2-0.1l-0.3,1.1h-4.6C149.1,1050.1,147.9,1050.1,146.6,1050.1z M141.9,1035.8l-0.8,0.8c-0.9-1-2-2-3.5-3.2l0.7-0.7
		C139.8,1033.7,140.9,1034.7,141.9,1035.8z M148.3,1034v-1.7h1v1.7h5.1v1h-5.1v2h4.4v4.9h-4.4v6.3h-1v-6c-1,1.9-2.7,3.5-5.1,4.9
		l-0.7-0.9c2.3-1.2,4-2.6,4.9-4.3h-3.6v-4.9h4.4v-2h-5.2v-1H148.3z M148.3,1037.9h-3.4v3h3.4V1037.9z M152.8,1037.9h-3.4v3h3.4
		V1037.9z M154.7,1046.3l-0.7,0.7c-0.9-1.2-2.2-2.4-3.8-3.7l0.7-0.7C152.4,1043.8,153.6,1045.1,154.7,1046.3z"/>
	<path d="M73.9,1072.3h-1v-1.2h-4v1.8h-1v-14h1.8c0.4-1.1,0.7-2.3,0.9-3.6l1.1,0.1c-0.2,1.2-0.5,2.4-1,3.4h3.3V1072.3z M72.9,1064.3
		v-4.5h-4v4.5H72.9z M72.9,1070v-4.7h-4v4.7H72.9z M84,1070.8c-0.2,1.6-1.1,2.4-2.8,2.4c-0.4,0-1,0-2,0l-0.3-1
		c0.8,0,1.5,0.1,2.1,0.1c1.1,0,1.7-0.6,1.9-1.8c0.2-1.2,0.2-4.7,0.3-10.5h-5.9c-0.6,1.3-1.2,2.5-2,3.5l-0.6-0.8
		c1.4-2,2.4-4.5,2.9-7.4l1.1,0.1c-0.2,1.2-0.5,2.4-0.9,3.5h6.5C84.3,1065.3,84.2,1069.3,84,1070.8z M80.8,1067.7l-0.9,0.6
		c-0.8-1.4-2-2.8-3.5-4.5l0.9-0.6C78.8,1065,80,1066.5,80.8,1067.7z"/>
	<path d="M93.2,1070.2c-1.8,0.9-3.8,1.6-6.1,2.1l-0.2-1.1c2.4-0.5,4.4-1.2,6.2-2V1070.2z M91.5,1055.8c-1.1,2.8-2.1,4.9-3.2,6.5
		c1-0.1,2-0.3,3.1-0.5c0.4-0.7,0.8-1.4,1.2-2.1l1,0.4c-1.9,3.3-3.4,5.6-4.6,6.9c1.5-0.2,3-0.6,4.5-1v1c-2,0.6-4,1-5.9,1.2l-0.3-1
		c0.2-0.1,0.4-0.2,0.5-0.3c0.8-0.8,1.8-2.1,3-4c-1.2,0.2-2.3,0.4-3.4,0.5l-0.3-1c0.2-0.1,0.3-0.2,0.5-0.4c1.2-1.8,2.1-4,3-6.5
		L91.5,1055.8z M101.5,1061.1c0.6-1,1.1-2.2,1.6-3.6l1,0.3c-0.4,1.2-0.9,2.3-1.5,3.3h1.9v1h-6.8c-0.1,0.7-0.2,1.4-0.3,2h7.6v1h-7.7
		c-0.1,0.6-0.3,1.2-0.4,1.7h6.9v0.8c-0.6,1.3-1.5,2.5-2.7,3.4c1.2,0.7,2.7,1.1,4.3,1.4l-0.5,0.9c-1.8-0.4-3.4-1-4.7-1.8
		c-1.2,0.8-2.7,1.4-4.4,1.8l-0.5-0.9c1.6-0.4,2.9-0.9,4.1-1.5c-1.1-0.8-2-1.9-2.7-3.1l-0.3,0.8c-0.7,1.7-1.8,3.2-3.3,4.6l-0.6-0.8
		c1.4-1.3,2.4-2.6,3.1-4.2c0.4-1,0.7-2.1,1-3.4h-2.7v-1h2.9c0.1-0.7,0.2-1.3,0.3-2h-2.5v-1H101.5z M104.6,1056.2
		c-2.7,0.9-6.3,1.3-10.7,1.3l-0.3-1c4.3,0,7.8-0.4,10.6-1.2L104.6,1056.2z M96.7,1060.5l-0.9,0.4c-0.4-0.9-0.8-1.8-1.2-2.5l0.9-0.3
		C95.9,1058.8,96.3,1059.6,96.7,1060.5z M102.6,1067.7h-5.3c0.7,1.1,1.7,2.1,2.8,2.8C101.2,1069.7,102,1068.8,102.6,1067.7z
		 M100.2,1060.3l-0.9,0.3c-0.4-0.9-0.8-1.8-1.2-2.5l0.9-0.3C99.5,1058.6,99.9,1059.5,100.2,1060.3z"/>
	<path d="M113.1,1057.4c0.3-0.7,0.5-1.5,0.7-2.2l1.1,0.1c-0.2,0.7-0.4,1.4-0.7,2.1h10.4v1.1h-10.8c-0.7,1.7-1.6,3.3-2.7,4.8v10.3
		h-1.1v-8.9c-0.8,0.9-1.6,1.8-2.5,2.6l-0.7-0.9c2.6-2.2,4.5-4.8,5.8-7.8h-5.2v-1.1H113.1z M118.8,1066.7v-2c1.2-0.7,2.4-1.5,3.4-2.4
		h-7.8v-1h9.2v1c-1.1,1-2.4,2-3.8,2.9v1.6h5.1v1.1h-5.1v4.2c0,1-0.5,1.6-1.6,1.6h-2.5l-0.3-1c0.7,0,1.5,0,2.4,0
		c0.6,0,0.9-0.3,0.9-0.9v-3.8h-5.9v-1.1H118.8z"/>
	<path d="M136.6,1073.1c-1.3,0-2.3-0.2-3.1-0.4c-0.8-0.2-1.5-0.7-2.1-1.5c-0.3-0.4-0.5-0.5-0.8-0.5c-0.5,0-1.4,0.9-2.5,2.8l-0.8-0.7
		c1.1-1.7,2-2.8,2.8-3v-6.4h-3v-1h4v7.5c0.2,0.1,0.4,0.3,0.6,0.6c0.5,0.6,1,1,1.6,1.3c0.7,0.2,1.6,0.4,2.8,0.4c1,0,2.3,0,3.9,0h2.8
		c0.9,0,1.7-0.1,2.2-0.1l-0.3,1.1h-4.6C139.1,1073.1,137.9,1073.1,136.6,1073.1z M131.9,1058.8l-0.8,0.8c-0.9-1-2-2-3.5-3.2l0.7-0.7
		C129.8,1056.7,130.9,1057.7,131.9,1058.8z M138.3,1057v-1.7h1v1.7h5.1v1h-5.1v2h4.4v4.9h-4.4v6.3h-1v-6c-1,1.9-2.7,3.5-5.1,4.9
		l-0.7-0.9c2.3-1.2,4-2.6,4.9-4.3h-3.6v-4.9h4.4v-2h-5.2v-1H138.3z M138.3,1060.9h-3.4v3h3.4V1060.9z M142.8,1060.9h-3.4v3h3.4
		V1060.9z M144.7,1069.3l-0.7,0.7c-0.9-1.2-2.2-2.4-3.8-3.7l0.7-0.7C142.4,1066.8,143.6,1068.1,144.7,1069.3z"/>
	<path d="M157.7,1056.9h6.9v1h-14.7v5.5c-0.1,4.1-0.8,7.4-2.2,10l-0.8-0.7c1.2-2.2,1.8-5.3,1.9-9.2v-6.5h7.8
		c-0.3-0.6-0.5-1.1-0.8-1.6l1.1-0.2C157.2,1055.7,157.4,1056.3,157.7,1056.9z M162.9,1066.3v0.8c-1.2,1.5-2.6,2.7-4.4,3.8
		c1.8,0.8,4,1.4,6.6,1.8l-0.5,0.9c-2.8-0.5-5.2-1.2-7.1-2.2c-2,1-4.4,1.7-7,2.2l-0.5-1c2.4-0.4,4.6-1,6.4-1.8c-1.7-1-3-2.2-4-3.6
		h-1.1v-0.9H162.9z M153.5,1060.5v-1.8h1.1v1.8h5.8v-1.8h1.1v1.8h3.1v1h-3.1v3.1h-7.9v-3.1H150v-1H153.5z M157.4,1070.3
		c1.6-0.8,3-1.9,4.1-3.1h-8C154.5,1068.4,155.8,1069.5,157.4,1070.3z M154.6,1063.8h5.8v-2.2h-5.8V1063.8z"/>
</g>
<g class="st11">
	<path d="M338.1,805.7c-0.9,1.3-1.7,2.4-2.6,3.2c0,0,0,0,0,0c0.2,0.3,0.3,0.6,0.4,0.9c0.6,1.6,0.9,3.9,1,6.8c0,3.1-0.4,5-1.2,5.7
		c-0.5,0.3-1.1,0.5-2,0.5c-0.5,0-0.9,0-1.2,0l-0.3-1c0.5,0,0.9,0.1,1.3,0.1c0.8,0,1.3-0.1,1.5-0.4c0.6-0.5,0.9-2.2,0.9-4.9
		c0-1-0.1-2-0.1-2.8c-1.1,1.6-2.3,2.9-3.8,4l-0.6-0.9c1.8-1.2,3.3-2.7,4.3-4.5c-0.1-0.8-0.3-1.4-0.5-2c-0.1-0.3-0.2-0.5-0.3-0.7
		c-0.8,0.7-1.8,1.3-2.8,1.9l-0.6-0.9c1.1-0.6,2-1.2,2.9-2c-0.6-1-1.3-1.9-2.3-2.7l0.9-0.7c0.9,0.9,1.6,1.7,2.1,2.7
		c0.8-0.8,1.6-1.8,2.2-2.9L338.1,805.7z M342.8,808.2v-3.3h1.1v3.3h4.2v7.8h-4.2v5c1.2-0.2,2.3-0.4,3.3-0.6
		c-0.3-1.1-0.7-2.1-1.1-3.1l0.9-0.3c0.7,1.7,1.3,3.6,1.9,5.8l-1,0.3c-0.1-0.6-0.3-1.2-0.4-1.7c-2.4,0.5-5.6,1-9.5,1.3l-0.2-1.1
		c1.8-0.1,3.5-0.2,5-0.4v-5.1h-4.2v-7.8H342.8z M342.8,809.2h-3.2v5.8h3.2V809.2z M347.1,809.2h-3.2v5.8h3.2V809.2z"/>
	<path d="M369.1,813.2v1.1h-17.9v-1.1H369.1z"/>
	<path d="M387.1,806v1.1h-7.2v1.4c0,1.3-0.1,2.6-0.3,3.7h9.2v1.1h-6.3v7.4c0,0.6,0.3,1,1,1h2.8c0.6,0,1-0.1,1.2-0.4
		c0.3-0.3,0.5-1.3,0.6-2.9l1,0.3c-0.1,1.8-0.4,3-0.9,3.4c-0.4,0.3-1,0.5-1.8,0.5h-3.3c-1.2,0-1.7-0.6-1.7-1.8v-7.6h-1.9
		c-0.3,1.8-0.8,3.3-1.5,4.5c-1.2,2.2-3.2,3.9-6,5.1l-0.6-1c2.8-1.2,4.7-2.9,5.9-5c0.5-1.1,0.9-2.3,1.2-3.7h-6.8v-1.1h7
		c0.2-1.2,0.3-2.4,0.3-3.7v-1.4h-5.9V806H387.1z"/>
	<path d="M409,819.8v1.1h-17.7v-1.1H409z M407.2,807.2v1.1h-14.1v-1.1H407.2z"/>
	<path d="M328.1,844.8h-1v-1.2h-4v1.8h-1v-14h1.8c0.4-1.1,0.7-2.3,0.9-3.6l1.1,0.1c-0.2,1.2-0.5,2.4-1,3.4h3.3V844.8z M327,836.9
		v-4.5h-4v4.5H327z M327,842.6v-4.7h-4v4.7H327z M338.2,843.4c-0.2,1.6-1.1,2.4-2.8,2.4c-0.4,0-1,0-2,0l-0.3-1
		c0.8,0,1.5,0.1,2.1,0.1c1.1,0,1.7-0.6,1.9-1.8c0.2-1.2,0.2-4.7,0.3-10.5h-5.9c-0.6,1.3-1.2,2.5-2,3.5l-0.6-0.8
		c1.4-2,2.4-4.5,2.9-7.4l1.1,0.1c-0.2,1.2-0.5,2.4-0.9,3.5h6.5C338.4,837.9,338.3,841.9,338.2,843.4z M335,840.3l-0.9,0.6
		c-0.8-1.4-2-2.8-3.5-4.5l0.9-0.6C333,837.6,334.2,839.1,335,840.3z"/>
	<path d="M347,834.1c0.3-0.9,0.5-1.9,0.7-2.8h-5.1v-1h5.4c0.2-0.8,0.4-1.7,0.5-2.5l1.1,0.1c-0.2,0.9-0.3,1.7-0.5,2.4h8.8v1h-9
		c-0.2,1-0.5,1.9-0.7,2.8h10.9v1h-11.2c-0.3,1.1-0.7,2.1-1,3h9.8v1c-1,1.6-2.6,3.2-4.7,4.7c1.3,0.5,2.5,1,3.7,1.6l-0.6,0.9
		c-3.1-1.5-6.2-2.7-9.4-3.6l0.6-0.9c1.6,0.4,3.1,0.9,4.6,1.5c2-1.3,3.5-2.8,4.6-4.2h-10c0.5-1.3,0.9-2.6,1.4-4h-5.5v-1H347z"/>
	<path d="M364.3,834.4c0,4.4-0.8,8.2-2.3,11.4l-0.8-0.7c1.4-2.8,2.1-6.4,2.1-10.7v-5.7H378v3.5h-13.7V834.4z M364.3,829.5v1.8h12.6
		v-1.8H364.3z M371.2,835.6v-1.3c-1.7,0.1-3.5,0.1-5.4,0.1l-0.3-0.8c4.8,0,8.7-0.2,11.8-0.6l0.5,0.8c-1.6,0.2-3.4,0.3-5.5,0.4v1.3
		h4.8v3.3h-4.8v1.3h6.2v4.3c0,1-0.5,1.5-1.4,1.5h-2.1l-0.3-0.9l2,0c0.5,0,0.8-0.3,0.8-0.8v-3.2h-2.8c0.5,1,1,2.1,1.4,3.2l-0.8,0.4
		c-0.1-0.4-0.3-0.7-0.4-1.1c-2.1,0.3-4.3,0.5-6.7,0.7l-0.2-0.9c1.1-0.1,2.2-0.2,3.2-0.3v-2.1h-4.7v4.9h-1v-5.8h5.7v-1.3h-4.7v-3.3
		H371.2z M371.2,836.4h-3.7v1.6h3.7V836.4z M372.2,843.2c0.8-0.1,1.6-0.2,2.3-0.3c-0.2-0.6-0.5-1.1-0.7-1.6l0.6-0.2h-2.2V843.2z
		 M376,836.4h-3.8v1.6h3.8V836.4z"/>
	<path d="M389.6,838v-2.3h1.1v2.3h7.3v1h-6.1c1.4,2.1,3.9,4,7.3,5.6l-0.7,0.9c-3.6-1.9-6.1-4.1-7.6-6.5h-0.2v7.2h-1.1V839h-0.2
		c-1.5,2.6-4.1,4.8-7.8,6.4l-0.6-0.9c3.4-1.4,5.9-3.3,7.4-5.5h-6.1v-1H389.6z M386.3,829.7V828h1.1v1.7h5.6V828h1.1v1.7h4.6v1h-4.6
		v1.7H393v-1.7h-5.6v1.7h-1.1v-1.7h-4.7v-1H386.3z M398.2,836.8h-1.1v-2.2h-13.8v2.3h-1.1v-3.3h16V836.8z"/>
	<path d="M404.9,828v7.2h2.9v1h-1.7v7.6c0.7-0.3,1.4-0.7,2-1.3l0.2,0.9c-0.9,0.7-2,1.3-3.2,1.8l-0.4-0.9c0.3-0.2,0.5-0.4,0.5-0.7
		v-7.4h-1.6c0,2-0.1,3.6-0.3,5c-0.3,2-0.9,3.6-1.8,4.9l-0.7-0.8c0.7-1.1,1.2-2.5,1.5-4.2c0.2-1.3,0.3-3,0.3-4.9h-1.6v-1h2.8V828
		H404.9z M402.9,833.6l-0.9,0.2c-0.3-1.5-0.6-2.9-1.1-4.2l0.8-0.3C402.3,830.6,402.6,832,402.9,833.6z M407.8,829.4
		c-0.3,1.7-0.7,3.2-1.2,4.4l-0.9-0.3c0.4-1.1,0.8-2.6,1.2-4.4L407.8,829.4z M411.1,835.4c-0.1,0.3-0.3,0.7-0.4,1h3.3
		c-0.2-0.5-0.3-1-0.5-1.4l1-0.2c0.2,0.5,0.3,1,0.5,1.6h3.7v0.9h-3.6v1.8h3.1v0.9h-3.1v1.7h3.1v0.9h-3.1v1.9h3.9v0.9h-8.4v0.8h-1
		v-7.7c-0.6,0.8-1.2,1.5-1.9,2.2l-0.3-1c1.3-1.3,2.3-2.8,2.8-4.4L411.1,835.4z M413.1,828.5v6.1h-1v-1.6c-1.3,0.8-2.4,1.3-3.5,1.8
		l-0.4-0.8c1.1-0.4,2.4-1,3.9-1.8v-2.8h-3.6v-0.9H413.1z M411,831.7l-0.4,0.7c-0.7-0.6-1.3-1.1-2-1.4l0.5-0.7
		C409.8,830.6,410.4,831.1,411,831.7z M414.1,837.3h-3.5v1.8h3.5V837.3z M414.1,840h-3.5v1.7h3.5V840z M414.1,844.4v-1.9h-3.5v1.9
		H414.1z M418.4,828.5v6.4h-1v-2c-1.2,0.6-2.2,1.2-3.2,1.5l-0.4-0.8c1-0.4,2.2-0.9,3.6-1.6v-2.6H414v-0.9H418.4z M416.5,831.4
		l-0.4,0.7c-0.6-0.5-1.3-1-1.9-1.2l0.5-0.7C415.2,830.5,415.9,831,416.5,831.4z"/>
</g>
<g class="st11">
	<path d="M583.8,818.3c-0.5,1.6-1.2,3-2,4.1l-0.9-0.6c0.8-1.1,1.5-2.4,1.9-3.8L583.8,818.3z M582,807.1v-1h7.1
		c-0.2-0.5-0.5-0.9-0.7-1.3l1.2-0.2c0.2,0.4,0.5,1,0.7,1.5h7.1v1h-3.4l-0.9,1.9h5.2v1h-17.3v-1h5l-0.8-1.9H582z M596,811.4v5.7
		h-12.4v-5.7H596z M594.9,813.8v-1.5h-10.3v1.5H594.9z M594.9,814.6h-10.3v1.5h10.3V814.6z M587.6,822.8c-1.2,0-1.8-0.6-1.8-1.7
		v-2.7h1.1v2.5c0,0.6,0.3,1,1,1h4.3c0.5,0,0.8-0.1,1-0.3c0.3-0.2,0.5-0.9,0.5-2l1,0.3c-0.1,1.4-0.4,2.2-0.8,2.5
		c-0.3,0.3-0.8,0.4-1.6,0.4H587.6z M592.1,808.9l0.9-1.9h-6.5l0.7,1.9H592.1z M591.8,820l-0.9,0.6c-0.5-0.7-1.2-1.5-2-2.4l0.9-0.6
		C590.6,818.6,591.3,819.3,591.8,820z M598.7,821.6l-0.9,0.6c-0.6-1.1-1.5-2.3-2.7-3.6l0.9-0.6C597.2,819.4,598.1,820.6,598.7,821.6
		z"/>
	<path d="M605.5,815.8h-1.1v-5.9c-0.9,1.8-2.1,3.5-3.5,4.9l-0.4-1c1.7-1.5,2.9-3.3,3.9-5.4H601v-1h3.5v-2.3h1.1v2.3h2.8v1h-2.8v1.1
		c1.1,0.8,2.2,1.7,3.3,2.7l-0.6,0.9c-1-1.1-1.9-2-2.7-2.7V815.8z M604,817.2c-0.5,1.9-1.3,3.6-2.2,5l-0.9-0.6c1-1.4,1.7-2.9,2.1-4.6
		L604,817.2z M607.4,822.6c-1.2,0-1.7-0.6-1.7-1.8v-4.1h1.1v3.9c0,0.6,0.3,1,1,1h4.4c0.5,0,0.9-0.1,1.1-0.3c0.3-0.3,0.5-1.1,0.6-2.5
		l1,0.3c-0.1,1.6-0.4,2.7-0.8,3c-0.3,0.3-0.9,0.5-1.7,0.5H607.4z M611.8,819.1l-0.9,0.6c-0.6-0.9-1.3-1.8-2.3-2.8l0.9-0.5
		C610.5,817.4,611.2,818.3,611.8,819.1z M617.1,805.7v9.6h-7.3v-9.6H617.1z M616.1,808.7v-2h-5.2v2H616.1z M616.1,811.5v-1.9h-5.2
		v1.9H616.1z M616.1,812.4h-5.2v2h5.2V812.4z M618.8,821l-0.9,0.6c-0.8-1.4-1.8-2.9-3.1-4.6l0.9-0.5
		C617.1,818.2,618.1,819.7,618.8,821z"/>
	<path d="M638.1,806v1.1h-6.5c-0.4,0.9-0.8,1.7-1.3,2.5v13.6h-1.1v-11.9c-1.9,2.5-4.5,4.7-7.7,6.6l-0.7-0.9c4.7-2.7,7.9-6,9.6-9.9
		h-9.1V806H638.1z M638.7,816.9l-0.8,0.8c-1.4-1.8-3.4-3.7-5.8-5.7l0.8-0.8C635.1,813.1,637.1,815,638.7,816.9z"/>
	<path d="M651,821.2c-3.1,0.6-6.4,1.2-9.9,1.6l-0.3-1c1.6-0.2,3.2-0.4,4.8-0.6v-4.2h-4v-1h4v-2.5h1.1v2.5h3.8v1h-3.8v4
		c1.5-0.2,2.9-0.5,4.3-0.8V821.2z M650.9,805.8v1h-5.2c-1,2.2-2,3.9-3,4.9c2.3-0.2,4.4-0.5,6.4-0.8c-0.5-0.8-1.1-1.6-1.7-2.5
		l0.8-0.5c1.4,1.8,2.4,3.5,3.1,4.8l-0.9,0.6c-0.3-0.5-0.6-1.1-0.9-1.6c-2.6,0.4-5.4,0.8-8.4,1.1l-0.2-1c0.2,0,0.3-0.1,0.4-0.1
		c1-0.9,2.1-2.5,3.2-4.9h-3.5v-1H650.9z M653.8,806.7v12.4h-1.1v-12.4H653.8z M653.3,822.9l-0.2-1c1,0,1.9,0.1,2.8,0.1
		c0.6,0,1-0.3,1-1v-16h1.1v16.3c0,1.1-0.6,1.7-1.7,1.7H653.3z"/>
	<path d="M577.7,844.8h-1v-1.2h-4v1.8h-1v-14h1.8c0.4-1.1,0.7-2.3,0.9-3.6l1.1,0.1c-0.2,1.2-0.5,2.4-1,3.4h3.3V844.8z M576.6,836.9
		v-4.5h-4v4.5H576.6z M576.6,842.6v-4.7h-4v4.7H576.6z M587.7,843.4c-0.2,1.6-1.1,2.4-2.8,2.4c-0.4,0-1,0-2,0l-0.3-1
		c0.8,0,1.5,0.1,2.1,0.1c1.1,0,1.7-0.6,1.9-1.8c0.2-1.2,0.2-4.7,0.3-10.5h-5.9c-0.6,1.3-1.2,2.5-2,3.5l-0.6-0.8
		c1.4-2,2.4-4.5,2.9-7.4l1.1,0.1c-0.2,1.2-0.5,2.4-0.9,3.5h6.5C588,837.9,587.9,841.9,587.7,843.4z M584.5,840.3l-0.9,0.6
		c-0.8-1.4-2-2.8-3.5-4.5l0.9-0.6C582.6,837.6,583.7,839.1,584.5,840.3z"/>
	<path d="M590.8,837.4l-0.3-1.1c2.2-2.5,3.9-5.3,4.8-8.4l1,0.4c-0.5,1.5-1.1,2.9-1.8,4.2v13.5h-1.1v-11.8
		C592.6,835.3,591.8,836.4,590.8,837.4z M600.4,832.8c0-0.5,0-0.9,0-1.4v-3.6h1.1v3.6l0,1.4h6.8v1H604v10.2c0,0.4,0.2,0.7,0.7,0.7
		h1.9c0.2,0,0.5-0.1,0.6-0.3c0.2-0.4,0.3-1.5,0.4-3.4l1,0.3c-0.1,2.1-0.3,3.4-0.6,3.9c-0.3,0.4-0.7,0.6-1.1,0.6h-2.4
		c-1,0-1.4-0.5-1.4-1.5v-10.4h-1.6c-0.4,5.4-2.1,9.5-5.1,12.1l-0.8-0.7c2.8-2.5,4.4-6.3,4.8-11.4h-4.2v-1H600.4z M607.2,830.9
		l-0.7,0.7c-0.8-0.8-1.8-1.7-3.1-2.7l0.7-0.7C605.4,829.2,606.4,830.1,607.2,830.9z"/>
	<path d="M613.8,841c-0.5,1.7-1.2,3.1-2.1,4.3l-0.9-0.6c0.9-1.2,1.6-2.5,2-4L613.8,841z M619.2,829.2v-1.4h1.1v1.4h8.3v0.9h-8.3v1.3
		h6.4v5.7h-1.1c1.2,1.1,2.2,2,2.8,2.8l-0.8,0.6c-0.3-0.4-0.7-0.9-1.2-1.3c-3.6,0.3-8.6,0.5-14.9,0.6l-0.2-1c2.8,0,5.4-0.1,7.8-0.2
		v-1.5h-6.4v-5.7h6.4v-1.3h-8.3v-0.9H619.2z M619.2,833.9v-1.6h-5.3v1.6H619.2z M619.2,834.7h-5.3v1.6h5.3V834.7z M617.1,845.8
		c-1.1,0-1.6-0.5-1.6-1.5v-3.6h1.1v3.4c0,0.4,0.3,0.7,0.8,0.7h4.7c0.5,0,0.8-0.1,1-0.3c0.2-0.2,0.4-0.9,0.5-2.1l1,0.3
		c-0.1,1.4-0.4,2.3-0.7,2.7c-0.3,0.3-0.8,0.4-1.5,0.4H617.1z M622,842.8l-0.8,0.6c-0.6-0.8-1.4-1.6-2.4-2.6l0.8-0.5
		C620.6,841.3,621.4,842.1,622,842.8z M620.3,833.9h5.3v-1.6h-5.3V833.9z M625.6,834.7h-5.3v1.6h5.3V834.7z M624.7,837.5l0.5-0.3
		h-4.9v1.5c2-0.1,3.8-0.1,5.4-0.2C625.3,838.1,625,837.8,624.7,837.5z M628.7,844.4l-0.8,0.6c-0.8-1.2-1.8-2.5-3.1-4l0.8-0.5
		C627,842,628,843.3,628.7,844.4z"/>
	<path d="M631.6,845.8l-0.2-1c0.6,0,1.2,0.1,1.7,0.1c0.6,0,0.9-0.3,0.9-1v-5.2c-1,0.4-2,0.7-3,0.9l-0.3-1.1c1.1-0.3,2.2-0.6,3.3-0.9
		v-4.9h-3v-1.1h3v-3.8h1.1v3.8h2.6v1.1H635v4.5c0.9-0.4,1.8-0.8,2.7-1.2v1.1c-0.9,0.4-1.8,0.8-2.7,1.2v5.9c0,1.1-0.5,1.7-1.6,1.7
		H631.6z M648,828.9c-2.4,0.9-5,1.4-7.9,1.5v4h8.4v1.1h-3.2v10.7h-1.1v-10.7h-4.2v1.1c-0.1,4-1.1,7.1-2.9,9.5l-0.8-0.8
		c1.6-2.1,2.5-5,2.6-8.7v-7c3.1-0.1,5.9-0.6,8.4-1.6L648,828.9z"/>
	<path d="M657.6,837c-0.8,0.4-1.7,0.8-2.5,1.2v5.9c0,1.1-0.6,1.7-1.7,1.7h-2l-0.2-1c0.6,0,1.3,0.1,1.9,0.1c0.7,0,1-0.4,1-1v-5.2
		c-1,0.4-2,0.7-3.1,1l-0.3-1c1.1-0.3,2.2-0.6,3.3-1v-4.9h-3v-1.1h3v-3.7h1.1v3.7h2.4v1.1h-2.4v4.5c0.8-0.4,1.7-0.8,2.5-1.2V837z
		 M667.5,845.6h-1.1v-1.5H660v1.5H659v-15.8h8.6V845.6z M666.5,843.1v-12.3H660v12.3H666.5z"/>
</g>
<g class="st11">
	<path d="M338.6,568c2.5,2.9,5.5,5.2,8.8,6.9l-0.6,1c-3.4-1.8-6.3-4.1-8.6-6.9c-2.2,2.7-5.1,5-8.7,7l-0.6-1c3.6-1.8,6.5-4.1,8.9-6.9
		H338.6z M346.2,578.3v1.1h-9.5c-1,2-2.3,3.8-3.8,5.4c3.6-0.2,7-0.5,10.1-1c-0.7-1-1.5-2-2.4-3l0.8-0.5c1.8,2.1,3.2,3.9,4.2,5.4
		l-0.9,0.6c-0.3-0.6-0.7-1.1-1.1-1.7c-3.1,0.5-7.1,0.9-12,1.2l-0.3-1c0.3-0.1,0.4-0.2,0.6-0.3c1.5-1.6,2.7-3.4,3.6-5.2h-5.3v-1.1
		H346.2z M343,574.3v1h-9.7v-1H343z"/>
	<path d="M358.9,577.9c-0.3,2.9-0.9,4.9-1.9,5.9c-1.1,1.3-3.4,2.1-7,2.4l-0.4-1c3.3-0.2,5.5-0.9,6.5-2c1-1.1,1.5-2.9,1.7-5.4
		L358.9,577.9z M364.8,582.7h-1.1v-6.4h-11.1v6.6h-1.1v-7.6h13.3V582.7z M363.6,568.9v4.8h-10.8v-4.8H363.6z M362.5,569.8h-8.7v2.8
		h8.7V569.8z M366.6,585.4l-0.6,0.9c-2.3-1.2-4.7-2.2-7.1-2.9l0.6-0.8C362.1,583.4,364.5,584.3,366.6,585.4z"/>
	<path d="M375,574.3c0.3-0.9,0.5-1.9,0.7-2.8h-5.1v-1h5.4c0.2-0.8,0.4-1.7,0.5-2.5l1.1,0.1c-0.2,0.9-0.3,1.7-0.5,2.4h8.8v1h-9
		c-0.2,1-0.5,1.9-0.7,2.8h10.9v1h-11.2c-0.3,1.1-0.7,2.1-1,3h9.8v1c-1,1.6-2.6,3.2-4.7,4.7c1.3,0.5,2.5,1,3.7,1.6l-0.6,0.9
		c-3.1-1.5-6.2-2.7-9.4-3.6l0.6-0.9c1.6,0.4,3.1,0.9,4.6,1.5c2-1.3,3.5-2.8,4.6-4.2h-10c0.5-1.3,0.9-2.6,1.4-4h-5.5v-1H375z"/>
	<path d="M398,581.5v-1c1.5-0.6,3.1-1.2,4.8-1.9H391v-1h13.9v0.8c-1.7,0.8-3.7,1.7-5.9,2.5v0.6h8.2v1H399v2.1c0,1.1-0.5,1.6-1.6,1.6
		h-2.8l-0.3-1c1.1,0,2,0.1,2.7,0.1c0.6,0,0.9-0.3,0.9-1v-1.8h-8.9v-1H398z M398.7,569.8h8.1v1h-17.3v-1h8c-0.3-0.6-0.7-1.2-1-1.6
		l1.2-0.2C398.1,568.5,398.4,569.1,398.7,569.8z M404,572.3v3.8h-11.7v-3.8H404z M403,573.3h-9.6v1.9h9.6V573.3z"/>
	<path d="M330.1,599.4l-1-0.3c0.6-2.1,1-4.2,1.1-6.5l1,0.1c0,0.9-0.1,1.8-0.2,2.6h2.1V591h1.1v4.3h2v1h-2v5.2c0.7-0.3,1.3-0.5,2-0.8
		v1c-0.7,0.3-1.3,0.6-2,0.9v6.6H333V603c-1.2,0.4-2.4,0.8-3.6,1.1l-0.3-1c1.3-0.3,2.6-0.7,3.9-1.1v-5.6h-2.2
		C330.6,597.4,330.4,598.4,330.1,599.4z M342.4,591v2.2h3.8v1h-3.8v2.6h4.7v1h-10.5v-1h4.7v-2.6h-3.6v-1h3.6V591H342.4z
		 M343.7,600.6v-1.4h1.1v1.4h2.3v1h-2.3v6c0,1-0.5,1.5-1.4,1.5h-2.6l-0.2-1c0.8,0,1.7,0.1,2.4,0.1c0.4,0,0.7-0.3,0.7-0.8v-5.7h-6.6
		v-1H343.7z M340.9,605.9l-0.9,0.6c-0.6-1-1.4-2-2.4-3.2l0.9-0.5C339.5,604,340.3,605,340.9,605.9z"/>
	<path d="M350.2,598v-6.1h8.3v6.1h-3.9c-0.1,1-0.1,1.9-0.2,2.7h4.3c0,3.4-0.1,5.5-0.3,6.3c-0.2,1.3-1.1,1.9-2.8,1.9
		c-0.3,0-0.7,0-1.3-0.1l-0.3-1c0.6,0,1.1,0,1.5,0c1.1,0,1.7-0.4,1.9-1.3c0.1-0.6,0.2-2.2,0.3-5h-3.4c-0.2,1.3-0.5,2.3-0.8,3.2
		c-0.7,1.7-2,3.1-3.6,4.3l-0.7-0.9c1.6-1.1,2.7-2.3,3.3-3.9c0.3-0.7,0.6-1.6,0.7-2.7h-3.7v-1h3.9c0.1-0.8,0.2-1.8,0.2-2.7H350.2z
		 M357.4,592.9h-6.2v4.1h6.2V592.9z M362.1,592.8v12.5H361v-12.5H362.1z M361.8,609.1l-0.2-1c0.9,0,1.8,0.1,2.7,0.1
		c0.7,0,1-0.4,1-1.1v-15.9h1.1v16.2c0,1.2-0.6,1.8-1.7,1.8H361.8z"/>
	<path d="M369.4,603.1L369,602c3.7-2.4,6.1-4.7,7.3-7h-6.6V594h7.7v0.9c-0.6,1.4-1.6,2.8-3,4.2c1.4,0.8,2.6,1.7,3.8,2.7l-0.6,0.9
		c-1.1-1-2.2-1.9-3.3-2.5v9.1h-1.1v-9.1C372.1,601.2,370.8,602.2,369.4,603.1z M374.3,593.5l-1,0.4c-0.3-0.9-0.7-1.8-1.1-2.7l1-0.3
		C373.7,591.8,374.1,592.7,374.3,593.5z M381.4,608.9c-1.1,0-1.7-0.6-1.7-1.7v-16.1h1.1V607c0,0.6,0.3,0.8,0.9,0.8h2.9
		c0.5,0,0.9-0.2,1.1-0.5c0.2-0.4,0.3-1.6,0.4-3.7l1,0.3c-0.1,2.3-0.3,3.7-0.6,4.2s-0.9,0.7-1.8,0.7H381.4z"/>
	<path d="M389.9,599.4l-0.9-0.3c0.9-2.1,1.3-4.4,1.5-6.7l1,0.1c0,1-0.2,1.9-0.3,2.8h1.7V591h1.1v4.3h1.8v1h-1.8v5.2
		c0.6-0.3,1.2-0.6,1.8-0.9v1c-0.6,0.3-1.2,0.6-1.8,0.9v6.6h-1.1v-6.1c-1.1,0.5-2.2,0.9-3.3,1.2l-0.3-1.1c1.2-0.3,2.4-0.7,3.6-1.2
		v-5.7h-1.9C390.6,597.4,390.3,598.4,389.9,599.4z M399.4,591.3c-0.2,1.1-0.5,2.2-0.8,3.1h7.9c0,6.5-0.1,10.5-0.3,12.1
		c-0.2,1.8-1.3,2.7-3.2,2.7c-0.3,0-0.8,0-1.5-0.1l-0.2-1c0.6,0,1.2,0.1,1.6,0.1c1.3,0,2.1-0.7,2.3-2c0.1-1.2,0.2-4.8,0.3-10.7h-1.7
		c-0.4,3.4-1.1,6.1-1.9,8.1c-0.9,2.1-2.3,3.9-4.1,5.6l-0.7-0.8c1.7-1.5,3-3.2,3.8-5.1c0.8-1.9,1.4-4.5,1.8-7.7h-1.8
		c-0.8,4.4-2.3,7.6-4.6,9.6l-0.7-0.8c2.1-1.8,3.6-4.8,4.3-8.8h-1.7c-0.5,1.3-1.2,2.4-1.9,3.3l-0.8-0.7c1.3-1.6,2.3-4,2.8-7
		L399.4,591.3z"/>
</g>
<g class="st11">
	<path d="M588.9,573.6c1-0.8,1.9-1.7,2.8-2.7h-6.5c-1.3,1.5-2.9,2.8-4.7,4l-0.7-0.8c2.6-1.6,4.7-3.7,6.3-6.1l1.1,0.2
		c-0.4,0.6-0.8,1.2-1.2,1.7h7.1v0.8c-0.9,1.2-1.9,2.1-2.8,2.9h5.2v5.8h-4.6v4.4c0,0.7,0.3,1,1,1h3.3c0.4,0,0.7-0.1,0.9-0.4
		c0.2-0.3,0.4-1.3,0.5-2.9l1,0.3c-0.1,1.9-0.4,3-0.7,3.5c-0.3,0.3-0.8,0.5-1.4,0.5h-3.9c-1.2,0-1.7-0.6-1.7-1.9v-4.7h-1.3
		c-0.1,0.4-0.3,0.8-0.5,1.2c-1.1,2.3-3.6,4.2-7.5,5.7l-0.7-0.8c3.5-1.3,5.8-2.9,7-4.9c0.2-0.4,0.3-0.7,0.5-1.1h-5v-5.8H588.9z
		 M588.2,574.6h-4.7v3.7h4.2C588,577.2,588.2,576,588.2,574.6z M594.5,574.6h-5.2c0,1.4-0.2,2.6-0.5,3.7h5.6V574.6z"/>
	<path d="M609.5,579.8c-0.3,2.2-0.9,3.8-1.8,4.6c-1,1-3.3,1.6-6.8,1.9l-0.4-1c3.2-0.2,5.3-0.7,6.3-1.5c0.9-0.8,1.5-2.2,1.7-4.1
		L609.5,579.8z M611.3,573.9h5.5c0,1.4-0.2,2.3-0.4,2.7c-0.3,0.4-1,0.6-2,0.6c-0.3,0-0.6,0-0.9,0l-0.2-0.8c0.3,0,0.7,0.1,1,0.1
		c0.7,0,1.1-0.1,1.3-0.4c0.1-0.2,0.2-0.6,0.2-1.3h-4.4v2.4h-1v-2.4h-3.7c-0.2,0.5-0.6,0.9-1,1.3c-0.9,0.8-2.4,1.5-4.6,2l-0.6-0.9
		c2-0.4,3.5-1,4.3-1.8c0.2-0.2,0.4-0.4,0.5-0.7h-4.2l0.7-3.2h4.2V570h-4.7v-0.9h4.7V568h1v1.1h3.2V568h1v1.1h4.6v3.3h-4.6V573.9z
		 M602.4,573.9h3.4c0.2-0.5,0.2-0.9,0.3-1.5h-3.3L602.4,573.9z M615.2,583.2h-1.1v-4.4h-10.3v4.4h-1.1v-5.4h12.4V583.2z
		 M606.9,573.9h3.4v-1.5h-3.2C607.1,573,607,573.4,606.9,573.9z M607.1,571.6h3.2V570h-3.2V571.6z M617.1,585.4l-0.6,0.9
		c-2.3-1-4.6-1.9-7-2.5l0.6-0.8C612.6,583.6,614.9,584.4,617.1,585.4z M611.3,571.6h3.5V570h-3.5V571.6z"/>
	<path d="M623.9,571.3v6.5c0,2.3-0.3,4.1-0.9,5.4c-0.6,1.3-1.5,2.3-2.9,3l-0.6-0.9c1.3-0.7,2.2-1.6,2.7-2.8c0.5-1.2,0.7-2.8,0.8-4.7
		v-6.5H623.9z M626.4,581.2h-1V570h-4.1v11.2h-1v-12.1h6V581.2z M627.1,585.2l-0.7,0.8c-0.6-1-1.5-2-2.5-3.1l0.7-0.6
		C625.6,583.2,626.4,584.2,627.1,585.2z M631.2,570.7h2.5c0.4-0.9,0.7-1.8,0.8-2.8l1,0.1c-0.2,0.9-0.5,1.8-0.8,2.6h2.5v6.6h-9.5
		v-6.6h2.5c-0.3-0.9-0.7-1.7-1-2.5l1.1-0.2C630.5,568.8,630.9,569.7,631.2,570.7z M636.4,586.3h-1v-1h-5.9v1h-1v-7.5h8V586.3z
		 M631.9,571.6h-3.3v4.7h3.3V571.6z M631.1,575.3l-0.7,0.2c-0.2-0.9-0.5-1.8-0.9-2.7l0.7-0.2C630.5,573.4,630.8,574.3,631.1,575.3z
		 M635.4,581.6v-1.9h-5.9v1.9H635.4z M635.4,584.4v-1.9h-5.9v1.9H635.4z M636.2,571.6h-3.3v4.7h3.3V571.6z M635.3,572.7
		c-0.3,1.1-0.6,2-1,2.8l-0.7-0.3c0.4-0.7,0.7-1.6,1-2.8L635.3,572.7z"/>
	<path d="M649.4,585.8c-1.3,0-2.3-0.2-3.1-0.4c-0.8-0.2-1.5-0.7-2.2-1.5c-0.3-0.4-0.5-0.5-0.8-0.5c-0.5,0-1.4,0.9-2.6,2.8l-0.8-0.7
		c1.1-1.7,2.1-2.7,2.9-3v-6.4h-3v-1h4v7.5c0.2,0.1,0.4,0.3,0.6,0.6c0.5,0.6,1.1,1,1.7,1.3c0.7,0.2,1.6,0.4,2.8,0.4c1,0,2.3,0,3.9,0
		h2.8c0.9,0,1.6-0.1,2.1-0.1l-0.3,1.1H653C651.9,585.9,650.7,585.9,649.4,585.8z M644.6,571.5l-0.8,0.8c-0.9-1-2-2-3.5-3.1l0.8-0.7
		C642.5,569.5,643.7,570.5,644.6,571.5z M650.9,576c0.1-1,0.2-2,0.3-3.3h-4.5v-1h6.1c0.6-1.2,1.2-2.5,1.6-3.8l1,0.4
		c-0.5,1.3-1,2.5-1.6,3.4h2.8v1h-4.4c0,1.3-0.1,2.4-0.2,3.3h5.3v1h-5.5l0,0.1c-0.6,2.5-2.3,4.5-5.3,6l-0.7-0.9
		c2.7-1.3,4.3-3.1,4.9-5.3h-4.7v-1H650.9z M650.4,571l-0.9,0.5c-0.6-1.1-1.3-2.1-2-3l1-0.5C649.1,568.9,649.8,569.9,650.4,571z
		 M657.2,582.4l-0.7,0.8c-1.5-1.6-3-2.9-4.5-4l0.7-0.7C654.3,579.6,655.9,580.9,657.2,582.4z"/>
	<path d="M557.7,599.4v1.1h-17.9v-1.1H557.7z"/>
	<path d="M574.6,597.1v1h-5.2v3.9h6.1v1h-6.1v4.5c1.4,0.2,3.1,0.3,5.2,0.4c1,0,2.1,0,3.2-0.1l-0.2,1.1H575c-3.9,0-6.7-0.4-8.4-1.1
		c-1.4-0.7-2.5-1.7-3.3-3.1c-0.8,1.8-1.8,3.3-2.9,4.6l-0.7-0.9c2-2.1,3.3-4.9,4-8.5l1,0.2c-0.3,1.3-0.6,2.4-0.9,3.5
		c1,1.9,2.2,3,3.7,3.5c0.3,0.1,0.6,0.2,0.9,0.2v-9.2h-5.4v-1H574.6z M576.8,597.2h-1.1v-3h-13.9v3.1h-1.1v-4.2h7.7
		c-0.3-0.8-0.7-1.5-1-2.1l1.1-0.2c0.3,0.7,0.7,1.4,1,2.3h7.2V597.2z"/>
	<path d="M586.7,608h-1v-1.2h-4v1.8h-1v-14h1.8c0.4-1.1,0.7-2.3,0.9-3.6l1.1,0.1c-0.2,1.2-0.5,2.4-1,3.4h3.3V608z M585.6,600.1v-4.5
		h-4v4.5H585.6z M585.6,605.8v-4.7h-4v4.7H585.6z M596.7,606.6c-0.2,1.6-1.1,2.4-2.8,2.4c-0.4,0-1,0-2,0l-0.3-1
		c0.8,0,1.5,0.1,2.1,0.1c1.1,0,1.7-0.6,1.9-1.8c0.2-1.2,0.2-4.7,0.3-10.5h-5.9c-0.6,1.3-1.2,2.5-2,3.5l-0.6-0.8
		c1.4-2,2.4-4.5,2.9-7.4l1.1,0.1c-0.2,1.2-0.5,2.4-0.9,3.5h6.5C597,601.1,596.9,605.1,596.7,606.6z M593.5,603.5l-0.9,0.6
		c-0.8-1.4-2-2.8-3.5-4.5l0.9-0.6C591.6,600.8,592.7,602.2,593.5,603.5z"/>
	<path d="M599.9,603.1l-0.3-1.1c3.7-2.4,6.1-4.7,7.3-7h-6.6V594h7.7v0.9c-0.6,1.4-1.6,2.8-3,4.2c1.4,0.8,2.6,1.7,3.8,2.7l-0.6,0.9
		c-1.1-1-2.2-1.9-3.3-2.5v9.1h-1.1v-9.1C602.7,601.2,601.4,602.2,599.9,603.1z M604.9,593.5l-1,0.4c-0.3-0.9-0.7-1.8-1.1-2.7l1-0.3
		C604.3,591.8,604.7,592.7,604.9,593.5z M612,608.9c-1.1,0-1.7-0.6-1.7-1.7v-16.1h1.1V607c0,0.6,0.3,0.8,0.9,0.8h2.9
		c0.5,0,0.9-0.2,1.1-0.5c0.2-0.4,0.3-1.6,0.4-3.7l1,0.3c-0.1,2.3-0.3,3.7-0.6,4.2s-0.9,0.7-1.8,0.7H612z"/>
	<path d="M620.5,599.4l-0.9-0.3c0.9-2.1,1.3-4.4,1.5-6.7l1,0.1c0,1-0.2,1.9-0.3,2.8h1.7V591h1.1v4.3h1.8v1h-1.8v5.2
		c0.6-0.3,1.2-0.6,1.8-0.9v1c-0.6,0.3-1.2,0.6-1.8,0.9v6.6h-1.1v-6.1c-1.1,0.5-2.2,0.9-3.3,1.2l-0.3-1.1c1.2-0.3,2.4-0.7,3.6-1.2
		v-5.7h-1.9C621.2,597.4,620.9,598.4,620.5,599.4z M630,591.3c-0.2,1.1-0.5,2.2-0.8,3.1h7.9c0,6.5-0.1,10.5-0.3,12.1
		c-0.2,1.8-1.3,2.7-3.2,2.7c-0.3,0-0.8,0-1.5-0.1l-0.2-1c0.6,0,1.2,0.1,1.6,0.1c1.3,0,2.1-0.7,2.3-2c0.1-1.2,0.2-4.8,0.3-10.7h-1.7
		c-0.4,3.4-1.1,6.1-1.9,8.1c-0.9,2.1-2.3,3.9-4.1,5.6l-0.7-0.8c1.7-1.5,3-3.2,3.8-5.1c0.8-1.9,1.4-4.5,1.8-7.7h-1.8
		c-0.8,4.4-2.3,7.6-4.6,9.6l-0.7-0.8c2.1-1.8,3.6-4.8,4.3-8.8h-1.7c-0.5,1.3-1.2,2.4-1.9,3.3l-0.8-0.7c1.3-1.6,2.3-4,2.8-7
		L630,591.3z"/>
	<path d="M639.7,600.5l-0.3-1.2c2.3-2.5,3.9-5.3,4.9-8.5l1,0.5c-0.5,1.6-1.2,3.1-2,4.5v13.4h-1.1v-11.7
		C641.5,598.6,640.7,599.6,639.7,600.5z M648.4,595.4v-4.3h1.1v4.3h4v-4.3h1.1v4.3h2.8v1.1h-2.8v5h3.4v1.1h-12.8v-1.1h3.3v-5h-2.7
		v-1.1H648.4z M649.9,604.1c-1,1.9-2.3,3.6-3.7,5l-0.9-0.7c1.4-1.4,2.6-3,3.7-4.9L649.9,604.1z M653.4,601.5v-5h-4v5H653.4z
		 M657.6,608.5l-1,0.7c-0.9-1.5-2.2-3.2-3.8-5.1l0.9-0.6C655.4,605.4,656.7,607.1,657.6,608.5z"/>
	<path d="M663.9,594.3v6.5c0,2.3-0.3,4.1-0.9,5.4c-0.6,1.3-1.5,2.3-2.9,3l-0.6-0.9c1.3-0.7,2.2-1.6,2.7-2.8c0.5-1.2,0.7-2.8,0.8-4.7
		v-6.5H663.9z M666.4,604.2h-1V593h-4.1v11.2h-1v-12.1h6V604.2z M667.1,608.2l-0.7,0.8c-0.6-1-1.5-2-2.5-3.1l0.7-0.6
		C665.6,606.2,666.4,607.2,667.1,608.2z M671.2,593.7h2.5c0.4-0.9,0.7-1.8,0.8-2.8l1,0.1c-0.2,0.9-0.5,1.8-0.8,2.6h2.5v6.6h-9.5
		v-6.6h2.5c-0.3-0.9-0.7-1.7-1-2.5l1.1-0.2C670.5,591.8,670.9,592.7,671.2,593.7z M676.4,609.3h-1v-1h-5.9v1h-1v-7.5h8V609.3z
		 M671.9,594.6h-3.3v4.7h3.3V594.6z M671.1,598.3l-0.7,0.2c-0.2-0.9-0.5-1.8-0.9-2.7l0.7-0.2C670.5,596.4,670.8,597.3,671.1,598.3z
		 M675.4,604.6v-1.9h-5.9v1.9H675.4z M675.4,607.4v-1.9h-5.9v1.9H675.4z M676.2,594.6h-3.3v4.7h3.3V594.6z M675.3,595.7
		c-0.3,1.1-0.6,2-1,2.8l-0.7-0.3c0.4-0.7,0.7-1.6,1-2.8L675.3,595.7z"/>
	<path d="M689.4,608.8c-1.3,0-2.3-0.2-3.1-0.4c-0.8-0.2-1.5-0.7-2.2-1.5c-0.3-0.4-0.5-0.5-0.8-0.5c-0.5,0-1.4,0.9-2.6,2.8l-0.8-0.7
		c1.1-1.7,2.1-2.7,2.9-3v-6.4h-3v-1h4v7.5c0.2,0.1,0.4,0.3,0.6,0.6c0.5,0.6,1.1,1,1.7,1.3c0.7,0.2,1.6,0.4,2.8,0.4c1,0,2.3,0,3.9,0
		h2.8c0.9,0,1.6-0.1,2.1-0.1l-0.3,1.1H693C691.9,608.9,690.7,608.9,689.4,608.8z M684.6,594.5l-0.8,0.8c-0.9-1-2-2-3.5-3.1l0.8-0.7
		C682.5,592.5,683.7,593.5,684.6,594.5z M690.9,599c0.1-1,0.2-2,0.3-3.3h-4.5v-1h6.1c0.6-1.2,1.2-2.5,1.6-3.8l1,0.4
		c-0.5,1.3-1,2.5-1.6,3.4h2.8v1h-4.4c0,1.3-0.1,2.4-0.2,3.3h5.3v1h-5.5l0,0.1c-0.6,2.5-2.3,4.5-5.3,6l-0.7-0.9
		c2.7-1.3,4.3-3.1,4.9-5.3h-4.7v-1H690.9z M690.4,594l-0.9,0.5c-0.6-1.1-1.3-2.1-2-3l1-0.5C689.1,591.9,689.8,592.9,690.4,594z
		 M697.2,605.4l-0.7,0.8c-1.5-1.6-3-2.9-4.5-4l0.7-0.7C694.3,602.6,695.9,603.9,697.2,605.4z"/>
</g>
<g>
	<g>
		<path d="M325.1,536.2c0.3-1.2,0.7-2.4,1-3.7h-6.7v-1.3h7c0.2-1.1,0.5-2.2,0.7-3.3l1.4,0.1c-0.2,1.1-0.4,2.2-0.6,3.1h11.4v1.3
			h-11.8c-0.3,1.3-0.6,2.5-0.9,3.7h14.2v1.4h-14.6c-0.4,1.4-0.9,2.7-1.3,3.8h12.7v1.2c-1.3,2.1-3.3,4.1-6.1,6.2
			c1.7,0.6,3.3,1.4,4.8,2.1l-0.8,1.2c-4-2-8.1-3.5-12.2-4.7l0.8-1.1c2.1,0.6,4,1.2,5.9,1.9c2.5-1.7,4.6-3.6,6-5.5h-13
			c0.6-1.7,1.2-3.4,1.8-5.2h-7.1v-1.4H325.1z"/>
		<path d="M347.5,536.6c0,5.8-1,10.7-3,14.9l-1.1-0.9c1.8-3.6,2.7-8.3,2.7-13.9v-7.5h19.1v4.6h-17.8V536.6z M347.5,530.3v2.3h16.4
			v-2.3H347.5z M356.5,538.1v-1.6c-2.2,0.1-4.5,0.1-7,0.1l-0.4-1.1c6.2,0,11.3-0.3,15.3-0.8l0.6,1.1c-2,0.3-4.4,0.4-7.2,0.6v1.7h6.2
			v4.3h-6.2v1.7h8.1v5.5c0,1.3-0.6,2-1.9,2h-2.7l-0.3-1.2l2.7,0.1c0.7,0,1-0.4,1-1.1v-4.1h-3.6c0.7,1.3,1.3,2.7,1.8,4.2l-1,0.5
			c-0.2-0.5-0.3-1-0.5-1.4c-2.7,0.4-5.6,0.7-8.7,1l-0.3-1.2c1.5-0.1,2.9-0.2,4.2-0.3v-2.7h-6.1v6.4H349v-7.5h7.4v-1.7h-6.1v-4.3
			H356.5z M356.5,539.2h-4.8v2.1h4.8V539.2z M357.8,548c1-0.1,2.1-0.2,3-0.3c-0.3-0.7-0.6-1.4-0.9-2l0.8-0.2h-2.9V548z M362.8,539.2
			h-5v2.1h5V539.2z"/>
		<path d="M382,551.2c-1.7-0.1-3-0.2-4.1-0.5c-1-0.3-1.9-0.9-2.7-1.9c-0.4-0.5-0.7-0.7-1-0.7c-0.7,0-1.8,1.2-3.4,3.6l-1.1-1
			c1.5-2.2,2.7-3.6,3.8-3.9v-8.3h-4v-1.4h5.3v9.8c0.3,0.1,0.5,0.4,0.8,0.7c0.7,0.8,1.4,1.4,2.1,1.7c0.8,0.3,2,0.5,3.5,0.5
			c1.3,0,3,0.1,5,0.1h3.6c1.2-0.1,2.1-0.1,2.8-0.1l-0.3,1.4h-5.9C385.2,551.3,383.7,551.2,382,551.2z M375.8,532.6l-1,1
			c-1.1-1.3-2.7-2.7-4.6-4.1l1-0.9C373,529.9,374.6,531.2,375.8,532.6z M381.5,531.1c-0.4-0.9-0.9-1.7-1.5-2.5l1.3-0.5
			c0.6,0.8,1.1,1.8,1.6,3h3.3c0.7-1,1.2-2,1.7-3.1l1.4,0.5c-0.5,1-1,1.8-1.5,2.6h4.8v1.3h-7.4c-0.2,0.9-0.4,1.7-0.7,2.5h6.3v12.3
			h-12v-12.3h4.2c0.3-0.8,0.6-1.6,0.8-2.5h-6.8v-1.3H381.5z M389.4,538.6v-2.4H380v2.4H389.4z M389.4,542.1v-2.3H380v2.3H389.4z
			 M389.4,543.3H380v2.5h9.4V543.3z"/>
		<path d="M414.7,545.1h4v1.3h-23v-1.3h4v-15.9h15.1V545.1z M404.5,547.6c-2,1.6-4.4,3-7.3,4.2l-0.8-1.1c2.8-1.1,5.2-2.5,7.1-4
			L404.5,547.6z M413.3,533.3v-2.8H401v2.8H413.3z M413.3,537.2v-2.8H401v2.8H413.3z M413.3,541.1v-2.8H401v2.8H413.3z M413.3,545.1
			v-2.8H401v2.8H413.3z M417.9,550.5l-0.8,1.2c-2.4-1.7-4.9-3-7.4-4l0.7-1.1C413.2,547.7,415.7,549,417.9,550.5z"/>
	</g>
</g>
<g>
	<g>
		<path d="M81.7,764.9c3.3,3.8,7.1,6.8,11.5,8.9l-0.8,1.4c-4.4-2.3-8.1-5.3-11.2-9c-2.9,3.5-6.6,6.5-11.3,9l-0.7-1.4
			c4.6-2.4,8.5-5.4,11.5-9H81.7z M91.6,778.2v1.4H79.2c-1.3,2.6-3,5-4.9,7c4.7-0.3,9-0.7,13.2-1.3c-0.9-1.2-2-2.6-3.2-3.9l1.1-0.7
			c2.4,2.7,4.2,5,5.4,7l-1.1,0.8c-0.4-0.7-0.9-1.5-1.5-2.2c-4,0.7-9.2,1.2-15.6,1.6l-0.4-1.2c0.3-0.1,0.6-0.2,0.7-0.4
			c1.9-2.1,3.5-4.4,4.7-6.7h-6.8v-1.4H91.6z M87.5,773v1.4H74.9V773H87.5z"/>
		<path d="M108.1,777.8c-0.4,3.7-1.2,6.3-2.4,7.7c-1.4,1.6-4.4,2.7-9.1,3.1l-0.6-1.3c4.3-0.3,7.1-1.2,8.5-2.7c1.2-1.4,2-3.7,2.2-7
			L108.1,777.8z M115.8,784h-1.4v-8.3H100v8.6h-1.4v-9.9h17.2V784z M114.2,766v6.2h-14.1V766H114.2z M112.9,767.2h-11.3v3.7h11.3
			V767.2z M118.2,787.5l-0.8,1.1c-3-1.6-6.1-2.8-9.3-3.7l0.7-1.1C112.3,784.8,115.4,786,118.2,787.5z"/>
		<path d="M123.3,777.6h5.7c0,4.3-0.2,7.1-0.4,8.4c-0.3,1.5-1.7,2.3-4,2.3c-0.6,0-1.1-0.1-1.7-0.1l-0.4-1.3c0.6,0.1,1.2,0.1,1.8,0.1
			c1.7,0,2.7-0.5,2.9-1.5c0.3-1.1,0.4-3.3,0.4-6.6h-5.8l0.7-7.1h4.9v-4.4h-5.2v-1.2h6.6v6.9h-5L123.3,777.6z M138.9,769.2
			c0.8-1.4,1.5-2.9,2-4.4l1.3,0.5c-0.6,1.5-1.2,2.8-2,4h3.5v10.2h-5.6v2.8h6.9v1.4h-6.9v5.1h-1.4v-5.1H130v-1.4h6.8v-2.8h-5.5v-10.2
			H138.9z M136.7,773.6v-3.2h-4.3v3.2H136.7z M136.7,774.9h-4.3v3.2h4.3V774.9z M136,768.3l-1.2,0.5c-0.7-1.4-1.4-2.5-2.2-3.6
			l1.3-0.4C134.8,765.9,135.4,767,136,768.3z M138.1,773.6h4.3v-3.2h-4.3V773.6z M142.5,774.9h-4.3v3.2h4.3V774.9z"/>
		<path d="M153.2,783.5v4.5h-1.4v-5.4c-1.1,0.6-2.4,1.1-3.8,1.6l-0.6-1.2c3.1-1,5.5-2.2,7-3.6H148v-1.2h7.5c0.4-0.5,0.7-1.1,0.9-1.6
			H151v-6.7h3.1v-1.9h-6.4v-1.2h6.4v-1.8h1.4v1.8h7.5v-1.8h1.4v1.8h6.3v1.2h-6.3v1.9h3.1v6.7h-9.6c-0.2,0.6-0.5,1.1-0.8,1.6h13.4
			v1.2h-6.1c1.5,1.5,3.7,2.7,6.8,3.5l-0.6,1.2c-1.3-0.4-2.4-0.9-3.4-1.4v3.5c0,1.2-0.7,1.8-2,1.8H163l-0.3-1.2l2,0.1
			c0.7,0,1-0.3,1-1v-2.4h-5.9v5.1h-1.4v-5.1H153.2z M159.9,780.3v2h6.7c-1.6-0.9-2.8-1.9-3.7-3h-6.8c-1,1.1-2.3,2.1-3.8,3h6.3v-2
			H159.9z M166,772.6v-1.8h-13.7v1.8H166z M166,773.6h-13.7v1.9H166V773.6z M155.5,767.9v1.9h7.5v-1.9H155.5z"/>
	</g>
</g>
<g>
	<g>
		<path d="M580,535.3c1.2-1,2.5-2.2,3.6-3.5h-8.5c-1.7,2-3.8,3.7-6.1,5.2l-0.9-1.1c3.4-2.1,6.2-4.8,8.2-7.9l1.4,0.3
			c-0.5,0.8-1,1.5-1.5,2.2h9.2v1.1c-1.2,1.5-2.4,2.8-3.6,3.7h6.8v7.5h-6v5.8c0,0.9,0.4,1.4,1.2,1.4h4.3c0.6,0,1-0.2,1.2-0.5
			c0.3-0.4,0.5-1.7,0.6-3.7l1.3,0.4c-0.2,2.4-0.5,4-0.9,4.5c-0.4,0.4-1,0.7-1.9,0.7h-5c-1.5,0-2.2-0.8-2.2-2.4v-6.1h-1.7
			c-0.2,0.5-0.4,1-0.6,1.5c-1.5,3-4.7,5.5-9.8,7.4l-0.9-1.1c4.5-1.7,7.6-3.8,9.1-6.4c0.2-0.5,0.4-0.9,0.6-1.4h-6.5v-7.5H580z
			 M579.1,536.6h-6.2v4.8h5.5C578.8,540,579,538.4,579.1,536.6z M587.2,536.6h-6.7c-0.1,1.8-0.2,3.4-0.6,4.8h7.3V536.6z"/>
		<path d="M606.7,543.3c-0.4,2.9-1.1,4.9-2.4,6c-1.4,1.3-4.3,2.1-8.9,2.4l-0.5-1.2c4.2-0.2,6.9-0.9,8.2-2c1.2-1,1.9-2.8,2.2-5.3
			L606.7,543.3z M609.1,535.7h7.2c0,1.8-0.2,3-0.6,3.5c-0.4,0.5-1.3,0.8-2.6,0.8c-0.4,0-0.8,0-1.2-0.1l-0.3-1.1
			c0.4,0.1,0.9,0.1,1.2,0.1c0.9,0,1.5-0.2,1.7-0.5c0.2-0.3,0.3-0.8,0.3-1.7h-5.8v3.1h-1.4v-3.1h-4.8c-0.3,0.6-0.7,1.2-1.2,1.7
			c-1.2,1.1-3.2,1.9-5.9,2.6L595,540c2.7-0.6,4.5-1.4,5.6-2.3c0.3-0.3,0.5-0.5,0.7-0.9h-5.4l0.9-4.2h5.5v-2h-6.1v-1.2h6.1V528h1.4
			v1.5h4.1V528h1.4v1.5h5.9v4.3h-5.9V535.7z M597.5,535.7h4.4c0.2-0.6,0.3-1.2,0.3-1.9h-4.3L597.5,535.7z M614.2,547.8h-1.4v-5.7
			h-13.4v5.7H598v-7h16.1V547.8z M603.3,535.7h4.4v-1.9h-4.1C603.6,534.5,603.5,535.1,603.3,535.7z M603.6,532.6h4.1v-2h-4.1V532.6z
			 M616.5,550.6l-0.8,1.2c-3-1.4-6-2.4-9.2-3.2l0.8-1.1C610.7,548.4,613.8,549.4,616.5,550.6z M609.1,532.6h4.6v-2h-4.6V532.6z"/>
		<path d="M620.3,543.8l-0.4-1.4c4.8-3.1,8-6.1,9.5-9.1h-8.6v-1.4h10.1v1.2c-0.8,1.9-2.1,3.7-3.9,5.5c1.8,1,3.4,2.2,4.9,3.5
			l-0.8,1.2c-1.4-1.4-2.8-2.4-4.3-3.3v11.8h-1.4V540C623.9,541.3,622.2,542.5,620.3,543.8z M626.7,531.3l-1.3,0.5
			c-0.4-1.2-0.9-2.4-1.4-3.5l1.4-0.4C626,529.1,626.4,530.3,626.7,531.3z M635.9,551.3c-1.5,0-2.2-0.8-2.2-2.3v-20.9h1.4v20.7
			c0,0.7,0.4,1.1,1.2,1.1h3.8c0.7,0,1.1-0.2,1.5-0.7c0.3-0.5,0.4-2.1,0.5-4.8l1.4,0.4c-0.2,3-0.4,4.8-0.8,5.4
			c-0.4,0.6-1.2,0.9-2.3,0.9H635.9z"/>
		<path d="M647,538.9l-1.2-0.3c1.1-2.8,1.7-5.7,1.9-8.7l1.3,0.1c-0.1,1.3-0.2,2.5-0.4,3.7h2.2v-5.6h1.4v5.6h2.4v1.4h-2.4v6.8
			c0.8-0.4,1.5-0.8,2.3-1.2v1.3c-0.8,0.4-1.5,0.8-2.3,1.2v8.6h-1.4v-8c-1.4,0.6-2.9,1.1-4.3,1.6l-0.3-1.4c1.6-0.4,3.1-0.9,4.7-1.6
			V535h-2.5C647.9,536.3,647.5,537.7,647,538.9z M659.3,528.4c-0.3,1.5-0.6,2.8-1.1,4h10.2c0,8.5-0.1,13.7-0.4,15.7
			c-0.3,2.3-1.7,3.5-4.1,3.5c-0.4,0-1,0-1.9-0.1l-0.3-1.3c0.8,0.1,1.5,0.1,2.1,0.1c1.7,0,2.7-0.9,2.9-2.7c0.2-1.6,0.3-6.2,0.3-13.9
			H665c-0.6,4.5-1.4,8-2.4,10.5c-1.2,2.7-3,5.1-5.3,7.3l-0.9-1.1c2.2-2,3.8-4.2,4.9-6.7c1.1-2.5,1.9-5.8,2.4-10h-2.4
			c-1,5.7-3,9.9-6,12.5l-0.9-1c2.8-2.4,4.7-6.2,5.6-11.4h-2.2c-0.7,1.7-1.5,3.1-2.4,4.3l-1-0.9c1.7-2.1,2.9-5.1,3.7-9.1L659.3,528.4
			z"/>
	</g>
</g>
<g>
	<g>
		<path d="M70.4,992.3v5.4h5.4c0,7.9-0.1,12.7-0.4,14.6c-0.3,2.2-1.5,3.4-3.8,3.4c-0.4,0-1,0-2-0.1l-0.3-1.3
			c0.8,0.1,1.5,0.1,2.1,0.1c1.5,0,2.4-0.9,2.6-2.6c0.2-1.5,0.3-5.7,0.3-12.7h-4v0.1c-0.1,7.7-1.8,13.3-5.1,16.9l-1.1-1
			c3.1-3.3,4.8-8.6,4.8-15.9v-0.1h-4.3v-1.4H69v-5.4H70.4z M86.7,1015.6h-1.4v-1.8h-5.5v1.8h-1.4v-19.3h8.2V1015.6z M85.3,1012.4
			v-14.8h-5.5v14.8H85.3z"/>
		<path d="M103,1015.4c-1.7-0.1-3-0.2-4.1-0.5c-1-0.3-2-0.9-2.8-1.9c-0.4-0.5-0.7-0.7-1-0.7c-0.7,0-1.8,1.2-3.3,3.6l-1.1-0.9
			c1.4-2.3,2.7-3.6,3.7-4v-8.3h-3.8v-1.4h5.2v9.7c0.3,0.2,0.6,0.4,0.8,0.7c0.7,0.8,1.4,1.4,2.1,1.7c0.9,0.3,2.1,0.5,3.6,0.5
			c1.3,0,3,0.1,5,0.1h3.7c1.2-0.1,2.2-0.1,2.8-0.1l-0.3,1.4h-6C106.2,1015.5,104.7,1015.5,103,1015.4z M96.9,996.8l-1,1
			c-1.1-1.3-2.7-2.7-4.6-4.1l1-0.9C94.1,994.1,95.6,995.5,96.9,996.8z M105.2,994.5v-2.3h1.3v2.3h6.7v1.3h-6.7v2.6h5.8v6.3h-5.8v8.2
			h-1.3v-7.8c-1.4,2.5-3.5,4.6-6.6,6.3l-0.9-1.1c3-1.6,5.2-3.4,6.4-5.6h-4.7v-6.3h5.8v-2.6h-6.8v-1.3H105.2z M105.2,999.6h-4.4v3.8
			h4.4V999.6z M111,999.6h-4.4v3.8h4.4V999.6z M113.5,1010.5l-1,0.9c-1.2-1.5-2.8-3.1-4.9-4.8l0.9-0.9
			C110.5,1007.3,112.1,1008.9,113.5,1010.5z"/>
		<path d="M124.5,1011.7c-2.3,1.1-4.9,2-7.9,2.7l-0.2-1.4c3.1-0.7,5.8-1.5,8.1-2.7V1011.7z M122.4,992.9c-1.4,3.6-2.8,6.4-4.2,8.4
			c1.3-0.2,2.6-0.3,4-0.6c0.5-0.9,1-1.8,1.5-2.7l1.3,0.5c-2.4,4.3-4.4,7.3-6,9c2-0.3,4-0.8,5.9-1.3v1.3c-2.6,0.8-5.2,1.3-7.6,1.6
			l-0.4-1.3c0.3-0.1,0.5-0.3,0.6-0.4c1.1-1,2.4-2.8,3.9-5.2c-1.5,0.3-3,0.5-4.5,0.7l-0.4-1.3c0.2-0.1,0.4-0.3,0.6-0.6
			c1.5-2.4,2.8-5.2,3.9-8.4L122.4,992.9z M135.3,999.8c0.8-1.3,1.5-2.9,2.1-4.7l1.3,0.4c-0.5,1.6-1.2,3-2,4.3h2.4v1.2h-8.8
			c-0.1,0.9-0.3,1.8-0.4,2.6h9.8v1.3h-10.1c-0.2,0.8-0.3,1.6-0.5,2.3h8.9v1.1c-0.7,1.7-1.9,3.2-3.6,4.5c1.6,0.9,3.5,1.5,5.6,1.9
			l-0.7,1.2c-2.4-0.5-4.4-1.3-6.1-2.3c-1.6,1-3.5,1.8-5.7,2.4l-0.7-1.2c2.1-0.5,3.8-1.2,5.3-2c-1.5-1.1-2.7-2.4-3.6-4l-0.4,1
			c-0.9,2.2-2.4,4.2-4.3,6l-0.8-1.1c1.8-1.6,3.1-3.4,4-5.4c0.5-1.2,0.9-2.7,1.3-4.4h-3.5v-1.3h3.8c0.2-0.9,0.3-1.7,0.4-2.6h-3.3
			v-1.2H135.3z M139.3,993.5c-3.5,1.1-8.1,1.7-13.9,1.7L125,994c5.6,0,10.2-0.5,13.7-1.6L139.3,993.5z M129.1,999l-1.1,0.5
			c-0.5-1.2-1-2.3-1.6-3.2l1.1-0.4C128.1,996.8,128.6,997.9,129.1,999z M136.7,1008.4h-6.9c0.9,1.5,2.2,2.7,3.6,3.7
			C134.9,1011.1,136,1009.8,136.7,1008.4z M133.6,998.9l-1.1,0.4c-0.5-1.2-1-2.3-1.6-3.2l1.1-0.4
			C132.7,996.7,133.2,997.7,133.6,998.9z"/>
		<path d="M150.4,995.1c0.4-1,0.7-1.9,1-2.9l1.4,0.2c-0.3,1-0.6,1.9-0.9,2.8h13.5v1.4h-14.1c-0.9,2.2-2.1,4.3-3.5,6.2v13.4h-1.4
			v-11.6c-1,1.2-2.1,2.3-3.3,3.3l-0.9-1.1c3.3-2.9,5.8-6.3,7.6-10.1h-6.7v-1.4H150.4z M157.8,1007.1v-2.6c1.6-0.9,3.1-1.9,4.5-3.1
			h-10.2v-1.3h12v1.3c-1.4,1.3-3.1,2.6-4.9,3.7v2h6.7v1.4h-6.7v5.4c0,1.4-0.7,2-2.1,2h-3.2l-0.4-1.3c0.9,0,2,0.1,3.1,0.1
			c0.8,0,1.2-0.4,1.2-1.2v-5h-7.7v-1.4H157.8z"/>
	</g>
</g>
<g>
	<g>
		<path d="M329.7,764.9c3.3,3.8,7.1,6.8,11.5,8.9l-0.8,1.4c-4.4-2.3-8.1-5.3-11.2-9c-2.9,3.5-6.6,6.5-11.3,9l-0.7-1.4
			c4.6-2.4,8.5-5.4,11.5-9H329.7z M339.6,778.2v1.4h-12.4c-1.3,2.6-3,5-4.9,7c4.7-0.3,9-0.7,13.2-1.3c-0.9-1.2-2-2.6-3.2-3.9
			l1.1-0.7c2.4,2.7,4.2,5,5.4,7l-1.1,0.8c-0.4-0.7-0.9-1.5-1.5-2.2c-4,0.7-9.2,1.2-15.6,1.6l-0.4-1.2c0.3-0.1,0.6-0.2,0.7-0.4
			c1.9-2.1,3.5-4.4,4.7-6.7h-6.8v-1.4H339.6z M335.5,773v1.4h-12.6V773H335.5z"/>
		<path d="M356.1,777.8c-0.4,3.7-1.2,6.3-2.4,7.7c-1.4,1.6-4.4,2.7-9.1,3.1l-0.6-1.3c4.3-0.3,7.1-1.2,8.5-2.7c1.2-1.4,2-3.7,2.2-7
			L356.1,777.8z M363.8,784h-1.4v-8.3H348v8.6h-1.4v-9.9h17.2V784z M362.2,766v6.2h-14.1V766H362.2z M360.8,767.2h-11.3v3.7h11.3
			V767.2z M366.2,787.5l-0.8,1.1c-3-1.6-6.1-2.8-9.3-3.7l0.7-1.1C360.3,784.8,363.4,786,366.2,787.5z"/>
		<path d="M381.8,777.2c0.3-1.4,0.5-2.8,0.5-4.4v-7.9h1.4v7.9c0,1.6-0.2,3.1-0.5,4.4h9.3v1.4h-9.6c-0.2,0.7-0.4,1.2-0.7,1.8
			c4.1,2.4,7.5,4.7,10.2,7.1l-1,1c-2.4-2.2-5.7-4.5-9.8-7c-0.3,0.5-0.7,1-1,1.5c-2,2.4-5.3,4.2-9.8,5.5l-0.8-1.2
			c4.5-1.3,7.7-3.1,9.7-5.4c0.7-1,1.3-2.1,1.7-3.3H370v-1.4H381.8z M377.8,774l-0.8,1.2c-1.9-1.5-3.9-2.7-5.9-3.5l0.8-1.1
			C374.1,771.5,376,772.7,377.8,774z M379.8,769.4l-0.8,1.2c-1.6-1.3-3.3-2.3-5-3.1l0.8-1.1C376.6,767.2,378.3,768.2,379.8,769.4z"
			/>
		<path d="M401.8,765.4c-1.3,3-3.3,5.5-6.1,7.7l-0.4-1.4c2.4-2,4.2-4.3,5.3-6.9L401.8,765.4z M402,772.1c-0.5,1.2-1.2,2.4-1.9,3.5
			v13h-1.4v-11.2c-0.9,1-1.8,2-2.9,2.8l-0.4-1.3c2.5-2.2,4.3-4.6,5.4-7.4L402,772.1z M406.9,765c-0.3,1.1-0.7,2.1-1.1,3.1h5v1.3
			h-5.6c-0.6,1.2-1.2,2.3-2,3.3l-1.1-0.7c1.6-2.2,2.7-4.6,3.5-7.3L406.9,765z M410.1,773.1v1.3h-2.7v3.7h3.5v1.4h-3.5v6.5
			c1.2-0.5,2.5-1.1,3.7-2l0.2,1.3c-1.5,1-3.3,1.8-5.3,2.4l-0.6-1.2c0.4-0.2,0.6-0.4,0.6-0.8v-6.2h-3.8v-1.4h3.8v-3.7h-2.4v-1.3
			H410.1z M412,788.3l-0.3-1.3c0.9,0.1,1.7,0.1,2.5,0.1c0.5,0,0.8-0.3,0.8-0.9v-11.4h-3.3v-1.3h7.2v1.3h-2.5v11.7
			c0,1.2-0.6,1.8-1.8,1.8H412z M418.5,766.7v1.3h-6.2v-1.3H418.5z"/>
	</g>
</g>
<g>
	<g>
		<path d="M575.8,769.4v8.6c-0.1,2.9-0.5,5.1-1.2,6.9c-0.8,1.6-2.1,2.8-3.9,3.7l-0.8-1.2c1.7-0.8,2.9-2,3.6-3.5c0.6-1.5,1-3.5,1-5.9
			v-8.6H575.8z M579.4,782.2h-1.3v-14.8h-5.8v14.8H571V766h8.4V782.2z M580.5,787.4l-1,1c-0.9-1.4-2.1-2.9-3.6-4.5l0.9-0.9
			C578.3,784.5,579.5,785.9,580.5,787.4z M584.9,764.9c-0.3,1.3-0.6,2.6-1,3.8h8.8c0,8.9-0.2,14.4-0.4,16.4
			c-0.3,2.1-1.5,3.2-3.5,3.2c-0.7,0-1.9,0-3.5-0.1l-0.3-1.2c1.4,0.1,2.6,0.1,3.7,0.1c1.3,0,2.1-0.7,2.3-2.1
			c0.3-1.7,0.4-6.6,0.4-14.8h-8c-0.7,1.6-1.6,3-2.6,4.3l-0.8-1.1c1.8-2.3,3-5.2,3.7-8.6L584.9,764.9z M589.6,783.1l-1.2,0.6
			c-0.2-0.7-0.4-1.3-0.6-1.9c-2.1,0.5-4.3,0.9-6.9,1.1l-0.2-1.2c1.1-1.1,2.4-4.1,3.9-9l1.3,0.4c-1.2,3.7-2.4,6.5-3.6,8.5
			c1.8-0.2,3.5-0.5,5.1-0.9c-0.5-1.4-1-2.7-1.5-3.8l1.1-0.5C587.9,778.4,588.8,780.6,589.6,783.1z"/>
		<path d="M609.9,769.3v5.5c0,1.5-0.2,2.9-0.6,4.2h9.9v1.4h-10.4c-0.2,0.5-0.4,0.9-0.6,1.4c3.8,1.7,7.3,3.6,10.5,5.7l-1,1.1
			c-3.3-2.2-6.7-4.1-10.2-5.7c-0.2,0.3-0.4,0.5-0.6,0.8c-1.9,2.1-4.9,3.7-9.3,4.8l-0.8-1.2c4.3-1.1,7.3-2.7,9.1-4.7
			c0.5-0.7,1-1.4,1.4-2.2h-10.7V779h11.2c0.4-1.3,0.6-2.7,0.7-4.2v-5.5H609.9z M617.3,766.5v0.9c-0.4,1.6-0.9,3.1-1.5,4.7l-1.3-0.4
			c0.6-1.2,1.1-2.5,1.4-3.9h-18.1v-1.3H617.3z M604.1,776.2l-0.7,1.1c-1.8-1.3-3.6-2.4-5.5-3.1l0.7-1
			C600.6,774,602.5,775,604.1,776.2z M606.3,772.6l-0.8,1.1c-1.7-1.4-3.4-2.4-5.1-3.2l0.7-1C603,770.3,604.7,771.4,606.3,772.6z"/>
		<path d="M623.1,788.3l-0.3-1.3c0.8,0.1,1.5,0.1,2.2,0.1c0.8,0,1.2-0.4,1.2-1.3V779c-1.3,0.5-2.6,0.9-3.9,1.2l-0.4-1.4
			c1.5-0.3,2.9-0.8,4.3-1.2v-6.4h-3.8v-1.4h3.8v-4.9h1.4v4.9h3.4v1.4h-3.4v5.9c1.2-0.5,2.4-1,3.5-1.6v1.4c-1.1,0.5-2.3,1.1-3.5,1.5
			v7.7c0,1.4-0.7,2.2-2.1,2.2H623.1z M644.5,766.3c-3.1,1.1-6.5,1.8-10.2,2v5.1h10.9v1.4h-4.1v13.9h-1.4v-13.9h-5.4v1.4
			c-0.2,5.1-1.4,9.3-3.8,12.3l-1-1.1c2.1-2.7,3.2-6.5,3.4-11.3v-9.1c4-0.1,7.6-0.8,10.9-2.1L644.5,766.3z"/>
		<path d="M657,776.8c-1.1,0.5-2.2,1-3.3,1.5v7.7c0,1.5-0.7,2.2-2.2,2.2h-2.6l-0.3-1.3c0.8,0.1,1.6,0.1,2.4,0.1
			c0.9,0,1.3-0.5,1.3-1.4v-6.8c-1.3,0.5-2.6,0.9-4,1.4l-0.3-1.4c1.5-0.4,2.9-0.8,4.3-1.3v-6.4h-3.9v-1.4h3.9v-4.8h1.4v4.8h3.2v1.4
			h-3.2v5.9c1.1-0.5,2.2-1,3.3-1.6V776.8z M669.9,787.9h-1.4V786h-8.4v1.9h-1.4v-20.5h11.2V787.9z M668.5,784.7v-15.9h-8.4v15.9
			H668.5z"/>
	</g>
</g>
<g>
	<polyline class="st12" points="118.8,474 105.5,480.8 108.2,466.1 97.6,455.6 112.4,453.6 119.2,440.3 125.6,453.8 	"/>
	<polyline class="st13" points="125.6,453.8 140.4,456.1 129.5,466.4 131.9,481.1 118.8,474 	"/>
	<line class="st12" x1="134" y1="442.1" x2="140.5" y2="435.5"/>
	<line class="st12" x1="139.3" y1="472.7" x2="145.3" y2="478.7"/>
	<line class="st14" x1="98.8" y1="472.7" x2="92.2" y2="479.3"/>
	<line class="st13" x1="118.8" y1="474.8" x2="118.8" y2="502.1"/>
	<line class="st14" x1="102.8" y1="442.5" x2="95.8" y2="435.5"/>
</g>
<g>
	<path class="st12" d="M619.2,437.3c0,0-10.1,8.4-10.1,20.1s0,30.6,0,30.6"/>
	<path class="st12" d="M619.7,437.3c0,0,10.1,8.4,10.1,20.1s0,30.6,0,30.6"/>
	<polyline class="st13" points="609.1,473.4 594.5,488 644.2,488 629.7,473.5 	"/>
	<circle class="st15" cx="619.2" cy="456.7" r="3.1"/>
	<line class="st13" x1="619.3" y1="495.8" x2="619.3" y2="503.6"/>
	<line class="st12" x1="612.1" y1="495.8" x2="612.1" y2="507.7"/>
	<line class="st12" x1="626.9" y1="495.8" x2="626.9" y2="507.7"/>
</g>
<g>
	<path class="st12" d="M114.7,960.3l-26.4-20.1c-0.7-0.5-0.3-1.7,0.6-1.7h13.7c0.5,0,0.9-0.4,0.9-0.9v-32.1c0-0.5,0.4-0.9,0.9-0.9
		h10.2"/>
	<path class="st13" d="M115.3,960.3l26.3-20.1c0.7-0.6,0.3-1.7-0.6-1.7h-13.7c-0.5,0-1-0.4-1-1v-32.1c0-0.5-0.4-1-1-1h-10.2"/>
	<polyline class="st15" points="111.2,934.5 112.6,925 109.5,923.8 117.9,912.4 	"/>
	<polyline class="st16" points="117.9,912.4 116.5,921.7 121.1,922.7 111.2,934.5 	"/>
</g>
<g>
	<path class="st17" d="M385.2,719.6c5.6-10.8,1.3-24.2-9.5-29.7c-10.8-5.6-24.2-1.3-29.7,9.5"/>
	<path class="st18" d="M346,699.5c-5.6,10.8-1.3,24.2,9.5,29.7c10.8,5.6,24.2,1.3,29.7-9.5"/>
	<line class="st17" x1="345" y1="671.5" x2="387" y2="671.5"/>
	<line class="st17" x1="345" y1="671.5" x2="345" y2="683.5"/>
	<line class="st18" x1="387" y1="671.5" x2="387" y2="683.5"/>
	<line class="st17" x1="345" y1="683.5" x2="354" y2="690.5"/>
	<line class="st17" x1="387" y1="683.5" x2="377" y2="690.5"/>
	<line class="st17" x1="354" y1="671.5" x2="354" y2="690.5"/>
	<line class="st18" x1="377" y1="671.5" x2="377" y2="690.5"/>
	<line class="st17" x1="366" y1="700.5" x2="366" y2="709.5"/>
	<line class="st18" x1="356.7" y1="706.6" x2="365.2" y2="709.4"/>
	<line class="st18" x1="371.6" y1="717.6" x2="366.3" y2="710.4"/>
	<line class="st17" x1="365.6" y1="710.4" x2="360.3" y2="717.6"/>
	<line class="st17" x1="366.7" y1="709.4" x2="375.2" y2="706.6"/>
</g>
<g>
	<path class="st17" d="M93.1,699.7"/>
	<path class="st19" d="M129.6,670.4c12.7,0,23.1,10.4,23.1,23.1v0c0,12.7-10.4,23.1-23.1,23.1l-16,12.5"/>
	<path class="st17" d="M129.6,670.4h-16.9c-12.7,0-23.1,10.4-23.1,23.1v0c0,12.7,10.4,23.1,23.1,23.1"/>
	<line class="st19" x1="113.6" y1="729.2" x2="112.7" y2="716.7"/>
	<line class="st19" x1="105.6" y1="687.3" x2="129.6" y2="687.3"/>
	<line class="st17" x1="137.6" y1="687.3" x2="137.6" y2="687.3"/>
	<line class="st17" x1="105.6" y1="698.9" x2="137.6" y2="698.9"/>
</g>
<g>
	<line class="st17" x1="591.6" y1="673.3" x2="590.9" y2="696.6"/>
	<line class="st19" x1="591.6" y1="673.3" x2="615" y2="672.6"/>
	<path class="st19" d="M627.7,733.4"/>
	<line class="st19" x1="590.9" y1="696.6" x2="601.5" y2="707.1"/>
	<line class="st19" x1="636.2" y1="693.8" x2="646.7" y2="704.3"/>
	<line class="st19" x1="607.9" y1="713.6" x2="622.8" y2="728.4"/>
	<line class="st19" x1="615" y1="672.6" x2="629.5" y2="687.1"/>
	<path class="st19" d="M591.7,679.3"/>
	<line class="st17" x1="622.8" y1="728.4" x2="646.8" y2="704.4"/>
	<line class="st17" x1="602.3" y1="683.9" x2="602.3" y2="683.9"/>
	<line class="st17" x1="629.8" y1="687.4" x2="597.3" y2="710"/>
	<line class="st17" x1="640.4" y1="691" x2="607.9" y2="713.6"/>
</g>
<g>
	<line class="st19" x1="371.4" y1="470" x2="371.4" y2="498"/>
	<line class="st17" x1="395.4" y1="456" x2="395.4" y2="484"/>
	<line class="st17" x1="347.4" y1="456" x2="347.4" y2="484"/>
	<line class="st17" x1="371.3" y1="470" x2="395.6" y2="456"/>
	<line class="st19" x1="371.3" y1="498" x2="395.6" y2="484"/>
	<line class="st17" x1="347.3" y1="456" x2="371.6" y2="442"/>
	<line class="st17" x1="371.6" y1="470" x2="347.3" y2="456"/>
	<line class="st19" x1="371.6" y1="498" x2="347.3" y2="484"/>
	<line class="st17" x1="395.6" y1="456" x2="371.3" y2="442"/>
</g>
<g>
	<g>
		<defs>
			<rect id="SVGID_13_" x="352.8" y="238.4" width="26.3" height="22.7"/>
		</defs>
		<clipPath id="SVGID_14_">
			<use xlink:href="#SVGID_13_"  style="overflow:visible;"/>
		</clipPath>
		<rect x="352.8" y="238.4" class="st20" width="7.5" height="1.9"/>
	</g>
	<rect x="354.6" y="240.1" class="st21" width="5.6" height="20.9"/>
	<path class="st21" d="M379,238.4l-18.8,22.6l-5.5-5.3l14.8-17.3L379,238.4z M379,238.4"/>
</g>
<line class="st22" x1="327.8" y1="283.9" x2="405.6" y2="283.9"/>
<text transform="matrix(1 0 0 1 372.132 261.5171)" class="st21 st23 st24">3</text>
<polyline class="st22" points="379,270.4 328.2,270.4 311.4,217.7 342,236.2 366.2,193.1 "/>
<polyline class="st25" points="366.2,193.1 389.6,236.1 420.2,218 405.3,270.4 379,270.4 "/>
<path class="st26" d="M405.6,279.9"/>
<path class="st26" d="M362.6,279.9"/>
<g class="st11">
	<g>
		<path class="st6" d="M281.5,1268.9c-0.2,0-0.4-0.1-0.5-0.2l-14.8-9.7c-0.5-0.3-0.6-0.9-0.3-1.4c0.3-0.5,0.9-0.6,1.4-0.3l14.8,9.7
			c0.5,0.3,0.6,0.9,0.3,1.4C282.1,1268.8,281.8,1268.9,281.5,1268.9z"/>
	</g>
	<g>
		<path class="st6" d="M291.3,1289.6H254c-0.6,0-1-0.4-1-1s0.4-1,1-1h37.3c3.3,0,6-3.1,6-6.9v-25.1c0-3.8-2.7-6.9-6-6.9
			c-0.6,0-1-0.4-1-1s0.4-1,1-1c4.4,0,8,4,8,8.9v25.1C299.3,1285.7,295.7,1289.6,291.3,1289.6z"/>
	</g>
	<g>
		<path class="st6" d="M254,1289.6c-4.4,0-8-4-8-8.9v-25.1c0-4.9,3.6-8.9,8-8.9h37.3c0.6,0,1,0.4,1,1s-0.4,1-1,1H254
			c-3.3,0-6,3.1-6,6.9v25.1c0,3.8,2.7,6.9,6,6.9c0.6,0,1,0.4,1,1S254.6,1289.6,254,1289.6z"/>
	</g>
	<g>
		<path class="st6" d="M266.7,1277.2c-0.6,0-1-0.4-1-1v-17.9c0-0.6,0.4-1,1-1s1,0.4,1,1v17.9
			C267.7,1276.8,267.3,1277.2,266.7,1277.2z"/>
	</g>
	<g>
		<path class="st6" d="M266.9,1277.1c-0.4,0-0.7-0.2-0.9-0.5c-0.3-0.5-0.1-1.1,0.4-1.4l14.6-8.2c0.5-0.3,1.1-0.1,1.4,0.4
			c0.3,0.5,0.1,1.1-0.4,1.4l-14.6,8.2C267.2,1277.1,267.1,1277.1,266.9,1277.1z"/>
	</g>
</g>
<g>
	<path class="st27" d="M672.4,1266.1c-0.3,0-0.5-0.1-0.7-0.3c-0.4-0.4-0.4-1,0-1.4c3.7-3.7,3.8-9.8,0.1-13.5
		c-1.8-1.8-4.2-2.8-6.8-2.8c0,0,0,0,0,0c-2.5,0-4.9,1-6.7,2.8c-0.4,0.4-1,0.4-1.4,0c-0.4-0.4-0.4-1,0-1.4c4.5-4.5,11.9-4.5,16.4,0.1
		s4.5,11.9-0.1,16.4C672.9,1266,672.7,1266.1,672.4,1266.1z"/>
</g>
<g>
	<g>
		<path class="st27" d="M665.1,1269.2c-3,0-5.9-1.1-8.2-3.4c-4.5-4.5-4.5-11.8,0-16.4c0.4-0.4,1-0.4,1.4,0s0.4,1,0,1.4
			c-3.7,3.7-3.7,9.8,0,13.5c3.7,3.7,9.8,3.7,13.5,0c0.4-0.4,1-0.4,1.4,0s0.4,1,0,1.4C671,1268.1,668,1269.2,665.1,1269.2z"/>
	</g>
</g>
<g>
	<path class="st28" d="M680.2,1289h-28.6c-1,0-2-0.4-2.6-1.2c-0.6-0.8-0.9-1.7-0.8-2.7c1.4-8.7,8.8-15,17.6-15
		c8.8,0,16.2,6.3,17.6,15c0.2,1-0.1,2-0.8,2.7C682.1,1288.6,681.2,1289,680.2,1289z M665.9,1272.1c-7.8,0-14.4,5.6-15.7,13.3
		c-0.1,0.4,0,0.8,0.3,1.1c0.3,0.3,0.7,0.5,1.1,0.5h28.6c0.4,0,0.8-0.2,1.1-0.5c0.3-0.3,0.4-0.7,0.3-1.1
		C680.3,1277.7,673.7,1272.1,665.9,1272.1z"/>
</g>
<g class="st11">
	<g>
		<path class="st6" d="M461.8,1277.3c-0.1,0-0.1,0-0.2,0c-0.5-0.1-0.9-0.6-0.8-1.2l4.8-23.2c0.1-0.5,0.6-0.9,1.2-0.8
			c0.5,0.1,0.9,0.6,0.8,1.2l-4.8,23.2C462.7,1276.9,462.2,1277.3,461.8,1277.3z"/>
	</g>
	<g>
		<path class="st6" d="M478,1276.2c-0.5,0-0.9-0.3-1-0.8l-5.2-22.2c-0.1-0.5,0.2-1.1,0.7-1.2c0.5-0.1,1.1,0.2,1.2,0.7l5.2,22.2
			c0.1,0.5-0.2,1.1-0.7,1.2C478.2,1276.2,478.1,1276.2,478,1276.2z"/>
	</g>
	<g>
		<path class="st6" d="M444.2,1273.3c-0.1,0-0.2,0-0.4-0.1c-0.5-0.2-0.8-0.8-0.6-1.3l9.4-24c0.2-0.5,0.8-0.8,1.3-0.6
			c0.5,0.2,0.8,0.8,0.6,1.3l-9.4,24C444.9,1273.1,444.6,1273.3,444.2,1273.3z"/>
	</g>
	<g>
		<path class="st6" d="M496.2,1275.4c-0.4,0-0.8-0.2-0.9-0.6l-10.4-26c-0.2-0.5,0-1.1,0.6-1.3c0.5-0.2,1.1,0,1.3,0.6l10.4,26
			c0.2,0.5,0,1.1-0.6,1.3C496.5,1275.4,496.4,1275.4,496.2,1275.4z"/>
	</g>
	<g>
		<path class="st6" d="M459.1,1287.6c-0.3,0-0.5-0.1-0.7-0.3c-0.4-0.4-0.4-1,0-1.4c1.7-1.7,2.7-4,2.7-6.5c0-2.5-1-4.8-2.7-6.5
			s-4-2.7-6.5-2.7s-4.8,1-6.5,2.7c-0.4,0.4-1,0.4-1.4,0s-0.4-1,0-1.4c4.4-4.4,11.5-4.4,15.8,0c2.1,2.1,3.3,4.9,3.3,7.9
			c0,3-1.2,5.8-3.3,7.9C459.6,1287.5,459.3,1287.6,459.1,1287.6z"/>
	</g>
	<g>
		<path class="st6" d="M451.9,1290.6c-2.9,0-5.7-1.1-7.9-3.3c-2.1-2.1-3.3-4.9-3.3-7.9c0-3,1.2-5.8,3.3-7.9c0.4-0.4,1-0.4,1.4,0
			s0.4,1,0,1.4c-1.7,1.7-2.7,4-2.7,6.5c0,2.5,1,4.8,2.7,6.5s4,2.7,6.5,2.7s4.8-1,6.5-2.7c0.4-0.4,1-0.4,1.4,0s0.4,1,0,1.4
			C457.7,1289.5,454.8,1290.6,451.9,1290.6z"/>
	</g>
	<g>
		<path class="st6" d="M446.8,1279.6c-0.6,0-1-0.4-1-1c0-3.1,2.5-5.6,5.6-5.6c0.6,0,1,0.4,1,1s-0.4,1-1,1c-2,0-3.6,1.6-3.6,3.6
			C447.8,1279.2,447.3,1279.6,446.8,1279.6z"/>
	</g>
	<g>
		<path class="st6" d="M482.2,1279.6c-0.6,0-1-0.4-1-1c0-3.1,2.5-5.6,5.6-5.6c0.6,0,1,0.4,1,1s-0.4,1-1,1c-2,0-3.6,1.6-3.6,3.6
			C483.2,1279.2,482.7,1279.6,482.2,1279.6z"/>
	</g>
	<g>
		<path class="st6" d="M494.5,1287.6c-0.3,0-0.5-0.1-0.7-0.3c-0.4-0.4-0.4-1,0-1.4c3.6-3.6,3.6-9.4,0-13c-3.6-3.6-9.4-3.6-13,0
			c-0.4,0.4-1,0.4-1.4,0s-0.4-1,0-1.4c4.4-4.4,11.5-4.4,15.8,0c4.4,4.4,4.4,11.5,0,15.8C495,1287.5,494.7,1287.6,494.5,1287.6z"/>
	</g>
	<g>
		<path class="st6" d="M487.3,1290.6c-2.9,0-5.7-1.1-7.9-3.3c-4.4-4.4-4.4-11.5,0-15.8c0.4-0.4,1-0.4,1.4,0s0.4,1,0,1.4
			c-3.6,3.6-3.6,9.4,0,13c3.6,3.6,9.4,3.6,13,0c0.4-0.4,1-0.4,1.4,0s0.4,1,0,1.4C493.1,1289.5,490.2,1290.6,487.3,1290.6z"/>
	</g>
	<g>
		<path class="st6" d="M466.6,1254c-0.4,0-0.8-0.2-0.9-0.7c-1-2.7-2.5-4.5-4.5-5.2c-3.2-1.2-6.6,0.5-6.6,0.6
			c-0.5,0.3-1.1,0.1-1.3-0.4c-0.3-0.5-0.1-1.1,0.4-1.3c0.2-0.1,4.2-2.2,8.3-0.7c2.5,1,4.4,3.1,5.6,6.4c0.2,0.5-0.1,1.1-0.6,1.3
			C466.8,1254,466.7,1254,466.6,1254z"/>
	</g>
	<g>
		<path class="st6" d="M472.8,1254c-0.1,0-0.2,0-0.3-0.1c-0.5-0.2-0.8-0.8-0.6-1.3c1.2-3.3,3.1-5.4,5.6-6.4c4-1.5,8.1,0.6,8.3,0.7
			c0.5,0.3,0.7,0.9,0.4,1.4c-0.3,0.5-0.9,0.7-1.3,0.4c-0.1,0-3.5-1.8-6.6-0.6c-2,0.8-3.5,2.5-4.5,5.2
			C473.6,1253.8,473.2,1254,472.8,1254z"/>
	</g>
	<g>
		<path class="st6" d="M472.8,1260.3h-6.2c-0.6,0-1-0.4-1-1s0.4-1,1-1h6.2c0.6,0,1,0.4,1,1S473.4,1260.3,472.8,1260.3z"/>
	</g>
	<g>
		<path class="st6" d="M475.4,1267.8H465c-0.6,0-1-0.4-1-1s0.4-1,1-1h10.4c0.6,0,1,0.4,1,1S476,1267.8,475.4,1267.8z"/>
	</g>
</g>
<g class="st11">
	<path class="st6" d="M72.5,1325.8h-1.4v-0.8H60.7v0.8h-1.4v-12.3h5.4c0.2-0.6,0.3-1.3,0.4-2h-8v-1.4h5.1c-0.3-0.8-0.6-1.5-1-2.2
		l1.4-0.5c0.4,0.8,0.8,1.7,1.1,2.7h4.4c0.5-0.9,0.9-1.8,1.2-2.8l1.4,0.5c-0.3,0.9-0.7,1.6-1,2.3h5.1v1.4h-8.2
		c-0.1,0.7-0.2,1.4-0.4,2h6.4V1325.8z M71.1,1316.9v-2.1H60.7v2.1H71.1z M71.1,1320.2v-2.1H60.7v2.1H71.1z M71.1,1323.7v-2.1H60.7
		v2.1H71.1z"/>
	<path class="st6" d="M93.6,1321.3h-1.4v-8.1h-9.6v8.1h-1.4v-9.5h5.1c0.2-0.7,0.3-1.4,0.4-2.2h-8v-1.4h17.6v1.4h-8
		c-0.1,0.8-0.3,1.5-0.5,2.2h5.9V1321.3z M88.2,1314.4v3.2c-0.1,2.2-0.8,3.9-2.1,5.3c-1.3,1.2-3.4,2.2-6.3,2.8l-0.8-1.3
		c2.9-0.6,4.9-1.5,6.1-2.5c1.1-1.1,1.6-2.5,1.7-4.3v-3.2H88.2z M95.8,1324.5l-0.9,1.4c-2.3-1.4-4.6-2.5-7-3.3l0.8-1.2
		C91.3,1322.2,93.7,1323.2,95.8,1324.5z"/>
</g>
<g class="st11">
	<path class="st6" d="M260.1,1309.2c0.1-0.6,0.2-1.3,0.2-1.9l1.5,0.2c-0.1,0.6-0.1,1.1-0.2,1.7h7.8v1.4h-8c-0.1,0.6-0.2,1.1-0.3,1.7
		h5.8v11.7h3v1.3H252v-1.3h2.9v-11.7h4.7c0.1-0.6,0.2-1.1,0.3-1.7h-7.5v-1.4H260.1z M265.4,1315.3v-1.7h-9.1v1.7H265.4z
		 M265.4,1318.2v-1.7h-9.1v1.7H265.4z M265.4,1321v-1.7h-9.1v1.7H265.4z M265.4,1324v-1.8h-9.1v1.8H265.4z"/>
	<path class="st6" d="M281.7,1324.8v1h-1.3v-8.2c-0.3,0.1-0.5,0.3-0.8,0.4l-0.7-1.1v0.3c-0.5,0.3-1.1,0.6-1.6,0.9v5.9
		c0,1.1-0.6,1.7-1.7,1.7h-1.7l-0.3-1.4c0.5,0.1,1,0.1,1.5,0.1c0.5,0,0.8-0.3,0.8-0.8v-4.9c-0.8,0.3-1.5,0.6-2.3,0.9l-0.4-1.4
		c0.9-0.2,1.8-0.5,2.7-0.9v-4.6h-2.3v-1.4h2.3v-3.8h1.4v3.8h1.7v1.4h-1.7v4c0.6-0.3,1.1-0.6,1.6-0.9v1.1c2-0.8,3.5-1.8,4.4-2.9h-3.8
		v-1.3h2.3c-0.3-0.6-0.6-1.2-0.9-1.7l1.2-0.5c0.3,0.6,0.7,1.3,0.9,2.2h1.6v-2.9c-1.4,0.1-3,0.1-4.6,0.1l-0.4-1.2
		c4.3,0,7.8-0.4,10.7-1.1l0.7,1.2c-1.4,0.4-3.1,0.7-5,0.8v3h1.5c0.4-0.8,0.8-1.7,1.2-2.6l1.2,0.4c-0.3,0.8-0.7,1.5-1.1,2.2h2.5v1.3
		h-3.9c1.1,1.1,2.6,2,4.6,2.8l-0.6,1.2c-2.1-1-3.7-2.3-5-4h-0.2v2.9h-1.3v-2.9h-0.2c-0.8,1.4-2.1,2.5-3.7,3.5h9.5v8.4h-1.3v-1H281.7
		z M281.7,1318.5v2h3v-2H281.7z M281.7,1321.7v1.9h3v-1.9H281.7z M288.9,1320.5v-2h-3v2H288.9z M288.9,1323.6v-1.9h-3v1.9H288.9z"/>
</g>
<g class="st11">
	<path class="st6" d="M463,1307.7c-0.5,1.4-1.1,2.7-1.8,3.9h4.1v1.4h-6.7v0.9c0,1-0.1,1.9-0.3,2.8h8.1v1.4h-7.3
		c1,2.7,3.6,4.8,7.8,6.3l-0.8,1.3c-4.4-1.8-7.1-4.2-8.2-7.2c-0.4,1.1-0.9,2.1-1.5,3c-1.4,1.8-3.6,3.1-6.7,4.1l-0.8-1.3
		c3.1-1,5.2-2.3,6.4-3.9c0.5-0.7,0.9-1.5,1.1-2.4h-7.2v-1.4h7.5c0.2-0.9,0.3-1.8,0.3-2.8v-0.9h-6.7v-1.4h9.1c0.8-1.2,1.4-2.6,2-4.3
		L463,1307.7z M456.4,1310.9l-1.3,0.7c-0.7-1.3-1.5-2.4-2.3-3.4l1.3-0.6C454.9,1308.5,455.7,1309.7,456.4,1310.9z"/>
	<path class="st6" d="M474.8,1315.4l-1,1c-0.8-0.9-1.9-1.9-3.3-3l1-1C472.9,1313.4,474,1314.4,474.8,1315.4z M475.3,1318.5
		c-0.9,2.5-1.9,4.9-3,7.1l-1.4-0.6c1.2-2.3,2.3-4.6,3.2-7L475.3,1318.5z M475.5,1310.7l-1,1c-0.8-0.9-2-1.9-3.5-3l1-1
		C473.4,1308.7,474.6,1309.7,475.5,1310.7z M481.7,1310.8c-0.4-1.1-0.8-2.1-1.4-3.1l1.4-0.4c0.6,1.2,1,2.2,1.3,3.2l-0.8,0.3h6v1.4
		H483v4.8h4.6v1.4H483v5.3h5.5v1.4h-12.7v-1.4h5.7v-5.3h-4.6v-1.4h4.6v-4.8h-5.2v-1.4H481.7z"/>
</g>
<g>
	<g>
		<path class="st29" d="M655.5,1307.4c1.7,2.8,4.6,5.2,8.6,7.3l-0.9,1.3c-3.8-2-6.6-4.4-8.4-7.2c-2.2,3.2-5,5.6-8.4,7.3l-0.9-1.3
			c3.7-1.9,6.6-4.4,8.6-7.4H655.5z M655.6,1313.3v12.4h-1.5v-12.4H655.6z"/>
		<path class="st29" d="M677,1311.9c1.1,5.4,4,9.6,8.7,12.5l-0.9,1.3c-4.1-2.7-6.8-6.3-8.3-10.8c-1.2,4.4-4,8-8.5,10.8l-0.9-1.3
			c5.5-3.4,8.3-8,8.5-13.7c0-1.4,0-2.4,0-3.2h1.5C677.1,1309.2,677.1,1310.7,677,1311.9z"/>
	</g>
</g>
<g class="st11">
	<g>
		<path class="st6" d="M53.5,1265.2c-0.3,0-0.6-0.1-0.8-0.4c-0.3-0.4-0.2-1.1,0.2-1.4l23.5-17.1c0.4-0.3,1.1-0.2,1.4,0.2
			c0.3,0.4,0.2,1.1-0.2,1.4L54.1,1265C53.9,1265.2,53.7,1265.2,53.5,1265.2z"/>
	</g>
	<g>
		<path class="st6" d="M100.5,1265.2c-0.2,0-0.4-0.1-0.6-0.2l-23.5-17.2c-0.4-0.3-0.5-1-0.2-1.4c0.3-0.4,1-0.5,1.4-0.2l23.5,17.2
			c0.4,0.3,0.5,1,0.2,1.4C101.1,1265.1,100.8,1265.2,100.5,1265.2z"/>
	</g>
	<g>
		<path class="st6" d="M66.2,1288.7h-9.8c-2.2,0-3.9-1.8-3.9-3.9v-20.6c0-0.6,0.4-1,1-1s1,0.4,1,1v20.6c0,1.1,0.9,1.9,1.9,1.9h9.8
			c1.1,0,1.9-0.9,1.9-1.9v-6c0-1,0.4-2,1.1-2.7c0.7-0.7,1.7-1.1,2.7-1.1c0,0,0,0,0,0l12.5,0c0.6,0,1,0.4,1,1s-0.4,1-1,1h0l-12.5,0
			c0,0,0,0,0,0c-0.5,0-0.9,0.2-1.3,0.5c-0.3,0.3-0.5,0.8-0.5,1.3v6C70.1,1287,68.4,1288.7,66.2,1288.7z"/>
	</g>
	<g>
		<path class="st6" d="M97.5,1288.7h-9.8c-2.2,0-3.9-1.8-3.9-3.9v-8.8c0-0.6,0.4-1,1-1s1,0.4,1,1v8.8c0,1.1,0.9,1.9,1.9,1.9h9.8
			c1.1,0,1.9-0.9,1.9-1.9v-20.6c0-0.6,0.4-1,1-1s1,0.4,1,1v20.6C101.5,1287,99.7,1288.7,97.5,1288.7z"/>
	</g>
	<g>
		<path class="st30" d="M84.8,1275.2"/>
	</g>
</g>
<path class="st6" d="M62.3,78.6H48.8v-3.9c0-1.4-1-2-2.2-1.2l-7.3,4.7c-1.2,0.8-1.2,2,0,2.8l7.3,4.7c1.2,0.8,2.2,0.2,2.2-1.2v-3.3
	h12.9c7.1,0,11,3.2,11,10.3c0,5.4-2.1,10.3-11,10.3H43.6c0,0,0,0,0,0c0,0,0,0-0.1,0c-0.9,0-1.6,0.7-1.6,1.6c0,0.9,0.7,1.6,1.6,1.6
	c0,0,0,0,0.1,0c0,0,0,0,0,0h18.7c7.1,0,12.9-4.5,12.9-11.6v-3.9C75.2,82.4,69.5,78.6,62.3,78.6L62.3,78.6L62.3,78.6z"/>
</svg>
