<!-- Generator: Adobe Illustrator 21.0.0, SVG Export Plug-In  -->
<svg version="1.1"
	 xmlns="http://www.w3.org/2000/svg" xmlns:xlink="http://www.w3.org/1999/xlink" xmlns:a="http://ns.adobe.com/AdobeSVGViewerExtensions/3.0/"
	 x="0px" y="0px" width="18.4px" height="16px" viewBox="0 0 18.4 16" style="enable-background:new 0 0 18.4 16;"
	 xml:space="preserve">
<style type="text/css">
	.st0{fill:#FFFFFF;}
</style>
<defs>
</defs>
<path class="st0" d="M12,2.7H5.2v-2c0-0.7-0.5-1-1.1-0.6L0.4,2.5c-0.6,0.4-0.6,1,0,1.4l3.6,2.3c0.6,0.4,1.1,0.1,1.1-0.6V4h6.5
	c3.6,0,5.5,1.6,5.5,5.2c0,2.7-1.1,5.2-5.5,5.2h-9c0,0,0,0,0,0c0,0,0,0,0,0c-0.4,0-0.8,0.4-0.8,0.8c0,0.4,0.4,0.8,0.8,0.8
	c0,0,0,0,0,0c0,0,0,0,0,0H12c3.6,0,6.5-2.2,6.5-5.8V8.2C18.4,4.6,15.5,2.7,12,2.7L12,2.7L12,2.7z"/>
</svg>
