<!-- Generator: Adobe Illustrator 21.0.0, SVG Export Plug-In  -->
<svg version="1.1"
	 xmlns="http://www.w3.org/2000/svg" xmlns:xlink="http://www.w3.org/1999/xlink" xmlns:a="http://ns.adobe.com/AdobeSVGViewerExtensions/3.0/"
	 x="0px" y="0px" width="116px" height="16.8px" viewBox="0 0 116 16.8" style="enable-background:new 0 0 116 16.8;"
	 xml:space="preserve">
<style type="text/css">
	.st0{fill:#4D4D4D;}
	.st1{opacity:0.88;fill:#00FFE0;}
	.st2{fill:#2C2C2C;}
</style>
<defs>
</defs>
<g>
	<path class="st0" d="M21.1,2.3V1.1h14.2v1.3h-6.1v5.2h5.2v1.2h-5.2v5.8H36v1.3H20v-1.3h2.8V5.9h1.3v8.6h3.8V2.3H21.1z"/>
	<path class="st0" d="M38.4,11.3l-0.8-1.1c2.2-1.9,4-4,5.2-6.4h-4.6V2.6h5.2c0.4-0.8,0.7-1.7,0.9-2.6l1.3,0.2
		c-0.3,0.8-0.5,1.6-0.8,2.4h9v1.3h-9.6c-0.7,1.4-1.5,2.8-2.5,4v8.8h-1.3V9.3C39.9,10,39.2,10.6,38.4,11.3z M47.6,8.5V5.2h1.3v3.3
		h4.3v1.3h-4.3v5H54V16H42.7v-1.3h4.9v-5h-4.1V8.5H47.6z"/>
	<path class="st0" d="M63.3,1.8c0.1-0.6,0.1-1.1,0.2-1.7l1.3,0.2c-0.1,0.5-0.1,1-0.2,1.5h7V3h-7.2c-0.1,0.5-0.2,1-0.3,1.5h5.2V15H72
		v1.2H56V15h2.6V4.5h4.2C62.9,4,63,3.5,63.1,3h-6.7V1.8H63.3z M68,7.2V5.6h-8.2v1.6H68z M68,9.8V8.3h-8.2v1.5H68z M68,12.3v-1.5
		h-8.2v1.5H68z M68,15v-1.6h-8.2V15H68z"/>
	<path class="st0" d="M81.3,15.7v0.9h-1.2V9.2c-0.2,0.1-0.5,0.3-0.7,0.4l-0.6-1v0.2c-0.5,0.3-1,0.5-1.5,0.8V15c0,1-0.5,1.5-1.5,1.5
		h-1.5L74,15.2c0.5,0.1,0.9,0.1,1.3,0.1c0.4,0,0.7-0.2,0.7-0.7v-4.4c-0.7,0.3-1.4,0.5-2.1,0.8l-0.3-1.3c0.8-0.2,1.6-0.5,2.4-0.8V4.8
		h-2.1V3.6H76V0.2h1.3v3.4h1.6v1.2h-1.6v3.6c0.5-0.3,1-0.5,1.5-0.8v1c1.8-0.7,3.1-1.6,4-2.6h-3.4V4.7h2c-0.3-0.6-0.5-1.1-0.8-1.5
		l1.1-0.4c0.3,0.5,0.6,1.2,0.8,2h1.4V2.1c-1.3,0.1-2.7,0.1-4.2,0.1l-0.4-1.1c3.8,0,7-0.3,9.6-1l0.6,1c-1.3,0.3-2.8,0.6-4.5,0.8v2.7
		h1.4c0.4-0.7,0.8-1.5,1.1-2.4l1.1,0.4c-0.3,0.7-0.6,1.4-1,2h2.2v1.2h-3.5c1,1,2.3,1.8,4.1,2.5l-0.6,1.1c-1.9-0.9-3.4-2.1-4.5-3.6
		h-0.2v2.6h-1.2V5.9h-0.2C83,7.1,81.9,8.2,80.4,9h8.5v7.6h-1.2v-0.9H81.3z M81.3,10.1v1.8H84v-1.8H81.3z M81.3,12.9v1.7H84v-1.7
		H81.3z M87.7,11.9v-1.8h-2.7v1.8H87.7z M87.7,14.6v-1.7h-2.7v1.7H87.7z"/>
</g>
<rect y="0.9" class="st1" width="4" height="16"/>
<path class="st2" d="M114.9,8.3l-6.2-6.2c-0.2-0.2-0.2-0.5,0-0.6c0.2-0.2,0.5-0.2,0.6,0l6.5,6.5c0.1,0.1,0.1,0.2,0.1,0.3
	c0,0.1,0,0.2-0.1,0.3l-6.5,6.5c-0.2,0.2-0.5,0.2-0.6,0c-0.2-0.2-0.2-0.5,0-0.6L114.9,8.3z"/>
</svg>
