<!-- Generator: Adobe Illustrator 21.0.0, SVG Export Plug-In  -->
<svg version="1.1"
	 xmlns="http://www.w3.org/2000/svg" xmlns:xlink="http://www.w3.org/1999/xlink" xmlns:a="http://ns.adobe.com/AdobeSVGViewerExtensions/3.0/"
	 x="0px" y="0px" width="30.9px" height="15px" viewBox="0 0 30.9 15" style="enable-background:new 0 0 30.9 15;"
	 xml:space="preserve">
<style type="text/css">
	.st0{fill:#FFFFFF;}
</style>
<defs>
</defs>
<g>
	<path class="st0" d="M12.4,11.1H9.9l1.6,0.3c-0.3,0.5-0.5,1.1-0.8,1.5h4.1v1.6H0.7V13h3.9c-0.1-0.4-0.4-1-0.7-1.4l1.3-0.4H2.8V7
		c-0.5,0.4-1.1,0.7-1.7,1C0.9,7.5,0.4,6.9,0,6.5c0.9-0.4,1.9-1,2.7-1.7C2.3,4.4,1.6,3.8,1,3.5l1-1.1c0.6,0.4,1.3,0.8,1.8,1.3
		c0.5-0.5,0.9-1.1,1.2-1.6H1.2V0.5H6l0.3-0.1l1.3,0.6c-0.4,1.2-1,2.2-1.7,3.1h3.8C8.8,3.1,8.1,1.9,7.6,0.5L9.2,0
		c0.2,0.6,0.5,1.1,0.8,1.6c0.6-0.5,1.2-1.1,1.6-1.5l1.4,1c-0.7,0.6-1.5,1.2-2.2,1.7c0.2,0.3,0.5,0.5,0.7,0.8C12.3,3.1,13,2.5,13.5,2
		l1.4,1c-0.7,0.6-1.5,1.2-2.2,1.7c0.8,0.7,1.7,1.2,2.7,1.6c-0.4,0.4-1,1.1-1.3,1.6c-0.6-0.3-1.2-0.6-1.7-1V11.1z M5,5.2
		C4.4,5.8,3.8,6.3,3.2,6.7h9c-0.6-0.4-1.2-0.9-1.7-1.5v0.6H5V5.2z M10.4,8.2H4.8v1.4h5.6V8.2z M8.8,13c0.3-0.6,0.6-1.3,0.8-1.8H5.7
		c0.3,0.5,0.6,1.1,0.8,1.6L5.7,13H8.8z"/>
	<path class="st0" d="M30,8.7c-0.9,0.8-2,1.5-2.9,2.1c1.1,0.8,2.4,1.5,3.9,1.9c-0.4,0.4-1,1.2-1.3,1.7c-2.1-0.7-3.8-1.9-5.1-3.5v2.3
		c0,0.9-0.2,1.3-0.9,1.6C23.1,14.9,22.2,15,21,15c-0.1-0.5-0.4-1.2-0.6-1.6c0.8,0,1.7,0,1.9,0c0.3,0,0.4-0.1,0.4-0.3v-1.2
		c-1.8,0.8-3.6,1.6-5.1,2.2l-1-1.7c1.5-0.5,3.9-1.4,6.1-2.3V7.5h-6V5.9h10.1l0-0.9h-8.6V3.3h8.7l0-0.9h-9.3V0.7h9.5l0.4-0.1l1.5,0.1
		c0,1.7-0.1,3.5-0.3,5.2h2v1.6h-2.3L30,8.7z M20.4,10.8c-0.6-0.6-1.9-1.5-2.9-2.1l1.3-1.2c1,0.5,2.3,1.3,3,1.9L20.4,10.8z M24.6,7.9
		c0.3,0.6,0.7,1.2,1.2,1.8c0.8-0.6,1.8-1.4,2.5-2.1h-3.7V7.9z"/>
</g>
</svg>
