<!-- Generator: Adobe Illustrator 21.0.0, SVG Export Plug-In  -->
<svg version="1.1"
	 xmlns="http://www.w3.org/2000/svg" xmlns:xlink="http://www.w3.org/1999/xlink" xmlns:a="http://ns.adobe.com/AdobeSVGViewerExtensions/3.0/"
	 x="0px" y="0px" width="24.5px" height="39.9px" viewBox="0 0 24.5 39.9" style="enable-background:new 0 0 24.5 39.9;"
	 xml:space="preserve">
<style type="text/css">
	.st0{opacity:0.5;}
	.st1{fill:#FFFFFF;}
	.st2{fill:none;stroke:#FFFFFF;stroke-width:2;stroke-linecap:round;stroke-linejoin:round;stroke-miterlimit:10;}
</style>
<defs>
</defs>
<g class="st0">
	<path class="st1" d="M10,39.9H9.3v-0.4H4.1v0.4H3.4v-6.2h2.7c0.1-0.3,0.1-0.7,0.2-1h-4V32h2.6c-0.2-0.4-0.3-0.8-0.5-1.1L5,30.7
		C5.2,31,5.4,31.5,5.6,32h2.2c0.2-0.4,0.4-0.9,0.6-1.4l0.7,0.2c-0.2,0.4-0.3,0.8-0.5,1.1h2.6v0.7H7.1c-0.1,0.4-0.1,0.7-0.2,1H10
		V39.9z M9.3,35.4v-1H4.1v1H9.3z M9.3,37.1v-1H4.1v1H9.3z M9.3,38.8v-1.1H4.1v1.1H9.3z"/>
	<path class="st1" d="M20.6,37.6h-0.7v-4h-4.8v4.1h-0.7v-4.8h2.5c0.1-0.4,0.2-0.7,0.2-1.1h-4v-0.7h8.8v0.7h-4
		c-0.1,0.4-0.1,0.8-0.2,1.1h2.9V37.6z M17.8,34.2v1.6c0,1.1-0.4,2-1.1,2.6c-0.6,0.6-1.7,1.1-3.2,1.4l-0.4-0.6c1.5-0.3,2.5-0.7,3-1.3
		c0.5-0.6,0.8-1.3,0.9-2.1v-1.6H17.8z M21.7,39.2l-0.4,0.7c-1.1-0.7-2.3-1.3-3.5-1.7l0.4-0.6C19.4,38.1,20.6,38.6,21.7,39.2z"/>
</g>
<g class="st0">
	<g>
		<g>
			<path class="st1" d="M0.5,9.6c-0.2,0-0.3-0.1-0.4-0.2C-0.1,9.2,0,8.9,0.2,8.7L12,0.1C12.2,0,12.5,0,12.7,0.3
				c0.2,0.2,0.1,0.5-0.1,0.7L0.8,9.5C0.7,9.6,0.6,9.6,0.5,9.6z"/>
		</g>
	</g>
	<g>
		<g>
			<path class="st1" d="M24,9.6c-0.1,0-0.2,0-0.3-0.1L12,0.9c-0.2-0.2-0.3-0.5-0.1-0.7C12,0,12.3-0.1,12.5,0.1l11.8,8.6
				c0.2,0.2,0.3,0.5,0.1,0.7C24.3,9.5,24.2,9.6,24,9.6z"/>
		</g>
	</g>
	<g>
		<g>
			<path class="st1" d="M6.9,21.4H2c-1.1,0-2-0.9-2-2V9.1c0-0.3,0.2-0.5,0.5-0.5S1,8.8,1,9.1v10.3c0,0.5,0.4,1,1,1h4.9
				c0.5,0,1-0.4,1-1v-3c0-0.5,0.2-1,0.6-1.4c0.4-0.4,0.8-0.6,1.4-0.6c0,0,0,0,0,0l6.2,0c0.3,0,0.5,0.2,0.5,0.5s-0.2,0.5-0.5,0.5h0
				l-6.2,0c0,0,0,0,0,0c-0.2,0-0.5,0.1-0.6,0.3c-0.2,0.2-0.3,0.4-0.3,0.6v3C8.8,20.5,8,21.4,6.9,21.4z"/>
		</g>
	</g>
	<g>
		<g>
			<path class="st1" d="M22.5,21.4h-4.9c-1.1,0-2-0.9-2-2V15c0-0.3,0.2-0.5,0.5-0.5s0.5,0.2,0.5,0.5v4.4c0,0.5,0.4,1,1,1h4.9
				c0.5,0,1-0.4,1-1V9.1c0-0.3,0.2-0.5,0.5-0.5s0.5,0.2,0.5,0.5v10.3C24.5,20.5,23.6,21.4,22.5,21.4z"/>
		</g>
	</g>
	<g>
		<g>
			<path class="st2" d="M16.2,14.6"/>
		</g>
	</g>
</g>
</svg>
