<!-- Generator: Adobe Illustrator 21.0.0, SVG Export Plug-In  -->
<svg version="1.1"
	 xmlns="http://www.w3.org/2000/svg" xmlns:xlink="http://www.w3.org/1999/xlink" xmlns:a="http://ns.adobe.com/AdobeSVGViewerExtensions/3.0/"
	 x="0px" y="0px" width="26.8px" height="39.7px" viewBox="0 0 26.8 39.7" style="enable-background:new 0 0 26.8 39.7;"
	 xml:space="preserve">
<style type="text/css">
	.st0{opacity:0.5;}
	.st1{fill:#FFFFFF;}
</style>
<defs>
</defs>
<g class="st0">
	<g>
		<path class="st1" d="M17.8,11.1c-0.1,0-0.2,0-0.3-0.1l-7.4-4.9C9.9,6,9.8,5.7,10,5.5c0.2-0.2,0.5-0.3,0.7-0.1l7.4,4.9
			c0.2,0.2,0.3,0.5,0.1,0.7C18.2,11,18,11.1,17.8,11.1z"/>
	</g>
	<g>
		<path class="st1" d="M22.8,21.5H4c-0.3,0-0.5-0.2-0.5-0.5c0-0.3,0.2-0.5,0.5-0.5h18.7c1.7,0,3-1.5,3-3.5V4.5c0-1.9-1.4-3.5-3-3.5
			c-0.3,0-0.5-0.2-0.5-0.5S22.5,0,22.8,0c2.2,0,4,2,4,4.5v12.6C26.8,19.5,25,21.5,22.8,21.5z"/>
	</g>
	<g>
		<path class="st1" d="M4,21.5c-2.2,0-4-2-4-4.5V4.5C0,2,1.8,0,4,0h18.7c0.3,0,0.5,0.2,0.5,0.5S23,1,22.8,1H4C2.4,1,1,2.6,1,4.5
			v12.6c0,1.9,1.4,3.5,3,3.5c0.3,0,0.5,0.2,0.5,0.5C4.5,21.3,4.3,21.5,4,21.5z"/>
	</g>
	<g>
		<path class="st1" d="M10.4,15.3c-0.3,0-0.5-0.2-0.5-0.5v-9c0-0.3,0.2-0.5,0.5-0.5s0.5,0.2,0.5,0.5v9
			C10.9,15.1,10.7,15.3,10.4,15.3z"/>
	</g>
	<g>
		<path class="st1" d="M10.5,15.2c-0.2,0-0.3-0.1-0.4-0.3c-0.1-0.2,0-0.5,0.2-0.7l7.3-4.1c0.2-0.1,0.5,0,0.7,0.2
			c0.1,0.2,0,0.5-0.2,0.7l-7.3,4.1C10.7,15.2,10.6,15.2,10.5,15.2z"/>
	</g>
</g>
<g class="st0">
	<path class="st1" d="M7.1,31.4c0-0.3,0.1-0.6,0.1-0.9L8,30.5c0,0.3-0.1,0.6-0.1,0.8h3.9v0.7h-4c-0.1,0.3-0.1,0.6-0.2,0.8h2.9v5.9
		H12v0.7H3v-0.7h1.4v-5.9h2.4C6.9,32.6,7,32.3,7,32.1H3.2v-0.7H7.1z M9.8,34.4v-0.9H5.2v0.9H9.8z M9.8,35.8V35H5.2v0.8H9.8z
		 M9.8,37.3v-0.9H5.2v0.9H9.8z M9.8,38.8v-0.9H5.2v0.9H9.8z"/>
	<path class="st1" d="M17.9,39.2v0.5h-0.7v-4.1c-0.1,0.1-0.3,0.1-0.4,0.2l-0.3-0.6v0.1c-0.3,0.2-0.5,0.3-0.8,0.4v3
		c0,0.6-0.3,0.8-0.9,0.8H14l-0.2-0.7c0.3,0,0.5,0.1,0.8,0.1c0.3,0,0.4-0.1,0.4-0.4v-2.5c-0.4,0.2-0.8,0.3-1.2,0.4l-0.2-0.7
		c0.5-0.1,0.9-0.3,1.3-0.4v-2.3h-1.2v-0.7H15v-1.9h0.7v1.9h0.9v0.7h-0.9v2c0.3-0.1,0.6-0.3,0.8-0.4v0.5c1-0.4,1.7-0.9,2.2-1.5h-1.9
		V33H18c-0.1-0.3-0.3-0.6-0.5-0.9l0.6-0.2c0.2,0.3,0.3,0.7,0.5,1.1h0.8v-1.5c-0.7,0-1.5,0.1-2.3,0.1L16.9,31c2.2,0,3.9-0.2,5.4-0.5
		l0.3,0.6c-0.7,0.2-1.6,0.3-2.5,0.4V33h0.8c0.2-0.4,0.4-0.9,0.6-1.3l0.6,0.2c-0.2,0.4-0.4,0.8-0.6,1.1h1.2v0.6h-2
		c0.5,0.5,1.3,1,2.3,1.4l-0.3,0.6c-1-0.5-1.9-1.2-2.5-2h-0.1v1.4h-0.7v-1.4h-0.1c-0.4,0.7-1,1.3-1.8,1.8h4.8v4.2h-0.7v-0.5H17.9z
		 M17.9,36v1h1.5v-1H17.9z M17.9,37.6v1h1.5v-1H17.9z M21.5,37v-1h-1.5v1H21.5z M21.5,38.6v-1h-1.5v1H21.5z"/>
</g>
</svg>
