<!-- Generator: Adobe Illustrator 21.0.0, SVG Export Plug-In  -->
<svg version="1.1"
	 xmlns="http://www.w3.org/2000/svg" xmlns:xlink="http://www.w3.org/1999/xlink" xmlns:a="http://ns.adobe.com/AdobeSVGViewerExtensions/3.0/"
	 x="0px" y="0px" width="267px" height="189px" viewBox="0 0 267 189" style="enable-background:new 0 0 267 189;"
	 xml:space="preserve">
<style type="text/css">
	.st0{opacity:0.7;}
	.st1{fill:#FFFFFF;}
	.st2{opacity:0.6;fill:#FFFFFF;}
	.st3{opacity:0.57;fill:none;stroke:#FFFFFF;stroke-miterlimit:10;}
	.st4{opacity:0.6;}
	.st5{clip-path:url(#SVGID_2_);fill:#FFFFFF;}
	.st6{clip-path:url(#SVGID_4_);fill:#FFFFFF;}
</style>
<defs>
</defs>
<g>
	<g class="st0">
		<path class="st1" d="M52.9,165c-1.2,1.5-2.8,2.8-4.8,3.8c0.1,0.1,0.3,0.2,0.5,0.2h2.6c0.3,0,0.6-0.1,0.7-0.2
			c0.2-0.2,0.3-0.7,0.4-1.5l0.7,0.2c-0.1,1-0.3,1.6-0.5,1.9c-0.2,0.2-0.6,0.3-1.1,0.3h-3c-0.5,0-0.9-0.2-1-0.5
			c-1.1,0.5-2.2,0.9-3.4,1.2l-0.3-0.6c1.3-0.4,2.5-0.8,3.6-1.3v-2.7H48v2.4c1.8-0.9,3.3-2.1,4.4-3.5L52.9,165z M54.9,165.7h-0.7
			v-1.9h-9.4v1.9h-0.7v-2.5h5.1c-0.2-0.4-0.3-0.7-0.5-1l0.7-0.1c0.2,0.4,0.3,0.7,0.5,1.2h4.9V165.7z M46.6,165.3
			c-0.4,1.2-0.9,2.2-1.6,3.1l-0.6-0.4c0.7-0.8,1.2-1.8,1.6-2.8L46.6,165.3z M50,170v2.7h3.5v-2.3h0.7v3.6h-0.7v-0.6h-7.6v0.6h-0.7
			v-3.5h0.7v2.2h3.4V170H50z M50.3,165.8l-0.5,0.4c-0.4-0.5-0.8-1-1.5-1.6l0.5-0.3C49.4,164.8,49.9,165.4,50.3,165.8z M55.4,168.6
			l-0.6,0.4c-0.5-0.9-1.2-1.8-2-2.7l0.5-0.4C54.2,166.9,54.9,167.8,55.4,168.6z"/>
		<path class="st1" d="M60.9,173.3h-0.7v-0.8h-1.6v1h-0.7v-5.6c-0.3,0.6-0.6,1.2-1,1.7l-0.4-0.6c1.1-1.6,1.8-3.4,2.1-5.4h-1.7v-0.7
			h4.4v0.7h-2c-0.2,1.1-0.5,2.2-0.8,3.1h2.4V173.3z M60.2,171.8v-4.4h-1.6v4.4H60.2z M66.4,170.4v0.7h-4.7v-0.7H66.4z M63.6,164.5
			l-0.6,3.4h3l0.7-4.5h-4.7v-0.7h5.4l-0.8,5.1h1.4c0,3.1-0.2,4.8-0.5,5.3c-0.3,0.5-1,0.7-2.1,0.7c-0.4,0-0.8,0-1.2,0l-0.2-0.7
			c0.6,0,1,0.1,1.2,0.1c1,0,1.6-0.2,1.8-0.7c0.2-0.5,0.3-1.8,0.3-4h-5.2l0.7-4.1L63.6,164.5z"/>
	</g>
	<path class="st2" d="M11.3,20.2H7.3c-3.7,0-6.7,0-6.7-1.9v-0.4c0-3.6,3-6.6,6.7-6.6h4c3.7,0,6.7,3,6.7,6.6v0.4
		C18,20.2,14.9,20.2,11.3,20.2 M7.3,12.4c-3.1,0-5.6,2.5-5.6,5.5v0.4c0,0.8,3.3,0.8,5.6,0.8h4c2,0,5.6,0,5.6-0.8v-0.4
		c0-3.1-2.5-5.5-5.6-5.5H7.3 M9.1,10.5c-2.9,0-5.3-2.4-5.3-5.2S6.2,0,9.1,0s5.3,2.4,5.3,5.2S12.1,10.5,9.1,10.5 M4.9,5.2
		c0,2.3,1.9,4.1,4.2,4.1s4.2-1.9,4.2-4.1s-1.9-4.1-4.2-4.1C6.8,1.1,4.9,2.9,4.9,5.2z"/>
	<line class="st3" x1="36" y1="108.5" x2="267" y2="108.5"/>
	<line class="st3" x1="34.5" y1="36" x2="265.5" y2="36"/>
	<line class="st3" x1="36" y1="188.5" x2="267" y2="188.5"/>
	<path class="st2" d="M18.5,86.6v10.3c0,0.1,0,0.2,0,0.3l0,0c0,0,0,0,0,0c-0.1,0.7-0.8,1.2-1.5,1.2H2c-0.5,0-1-0.2-1.4-0.6
		c0,0,0,0,0,0c0,0,0-0.1-0.1-0.1c-0.2-0.3-0.3-0.7-0.3-1v-9.7c0-0.6,0.4-1.1,0.9-1.3l0,0l0,0c0.2-0.1,0.4-0.1,0.7-0.1h15.8
		c0,0,0,0,0.1,0c0.5,0.1,0.7,0.3,0.8,0.8l0,0C18.5,86.4,18.5,86.5,18.5,86.6L18.5,86.6z M9.4,93.2l8.1-6.8c-1.2-0.1-15.9,0-16,0
		L9.4,93.2z M11.7,92.4c-0.7,0.6-1.4,1.1-2,1.7c-0.2,0.2-0.5,0.2-0.7,0c-0.3-0.2-0.6-0.5-0.9-0.7c-0.4-0.3-0.8-0.6-1.1-1
		c-1.8,1.7-3.6,3.3-5.3,5l0,0h15.6C15.4,95.7,13.6,94.1,11.7,92.4L11.7,92.4z M6.3,91.8c-1.7-1.5-3.4-2.9-5.2-4.4v9.1L6.3,91.8z
		 M12.5,91.8l5.1,4.7v-9L12.5,91.8L12.5,91.8z"/>
	<g class="st4">
		<g>
			<defs>
				<rect id="SVGID_1_" y="156" width="18.6" height="22.5"/>
			</defs>
			<clipPath id="SVGID_2_">
				<use xlink:href="#SVGID_1_"  style="overflow:visible;"/>
			</clipPath>
			<path class="st5" d="M13.8,164.8c-0.5,0-0.9-0.4-0.9-0.9v-2.5c0-2-1.6-3.6-3.6-3.6c-2,0-3.6,1.6-3.6,3.6v2.5
				c0,0.5-0.4,0.9-0.9,0.9c-0.5,0-0.9-0.4-0.9-0.9v-2.5c0-3,2.4-5.4,5.4-5.4c3,0,5.4,2.4,5.4,5.4v2.5
				C14.7,164.4,14.3,164.8,13.8,164.8L13.8,164.8z M13.8,164.8"/>
			<path class="st5" d="M16,178.5H2.6c-1.4,0-2.6-1.2-2.6-2.6v-9.3c0-1.4,1.2-2.6,2.6-2.6H16c1.4,0,2.6,1.2,2.6,2.6v9.3
				C18.6,177.3,17.4,178.5,16,178.5L16,178.5z M2.6,165.8c-0.4,0-0.8,0.3-0.8,0.8v9.3c0,0.4,0.3,0.8,0.8,0.8H16
				c0.4,0,0.8-0.3,0.8-0.8v-9.3c0-0.4-0.3-0.8-0.8-0.8H2.6z M2.6,165.8"/>
		</g>
		<path class="st1" d="M9.3,174.5c-0.8,0-1.5-0.7-1.5-1.5v-3.6c0-0.8,0.7-1.5,1.5-1.5c0.8,0,1.5,0.7,1.5,1.5v3.6
			C10.7,173.8,10.1,174.5,9.3,174.5L9.3,174.5z M9.3,174.5"/>
	</g>
	<g class="st0">
		<path class="st1" d="M49.3,95.8h-0.7V95h-4.3v0.8h-0.7v-9.4h2.4v-2h0.7v2h2.5V95.8z M46.1,90.3v-3.2h-1.8v3.2H46.1z M46.1,94.3V91
			h-1.8v3.4H46.1z M46.8,90.3h1.8v-3.2h-1.8V90.3z M48.6,94.3V91h-1.8v3.4H48.6z M54.5,85.4v0.5c-0.4,1.4-0.8,2.7-1.3,3.8
			c0.9,1.3,1.3,2.4,1.4,3.2c0,0.6-0.2,1.1-0.5,1.3c-0.3,0.3-1,0.4-2,0.4L51.9,94c0.3,0,0.5,0,0.6,0c0.6,0,0.9-0.1,1.1-0.2
			c0.2-0.2,0.3-0.4,0.3-0.8c0-0.8-0.5-1.9-1.4-3.2c0.4-1.1,0.9-2.3,1.3-3.7h-2.6v10.4h-0.7V85.4H54.5z"/>
		<path class="st1" d="M58.7,89.7v-1.5h0.7v1.5h1.9v0.7h-1.9v0.5c0.7,0.6,1.3,1.4,2,2.2L61,93.6c-0.6-0.9-1.2-1.6-1.6-2.1v5h-0.7
			v-5.2c-0.6,1.3-1.4,2.5-2.4,3.5L56,94c1.2-1.1,2.1-2.3,2.6-3.7h-2.1v-0.7H58.7z M56.9,87.8l-0.6-0.4c0.8-0.9,1.4-1.8,1.8-2.9
			l0.7,0.1c-0.1,0.4-0.3,0.7-0.4,1H62v0.6h-2.3c0.4,0.5,0.7,1,1,1.5L60,88c-0.3-0.6-0.7-1.2-1.1-1.7H58
			C57.7,86.8,57.3,87.3,56.9,87.8z M62.6,87.9L62,87.5c0.7-0.9,1.3-2,1.6-3.1l0.7,0.1c-0.1,0.4-0.2,0.8-0.4,1.1h4v0.6h-2.7
			c0.4,0.5,0.7,1,1,1.4L65.6,88c-0.3-0.6-0.7-1.1-1.1-1.7h-0.9C63.3,86.9,63,87.4,62.6,87.9z M67,96.5h-0.7v-0.6h-3.5v0.6h-0.7v-7.8
			H67V96.5z M66.3,90.8v-1.5h-3.5v1.5H66.3z M66.3,92.9v-1.5h-3.5v1.5H66.3z M66.3,95.2v-1.6h-3.5v1.6H66.3z"/>
	</g>
	<g class="st0">
		<path class="st1" d="M45.2,15.8l-0.5-0.5c0.9-1.2,1.3-2.7,1.3-4.5V4.7h9.5v9.7c0,0.8-0.4,1.3-1.3,1.3h-1.5L52.5,15
			c0.5,0,1,0,1.4,0c0.5,0,0.8-0.3,0.8-0.9v-2.5H51v3.9h-0.7v-3.9h-3.6C46.5,13.3,46,14.7,45.2,15.8z M46.7,10.8c0,0.1,0,0.1,0,0.2
			h3.6V8.5h-3.6V10.8z M46.7,5.3v2.5h3.6V5.3H46.7z M54.8,5.3H51v2.5h3.8V5.3z M54.8,8.5H51V11h3.8V8.5z"/>
		<path class="st1" d="M58.1,16l-0.5-0.5c1.1-1.5,1.7-3.4,1.7-5.8v-4h4.3c-0.2-0.6-0.5-1.1-0.8-1.6L63.5,4c0.3,0.5,0.5,1.1,0.7,1.7
			h4.1v4.2h-8.4C59.9,12.3,59.2,14.3,58.1,16z M59.9,6.5v2.8h7.7V6.5H59.9z"/>
		<path class="st1" d="M74.6,15.9h-0.7v-4.7c-0.9,0.3-1.8,0.6-2.7,0.8l-0.4-0.7c2.3-0.5,4.2-1.2,5.7-2c-0.6-0.5-1.4-1.1-2.5-1.7
			l0.6-0.4c1.1,0.6,1.9,1.2,2.4,1.7c1.4-0.9,2.5-1.9,3.1-3h-5.1c-0.9,0.8-2,1.6-3.4,2.2l-0.5-0.6c2.2-1,3.7-2.2,4.5-3.6l0.8,0.1
			c-0.2,0.4-0.5,0.8-0.8,1.2H81V6c-1,1.9-2.8,3.4-5.4,4.6h5.8v5.3h-0.7v-0.8h-6.1V15.9z M80.6,11.2h-6.1v3.2h6.1V11.2z"/>
	</g>
	<g class="st0">
		<path class="st1" d="M77.6,161.9c-0.5,0.8-0.9,1.7-1.2,2.7c-0.4,1.1-0.6,2.3-0.6,3.4c0,1.1,0.2,2.2,0.6,3.4
			c0.3,0.9,0.7,1.8,1.2,2.7h-0.7c-0.5-0.8-1-1.7-1.3-2.7c-0.4-1.1-0.6-2.3-0.6-3.4s0.2-2.2,0.6-3.4c0.3-1,0.7-1.9,1.3-2.7H77.6z"/>
		<path class="st1" d="M90.6,162.8v0.7h-4.3c-0.2,0.6-0.5,1.1-0.8,1.6v8.8h-0.7v-7.7c-1.2,1.6-2.9,3.1-5,4.3l-0.5-0.6
			c3-1.8,5.1-3.9,6.3-6.4h-5.9v-0.7H90.6z M91,169.9l-0.5,0.5c-0.9-1.2-2.2-2.4-3.8-3.7l0.5-0.5C88.7,167.5,90,168.7,91,169.9z"/>
		<path class="st1" d="M95.8,163.9c-0.7,2-1.6,3.6-2.7,4.7l-0.6-0.5c1.2-1.1,2-2.6,2.6-4.4L95.8,163.9z M102.1,168
			c-1.5,3.1-4.5,5-9,5.9l-0.4-0.7c4.4-0.8,7.4-2.7,8.8-5.6L102.1,168z M98.5,162.1v7.6h-0.7v-7.6H98.5z M104.2,168.1l-0.7,0.3
			c-1-1.8-2.2-3.3-3.5-4.7l0.6-0.3C102,164.8,103.2,166.4,104.2,168.1z"/>
		<path class="st1" d="M116,162.7v0.7h-4.3v3.8h5.2v0.7h-5.2v4.8c0,0.8-0.4,1.2-1.2,1.2h-2l-0.2-0.7c0.7,0,1.3,0.1,1.9,0.1
			c0.5,0,0.8-0.2,0.8-0.7v-4.6h-5.5v-0.7h5.5v-3.8h-4.7v-0.7H116z"/>
		<path class="st1" d="M124.6,165.7h-0.8c-0.2-1.2-0.9-1.8-2.1-1.8c-0.8,0-1.4,0.4-1.9,1.2c-0.4,0.8-0.6,1.7-0.6,2.9v0.5h0.1
			c0.2-0.5,0.5-1,1-1.3c0.4-0.3,1-0.5,1.6-0.5c0.9,0,1.6,0.3,2.1,0.8c0.5,0.6,0.8,1.3,0.8,2.2s-0.3,1.7-0.9,2.3
			c-0.6,0.6-1.3,0.9-2.2,0.9c-1.1,0-2-0.4-2.5-1.3c-0.5-0.8-0.8-1.9-0.8-3.3c0-1.5,0.3-2.7,0.8-3.6c0.6-1,1.4-1.5,2.5-1.5
			C123.4,163.2,124.3,164,124.6,165.7z M120,168c-0.5,0.4-0.7,1-0.7,1.7c0,0.7,0.2,1.2,0.6,1.7c0.4,0.5,1,0.7,1.7,0.7
			c0.7,0,1.2-0.2,1.7-0.7c0.4-0.5,0.6-1.1,0.6-1.8c0-0.7-0.2-1.3-0.6-1.7c-0.4-0.4-1-0.6-1.7-0.6C121,167.3,120.5,167.6,120,168z"/>
		<path class="st1" d="M129.7,162.3c-0.3,1-0.8,2-1.3,2.9v8.8h-0.7v-7.7c-0.5,0.7-1,1.3-1.5,1.9l-0.2-0.7c1.4-1.6,2.5-3.4,3.1-5.4
			L129.7,162.3z M134.1,172.6c0.7-1.8,1.3-4,1.8-6.7l0.7,0.2c-0.5,2.5-1,4.6-1.7,6.5h3.1v0.7h-8.3v-0.7H134.1z M133.4,164.3
			c-0.2-0.8-0.4-1.4-0.7-2l0.7-0.1c0.2,0.6,0.4,1.4,0.6,2.2h3.5v0.7h-7.8v-0.7H133.4z M132.6,171.9l-0.6,0.2c-0.4-2-0.8-4-1.4-5.8
			l0.6-0.2C131.8,167.8,132.2,169.7,132.6,171.9z"/>
		<path class="st1" d="M140.2,161.9c0.5,0.8,1,1.7,1.3,2.7c0.4,1.1,0.6,2.3,0.6,3.4s-0.2,2.2-0.6,3.4c-0.3,0.9-0.8,1.8-1.3,2.7h-0.7
			c0.5-0.9,0.9-1.8,1.2-2.7c0.4-1.1,0.6-2.3,0.6-3.4c0-1.1-0.2-2.2-0.6-3.4c-0.3-1-0.7-1.9-1.2-2.7H140.2z"/>
	</g>
</g>
</svg>
