<!-- Generator: Adobe Illustrator 21.0.0, SVG Export Plug-In  -->
<svg version="1.1"
	 xmlns="http://www.w3.org/2000/svg" xmlns:xlink="http://www.w3.org/1999/xlink" xmlns:a="http://ns.adobe.com/AdobeSVGViewerExtensions/3.0/"
	 x="0px" y="0px" width="20.1px" height="40px" viewBox="0 0 20.1 40" style="enable-background:new 0 0 20.1 40;"
	 xml:space="preserve">
<style type="text/css">
	.st0{opacity:0.5;}
	.st1{fill:#FFFFFF;}
</style>
<defs>
</defs>
<g class="st0">
	<g>
		<path class="st1" d="M13.4,10.1c-0.1,0-0.3,0-0.4-0.1c-0.2-0.2-0.2-0.5,0-0.7c1.9-1.9,1.9-4.9,0-6.8C12.2,1.5,11,1,9.7,1
			C8.4,1,7.3,1.5,6.3,2.4c-0.2,0.2-0.5,0.2-0.7,0c-0.2-0.2-0.2-0.5,0-0.7c2.3-2.3,5.9-2.2,8.2,0c2.3,2.3,2.2,5.9,0,8.2
			C13.7,10,13.6,10.1,13.4,10.1z"/>
	</g>
	<g>
		<path class="st1" d="M9.8,11.6c-1.5,0-3-0.6-4.1-1.7C3.4,7.7,3.4,4,5.7,1.7c0.2-0.2,0.5-0.2,0.7,0c0.2,0.2,0.2,0.5,0,0.7
			c-1.9,1.9-1.9,4.9,0,6.8c1.9,1.9,4.9,1.9,6.8,0c0.2-0.2,0.5-0.2,0.7,0c0.2,0.2,0.2,0.5,0,0.7C12.7,11.1,11.2,11.6,9.8,11.6z"/>
	</g>
	<g>
		<path class="st1" d="M17.3,21.6H3c-0.5,0-1-0.2-1.3-0.6c-0.3-0.4-0.5-0.9-0.4-1.4c0.7-4.3,4.4-7.5,8.8-7.5c4.4,0,8.1,3.2,8.8,7.5
			c0.1,0.5-0.1,1-0.4,1.4C18.3,21.3,17.8,21.6,17.3,21.6z M10.2,13.1c-3.9,0-7.2,2.8-7.9,6.7c0,0.2,0,0.4,0.2,0.5
			c0.1,0.2,0.3,0.3,0.5,0.3h14.3c0.2,0,0.4-0.1,0.5-0.3c0.1-0.2,0.2-0.3,0.2-0.5C17.4,15.9,14.1,13.1,10.2,13.1z"/>
	</g>
</g>
<g class="st0">
	<path class="st1" d="M5,30.8c0.8,1.4,2.3,2.6,4.3,3.7l-0.4,0.7c-1.9-1-3.3-2.2-4.2-3.6c-1.1,1.6-2.5,2.8-4.2,3.7L0,34.5
		c1.9-1,3.3-2.2,4.3-3.7H5z M5,33.8V40H4.3v-6.2H5z"/>
	<path class="st1" d="M15.7,33c0.6,2.7,2,4.8,4.4,6.2l-0.5,0.6c-2-1.3-3.4-3.1-4.1-5.4c-0.6,2.2-2,4-4.3,5.4l-0.4-0.6
		c2.8-1.7,4.2-4,4.3-6.9c0-0.7,0-1.2,0-1.6h0.7C15.8,31.7,15.8,32.4,15.7,33z"/>
</g>
</svg>
