<!-- Generator: Adobe Illustrator 21.0.0, SVG Export Plug-In  -->
<svg version="1.1"
	 xmlns="http://www.w3.org/2000/svg" xmlns:xlink="http://www.w3.org/1999/xlink" xmlns:a="http://ns.adobe.com/AdobeSVGViewerExtensions/3.0/"
	 x="0px" y="0px" width="185.4px" height="32.7px" viewBox="0 0 185.4 32.7" style="enable-background:new 0 0 185.4 32.7;"
	 xml:space="preserve">
<style type="text/css">
	.st0{opacity:0.6;}
</style>
<defs>
</defs>
<g>
	<path class="st0" d="M4.3,30.6c-0.6,0-0.9-0.2-1-0.8c-0.3-1.7-0.6-3.4-0.9-5.1c0-0.3,0-0.5,0.2-0.7c0.1-0.2,0.4-0.3,0.7-0.3
		c0.1,0,0.3,0,0.4,0l0.6,0c7.4,0,14.8,0,22.1,0c0.1,0,0.3,0,0.4,0c0.3,0.1,0.6,0.4,0.5,0.8c0,0.4-0.3,0.7-0.7,0.7
		c-0.2,0-0.5,0-0.7,0l-0.9,0l-21.1,0l0.7,3.9l25.2,0c0.4,0,0.6-0.2,0.6-0.5c0.4-2.6,0.9-5.2,1.3-7.8l1.4-8.5c0,0,0-0.2,0-0.2
		l0.1-0.7l-0.9,0.5l-5.4,3.4c-0.2,0.2-0.5,0.2-0.6,0.2c-0.2,0-0.4-0.1-0.7-0.4l-7.9-8.3l-0.4-0.5L16.2,8l-6.8,7.2
		c-0.2,0.3-0.5,0.4-0.7,0.4c-0.2,0-0.4-0.1-0.6-0.2l-5.4-3.4l-0.9-0.6l0.7,4.1c0.2,1.4,0.5,2.7,0.7,4.1c0,0.2,0,0.3-0.1,0.5
		c-0.1,0.2-0.3,0.3-0.6,0.3c0,0-0.1,0-0.1,0c-0.4,0-0.7-0.3-0.8-0.6c-0.2-0.9-0.3-1.7-0.4-2.6l-0.4-2.3c-0.3-1.6-0.5-3.1-0.8-4.7
		C0,10,0,9.7,0,9.5C0.1,9.2,0.4,9,0.7,9c0.2,0,0.3,0,0.5,0.1c0.5,0.3,1,0.7,1.6,1l5.8,3.7l7.8-8.2l-0.3-0.2
		c-0.8-0.5-1.3-1.3-1.4-2.1c-0.1-0.9,0.2-1.7,0.8-2.3C16,0.3,16.8,0,17.7,0c0.8,0,1.5,0.3,2.1,0.8c0,0,0.1,0.1,0.1,0.1
		c0.6,0.6,0.9,1.5,0.8,2.3c-0.1,0.9-0.6,1.6-1.4,2.2L19,5.6l7.8,8.2l0.5-0.3c0,0,5.1-3.2,6.8-4.3C34.3,9.1,34.4,9,34.6,9
		c0.1,0,0.1,0,0.2,0c0.4,0.1,0.6,0.5,0.5,0.9l-1.7,9.9l-1.5,9.1l-0.2,1c-0.1,0.5-0.4,0.7-0.9,0.7L4.3,30.6L4.3,30.6z M17.7,1.5
		c-0.8,0-1.5,0.6-1.5,1.4c0,0.8,0.7,1.4,1.5,1.4c0.4,0,0.8-0.2,1.1-0.4c0.3-0.3,0.4-0.6,0.4-1C19.1,2.1,18.5,1.5,17.7,1.5L17.7,1.5z
		"/>
	<g>
		<path d="M75.2,3.3c4.1,4.6,8.8,8.3,14.1,11L88.4,16c-5.4-2.9-10-6.6-13.8-11.1c-3.5,4.3-8.2,8-14,11.1l-0.9-1.7
			c5.7-2.9,10.4-6.6,14.2-11H75.2z M87.4,19.7v1.7H72.2c-1.6,3.2-3.6,6.1-6,8.6c5.8-0.3,11.1-0.8,16.2-1.6c-1.2-1.5-2.4-3.2-3.9-4.8
			l1.3-0.8c2.9,3.3,5.2,6.2,6.7,8.6l-1.4,1c-0.5-0.9-1.2-1.8-1.8-2.8c-5,0.8-11.4,1.5-19.2,2l-0.5-1.5c0.4-0.1,0.7-0.3,0.9-0.5
			c2.3-2.6,4.3-5.4,5.7-8.3h-8.4v-1.7H87.4z M82.4,13.3V15H66.9v-1.7H82.4z"/>
		<path d="M107.8,19.2c-0.4,4.6-1.4,7.8-3,9.4c-1.7,2-5.4,3.3-11.2,3.8l-0.7-1.6c5.2-0.4,8.7-1.4,10.4-3.3c1.5-1.7,2.4-4.6,2.7-8.6
			L107.8,19.2z M117.2,26.8h-1.7V16.6H97.7v10.6H96V15h21.2V26.8z M115.3,4.7v7.6H97.9V4.7H115.3z M113.6,6.2H99.6v4.5h13.9V6.2z
			 M120.2,31.1l-1,1.4c-3.7-2-7.5-3.5-11.4-4.6l0.9-1.3C112.9,27.9,116.7,29.4,120.2,31.1z"/>
		<path d="M139.5,3.2v5.9h11.6v14.7h-1.8v-2.1h-9.8v11.1h-1.8V21.7h-9.8v2.1h-1.8V9.1h11.6V3.2H139.5z M137.7,20v-9.2h-9.8V20H137.7
			z M149.3,20v-9.2h-9.8V20H149.3z"/>
		<path d="M161.4,13.9c-0.9,5.3-2.2,9.9-3.9,13.8l-1.5-1c1.7-3.9,2.9-8.3,3.7-13.2L161.4,13.9z M167.4,31.4c-2,0-3-1-3-2.9V10h1.8
			v18.2c0,1,0.6,1.5,1.8,1.5h6.3c0.9,0,1.5-0.3,1.9-0.9c0.4-0.8,0.8-3.1,0.9-7l1.6,0.5c-0.2,4.3-0.6,6.9-1.3,7.9
			c-0.6,0.8-1.5,1.2-2.8,1.2H167.4z M175.1,11.5l-1.5,1c-1.7-2.4-4-5.1-7-8.1l1.4-0.9C171.1,6.6,173.4,9.2,175.1,11.5z M185.4,25.5
			l-1.6,0.7c-1.7-5-3.7-9.3-5.8-13.2l1.7-0.6C181.8,16.5,183.8,20.9,185.4,25.5z"/>
	</g>
</g>
</svg>
