<!-- Generator: Adobe Illustrator 21.0.0, SVG Export Plug-In  -->
<svg version="1.1"
	 xmlns="http://www.w3.org/2000/svg" xmlns:xlink="http://www.w3.org/1999/xlink" xmlns:a="http://ns.adobe.com/AdobeSVGViewerExtensions/3.0/"
	 x="0px" y="0px" width="34.5px" height="60.8px" viewBox="0 0 34.5 60.8" style="enable-background:new 0 0 34.5 60.8;"
	 xml:space="preserve">
<style type="text/css">
	.st0{opacity:0.75;}
	.st1{fill:#2A3D96;}
	.st2{opacity:0.83;}
	.st3{fill:#1FB192;}
	.st4{fill:#53BFA4;}
	.st5{fill:#4D4D4D;}
</style>
<defs>
</defs>
<g>
	<g class="st0">
		<path class="st1" d="M19.8,28.3c-0.3,0-0.6-0.1-0.9-0.4c-0.5-0.5-0.5-1.3,0-1.8c1.4-1.4,1.4-3.7,0-5.2c-0.7-0.7-1.6-1.1-2.6-1.1
			s-1.9,0.4-2.6,1.1c-0.5,0.5-1.3,0.5-1.8,0c-0.5-0.5-0.5-1.3,0-1.8c1.2-1.2,2.7-1.8,4.3-1.8c1.6,0,3.2,0.6,4.3,1.8
			c1.2,1.2,1.8,2.7,1.8,4.3s-0.6,3.2-1.8,4.3C20.4,28.2,20.1,28.3,19.8,28.3z"/>
	</g>
	<g class="st2">
		<path class="st3" d="M16.4,29.8c-1.6,0-3.1-0.6-4.3-1.8c-1.2-1.2-1.8-2.7-1.8-4.3s0.6-3.2,1.8-4.3c0.5-0.5,1.3-0.5,1.8,0
			c0.5,0.5,0.5,1.3,0,1.8c-1.4,1.4-1.4,3.7,0,5.2c0.7,0.7,1.6,1.1,2.6,1.1c1,0,1.9-0.4,2.6-1.1c0.5-0.5,1.3-0.5,1.8,0
			c0.5,0.5,0.5,1.3,0,1.8C19.5,29.2,17.9,29.8,16.4,29.8z"/>
	</g>
	<g class="st0">
		<path class="st1" d="M19,13.6c-0.3,0-0.6-0.1-0.9-0.4c-0.5-0.5-0.5-1.3,0-1.8c0.4-0.4,0.6-0.9,0.6-1.5c0-0.6-0.2-1.1-0.6-1.5
			c-0.4-0.4-0.9-0.6-1.5-0.6c-0.6,0-1.1,0.2-1.5,0.6c-0.5,0.5-1.3,0.5-1.8,0c-0.5-0.5-0.5-1.3,0-1.8c0.9-0.9,2-1.4,3.3-1.4
			s2.4,0.5,3.3,1.4c0.9,0.9,1.4,2,1.4,3.3s-0.5,2.4-1.4,3.3C19.6,13.5,19.3,13.6,19,13.6z"/>
	</g>
	<g class="st2">
		<path class="st3" d="M16.6,14.6c-1.2,0-2.4-0.5-3.3-1.4c-0.9-0.9-1.4-2-1.4-3.3s0.5-2.4,1.4-3.3c0.5-0.5,1.3-0.5,1.8,0
			c0.5,0.5,0.5,1.3,0,1.8c-0.4,0.4-0.6,0.9-0.6,1.5s0.2,1.1,0.6,1.5c0.8,0.8,2.2,0.8,3,0c0.5-0.5,1.3-0.5,1.8,0
			c0.5,0.5,0.5,1.3,0,1.8C19,14.1,17.8,14.6,16.6,14.6z"/>
	</g>
	<g class="st0">
		<path class="st1" d="M10.2,35.5c-1.7,0-3.3-0.7-4.5-2c-1.3-1.4-2-3.4-1.8-5.5L5.5,5.3c0.2-3,2.8-5.3,6-5.3h10
			c0.7,0,1.2,0.6,1.2,1.2s-0.6,1.2-1.2,1.2h-10c-1.8,0-3.4,1.3-3.5,3L6.3,28.2c-0.1,1.4,0.3,2.7,1.2,3.6c0.7,0.8,1.7,1.2,2.7,1.2
			c0.7,0,1.2,0.6,1.2,1.2C11.4,34.9,10.8,35.5,10.2,35.5z"/>
	</g>
	<g class="st2">
		<path class="st4" d="M22.7,35.5H10.2c-0.7,0-1.2-0.6-1.2-1.2c0-0.7,0.6-1.2,1.2-1.2h12.5c1,0,2-0.4,2.7-1.2
			c0.8-0.9,1.3-2.2,1.2-3.6L24.9,5.5c-0.1-1.7-1.7-3-3.5-3c-0.7,0-1.2-0.6-1.2-1.2S20.7,0,21.4,0c3.1,0,5.8,2.3,6,5.3L29.1,28
			c0.1,2-0.5,4-1.8,5.5C26,34.8,24.4,35.5,22.7,35.5z"/>
	</g>
</g>
<g>
	<path class="st5" d="M4.9,51c-0.2-0.4-0.4-0.8-0.6-1.1l0.9-0.1c0.2,0.4,0.4,0.8,0.5,1.3H10v0.8H8.1c-0.2,0.7-0.4,1.3-0.7,1.9h3.2
		v0.8H0v-0.8h3.1c-0.2-0.7-0.4-1.3-0.7-1.9H0.6V51H4.9z M9,60.8H8.2v-0.6H2.5v0.6H1.6v-5.3H9V60.8z M8.2,57.5v-1.3H2.5v1.3H8.2z
		 M8.2,59.5v-1.2H2.5v1.2H8.2z M4,53.7h2.6c0.3-0.6,0.6-1.2,0.7-1.9H3.3C3.6,52.3,3.8,53,4,53.7z"/>
	<path class="st5" d="M14.9,56.6c-0.6,1.4-1.3,2.6-2.2,3.7l-0.7-0.5c0.8-1,1.6-2.1,2.2-3.5L14.9,56.6z M13.4,50.6
		c0.2,0,0.5,0.1,0.7,0.1c2.8,0,5.1-0.3,6.9-0.9l0.4,0.7c-1.8,0.5-4.3,0.8-7.3,0.9c-0.2,1.1-0.4,2.1-0.6,3h3.4v-2.4h0.9v2.4h4.4v0.8
		h-4.4v4.3c0,0.8-0.4,1.2-1.1,1.2h-1.6l-0.2-0.9c0.5,0,1,0.1,1.5,0.1c0.4,0,0.5-0.2,0.5-0.6v-4h-4.4C12.9,53.5,13.2,52,13.4,50.6z
		 M22.3,59.9l-0.8,0.4c-0.6-1.4-1.3-2.7-2.1-3.8l0.8-0.4C20.9,57.3,21.6,58.6,22.3,59.9z"/>
	<path class="st5" d="M26.8,51v-1.2h0.9V51h3.1v-1.2h0.9V51h2.8v0.8h-2.8v1.1h-0.9v-1.1h-3.1v1.1h-0.9v-1.1h-2.8V51H26.8z
		 M24.6,54.4v-0.8h8.9c-0.1,2-0.1,3.2-0.1,3.6c0,0.6-0.2,1.1-0.4,1.3c-0.2,0.2-0.6,0.4-1.2,0.4c-0.3,0-0.8,0-1.3,0L30.3,58
		c0.4,0,0.9,0,1.3,0c0.3,0,0.5-0.1,0.7-0.2c0.1-0.2,0.2-0.6,0.3-1.2c0-0.3,0-1,0.1-2.2h-3.8v6.4H28v-6.4H24.6z"/>
</g>
</svg>
