<!-- Generator: Adobe Illustrator 21.0.0, SVG Export Plug-In  -->
<svg version="1.1"
	 xmlns="http://www.w3.org/2000/svg" xmlns:xlink="http://www.w3.org/1999/xlink" xmlns:a="http://ns.adobe.com/AdobeSVGViewerExtensions/3.0/"
	 x="0px" y="0px" width="22.8px" height="11.1px" viewBox="0 0 22.8 11.1" style="enable-background:new 0 0 22.8 11.1;"
	 xml:space="preserve">
<style type="text/css">
	.st0{fill:#FFFFFF;}
</style>
<defs>
</defs>
<g>
	<path class="st0" d="M2.2,1.1V0h0.9v1.1h4.5V0h0.9v1.1h2v0.8h-2v5.5h2.3v0.8H0V7.4h2.2V1.9h-2V1.1H2.2z M4.4,9.1
		c-1,0.7-2.2,1.4-3.6,2l-0.5-0.7c1.4-0.5,2.6-1.1,3.6-1.8L4.4,9.1z M7.6,3.3V1.9H3.1v1.3H7.6z M7.6,5.3V4H3.1v1.3H7.6z M7.6,7.4V6.1
		H3.1v1.4H7.6z M10.6,10.3L10.1,11c-1.2-0.8-2.4-1.4-3.6-1.8l0.4-0.6C8.3,9,9.5,9.6,10.6,10.3z"/>
	<path class="st0" d="M15.2,0.4c-0.3,0.9-0.6,1.8-1.1,2.6v8.2h-0.9V4.3c-0.4,0.6-0.8,1.1-1.3,1.6L11.8,5c1.2-1.5,2.1-3.1,2.7-5
		L15.2,0.4z M17.1,10.8c-0.8,0-1.2-0.4-1.2-1.3V4.7l-1.1,0.4V4.2l1.1-0.4V1.2h0.9v2.4L18.5,3V0.1h0.9v2.7l2.6-0.8
		c0,2.5-0.1,4.1-0.2,4.6c-0.1,0.5-0.6,0.8-1.4,0.8h-0.2l-0.3-0.8c0.2,0,0.4,0,0.6,0c0.3,0,0.4-0.1,0.5-0.4c0-0.3,0.1-1.3,0.1-3
		l-1.8,0.6v4.8h-0.9V3.9l-1.8,0.6v5c0,0.4,0.2,0.6,0.6,0.6H21c0.3,0,0.5-0.1,0.7-0.3C21.8,9.6,21.9,9,22,7.9l0.8,0.3
		c-0.1,1.3-0.2,2-0.4,2.3c-0.2,0.3-0.6,0.4-1.2,0.4H17.1z"/>
</g>
</svg>
