<!-- Generator: Adobe Illustrator 21.0.0, SVG Export Plug-In  -->
<svg version="1.1"
	 xmlns="http://www.w3.org/2000/svg" xmlns:xlink="http://www.w3.org/1999/xlink" xmlns:a="http://ns.adobe.com/AdobeSVGViewerExtensions/3.0/"
	 x="0px" y="0px" width="750.5px" height="133.9px" viewBox="0 0 750.5 133.9" style="enable-background:new 0 0 750.5 133.9;"
	 xml:space="preserve">
<style type="text/css">
	.st0{clip-path:url(#SVGID_2_);}
	.st1{clip-path:url(#SVGID_4_);fill:#FFFFFF;}
	.st2{clip-path:url(#SVGID_6_);}
	.st3{clip-path:url(#SVGID_8_);fill:#FFFFFF;}
	.st4{clip-path:url(#SVGID_10_);}
	.st5{clip-path:url(#SVGID_12_);fill:#FFFFFF;}
	.st6{fill:#FFFFFF;}
	.st7{fill:none;stroke:#FFFFFF;stroke-miterlimit:10;}
	.st8{clip-path:url(#SVGID_14_);}
	.st9{clip-path:url(#SVGID_16_);fill:#FFFFFF;}
	.st10{clip-path:url(#SVGID_18_);}
	.st11{clip-path:url(#SVGID_20_);fill:#FFFFFF;}
	.st12{clip-path:url(#SVGID_22_);}
	.st13{clip-path:url(#SVGID_24_);fill:#FFFFFF;}
</style>
<defs>
</defs>
<rect x="1.5" width="749" height="130.9"/>
<g>
	<defs>
		<path id="SVGID_1_" d="M690.6,18.7h38.6c0.5,0,1,0.4,1,1v12.9c0,0.5-0.4,1-1,1h-38.6c-0.5,0-1-0.4-1-1V19.7
			C689.6,19.1,690.1,18.7,690.6,18.7z M690.6,17.7c-1.1,0-2,0.9-2,2v12.8c0,1.1,0.9,2,2,2h38.6c1.1,0,2-0.9,2-2V19.7
			c0-1.1-0.9-2-2-2H690.6z M733.1,22.7h1.5c0.8,0,1.5,0.7,1.5,1.5v4c0,0.8-0.7,1.5-1.5,1.5h-1.5V22.7z M690.6,16.7h38.6
			c1.6,0,3,1.3,3,3v12.8c0,1.7-1.3,3-3,3h-38.6c-1.6,0-3-1.3-3-3V19.7C687.6,18.1,689,16.7,690.6,16.7z"/>
	</defs>
	<clipPath id="SVGID_2_">
		<use xlink:href="#SVGID_1_"  style="overflow:visible;"/>
	</clipPath>
	<g class="st0">
		<defs>
			<rect id="SVGID_3_" x="5" y="5.9" width="742" height="39.6"/>
		</defs>
		<clipPath id="SVGID_4_">
			<use xlink:href="#SVGID_3_"  style="overflow:visible;"/>
		</clipPath>
		<rect x="677.7" y="6.8" class="st1" width="68.3" height="38.6"/>
	</g>
</g>
<g>
	<defs>
		<path id="SVGID_5_" d="M203.9,22.1l-2.2,2.1c-2.7-2.8-6.5-4.5-10.7-4.5c-4.2,0-8,1.7-10.7,4.4l-2.2-2.1c3.2-3.3,7.8-5.3,12.8-5.3
			C196,16.7,200.6,18.8,203.9,22.1z M199.5,26.3L199.5,26.3l-2.2,2.1c-1.6-1.7-3.9-2.8-6.4-2.8c-2.5,0-4.8,1-6.4,2.7l-2.2-2.1
			c2.1-2.2,5.2-3.6,8.5-3.6C194.4,22.6,197.4,24,199.5,26.3z M195.2,30.5l-4.2,4.1l-4.3-4.1c1-1.1,2.5-1.9,4.2-1.9
			C192.7,28.5,194.2,29.3,195.2,30.5z"/>
	</defs>
	<clipPath id="SVGID_6_">
		<use xlink:href="#SVGID_5_"  style="overflow:visible;"/>
	</clipPath>
	<g class="st2">
		<defs>
			<rect id="SVGID_7_" x="5" y="5.9" width="742" height="39.6"/>
		</defs>
		<clipPath id="SVGID_8_">
			<use xlink:href="#SVGID_7_"  style="overflow:visible;"/>
		</clipPath>
		<rect x="168.2" y="6.8" class="st3" width="45.5" height="37.6"/>
	</g>
</g>
<g>
	<defs>
		<path id="SVGID_9_" d="M78.7,31.6c-3,0-5.4-2.4-5.4-5.4s2.4-5.4,5.4-5.4c3,0,5.4,2.4,5.4,5.4S81.7,31.6,78.7,31.6z M64.9,31.6
			c-3,0-5.4-2.4-5.4-5.4s2.4-5.4,5.4-5.4c3,0,5.4,2.4,5.4,5.4S67.9,31.6,64.9,31.6z M51,31.6c-3,0-5.4-2.4-5.4-5.4s2.4-5.4,5.4-5.4
			c3,0,5.4,2.4,5.4,5.4S54,31.6,51,31.6z M37.2,31.6c-3,0-5.4-2.4-5.4-5.4s2.4-5.4,5.4-5.4s5.4,2.4,5.4,5.4S40.2,31.6,37.2,31.6z
			 M23.3,31.6c-3,0-5.4-2.4-5.4-5.4s2.4-5.4,5.4-5.4s5.4,2.4,5.4,5.4S26.3,31.6,23.3,31.6z"/>
	</defs>
	<clipPath id="SVGID_10_">
		<use xlink:href="#SVGID_9_"  style="overflow:visible;"/>
	</clipPath>
	<g class="st4">
		<defs>
			<rect id="SVGID_11_" x="5" y="5.9" width="742" height="39.6"/>
		</defs>
		<clipPath id="SVGID_12_">
			<use xlink:href="#SVGID_11_"  style="overflow:visible;"/>
		</clipPath>
		<rect x="8" y="10.8" class="st5" width="86.1" height="30.7"/>
	</g>
</g>
<g>
	<path class="st6" d="M102.3,31.9c0,0.8,0,1.4,0,2c0,0.5,0.1,1,0.1,1.4H101c0-0.4,0.1-0.9,0.1-1.4c0-0.5,0-1.2,0-2v-2.8h-4.9v1.6H95
		c0-0.4,0.1-0.8,0.1-1.2c0-0.4,0-0.8,0-1.2v-4.3c0-0.3,0-0.6,0-1c0-0.3-0.1-0.6-0.1-0.9c0.5,0.1,1.2,0.1,2.2,0.1
		c1,0,2.3,0.1,3.9,0.1V21c0-0.4,0-0.9,0-1.3s-0.1-0.8-0.1-1.2c0.3,0.1,0.5,0.1,0.8,0.1c0.3,0,0.5,0,0.7,0c0.2,0,0.3,0,0.3,0.1
		c0,0.1-0.1,0.2-0.3,0.3c-0.1,0.1-0.1,0.1-0.2,0.2s-0.1,0.3-0.1,0.5v2.4c1.6,0,2.9,0,3.9-0.1c1,0,1.7-0.1,2.2-0.1c0,0.1,0,0.3,0,0.5
		c0,0.2,0,0.4,0,0.6c0,0.2,0,0.4,0,0.6s0,0.4,0,0.5V28c0,0.4,0,0.8,0,1.3c0,0.5,0,0.9,0.1,1.3h-1.2v-1.4h-4.8V31.9z M101.2,23.2
		h-4.9v5h4.9V23.2z M102.3,28.2h4.8v-5h-4.8V28.2z"/>
	<path class="st6" d="M114.1,35H113c0.1-1,0.1-2,0.1-3V22c0-0.4,0-0.7,0-1.1c0-0.3,0-0.7-0.1-1.1c0.2,0,0.4,0,0.6,0s0.6,0,1.1,0
		c0.5,0,1.1,0,1.9,0s1.8,0,3.1,0s2.3,0,3.1,0s1.4,0,1.9,0c0.5,0,0.8,0,1.1,0s0.5,0,0.6,0c0,0.4,0,0.8,0,1.1s0,0.7,0,1v9.8
		c0,0.5,0,1.1,0,1.5c0,0.5,0,1,0.1,1.5h-1.2v-1.1h-11.1V35z M125.2,20.8h-11.1v12h11.1V20.8z M120.1,25.9c0.4,0,0.8,0,1.2,0
		c0.3,0,0.7,0,1,0s0.6,0,0.8,0s0.5,0,0.8-0.1v1.1c-0.3,0-0.5,0-0.8-0.1c-0.3,0-0.5,0-0.8,0c-0.3,0-0.6,0-1,0c-0.3,0-0.7,0-1.2,0v3.4
		c0.9,0,1.8,0,2.6,0c0.8,0,1.4-0.1,1.9-0.1v1.1c-0.5,0-1.2-0.1-2.1-0.1c-0.8,0-1.8,0-2.8,0c-1,0-1.9,0-2.8,0c-0.8,0-1.5,0.1-2.1,0.1
		V30c0.5,0,1,0.1,1.7,0.1c0.7,0,1.5,0,2.3,0.1v-3.4c-0.4,0-0.7,0-1,0c-0.3,0-0.6,0-0.9,0c-0.3,0-0.5,0-0.8,0c-0.2,0-0.5,0-0.7,0.1
		v-1.1c0.2,0,0.5,0,0.7,0.1s0.5,0,0.8,0c0.3,0,0.6,0,0.9,0c0.3,0,0.7,0,1,0v-2.7c-0.8,0-1.5,0-2,0s-1.1,0.1-1.5,0.1v-1.1
		c0.3,0,0.5,0,0.8,0.1s0.6,0,0.9,0s0.7,0,1.1,0s0.9,0,1.4,0c0.5,0,1,0,1.4,0c0.4,0,0.8,0,1.1,0s0.6,0,0.9,0c0.3,0,0.6,0,0.8-0.1v1.1
		c-0.5,0-1-0.1-1.6-0.1c-0.6,0-1.3,0-2.2,0V25.9z M123,29.8c-0.3-0.4-0.5-0.7-0.8-1s-0.7-0.6-1.1-0.9l0.7-0.6
		c0.4,0.3,0.7,0.6,1.1,0.9c0.3,0.3,0.7,0.6,1,1L123,29.8z"/>
	<path class="st6" d="M133,21.1c-0.2,0-0.4,0.1-0.6,0.1c-0.2,0-0.4,0.1-0.7,0.1c-0.2,0-0.4,0.1-0.6,0.1c-0.2,0-0.4,0-0.5,0.1
		c-0.1-0.2-0.1-0.4-0.2-0.6c-0.1-0.1-0.2-0.3-0.3-0.5c1.2,0,2.3-0.1,3.3-0.3s1.8-0.4,2.5-0.8c0.1,0.2,0.2,0.4,0.3,0.5
		c0.1,0.1,0.2,0.2,0.4,0.4c0.1,0.1,0.1,0.1,0.2,0.2s0.1,0.1,0,0.2c0,0-0.1,0.1-0.1,0.1s-0.2,0-0.3,0c0,0-0.1,0-0.3,0
		c-0.1,0-0.3,0-0.5,0s-0.4,0-0.7,0.1c-0.2,0-0.5,0.1-0.7,0.1v3.3c0.5,0,1,0,1.4,0c0.4,0,0.8-0.1,1.1-0.1v1.1c-0.3,0-0.7-0.1-1.1-0.1
		c-0.4,0-0.9,0-1.4,0v1.1c0.5,0.4,1,0.8,1.4,1.3c0.5,0.5,0.8,0.9,1.2,1.3l-1,0.8c-0.2-0.4-0.5-0.8-0.7-1.1c-0.2-0.3-0.6-0.7-0.9-1.1
		v4.8c0,0.4,0,0.9,0,1.5c0,0.5,0.1,1.1,0.1,1.6h-1.3c0-0.5,0.1-1.1,0.1-1.6c0-0.5,0-1,0-1.5v-4.9c-0.3,0.9-0.7,1.7-1.1,2.4
		s-0.8,1.5-1.4,2.3c-0.1-0.2-0.3-0.3-0.5-0.5c-0.2-0.1-0.4-0.3-0.6-0.4c0.7-0.7,1.4-1.6,2-2.6c0.6-1,1.1-2.1,1.6-3.4
		c-0.7,0-1.4,0-1.8,0c-0.5,0-0.9,0.1-1.3,0.1v-1.1c0.4,0,0.8,0.1,1.3,0.1c0.5,0,1.1,0,1.8,0V21.1z M142.1,31.7c0.5-0.5,1-1,1.4-1.5
		c0.4-0.5,0.7-1.1,1-1.8H141c-0.5,0.6-1.1,1.1-1.8,1.7c-0.7,0.5-1.4,1-2.1,1.3c-0.2-0.4-0.5-0.7-0.9-1c0.7-0.2,1.3-0.5,1.9-0.9
		c0.6-0.4,1.1-0.7,1.5-1.2c0.4-0.4,0.8-0.8,1-1.2c0.3-0.4,0.5-0.9,0.8-1.4c0.3,0.2,0.7,0.4,1.1,0.5c0.1,0,0.2,0.1,0.2,0.2
		c0,0.1-0.1,0.2-0.2,0.2c-0.1,0-0.2,0.1-0.4,0.3s-0.3,0.3-0.5,0.6h1.6c0.7,0,1.3,0,1.7,0s0.8,0,0.9-0.1c-0.1,0.5-0.3,1-0.5,1.4
		c-0.2,0.4-0.4,0.9-0.7,1.3c-0.3,0.4-0.6,0.8-0.9,1.2c-0.3,0.4-0.7,0.8-1.2,1.1c-0.4,0.4-0.9,0.7-1.3,0.9s-0.9,0.5-1.4,0.7
		s-1.1,0.4-1.7,0.5s-1.3,0.3-2.2,0.4c-0.1-0.3-0.1-0.5-0.2-0.7c-0.1-0.2-0.2-0.4-0.4-0.5c1.2-0.1,2.3-0.3,3.3-0.6
		c1-0.3,1.9-0.6,2.5-1c-0.2-0.3-0.5-0.6-0.8-0.9s-0.6-0.6-0.9-0.8l0.8-0.8c0.3,0.3,0.7,0.7,0.9,1C141.6,31,141.9,31.4,142.1,31.7z
		 M141.1,24.6c0.4-0.4,0.8-0.8,1.2-1.2c0.4-0.4,0.7-0.9,1-1.4h-4.3c-0.1,0.2-0.3,0.4-0.4,0.6c-0.1,0.2-0.3,0.4-0.4,0.5
		c-0.1,0.2-0.3,0.3-0.5,0.5c-0.2,0.2-0.4,0.4-0.6,0.6c-0.1-0.1-0.2-0.3-0.4-0.4c-0.2-0.1-0.3-0.2-0.5-0.3c0.4-0.3,0.8-0.6,1.2-1
		c0.3-0.4,0.7-0.8,0.9-1.2s0.5-0.8,0.7-1.3s0.3-0.8,0.4-1.2c0.3,0.2,0.7,0.3,1.2,0.3c0.1,0,0.2,0.1,0.2,0.1c0,0.1,0,0.2-0.2,0.2
		c-0.1,0.1-0.2,0.2-0.4,0.4c-0.2,0.2-0.4,0.6-0.7,1.2h2.2c0.4,0,0.8,0,1.1,0c0.3,0,0.7,0,0.9,0s0.5,0,0.7,0c0.2,0,0.3,0,0.4,0
		c-0.2,0.5-0.4,0.9-0.6,1.3c-0.2,0.4-0.4,0.7-0.6,1.1s-0.5,0.6-0.8,1c-0.3,0.3-0.7,0.7-1.1,1.1c-0.6,0.5-1.2,1-2,1.5
		c-0.8,0.5-1.7,0.9-2.6,1.4c-0.2-0.4-0.5-0.8-0.9-1c0.9-0.3,1.7-0.6,2.4-1c0.7-0.3,1.3-0.7,1.8-1c-0.3-0.3-0.5-0.6-0.8-0.8
		c-0.2-0.2-0.5-0.5-0.9-0.7l0.7-0.8c0.3,0.3,0.7,0.6,0.9,0.9S140.8,24.3,141.1,24.6z"/>
	<path class="st6" d="M150.8,25.7c-0.6,0-1.2,0-1.7,0s-0.9,0.1-1.3,0.1v-1.2c0.5,0.1,1,0.1,1.7,0.1c0.7,0,1.4,0,2.3,0
		c0.9,0,1.6,0,2.3,0c0.7,0,1.3-0.1,1.7-0.1v1.2c-0.4-0.1-1-0.1-1.7-0.1c-0.7,0-1.4,0-2.2,0c-0.2,0.5-0.4,1-0.5,1.5
		c-0.2,0.5-0.4,0.9-0.5,1.4c-0.2,0.4-0.4,0.9-0.6,1.3c-0.2,0.4-0.4,0.9-0.7,1.4l4.8-0.6c-0.5-1-1.1-2-1.8-3.1l0.9-0.6
		c0.5,0.8,1,1.7,1.5,2.5c0.4,0.8,0.9,1.7,1.3,2.7l-1.1,0.6c-0.1-0.2-0.1-0.4-0.2-0.6c-0.1-0.2-0.1-0.4-0.2-0.6l-3,0.5
		c-0.8,0.1-1.5,0.2-2,0.4c-0.5,0.1-1,0.3-1.4,0.4c-0.1-0.5-0.3-1-0.6-1.3c0.2,0,0.3-0.1,0.5-0.1c0.1-0.1,0.3-0.2,0.4-0.4
		c0.1-0.2,0.3-0.4,0.4-0.7c0.1-0.3,0.3-0.7,0.5-1.2c0.2-0.4,0.3-0.8,0.4-1.1s0.2-0.6,0.3-0.9c0.1-0.3,0.2-0.5,0.2-0.7
		C150.7,26.1,150.8,25.9,150.8,25.7z M155.4,21.8c-0.4,0-0.9-0.1-1.4-0.1c-0.6,0-1.2,0-1.9,0c-0.7,0-1.3,0-1.9,0
		c-0.6,0-1.1,0.1-1.4,0.1v-1.2c0.4,0,0.9,0.1,1.4,0.1c0.6,0,1.2,0,1.9,0c0.7,0,1.3,0,1.9,0c0.6,0,1-0.1,1.4-0.1V21.8z M159.8,23.5
		c0,1.6-0.1,3-0.2,4.1c-0.1,1.2-0.3,2.2-0.6,3.1s-0.7,1.7-1.2,2.4c-0.5,0.7-1.1,1.4-1.9,2.1c-0.3-0.3-0.7-0.6-1.2-0.8
		c0.8-0.6,1.5-1.2,2.1-1.8c0.5-0.7,0.9-1.4,1.2-2.3s0.5-1.8,0.6-3c0.1-1.1,0.2-2.4,0.2-3.9c-0.3,0-0.6,0-0.9,0c-0.3,0-0.6,0-0.9,0
		c-0.3,0-0.5,0-0.7,0.1c-0.2,0-0.4,0-0.5,0v-1.2c0.3,0,0.7,0.1,1.2,0.1c0.5,0,1.1,0,1.8,0c0-0.6,0-1.1,0-1.6s0-0.8,0-1.1
		c0-0.3,0-0.5,0-0.7s0-0.3-0.1-0.5c0.2,0.1,0.5,0.1,0.7,0.1c0.2,0,0.5,0,0.7,0c0.2,0,0.3,0,0.3,0.1s0,0.2-0.2,0.3
		c-0.1,0-0.1,0.1-0.2,0.2s-0.1,0.2-0.1,0.5c0,0.2,0,0.5-0.1,0.9c0,0.4,0,0.9,0,1.6c0.8,0,1.6,0,2.3,0c0.7,0,1.1-0.1,1.4-0.1
		l-0.3,9.9c0,0.5-0.1,0.9-0.1,1.2c-0.1,0.3-0.2,0.6-0.5,0.7c-0.2,0.2-0.6,0.3-1,0.4c-0.4,0.1-1,0.2-1.8,0.3c0-0.3-0.1-0.6-0.2-0.8
		c-0.1-0.2-0.2-0.5-0.4-0.7c0.6,0.1,1.1,0.1,1.5,0.1s0.7,0,0.9-0.1s0.3-0.2,0.4-0.5c0.1-0.2,0.1-0.5,0.1-0.9l0.3-8.6H159.8z"/>
</g>
<g>
	<path class="st6" d="M345.1,32.6l-1.1-0.7l3.5-5.3c-0.5,0.2-0.9,0.2-1.3,0.2c-1,0-1.9-0.4-2.6-1.1c-0.7-0.7-1.1-1.7-1.1-2.8
		s0.4-2,1.2-2.8c0.8-0.8,1.7-1.1,2.9-1.1s2.1,0.4,2.8,1.2c0.7,0.8,1.1,1.7,1.1,2.8c0,0.6-0.1,1.2-0.4,1.8c-0.2,0.6-0.6,1.3-1.1,2
		L345.1,32.6z M343.8,23c0,0.8,0.3,1.4,0.8,1.9c0.5,0.5,1.2,0.8,1.9,0.8c0.8,0,1.4-0.3,1.9-0.8c0.5-0.5,0.8-1.2,0.8-1.9
		c0-0.7-0.3-1.4-0.8-1.9c-0.5-0.5-1.2-0.8-1.9-0.8c-0.8,0-1.4,0.3-1.9,0.8C344.1,21.6,343.8,22.3,343.8,23z"/>
	<path class="st6" d="M353.3,23.6c0-0.3,0.1-0.6,0.3-0.8c0.2-0.2,0.5-0.3,0.8-0.3s0.5,0.1,0.8,0.3c0.2,0.2,0.3,0.5,0.3,0.8
		c0,0.3-0.1,0.6-0.3,0.8s-0.5,0.3-0.8,0.3c-0.3,0-0.6-0.1-0.8-0.3S353.3,23.9,353.3,23.6z M353.3,31.5c0-0.3,0.1-0.6,0.3-0.8
		s0.5-0.3,0.8-0.3s0.5,0.1,0.8,0.3c0.2,0.2,0.3,0.5,0.3,0.8c0,0.3-0.1,0.6-0.3,0.8c-0.2,0.2-0.5,0.3-0.8,0.3s-0.5-0.1-0.8-0.3
		C353.4,32,353.3,31.8,353.3,31.5z"/>
	<path class="st6" d="M361.6,32.6c-1.4,0-2.5-0.6-3.2-1.7c-0.8-1.1-1.1-2.8-1.1-5.1c0-2.2,0.4-3.9,1.1-5.1s1.8-1.7,3.2-1.7
		c1.4,0,2.5,0.6,3.3,1.8c0.8,1.2,1.2,2.8,1.2,5c0,2.2-0.4,3.9-1.2,5C364,32,362.9,32.6,361.6,32.6z M361.6,20.3
		c-1,0-1.8,0.5-2.3,1.4c-0.6,1-0.8,2.3-0.8,4.2c0,3.7,1,5.6,3.2,5.6c1,0,1.8-0.5,2.4-1.5s0.9-2.4,0.9-4.1c0-1.8-0.3-3.2-0.9-4.1
		C363.4,20.8,362.6,20.3,361.6,20.3z"/>
	<path class="st6" d="M371.5,32.6c-1.4,0-2.5-0.6-3.2-1.7c-0.8-1.1-1.1-2.8-1.1-5.1c0-2.2,0.4-3.9,1.1-5.1s1.8-1.7,3.2-1.7
		c1.4,0,2.5,0.6,3.3,1.8c0.8,1.2,1.2,2.8,1.2,5c0,2.2-0.4,3.9-1.2,5C374,32,372.9,32.6,371.5,32.6z M371.6,20.3
		c-1,0-1.8,0.5-2.3,1.4c-0.6,1-0.8,2.3-0.8,4.2c0,3.7,1,5.6,3.2,5.6c1,0,1.8-0.5,2.4-1.5s0.9-2.4,0.9-4.1c0-1.8-0.3-3.2-0.9-4.1
		C373.3,20.8,372.6,20.3,371.6,20.3z"/>
	<path class="st6" d="M392.5,18.9l6,13.4h-1.4l-2-4.4h-5.6l-2,4.4H386l6.1-13.4H392.5z M392.3,21.7l-2.2,4.9h4.4L392.3,21.7z"/>
	<path class="st6" d="M399.9,32.3l1.8-12.9h0.2l5.3,10.6l5.2-10.6h0.2l1.9,12.9h-1.3l-1.3-9.3l-4.6,9.3H407l-4.6-9.3l-1.3,9.3H399.9
		z"/>
</g>
<g>
	<path class="st6" d="M641,19.4h2.5v12.9h-1.3V20.6h-2L641,19.4z"/>
	<path class="st6" d="M652.6,32.6c-1.4,0-2.5-0.6-3.2-1.7c-0.8-1.1-1.1-2.8-1.1-5.1c0-2.2,0.4-3.9,1.1-5.1s1.8-1.7,3.2-1.7
		c1.4,0,2.5,0.6,3.3,1.8c0.8,1.2,1.2,2.8,1.2,5c0,2.2-0.4,3.9-1.2,5C655,32,653.9,32.6,652.6,32.6z M652.6,20.3
		c-1,0-1.8,0.5-2.3,1.4c-0.6,1-0.8,2.3-0.8,4.2c0,3.7,1,5.6,3.2,5.6c1,0,1.8-0.5,2.4-1.5s0.9-2.4,0.9-4.1c0-1.8-0.3-3.2-0.9-4.1
		C654.4,20.8,653.6,20.3,652.6,20.3z"/>
	<path class="st6" d="M662.5,32.6c-1.4,0-2.5-0.6-3.2-1.7c-0.8-1.1-1.1-2.8-1.1-5.1c0-2.2,0.4-3.9,1.1-5.1s1.8-1.7,3.2-1.7
		c1.4,0,2.5,0.6,3.3,1.8c0.8,1.2,1.2,2.8,1.2,5c0,2.2-0.4,3.9-1.2,5C665,32,663.9,32.6,662.5,32.6z M662.6,20.3
		c-1,0-1.8,0.5-2.3,1.4c-0.6,1-0.8,2.3-0.8,4.2c0,3.7,1,5.6,3.2,5.6c1,0,1.8-0.5,2.4-1.5s0.9-2.4,0.9-4.1c0-1.8-0.3-3.2-0.9-4.1
		C664.4,20.8,663.6,20.3,662.6,20.3z"/>
	<path class="st6" d="M679.7,18.8l-9.4,14.4h-1.2l8.6-13.1c-0.7,0.2-1.4,0.3-2.1,0.3c-0.7,0-1.3,0.1-1.6,0.1l-0.5,0
		c0.4,0.5,0.5,1,0.5,1.6c0,0.9-0.3,1.6-0.9,2.2c-0.6,0.6-1.3,0.9-2.2,0.9c-0.9,0-1.6-0.3-2.2-0.9c-0.6-0.6-0.9-1.3-0.9-2.2
		s0.3-1.6,0.9-2.2c0.6-0.6,1.3-0.9,2.1-0.9c0.3,0,0.8,0.1,1.4,0.2c0.6,0.1,1.3,0.2,2.2,0.2c1.4,0,2.8-0.2,4.1-0.6H679.7z M673,22.1
		c0-0.5-0.2-1-0.6-1.4c-0.4-0.4-0.8-0.6-1.4-0.6c-0.5,0-1,0.2-1.4,0.6s-0.6,0.8-0.6,1.4c0,0.5,0.2,1,0.6,1.4
		c0.4,0.4,0.8,0.6,1.4,0.6c0.5,0,1-0.2,1.4-0.6C672.8,23.1,673,22.6,673,22.1z M675.1,29.6c0-0.8,0.3-1.5,0.9-2.1
		c0.6-0.6,1.3-0.9,2.1-0.9s1.5,0.3,2.1,0.9c0.6,0.6,0.9,1.3,0.9,2.2s-0.3,1.6-0.9,2.2c-0.6,0.6-1.3,0.9-2.1,0.9s-1.5-0.3-2.1-0.9
		C675.4,31.2,675.1,30.5,675.1,29.6z M680,29.6c0-0.5-0.2-1-0.6-1.4s-0.8-0.6-1.4-0.6s-1,0.2-1.4,0.6s-0.6,0.8-0.6,1.4
		c0,0.5,0.2,1,0.6,1.4c0.4,0.4,0.8,0.6,1.4,0.6s1-0.2,1.4-0.6C679.9,30.6,680,30.2,680,29.6z"/>
</g>
<line class="st7" x1="0" y1="133.4" x2="750" y2="133.4"/>
<path class="st6" d="M62.3,78.6H48.8v-3.9c0-1.4-1-2-2.2-1.2l-7.3,4.7c-1.2,0.8-1.2,2,0,2.8l7.3,4.7c1.2,0.8,2.2,0.2,2.2-1.2v-3.3
	h12.9c7.1,0,11,3.2,11,10.3c0,5.4-2.1,10.3-11,10.3H43.6c0,0,0,0,0,0c0,0,0,0-0.1,0c-0.9,0-1.6,0.7-1.6,1.6c0,0.9,0.7,1.6,1.6,1.6
	c0,0,0,0,0.1,0c0,0,0,0,0,0h18.7c7.1,0,12.9-4.5,12.9-11.6v-3.9C75.2,82.4,69.5,78.6,62.3,78.6L62.3,78.6L62.3,78.6z"/>
<g>
	<path class="st6" d="M335.4,72.5l-1.8,1.8h4.9v2.8h-12.3c0.3,5,0.8,8.9,1.5,11.8c0.2,1,0.5,1.9,0.8,2.8c2-3.2,3.6-7,4.8-11.2
		l2.6,1.1c-1.6,5.3-3.7,9.8-6.2,13.4c0.6,1.3,1.2,2.4,1.8,3.3c1.3,1.9,2.4,2.9,3.2,2.9c0.7,0,1.4-2.1,2-6.2l2.6,1.4
		c-1,5.3-2.3,8-4.1,8c-1.7,0-3.5-1.2-5.4-3.6c-0.7-1-1.4-2.1-2-3.3c-2.8,3.3-6.1,5.7-9.8,7.4l-1.6-2.4c4-1.8,7.4-4.4,10.2-7.9
		c-0.6-1.5-1.1-3.1-1.5-4.8c-0.9-3.4-1.4-7.6-1.8-12.6h-13.7v6.6h9.8c-0.1,6.8-0.4,11.1-0.9,13.1c-0.5,1.7-1.8,2.6-3.8,2.7
		c-1,0-2.1-0.1-3.4-0.2l-0.9-2.6c1.6,0.1,2.9,0.1,4,0.1c0.9,0,1.4-0.6,1.7-1.8c0.2-1.4,0.4-4.2,0.4-8.6h-6.9v1.2
		c-0.2,7.2-1.8,12.9-4.7,17.2l-2.2-2c2.6-3.7,3.9-8.8,4-15.3V74.3H323c-0.1-2-0.1-4-0.1-6.2h3c0,2.2,0,4.3,0.1,6.2h7.5
		c-1.2-1.4-2.8-2.9-4.8-4.5l1.8-1.8C332.4,69.5,334,71,335.4,72.5z"/>
	<path class="st6" d="M348,91c-0.9,3.6-2,6.8-3.4,9.5l-2.4-0.9c1.3-2.4,2.4-5.5,3.4-9.2L348,91z M351,72.3c-0.6-1.4-1.2-2.6-2-3.6
		l3.1-0.5c0.6,1.2,1.2,2.6,1.8,4.1h7.4v2.6H343v-2.6H351z M359.1,78.2v10h-5.7v13.1c0,2.1-1,3.2-3.1,3.2h-3l-0.6-2.6
		c1,0.1,1.8,0.2,2.7,0.2s1.3-0.5,1.3-1.5V88.2h-6v-10H359.1z M356.5,80.7h-9.1v5h9.1V80.7z M360.4,97.7l-2.3,0.9
		c-0.7-2.6-1.6-5.2-2.7-7.6l2.3-0.6C358.9,93,359.8,95.5,360.4,97.7z M372.8,104.2c-2,0-2.9-1.1-2.9-3.2V80.3h-2.2
		c-0.2,10.9-2.7,18.9-7.3,24.1l-2-1.8c4.2-4.7,6.4-12.2,6.6-22.3h-3.9v-2.7h3.9v-9.4h2.7v9.4h10.2v2.7h-5.3v20.2
		c0,0.8,0.4,1.2,1.1,1.2h1.2c0.5,0,0.8-0.3,1-0.9c0.3-0.8,0.5-3,0.6-6.7l2.5,0.8c-0.2,4.5-0.6,7.2-1.2,8.1c-0.6,0.8-1.4,1.3-2.4,1.3
		H372.8z M376.8,74.6l-2.2,1.4c-1-1.8-2.5-3.8-4.4-6l2.2-1.3C374.3,71,375.8,72.9,376.8,74.6z"/>
	<path class="st6" d="M402.2,68v7.2h14.4V94h-2.9v-2.5h-11.5v13.6h-3V91.5h-11.4V94h-2.9V75.2h14.3V68H402.2z M399.2,88.7V78h-11.4
		v10.7H399.2z M413.7,88.7V78h-11.5v10.7H413.7z"/>
	<path class="st6" d="M429.6,81.4c-1.1,6.9-2.7,12.8-4.8,17.8l-2.5-1.6c2.1-5.1,3.6-10.7,4.5-16.8L429.6,81.4z M436.9,103.5
		c-2.8,0-4.2-1.4-4.2-4v-23h2.9v22.4c0,1.2,0.7,1.8,2.2,1.8h7.5c1,0,1.6-0.4,2-1.2c0.5-1,0.8-3.8,1-8.4l2.7,0.9
		c-0.3,5.5-0.9,8.8-1.7,10c-0.8,1-2,1.5-3.6,1.5H436.9z M446.7,78.5l-2.4,1.6c-2.1-3.1-4.9-6.6-8.5-10.4l2.4-1.5
		C441.9,72.2,444.7,75.6,446.7,78.5z M459.3,96.2l-2.6,1.2c-2.1-6.4-4.4-12-6.8-16.9l2.8-0.9C455.1,84.8,457.3,90.3,459.3,96.2z"/>
</g>
</svg>
