<!-- Generator: Adobe Illustrator 21.0.0, SVG Export Plug-In  -->
<svg version="1.1"
	 xmlns="http://www.w3.org/2000/svg" xmlns:xlink="http://www.w3.org/1999/xlink" xmlns:a="http://ns.adobe.com/AdobeSVGViewerExtensions/3.0/"
	 x="0px" y="0px" width="376px" height="50.1px" viewBox="0 0 376 50.1" style="enable-background:new 0 0 376 50.1;"
	 xml:space="preserve">
<style type="text/css">
	.st0{fill:#00E1FF;}
	.st1{fill:#16F2E7;}
	.st2{fill:#00F3FF;}
	.st3{opacity:0.5;}
	.st4{fill:#FFFFFF;}
	.st5{fill:none;stroke:#FFFFFF;stroke-width:2;stroke-linecap:round;stroke-linejoin:round;stroke-miterlimit:10;}
</style>
<defs>
</defs>
<rect width="376" height="50.1"/>
<g>
	<g>
		<path class="st0" d="M142.4,18c-0.1,0-0.2,0-0.3-0.1l-7.4-4.8c-0.2-0.2-0.3-0.5-0.1-0.7c0.2-0.2,0.5-0.3,0.7-0.1l7.4,4.8
			c0.2,0.2,0.3,0.5,0.1,0.7C142.7,17.9,142.5,18,142.4,18z"/>
	</g>
	<g>
		<path class="st0" d="M147.3,28.4h-18.7c-0.3,0-0.5-0.2-0.5-0.5c0-0.3,0.2-0.5,0.5-0.5h18.7c1.7,0,3-1.5,3-3.4V11.4
			c0-1.9-1.4-3.4-3-3.4c-0.3,0-0.5-0.2-0.5-0.5c0-0.3,0.2-0.5,0.5-0.5c2.2,0,4,2,4,4.4v12.6C151.3,26.4,149.5,28.4,147.3,28.4z"/>
	</g>
	<g>
		<path class="st1" d="M128.6,28.4c-2.2,0-4-2-4-4.4V11.4c0-2.5,1.8-4.4,4-4.4h18.7c0.3,0,0.5,0.2,0.5,0.5c0,0.3-0.2,0.5-0.5,0.5
			h-18.7c-1.7,0-3,1.5-3,3.4v12.6c0,1.9,1.4,3.4,3,3.4c0.3,0,0.5,0.2,0.5,0.5C129.1,28.2,128.9,28.4,128.6,28.4z"/>
	</g>
	<g>
		<path class="st1" d="M135,22.2c-0.3,0-0.5-0.2-0.5-0.5v-9c0-0.3,0.2-0.5,0.5-0.5s0.5,0.2,0.5,0.5v9
			C135.5,21.9,135.3,22.2,135,22.2z"/>
	</g>
	<g>
		<path class="st0" d="M135.1,22.1c-0.2,0-0.3-0.1-0.4-0.3c-0.1-0.2,0-0.5,0.2-0.7l7.3-4.1c0.2-0.1,0.5,0,0.7,0.2
			c0.1,0.2,0,0.5-0.2,0.7l-7.3,4.1C135.2,22.1,135.2,22.1,135.1,22.1z"/>
	</g>
</g>
<g>
	<g>
		<path class="st2" d="M131.7,38.2c0-0.3,0.1-0.6,0.1-0.9l0.7,0.1c0,0.3-0.1,0.6-0.1,0.8h3.9v0.7h-4c-0.1,0.3-0.1,0.6-0.2,0.8h2.9
			v5.9h1.5v0.7h-8.9v-0.7h1.4v-5.9h2.3c0.1-0.3,0.1-0.6,0.2-0.8h-3.8v-0.7H131.7z M134.3,41.3v-0.9h-4.6v0.9H134.3z M134.3,42.7
			v-0.8h-4.6v0.8H134.3z M134.3,44.1v-0.9h-4.6v0.9H134.3z M134.3,45.6v-0.9h-4.6v0.9H134.3z"/>
		<path class="st2" d="M142.5,46v0.5h-0.7v-4.1c-0.1,0.1-0.3,0.1-0.4,0.2l-0.3-0.6v0.1c-0.3,0.2-0.5,0.3-0.8,0.4v3
			c0,0.6-0.3,0.8-0.9,0.8h-0.9l-0.2-0.7c0.3,0,0.5,0,0.8,0c0.3,0,0.4-0.1,0.4-0.4v-2.5c-0.4,0.2-0.8,0.3-1.2,0.4l-0.2-0.7
			c0.5-0.1,0.9-0.3,1.3-0.4v-2.3h-1.2v-0.7h1.2v-1.9h0.7v1.9h0.9v0.7h-0.9v2c0.3-0.1,0.6-0.3,0.8-0.4V42c1-0.4,1.7-0.9,2.2-1.5h-1.9
			v-0.6h1.1c-0.1-0.3-0.3-0.6-0.5-0.9l0.6-0.2c0.2,0.3,0.3,0.7,0.5,1.1h0.8v-1.5c-0.7,0-1.5,0.1-2.3,0.1l-0.2-0.6
			c2.1,0,3.9-0.2,5.4-0.5l0.3,0.6c-0.7,0.2-1.6,0.3-2.5,0.4v1.5h0.8c0.2-0.4,0.4-0.9,0.6-1.3l0.6,0.2c-0.2,0.4-0.4,0.8-0.6,1.1h1.2
			v0.6h-2c0.5,0.5,1.3,1,2.3,1.4l-0.3,0.6c-1-0.5-1.9-1.2-2.5-2h-0.1V42H144v-1.4h-0.1c-0.4,0.7-1,1.3-1.8,1.8h4.7v4.2h-0.7V46
			H142.5z M142.5,42.9v1h1.5v-1H142.5z M142.5,44.4v1h1.5v-1H142.5z M146.1,43.9v-1h-1.5v1H146.1z M146.1,45.4v-1h-1.5v1H146.1z"/>
	</g>
</g>
<g class="st3">
	<g>
		<path class="st4" d="M232.8,22.2c0,0-0.1,0-0.1,0c-0.3-0.1-0.4-0.3-0.4-0.6l2.4-11.6c0.1-0.3,0.3-0.4,0.6-0.4
			c0.3,0.1,0.4,0.3,0.4,0.6l-2.4,11.6C233.2,22,233,22.2,232.8,22.2z"/>
	</g>
	<g>
		<path class="st4" d="M240.9,21.7c-0.2,0-0.4-0.2-0.5-0.4l-2.6-11.1c-0.1-0.3,0.1-0.5,0.4-0.6c0.3-0.1,0.5,0.1,0.6,0.4l2.6,11.1
			c0.1,0.3-0.1,0.5-0.4,0.6C241,21.7,241,21.7,240.9,21.7z"/>
	</g>
	<g>
		<path class="st4" d="M223.9,20.2c-0.1,0-0.1,0-0.2,0c-0.3-0.1-0.4-0.4-0.3-0.6l4.7-12c0.1-0.3,0.4-0.4,0.6-0.3
			c0.3,0.1,0.4,0.4,0.3,0.6l-4.7,12C224.3,20.1,224.1,20.2,223.9,20.2z"/>
	</g>
	<g>
		<path class="st4" d="M250,21.3c-0.2,0-0.4-0.1-0.5-0.3l-5.2-13.1c-0.1-0.3,0-0.5,0.3-0.7c0.3-0.1,0.5,0,0.7,0.3l5.2,13.1
			c0.1,0.3,0,0.5-0.3,0.7C250.2,21.2,250.1,21.3,250,21.3z"/>
	</g>
	<g>
		<path class="st4" d="M231.4,27.4c-0.1,0-0.3,0-0.4-0.1c-0.2-0.2-0.2-0.5,0-0.7c0.9-0.9,1.4-2,1.4-3.3c0-1.2-0.5-2.4-1.4-3.3
			s-2-1.4-3.3-1.4s-2.4,0.5-3.3,1.4c-0.2,0.2-0.5,0.2-0.7,0s-0.2-0.5,0-0.7c2.2-2.2,5.8-2.2,7.9,0c1.1,1.1,1.6,2.5,1.6,4
			c0,1.5-0.6,2.9-1.6,4C231.7,27.3,231.5,27.4,231.4,27.4z"/>
	</g>
	<g>
		<path class="st4" d="M227.8,28.9c-1.4,0-2.9-0.5-4-1.6c-1.1-1.1-1.6-2.5-1.6-4c0-1.5,0.6-2.9,1.6-4c0.2-0.2,0.5-0.2,0.7,0
			c0.2,0.2,0.2,0.5,0,0.7c-0.9,0.9-1.4,2-1.4,3.3c0,1.2,0.5,2.4,1.4,3.3s2,1.4,3.3,1.4c1.2,0,2.4-0.5,3.3-1.4c0.2-0.2,0.5-0.2,0.7,0
			s0.2,0.5,0,0.7C230.7,28.3,229.3,28.9,227.8,28.9z"/>
	</g>
	<g>
		<path class="st4" d="M225.3,23.4c-0.3,0-0.5-0.2-0.5-0.5c0-1.5,1.3-2.8,2.8-2.8c0.3,0,0.5,0.2,0.5,0.5c0,0.3-0.2,0.5-0.5,0.5
			c-1,0-1.8,0.8-1.8,1.8C225.8,23.1,225.5,23.4,225.3,23.4z"/>
	</g>
	<g>
		<path class="st4" d="M243,23.4c-0.3,0-0.5-0.2-0.5-0.5c0-1.5,1.3-2.8,2.8-2.8c0.3,0,0.5,0.2,0.5,0.5c0,0.3-0.2,0.5-0.5,0.5
			c-1,0-1.8,0.8-1.8,1.8C243.5,23.1,243.3,23.4,243,23.4z"/>
	</g>
	<g>
		<path class="st4" d="M249.2,27.4c-0.1,0-0.3,0-0.4-0.1c-0.2-0.2-0.2-0.5,0-0.7c1.8-1.8,1.8-4.7,0-6.5c-1.8-1.8-4.7-1.8-6.5,0
			c-0.2,0.2-0.5,0.2-0.7,0s-0.2-0.5,0-0.7c2.2-2.2,5.8-2.2,7.9,0c2.2,2.2,2.2,5.8,0,7.9C249.4,27.3,249.3,27.4,249.2,27.4z"/>
	</g>
	<g>
		<path class="st4" d="M245.6,28.9c-1.4,0-2.9-0.5-4-1.6c-2.2-2.2-2.2-5.8,0-7.9c0.2-0.2,0.5-0.2,0.7,0c0.2,0.2,0.2,0.5,0,0.7
			c-1.8,1.8-1.8,4.7,0,6.5c1.8,1.8,4.7,1.8,6.5,0c0.2-0.2,0.5-0.2,0.7,0s0.2,0.5,0,0.7C248.5,28.3,247,28.9,245.6,28.9z"/>
	</g>
	<g>
		<path class="st4" d="M235.2,10.6c-0.2,0-0.4-0.1-0.5-0.3c-0.5-1.4-1.3-2.2-2.2-2.6c-1.6-0.6-3.3,0.3-3.3,0.3
			c-0.2,0.1-0.5,0-0.7-0.2c-0.1-0.2,0-0.5,0.2-0.7c0.1,0,2.1-1.1,4.1-0.3c1.3,0.5,2.2,1.6,2.8,3.2c0.1,0.3,0,0.5-0.3,0.6
			C235.3,10.5,235.2,10.6,235.2,10.6z"/>
	</g>
	<g>
		<path class="st4" d="M238.3,10.6c-0.1,0-0.1,0-0.2,0c-0.3-0.1-0.4-0.4-0.3-0.6c0.6-1.6,1.6-2.7,2.8-3.2c2-0.8,4.1,0.3,4.1,0.3
			c0.2,0.1,0.3,0.4,0.2,0.7c-0.1,0.2-0.4,0.3-0.7,0.2c0,0-1.7-0.9-3.3-0.3c-1,0.4-1.7,1.3-2.2,2.6C238.7,10.4,238.5,10.6,238.3,10.6
			z"/>
	</g>
	<g>
		<path class="st4" d="M238.3,13.7h-3.1c-0.3,0-0.5-0.2-0.5-0.5s0.2-0.5,0.5-0.5h3.1c0.3,0,0.5,0.2,0.5,0.5S238.6,13.7,238.3,13.7z"
			/>
	</g>
	<g>
		<path class="st4" d="M239.6,17.5h-5.2c-0.3,0-0.5-0.2-0.5-0.5c0-0.3,0.2-0.5,0.5-0.5h5.2c0.3,0,0.5,0.2,0.5,0.5
			C240.1,17.2,239.9,17.5,239.6,17.5z"/>
	</g>
</g>
<g class="st3">
	<path class="st4" d="M233.4,37.5c-0.2,0.7-0.5,1.4-0.9,1.9h2.1v0.7h-3.3v0.5c0,0.5-0.1,1-0.1,1.4h4.1v0.7h-3.6
		c0.5,1.4,1.8,2.4,3.9,3.2l-0.4,0.7c-2.2-0.9-3.6-2.1-4.1-3.6c-0.2,0.6-0.4,1.1-0.8,1.5c-0.7,0.9-1.8,1.6-3.3,2.1l-0.4-0.6
		c1.5-0.5,2.6-1.1,3.2-1.9c0.2-0.4,0.4-0.8,0.6-1.2h-3.6V42h3.8c0.1-0.4,0.1-0.9,0.2-1.4v-0.5h-3.4v-0.7h4.6c0.4-0.6,0.7-1.3,1-2.1
		L233.4,37.5z M230.1,39.1l-0.7,0.3c-0.4-0.6-0.7-1.2-1.2-1.7l0.7-0.3C229.3,37.9,229.7,38.4,230.1,39.1z"/>
	<path class="st4" d="M239.3,41.3l-0.5,0.5c-0.4-0.5-1-1-1.7-1.5l0.5-0.5C238.3,40.3,238.9,40.8,239.3,41.3z M239.6,42.9
		c-0.5,1.3-1,2.5-1.5,3.6l-0.7-0.3c0.6-1.1,1.1-2.3,1.6-3.5L239.6,42.9z M239.7,38.9l-0.5,0.5c-0.4-0.5-1-1-1.8-1.5l0.5-0.5
		C238.6,38,239.2,38.5,239.7,38.9z M242.7,39c-0.2-0.5-0.4-1.1-0.7-1.6l0.7-0.2c0.3,0.6,0.5,1.1,0.7,1.6L243,39h3v0.7h-2.6v2.4h2.3
		v0.7h-2.3v2.6h2.8v0.7h-6.4v-0.7h2.9v-2.6h-2.3v-0.7h2.3v-2.4h-2.6V39H242.7z"/>
</g>
<g class="st3">
	<g>
		<path class="st4" d="M338.4,16.6c-0.1,0-0.3,0-0.4-0.1c-0.2-0.2-0.2-0.5,0-0.7c1.9-1.9,1.9-4.9,0-6.8c-0.9-0.9-2.1-1.4-3.4-1.4
			c0,0,0,0,0,0c-1.3,0-2.5,0.5-3.4,1.4c-0.2,0.2-0.5,0.2-0.7,0c-0.2-0.2-0.2-0.5,0-0.7c2.3-2.3,6-2.2,8.2,0c2.3,2.3,2.2,5.9,0,8.2
			C338.6,16.5,338.5,16.6,338.4,16.6z"/>
	</g>
	<g>
		<path class="st4" d="M334.7,18.1c-1.5,0-3-0.6-4.1-1.7c-2.3-2.3-2.3-5.9,0-8.2c0.2-0.2,0.5-0.2,0.7,0c0.2,0.2,0.2,0.5,0,0.7
			c-1.9,1.9-1.9,4.9,0,6.8c1.9,1.9,4.9,1.9,6.8,0c0.2-0.2,0.5-0.2,0.7,0c0.2,0.2,0.2,0.5,0,0.7C337.7,17.6,336.2,18.1,334.7,18.1z"
			/>
	</g>
	<g>
		<path class="st4" d="M342.3,28.1h-14.3c-0.5,0-1-0.2-1.3-0.6c-0.3-0.4-0.5-0.9-0.4-1.4c0.7-4.3,4.4-7.5,8.8-7.5
			c4.4,0,8.1,3.2,8.8,7.5c0.1,0.5-0.1,1-0.4,1.4C343.2,27.9,342.8,28.1,342.3,28.1z M335.1,19.6c-3.9,0-7.2,2.8-7.9,6.7
			c0,0.2,0,0.4,0.2,0.5c0.1,0.2,0.3,0.3,0.5,0.3h14.3c0.2,0,0.4-0.1,0.5-0.3c0.1-0.2,0.2-0.3,0.2-0.5
			C342.3,22.4,339,19.6,335.1,19.6z"/>
	</g>
</g>
<g class="st3">
	<path class="st4" d="M329.9,37.3c0.8,1.4,2.3,2.6,4.3,3.6l-0.4,0.7c-1.9-1-3.3-2.2-4.2-3.6c-1.1,1.6-2.5,2.8-4.2,3.7l-0.4-0.7
		c1.9-1,3.3-2.2,4.3-3.7H329.9z M330,40.3v6.2h-0.7v-6.2H330z"/>
	<path class="st4" d="M340.7,39.6c0.6,2.7,2,4.8,4.4,6.2l-0.5,0.6c-2-1.3-3.4-3.1-4.1-5.4c-0.6,2.2-2,4-4.3,5.4l-0.4-0.6
		c2.8-1.7,4.2-4,4.3-6.9c0-0.7,0-1.2,0-1.6h0.7C340.7,38.2,340.7,38.9,340.7,39.6z"/>
</g>
<g class="st3">
	<path class="st4" d="M37.6,46.5h-0.7v-0.4h-5.2v0.4H31v-6.2h2.7c0.1-0.3,0.2-0.7,0.2-1h-4v-0.7h2.6c-0.2-0.4-0.3-0.8-0.5-1.1
		l0.7-0.3c0.2,0.4,0.4,0.8,0.6,1.4h2.2c0.2-0.4,0.4-0.9,0.6-1.4l0.7,0.3c-0.2,0.4-0.3,0.8-0.5,1.1h2.6v0.7h-4.1
		c-0.1,0.4-0.1,0.7-0.2,1h3.2V46.5z M36.9,42.1v-1h-5.2v1H36.9z M36.9,43.7v-1h-5.2v1H36.9z M36.9,45.5v-1.1h-5.2v1.1H36.9z"/>
	<path class="st4" d="M48.2,44.2h-0.7v-4h-4.8v4.1H42v-4.8h2.5c0.1-0.4,0.2-0.7,0.2-1.1h-4v-0.7h8.8v0.7h-4
		c-0.1,0.4-0.1,0.8-0.2,1.1h2.9V44.2z M45.5,40.8v1.6c0,1.1-0.4,2-1.1,2.6c-0.6,0.6-1.7,1.1-3.2,1.4l-0.4-0.6c1.5-0.3,2.5-0.7,3-1.3
		c0.5-0.6,0.8-1.3,0.9-2.1v-1.6H45.5z M49.3,45.9l-0.4,0.7c-1.1-0.7-2.3-1.3-3.5-1.7l0.4-0.6C47,44.7,48.2,45.2,49.3,45.9z"/>
</g>
<g class="st3">
	<g>
		<path class="st4" d="M28.1,16.2c-0.2,0-0.3-0.1-0.4-0.2c-0.2-0.2-0.1-0.5,0.1-0.7l11.8-8.6c0.2-0.2,0.5-0.1,0.7,0.1
			c0.2,0.2,0.1,0.5-0.1,0.7l-11.8,8.6C28.3,16.1,28.2,16.2,28.1,16.2z"/>
	</g>
	<g>
		<path class="st4" d="M51.6,16.2c-0.1,0-0.2,0-0.3-0.1L39.6,7.4c-0.2-0.2-0.3-0.5-0.1-0.7c0.2-0.2,0.5-0.3,0.7-0.1l11.8,8.6
			c0.2,0.2,0.3,0.5,0.1,0.7C51.9,16.1,51.8,16.2,51.6,16.2z"/>
	</g>
	<g>
		<path class="st4" d="M34.5,27.9h-4.9c-1.1,0-2-0.9-2-2V15.7c0-0.3,0.2-0.5,0.5-0.5s0.5,0.2,0.5,0.5V26c0,0.5,0.4,1,1,1h4.9
			c0.5,0,1-0.4,1-1v-3c0-0.5,0.2-1,0.6-1.4c0.4-0.4,0.8-0.6,1.4-0.6c0,0,0,0,0,0l6.3,0c0.3,0,0.5,0.2,0.5,0.5s-0.2,0.5-0.5,0.5
			c0,0,0,0,0,0l-6.3,0c0,0,0,0,0,0c-0.2,0-0.5,0.1-0.6,0.3c-0.2,0.2-0.3,0.4-0.3,0.7v3C36.4,27.1,35.5,27.9,34.5,27.9z"/>
	</g>
	<g>
		<path class="st4" d="M50.2,27.9h-4.9c-1.1,0-2-0.9-2-2v-4.4c0-0.3,0.2-0.5,0.5-0.5s0.5,0.2,0.5,0.5V26c0,0.5,0.4,1,1,1h4.9
			c0.5,0,1-0.4,1-1V15.7c0-0.3,0.2-0.5,0.5-0.5s0.5,0.2,0.5,0.5V26C52.1,27.1,51.3,27.9,50.2,27.9z"/>
	</g>
	<g>
		<path class="st5" d="M43.8,21.2"/>
	</g>
</g>
</svg>
