<!-- Generator: Adobe Illustrator 21.0.0, SVG Export Plug-In  -->
<svg version="1.1"
	 xmlns="http://www.w3.org/2000/svg" xmlns:xlink="http://www.w3.org/1999/xlink" xmlns:a="http://ns.adobe.com/AdobeSVGViewerExtensions/3.0/"
	 x="0px" y="0px" width="26.7px" height="39.5px" viewBox="0 0 26.7 39.5" style="enable-background:new 0 0 26.7 39.5;"
	 xml:space="preserve">
<style type="text/css">
	.st0{opacity:0.5;}
	.st1{fill:#FFFFFF;}
</style>
<defs>
</defs>
<g class="st0">
	<g>
		<path class="st1" d="M17.8,11.1c-0.1,0-0.2,0-0.3-0.1l-7.4-4.8C9.9,6,9.8,5.7,10,5.5c0.2-0.2,0.5-0.3,0.7-0.1l7.4,4.8
			c0.2,0.2,0.3,0.5,0.1,0.7C18.1,11,17.9,11.1,17.8,11.1z"/>
	</g>
	<g>
		<path class="st1" d="M22.7,21.4H4c-0.3,0-0.5-0.2-0.5-0.5c0-0.3,0.2-0.5,0.5-0.5h18.6c1.7,0,3-1.5,3-3.4V4.4c0-1.9-1.4-3.4-3-3.4
			c-0.3,0-0.5-0.2-0.5-0.5S22.4,0,22.7,0c2.2,0,4,2,4,4.4V17C26.7,19.4,24.9,21.4,22.7,21.4z"/>
	</g>
	<g>
		<path class="st1" d="M4,21.4c-2.2,0-4-2-4-4.4V4.4C0,2,1.8,0,4,0h18.6c0.3,0,0.5,0.2,0.5,0.5S22.9,1,22.7,1H4C2.4,1,1,2.5,1,4.4
			V17c0,1.9,1.4,3.4,3,3.4c0.3,0,0.5,0.2,0.5,0.5C4.5,21.2,4.3,21.4,4,21.4z"/>
	</g>
	<g>
		<path class="st1" d="M10.4,15.2c-0.3,0-0.5-0.2-0.5-0.5v-9c0-0.3,0.2-0.5,0.5-0.5s0.5,0.2,0.5,0.5v9C10.9,15,10.7,15.2,10.4,15.2z
			"/>
	</g>
	<g>
		<path class="st1" d="M10.5,15.2c-0.2,0-0.3-0.1-0.4-0.3c-0.1-0.2,0-0.5,0.2-0.7l7.3-4.1c0.2-0.1,0.5,0,0.7,0.2
			c0.1,0.2,0,0.5-0.2,0.7l-7.3,4.1C10.6,15.1,10.6,15.2,10.5,15.2z"/>
	</g>
</g>
<g class="st0">
	<path class="st1" d="M7.1,31.2c0-0.3,0.1-0.6,0.1-0.9l0.7,0.1c0,0.3-0.1,0.6-0.1,0.8h3.9v0.7h-4c-0.1,0.3-0.1,0.6-0.2,0.8h2.9v5.8
		h1.5v0.7H3v-0.7h1.4v-5.8h2.3c0.1-0.3,0.1-0.6,0.2-0.8H3.2v-0.7H7.1z M9.7,34.3v-0.9H5.2v0.9H9.7z M9.7,35.7v-0.8H5.2v0.8H9.7z
		 M9.7,37.1v-0.9H5.2v0.9H9.7z M9.7,38.6v-0.9H5.2v0.9H9.7z"/>
	<path class="st1" d="M17.9,39v0.5h-0.7v-4.1c-0.1,0.1-0.3,0.1-0.4,0.2l-0.3-0.6v0.1c-0.3,0.2-0.5,0.3-0.8,0.4v3
		c0,0.6-0.3,0.8-0.9,0.8H14l-0.2-0.7c0.3,0,0.5,0,0.8,0c0.3,0,0.4-0.1,0.4-0.4v-2.5c-0.4,0.2-0.8,0.3-1.2,0.4l-0.2-0.7
		c0.5-0.1,0.9-0.3,1.3-0.4v-2.3h-1.2v-0.7h1.2v-1.9h0.7v1.9h0.9v0.7h-0.9v2c0.3-0.1,0.6-0.3,0.8-0.4V35c1-0.4,1.7-0.9,2.2-1.5h-1.9
		v-0.6h1.1c-0.1-0.3-0.3-0.6-0.5-0.9l0.6-0.2c0.2,0.3,0.3,0.7,0.5,1.1h0.8v-1.5c-0.7,0-1.5,0.1-2.3,0.1l-0.2-0.6
		c2.1,0,3.9-0.2,5.3-0.5l0.3,0.6c-0.7,0.2-1.6,0.3-2.5,0.4v1.5h0.8c0.2-0.4,0.4-0.9,0.6-1.3l0.6,0.2c-0.2,0.4-0.4,0.8-0.6,1.1h1.2
		v0.6h-2c0.5,0.5,1.3,1,2.3,1.4l-0.3,0.6c-1-0.5-1.9-1.2-2.5-2H20V35h-0.7v-1.4h-0.1c-0.4,0.7-1,1.3-1.8,1.8h4.7v4.2h-0.7V39H17.9z
		 M17.9,35.9v1h1.5v-1H17.9z M17.9,37.5v1h1.5v-1H17.9z M21.5,36.9v-1H20v1H21.5z M21.5,38.4v-1H20v1H21.5z"/>
</g>
</svg>
