<!-- Generator: Adobe Illustrator 21.0.0, SVG Export Plug-In  -->
<svg version="1.1"
	 xmlns="http://www.w3.org/2000/svg" xmlns:xlink="http://www.w3.org/1999/xlink" xmlns:a="http://ns.adobe.com/AdobeSVGViewerExtensions/3.0/"
	 x="0px" y="0px" width="376px" height="153.8px" viewBox="0 0 376 153.8" style="enable-background:new 0 0 376 153.8;"
	 xml:space="preserve">
<style type="text/css">
	.st0{clip-path:url(#SVGID_2_);fill:#F2F2F2;}
	.st1{clip-path:url(#SVGID_2_);fill:#B3B3B3;}
	.st2{clip-path:url(#SVGID_2_);fill:#FFFFFF;stroke:#DBDBDB;stroke-miterlimit:10;}
	.st3{clip-path:url(#SVGID_2_);}
	.st4{fill:#4D4D4D;}
	.st5{clip-path:url(#SVGID_4_);fill:#F2F2F2;}
	.st6{clip-path:url(#SVGID_4_);fill:#B3B3B3;}
	.st7{clip-path:url(#SVGID_4_);fill:#FFFFFF;stroke:#DBDBDB;stroke-miterlimit:10;}
	.st8{clip-path:url(#SVGID_4_);}
</style>
<defs>
</defs>
<g>
	<defs>
		<rect id="SVGID_1_" width="376" height="138.6"/>
	</defs>
	<clipPath id="SVGID_2_">
		<use xlink:href="#SVGID_1_"  style="overflow:visible;"/>
	</clipPath>
	<rect class="st0" width="376" height="138.6"/>
	<path class="st1" d="M345.7,18.4l-6.2,6.2c-0.2,0.2-0.5,0.2-0.6,0c-0.2-0.2-0.2-0.5,0-0.6l6.5-6.5c0.1-0.1,0.2-0.1,0.3-0.1
		c0.1,0,0.2,0,0.3,0.1l6.5,6.5c0.2,0.2,0.2,0.5,0,0.6c-0.2,0.2-0.5,0.2-0.6,0L345.7,18.4z"/>
	<path class="st2" d="M141.5,36.3H28.7c-8.2,0-15-6.7-15-15v0c0-8.2,6.7-15,15-15h112.8c8.2,0,15,6.7,15,15v0
		C156.5,29.5,149.8,36.3,141.5,36.3z"/>
	<path class="st2" d="M300.5,36.3H187.7c-8.2,0-15-6.7-15-15v0c0-8.2,6.7-15,15-15h112.8c8.2,0,15,6.7,15,15v0
		C315.5,29.5,308.8,36.3,300.5,36.3z"/>
	<path class="st2" d="M160.5,75.3H29.1c-8.2,0-15-6.7-15-15v0c0-8.2,6.7-15,15-15h131.4c8.2,0,15,6.7,15,15v0
		C175.5,68.5,168.8,75.3,160.5,75.3z"/>
	<path class="st2" d="M115.5,114.3H29.1c-8.2,0-15-6.7-15-15v0c0-8.2,6.7-15,15-15h86.4c8.2,0,15,6.7,15,15v0
		C130.5,107.5,123.8,114.3,115.5,114.3z"/>
	<path class="st2" d="M243.5,114.3h-86.4c-8.2,0-15-6.7-15-15v0c0-8.2,6.7-15,15-15h86.4c8.2,0,15,6.7,15,15v0
		C258.5,107.5,251.8,114.3,243.5,114.3z"/>
	<path class="st2" d="M347.5,75.3h-141c-8.2,0-15-6.7-15-15v0c0-8.2,6.7-15,15-15h141c8.2,0,15,6.7,15,15v0
		C362.5,68.5,355.8,75.3,347.5,75.3z"/>
	<path class="st2" d="M347.5,114.3h-62.4c-8.2,0-15-6.7-15-15v0c0-8.2,6.7-15,15-15h62.4c8.2,0,15,6.7,15,15v0
		C362.5,107.5,355.8,114.3,347.5,114.3z"/>
	<g class="st3">
		<path class="st4" d="M65.5,16.9c0.6,0.6,0.9,1.2,1,2h-1.1c-0.1-0.6-0.4-1-0.8-1.3S63.7,17,63,17c-0.8,0-1.5,0.3-2,0.9
			c-0.5,0.6-0.8,1.5-0.8,2.7c0,1,0.2,1.8,0.7,2.5c0.5,0.6,1.2,0.9,2.1,0.9c0.8,0,1.5-0.3,1.9-1c0.2-0.3,0.4-0.8,0.5-1.4h1.1
			c-0.1,0.9-0.4,1.7-1,2.3c-0.7,0.7-1.6,1.1-2.7,1.1c-1,0-1.8-0.3-2.5-0.9c-0.9-0.8-1.3-2-1.3-3.7c0-1.3,0.3-2.3,1-3.1
			c0.7-0.9,1.7-1.3,3-1.3C64.1,16,64.9,16.3,65.5,16.9z"/>
		<path class="st4" d="M72.5,19.2c0.6,0.5,0.8,1.3,0.8,2.4c0,1-0.2,1.8-0.7,2.5c-0.5,0.7-1.2,1-2.3,1c-0.9,0-1.5-0.3-2-0.9
			c-0.5-0.6-0.8-1.4-0.8-2.3c0-1.1,0.3-1.9,0.8-2.5c0.5-0.6,1.2-0.9,2.1-0.9C71.3,18.4,72,18.7,72.5,19.2z M71.9,23.4
			c0.3-0.5,0.4-1.1,0.4-1.8c0-0.6-0.1-1.1-0.3-1.4c-0.3-0.6-0.8-0.9-1.5-0.9c-0.6,0-1.1,0.2-1.4,0.7c-0.3,0.5-0.4,1.1-0.4,1.8
			c0,0.7,0.1,1.2,0.4,1.7s0.7,0.7,1.4,0.7C71.1,24.2,71.6,23.9,71.9,23.4z"/>
		<path class="st4" d="M78,21.1c0.2,0,0.4-0.1,0.5-0.3c0-0.1,0.1-0.2,0.1-0.4c0-0.4-0.1-0.6-0.4-0.8c-0.3-0.2-0.6-0.2-1.1-0.2
			c-0.5,0-0.9,0.1-1.2,0.4c-0.1,0.2-0.2,0.4-0.3,0.7h-1c0-0.8,0.3-1.3,0.8-1.6c0.5-0.3,1-0.5,1.7-0.5c0.7,0,1.3,0.1,1.8,0.4
			c0.5,0.3,0.7,0.7,0.7,1.3v3.6c0,0.1,0,0.2,0.1,0.3c0,0.1,0.1,0.1,0.3,0.1c0,0,0.1,0,0.2,0c0.1,0,0.1,0,0.2,0v0.8
			c-0.2,0-0.3,0.1-0.4,0.1c-0.1,0-0.2,0-0.4,0c-0.4,0-0.6-0.1-0.8-0.4c-0.1-0.1-0.1-0.3-0.2-0.6c-0.2,0.3-0.5,0.5-0.9,0.7
			s-0.8,0.3-1.3,0.3c-0.6,0-1.1-0.2-1.4-0.5s-0.6-0.8-0.6-1.3c0-0.6,0.2-1,0.5-1.4c0.4-0.3,0.8-0.5,1.4-0.6L78,21.1z M75.8,23.9
			c0.2,0.2,0.5,0.3,0.8,0.3c0.4,0,0.7-0.1,1.1-0.3c0.6-0.3,0.9-0.8,0.9-1.4v-0.8c-0.1,0.1-0.3,0.2-0.5,0.2c-0.2,0.1-0.4,0.1-0.6,0.1
			l-0.6,0.1c-0.4,0.1-0.7,0.1-0.9,0.2c-0.3,0.2-0.5,0.5-0.5,0.9C75.4,23.5,75.6,23.7,75.8,23.9z"/>
		<path class="st4" d="M85.4,18.9c0.4,0.3,0.7,0.9,0.8,1.8h-1c-0.1-0.4-0.2-0.7-0.4-1c-0.2-0.3-0.6-0.4-1.1-0.4
			c-0.7,0-1.2,0.3-1.4,1c-0.2,0.4-0.3,0.9-0.3,1.6c0,0.6,0.1,1.2,0.4,1.6c0.3,0.4,0.7,0.6,1.3,0.6c0.4,0,0.8-0.1,1-0.4
			c0.3-0.3,0.4-0.6,0.5-1.1h1c-0.1,0.8-0.4,1.4-0.9,1.8S84.3,25,83.6,25c-0.8,0-1.5-0.3-2-0.9c-0.5-0.6-0.7-1.3-0.7-2.2
			c0-1.1,0.3-2,0.8-2.6c0.5-0.6,1.2-0.9,2-0.9C84.4,18.4,85,18.6,85.4,18.9z"/>
		<path class="st4" d="M87.3,16.2h1.1v3.2c0.2-0.3,0.5-0.5,0.7-0.7c0.3-0.2,0.8-0.3,1.3-0.3c0.9,0,1.5,0.3,1.9,1
			c0.2,0.3,0.3,0.8,0.3,1.4v4h-1.1v-4c0-0.5-0.1-0.8-0.2-1c-0.2-0.3-0.6-0.5-1.1-0.5c-0.4,0-0.8,0.2-1.2,0.5
			c-0.4,0.3-0.5,0.9-0.5,1.7v3.3h-1.1V16.2z"/>
		<path class="st4" d="M97.8,18.7c0.4,0.2,0.7,0.5,0.9,0.8c0.2,0.3,0.3,0.7,0.4,1.1c0.1,0.3,0.1,0.7,0.1,1.4h-4.6
			c0,0.6,0.2,1.2,0.4,1.5c0.3,0.4,0.7,0.6,1.3,0.6c0.5,0,1-0.2,1.3-0.5c0.2-0.2,0.3-0.5,0.4-0.7h1c0,0.2-0.1,0.5-0.3,0.8
			c-0.2,0.3-0.3,0.5-0.5,0.7c-0.3,0.3-0.7,0.5-1.2,0.6c-0.3,0.1-0.5,0.1-0.9,0.1c-0.8,0-1.4-0.3-2-0.9c-0.5-0.6-0.8-1.4-0.8-2.4
			c0-1,0.3-1.8,0.8-2.5c0.5-0.6,1.3-0.9,2.1-0.9C97,18.4,97.4,18.5,97.8,18.7z M98.2,21.2c0-0.5-0.1-0.8-0.3-1.1
			c-0.3-0.5-0.8-0.8-1.4-0.8c-0.5,0-0.9,0.2-1.2,0.5c-0.3,0.3-0.5,0.8-0.5,1.3H98.2z"/>
		<path class="st4" d="M100.7,16.2h1.1v8.6h-1.1V16.2z"/>
		<path class="st4" d="M103.3,16.2h1.1v8.6h-1.1V16.2z"/>
		<path class="st4" d="M109.3,21.1c0.2,0,0.4-0.1,0.5-0.3c0-0.1,0.1-0.2,0.1-0.4c0-0.4-0.1-0.6-0.4-0.8c-0.3-0.2-0.6-0.2-1.1-0.2
			c-0.5,0-0.9,0.1-1.2,0.4c-0.1,0.2-0.2,0.4-0.3,0.7h-1c0-0.8,0.3-1.3,0.8-1.6c0.5-0.3,1-0.5,1.7-0.5c0.7,0,1.3,0.1,1.8,0.4
			c0.5,0.3,0.7,0.7,0.7,1.3v3.6c0,0.1,0,0.2,0.1,0.3c0,0.1,0.1,0.1,0.3,0.1c0,0,0.1,0,0.2,0s0.1,0,0.2,0v0.8c-0.2,0-0.3,0.1-0.4,0.1
			c-0.1,0-0.2,0-0.4,0c-0.4,0-0.6-0.1-0.8-0.4c-0.1-0.1-0.1-0.3-0.2-0.6c-0.2,0.3-0.5,0.5-0.9,0.7s-0.8,0.3-1.3,0.3
			c-0.6,0-1.1-0.2-1.4-0.5s-0.6-0.8-0.6-1.3c0-0.6,0.2-1,0.5-1.4c0.4-0.3,0.8-0.5,1.4-0.6L109.3,21.1z M107.1,23.9
			c0.2,0.2,0.5,0.3,0.8,0.3c0.4,0,0.7-0.1,1.1-0.3c0.6-0.3,0.9-0.8,0.9-1.4v-0.8c-0.1,0.1-0.3,0.2-0.5,0.2c-0.2,0.1-0.4,0.1-0.6,0.1
			l-0.6,0.1c-0.4,0.1-0.7,0.1-0.9,0.2c-0.3,0.2-0.5,0.5-0.5,0.9C106.8,23.5,106.9,23.7,107.1,23.9z"/>
	</g>
	<g class="st3">
		<g>
			<path class="st4" d="M216.4,16.7l1.6,7l1.9-7h1.3l1.9,7l1.6-7h1.3l-2.3,8.6h-1.2l-2-7.1l-2,7.1h-1.2l-2.2-8.6H216.4z"/>
			<path class="st4" d="M231.4,19.7c0.6,0.5,0.8,1.3,0.8,2.4c0,1-0.2,1.8-0.7,2.5c-0.5,0.7-1.2,1-2.3,1c-0.9,0-1.5-0.3-2-0.9
				c-0.5-0.6-0.8-1.4-0.8-2.3c0-1.1,0.3-1.9,0.8-2.5c0.5-0.6,1.2-0.9,2.1-0.9C230.2,18.9,230.8,19.2,231.4,19.7z M230.7,23.9
				c0.3-0.5,0.4-1.1,0.4-1.8c0-0.6-0.1-1.1-0.3-1.4c-0.3-0.6-0.8-0.9-1.5-0.9c-0.6,0-1.1,0.2-1.4,0.7c-0.3,0.5-0.4,1.1-0.4,1.8
				c0,0.7,0.1,1.2,0.4,1.7c0.3,0.4,0.7,0.7,1.4,0.7C230,24.7,230.5,24.4,230.7,23.9z"/>
			<path class="st4" d="M238.1,19.7c0.6,0.5,0.8,1.3,0.8,2.4c0,1-0.2,1.8-0.7,2.5c-0.5,0.7-1.2,1-2.3,1c-0.9,0-1.5-0.3-2-0.9
				c-0.5-0.6-0.8-1.4-0.8-2.3c0-1.1,0.3-1.9,0.8-2.5c0.5-0.6,1.2-0.9,2.1-0.9C236.8,18.9,237.5,19.2,238.1,19.7z M237.4,23.9
				c0.3-0.5,0.4-1.1,0.4-1.8c0-0.6-0.1-1.1-0.3-1.4c-0.3-0.6-0.8-0.9-1.5-0.9c-0.6,0-1.1,0.2-1.4,0.7s-0.4,1.1-0.4,1.8
				c0,0.7,0.1,1.2,0.4,1.7s0.7,0.7,1.4,0.7C236.7,24.7,237.1,24.4,237.4,23.9z"/>
			<path class="st4" d="M243.6,19.3c0.2,0.1,0.4,0.3,0.6,0.6v-3.2h1v8.6h-0.9v-0.9c-0.2,0.4-0.5,0.7-0.9,0.8
				c-0.3,0.2-0.7,0.3-1.1,0.3c-0.7,0-1.3-0.3-1.8-0.9c-0.5-0.6-0.8-1.4-0.8-2.3c0-0.9,0.2-1.7,0.7-2.4c0.5-0.7,1.1-1,2-1
				C242.9,19,243.3,19.1,243.6,19.3z M241.3,24c0.3,0.5,0.7,0.7,1.4,0.7c0.5,0,0.9-0.2,1.2-0.6c0.3-0.4,0.5-1,0.5-1.8
				c0-0.8-0.2-1.4-0.5-1.8c-0.3-0.4-0.7-0.6-1.2-0.6c-0.5,0-1,0.2-1.3,0.6c-0.3,0.4-0.5,1-0.5,1.8C240.8,23,241,23.5,241.3,24z"/>
			<path class="st4" d="M247.5,23.4c0,0.4,0.1,0.6,0.3,0.8c0.3,0.3,0.7,0.5,1.4,0.5c0.4,0,0.7-0.1,1.1-0.3c0.3-0.2,0.5-0.4,0.5-0.8
				c0-0.3-0.1-0.5-0.4-0.6c-0.2-0.1-0.5-0.2-0.9-0.3l-0.9-0.2c-0.5-0.1-0.9-0.3-1.2-0.4c-0.5-0.3-0.7-0.7-0.7-1.2
				c0-0.6,0.2-1.1,0.6-1.4c0.4-0.4,1-0.6,1.7-0.6c1,0,1.6,0.3,2.1,0.8c0.3,0.4,0.4,0.7,0.4,1.1h-1c0-0.2-0.1-0.5-0.3-0.6
				c-0.2-0.3-0.7-0.4-1.3-0.4c-0.4,0-0.7,0.1-0.9,0.2s-0.3,0.4-0.3,0.6c0,0.3,0.1,0.5,0.4,0.7c0.2,0.1,0.4,0.2,0.7,0.3l0.7,0.2
				c0.8,0.2,1.3,0.4,1.6,0.5c0.4,0.3,0.6,0.7,0.6,1.3c0,0.6-0.2,1-0.6,1.4c-0.4,0.4-1.1,0.6-2,0.6c-0.9,0-1.6-0.2-2-0.6
				c-0.4-0.4-0.6-0.9-0.6-1.6H247.5z"/>
			<path class="st4" d="M253.1,17.3h1.1v1.8h1v0.9h-1V24c0,0.2,0.1,0.4,0.2,0.4c0.1,0,0.2,0.1,0.4,0.1c0.1,0,0.1,0,0.2,0
				c0.1,0,0.1,0,0.2,0v0.8c-0.1,0-0.2,0.1-0.4,0.1c-0.1,0-0.3,0-0.4,0c-0.5,0-0.8-0.1-1-0.4c-0.2-0.3-0.3-0.6-0.3-1v-4.2h-0.8v-0.9
				h0.8V17.3z"/>
			<path class="st4" d="M260.7,19.7c0.6,0.5,0.8,1.3,0.8,2.4c0,1-0.2,1.8-0.7,2.5c-0.5,0.7-1.2,1-2.3,1c-0.9,0-1.5-0.3-2-0.9
				c-0.5-0.6-0.8-1.4-0.8-2.3c0-1.1,0.3-1.9,0.8-2.5c0.5-0.6,1.2-0.9,2.1-0.9C259.5,18.9,260.2,19.2,260.7,19.7z M260.1,23.9
				c0.3-0.5,0.4-1.1,0.4-1.8c0-0.6-0.1-1.1-0.3-1.4c-0.3-0.6-0.8-0.9-1.5-0.9c-0.6,0-1.1,0.2-1.4,0.7c-0.3,0.5-0.4,1.1-0.4,1.8
				c0,0.7,0.1,1.2,0.4,1.7c0.3,0.4,0.7,0.7,1.4,0.7C259.3,24.7,259.8,24.4,260.1,23.9z"/>
			<path class="st4" d="M267,19.4c0.4,0.3,0.7,0.9,0.8,1.8h-1c-0.1-0.4-0.2-0.7-0.4-1s-0.6-0.4-1.1-0.4c-0.7,0-1.2,0.3-1.4,1
				c-0.2,0.4-0.3,0.9-0.3,1.6c0,0.6,0.1,1.2,0.4,1.6c0.3,0.4,0.7,0.6,1.3,0.6c0.4,0,0.8-0.1,1-0.4c0.3-0.3,0.4-0.6,0.5-1.1h1
				c-0.1,0.8-0.4,1.4-0.9,1.8c-0.5,0.4-1.1,0.6-1.8,0.6c-0.8,0-1.5-0.3-2-0.9c-0.5-0.6-0.7-1.3-0.7-2.2c0-1.1,0.3-2,0.8-2.6
				s1.2-0.9,2-0.9C266,18.9,266.5,19.1,267,19.4z"/>
			<path class="st4" d="M268.8,16.7h1v5l2.7-2.7h1.3l-2.4,2.3l2.5,3.9h-1.3l-2-3.2l-0.9,0.8v2.4h-1V16.7z"/>
		</g>
	</g>
	<g class="st3">
		<path class="st4" d="M47.4,56.6l1.9,7.2h0l2-7.2h1.1l1.9,7.2h0l1.9-7.2h1.1l-2.5,8.6h-1.1L51.8,58h0l-2,7.1h-1.1l-2.5-8.6H47.4z"
			/>
		<path class="st4" d="M62.8,59.4c0.4,0.4,0.6,1,0.6,1.7v4h-0.9v-1c-0.2,0.3-0.6,0.6-0.9,0.8c-0.5,0.3-1,0.4-1.5,0.4
			c-0.6,0-1.1-0.2-1.5-0.5c-0.4-0.3-0.6-0.7-0.6-1.2c0-0.7,0.3-1.2,0.9-1.6c0.5-0.3,1.2-0.5,2.2-0.5l1.5,0v-0.3c0-1-0.5-1.6-1.6-1.6
			c-0.5,0-0.8,0.1-1.1,0.3c-0.3,0.2-0.5,0.5-0.6,0.9l-0.9-0.1c0.1-0.6,0.5-1.1,1-1.5c0.5-0.3,1-0.4,1.8-0.4
			C61.7,58.7,62.4,59,62.8,59.4z M61,62.2c-1.4,0-2.1,0.5-2.1,1.4c0,0.3,0.1,0.5,0.3,0.7c0.2,0.2,0.6,0.3,0.9,0.3
			c0.6,0,1.1-0.2,1.6-0.6c0.4-0.4,0.7-0.8,0.7-1.3v-0.5L61,62.2z"/>
		<path class="st4" d="M69.4,59.3c0.5,0.4,0.8,0.9,0.9,1.7h-0.9c-0.1-0.5-0.3-0.8-0.6-1.1c-0.3-0.2-0.7-0.3-1.2-0.3
			c-0.6,0-1.1,0.2-1.4,0.7c-0.3,0.4-0.5,1-0.5,1.8c0,0.8,0.2,1.4,0.5,1.8c0.3,0.4,0.8,0.7,1.4,0.7c1.1,0,1.7-0.5,1.8-1.6h1
			c-0.1,0.8-0.4,1.4-0.9,1.8c-0.5,0.4-1.1,0.6-1.8,0.6c-0.9,0-1.7-0.3-2.2-0.9c-0.5-0.6-0.7-1.4-0.7-2.3s0.2-1.7,0.7-2.3
			c0.5-0.7,1.3-1,2.2-1C68.3,58.7,68.9,58.9,69.4,59.3z"/>
		<path class="st4" d="M72.4,56.4v5.4l3.1-2.9h1.3L74,61.4l3,3.7h-1.2L73.4,62l-1,0.9v2.2h-1v-8.7H72.4z"/>
		<path class="st4" d="M82.6,59.8c0.5,0.6,0.7,1.5,0.7,2.5h-4.9c0,0.7,0.2,1.2,0.6,1.6c0.3,0.4,0.8,0.6,1.4,0.6
			c0.5,0,0.9-0.1,1.2-0.4c0.3-0.2,0.5-0.5,0.6-1h1c-0.1,0.6-0.4,1.1-0.8,1.5c-0.5,0.5-1.2,0.7-2,0.7c-0.9,0-1.6-0.3-2.1-0.9
			c-0.6-0.6-0.8-1.4-0.8-2.4c0-0.9,0.3-1.7,0.8-2.3c0.5-0.6,1.2-1,2.1-1C81.3,58.7,82.1,59.1,82.6,59.8z M79,60.1
			c-0.3,0.4-0.5,0.8-0.6,1.5h3.9c-0.1-1.3-0.8-2-2-2C79.8,59.5,79.3,59.7,79,60.1z"/>
		<path class="st4" d="M89.6,61.3v3.8h-1v-3.7c0-1.2-0.6-1.8-1.6-1.8c-0.4,0-0.8,0.2-1.1,0.5c-0.3,0.3-0.5,0.8-0.6,1.3v3.7h-1v-6.2
			h1v0.9c0.2-0.3,0.5-0.6,0.8-0.8c0.3-0.2,0.7-0.3,1.1-0.3C88.9,58.7,89.6,59.6,89.6,61.3z"/>
		<path class="st4" d="M102,57.7c0.7,0.8,1.1,1.9,1.1,3.2c0,1.3-0.4,2.3-1.1,3.2c-0.7,0.9-1.8,1.3-3,1.3c-1.3,0-2.3-0.4-3-1.3
			c-0.7-0.8-1.1-1.9-1.1-3.2c0-1.3,0.3-2.4,1.1-3.2c0.7-0.9,1.8-1.3,3-1.3C100.3,56.4,101.3,56.8,102,57.7z M96.7,58.3
			c-0.5,0.6-0.8,1.5-0.8,2.6c0,1.1,0.3,1.9,0.8,2.6c0.6,0.7,1.3,1,2.3,1c1,0,1.8-0.3,2.3-1c0.5-0.6,0.8-1.5,0.8-2.6
			c0-1.1-0.3-2-0.8-2.6c-0.6-0.7-1.3-1-2.3-1S97.2,57.6,96.7,58.3z"/>
		<path class="st4" d="M109.4,59.7c0.5,0.6,0.7,1.4,0.7,2.3c0,0.9-0.2,1.7-0.7,2.3c-0.5,0.6-1.2,1-2.1,1s-1.6-0.4-2.1-1.3v3.5h-1
			v-8.6h0.9v1c0.4-0.8,1.1-1.2,2.1-1.2C108.2,58.7,108.9,59.1,109.4,59.7z M105.7,60.3c-0.3,0.4-0.5,1-0.5,1.7v0.1
			c0,0.7,0.2,1.3,0.5,1.7c0.3,0.4,0.8,0.7,1.4,0.7c0.7,0,1.2-0.2,1.5-0.7c0.3-0.4,0.5-1,0.5-1.8c0-0.7-0.2-1.3-0.4-1.8
			c-0.3-0.5-0.9-0.7-1.5-0.7C106.6,59.5,106.1,59.8,105.7,60.3z"/>
		<path class="st4" d="M116.2,59.8c0.5,0.6,0.7,1.5,0.7,2.5H112c0,0.7,0.2,1.2,0.6,1.6c0.3,0.4,0.8,0.6,1.4,0.6
			c0.5,0,0.9-0.1,1.2-0.4c0.3-0.2,0.5-0.5,0.6-1h1c-0.1,0.6-0.4,1.1-0.8,1.5c-0.5,0.5-1.2,0.7-2,0.7c-0.9,0-1.6-0.3-2.1-0.9
			c-0.6-0.6-0.8-1.4-0.8-2.4c0-0.9,0.3-1.7,0.8-2.3c0.5-0.6,1.2-1,2.1-1C114.9,58.7,115.7,59.1,116.2,59.8z M112.6,60.1
			c-0.3,0.4-0.5,0.8-0.6,1.5h3.9c-0.1-1.3-0.8-2-2-2C113.4,59.5,112.9,59.7,112.6,60.1z"/>
		<path class="st4" d="M123.2,61.3v3.8h-1v-3.7c0-1.2-0.6-1.8-1.6-1.8c-0.4,0-0.8,0.2-1.1,0.5c-0.3,0.3-0.5,0.8-0.6,1.3v3.7h-1v-6.2
			h1v0.9c0.2-0.3,0.5-0.6,0.8-0.8c0.3-0.2,0.7-0.3,1.1-0.3C122.5,58.7,123.2,59.6,123.2,61.3z"/>
		<path class="st4" d="M132.5,56.6l3.4,8.6h-1.1l-0.9-2.4H130l-0.9,2.4H128l3.4-8.6H132.5z M133.6,61.9l-1.6-4.3h0l-1.6,4.3H133.6z"
			/>
		<path class="st4" d="M137.9,56.8c0.1,0.1,0.2,0.3,0.2,0.5c0,0.2-0.1,0.4-0.2,0.5c-0.1,0.1-0.3,0.2-0.5,0.2s-0.4-0.1-0.5-0.2
			c-0.1-0.1-0.2-0.3-0.2-0.5c0-0.2,0.1-0.4,0.2-0.5c0.1-0.1,0.3-0.2,0.5-0.2S137.8,56.6,137.9,56.8z M137.9,58.9v6.2h-1v-6.2H137.9z
			"/>
		<path class="st4" d="M143.3,58.9v1c-0.3-0.1-0.6-0.1-0.9-0.1c-0.5,0-0.9,0.2-1.2,0.6c-0.3,0.4-0.5,0.9-0.5,1.5v3.3h-0.9v-6.2h0.9
			V60c0.2-0.4,0.4-0.6,0.6-0.9c0.3-0.3,0.7-0.4,1.1-0.4C142.7,58.7,143,58.8,143.3,58.9z"/>
	</g>
	<g class="st3">
		<path class="st4" d="M251.3,57.2c0.6,0.5,1,1.2,1.1,2.1h-1c-0.1-0.6-0.4-1.1-0.9-1.5c-0.5-0.4-1.1-0.6-1.8-0.6
			c-0.9,0-1.7,0.3-2.2,1c-0.6,0.6-0.8,1.5-0.8,2.6c0,1.1,0.3,1.9,0.8,2.6c0.6,0.7,1.4,1,2.5,1c0.5,0,0.9-0.1,1.3-0.2
			c0.4-0.1,0.8-0.3,1.1-0.5v-2.2h-2.7v-0.9h3.7v3.5c-0.4,0.3-0.9,0.6-1.5,0.8c-0.6,0.2-1.3,0.3-2,0.3c-1.4,0-2.4-0.4-3.2-1.3
			c-0.7-0.8-1-1.8-1-3.1c0-1.3,0.3-2.3,1-3.1c0.7-0.9,1.7-1.3,3-1.3C249.8,56.4,250.7,56.6,251.3,57.2z"/>
		<path class="st4" d="M255.1,56.4v8.7h-0.9v-8.7H255.1z"/>
		<path class="st4" d="M261.4,59.4c0.4,0.4,0.6,1,0.6,1.7v4h-0.9v-1c-0.2,0.3-0.6,0.6-0.9,0.8c-0.5,0.3-1,0.4-1.5,0.4
			c-0.6,0-1.1-0.2-1.5-0.5c-0.4-0.3-0.6-0.7-0.6-1.2c0-0.7,0.3-1.2,0.9-1.6c0.5-0.3,1.2-0.5,2.2-0.5l1.5,0v-0.3c0-1-0.5-1.6-1.6-1.6
			c-0.5,0-0.8,0.1-1.1,0.3c-0.3,0.2-0.5,0.5-0.6,0.9l-0.9-0.1c0.1-0.6,0.5-1.1,1-1.5c0.5-0.3,1-0.4,1.8-0.4
			C260.4,58.7,261,59,261.4,59.4z M259.6,62.2c-1.4,0-2.1,0.5-2.1,1.4c0,0.3,0.1,0.5,0.3,0.7c0.2,0.2,0.6,0.3,0.9,0.3
			c0.6,0,1.1-0.2,1.6-0.6c0.4-0.4,0.7-0.8,0.7-1.3v-0.5L259.6,62.2z"/>
		<path class="st4" d="M268.2,60.7h-0.9c-0.1-0.4-0.2-0.7-0.5-0.8c-0.3-0.2-0.6-0.3-1.1-0.3c-0.4,0-0.8,0.1-1,0.2
			c-0.3,0.2-0.4,0.4-0.4,0.6c0,0.3,0.2,0.5,0.5,0.7c0.2,0.1,0.7,0.2,1.3,0.4c0.7,0.2,1.3,0.4,1.6,0.6c0.5,0.3,0.7,0.7,0.7,1.3
			c0,1.3-0.9,1.9-2.6,1.9c-1.6,0-2.5-0.7-2.7-2.1h0.9c0.1,0.5,0.3,0.8,0.5,1.1c0.3,0.2,0.7,0.3,1.2,0.3c1.1,0,1.7-0.4,1.7-1.1
			c0-0.3-0.2-0.6-0.6-0.8c-0.2-0.1-0.6-0.2-1.3-0.4c-0.7-0.2-1.2-0.4-1.5-0.6c-0.5-0.3-0.7-0.7-0.7-1.2s0.2-0.9,0.7-1.2
			c0.4-0.3,1-0.5,1.7-0.5C267.2,58.7,268.1,59.4,268.2,60.7z"/>
		<path class="st4" d="M271.2,58.9h1.5v0.8h-1.5v3.9c0,0.2,0,0.4,0.1,0.5c0.1,0.1,0.2,0.2,0.5,0.2h0.8v0.8h-0.9
			c-0.5,0-0.9-0.1-1.1-0.4c-0.2-0.2-0.3-0.6-0.3-1.1v-3.9H269v-0.8h1.2v-1.6l0.9-0.4V58.9z"/>
		<path class="st4" d="M278.8,59.7c0.5,0.6,0.8,1.4,0.8,2.3c0,0.9-0.3,1.7-0.8,2.3c-0.6,0.6-1.3,1-2.2,1c-0.9,0-1.7-0.3-2.2-1
			c-0.5-0.6-0.8-1.4-0.8-2.3c0-0.9,0.3-1.7,0.8-2.3c0.6-0.6,1.3-1,2.2-1C277.5,58.7,278.2,59.1,278.8,59.7z M275,60.3
			c-0.3,0.5-0.5,1-0.5,1.7c0,0.7,0.2,1.2,0.5,1.7c0.4,0.5,0.9,0.8,1.5,0.8c0.6,0,1.2-0.3,1.5-0.8c0.3-0.5,0.5-1,0.5-1.7
			c0-0.7-0.2-1.3-0.5-1.7c-0.4-0.5-0.9-0.8-1.5-0.8C275.9,59.5,275.4,59.8,275,60.3z"/>
		<path class="st4" d="M286.1,61.3v3.8h-1v-3.7c0-1.2-0.6-1.8-1.6-1.8c-0.4,0-0.8,0.2-1.1,0.5c-0.3,0.3-0.5,0.8-0.6,1.3v3.7h-1v-6.2
			h1v0.9c0.2-0.3,0.5-0.6,0.8-0.8c0.3-0.2,0.7-0.3,1.1-0.3C285.3,58.7,286.1,59.6,286.1,61.3z"/>
		<path class="st4" d="M288.5,56.4v3.7c0.5-0.9,1.2-1.3,2.1-1.3c0.9,0,1.6,0.3,2.1,1c0.5,0.6,0.7,1.3,0.7,2.3c0,0.9-0.2,1.7-0.7,2.3
			c-0.5,0.6-1.2,1-2.1,1c-1,0-1.6-0.4-2.1-1.2v1h-0.9v-8.7H288.5z M289,60.2c-0.4,0.4-0.5,1-0.5,1.8v0.1c0,0.7,0.2,1.3,0.5,1.7
			c0.3,0.5,0.8,0.7,1.5,0.7c0.7,0,1.2-0.3,1.5-0.7c0.3-0.4,0.4-1,0.4-1.8c0-0.7-0.2-1.3-0.5-1.7c-0.3-0.5-0.9-0.7-1.5-0.7
			C289.8,59.5,289.3,59.8,289,60.2z"/>
		<path class="st4" d="M295.5,58.9v3.8c0,0.6,0.1,1,0.4,1.3c0.3,0.3,0.7,0.4,1.2,0.4c0.4,0,0.8-0.2,1.1-0.5c0.3-0.3,0.5-0.8,0.6-1.3
			v-3.8h1v6.2h-1v-1c-0.5,0.7-1.2,1.1-2,1.1c-1.5,0-2.3-0.9-2.3-2.5v-3.8H295.5z"/>
		<path class="st4" d="M304.9,58.9v1c-0.3-0.1-0.6-0.1-0.9-0.1c-0.5,0-0.9,0.2-1.2,0.6c-0.3,0.4-0.5,0.9-0.5,1.5v3.3h-0.9v-6.2h0.9
			V60c0.2-0.4,0.4-0.6,0.6-0.9c0.3-0.3,0.7-0.4,1.1-0.4C304.4,58.7,304.6,58.8,304.9,58.9z"/>
		<path class="st4" d="M306,58.9l1.9,4.9l1.8-4.9h1.1l-3.4,8.6h-1l1.1-2.5l-2.5-6.1H306z"/>
	</g>
	<g class="st3">
		<path class="st4" d="M50.9,94.6c0.8,0,1.4,0.2,1.9,0.6c0.5,0.4,0.7,0.9,0.7,1.6c0,0.5-0.1,0.9-0.4,1.2c-0.3,0.3-0.6,0.5-1,0.7
			c0.6,0.1,1,0.3,1.3,0.7c0.3,0.4,0.5,0.8,0.5,1.4c0,0.8-0.3,1.5-0.9,1.9c-0.5,0.3-1.2,0.5-2.1,0.5h-3.8v-8.6H50.9z M48.1,98.3h2.6
			c0.6,0,1.1-0.1,1.4-0.4c0.3-0.3,0.5-0.6,0.5-1.1c0-0.5-0.2-0.8-0.5-1.1c-0.3-0.2-0.8-0.3-1.4-0.3h-2.6V98.3z M48.1,102.3h2.7
			c0.6,0,1.1-0.1,1.4-0.3c0.4-0.3,0.6-0.7,0.6-1.2s-0.2-1-0.6-1.2c-0.3-0.3-0.9-0.4-1.5-0.4h-2.7V102.3z"/>
		<path class="st4" d="M60.1,97.7c0.5,0.6,0.8,1.4,0.8,2.3c0,0.9-0.3,1.7-0.8,2.3c-0.6,0.6-1.3,1-2.2,1c-0.9,0-1.7-0.3-2.2-1
			c-0.5-0.6-0.8-1.4-0.8-2.3c0-0.9,0.3-1.7,0.8-2.3c0.6-0.6,1.3-1,2.2-1C58.8,96.7,59.5,97.1,60.1,97.7z M56.3,98.3
			c-0.3,0.5-0.5,1-0.5,1.7c0,0.7,0.2,1.2,0.5,1.7c0.4,0.5,0.9,0.8,1.5,0.8c0.6,0,1.2-0.3,1.5-0.8c0.3-0.5,0.5-1,0.5-1.7
			c0-0.7-0.2-1.3-0.5-1.7c-0.4-0.5-0.9-0.8-1.5-0.8C57.2,97.5,56.7,97.8,56.3,98.3z"/>
		<path class="st4" d="M67.4,99.3v3.8h-1v-3.7c0-1.2-0.6-1.8-1.6-1.8c-0.4,0-0.8,0.2-1.1,0.5c-0.3,0.3-0.5,0.8-0.6,1.3v3.7h-1v-6.2
			h1v0.9c0.2-0.3,0.5-0.6,0.8-0.8c0.3-0.2,0.7-0.3,1.1-0.3C66.6,96.7,67.4,97.6,67.4,99.3z"/>
		<path class="st4" d="M74.1,99.3v3.8h-1v-3.7c0-1.2-0.6-1.8-1.6-1.8c-0.4,0-0.8,0.2-1.1,0.5c-0.3,0.3-0.5,0.8-0.6,1.3v3.7h-1v-6.2
			h1v0.9c0.2-0.3,0.5-0.6,0.8-0.8c0.3-0.2,0.7-0.3,1.1-0.3C73.3,96.7,74.1,97.6,74.1,99.3z"/>
		<path class="st4" d="M80.2,97.4c0.4,0.4,0.6,1,0.6,1.7v4h-0.9v-1c-0.2,0.3-0.6,0.6-0.9,0.8c-0.5,0.3-1,0.4-1.5,0.4
			c-0.6,0-1.1-0.2-1.5-0.5c-0.4-0.3-0.6-0.7-0.6-1.2c0-0.7,0.3-1.2,0.9-1.6c0.5-0.3,1.2-0.5,2.2-0.5l1.5,0v-0.3c0-1-0.5-1.6-1.6-1.6
			c-0.5,0-0.8,0.1-1.1,0.3c-0.3,0.2-0.5,0.5-0.6,0.9l-0.9-0.1c0.1-0.6,0.5-1.1,1-1.5c0.5-0.3,1-0.4,1.8-0.4
			C79.1,96.7,79.8,97,80.2,97.4z M78.4,100.2c-1.4,0-2.1,0.5-2.1,1.4c0,0.3,0.1,0.5,0.3,0.7c0.2,0.2,0.6,0.3,0.9,0.3
			c0.6,0,1.1-0.2,1.6-0.6c0.4-0.4,0.7-0.8,0.7-1.3v-0.5L78.4,100.2z"/>
		<path class="st4" d="M85.8,96.9v1c-0.3-0.1-0.6-0.1-0.9-0.1c-0.5,0-0.9,0.2-1.2,0.6c-0.3,0.4-0.5,0.9-0.5,1.5v3.3h-0.9v-6.2h0.9
			V98c0.2-0.4,0.4-0.6,0.6-0.9c0.3-0.3,0.7-0.4,1.1-0.4C85.3,96.7,85.6,96.8,85.8,96.9z"/>
		<path class="st4" d="M91.6,97.7c0.5,0.6,0.8,1.4,0.8,2.3c0,0.9-0.3,1.7-0.8,2.3c-0.6,0.6-1.3,1-2.2,1c-0.9,0-1.7-0.3-2.2-1
			c-0.5-0.6-0.8-1.4-0.8-2.3c0-0.9,0.3-1.7,0.8-2.3c0.6-0.6,1.3-1,2.2-1C90.3,96.7,91.1,97.1,91.6,97.7z M87.9,98.3
			c-0.3,0.5-0.5,1-0.5,1.7c0,0.7,0.2,1.2,0.5,1.7c0.4,0.5,0.9,0.8,1.5,0.8c0.6,0,1.2-0.3,1.5-0.8c0.3-0.5,0.5-1,0.5-1.7
			c0-0.7-0.2-1.3-0.5-1.7c-0.4-0.5-0.9-0.8-1.5-0.8C88.8,97.5,88.2,97.8,87.9,98.3z"/>
		<path class="st4" d="M98.7,97.7c0.5,0.6,0.8,1.4,0.8,2.3c0,0.9-0.3,1.7-0.8,2.3c-0.6,0.6-1.3,1-2.2,1c-0.9,0-1.7-0.3-2.2-1
			c-0.5-0.6-0.8-1.4-0.8-2.3c0-0.9,0.3-1.7,0.8-2.3c0.6-0.6,1.3-1,2.2-1C97.4,96.7,98.1,97.1,98.7,97.7z M94.9,98.3
			c-0.3,0.5-0.5,1-0.5,1.7c0,0.7,0.2,1.2,0.5,1.7c0.4,0.5,0.9,0.8,1.5,0.8c0.6,0,1.2-0.3,1.5-0.8c0.3-0.5,0.5-1,0.5-1.7
			c0-0.7-0.2-1.3-0.5-1.7c-0.4-0.5-0.9-0.8-1.5-0.8C95.8,97.5,95.3,97.8,94.9,98.3z"/>
	</g>
	<path class="st2" d="M172.5,153.3H29.1c-8.2,0-15-6.7-15-15v0c0-8.2,6.7-15,15-15h143.4c8.2,0,15,6.7,15,15v0
		C187.5,146.5,180.8,153.3,172.5,153.3z"/>
	<g class="st3">
		<path class="st4" d="M70.6,133.6c2,0,3,0.8,3,2.5c0,1.7-1,2.5-3,2.5h-2.5v3.5h-1v-8.6H70.6z M68.1,137.8h2.5
			c0.7,0,1.2-0.1,1.5-0.4c0.3-0.3,0.5-0.7,0.5-1.3c0-0.6-0.2-1-0.5-1.2c-0.3-0.3-0.8-0.4-1.5-0.4h-2.5V137.8z"/>
		<path class="st4" d="M79.4,136.4c0.4,0.4,0.6,1,0.6,1.7v4H79v-1c-0.2,0.3-0.6,0.6-0.9,0.8c-0.5,0.3-1,0.4-1.5,0.4
			c-0.6,0-1.1-0.2-1.5-0.5c-0.4-0.3-0.6-0.7-0.6-1.2c0-0.7,0.3-1.2,0.9-1.6c0.5-0.3,1.2-0.5,2.2-0.5l1.5,0v-0.3c0-1-0.5-1.6-1.6-1.6
			c-0.5,0-0.8,0.1-1.1,0.3c-0.3,0.2-0.5,0.5-0.6,0.9l-0.9-0.1c0.1-0.6,0.5-1.1,1-1.5c0.5-0.3,1-0.4,1.8-0.4
			C78.3,135.7,78.9,136,79.4,136.4z M77.5,139.2c-1.4,0-2.1,0.5-2.1,1.4c0,0.3,0.1,0.5,0.3,0.7c0.2,0.2,0.6,0.3,0.9,0.3
			c0.6,0,1.1-0.2,1.6-0.6c0.4-0.4,0.7-0.8,0.7-1.3v-0.5L77.5,139.2z"/>
		<path class="st4" d="M85,135.9v1c-0.3-0.1-0.6-0.1-0.9-0.1c-0.5,0-0.9,0.2-1.2,0.6c-0.3,0.4-0.5,0.9-0.5,1.5v3.3h-0.9v-6.2h0.9
			v1.1c0.2-0.4,0.4-0.6,0.6-0.9c0.3-0.3,0.7-0.4,1.1-0.4C84.5,135.7,84.7,135.8,85,135.9z"/>
		<path class="st4" d="M90.8,136.7c0.5,0.6,0.8,1.4,0.8,2.3c0,0.9-0.3,1.7-0.8,2.3c-0.6,0.6-1.3,1-2.2,1c-0.9,0-1.7-0.3-2.2-1
			c-0.5-0.6-0.8-1.4-0.8-2.3c0-0.9,0.3-1.7,0.8-2.3c0.6-0.6,1.3-1,2.2-1C89.5,135.7,90.2,136.1,90.8,136.7z M87,137.3
			c-0.3,0.5-0.5,1-0.5,1.7c0,0.7,0.2,1.2,0.5,1.7c0.4,0.5,0.9,0.8,1.5,0.8c0.6,0,1.2-0.3,1.5-0.8c0.3-0.5,0.5-1,0.5-1.7
			c0-0.7-0.2-1.3-0.5-1.7c-0.4-0.5-0.9-0.8-1.5-0.8C87.9,136.5,87.4,136.8,87,137.3z"/>
		<path class="st4" d="M97.8,136.7c0.5,0.6,0.8,1.4,0.8,2.3c0,0.9-0.3,1.7-0.8,2.3c-0.6,0.6-1.3,1-2.2,1c-0.9,0-1.7-0.3-2.2-1
			c-0.5-0.6-0.8-1.4-0.8-2.3c0-0.9,0.3-1.7,0.8-2.3c0.6-0.6,1.3-1,2.2-1C96.5,135.7,97.2,136.1,97.8,136.7z M94,137.3
			c-0.3,0.5-0.5,1-0.5,1.7c0,0.7,0.2,1.2,0.5,1.7c0.4,0.5,0.9,0.8,1.5,0.8c0.6,0,1.2-0.3,1.5-0.8c0.3-0.5,0.5-1,0.5-1.7
			c0-0.7-0.2-1.3-0.5-1.7c-0.4-0.5-0.9-0.8-1.5-0.8C94.9,136.5,94.4,136.8,94,137.3z"/>
		<path class="st4" d="M100.8,133.4v5.4l3.1-2.9h1.3l-2.7,2.5l3,3.7h-1.2l-2.4-3.1l-1,0.9v2.2h-1v-8.7H100.8z"/>
		<path class="st4" d="M110.9,136.4c0.4,0.4,0.6,1,0.6,1.7v4h-0.9v-1c-0.2,0.3-0.6,0.6-0.9,0.8c-0.5,0.3-1,0.4-1.5,0.4
			c-0.6,0-1.1-0.2-1.5-0.5c-0.4-0.3-0.6-0.7-0.6-1.2c0-0.7,0.3-1.2,0.9-1.6c0.5-0.3,1.2-0.5,2.2-0.5l1.5,0v-0.3c0-1-0.5-1.6-1.6-1.6
			c-0.5,0-0.8,0.1-1.1,0.3c-0.3,0.2-0.5,0.5-0.6,0.9l-0.9-0.1c0.1-0.6,0.5-1.1,1-1.5c0.5-0.3,1-0.4,1.8-0.4
			C109.8,135.7,110.4,136,110.9,136.4z M109,139.2c-1.4,0-2.1,0.5-2.1,1.4c0,0.3,0.1,0.5,0.3,0.7c0.2,0.2,0.6,0.3,0.9,0.3
			c0.6,0,1.1-0.2,1.6-0.6c0.4-0.4,0.7-0.8,0.7-1.3v-0.5L109,139.2z"/>
		<path class="st4" d="M113.3,135.9l1.8,5l1.8-5h1.1l-2.4,6.2h-1l-2.3-6.2H113.3z"/>
		<path class="st4" d="M120,133.8c0.1,0.1,0.2,0.3,0.2,0.5c0,0.2-0.1,0.4-0.2,0.5c-0.1,0.1-0.3,0.2-0.5,0.2s-0.4-0.1-0.5-0.2
			c-0.1-0.1-0.2-0.3-0.2-0.5c0-0.2,0.1-0.4,0.2-0.5c0.1-0.1,0.3-0.2,0.5-0.2S119.8,133.6,120,133.8z M120,135.9v6.2h-1v-6.2H120z"/>
		<path class="st4" d="M122.9,133.4v8.7h-0.9v-8.7H122.9z"/>
		<path class="st4" d="M125.7,133.4v8.7h-0.9v-8.7H125.7z"/>
		<path class="st4" d="M132.2,136.8c0.5,0.6,0.7,1.5,0.7,2.5H128c0,0.7,0.2,1.2,0.6,1.6s0.8,0.6,1.4,0.6c0.5,0,0.9-0.1,1.2-0.4
			c0.3-0.2,0.5-0.5,0.6-1h1c-0.1,0.6-0.4,1.1-0.8,1.5c-0.5,0.5-1.2,0.7-2,0.7c-0.9,0-1.6-0.3-2.1-0.9c-0.6-0.6-0.8-1.4-0.8-2.4
			c0-0.9,0.3-1.7,0.8-2.3c0.5-0.6,1.2-1,2.1-1C130.9,135.7,131.7,136.1,132.2,136.8z M128.6,137.1c-0.3,0.4-0.5,0.8-0.6,1.5h3.9
			c-0.1-1.3-0.8-2-2-2C129.4,136.5,129,136.7,128.6,137.1z"/>
	</g>
	<path class="st2" d="M347.5,153.3H215.1c-8.2,0-15-6.7-15-15v0c0-8.2,6.7-15,15-15h132.4c8.2,0,15,6.7,15,15v0
		C362.5,146.5,355.8,153.3,347.5,153.3z"/>
	<g class="st3">
		<path class="st4" d="M256.8,133.6l3.4,8.6h-1.1l-0.9-2.4h-3.9l-0.9,2.4h-1.1l3.4-8.6H256.8z M257.8,138.9l-1.6-4.3h0l-1.6,4.3
			H257.8z"/>
		<path class="st4" d="M262.2,133.8c0.1,0.1,0.2,0.3,0.2,0.5c0,0.2-0.1,0.4-0.2,0.5c-0.1,0.1-0.3,0.2-0.5,0.2s-0.4-0.1-0.5-0.2
			c-0.1-0.1-0.2-0.3-0.2-0.5c0-0.2,0.1-0.4,0.2-0.5c0.1-0.1,0.3-0.2,0.5-0.2S262,133.6,262.2,133.8z M262.1,135.9v6.2h-1v-6.2H262.1
			z"/>
		<path class="st4" d="M267.5,135.9v1c-0.3-0.1-0.6-0.1-0.9-0.1c-0.5,0-0.9,0.2-1.2,0.6c-0.3,0.4-0.5,0.9-0.5,1.5v3.3h-0.9v-6.2h0.9
			v1.1c0.2-0.4,0.4-0.6,0.6-0.9c0.3-0.3,0.7-0.4,1.1-0.4C267,135.7,267.3,135.8,267.5,135.9z"/>
		<path class="st4" d="M272.7,133.6l1.9,7.2h0l2-7.2h1.1l1.9,7.2h0l1.9-7.2h1.1l-2.5,8.6h-1.1l-1.9-7.1h0l-2,7.1h-1.1l-2.5-8.6
			H272.7z"/>
		<path class="st4" d="M288.1,136.4c0.4,0.4,0.6,1,0.6,1.7v4h-0.9v-1c-0.2,0.3-0.6,0.6-0.9,0.8c-0.5,0.3-1,0.4-1.5,0.4
			c-0.6,0-1.1-0.2-1.5-0.5c-0.4-0.3-0.6-0.7-0.6-1.2c0-0.7,0.3-1.2,0.9-1.6c0.5-0.3,1.2-0.5,2.2-0.5l1.5,0v-0.3c0-1-0.5-1.6-1.6-1.6
			c-0.5,0-0.8,0.1-1.1,0.3c-0.3,0.2-0.5,0.5-0.6,0.9l-0.9-0.1c0.1-0.6,0.5-1.1,1-1.5c0.5-0.3,1-0.4,1.8-0.4
			C287.1,135.7,287.7,136,288.1,136.4z M286.3,139.2c-1.4,0-2.1,0.5-2.1,1.4c0,0.3,0.1,0.5,0.3,0.7c0.2,0.2,0.6,0.3,0.9,0.3
			c0.6,0,1.1-0.2,1.6-0.6c0.4-0.4,0.7-0.8,0.7-1.3v-0.5L286.3,139.2z"/>
		<path class="st4" d="M290.6,135.9l1.8,5l1.8-5h1.1l-2.4,6.2h-1l-2.3-6.2H290.6z"/>
		<path class="st4" d="M300.8,136.8c0.5,0.6,0.7,1.5,0.7,2.5h-4.9c0,0.7,0.2,1.2,0.6,1.6s0.8,0.6,1.4,0.6c0.5,0,0.9-0.1,1.2-0.4
			c0.3-0.2,0.5-0.5,0.6-1h1c-0.1,0.6-0.4,1.1-0.8,1.5c-0.5,0.5-1.2,0.7-2,0.7c-0.9,0-1.6-0.3-2.1-0.9c-0.6-0.6-0.8-1.4-0.8-2.4
			c0-0.9,0.3-1.7,0.8-2.3c0.5-0.6,1.2-1,2.1-1C299.5,135.7,300.3,136.1,300.8,136.8z M297.2,137.1c-0.3,0.4-0.5,0.8-0.6,1.5h3.9
			c-0.1-1.3-0.8-2-2-2C298,136.5,297.6,136.7,297.2,137.1z"/>
		<path class="st4" d="M307.4,137.7h-0.9c-0.1-0.4-0.2-0.7-0.5-0.8c-0.3-0.2-0.6-0.3-1.1-0.3c-0.4,0-0.8,0.1-1,0.2
			c-0.3,0.2-0.4,0.4-0.4,0.6c0,0.3,0.2,0.5,0.5,0.7c0.2,0.1,0.7,0.2,1.3,0.4c0.7,0.2,1.3,0.4,1.6,0.6c0.5,0.3,0.7,0.7,0.7,1.3
			c0,1.3-0.9,1.9-2.6,1.9c-1.6,0-2.5-0.7-2.7-2.1h0.9c0.1,0.5,0.3,0.8,0.5,1.1c0.3,0.2,0.7,0.3,1.2,0.3c1.1,0,1.7-0.4,1.7-1.1
			c0-0.3-0.2-0.6-0.6-0.8c-0.2-0.1-0.6-0.2-1.3-0.4c-0.7-0.2-1.2-0.4-1.5-0.6c-0.5-0.3-0.7-0.7-0.7-1.2s0.2-0.9,0.7-1.2
			c0.4-0.3,1-0.5,1.7-0.5C306.4,135.7,307.2,136.4,307.4,137.7z"/>
	</g>
	<g class="st3">
		<path class="st4" d="M166.7,98.7h-0.9c-0.1-0.4-0.2-0.7-0.5-0.8c-0.3-0.2-0.6-0.3-1.1-0.3c-0.4,0-0.8,0.1-1,0.2
			c-0.3,0.2-0.4,0.4-0.4,0.6c0,0.3,0.2,0.5,0.5,0.7c0.2,0.1,0.7,0.2,1.3,0.4c0.7,0.2,1.3,0.4,1.6,0.6c0.5,0.3,0.7,0.7,0.7,1.3
			c0,1.3-0.9,1.9-2.6,1.9c-1.6,0-2.5-0.7-2.7-2.1h0.9c0.1,0.5,0.3,0.8,0.5,1.1c0.3,0.2,0.7,0.3,1.2,0.3c1.1,0,1.7-0.4,1.7-1.1
			c0-0.3-0.2-0.6-0.6-0.8c-0.2-0.1-0.6-0.2-1.3-0.4c-0.7-0.2-1.2-0.4-1.5-0.6c-0.5-0.3-0.7-0.7-0.7-1.2s0.2-0.9,0.7-1.2
			c0.4-0.3,1-0.5,1.7-0.5C165.7,96.7,166.6,97.4,166.7,98.7z"/>
		<path class="st4" d="M169,96.9v3.8c0,0.6,0.1,1,0.4,1.3c0.3,0.3,0.7,0.4,1.2,0.4c0.4,0,0.8-0.2,1.1-0.5c0.3-0.3,0.5-0.8,0.6-1.3
			v-3.8h1v6.2h-1v-1c-0.5,0.7-1.2,1.1-2,1.1c-1.5,0-2.3-0.9-2.3-2.5v-3.8H169z"/>
		<path class="st4" d="M179.4,97.9c0.2-0.4,0.5-0.7,0.9-0.9c0.3-0.2,0.7-0.3,1.1-0.3c0.6,0,1.2,0.2,1.6,0.6c0.4,0.4,0.6,1,0.6,1.7
			v4.1h-1v-3.9c0-0.6-0.1-1-0.3-1.2c-0.2-0.3-0.6-0.4-1.2-0.4c-0.4,0-0.8,0.1-1,0.5c-0.3,0.3-0.4,0.7-0.4,1.2v3.9h-1v-3.9
			c0-1.1-0.5-1.6-1.4-1.6c-0.4,0-0.8,0.2-1.1,0.5c-0.3,0.3-0.4,0.8-0.4,1.2v3.8h-1v-6.2h1v0.8c0.5-0.7,1.1-1,1.8-1
			C178.4,96.7,179.1,97.1,179.4,97.9z"/>
		<path class="st4" d="M189.7,97.9c0.2-0.4,0.5-0.7,0.9-0.9c0.3-0.2,0.7-0.3,1.1-0.3c0.6,0,1.2,0.2,1.6,0.6c0.4,0.4,0.6,1,0.6,1.7
			v4.1h-1v-3.9c0-0.6-0.1-1-0.3-1.2c-0.2-0.3-0.6-0.4-1.2-0.4c-0.4,0-0.8,0.1-1,0.5c-0.3,0.3-0.4,0.7-0.4,1.2v3.9h-1v-3.9
			c0-1.1-0.5-1.6-1.4-1.6c-0.4,0-0.8,0.2-1.1,0.5c-0.3,0.3-0.4,0.8-0.4,1.2v3.8h-1v-6.2h1v0.8c0.5-0.7,1.1-1,1.8-1
			C188.7,96.7,189.3,97.1,189.7,97.9z"/>
		<path class="st4" d="M200.1,97.8c0.5,0.6,0.7,1.5,0.7,2.5h-4.9c0,0.7,0.2,1.2,0.6,1.6s0.8,0.6,1.4,0.6c0.5,0,0.9-0.1,1.2-0.4
			c0.3-0.2,0.5-0.5,0.6-1h1c-0.1,0.6-0.4,1.1-0.8,1.5c-0.5,0.5-1.2,0.7-2,0.7c-0.9,0-1.6-0.3-2.1-0.9c-0.6-0.6-0.8-1.4-0.8-2.4
			c0-0.9,0.3-1.7,0.8-2.3c0.5-0.6,1.2-1,2.1-1C198.8,96.7,199.6,97.1,200.1,97.8z M196.5,98.1c-0.3,0.4-0.5,0.8-0.6,1.5h3.9
			c-0.1-1.3-0.8-2-2-2C197.3,97.5,196.9,97.7,196.5,98.1z"/>
		<path class="st4" d="M205.5,96.9v1c-0.3-0.1-0.6-0.1-0.9-0.1c-0.5,0-0.9,0.2-1.2,0.6c-0.3,0.4-0.5,0.9-0.5,1.5v3.3h-0.9v-6.2h0.9
			V98c0.2-0.4,0.4-0.6,0.6-0.9c0.3-0.3,0.7-0.4,1.1-0.4C205,96.7,205.3,96.8,205.5,96.9z"/>
		<path class="st4" d="M215.1,98.7h-0.9c-0.1-0.4-0.2-0.7-0.5-0.8c-0.3-0.2-0.6-0.3-1.1-0.3c-0.4,0-0.8,0.1-1,0.2
			c-0.3,0.2-0.4,0.4-0.4,0.6c0,0.3,0.2,0.5,0.5,0.7c0.2,0.1,0.7,0.2,1.3,0.4c0.7,0.2,1.3,0.4,1.6,0.6c0.5,0.3,0.7,0.7,0.7,1.3
			c0,1.3-0.9,1.9-2.6,1.9c-1.6,0-2.5-0.7-2.7-2.1h0.9c0.1,0.5,0.3,0.8,0.5,1.1c0.3,0.2,0.7,0.3,1.2,0.3c1.1,0,1.7-0.4,1.7-1.1
			c0-0.3-0.2-0.6-0.6-0.8c-0.2-0.1-0.6-0.2-1.3-0.4c-0.7-0.2-1.2-0.4-1.5-0.6c-0.5-0.3-0.7-0.7-0.7-1.2s0.2-0.9,0.7-1.2
			c0.4-0.3,1-0.5,1.7-0.5C214.1,96.7,214.9,97.4,215.1,98.7z"/>
		<path class="st4" d="M221.4,97.7c0.5,0.6,0.8,1.4,0.8,2.3c0,0.9-0.3,1.7-0.8,2.3c-0.6,0.6-1.3,1-2.2,1c-0.9,0-1.7-0.3-2.2-1
			c-0.5-0.6-0.8-1.4-0.8-2.3c0-0.9,0.3-1.7,0.8-2.3c0.6-0.6,1.3-1,2.2-1C220.1,96.7,220.8,97.1,221.4,97.7z M217.6,98.3
			c-0.3,0.5-0.5,1-0.5,1.7c0,0.7,0.2,1.2,0.5,1.7c0.4,0.5,0.9,0.8,1.5,0.8c0.6,0,1.2-0.3,1.5-0.8c0.3-0.5,0.5-1,0.5-1.7
			c0-0.7-0.2-1.3-0.5-1.7c-0.4-0.5-0.9-0.8-1.5-0.8C218.5,97.5,218,97.8,217.6,98.3z"/>
		<path class="st4" d="M228.6,99.3v3.8h-1v-3.7c0-1.2-0.6-1.8-1.6-1.8c-0.4,0-0.8,0.2-1.1,0.5c-0.3,0.3-0.5,0.8-0.6,1.3v3.7h-1v-6.2
			h1v0.9c0.2-0.3,0.5-0.6,0.8-0.8c0.3-0.2,0.7-0.3,1.1-0.3C227.9,96.7,228.6,97.6,228.6,99.3z"/>
		<path class="st4" d="M231.4,94.8c0.1,0.1,0.2,0.3,0.2,0.5c0,0.2-0.1,0.4-0.2,0.5c-0.1,0.1-0.3,0.2-0.5,0.2s-0.4-0.1-0.5-0.2
			c-0.1-0.1-0.2-0.3-0.2-0.5c0-0.2,0.1-0.4,0.2-0.5c0.1-0.1,0.3-0.2,0.5-0.2S231.3,94.6,231.4,94.8z M231.4,96.9v6.2h-1v-6.2H231.4z
			"/>
		<path class="st4" d="M237.7,97.3c0.5,0.4,0.8,0.9,0.9,1.7h-0.9c-0.1-0.5-0.3-0.8-0.6-1.1c-0.3-0.2-0.7-0.3-1.2-0.3
			c-0.6,0-1.1,0.2-1.4,0.7c-0.3,0.4-0.5,1-0.5,1.8c0,0.8,0.2,1.4,0.5,1.8c0.3,0.4,0.8,0.7,1.4,0.7c1.1,0,1.7-0.5,1.8-1.6h1
			c-0.1,0.8-0.4,1.4-0.9,1.8c-0.5,0.4-1.1,0.6-1.8,0.6c-0.9,0-1.7-0.3-2.2-0.9c-0.5-0.6-0.7-1.4-0.7-2.3s0.2-1.7,0.7-2.3
			c0.5-0.7,1.3-1,2.2-1C236.6,96.7,237.2,96.9,237.7,97.3z"/>
	</g>
	<g class="st3">
		<path class="st4" d="M309.6,94.6v5.8c0,0.9-0.2,1.6-0.6,2.1c-0.4,0.5-1.1,0.8-2.1,0.8c-0.8,0-1.4-0.2-1.8-0.7
			c-0.5-0.5-0.7-1.1-0.7-1.9v-0.3h1v0.3c0,1.2,0.5,1.7,1.6,1.7c0.6,0,1-0.2,1.3-0.5c0.3-0.3,0.4-0.8,0.4-1.5v-5.8H309.6z"/>
		<path class="st4" d="M311.6,94.6l2.7,7.5h0l2.7-7.5h1.1l-3.2,8.6h-1.2l-3.2-8.6H311.6z"/>
		<path class="st4" d="M325.1,95.1c0.6,0.5,1,1.2,1.2,2h-0.9c-0.1-0.6-0.4-1.1-0.9-1.4c-0.5-0.3-1-0.5-1.7-0.5c-1,0-1.8,0.3-2.3,1
			c-0.5,0.6-0.8,1.5-0.8,2.6s0.2,1.9,0.7,2.5c0.5,0.7,1.3,1,2.3,1c0.7,0,1.3-0.2,1.7-0.5c0.5-0.4,0.9-0.9,1-1.7h0.9
			c-0.2,1-0.6,1.8-1.3,2.3c-0.7,0.5-1.5,0.8-2.4,0.8c-1.3,0-2.4-0.4-3.1-1.3c-0.6-0.8-1-1.8-1-3.1c0-1.3,0.3-2.3,1-3.1
			c0.7-0.9,1.8-1.4,3.1-1.4C323.6,94.4,324.4,94.6,325.1,95.1z"/>
	</g>
</g>
</svg>
