<!-- Generator: Adobe Illustrator 21.0.0, SVG Export Plug-In  -->
<svg version="1.1"
	 xmlns="http://www.w3.org/2000/svg" xmlns:xlink="http://www.w3.org/1999/xlink" xmlns:a="http://ns.adobe.com/AdobeSVGViewerExtensions/3.0/"
	 x="0px" y="0px" width="375.5px" height="49.9px" viewBox="0 0 375.5 49.9" style="enable-background:new 0 0 375.5 49.9;"
	 xml:space="preserve">
<style type="text/css">
	.st0{opacity:0.5;}
	.st1{fill:#FFFFFF;}
	.st2{fill:#16F2E7;}
	.st3{fill:#00E1FF;}
	.st4{fill:#00F3FF;}
	.st5{fill:none;stroke:#FFFFFF;stroke-width:2;stroke-linecap:round;stroke-linejoin:round;stroke-miterlimit:10;}
</style>
<defs>
</defs>
<rect width="375.5" height="49.9"/>
<g class="st0">
	<g>
		<path class="st1" d="M143.4,16.5c-0.1,0-0.2,0-0.3-0.1l-7.4-4.8c-0.2-0.2-0.3-0.5-0.1-0.7c0.2-0.2,0.5-0.3,0.7-0.1l7.4,4.8
			c0.2,0.2,0.3,0.5,0.1,0.7C143.8,16.4,143.6,16.5,143.4,16.5z"/>
	</g>
	<g>
		<path class="st1" d="M148.3,26.8h-18.6c-0.3,0-0.5-0.2-0.5-0.5c0-0.3,0.2-0.5,0.5-0.5h18.6c1.7,0,3-1.5,3-3.4V9.9
			c0-1.9-1.4-3.4-3-3.4c-0.3,0-0.5-0.2-0.5-0.5c0-0.3,0.2-0.5,0.5-0.5c2.2,0,4,2,4,4.4v12.5C152.4,24.8,150.5,26.8,148.3,26.8z"/>
	</g>
	<g>
		<path class="st1" d="M129.7,26.8c-2.2,0-4-2-4-4.4V9.9c0-2.4,1.8-4.4,4-4.4h18.6c0.3,0,0.5,0.2,0.5,0.5c0,0.3-0.2,0.5-0.5,0.5
			h-18.6c-1.7,0-3,1.5-3,3.4v12.5c0,1.9,1.4,3.4,3,3.4c0.3,0,0.5,0.2,0.5,0.5C130.2,26.6,130,26.8,129.7,26.8z"/>
	</g>
	<g>
		<path class="st1" d="M136.1,20.6c-0.3,0-0.5-0.2-0.5-0.5v-8.9c0-0.3,0.2-0.5,0.5-0.5s0.5,0.2,0.5,0.5v8.9
			C136.6,20.4,136.4,20.6,136.1,20.6z"/>
	</g>
	<g>
		<path class="st1" d="M136.2,20.6c-0.2,0-0.3-0.1-0.4-0.3c-0.1-0.2,0-0.5,0.2-0.7l7.3-4.1c0.2-0.1,0.5,0,0.7,0.2
			c0.1,0.2,0,0.5-0.2,0.7l-7.3,4.1C136.3,20.6,136.3,20.6,136.2,20.6z"/>
	</g>
</g>
<g>
	<path class="st2" d="M338.5,15.1c-0.1,0-0.3,0-0.4-0.1c-0.2-0.2-0.2-0.5,0-0.7c1.9-1.9,1.9-4.9,0-6.8c-0.9-0.9-2.1-1.4-3.4-1.4
		c0,0,0,0,0,0c-1.3,0-2.5,0.5-3.4,1.4c-0.2,0.2-0.5,0.2-0.7,0c-0.2-0.2-0.2-0.5,0-0.7c2.3-2.2,5.9-2.2,8.2,0c2.2,2.3,2.2,5.9,0,8.2
		C338.8,15,338.7,15.1,338.5,15.1z"/>
</g>
<g>
	<path class="st2" d="M334.9,16.6c-1.5,0-3-0.6-4.1-1.7c-2.3-2.3-2.3-5.9,0-8.2c0.2-0.2,0.5-0.2,0.7,0s0.2,0.5,0,0.7
		c-1.9,1.9-1.9,4.9,0,6.8c1.9,1.9,4.9,1.9,6.8,0c0.2-0.2,0.5-0.2,0.7,0c0.2,0.2,0.2,0.5,0,0.7C337.8,16.1,336.3,16.6,334.9,16.6z"/>
</g>
<g>
	<path class="st3" d="M342.4,26.5h-14.2c-0.5,0-1-0.2-1.3-0.6c-0.3-0.4-0.5-0.9-0.4-1.3c0.7-4.3,4.4-7.5,8.8-7.5
		c4.4,0,8.1,3.1,8.8,7.5c0.1,0.5-0.1,1-0.4,1.3C343.4,26.3,342.9,26.5,342.4,26.5z M335.3,18.1c-3.9,0-7.2,2.8-7.8,6.6
		c0,0.2,0,0.4,0.2,0.5c0.1,0.2,0.3,0.3,0.5,0.3h14.2c0.2,0,0.4-0.1,0.5-0.3c0.1-0.2,0.2-0.3,0.2-0.5
		C342.5,20.9,339.2,18.1,335.3,18.1z"/>
</g>
<g class="st0">
	<g>
		<path class="st1" d="M233.4,20.7c0,0-0.1,0-0.1,0c-0.3-0.1-0.4-0.3-0.4-0.6l2.4-11.6c0.1-0.3,0.3-0.4,0.6-0.4
			c0.3,0.1,0.4,0.3,0.4,0.6l-2.4,11.6C233.8,20.5,233.6,20.7,233.4,20.7z"/>
	</g>
	<g>
		<path class="st1" d="M241.5,20.1c-0.2,0-0.4-0.2-0.5-0.4l-2.6-11.1c-0.1-0.3,0.1-0.5,0.4-0.6c0.3-0.1,0.5,0.1,0.6,0.4l2.6,11.1
			c0.1,0.3-0.1,0.5-0.4,0.6C241.6,20.1,241.5,20.1,241.5,20.1z"/>
	</g>
	<g>
		<path class="st1" d="M224.6,18.7c-0.1,0-0.1,0-0.2,0c-0.3-0.1-0.4-0.4-0.3-0.6l4.7-12c0.1-0.3,0.4-0.4,0.6-0.3
			c0.3,0.1,0.4,0.4,0.3,0.6l-4.7,12C225,18.6,224.8,18.7,224.6,18.7z"/>
	</g>
	<g>
		<path class="st1" d="M250.6,19.7c-0.2,0-0.4-0.1-0.5-0.3l-5.2-13c-0.1-0.3,0-0.5,0.3-0.6c0.3-0.1,0.5,0,0.6,0.3l5.2,13
			c0.1,0.3,0,0.5-0.3,0.6C250.7,19.7,250.7,19.7,250.6,19.7z"/>
	</g>
	<g>
		<path class="st1" d="M232.1,25.8c-0.1,0-0.3,0-0.4-0.1c-0.2-0.2-0.2-0.5,0-0.7c0.9-0.9,1.3-2,1.3-3.2c0-1.2-0.5-2.4-1.3-3.2
			c-0.9-0.9-2-1.3-3.2-1.3s-2.4,0.5-3.2,1.3c-0.2,0.2-0.5,0.2-0.7,0c-0.2-0.2-0.2-0.5,0-0.7c2.2-2.2,5.7-2.2,7.9,0
			c1.1,1.1,1.6,2.5,1.6,4c0,1.5-0.6,2.9-1.6,4C232.3,25.8,232.2,25.8,232.1,25.8z"/>
	</g>
	<g>
		<path class="st1" d="M228.5,27.3c-1.4,0-2.9-0.5-4-1.6c-1.1-1.1-1.6-2.5-1.6-4c0-1.5,0.6-2.9,1.6-4c0.2-0.2,0.5-0.2,0.7,0
			s0.2,0.5,0,0.7c-0.9,0.9-1.3,2-1.3,3.2c0,1.2,0.5,2.4,1.3,3.2s2,1.3,3.2,1.3s2.4-0.5,3.2-1.3c0.2-0.2,0.5-0.2,0.7,0s0.2,0.5,0,0.7
			C231.4,26.8,229.9,27.3,228.5,27.3z"/>
	</g>
	<g>
		<path class="st1" d="M225.9,21.8c-0.3,0-0.5-0.2-0.5-0.5c0-1.5,1.3-2.8,2.8-2.8c0.3,0,0.5,0.2,0.5,0.5s-0.2,0.5-0.5,0.5
			c-1,0-1.8,0.8-1.8,1.8C226.4,21.6,226.2,21.8,225.9,21.8z"/>
	</g>
	<g>
		<path class="st1" d="M243.6,21.8c-0.3,0-0.5-0.2-0.5-0.5c0-1.5,1.3-2.8,2.8-2.8c0.3,0,0.5,0.2,0.5,0.5s-0.2,0.5-0.5,0.5
			c-1,0-1.8,0.8-1.8,1.8C244.1,21.6,243.9,21.8,243.6,21.8z"/>
	</g>
	<g>
		<path class="st1" d="M249.7,25.8c-0.1,0-0.3,0-0.4-0.1c-0.2-0.2-0.2-0.5,0-0.7c1.8-1.8,1.8-4.7,0-6.5c-1.8-1.8-4.7-1.8-6.5,0
			c-0.2,0.2-0.5,0.2-0.7,0c-0.2-0.2-0.2-0.5,0-0.7c2.2-2.2,5.7-2.2,7.9,0c2.2,2.2,2.2,5.7,0,7.9C250,25.8,249.9,25.8,249.7,25.8z"/>
	</g>
	<g>
		<path class="st1" d="M246.2,27.3c-1.4,0-2.9-0.5-4-1.6c-2.2-2.2-2.2-5.7,0-7.9c0.2-0.2,0.5-0.2,0.7,0s0.2,0.5,0,0.7
			c-1.8,1.8-1.8,4.7,0,6.5c1.8,1.8,4.7,1.8,6.5,0c0.2-0.2,0.5-0.2,0.7,0s0.2,0.5,0,0.7C249,26.8,247.6,27.3,246.2,27.3z"/>
	</g>
	<g>
		<path class="st1" d="M235.8,9.1c-0.2,0-0.4-0.1-0.5-0.3c-0.5-1.4-1.2-2.2-2.2-2.6c-1.6-0.6-3.3,0.3-3.3,0.3
			c-0.2,0.1-0.5,0-0.7-0.2c-0.1-0.2,0-0.5,0.2-0.7c0.1,0,2.1-1.1,4.1-0.3c1.3,0.5,2.2,1.6,2.8,3.2c0.1,0.3,0,0.5-0.3,0.6
			C235.9,9.1,235.9,9.1,235.8,9.1z"/>
	</g>
	<g>
		<path class="st1" d="M238.9,9.1c-0.1,0-0.1,0-0.2,0c-0.3-0.1-0.4-0.4-0.3-0.6c0.6-1.6,1.6-2.7,2.8-3.2c2-0.8,4,0.3,4.1,0.3
			c0.2,0.1,0.3,0.4,0.2,0.7c-0.1,0.2-0.4,0.3-0.7,0.2c0,0-1.7-0.9-3.3-0.3c-1,0.4-1.7,1.3-2.2,2.6C239.3,9,239.1,9.1,238.9,9.1z"/>
	</g>
	<g>
		<path class="st1" d="M238.9,12.2h-3.1c-0.3,0-0.5-0.2-0.5-0.5c0-0.3,0.2-0.5,0.5-0.5h3.1c0.3,0,0.5,0.2,0.5,0.5
			C239.4,12,239.2,12.2,238.9,12.2z"/>
	</g>
	<g>
		<path class="st1" d="M240.2,16H235c-0.3,0-0.5-0.2-0.5-0.5c0-0.3,0.2-0.5,0.5-0.5h5.2c0.3,0,0.5,0.2,0.5,0.5
			C240.7,15.7,240.5,16,240.2,16z"/>
	</g>
</g>
<g class="st0">
	<path class="st1" d="M39.2,44.9h-0.7v-0.4h-5.2v0.4h-0.7v-6.1h2.7c0.1-0.3,0.1-0.7,0.2-1h-4V37H34c-0.1-0.4-0.3-0.8-0.5-1.1
		l0.7-0.3c0.2,0.4,0.4,0.8,0.6,1.4H37c0.2-0.4,0.4-0.9,0.6-1.4l0.7,0.2c-0.2,0.4-0.3,0.8-0.5,1.1h2.6v0.7h-4.1
		c-0.1,0.3-0.1,0.7-0.2,1h3.2V44.9z M38.5,40.4v-1h-5.2v1H38.5z M38.5,42.1v-1h-5.2v1H38.5z M38.5,43.8v-1.1h-5.2v1.1H38.5z"/>
	<path class="st1" d="M49.7,42.6H49v-4h-4.8v4h-0.7v-4.7H46c0.1-0.3,0.2-0.7,0.2-1.1h-4v-0.7H51v0.7h-4c-0.1,0.4-0.1,0.7-0.2,1.1
		h2.9V42.6z M47,39.2v1.6c0,1.1-0.4,2-1.1,2.6c-0.6,0.6-1.7,1.1-3.1,1.4l-0.4-0.6c1.4-0.3,2.5-0.7,3-1.3c0.5-0.5,0.8-1.3,0.8-2.1
		v-1.6H47z M50.8,44.2l-0.4,0.7c-1.1-0.7-2.3-1.3-3.5-1.7l0.4-0.6C48.6,43.1,49.7,43.6,50.8,44.2z"/>
</g>
<g class="st0">
	<path class="st1" d="M132.8,36.6c0-0.3,0.1-0.6,0.1-0.9l0.7,0.1c0,0.3-0.1,0.6-0.1,0.8h3.9v0.7h-4c0,0.3-0.1,0.6-0.2,0.8h2.9V44
		h1.5v0.7h-8.9V44h1.4v-5.8h2.3c0.1-0.3,0.1-0.6,0.2-0.8h-3.7v-0.7H132.8z M135.4,39.6v-0.9h-4.5v0.9H135.4z M135.4,41.1v-0.8h-4.5
		v0.8H135.4z M135.4,42.5v-0.8h-4.5v0.8H135.4z M135.4,44v-0.9h-4.5V44H135.4z"/>
	<path class="st1" d="M143.5,44.4v0.5h-0.7v-4.1c-0.1,0.1-0.3,0.1-0.4,0.2l-0.3-0.5v0.1c-0.3,0.1-0.5,0.3-0.8,0.4v3
		c0,0.5-0.3,0.8-0.8,0.8h-0.8l-0.1-0.7c0.3,0,0.5,0,0.7,0c0.2,0,0.4-0.1,0.4-0.4v-2.4c-0.4,0.2-0.8,0.3-1.1,0.4l-0.2-0.7
		c0.5-0.1,0.9-0.3,1.3-0.4v-2.3h-1.2v-0.7h1.2v-1.9h0.7v1.9h0.9v0.7h-0.9v2c0.3-0.1,0.5-0.3,0.8-0.4v0.5c1-0.4,1.7-0.9,2.2-1.5h-1.9
		v-0.6h1.1c-0.1-0.3-0.3-0.6-0.5-0.9l0.6-0.2c0.2,0.3,0.3,0.7,0.5,1.1h0.8v-1.4c-0.7,0-1.5,0.1-2.3,0.1l-0.2-0.6
		c2.1,0,3.9-0.2,5.3-0.5l0.3,0.6c-0.7,0.2-1.5,0.3-2.5,0.4v1.5h0.8c0.2-0.4,0.4-0.8,0.6-1.3l0.6,0.2c-0.2,0.4-0.4,0.8-0.6,1.1h1.2
		v0.6h-2c0.5,0.5,1.3,1,2.3,1.4l-0.3,0.6c-1-0.5-1.9-1.2-2.5-2h-0.1v1.4H145v-1.4h-0.1c-0.4,0.7-1,1.3-1.8,1.7h4.7v4.2h-0.7v-0.5
		H143.5z M143.5,41.2v1h1.5v-1H143.5z M143.5,42.8v1h1.5v-1H143.5z M147.1,42.2v-1h-1.5v1H147.1z M147.1,43.8v-1h-1.5v1H147.1z"/>
</g>
<g class="st0">
	<path class="st1" d="M234,35.8c-0.2,0.7-0.5,1.4-0.9,1.9h2.1v0.7h-3.3V39c0,0.5-0.1,1-0.1,1.4h4.1V41h-3.6c0.5,1.3,1.8,2.4,3.9,3.1
		l-0.4,0.7c-2.2-0.9-3.6-2.1-4.1-3.6c-0.2,0.6-0.4,1.1-0.8,1.5c-0.7,0.9-1.8,1.6-3.3,2.1l-0.4-0.6c1.5-0.5,2.6-1.1,3.2-1.9
		c0.2-0.4,0.4-0.7,0.6-1.2h-3.6v-0.7h3.8c0.1-0.4,0.1-0.9,0.1-1.4v-0.5h-3.3v-0.7h4.6c0.4-0.6,0.7-1.3,1-2.1L234,35.8z M230.7,37.4
		l-0.6,0.3c-0.4-0.6-0.7-1.2-1.1-1.7l0.7-0.3C230,36.3,230.4,36.8,230.7,37.4z"/>
	<path class="st1" d="M239.9,39.7l-0.5,0.5c-0.4-0.5-0.9-1-1.6-1.5l0.5-0.5C238.9,38.7,239.5,39.2,239.9,39.7z M240.2,41.2
		c-0.4,1.3-0.9,2.4-1.5,3.6l-0.7-0.3c0.6-1.1,1.1-2.3,1.6-3.5L240.2,41.2z M240.3,37.3l-0.5,0.5c-0.4-0.5-1-1-1.7-1.5l0.5-0.5
		C239.2,36.4,239.8,36.8,240.3,37.3z M243.3,37.4c-0.2-0.5-0.4-1-0.7-1.5l0.7-0.2c0.3,0.6,0.5,1.1,0.6,1.6l-0.4,0.2h3v0.7H244v2.4
		h2.3v0.7H244v2.6h2.8v0.7h-6.3v-0.7h2.8v-2.6h-2.3v-0.7h2.3v-2.4h-2.6v-0.7H243.3z"/>
</g>
<g>
	<g>
		<path class="st4" d="M330.1,35.7c0.8,1.4,2.3,2.6,4.3,3.6L334,40c-1.9-1-3.3-2.2-4.2-3.6c-1.1,1.6-2.5,2.8-4.2,3.7l-0.4-0.6
			c1.9-0.9,3.3-2.2,4.3-3.7H330.1z M330.1,38.7v6.2h-0.7v-6.2H330.1z"/>
		<path class="st4" d="M340.8,37.9c0.6,2.7,2,4.8,4.3,6.2l-0.5,0.6c-2-1.3-3.4-3.1-4.1-5.4c-0.6,2.2-2,4-4.2,5.4l-0.4-0.6
			c2.7-1.7,4.2-4,4.3-6.8c0-0.7,0-1.2,0-1.6h0.7C340.9,36.6,340.8,37.3,340.8,37.9z"/>
	</g>
</g>
<g class="st0">
	<g>
		<path class="st1" d="M29.7,14.7c-0.2,0-0.3-0.1-0.4-0.2c-0.2-0.2-0.1-0.5,0.1-0.7l11.7-8.6c0.2-0.2,0.5-0.1,0.7,0.1
			C42,5.5,41.9,5.8,41.7,6L30,14.6C29.9,14.6,29.8,14.7,29.7,14.7z"/>
	</g>
	<g>
		<path class="st1" d="M53.1,14.7c-0.1,0-0.2,0-0.3-0.1L41.1,6c-0.2-0.2-0.3-0.5-0.1-0.7C41.2,5,41.5,5,41.7,5.2l11.7,8.6
			c0.2,0.2,0.3,0.5,0.1,0.7C53.4,14.6,53.3,14.7,53.1,14.7z"/>
	</g>
	<g>
		<path class="st1" d="M36,26.4h-4.9c-1.1,0-2-0.9-2-2V14.2c0-0.3,0.2-0.5,0.5-0.5s0.5,0.2,0.5,0.5v10.3c0,0.5,0.4,1,1,1H36
			c0.5,0,1-0.4,1-1v-3c0-0.5,0.2-1,0.6-1.4c0.4-0.4,0.8-0.6,1.4-0.6c0,0,0,0,0,0l6.2,0c0.3,0,0.5,0.2,0.5,0.5c0,0.3-0.2,0.5-0.5,0.5
			c0,0,0,0,0,0l-6.2,0c0,0,0,0,0,0c-0.2,0-0.5,0.1-0.6,0.3C38.1,21,38,21.2,38,21.4v3C38,25.5,37.1,26.4,36,26.4z"/>
	</g>
	<g>
		<path class="st1" d="M51.7,26.4h-4.9c-1.1,0-2-0.9-2-2V20c0-0.3,0.2-0.5,0.5-0.5c0.3,0,0.5,0.2,0.5,0.5v4.4c0,0.5,0.4,1,1,1h4.9
			c0.5,0,1-0.4,1-1V14.2c0-0.3,0.2-0.5,0.5-0.5c0.3,0,0.5,0.2,0.5,0.5v10.3C53.6,25.5,52.7,26.4,51.7,26.4z"/>
	</g>
	<g>
		<path class="st5" d="M45.3,19.6"/>
	</g>
</g>
</svg>
