<!-- Generator: Adobe Illustrator 21.0.0, SVG Export Plug-In  -->
<svg version="1.1"
	 xmlns="http://www.w3.org/2000/svg" xmlns:xlink="http://www.w3.org/1999/xlink" xmlns:a="http://ns.adobe.com/AdobeSVGViewerExtensions/3.0/"
	 x="0px" y="0px" width="183.8px" height="38.4px" viewBox="0 0 183.8 38.4" style="enable-background:new 0 0 183.8 38.4;"
	 xml:space="preserve">
<style type="text/css">
	.st0{fill:#666666;}
</style>
<defs>
</defs>
<g>
	<g>
		<path d="M84.9,16.2c-1.3,4.3-3,7.9-5.1,10.9c0.5,1.2,1.1,2.3,1.7,3.2c1.2,1.6,2.1,2.4,2.8,2.4c0.7,0,1.3-1.8,1.8-5.2l1.6,0.8
			c-0.7,4.2-1.7,6.2-3.1,6.2c-1.3,0-2.8-1-4.3-2.9c-0.7-0.9-1.3-1.9-1.8-3.1c-2.3,2.8-5.1,4.9-8.2,6.3l-1-1.5
			c3.3-1.5,6.1-3.6,8.4-6.6c-0.5-1.2-0.9-2.5-1.2-3.9c-0.7-2.8-1.1-6.2-1.3-10.3H63.7v5.8h7.8c0,5.1-0.2,8.4-0.6,10
			c-0.4,1.4-1.3,2.2-2.8,2.2c-0.8,0-1.7,0-2.8-0.1L64.8,29c1.2,0.1,2.3,0.1,3.2,0.1c0.8-0.1,1.3-0.6,1.5-1.7
			c0.2-1.3,0.3-3.7,0.3-7.4h-6.1v1.5C63.6,27.1,62.4,31.6,60,35l-1.3-1.2c2.1-2.9,3.2-7,3.3-12.3V10.9h13.2
			c-0.1-1.7-0.1-3.4-0.1-5.2h1.7c0,1.9,0.1,3.6,0.1,5.2h10.1v1.6H77c0.2,4.2,0.6,7.5,1.3,9.9c0.3,1,0.5,1.8,0.8,2.6
			c1.8-2.7,3.2-5.9,4.3-9.6L84.9,16.2z M84.6,9.5l-1.2,1.1c-1-1.2-2.3-2.4-4-3.7l1.1-1.1C82.2,7.1,83.5,8.3,84.6,9.5z"/>
		<path d="M94.7,24C94,26.9,93,29.4,92,31.5L90.5,31c1-2,2-4.4,2.7-7.4L94.7,24z M97.6,9.3c-0.5-1.2-1.1-2.2-1.7-3.2l1.8-0.3
			c0.6,1,1.1,2.2,1.6,3.5h6v1.6H90.9V9.3H97.6z M103.6,13.9v7.6h-4.7v10.8c0,1.5-0.7,2.3-2.2,2.3h-2.5l-0.4-1.6
			c0.8,0.1,1.5,0.1,2.2,0.1c0.7,0,1.1-0.4,1.1-1.3V21.6h-4.9v-7.6H103.6z M102,15.4h-8v4.6h8V15.4z M104.6,29.4l-1.4,0.5
			c-0.6-2-1.3-4.1-2.2-6l1.5-0.4C103.4,25.7,104.1,27.6,104.6,29.4z M114.7,34.5c-1.4,0-2.1-0.8-2.1-2.3V15.2h-2.2
			c-0.2,8.8-2.2,15.3-5.9,19.4l-1.2-1.1c3.5-3.9,5.3-10,5.5-18.4h-3.3v-1.6h3.3V5.9h1.6v7.6h8.3v1.6h-4.5v16.8c0,0.6,0.3,1,1,1h1.2
			c0.5,0,0.8-0.3,1-0.7c0.3-0.6,0.4-2.5,0.5-5.6l1.5,0.5c-0.2,3.5-0.5,5.6-0.9,6.5c-0.4,0.6-1,1-1.9,1H114.7z M117.7,11.1l-1.3,0.9
			c-0.9-1.5-2.1-3.1-3.6-4.9l1.3-0.8C115.7,8.1,116.8,9.7,117.7,11.1z"/>
		<path d="M137.9,5.7v5.9h11.6v14.7h-1.8v-2.1h-9.8v11.1h-1.8V24.2h-9.8v2.1h-1.8V11.6h11.6V5.7H137.9z M136.1,22.5v-9.2h-9.8v9.2
			H136.1z M147.7,22.5v-9.2h-9.8v9.2H147.7z"/>
		<path d="M159.9,16.4c-0.9,5.3-2.2,9.9-3.9,13.8l-1.5-1c1.7-3.9,2.9-8.3,3.7-13.2L159.9,16.4z M165.8,34c-2,0-3-1-3-2.9V12.5h1.8
			v18.2c0,1,0.6,1.5,1.8,1.5h6.3c0.9,0,1.5-0.3,1.9-0.9c0.4-0.8,0.8-3.1,0.9-7l1.6,0.5c-0.2,4.3-0.6,6.9-1.3,7.9
			c-0.6,0.8-1.5,1.2-2.8,1.2H165.8z M173.5,14l-1.5,1c-1.7-2.4-4-5.1-7-8.1l1.4-0.9C169.5,9.1,171.9,11.8,173.5,14z M183.8,28
			l-1.6,0.7c-1.7-5-3.7-9.3-5.8-13.2l1.7-0.6C180.3,19.1,182.2,23.4,183.8,28z"/>
	</g>
	<g>
		<path class="st0" d="M12.5,14.3l-9-5.9V0h17.9v8.3L12.5,14.3z M4.7,7.7l7.7,5.1l7.7-5.2V1.2H4.7V7.7z"/>
	</g>
	<g>
		<path class="st0" d="M12.5,38.4C5.6,38.4,0,32.8,0,25.9s5.6-12.5,12.5-12.5S24.9,19,24.9,25.9S19.3,38.4,12.5,38.4z M12.5,14.7
			c-6.2,0-11.2,5-11.2,11.2s5,11.2,11.2,11.2c6.2,0,11.2-5,11.2-11.2S18.6,14.7,12.5,14.7z"/>
	</g>
	<g>
		<path class="st0" d="M7.3,33.8c-0.1,0-0.3,0-0.4-0.1c-0.2-0.2-0.3-0.4-0.2-0.7l1.8-5.7l-4.9-3.5c-0.2-0.2-0.3-0.4-0.2-0.7
			c0.1-0.3,0.3-0.4,0.6-0.4l6-0.1l1.8-5.7c0.1-0.3,0.3-0.4,0.6-0.4c0.3,0,0.5,0.2,0.6,0.4l1.9,5.7l6-0.1c0.3,0,0.5,0.2,0.6,0.4
			c0.1,0.3,0,0.5-0.2,0.7l-4.8,3.6l1.9,5.7c0.1,0.3,0,0.5-0.2,0.7c-0.2,0.2-0.5,0.2-0.7,0l-4.9-3.5l-4.8,3.6
			C7.6,33.8,7.4,33.8,7.3,33.8z M5.9,23.8l3.7,2.6c0.2,0.2,0.3,0.4,0.2,0.7l-1.4,4.3l3.7-2.7c0.2-0.2,0.5-0.2,0.7,0l3.7,2.6
			l-1.5-4.3c-0.1-0.3,0-0.5,0.2-0.7l3.7-2.7l-4.6,0.1c0,0,0,0,0,0c-0.3,0-0.5-0.2-0.6-0.4L12.4,19L11,23.4c-0.1,0.3-0.3,0.4-0.6,0.4
			L5.9,23.8z"/>
	</g>
</g>
</svg>
