<!-- Generator: Adobe Illustrator 21.0.0, SVG Export Plug-In  -->
<svg version="1.1"
	 xmlns="http://www.w3.org/2000/svg" xmlns:xlink="http://www.w3.org/1999/xlink" xmlns:a="http://ns.adobe.com/AdobeSVGViewerExtensions/3.0/"
	 x="0px" y="0px" width="752.5px" height="131.9px" viewBox="0 0 752.5 131.9" style="enable-background:new 0 0 752.5 131.9;"
	 xml:space="preserve">
<style type="text/css">
	.st0{fill:#141A28;}
	.st1{clip-path:url(#SVGID_2_);}
	.st2{clip-path:url(#SVGID_4_);fill:#FFFFFF;}
	.st3{clip-path:url(#SVGID_6_);}
	.st4{clip-path:url(#SVGID_8_);fill:#FFFFFF;}
	.st5{clip-path:url(#SVGID_10_);}
	.st6{clip-path:url(#SVGID_12_);fill:#FFFFFF;}
	.st7{fill:#FFFFFF;}
	.st8{clip-path:url(#SVGID_14_);}
	.st9{clip-path:url(#SVGID_16_);fill:#FFFFFF;}
	.st10{clip-path:url(#SVGID_18_);}
	.st11{clip-path:url(#SVGID_20_);fill:#FFFFFF;}
	.st12{clip-path:url(#SVGID_22_);}
	.st13{clip-path:url(#SVGID_24_);fill:#FFFFFF;}
</style>
<defs>
</defs>
<rect class="st0" width="752.5" height="131.9"/>
<g>
	<defs>
		<path id="SVGID_1_" d="M692.6,17.7h38.6c0.5,0,1,0.4,1,1v12.9c0,0.5-0.4,1-1,1h-38.6c-0.5,0-1-0.4-1-1V18.7
			C691.6,18.1,692.1,17.7,692.6,17.7z M692.6,16.7c-1.1,0-2,0.9-2,2v12.8c0,1.1,0.9,2,2,2h38.6c1.1,0,2-0.9,2-2V18.7
			c0-1.1-0.9-2-2-2H692.6z M735.1,21.7h1.5c0.8,0,1.5,0.7,1.5,1.5v4c0,0.8-0.7,1.5-1.5,1.5h-1.5V21.7z M692.6,15.7h38.6
			c1.6,0,3,1.3,3,3v12.8c0,1.7-1.3,3-3,3h-38.6c-1.6,0-3-1.3-3-3V18.7C689.6,17.1,691,15.7,692.6,15.7z"/>
	</defs>
	<clipPath id="SVGID_2_">
		<use xlink:href="#SVGID_1_"  style="overflow:visible;"/>
	</clipPath>
	<g class="st1">
		<defs>
			<rect id="SVGID_3_" x="7" y="4.9" width="742" height="39.6"/>
		</defs>
		<clipPath id="SVGID_4_">
			<use xlink:href="#SVGID_3_"  style="overflow:visible;"/>
		</clipPath>
		<rect x="679.7" y="5.8" class="st2" width="68.3" height="38.6"/>
	</g>
</g>
<g>
	<defs>
		<path id="SVGID_5_" d="M205.9,21.1l-2.2,2.1c-2.7-2.8-6.5-4.5-10.7-4.5c-4.2,0-8,1.7-10.7,4.4l-2.2-2.1c3.2-3.3,7.8-5.3,12.8-5.3
			C198,15.7,202.6,17.8,205.9,21.1z M201.5,25.3L201.5,25.3l-2.2,2.1c-1.6-1.7-3.9-2.8-6.4-2.8c-2.5,0-4.8,1-6.4,2.7l-2.2-2.1
			c2.1-2.2,5.2-3.6,8.5-3.6C196.4,21.6,199.4,23,201.5,25.3z M197.2,29.5l-4.2,4.1l-4.3-4.1c1-1.1,2.5-1.9,4.2-1.9
			C194.7,27.5,196.2,28.3,197.2,29.5z"/>
	</defs>
	<clipPath id="SVGID_6_">
		<use xlink:href="#SVGID_5_"  style="overflow:visible;"/>
	</clipPath>
	<g class="st3">
		<defs>
			<rect id="SVGID_7_" x="7" y="4.9" width="742" height="39.6"/>
		</defs>
		<clipPath id="SVGID_8_">
			<use xlink:href="#SVGID_7_"  style="overflow:visible;"/>
		</clipPath>
		<rect x="170.2" y="5.8" class="st4" width="45.5" height="37.6"/>
	</g>
</g>
<g>
	<defs>
		<path id="SVGID_9_" d="M80.7,30.6c-3,0-5.4-2.4-5.4-5.4s2.4-5.4,5.4-5.4c3,0,5.4,2.4,5.4,5.4S83.7,30.6,80.7,30.6z M66.9,30.6
			c-3,0-5.4-2.4-5.4-5.4s2.4-5.4,5.4-5.4c3,0,5.4,2.4,5.4,5.4S69.9,30.6,66.9,30.6z M53,30.6c-3,0-5.4-2.4-5.4-5.4s2.4-5.4,5.4-5.4
			c3,0,5.4,2.4,5.4,5.4S56,30.6,53,30.6z M39.2,30.6c-3,0-5.4-2.4-5.4-5.4s2.4-5.4,5.4-5.4s5.4,2.4,5.4,5.4S42.2,30.6,39.2,30.6z
			 M25.3,30.6c-3,0-5.4-2.4-5.4-5.4s2.4-5.4,5.4-5.4s5.4,2.4,5.4,5.4S28.3,30.6,25.3,30.6z"/>
	</defs>
	<clipPath id="SVGID_10_">
		<use xlink:href="#SVGID_9_"  style="overflow:visible;"/>
	</clipPath>
	<g class="st5">
		<defs>
			<rect id="SVGID_11_" x="7" y="4.9" width="742" height="39.6"/>
		</defs>
		<clipPath id="SVGID_12_">
			<use xlink:href="#SVGID_11_"  style="overflow:visible;"/>
		</clipPath>
		<rect x="10" y="9.8" class="st6" width="86.1" height="30.7"/>
	</g>
</g>
<g>
	<path class="st7" d="M104.3,30.9c0,0.8,0,1.4,0,2c0,0.5,0.1,1,0.1,1.4H103c0-0.4,0.1-0.9,0.1-1.4c0-0.5,0-1.2,0-2v-2.8h-4.9v1.6H97
		c0-0.4,0.1-0.8,0.1-1.2c0-0.4,0-0.8,0-1.2v-4.3c0-0.3,0-0.6,0-1c0-0.3-0.1-0.6-0.1-0.9c0.5,0.1,1.2,0.1,2.2,0.1
		c1,0,2.3,0.1,3.9,0.1V20c0-0.4,0-0.9,0-1.3s-0.1-0.8-0.1-1.2c0.3,0.1,0.5,0.1,0.8,0.1c0.3,0,0.5,0,0.7,0c0.2,0,0.3,0,0.3,0.1
		c0,0.1-0.1,0.2-0.3,0.3c-0.1,0.1-0.1,0.1-0.2,0.2s-0.1,0.3-0.1,0.5v2.4c1.6,0,2.9,0,3.9-0.1c1,0,1.7-0.1,2.2-0.1c0,0.1,0,0.3,0,0.5
		c0,0.2,0,0.4,0,0.6c0,0.2,0,0.4,0,0.6s0,0.4,0,0.5V27c0,0.4,0,0.8,0,1.3c0,0.5,0,0.9,0.1,1.3h-1.2v-1.4h-4.8V30.9z M103.2,22.2
		h-4.9v5h4.9V22.2z M104.3,27.2h4.8v-5h-4.8V27.2z"/>
	<path class="st7" d="M116.1,34H115c0.1-1,0.1-2,0.1-3V21c0-0.4,0-0.7,0-1.1c0-0.3,0-0.7-0.1-1.1c0.2,0,0.4,0,0.6,0s0.6,0,1.1,0
		c0.5,0,1.1,0,1.9,0s1.8,0,3.1,0s2.3,0,3.1,0s1.4,0,1.9,0c0.5,0,0.8,0,1.1,0s0.5,0,0.6,0c0,0.4,0,0.8,0,1.1s0,0.7,0,1v9.8
		c0,0.5,0,1.1,0,1.5c0,0.5,0,1,0.1,1.5h-1.2v-1.1h-11.1V34z M127.2,19.8h-11.1v12h11.1V19.8z M122.1,24.9c0.4,0,0.8,0,1.2,0
		c0.3,0,0.7,0,1,0s0.6,0,0.8,0s0.5,0,0.8-0.1v1.1c-0.3,0-0.5,0-0.8-0.1c-0.3,0-0.5,0-0.8,0c-0.3,0-0.6,0-1,0c-0.3,0-0.7,0-1.2,0v3.4
		c0.9,0,1.8,0,2.6,0c0.8,0,1.4-0.1,1.9-0.1v1.1c-0.5,0-1.2-0.1-2.1-0.1c-0.8,0-1.8,0-2.8,0c-1,0-1.9,0-2.8,0c-0.8,0-1.5,0.1-2.1,0.1
		V29c0.5,0,1,0.1,1.7,0.1c0.7,0,1.5,0,2.3,0.1v-3.4c-0.4,0-0.7,0-1,0c-0.3,0-0.6,0-0.9,0c-0.3,0-0.5,0-0.8,0c-0.2,0-0.5,0-0.7,0.1
		v-1.1c0.2,0,0.5,0,0.7,0.1s0.5,0,0.8,0c0.3,0,0.6,0,0.9,0c0.3,0,0.7,0,1,0v-2.7c-0.8,0-1.5,0-2,0s-1.1,0.1-1.5,0.1v-1.1
		c0.3,0,0.5,0,0.8,0.1s0.6,0,0.9,0s0.7,0,1.1,0s0.9,0,1.4,0c0.5,0,1,0,1.4,0c0.4,0,0.8,0,1.1,0s0.6,0,0.9,0c0.3,0,0.6,0,0.8-0.1v1.1
		c-0.5,0-1-0.1-1.6-0.1c-0.6,0-1.3,0-2.2,0V24.9z M125,28.8c-0.3-0.4-0.5-0.7-0.8-1s-0.7-0.6-1.1-0.9l0.7-0.6
		c0.4,0.3,0.7,0.6,1.1,0.9c0.3,0.3,0.7,0.6,1,1L125,28.8z"/>
	<path class="st7" d="M135,20.1c-0.2,0-0.4,0.1-0.6,0.1c-0.2,0-0.4,0.1-0.7,0.1c-0.2,0-0.4,0.1-0.6,0.1c-0.2,0-0.4,0-0.5,0.1
		c-0.1-0.2-0.1-0.4-0.2-0.6c-0.1-0.1-0.2-0.3-0.3-0.5c1.2,0,2.3-0.1,3.3-0.3s1.8-0.4,2.5-0.8c0.1,0.2,0.2,0.4,0.3,0.5
		c0.1,0.1,0.2,0.2,0.4,0.4c0.1,0.1,0.1,0.1,0.2,0.2s0.1,0.1,0,0.2c0,0-0.1,0.1-0.1,0.1s-0.2,0-0.3,0c0,0-0.1,0-0.3,0
		c-0.1,0-0.3,0-0.5,0s-0.4,0-0.7,0.1c-0.2,0-0.5,0.1-0.7,0.1v3.3c0.5,0,1,0,1.4,0c0.4,0,0.8-0.1,1.1-0.1v1.1c-0.3,0-0.7-0.1-1.1-0.1
		c-0.4,0-0.9,0-1.4,0v1.1c0.5,0.4,1,0.8,1.4,1.3c0.5,0.5,0.8,0.9,1.2,1.3l-1,0.8c-0.2-0.4-0.5-0.8-0.7-1.1c-0.2-0.3-0.6-0.7-0.9-1.1
		v4.8c0,0.4,0,0.9,0,1.5c0,0.5,0.1,1.1,0.1,1.6h-1.3c0-0.5,0.1-1.1,0.1-1.6c0-0.5,0-1,0-1.5v-4.9c-0.3,0.9-0.7,1.7-1.1,2.4
		s-0.8,1.5-1.4,2.3c-0.1-0.2-0.3-0.3-0.5-0.5c-0.2-0.1-0.4-0.3-0.6-0.4c0.7-0.7,1.4-1.6,2-2.6c0.6-1,1.1-2.1,1.6-3.4
		c-0.7,0-1.4,0-1.8,0c-0.5,0-0.9,0.1-1.3,0.1v-1.1c0.4,0,0.8,0.1,1.3,0.1c0.5,0,1.1,0,1.8,0V20.1z M144.1,30.7c0.5-0.5,1-1,1.4-1.5
		c0.4-0.5,0.7-1.1,1-1.8H143c-0.5,0.6-1.1,1.1-1.8,1.7c-0.7,0.5-1.4,1-2.1,1.3c-0.2-0.4-0.5-0.7-0.9-1c0.7-0.2,1.3-0.5,1.9-0.9
		c0.6-0.4,1.1-0.7,1.5-1.2c0.4-0.4,0.8-0.8,1-1.2c0.3-0.4,0.5-0.9,0.8-1.4c0.3,0.2,0.7,0.4,1.1,0.5c0.1,0,0.2,0.1,0.2,0.2
		c0,0.1-0.1,0.2-0.2,0.2c-0.1,0-0.2,0.1-0.4,0.3s-0.3,0.3-0.5,0.6h1.6c0.7,0,1.3,0,1.7,0s0.8,0,0.9-0.1c-0.1,0.5-0.3,1-0.5,1.4
		c-0.2,0.4-0.4,0.9-0.7,1.3c-0.3,0.4-0.6,0.8-0.9,1.2c-0.3,0.4-0.7,0.8-1.2,1.1c-0.4,0.4-0.9,0.7-1.3,0.9s-0.9,0.5-1.4,0.7
		s-1.1,0.4-1.7,0.5s-1.3,0.3-2.2,0.4c-0.1-0.3-0.1-0.5-0.2-0.7c-0.1-0.2-0.2-0.4-0.4-0.5c1.2-0.1,2.3-0.3,3.3-0.6
		c1-0.3,1.9-0.6,2.5-1c-0.2-0.3-0.5-0.6-0.8-0.9s-0.6-0.6-0.9-0.8l0.8-0.8c0.3,0.3,0.7,0.7,0.9,1C143.6,30,143.9,30.4,144.1,30.7z
		 M143.1,23.6c0.4-0.4,0.8-0.8,1.2-1.2c0.4-0.4,0.7-0.9,1-1.4h-4.3c-0.1,0.2-0.3,0.4-0.4,0.6c-0.1,0.2-0.3,0.4-0.4,0.5
		c-0.1,0.2-0.3,0.3-0.5,0.5c-0.2,0.2-0.4,0.4-0.6,0.6c-0.1-0.1-0.2-0.3-0.4-0.4c-0.2-0.1-0.3-0.2-0.5-0.3c0.4-0.3,0.8-0.6,1.2-1
		c0.3-0.4,0.7-0.8,0.9-1.2s0.5-0.8,0.7-1.3s0.3-0.8,0.4-1.2c0.3,0.2,0.7,0.3,1.2,0.3c0.1,0,0.2,0.1,0.2,0.1c0,0.1,0,0.2-0.2,0.2
		c-0.1,0.1-0.2,0.2-0.4,0.4c-0.2,0.2-0.4,0.6-0.7,1.2h2.2c0.4,0,0.8,0,1.1,0c0.3,0,0.7,0,0.9,0s0.5,0,0.7,0c0.2,0,0.3,0,0.4,0
		c-0.2,0.5-0.4,0.9-0.6,1.3c-0.2,0.4-0.4,0.7-0.6,1.1s-0.5,0.6-0.8,1c-0.3,0.3-0.7,0.7-1.1,1.1c-0.6,0.5-1.2,1-2,1.5
		c-0.8,0.5-1.7,0.9-2.6,1.4c-0.2-0.4-0.5-0.8-0.9-1c0.9-0.3,1.7-0.6,2.4-1c0.7-0.3,1.3-0.7,1.8-1c-0.3-0.3-0.5-0.6-0.8-0.8
		c-0.2-0.2-0.5-0.5-0.9-0.7l0.7-0.8c0.3,0.3,0.7,0.6,0.9,0.9S142.8,23.3,143.1,23.6z"/>
	<path class="st7" d="M152.8,24.7c-0.6,0-1.2,0-1.7,0s-0.9,0.1-1.3,0.1v-1.2c0.5,0.1,1,0.1,1.7,0.1c0.7,0,1.4,0,2.3,0
		c0.9,0,1.6,0,2.3,0c0.7,0,1.3-0.1,1.7-0.1v1.2c-0.4-0.1-1-0.1-1.7-0.1c-0.7,0-1.4,0-2.2,0c-0.2,0.5-0.4,1-0.5,1.5
		c-0.2,0.5-0.4,0.9-0.5,1.4c-0.2,0.4-0.4,0.9-0.6,1.3c-0.2,0.4-0.4,0.9-0.7,1.4l4.8-0.6c-0.5-1-1.1-2-1.8-3.1l0.9-0.6
		c0.5,0.8,1,1.7,1.5,2.5c0.4,0.8,0.9,1.7,1.3,2.7l-1.1,0.6c-0.1-0.2-0.1-0.4-0.2-0.6c-0.1-0.2-0.1-0.4-0.2-0.6l-3,0.5
		c-0.8,0.1-1.5,0.2-2,0.4c-0.5,0.1-1,0.3-1.4,0.4c-0.1-0.5-0.3-1-0.6-1.3c0.2,0,0.3-0.1,0.5-0.1c0.1-0.1,0.3-0.2,0.4-0.4
		c0.1-0.2,0.3-0.4,0.4-0.7c0.1-0.3,0.3-0.7,0.5-1.2c0.2-0.4,0.3-0.8,0.4-1.1s0.2-0.6,0.3-0.9c0.1-0.3,0.2-0.5,0.2-0.7
		C152.7,25.1,152.8,24.9,152.8,24.7z M157.4,20.8c-0.4,0-0.9-0.1-1.4-0.1c-0.6,0-1.2,0-1.9,0c-0.7,0-1.3,0-1.9,0
		c-0.6,0-1.1,0.1-1.4,0.1v-1.2c0.4,0,0.9,0.1,1.4,0.1c0.6,0,1.2,0,1.9,0c0.7,0,1.3,0,1.9,0c0.6,0,1-0.1,1.4-0.1V20.8z M161.8,22.5
		c0,1.6-0.1,3-0.2,4.1c-0.1,1.2-0.3,2.2-0.6,3.1s-0.7,1.7-1.2,2.4c-0.5,0.7-1.1,1.4-1.9,2.1c-0.3-0.3-0.7-0.6-1.2-0.8
		c0.8-0.6,1.5-1.2,2.1-1.8c0.5-0.7,0.9-1.4,1.2-2.3s0.5-1.8,0.6-3c0.1-1.1,0.2-2.4,0.2-3.9c-0.3,0-0.6,0-0.9,0c-0.3,0-0.6,0-0.9,0
		c-0.3,0-0.5,0-0.7,0.1c-0.2,0-0.4,0-0.5,0v-1.2c0.3,0,0.7,0.1,1.2,0.1c0.5,0,1.1,0,1.8,0c0-0.6,0-1.1,0-1.6s0-0.8,0-1.1
		c0-0.3,0-0.5,0-0.7s0-0.3-0.1-0.5c0.2,0.1,0.5,0.1,0.7,0.1c0.2,0,0.5,0,0.7,0c0.2,0,0.3,0,0.3,0.1s0,0.2-0.2,0.3
		c-0.1,0-0.1,0.1-0.2,0.2s-0.1,0.2-0.1,0.5c0,0.2,0,0.5-0.1,0.9c0,0.4,0,0.9,0,1.6c0.8,0,1.6,0,2.3,0c0.7,0,1.1-0.1,1.4-0.1
		l-0.3,9.9c0,0.5-0.1,0.9-0.1,1.2c-0.1,0.3-0.2,0.6-0.5,0.7c-0.2,0.2-0.6,0.3-1,0.4c-0.4,0.1-1,0.2-1.8,0.3c0-0.3-0.1-0.6-0.2-0.8
		c-0.1-0.2-0.2-0.5-0.4-0.7c0.6,0.1,1.1,0.1,1.5,0.1s0.7,0,0.9-0.1s0.3-0.2,0.4-0.5c0.1-0.2,0.1-0.5,0.1-0.9l0.3-8.6H161.8z"/>
</g>
<g>
	<path class="st7" d="M347.1,31.6l-1.1-0.7l3.5-5.3c-0.5,0.2-0.9,0.2-1.3,0.2c-1,0-1.9-0.4-2.6-1.1c-0.7-0.7-1.1-1.7-1.1-2.8
		s0.4-2,1.2-2.8c0.8-0.8,1.7-1.1,2.9-1.1s2.1,0.4,2.8,1.2c0.7,0.8,1.1,1.7,1.1,2.8c0,0.6-0.1,1.2-0.4,1.8c-0.2,0.6-0.6,1.3-1.1,2
		L347.1,31.6z M345.8,22c0,0.8,0.3,1.4,0.8,1.9c0.5,0.5,1.2,0.8,1.9,0.8c0.8,0,1.4-0.3,1.9-0.8c0.5-0.5,0.8-1.2,0.8-1.9
		c0-0.7-0.3-1.4-0.8-1.9c-0.5-0.5-1.2-0.8-1.9-0.8c-0.8,0-1.4,0.3-1.9,0.8C346.1,20.6,345.8,21.3,345.8,22z"/>
	<path class="st7" d="M355.3,22.6c0-0.3,0.1-0.6,0.3-0.8c0.2-0.2,0.5-0.3,0.8-0.3s0.5,0.1,0.8,0.3c0.2,0.2,0.3,0.5,0.3,0.8
		c0,0.3-0.1,0.6-0.3,0.8s-0.5,0.3-0.8,0.3c-0.3,0-0.6-0.1-0.8-0.3S355.3,22.9,355.3,22.6z M355.3,30.5c0-0.3,0.1-0.6,0.3-0.8
		s0.5-0.3,0.8-0.3s0.5,0.1,0.8,0.3c0.2,0.2,0.3,0.5,0.3,0.8c0,0.3-0.1,0.6-0.3,0.8c-0.2,0.2-0.5,0.3-0.8,0.3s-0.5-0.1-0.8-0.3
		C355.4,31,355.3,30.8,355.3,30.5z"/>
	<path class="st7" d="M363.6,31.6c-1.4,0-2.5-0.6-3.2-1.7s-1.1-2.8-1.1-5.1c0-2.2,0.4-3.9,1.1-5.1s1.8-1.7,3.2-1.7
		c1.4,0,2.5,0.6,3.3,1.8c0.8,1.2,1.2,2.8,1.2,5c0,2.2-0.4,3.9-1.2,5S364.9,31.6,363.6,31.6z M363.6,19.3c-1,0-1.8,0.5-2.3,1.4
		c-0.6,1-0.8,2.3-0.8,4.2c0,3.7,1,5.6,3.2,5.6c1,0,1.8-0.5,2.4-1.5s0.9-2.4,0.9-4.1c0-1.8-0.3-3.2-0.9-4.1
		C365.4,19.8,364.6,19.3,363.6,19.3z"/>
	<path class="st7" d="M373.5,31.6c-1.4,0-2.5-0.6-3.2-1.7s-1.1-2.8-1.1-5.1c0-2.2,0.4-3.9,1.1-5.1s1.8-1.7,3.2-1.7
		c1.4,0,2.5,0.6,3.3,1.8c0.8,1.2,1.2,2.8,1.2,5c0,2.2-0.4,3.9-1.2,5S374.9,31.6,373.5,31.6z M373.6,19.3c-1,0-1.8,0.5-2.3,1.4
		c-0.6,1-0.8,2.3-0.8,4.2c0,3.7,1,5.6,3.2,5.6c1,0,1.8-0.5,2.4-1.5s0.9-2.4,0.9-4.1c0-1.8-0.3-3.2-0.9-4.1
		C375.3,19.8,374.6,19.3,373.6,19.3z"/>
	<path class="st7" d="M394.5,17.9l6,13.4h-1.4l-2-4.4h-5.6l-2,4.4H388l6.1-13.4H394.5z M394.3,20.7l-2.2,4.9h4.4L394.3,20.7z"/>
	<path class="st7" d="M401.9,31.3l1.8-12.9h0.2l5.3,10.6l5.2-10.6h0.2l1.9,12.9h-1.3l-1.3-9.3l-4.6,9.3H409l-4.6-9.3l-1.3,9.3H401.9
		z"/>
</g>
<g>
	<path class="st7" d="M643,18.4h2.5v12.9h-1.3V19.6h-2L643,18.4z"/>
	<path class="st7" d="M654.6,31.6c-1.4,0-2.5-0.6-3.2-1.7s-1.1-2.8-1.1-5.1c0-2.2,0.4-3.9,1.1-5.1s1.8-1.7,3.2-1.7
		c1.4,0,2.5,0.6,3.3,1.8c0.8,1.2,1.2,2.8,1.2,5c0,2.2-0.4,3.9-1.2,5S655.9,31.6,654.6,31.6z M654.6,19.3c-1,0-1.8,0.5-2.3,1.4
		c-0.6,1-0.8,2.3-0.8,4.2c0,3.7,1,5.6,3.2,5.6c1,0,1.8-0.5,2.4-1.5s0.9-2.4,0.9-4.1c0-1.8-0.3-3.2-0.9-4.1
		C656.4,19.8,655.6,19.3,654.6,19.3z"/>
	<path class="st7" d="M664.5,31.6c-1.4,0-2.5-0.6-3.2-1.7s-1.1-2.8-1.1-5.1c0-2.2,0.4-3.9,1.1-5.1s1.8-1.7,3.2-1.7
		c1.4,0,2.5,0.6,3.3,1.8c0.8,1.2,1.2,2.8,1.2,5c0,2.2-0.4,3.9-1.2,5S665.9,31.6,664.5,31.6z M664.6,19.3c-1,0-1.8,0.5-2.3,1.4
		c-0.6,1-0.8,2.3-0.8,4.2c0,3.7,1,5.6,3.2,5.6c1,0,1.8-0.5,2.4-1.5s0.9-2.4,0.9-4.1c0-1.8-0.3-3.2-0.9-4.1
		C666.4,19.8,665.6,19.3,664.6,19.3z"/>
	<path class="st7" d="M681.7,17.8l-9.4,14.4h-1.2l8.6-13.1c-0.7,0.2-1.4,0.3-2.1,0.3c-0.7,0-1.3,0.1-1.6,0.1l-0.5,0
		c0.4,0.5,0.5,1,0.5,1.6c0,0.9-0.3,1.6-0.9,2.2c-0.6,0.6-1.3,0.9-2.2,0.9c-0.9,0-1.6-0.3-2.2-0.9c-0.6-0.6-0.9-1.3-0.9-2.2
		s0.3-1.6,0.9-2.2c0.6-0.6,1.3-0.9,2.1-0.9c0.3,0,0.8,0.1,1.4,0.2c0.6,0.1,1.3,0.2,2.2,0.2c1.4,0,2.8-0.2,4.1-0.6H681.7z M675,21.1
		c0-0.5-0.2-1-0.6-1.4c-0.4-0.4-0.8-0.6-1.4-0.6c-0.5,0-1,0.2-1.4,0.6s-0.6,0.8-0.6,1.4c0,0.5,0.2,1,0.6,1.4
		c0.4,0.4,0.8,0.6,1.4,0.6c0.5,0,1-0.2,1.4-0.6C674.8,22.1,675,21.6,675,21.1z M677.1,28.6c0-0.8,0.3-1.5,0.9-2.1
		c0.6-0.6,1.3-0.9,2.1-0.9s1.5,0.3,2.1,0.9c0.6,0.6,0.9,1.3,0.9,2.2s-0.3,1.6-0.9,2.2c-0.6,0.6-1.3,0.9-2.1,0.9s-1.5-0.3-2.1-0.9
		C677.4,30.2,677.1,29.5,677.1,28.6z M682,28.6c0-0.5-0.2-1-0.6-1.4s-0.8-0.6-1.4-0.6s-1,0.2-1.4,0.6s-0.6,0.8-0.6,1.4
		c0,0.5,0.2,1,0.6,1.4c0.4,0.4,0.8,0.6,1.4,0.6s1-0.2,1.4-0.6C681.9,29.6,682,29.2,682,28.6z"/>
</g>
<g>
	<path class="st7" d="M330,73.6c3,5,8.2,9.3,15.5,13.1L344,89c-6.8-3.5-11.8-7.8-15.2-13c-4,5.7-9,10.1-15.2,13.2l-1.5-2.3
		c6.7-3.4,11.9-7.8,15.5-13.2H330z M330.2,84.2v22.3h-2.7V84.2H330.2z"/>
	<path class="st7" d="M365.9,81.6c2,9.8,7.2,17.3,15.6,22.4l-1.7,2.3c-7.3-4.8-12.3-11.3-14.9-19.4c-2.2,7.8-7.3,14.3-15.3,19.5
		l-1.6-2.3c9.9-6.1,15-14.3,15.3-24.7c0-2.4,0.1-4.4,0.1-5.7h2.6C366.2,76.7,366,79.4,365.9,81.6z"/>
	<path class="st7" d="M402.2,73.4v6.5h12.9v16.9h-2.6v-2.3h-10.3v12.3h-2.7V94.5h-10.3v2.3h-2.6V79.9h12.9v-6.5H402.2z M399.5,92
		v-9.6h-10.3V92H399.5z M412.5,92v-9.6h-10.3V92H412.5z"/>
	<path class="st7" d="M426.9,85.4c-1,6.2-2.4,11.5-4.3,16l-2.2-1.4c1.9-4.6,3.2-9.6,4.1-15.1L426.9,85.4z M433.4,105.4
		c-2.5,0-3.7-1.2-3.7-3.6V81.1h2.6v20.1c0,1.1,0.6,1.6,1.9,1.6h6.8c0.9,0,1.5-0.4,1.8-1c0.4-0.9,0.8-3.4,0.9-7.6l2.4,0.8
		c-0.3,4.9-0.8,7.9-1.5,9c-0.7,0.9-1.8,1.4-3.2,1.4H433.4z M442.2,82.9l-2.2,1.5c-1.9-2.8-4.4-5.9-7.6-9.3l2.2-1.3
		C437.9,77.2,440.5,80.2,442.2,82.9z M453.6,98.7l-2.4,1.1c-1.9-5.7-3.9-10.8-6.2-15.2l2.5-0.8C449.9,88.5,451.8,93.4,453.6,98.7z"
		/>
</g>
</svg>
