<!-- Generator: Adobe Illustrator 21.0.0, SVG Export Plug-In  -->
<svg version="1.1"
	 xmlns="http://www.w3.org/2000/svg" xmlns:xlink="http://www.w3.org/1999/xlink" xmlns:a="http://ns.adobe.com/AdobeSVGViewerExtensions/3.0/"
	 x="0px" y="0px" width="336.8px" height="36.1px" viewBox="0 0 336.8 36.1" style="enable-background:new 0 0 336.8 36.1;"
	 xml:space="preserve">
<style type="text/css">
	.st0{fill:#FFFFFF;stroke:#DBDBDB;stroke-miterlimit:10;}
	.st1{fill:#4D4D4D;}
	.st2{fill:#B3B3B3;}
	.st3{fill:#F4F4F4;}
</style>
<defs>
</defs>
<path class="st0" d="M55.6,32.8H15.5c-8.3,0-15-6.8-15-15v0c0-8.3,6.8-15,15-15h40.1c8.3,0,15,6.8,15,15v0
	C70.6,26.1,63.9,32.8,55.6,32.8z"/>
<path class="st0" d="M138.8,32.8H98.7c-8.3,0-15-6.8-15-15v0c0-8.3,6.8-15,15-15h40.1c8.3,0,15,6.8,15,15v0
	C153.8,26.1,147,32.8,138.8,32.8z"/>
<path class="st0" d="M221.9,32.8h-40.1c-8.3,0-15-6.8-15-15v0c0-8.3,6.8-15,15-15h40.1c8.3,0,15,6.8,15,15v0
	C237,26.1,230.2,32.8,221.9,32.8z"/>
<path class="st0" d="M305.1,32.8H265c-8.3,0-15-6.8-15-15v0c0-8.3,6.8-15,15-15h40.1c8.3,0,15,6.8,15,15v0
	C320.1,26.1,313.4,32.8,305.1,32.8z"/>
<g>
	<path class="st1" d="M26.5,17.8l-0.6,0.6c-0.5-0.6-1.1-1.1-1.9-1.8l0.6-0.6C25.4,16.7,26,17.2,26.5,17.8z M26.6,19.6
		c-0.5,1.5-1,3-1.6,4.3l-0.8-0.3c0.6-1.4,1.2-2.8,1.6-4.3L26.6,19.6z M26.8,14.8l-0.6,0.6c-0.5-0.5-1.1-1-1.9-1.6l0.6-0.6
		C25.7,13.7,26.3,14.2,26.8,14.8z M28.9,18.6c0,1.6-0.2,2.7-0.5,3.5c-0.3,0.8-0.8,1.4-1.5,2l-0.6-0.7c0.6-0.5,1-1,1.2-1.7
		c0.2-0.6,0.4-1.7,0.4-3.1H28.9z M27.3,17.3c0.1,0,0.1,0,0.2-0.1c0.5-0.3,1-1,1.8-2.2h-2.1v-0.8h3.4c-0.2-0.4-0.3-0.9-0.5-1.2
		l0.9-0.1c0.2,0.4,0.4,0.9,0.5,1.4h3.2V15h-4.4c-0.6,1-1.1,1.7-1.5,2.2c1.4-0.1,2.8-0.2,4.1-0.4c-0.3-0.3-0.5-0.7-0.8-1.1l0.7-0.4
		c0.8,1,1.4,1.8,1.9,2.6l-0.7,0.5c-0.2-0.3-0.4-0.6-0.6-0.9c-1.8,0.2-3.7,0.4-5.8,0.5L27.3,17.3z M30.8,18.6v5.2H30v-5.2H30.8z
		 M33.1,23.9c-0.7,0-1-0.3-1-0.9v-4.4h0.8v4.2c0,0.2,0.1,0.3,0.2,0.3h0.5c0.2,0,0.3-0.2,0.4-0.4c0-0.3,0.1-0.8,0.1-1.4l0.8,0.3
		c0,1.1-0.1,1.7-0.2,1.9c-0.1,0.2-0.4,0.3-0.9,0.4H33.1z"/>
	<path class="st1" d="M39.4,13.5c-0.7,1.3-1.8,2.5-3.2,3.5l-0.3-0.9c1.3-0.9,2.2-1.9,2.7-3L39.4,13.5z M39.9,16.2
		c-0.3,0.7-0.8,1.3-1.3,1.9v5.9h-0.9v-5c-0.5,0.4-1,0.9-1.6,1.3l-0.3-0.9c1.5-1,2.5-2.2,3.2-3.5L39.9,16.2z M46.8,16.9v0.9h-1.9V23
		c0,0.7-0.4,1-1.2,1h-1.8l-0.2-0.9c0.6,0,1.1,0.1,1.6,0.1c0.4,0,0.6-0.2,0.6-0.5v-5h-3.8v-0.9H46.8z M46.2,13.8v0.9h-5.8v-0.9H46.2z
		"/>
</g>
<g>
	<path class="st1" d="M110.2,22.3c1.1-0.2,2.1-0.5,3.2-0.9l0.2,0.8c-1.1,0.4-2.6,0.7-4.3,1.1l-0.2-0.8c0.2-0.1,0.3-0.2,0.3-0.4V13
		h8.6v3.5h-3.4c0,0.6,0.1,1.2,0.2,1.7h3.9v0.8h-3.7c0.1,0.3,0.2,0.6,0.3,0.9c0.4,0.9,0.8,1.6,1.3,2c0.4,0.4,0.8,0.6,1.2,0.6
		c0.1,0,0.3-0.1,0.4-0.3c0.1-0.2,0.2-0.8,0.3-1.6l0.8,0.4c-0.1,1-0.3,1.7-0.5,2c-0.2,0.3-0.4,0.5-0.7,0.5c-0.6,0-1.1-0.3-1.7-0.8
		c-0.6-0.6-1.1-1.3-1.6-2.4c-0.2-0.4-0.3-0.8-0.4-1.2h-3.9V22.3z M110.2,13.8v1.9h6.9v-1.9H110.2z M110.2,16.5v1.7h3.7
		c-0.1-0.5-0.2-1.1-0.3-1.7H110.2z"/>
	<path class="st1" d="M122.5,16.2v5.3c0.4-0.3,0.7-0.7,1.2-1.1l0.2,0.9c-0.7,0.7-1.4,1.3-2.1,1.8l-0.3-0.8c0.1-0.1,0.2-0.3,0.2-0.5
		V17H120v-0.8H122.5z M123.4,14.5l-0.6,0.6c-0.5-0.6-1.1-1.2-1.9-1.8l0.6-0.6C122.3,13.3,122.9,13.9,123.4,14.5z M124.6,19.1
		l-0.7-0.4c0.6-0.6,1-1.4,1.2-2.2l0.8,0.2c-0.1,0.2-0.2,0.4-0.2,0.7h4.7v0.8H128v1.2h3.1v0.8H128v2.1h1.8v-1.6h0.8v3h-0.8V23h-4.4
		v0.6h-0.8v-3h0.8v1.6h1.8v-2.1H124v-0.8h3.1v-1.2h-1.8C125.1,18.4,124.9,18.8,124.6,19.1z M130.8,13.3c-1.6,0.5-3.8,0.7-6.5,0.7
		l-0.3-0.8c2.6,0,4.7-0.2,6.4-0.7L130.8,13.3z M125.9,16.2l-0.7,0.3c-0.3-0.6-0.6-1.2-0.9-1.7l0.7-0.3
		C125.3,15,125.7,15.6,125.9,16.2z M128.2,16l-0.7,0.3c-0.3-0.7-0.6-1.2-0.9-1.7l0.7-0.3C127.6,14.8,127.9,15.4,128.2,16z
		 M130.7,14.3c-0.3,0.9-0.6,1.7-1,2.4l-0.7-0.3c0.4-0.6,0.7-1.4,1-2.3L130.7,14.3z"/>
</g>
<g>
	<path class="st1" d="M190.6,23.4l-0.2-0.8c0.3,0,0.6,0.1,0.9,0.1c0.3,0,0.4-0.2,0.4-0.5v-3c-0.5,0.2-1,0.4-1.5,0.5l-0.2-0.9
		c0.6-0.1,1.1-0.3,1.7-0.5v-2.8h-1.5v-0.8h1.5v-2.2h0.9v2.2h1.3v0.8h-1.3V18c0.4-0.2,0.9-0.4,1.3-0.6v0.9c-0.4,0.2-0.8,0.4-1.3,0.6
		v3.5c0,0.7-0.3,1-1,1H190.6z M196.1,16.2l-0.7,0.3l0.7,0.2c-0.1,0.2-0.2,0.4-0.2,0.7h4.7v0.8H198v1.2h3.2v0.8H198v2.1h1.8v-1.6h0.8
		v2.9h-0.8V23h-4.5v0.6h-0.8v-2.9h0.8v1.6h1.8v-2.1h-3.1v-0.8h3.1v-1.2h-1.6c-0.2,0.4-0.4,0.7-0.6,1l-0.7-0.4
		c0.5-0.7,0.9-1.4,1.1-2.2h0c-0.3-0.7-0.5-1.3-0.8-1.8l0.7-0.3C195.6,15,195.9,15.6,196.1,16.2z M200.9,13.3
		c-1.6,0.5-3.8,0.7-6.5,0.7l-0.3-0.8c2.5,0,4.6-0.2,6.3-0.6L200.9,13.3z M198.3,16l-0.7,0.3c-0.3-0.7-0.6-1.2-0.9-1.7l0.7-0.3
		C197.8,14.8,198.1,15.4,198.3,16z M200.8,14.3c-0.3,0.9-0.6,1.7-1,2.4l-0.7-0.3c0.4-0.6,0.7-1.4,1-2.3L200.8,14.3z"/>
	<path class="st1" d="M205,17.4l-0.6,0.6c-0.5-0.6-1.2-1.2-2.1-1.9l0.6-0.6C203.7,16.2,204.4,16.8,205,17.4z M205.1,19
		c-0.6,1.6-1.2,3.1-1.8,4.4l-0.8-0.4c0.7-1.4,1.4-2.9,1.9-4.4L205.1,19z M205.1,14.5l-0.6,0.6c-0.5-0.6-1.2-1.2-2.1-1.8l0.6-0.6
		C203.9,13.3,204.6,13.9,205.1,14.5z M209.1,18.6c-0.3,0.6-0.7,1.2-1.2,1.7v2.2c0.6-0.2,1.2-0.4,1.8-0.6l0.1,0.7
		c-0.8,0.3-1.7,0.6-2.8,0.9l-0.2-0.7c0.2-0.1,0.3-0.2,0.3-0.4v-1.4c-0.5,0.4-1.1,0.8-1.8,1.2l-0.4-0.7c1.5-0.7,2.7-1.6,3.4-2.7
		c-0.7,0.1-1.3,0.1-2,0.2l-0.2-0.7c0.1,0,0.2-0.1,0.3-0.1c0.6-0.3,1.4-1.2,2.4-2.5l0.7,0.3c-0.8,1-1.5,1.7-2.1,2.2
		c1.1-0.1,2.1-0.2,3.2-0.3c-0.3-0.4-0.6-0.7-1-1.1l0.6-0.4c0.9,0.9,1.5,1.7,2,2.4l-0.6,0.4c-0.2-0.2-0.3-0.5-0.5-0.7
		c-0.4,0.1-0.8,0.1-1.2,0.2c0.2,0.7,0.4,1.4,0.8,2c0.5-0.3,1-0.8,1.5-1.3l0.6,0.6c-0.5,0.6-1.1,1-1.7,1.3c0.6,0.7,1.3,1.3,2.2,1.7
		l-0.5,0.7C210.8,22.3,209.6,20.7,209.1,18.6L209.1,18.6z M208.1,14.9c-0.6,0.9-1.5,1.6-2.4,2.3l-0.5-0.6c0.9-0.6,1.7-1.3,2.3-2.1
		L208.1,14.9z M208.8,13.5c-0.2-0.3-0.3-0.6-0.5-0.9l0.9-0.1c0.2,0.3,0.3,0.7,0.5,1.1h3v0.8h-7v-0.8H208.8z M212.9,16.5l-0.6,0.6
		c-0.6-0.7-1.4-1.5-2.5-2.3l0.6-0.5C211.4,15.1,212.2,15.8,212.9,16.5z"/>
</g>
<g>
	<path class="st1" d="M283.6,13.9c-2.3,0.4-5.4,0.5-9.3,0.5l-0.2-0.7c3.7,0,6.7-0.2,9.1-0.5L283.6,13.9z M274.3,24l-0.3-0.7
		c0.2,0,0.3-0.2,0.3-0.4v-4.7h4.1v3.3h-0.7c0.5,0.6,0.9,1.3,1.3,2.1l-0.7,0.3c-0.1-0.3-0.3-0.6-0.4-0.8
		C277,23.5,275.7,23.8,274.3,24z M275.6,15.4c-0.1-0.3-0.3-0.5-0.5-0.8l0.8-0.1c0.2,0.3,0.3,0.6,0.5,0.9h2.2
		c-0.1-0.3-0.3-0.6-0.4-0.8l0.8-0.1c0.1,0.3,0.3,0.6,0.4,1h2c0.2-0.4,0.4-0.8,0.5-1.2l0.9,0.1c-0.1,0.4-0.3,0.7-0.5,1h1.3v2.3h-9.3
		v-2.3H275.6z M277.1,16.1H275v1h2.1V16.1z M277.7,18.9h-2.5v0.7h2.5V18.9z M275.2,21h2.5v-0.7h-2.5V21z M275.2,21.6v1.5
		c0.8-0.2,1.6-0.3,2.4-0.6c-0.2-0.3-0.3-0.5-0.5-0.7l0.6-0.3H275.2z M279.9,16.1h-2v1h2V16.1z M282.1,19v-0.8h0.8V19h1.1v0.8H283
		v3.4c0,0.6-0.3,0.9-0.9,0.9h-1.5l-0.2-0.8c0.5,0,0.9,0.1,1.4,0.1c0.3,0,0.4-0.1,0.4-0.4v-3.2h-3V19H282.1z M281.3,22.1l-0.7,0.3
		c-0.4-0.7-0.9-1.3-1.3-1.9l0.7-0.3C280.4,20.8,280.9,21.4,281.3,22.1z M282.7,16.1h-2.1v1h2.1V16.1z"/>
	<path class="st1" d="M290.5,16.9V13h0.9v3.9h4.9v0.8h-4.9v4.8h4.4v0.8H286v-0.8h4.4v-4.8h-4.9v-0.8H290.5z"/>
</g>
<path class="st2" d="M329.8,20.2l6.3-6.3c0.2-0.2,0.5-0.2,0.6,0c0.2,0.2,0.2,0.5,0,0.6l-6.6,6.6c-0.1,0.1-0.2,0.1-0.3,0.1
	c-0.1,0-0.2,0-0.3-0.1l-6.6-6.6c-0.2-0.2-0.2-0.5,0-0.6c0.2-0.2,0.5-0.2,0.6,0L329.8,20.2z"/>
<rect x="297.3" class="st3" width="24" height="36.1"/>
</svg>
