<!-- Generator: Adobe Illustrator 21.0.0, SVG Export Plug-In  -->
<svg version="1.1"
	 xmlns="http://www.w3.org/2000/svg" xmlns:xlink="http://www.w3.org/1999/xlink" xmlns:a="http://ns.adobe.com/AdobeSVGViewerExtensions/3.0/"
	 x="0px" y="0px" width="376px" height="153.3px" viewBox="0 0 376 153.3" style="enable-background:new 0 0 376 153.3;"
	 xml:space="preserve">
<style type="text/css">
	.st0{clip-path:url(#SVGID_2_);fill:#F2F2F2;}
	.st1{clip-path:url(#SVGID_2_);fill:#FFFFFF;stroke:#DBDBDB;stroke-miterlimit:10;}
	.st2{clip-path:url(#SVGID_2_);}
	.st3{fill:#4D4D4D;}
	.st4{clip-path:url(#SVGID_2_);fill:#B3B3B3;}
	.st5{fill:none;}
	.st6{clip-path:url(#SVGID_4_);fill:#F2F2F2;}
	.st7{clip-path:url(#SVGID_4_);fill:#FFFFFF;stroke:#DBDBDB;stroke-miterlimit:10;}
	.st8{clip-path:url(#SVGID_4_);}
	.st9{clip-path:url(#SVGID_4_);fill:#B3B3B3;}
</style>
<defs>
</defs>
<g>
	<defs>
		<rect id="SVGID_1_" y="0" width="376" height="138.5"/>
	</defs>
	<clipPath id="SVGID_2_">
		<use xlink:href="#SVGID_1_"  style="overflow:visible;"/>
	</clipPath>
	<rect y="0" class="st0" width="376" height="138.5"/>
	<path class="st1" d="M141.6,38.8H32.2c-8.2,0-14.9-6.7-14.9-14.9v-0.3c0-8.2,6.7-14.9,14.9-14.9l109.5,0c8.2,0,14.9,6.7,14.9,14.9
		V24C156.5,32.1,149.8,38.8,141.6,38.8z"/>
	<path class="st1" d="M299.6,38.8H190.2c-8.2,0-14.9-6.7-14.9-14.9v-0.3c0-8.2,6.7-14.9,14.9-14.9l109.5,0c8.2,0,14.9,6.7,14.9,14.9
		V24C314.5,32.1,307.8,38.8,299.6,38.8z"/>
	<path class="st1" d="M101.6,76.8H32.1c-8.2,0-14.9-6.7-14.9-14.9v-0.3c0-8.2,6.7-14.9,14.9-14.9h69.5c8.2,0,14.9,6.7,14.9,14.9V62
		C116.5,70.1,109.8,76.8,101.6,76.8z"/>
	<path class="st1" d="M101.6,114.8H32.1c-8.2,0-14.9-6.7-14.9-14.9v-0.3c0-8.2,6.7-14.9,14.9-14.9h69.5c8.2,0,14.9,6.7,14.9,14.9
		v0.3C116.5,108.1,109.8,114.8,101.6,114.8z"/>
	<path class="st1" d="M101.6,152.8H32.1c-8.2,0-14.9-6.7-14.9-14.9v-0.3c0-8.2,6.7-14.9,14.9-14.9h69.5c8.2,0,14.9,6.7,14.9,14.9
		v0.3C116.5,146.1,109.8,152.8,101.6,152.8z"/>
	<path class="st1" d="M222.6,152.8h-69.5c-8.2,0-14.9-6.7-14.9-14.9v-0.3c0-8.2,6.7-14.9,14.9-14.9h69.5c8.2,0,14.9,6.7,14.9,14.9
		v0.3C237.5,146.1,230.8,152.8,222.6,152.8z"/>
	<path class="st1" d="M343.6,152.8h-69.5c-8.2,0-14.9-6.7-14.9-14.9v-0.3c0-8.2,6.7-14.9,14.9-14.9h69.5c8.2,0,14.9,6.7,14.9,14.9
		v0.3C358.5,146.1,351.8,152.8,343.6,152.8z"/>
	<path class="st1" d="M222.6,114.8h-69.5c-8.2,0-14.9-6.7-14.9-14.9v-0.3c0-8.2,6.7-14.9,14.9-14.9h69.5c8.2,0,14.9,6.7,14.9,14.9
		v0.3C237.5,108.1,230.8,114.8,222.6,114.8z"/>
	<path class="st1" d="M343.6,114.8h-69.5c-8.2,0-14.9-6.7-14.9-14.9v-0.3c0-8.2,6.7-14.9,14.9-14.9h69.5c8.2,0,14.9,6.7,14.9,14.9
		v0.3C358.5,108.1,351.8,114.8,343.6,114.8z"/>
	<path class="st1" d="M222.6,76.8h-69.5c-8.2,0-14.9-6.7-14.9-14.9v-0.3c0-8.2,6.7-14.9,14.9-14.9h69.5c8.2,0,14.9,6.7,14.9,14.9V62
		C237.5,70.1,230.8,76.8,222.6,76.8z"/>
	<path class="st1" d="M343.6,76.8h-69.5c-8.2,0-14.9-6.7-14.9-14.9v-0.3c0-8.2,6.7-14.9,14.9-14.9h69.5c8.2,0,14.9,6.7,14.9,14.9V62
		C358.5,70.1,351.8,76.8,343.6,76.8z"/>
	<g class="st2">
		<path class="st3" d="M72.1,19.3v8.6h-1v-8.6H72.1z"/>
		<path class="st3" d="M79,24v3.8h-1v-3.8c0-1.2-0.6-1.8-1.6-1.8c-0.4,0-0.8,0.2-1.1,0.5c-0.3,0.3-0.5,0.8-0.6,1.3v3.8h-1v-6.2h1
			v0.9c0.2-0.3,0.5-0.6,0.8-0.8c0.3-0.2,0.7-0.3,1.1-0.3C78.2,21.5,79,22.3,79,24z"/>
		<path class="st3" d="M84.2,19.3v0.8h-1.1c-0.3,0-0.5,0.1-0.6,0.2c-0.1,0.1-0.2,0.3-0.2,0.6v0.7h3.8v6.2h-0.9v-5.4h-2.8v5.4h-1
			v-5.4h-1.6v-0.8h1.6v-0.7c0-0.5,0.1-0.9,0.4-1.2c0.3-0.3,0.7-0.4,1.2-0.4H84.2z"/>
		<path class="st3" d="M93,24v3.8h-1v-3.8c0-1.2-0.6-1.8-1.6-1.8c-0.4,0-0.8,0.2-1.1,0.5c-0.3,0.3-0.5,0.8-0.6,1.3v3.8h-1v-6.2h1
			v0.9c0.2-0.3,0.5-0.6,0.8-0.8c0.3-0.2,0.7-0.3,1.1-0.3C92.2,21.5,93,22.3,93,24z"/>
		<path class="st3" d="M95.8,19.5C96,19.6,96,19.8,96,20c0,0.2-0.1,0.4-0.2,0.5c-0.1,0.1-0.3,0.2-0.5,0.2c-0.2,0-0.4-0.1-0.5-0.2
			c-0.1-0.1-0.2-0.3-0.2-0.5c0-0.2,0.1-0.4,0.2-0.5c0.1-0.1,0.3-0.2,0.5-0.2C95.5,19.3,95.7,19.4,95.8,19.5z M95.8,21.6v6.2h-1v-6.2
			H95.8z"/>
		<path class="st3" d="M99.2,21.6h1.5v0.8h-1.5v4c0,0.2,0,0.4,0.1,0.5c0.1,0.1,0.2,0.2,0.5,0.2h0.8v0.8h-0.9c-0.5,0-0.9-0.1-1.1-0.4
			c-0.2-0.2-0.3-0.6-0.3-1.1v-4H97v-0.8h1.3V20l1-0.4V21.6z"/>
		<path class="st3" d="M106.7,22.5c0.5,0.6,0.7,1.5,0.7,2.5h-4.9c0,0.7,0.2,1.2,0.6,1.6c0.3,0.4,0.8,0.6,1.4,0.6
			c0.5,0,0.9-0.1,1.2-0.4c0.3-0.2,0.5-0.5,0.6-1h1c-0.1,0.6-0.4,1.1-0.8,1.5c-0.5,0.5-1.2,0.7-2,0.7c-0.9,0-1.6-0.3-2.1-0.9
			c-0.6-0.6-0.8-1.4-0.8-2.4c0-0.9,0.3-1.7,0.8-2.3c0.5-0.6,1.2-1,2.1-1C105.4,21.5,106.2,21.8,106.7,22.5z M103.1,22.8
			c-0.3,0.4-0.5,0.8-0.6,1.5h3.9c-0.1-1.3-0.8-2-2-2C103.9,22.3,103.4,22.5,103.1,22.8z"/>
	</g>
	<g class="st2">
		<path class="st3" d="M229,19.8l1.9,7.2h0l2-7.2h1.1l1.9,7.2h0l1.9-7.2h1.1l-2.5,8.6h-1.1l-1.9-7.2h0l-2,7.2h-1.1l-2.5-8.6H229z"/>
		<path class="st3" d="M241.1,20c0.1,0.1,0.2,0.3,0.2,0.5c0,0.2-0.1,0.4-0.2,0.5c-0.1,0.1-0.3,0.2-0.5,0.2s-0.4-0.1-0.5-0.2
			c-0.1-0.1-0.2-0.3-0.2-0.5c0-0.2,0.1-0.4,0.2-0.5c0.1-0.1,0.3-0.2,0.5-0.2S240.9,19.9,241.1,20z M241,22.2v6.2h-1v-6.2H241z"/>
		<path class="st3" d="M248.1,24.5v3.8h-1v-3.8c0-1.2-0.6-1.8-1.6-1.8c-0.4,0-0.8,0.2-1.1,0.5c-0.3,0.3-0.5,0.8-0.6,1.3v3.8h-1v-6.2
			h1v0.9c0.2-0.3,0.5-0.6,0.8-0.8c0.3-0.2,0.7-0.3,1.1-0.3C247.3,22,248.1,22.8,248.1,24.5z"/>
		<path class="st3" d="M254.8,24.5v3.8h-1v-3.8c0-1.2-0.6-1.8-1.6-1.8c-0.4,0-0.8,0.2-1.1,0.5c-0.3,0.3-0.5,0.8-0.6,1.3v3.8h-1v-6.2
			h1v0.9c0.2-0.3,0.5-0.6,0.8-0.8c0.3-0.2,0.7-0.3,1.1-0.3C254,22,254.8,22.8,254.8,24.5z"/>
		<path class="st3" d="M261.1,23c0.5,0.6,0.7,1.5,0.7,2.5h-4.9c0,0.7,0.2,1.2,0.6,1.6c0.3,0.4,0.8,0.6,1.4,0.6
			c0.5,0,0.9-0.1,1.2-0.4c0.3-0.2,0.5-0.5,0.6-1h1c-0.1,0.6-0.4,1.1-0.8,1.5c-0.5,0.5-1.2,0.7-2,0.7c-0.9,0-1.6-0.3-2.1-0.9
			c-0.6-0.6-0.8-1.4-0.8-2.4c0-0.9,0.3-1.7,0.8-2.3c0.5-0.6,1.2-1,2.1-1C259.8,22,260.6,22.3,261.1,23z M257.5,23.3
			c-0.3,0.4-0.5,0.8-0.6,1.5h3.9c-0.1-1.3-0.8-2-2-2C258.3,22.8,257.9,23,257.5,23.3z"/>
		<path class="st3" d="M266.5,22.1v1c-0.3-0.1-0.6-0.1-0.9-0.1c-0.5,0-0.9,0.2-1.2,0.6c-0.3,0.4-0.5,0.9-0.5,1.5v3.3h-1v-6.2h1v1.1
			c0.2-0.4,0.4-0.6,0.6-0.9c0.3-0.3,0.7-0.4,1.1-0.4C266,22,266.3,22,266.5,22.1z"/>
	</g>
	<g class="st2">
		<path class="st3" d="M47.7,56.8c0.8,0,1.4,0.2,1.9,0.6c0.5,0.4,0.7,0.9,0.7,1.6c0,0.5-0.1,0.9-0.4,1.3c-0.3,0.3-0.6,0.5-1,0.7
			c0.6,0.1,1,0.3,1.3,0.7c0.3,0.4,0.5,0.8,0.5,1.4c0,0.8-0.3,1.5-0.9,1.9c-0.5,0.3-1.2,0.5-2.1,0.5h-3.8v-8.6H47.7z M44.9,60.5h2.6
			c0.6,0,1.1-0.1,1.4-0.4c0.3-0.3,0.5-0.6,0.5-1.1c0-0.5-0.2-0.8-0.5-1.1c-0.3-0.2-0.8-0.3-1.4-0.3h-2.6V60.5z M44.9,64.5h2.7
			c0.6,0,1.1-0.1,1.4-0.3c0.4-0.3,0.6-0.7,0.6-1.2c0-0.6-0.2-1-0.6-1.2c-0.3-0.3-0.9-0.4-1.5-0.4h-2.7V64.5z"/>
		<path class="st3" d="M53.2,57c0.1,0.1,0.2,0.3,0.2,0.5c0,0.2-0.1,0.4-0.2,0.5c-0.1,0.1-0.3,0.2-0.5,0.2s-0.4-0.1-0.5-0.2
			C52,57.9,52,57.7,52,57.5c0-0.2,0.1-0.4,0.2-0.5c0.1-0.1,0.3-0.2,0.5-0.2S53.1,56.9,53.2,57z M53.2,59.2v6.2h-1v-6.2H53.2z"/>
		<path class="st3" d="M59.6,60.2v-1.1h1v5.8c0,2-1,3-2.8,3c-0.8,0-1.5-0.2-1.9-0.5c-0.4-0.3-0.7-0.8-0.8-1.5h1
			c0.1,0.4,0.3,0.7,0.5,0.9c0.3,0.2,0.7,0.3,1.3,0.3c1.3,0,1.9-0.7,1.9-2.1V64c-0.5,0.8-1.2,1.3-2.1,1.3c-0.9,0-1.6-0.3-2.1-0.9
			c-0.5-0.6-0.7-1.3-0.7-2.2c0-0.9,0.2-1.6,0.7-2.2c0.5-0.6,1.2-0.9,2.1-0.9C58.5,59,59.2,59.4,59.6,60.2z M56.2,60.5
			c-0.3,0.4-0.5,1-0.5,1.7c0,0.6,0.1,1.2,0.4,1.6c0.3,0.5,0.8,0.7,1.5,0.7c0.6,0,1.1-0.2,1.5-0.6c0.3-0.4,0.5-1,0.5-1.6
			c0-0.7-0.2-1.3-0.5-1.7c-0.4-0.5-0.8-0.7-1.5-0.7C57.1,59.8,56.6,60,56.2,60.5z"/>
		<path class="st3" d="M70.1,56.8c0.8,0,1.4,0.2,1.9,0.6c0.5,0.4,0.7,0.9,0.7,1.6c0,0.5-0.1,0.9-0.4,1.3c-0.3,0.3-0.6,0.5-1,0.7
			c0.6,0.1,1,0.3,1.3,0.7c0.3,0.4,0.5,0.8,0.5,1.4c0,0.8-0.3,1.5-0.9,1.9c-0.5,0.3-1.2,0.5-2.1,0.5h-3.8v-8.6H70.1z M67.2,60.5h2.6
			c0.6,0,1.1-0.1,1.4-0.4c0.3-0.3,0.5-0.6,0.5-1.1c0-0.5-0.2-0.8-0.5-1.1c-0.3-0.2-0.8-0.3-1.4-0.3h-2.6V60.5z M67.2,64.5H70
			c0.6,0,1.1-0.1,1.4-0.3c0.4-0.3,0.6-0.7,0.6-1.2c0-0.6-0.2-1-0.6-1.2c-0.3-0.3-0.9-0.4-1.5-0.4h-2.7V64.5z"/>
		<path class="st3" d="M78.9,59.7c0.4,0.4,0.6,1,0.6,1.7v4h-0.9v-1c-0.2,0.3-0.6,0.6-1,0.8c-0.5,0.3-1,0.4-1.6,0.4
			c-0.6,0-1.1-0.2-1.5-0.5c-0.4-0.3-0.6-0.7-0.6-1.3c0-0.7,0.3-1.2,0.9-1.6c0.5-0.3,1.2-0.5,2.2-0.5l1.5,0v-0.3c0-1-0.5-1.6-1.6-1.6
			c-0.5,0-0.8,0.1-1.1,0.3c-0.3,0.2-0.5,0.5-0.6,0.9l-0.9-0.1c0.1-0.6,0.5-1.1,1-1.5c0.5-0.3,1-0.4,1.8-0.4
			C77.8,59,78.5,59.2,78.9,59.7z M77.1,62.4c-1.4,0-2.1,0.5-2.1,1.4c0,0.3,0.1,0.5,0.3,0.7c0.2,0.2,0.6,0.3,0.9,0.3
			c0.6,0,1.1-0.2,1.6-0.6c0.4-0.4,0.7-0.8,0.7-1.3v-0.5L77.1,62.4z"/>
		<path class="st3" d="M86.2,61.5v3.8h-1v-3.8c0-1.2-0.6-1.8-1.6-1.8c-0.4,0-0.8,0.2-1.1,0.5c-0.3,0.3-0.5,0.8-0.6,1.3v3.8h-1v-6.2
			h1v0.9c0.2-0.3,0.5-0.6,0.8-0.8c0.3-0.2,0.7-0.3,1.1-0.3C85.4,59,86.2,59.8,86.2,61.5z"/>
		<path class="st3" d="M92.3,60.2v-1.1h1v5.8c0,2-1,3-2.8,3c-0.8,0-1.5-0.2-1.9-0.5c-0.4-0.3-0.7-0.8-0.8-1.5h1
			c0.1,0.4,0.3,0.7,0.5,0.9c0.3,0.2,0.7,0.3,1.3,0.3c1.3,0,1.9-0.7,1.9-2.1V64c-0.5,0.8-1.2,1.3-2.1,1.3c-0.9,0-1.6-0.3-2.1-0.9
			c-0.5-0.6-0.7-1.3-0.7-2.2c0-0.9,0.2-1.6,0.7-2.2c0.5-0.6,1.2-0.9,2.1-0.9C91.2,59,91.9,59.4,92.3,60.2z M88.9,60.5
			c-0.3,0.4-0.5,1-0.5,1.7c0,0.6,0.1,1.2,0.4,1.6c0.3,0.5,0.8,0.7,1.5,0.7c0.6,0,1.1-0.2,1.5-0.6c0.3-0.4,0.5-1,0.5-1.6
			c0-0.7-0.2-1.3-0.5-1.7c-0.4-0.5-0.8-0.7-1.5-0.7C89.8,59.8,89.3,60,88.9,60.5z"/>
	</g>
	<path class="st4" d="M344.6,26.2l6.3-6.3c0.2-0.2,0.5-0.2,0.6,0c0.2,0.2,0.2,0.5,0,0.6l-6.6,6.6c-0.1,0.1-0.2,0.1-0.3,0.1
		c-0.1,0-0.2,0-0.3-0.1l-6.6-6.6c-0.2-0.2-0.2-0.5,0-0.6c0.2-0.2,0.5-0.2,0.6,0L344.6,26.2z"/>
	<g class="st2">
		<path class="st3" d="M176.1,57.4c0.6,0.5,0.9,1.1,1,2h-1c-0.1-0.6-0.3-1.1-0.7-1.4c-0.4-0.3-0.9-0.5-1.6-0.5
			c-0.6,0-1.1,0.1-1.5,0.3c-0.4,0.2-0.6,0.6-0.6,1.1c0,0.4,0.2,0.8,0.7,1c0.2,0.1,0.7,0.3,1.6,0.5c1.1,0.3,1.9,0.6,2.2,0.8
			c0.7,0.4,1.1,1,1.1,1.8c0,0.7-0.3,1.3-0.9,1.8c-0.6,0.4-1.4,0.6-2.4,0.6c-1,0-1.8-0.2-2.4-0.6c-0.7-0.5-1-1.3-1.1-2.4h1
			c0.1,0.7,0.3,1.3,0.8,1.6c0.4,0.3,1,0.5,1.7,0.5c0.7,0,1.3-0.1,1.7-0.4c0.4-0.3,0.6-0.6,0.6-1.1c0-0.5-0.3-1-0.9-1.3
			c-0.2-0.1-0.9-0.3-1.8-0.6c-1-0.3-1.7-0.6-2-0.7c-0.7-0.4-1-0.9-1-1.7c0-0.7,0.3-1.3,0.9-1.7c0.6-0.4,1.3-0.6,2.2-0.6
			C174.8,56.7,175.6,56.9,176.1,57.4z"/>
		<path class="st3" d="M179.4,56.7v3.6c0.2-0.4,0.5-0.7,0.9-0.9c0.3-0.2,0.7-0.3,1.1-0.3c0.7,0,1.3,0.2,1.7,0.6
			c0.4,0.4,0.6,1,0.6,1.8v3.9h-1v-3.8c0-0.6-0.1-1-0.4-1.3c-0.3-0.3-0.7-0.5-1.2-0.5c-0.5,0-0.9,0.2-1.2,0.6
			c-0.3,0.4-0.5,0.9-0.5,1.5v3.5h-1v-8.7H179.4z"/>
		<path class="st3" d="M186.4,57.1c0.1,0.1,0.2,0.3,0.2,0.5c0,0.2-0.1,0.4-0.2,0.5c-0.1,0.1-0.3,0.2-0.5,0.2s-0.4-0.1-0.5-0.2
			c-0.1-0.1-0.2-0.3-0.2-0.5c0-0.2,0.1-0.4,0.2-0.5c0.1-0.1,0.3-0.2,0.5-0.2S186.3,57,186.4,57.1z M186.4,59.3v6.2h-1v-6.2H186.4z"
			/>
		<path class="st3" d="M193.4,61.6v3.8h-1v-3.7c0-1.2-0.6-1.8-1.6-1.8c-0.4,0-0.8,0.2-1.1,0.5c-0.3,0.3-0.5,0.8-0.6,1.3v3.7h-1v-6.2
			h1v0.9c0.2-0.3,0.5-0.6,0.8-0.8c0.3-0.2,0.7-0.3,1.1-0.3C192.6,59.1,193.4,59.9,193.4,61.6z"/>
		<path class="st3" d="M199.7,60.1c0.5,0.6,0.7,1.5,0.7,2.5h-4.9c0,0.7,0.2,1.2,0.6,1.6c0.3,0.4,0.8,0.6,1.4,0.6
			c0.5,0,0.9-0.1,1.2-0.4c0.3-0.2,0.5-0.5,0.6-1h1c-0.1,0.6-0.4,1.1-0.8,1.5c-0.5,0.5-1.2,0.7-2,0.7c-0.9,0-1.6-0.3-2.1-0.9
			c-0.6-0.6-0.8-1.4-0.8-2.4c0-0.9,0.3-1.7,0.8-2.3c0.5-0.6,1.2-1,2.1-1C198.4,59.1,199.2,59.4,199.7,60.1z M196.1,60.4
			c-0.3,0.4-0.5,0.8-0.6,1.5h3.9c-0.1-1.3-0.8-2-2-2C196.9,59.9,196.5,60.1,196.1,60.4z"/>
		<path class="st3" d="M206.3,60.1c0.5,0.6,0.7,1.5,0.7,2.5h-4.9c0,0.7,0.2,1.2,0.6,1.6c0.3,0.4,0.8,0.6,1.4,0.6
			c0.5,0,0.9-0.1,1.2-0.4c0.3-0.2,0.5-0.5,0.6-1h1c-0.1,0.6-0.4,1.1-0.8,1.5c-0.5,0.5-1.2,0.7-2,0.7c-0.9,0-1.6-0.3-2.1-0.9
			c-0.6-0.6-0.8-1.4-0.8-2.4c0-0.9,0.3-1.7,0.8-2.3c0.5-0.6,1.2-1,2.1-1C205.1,59.1,205.8,59.4,206.3,60.1z M202.8,60.4
			c-0.3,0.4-0.5,0.8-0.6,1.5h3.9c-0.1-1.3-0.8-2-2-2C203.6,59.9,203.1,60.1,202.8,60.4z"/>
	</g>
	<g class="st2">
		<path class="st3" d="M58.3,94.9v0.9h-3v7.7h-1v-7.7h-3v-0.9H58.3z"/>
		<path class="st3" d="M65.2,99.9v0.8h-6.1v-0.8H65.2z"/>
		<path class="st3" d="M71.2,97.8c0.4,0.4,0.6,1,0.6,1.7v4h-0.9v-1c-0.2,0.3-0.6,0.6-0.9,0.8c-0.5,0.3-1,0.4-1.5,0.4
			c-0.6,0-1.1-0.2-1.5-0.5c-0.4-0.3-0.6-0.7-0.6-1.2c0-0.7,0.3-1.2,0.9-1.6c0.5-0.3,1.2-0.5,2.2-0.5l1.5,0v-0.3c0-1-0.5-1.6-1.6-1.6
			c-0.5,0-0.8,0.1-1.1,0.3c-0.3,0.2-0.5,0.5-0.6,0.9L66.5,99c0.1-0.6,0.5-1.1,1-1.5c0.5-0.3,1-0.4,1.8-0.4
			C70.1,97.1,70.8,97.3,71.2,97.8z M69.4,100.5c-1.4,0-2.1,0.5-2.1,1.4c0,0.3,0.1,0.5,0.3,0.7c0.2,0.2,0.6,0.3,0.9,0.3
			c0.6,0,1.1-0.2,1.6-0.6c0.4-0.4,0.7-0.8,0.7-1.3v-0.5L69.4,100.5z"/>
		<path class="st3" d="M76.8,97.2v1c-0.3-0.1-0.6-0.1-0.9-0.1c-0.5,0-0.9,0.2-1.2,0.6c-0.3,0.4-0.5,0.9-0.5,1.5v3.3h-0.9v-6.2h0.9
			v1.1c0.2-0.4,0.4-0.6,0.6-0.9c0.3-0.3,0.7-0.4,1.1-0.4C76.3,97.1,76.6,97.1,76.8,97.2z"/>
		<path class="st3" d="M82.3,97.8c0.4,0.4,0.6,1,0.6,1.7v4h-0.9v-1c-0.2,0.3-0.6,0.6-0.9,0.8c-0.5,0.3-1,0.4-1.5,0.4
			c-0.6,0-1.1-0.2-1.5-0.5c-0.4-0.3-0.6-0.7-0.6-1.2c0-0.7,0.3-1.2,0.9-1.6c0.5-0.3,1.2-0.5,2.2-0.5l1.5,0v-0.3c0-1-0.5-1.6-1.6-1.6
			c-0.5,0-0.8,0.1-1.1,0.3c-0.3,0.2-0.5,0.5-0.6,0.9L77.6,99c0.1-0.6,0.5-1.1,1-1.5c0.5-0.3,1-0.4,1.8-0.4
			C81.2,97.1,81.8,97.3,82.3,97.8z M80.4,100.5c-1.4,0-2.1,0.5-2.1,1.4c0,0.3,0.1,0.5,0.3,0.7c0.2,0.2,0.6,0.3,0.9,0.3
			c0.6,0,1.1-0.2,1.6-0.6c0.4-0.4,0.7-0.8,0.7-1.3v-0.5L80.4,100.5z"/>
	</g>
	<g class="st2">
		<rect x="292.1" y="129.1" class="st5" width="77.9" height="16.3"/>
	</g>
	<g class="st2">
		<path class="st3" d="M58.6,132.9l3.4,8.6h-1.1l-0.9-2.4h-3.9l-0.9,2.4h-1.1l3.4-8.6H58.6z M59.7,138.2l-1.6-4.3h0l-1.6,4.3H59.7z"
			/>
		<path class="st3" d="M64,133.1c0.1,0.1,0.2,0.3,0.2,0.5c0,0.2-0.1,0.4-0.2,0.5c-0.1,0.1-0.3,0.2-0.5,0.2s-0.4-0.1-0.5-0.2
			c-0.1-0.1-0.2-0.3-0.2-0.5c0-0.2,0.1-0.4,0.2-0.5c0.1-0.1,0.3-0.2,0.5-0.2S63.9,133,64,133.1z M64,135.3v6.2h-1v-6.2H64z"/>
		<path class="st3" d="M66.9,132.7v8.7H66v-8.7H66.9z"/>
		<path class="st3" d="M73.4,136.1c0.5,0.6,0.7,1.5,0.7,2.5h-4.9c0,0.7,0.2,1.2,0.6,1.6s0.8,0.6,1.4,0.6c0.5,0,0.9-0.1,1.2-0.4
			c0.3-0.2,0.5-0.5,0.6-1h1c-0.1,0.6-0.4,1.1-0.8,1.5c-0.5,0.5-1.2,0.7-2,0.7c-0.9,0-1.6-0.3-2.1-0.9c-0.6-0.6-0.8-1.4-0.8-2.4
			c0-0.9,0.3-1.7,0.8-2.3c0.5-0.6,1.2-1,2.1-1C72.2,135.1,72.9,135.4,73.4,136.1z M69.9,136.4c-0.3,0.4-0.5,0.8-0.6,1.5h3.9
			c-0.1-1.3-0.8-2-2-2C70.6,135.9,70.2,136.1,69.9,136.4z"/>
		<path class="st3" d="M80.1,136.1c0.5,0.6,0.7,1.5,0.7,2.5h-4.9c0,0.7,0.2,1.2,0.6,1.6s0.8,0.6,1.4,0.6c0.5,0,0.9-0.1,1.2-0.4
			c0.3-0.2,0.5-0.5,0.6-1h1c-0.1,0.6-0.4,1.1-0.8,1.5c-0.5,0.5-1.2,0.7-2,0.7c-0.9,0-1.6-0.3-2.1-0.9c-0.6-0.6-0.8-1.4-0.8-2.4
			c0-0.9,0.3-1.7,0.8-2.3c0.5-0.6,1.2-1,2.1-1C78.8,135.1,79.6,135.4,80.1,136.1z M76.5,136.4c-0.3,0.4-0.5,0.8-0.6,1.5h3.9
			c-0.1-1.3-0.8-2-2-2C77.3,135.9,76.9,136.1,76.5,136.4z"/>
	</g>
	<g class="st2">
		<path class="st3" d="M181.1,133.4c0.6,0.5,0.9,1.1,1,2h-1c-0.1-0.6-0.3-1.1-0.7-1.4c-0.4-0.3-0.9-0.5-1.6-0.5
			c-0.6,0-1.1,0.1-1.5,0.3c-0.4,0.2-0.6,0.6-0.6,1.1c0,0.4,0.2,0.8,0.7,1c0.2,0.1,0.7,0.3,1.6,0.5c1.1,0.3,1.9,0.6,2.2,0.8
			c0.7,0.4,1.1,1,1.1,1.8c0,0.7-0.3,1.3-0.9,1.8c-0.6,0.4-1.4,0.6-2.4,0.6c-1,0-1.8-0.2-2.4-0.6c-0.7-0.5-1-1.3-1.1-2.4h1
			c0.1,0.7,0.3,1.3,0.8,1.6c0.4,0.3,1,0.5,1.7,0.5c0.7,0,1.3-0.1,1.7-0.4c0.4-0.3,0.6-0.6,0.6-1.1c0-0.5-0.3-1-0.9-1.3
			c-0.2-0.1-0.9-0.3-1.8-0.6c-1-0.3-1.7-0.6-2-0.7c-0.7-0.4-1-0.9-1-1.7c0-0.7,0.3-1.3,0.9-1.7c0.6-0.4,1.3-0.6,2.2-0.6
			C179.8,132.7,180.6,132.9,181.1,133.4z"/>
		<path class="st3" d="M185.1,135.3h1.5v0.8h-1.5v3.9c0,0.2,0,0.4,0.1,0.5c0.1,0.1,0.2,0.2,0.5,0.2h0.8v0.8h-0.9
			c-0.5,0-0.9-0.1-1.1-0.4c-0.2-0.2-0.3-0.6-0.3-1.1v-3.9h-1.2v-0.8h1.2v-1.6l0.9-0.4V135.3z"/>
		<path class="st3" d="M192.5,136.1c0.5,0.6,0.7,1.5,0.7,2.5h-4.9c0,0.7,0.2,1.2,0.6,1.6s0.8,0.6,1.4,0.6c0.5,0,0.9-0.1,1.2-0.4
			c0.3-0.2,0.5-0.5,0.6-1h1c-0.1,0.6-0.4,1.1-0.8,1.5c-0.5,0.5-1.2,0.7-2,0.7c-0.9,0-1.6-0.3-2.1-0.9c-0.6-0.6-0.8-1.4-0.8-2.4
			c0-0.9,0.3-1.7,0.8-2.3c0.5-0.6,1.2-1,2.1-1C191.2,135.1,192,135.4,192.5,136.1z M188.9,136.4c-0.3,0.4-0.5,0.8-0.6,1.5h3.9
			c-0.1-1.3-0.8-2-2-2C189.7,135.9,189.3,136.1,188.9,136.4z"/>
		<path class="st3" d="M195.5,132.7v8.7h-0.9v-8.7H195.5z"/>
		<path class="st3" d="M198.3,132.7v8.7h-0.9v-8.7H198.3z"/>
		<path class="st3" d="M204.6,135.8c0.4,0.4,0.6,1,0.6,1.7v4h-0.9v-1c-0.2,0.3-0.6,0.6-0.9,0.8c-0.5,0.3-1,0.4-1.5,0.4
			c-0.6,0-1.1-0.2-1.5-0.5c-0.4-0.3-0.6-0.7-0.6-1.2c0-0.7,0.3-1.2,0.9-1.6c0.5-0.3,1.2-0.5,2.2-0.5l1.5,0v-0.3c0-1-0.5-1.6-1.6-1.6
			c-0.5,0-0.8,0.1-1.1,0.3c-0.3,0.2-0.5,0.5-0.6,0.9l-0.9-0.1c0.1-0.6,0.5-1.1,1-1.5c0.5-0.3,1-0.4,1.8-0.4
			C203.6,135.1,204.2,135.3,204.6,135.8z M202.8,138.5c-1.4,0-2.1,0.5-2.1,1.4c0,0.3,0.1,0.5,0.3,0.7c0.2,0.2,0.6,0.3,0.9,0.3
			c0.6,0,1.1-0.2,1.6-0.6c0.4-0.4,0.7-0.8,0.7-1.3v-0.5L202.8,138.5z"/>
	</g>
	<g class="st2">
		<path class="st3" d="M291.2,133.5c0.6,0.5,1,1.2,1.1,2.1h-1c-0.1-0.6-0.4-1.1-0.9-1.5c-0.5-0.4-1.1-0.6-1.8-0.6
			c-0.9,0-1.7,0.3-2.2,1c-0.6,0.6-0.8,1.5-0.8,2.6c0,1.1,0.3,1.9,0.8,2.6c0.6,0.7,1.4,1,2.5,1c0.5,0,0.9-0.1,1.3-0.2
			c0.4-0.1,0.8-0.3,1.1-0.5v-2.2h-2.7v-0.9h3.7v3.5c-0.4,0.3-0.9,0.6-1.5,0.8c-0.6,0.2-1.3,0.3-2,0.3c-1.4,0-2.4-0.4-3.2-1.3
			c-0.7-0.8-1-1.8-1-3.1c0-1.3,0.3-2.3,1-3.1c0.7-0.9,1.7-1.3,3-1.3C289.7,132.7,290.5,133,291.2,133.5z"/>
		<path class="st3" d="M295.1,133.1c0.1,0.1,0.2,0.3,0.2,0.5c0,0.2-0.1,0.4-0.2,0.5c-0.1,0.1-0.3,0.2-0.5,0.2s-0.4-0.1-0.5-0.2
			c-0.1-0.1-0.2-0.3-0.2-0.5c0-0.2,0.1-0.4,0.2-0.5c0.1-0.1,0.3-0.2,0.5-0.2S295,133,295.1,133.1z M295.1,135.3v6.2h-1v-6.2H295.1z"
			/>
		<path class="st3" d="M300.5,135.2v1c-0.3-0.1-0.6-0.1-0.9-0.1c-0.5,0-0.9,0.2-1.2,0.6c-0.3,0.4-0.5,0.9-0.5,1.5v3.3h-0.9v-6.2h0.9
			v1.1c0.2-0.4,0.4-0.6,0.6-0.9c0.3-0.3,0.7-0.4,1.1-0.4C299.9,135.1,300.2,135.1,300.5,135.2z"/>
		<path class="st3" d="M302.4,132.7v8.7h-0.9v-8.7H302.4z"/>
		<path class="st3" d="M305.8,131.8c0.2,0.2,0.2,0.5,0.2,0.9c0,0.5-0.2,1-0.5,1.4c-0.3,0.4-0.7,0.6-1.2,0.8v-0.6
			c0.3-0.1,0.6-0.3,0.7-0.5c0.2-0.3,0.3-0.5,0.3-0.8c0,0-0.1,0-0.3,0c-0.2,0-0.4-0.1-0.5-0.2c-0.1-0.1-0.2-0.3-0.2-0.5
			c0-0.2,0.1-0.4,0.2-0.5c0.1-0.1,0.3-0.2,0.6-0.2C305.4,131.4,305.6,131.5,305.8,131.8z"/>
		<path class="st3" d="M312.9,137H312c-0.1-0.4-0.2-0.7-0.5-0.8c-0.3-0.2-0.6-0.3-1.1-0.3c-0.4,0-0.8,0.1-1,0.2
			c-0.3,0.2-0.4,0.4-0.4,0.6c0,0.3,0.2,0.5,0.5,0.7c0.2,0.1,0.7,0.2,1.3,0.4c0.7,0.2,1.3,0.4,1.6,0.6c0.5,0.3,0.7,0.7,0.7,1.3
			c0,1.3-0.9,1.9-2.6,1.9c-1.6,0-2.5-0.7-2.7-2.1h0.9c0.1,0.5,0.3,0.8,0.5,1.1c0.3,0.2,0.7,0.3,1.2,0.3c1.1,0,1.7-0.4,1.7-1.1
			c0-0.3-0.2-0.6-0.6-0.8c-0.2-0.1-0.6-0.2-1.3-0.4c-0.7-0.2-1.2-0.4-1.5-0.6c-0.5-0.3-0.7-0.7-0.7-1.2s0.2-0.9,0.7-1.2
			c0.4-0.3,1-0.5,1.7-0.5C311.9,135.1,312.7,135.7,312.9,137z"/>
		<path class="st3" d="M321.4,132.9c1.4,0,2.4,0.4,3.1,1.2c0.6,0.7,1,1.8,1,3.1c0,1.3-0.3,2.4-1,3.1c-0.7,0.8-1.8,1.2-3.1,1.2h-3
			v-8.6H321.4z M319.3,140.6h1.8c1.1,0,2-0.3,2.5-0.9c0.5-0.6,0.8-1.4,0.8-2.5c0-1.2-0.3-2-0.7-2.6c-0.5-0.6-1.3-0.9-2.5-0.9h-1.9
			V140.6z"/>
		<path class="st3" d="M331.4,135.8c0.4,0.4,0.6,1,0.6,1.7v4H331v-1c-0.2,0.3-0.6,0.6-0.9,0.8c-0.5,0.3-1,0.4-1.5,0.4
			c-0.6,0-1.1-0.2-1.5-0.5c-0.4-0.3-0.6-0.7-0.6-1.2c0-0.7,0.3-1.2,0.9-1.6c0.5-0.3,1.2-0.5,2.2-0.5l1.5,0v-0.3c0-1-0.5-1.6-1.6-1.6
			c-0.5,0-0.8,0.1-1.1,0.3c-0.3,0.2-0.5,0.5-0.6,0.9l-0.9-0.1c0.1-0.6,0.5-1.1,1-1.5c0.5-0.3,1-0.4,1.8-0.4
			C330.3,135.1,330.9,135.3,331.4,135.8z M329.5,138.5c-1.4,0-2.1,0.5-2.1,1.4c0,0.3,0.1,0.5,0.3,0.7c0.2,0.2,0.6,0.3,0.9,0.3
			c0.6,0,1.1-0.2,1.6-0.6c0.4-0.4,0.7-0.8,0.7-1.3v-0.5L329.5,138.5z"/>
		<path class="st3" d="M333.8,135.3l1.9,4.9l1.8-4.9h1.1l-3.4,8.6h-1l1.1-2.5l-2.5-6.1H333.8z"/>
	</g>
	<g class="st2">
		<path class="st3" d="M176,95.5c0.6,0.5,1,1.2,1.2,2h-0.9c-0.1-0.6-0.4-1.1-0.9-1.4c-0.5-0.3-1-0.5-1.7-0.5c-1,0-1.8,0.3-2.3,1
			c-0.5,0.6-0.8,1.5-0.8,2.6s0.2,1.9,0.7,2.5c0.5,0.7,1.3,1,2.3,1c0.7,0,1.3-0.2,1.7-0.5c0.5-0.4,0.9-0.9,1-1.7h0.9
			c-0.2,1-0.6,1.8-1.3,2.3c-0.7,0.5-1.5,0.8-2.4,0.8c-1.3,0-2.4-0.4-3.1-1.3c-0.6-0.8-1-1.8-1-3.1c0-1.3,0.3-2.3,1-3.1
			c0.7-0.9,1.8-1.4,3.1-1.4C174.6,94.7,175.4,95,176,95.5z"/>
		<path class="st3" d="M179.7,94.9l4.8,7h0v-7h1v8.6h-1l-4.9-7h0v7h-1v-8.6H179.7z"/>
		<path class="st3" d="M191.1,94.9c0.8,0,1.4,0.2,1.9,0.6c0.5,0.4,0.7,0.9,0.7,1.6c0,0.5-0.1,0.9-0.4,1.2c-0.3,0.3-0.6,0.5-1,0.7
			c0.6,0.1,1,0.3,1.3,0.7c0.3,0.4,0.5,0.8,0.5,1.4c0,0.8-0.3,1.5-0.9,1.9c-0.5,0.3-1.2,0.5-2.1,0.5h-3.8v-8.6H191.1z M188.3,98.6
			h2.6c0.6,0,1.1-0.1,1.4-0.4c0.3-0.3,0.5-0.6,0.5-1.1c0-0.5-0.2-0.8-0.5-1.1c-0.3-0.2-0.8-0.3-1.4-0.3h-2.6V98.6z M188.3,102.6h2.7
			c0.6,0,1.1-0.1,1.4-0.3c0.4-0.3,0.6-0.7,0.6-1.2s-0.2-1-0.6-1.2c-0.3-0.3-0.9-0.4-1.5-0.4h-2.7V102.6z"/>
		<path class="st3" d="M196.5,94.7v8.7h-0.9v-8.7H196.5z"/>
		<path class="st3" d="M199.1,97.3v3.8c0,0.6,0.1,1,0.4,1.3c0.3,0.3,0.7,0.4,1.2,0.4c0.4,0,0.8-0.2,1.1-0.5c0.3-0.3,0.5-0.8,0.6-1.3
			v-3.8h1v6.2h-1v-1c-0.5,0.7-1.2,1.1-2,1.1c-1.5,0-2.3-0.9-2.3-2.5v-3.8H199.1z"/>
		<path class="st3" d="M209.7,98.1c0.5,0.6,0.7,1.5,0.7,2.5h-4.9c0,0.7,0.2,1.2,0.6,1.6s0.8,0.6,1.4,0.6c0.5,0,0.9-0.1,1.2-0.4
			c0.3-0.2,0.5-0.5,0.6-1h1c-0.1,0.6-0.4,1.1-0.8,1.5c-0.5,0.5-1.2,0.7-2,0.7c-0.9,0-1.6-0.3-2.1-0.9c-0.6-0.6-0.8-1.4-0.8-2.4
			c0-0.9,0.3-1.7,0.8-2.3c0.5-0.6,1.2-1,2.1-1C208.4,97.1,209.2,97.4,209.7,98.1z M206.1,98.4c-0.3,0.4-0.5,0.8-0.6,1.5h3.9
			c-0.1-1.3-0.8-2-2-2C206.9,97.9,206.4,98.1,206.1,98.4z"/>
	</g>
	<g class="st2">
		<path class="st3" d="M299.6,94.9l3.4,8.6h-1.1l-0.9-2.4h-3.9l-0.9,2.4h-1.1l3.4-8.6H299.6z M300.7,100.2l-1.6-4.3h0l-1.6,4.3
			H300.7z"/>
		<path class="st3" d="M308.8,98.1c0.5,0.6,0.7,1.4,0.7,2.3c0,0.9-0.2,1.7-0.7,2.3c-0.5,0.6-1.2,1-2.1,1s-1.6-0.4-2.1-1.3v3.5h-1
			v-8.6h0.9v1c0.4-0.8,1.1-1.2,2.1-1.2C307.6,97.1,308.3,97.4,308.8,98.1z M305.1,98.6c-0.3,0.4-0.5,1-0.5,1.7v0.1
			c0,0.7,0.2,1.3,0.5,1.7c0.3,0.4,0.8,0.7,1.4,0.7c0.7,0,1.2-0.2,1.5-0.7c0.3-0.4,0.5-1,0.5-1.8c0-0.7-0.2-1.3-0.4-1.8
			c-0.3-0.5-0.9-0.7-1.5-0.7C305.9,97.9,305.4,98.1,305.1,98.6z"/>
		<path class="st3" d="M312.1,95.1c0.1,0.1,0.2,0.3,0.2,0.5c0,0.2-0.1,0.4-0.2,0.5c-0.1,0.1-0.3,0.2-0.5,0.2s-0.4-0.1-0.5-0.2
			c-0.1-0.1-0.2-0.3-0.2-0.5c0-0.2,0.1-0.4,0.2-0.5c0.1-0.1,0.3-0.2,0.5-0.2S311.9,95,312.1,95.1z M312,97.3v6.2h-1v-6.2H312z"/>
		<path class="st3" d="M319,99.6v3.8h-1v-3.7c0-1.2-0.6-1.8-1.6-1.8c-0.4,0-0.8,0.2-1.1,0.5c-0.3,0.3-0.5,0.8-0.6,1.3v3.7h-1v-6.2h1
			v0.9c0.2-0.3,0.5-0.6,0.8-0.8c0.3-0.2,0.7-0.3,1.1-0.3C318.3,97.1,319,97.9,319,99.6z"/>
		<path class="st3" d="M321.5,94.7v5.4l3.1-2.9h1.3l-2.7,2.5l3,3.7h-1.2l-2.4-3.1l-1,0.9v2.2h-1v-8.7H321.5z"/>
	</g>
	<g class="st2">
		<path class="st3" d="M293.8,56.7v3.7c0.5-0.9,1.2-1.3,2.1-1.3c0.9,0,1.6,0.3,2.1,1c0.5,0.6,0.7,1.3,0.7,2.3c0,0.9-0.2,1.7-0.7,2.3
			c-0.5,0.6-1.2,1-2.1,1c-1,0-1.6-0.4-2.1-1.2v1h-0.9v-8.7H293.8z M294.3,60.5c-0.4,0.4-0.5,1-0.5,1.8v0.1c0,0.7,0.2,1.3,0.5,1.7
			c0.3,0.5,0.8,0.7,1.5,0.7c0.7,0,1.2-0.3,1.5-0.7c0.3-0.4,0.4-1,0.4-1.8c0-0.7-0.2-1.3-0.5-1.7c-0.3-0.5-0.9-0.7-1.5-0.7
			C295.1,59.9,294.6,60.1,294.3,60.5z"/>
		<path class="st3" d="M304.7,60.1c0.5,0.6,0.7,1.5,0.7,2.5h-4.9c0,0.7,0.2,1.2,0.6,1.6c0.3,0.4,0.8,0.6,1.4,0.6
			c0.5,0,0.9-0.1,1.2-0.4c0.3-0.2,0.5-0.5,0.6-1h1c-0.1,0.6-0.4,1.1-0.8,1.5c-0.5,0.5-1.2,0.7-2,0.7c-0.9,0-1.6-0.3-2.1-0.9
			c-0.6-0.6-0.8-1.4-0.8-2.4c0-0.9,0.3-1.7,0.8-2.3c0.5-0.6,1.2-1,2.1-1C303.4,59.1,304.2,59.4,304.7,60.1z M301.1,60.4
			c-0.3,0.4-0.5,0.8-0.6,1.5h3.9c-0.1-1.3-0.8-2-2-2C301.9,59.9,301.5,60.1,301.1,60.4z"/>
		<path class="st3" d="M311.2,59.8c0.4,0.4,0.6,1,0.6,1.7v4h-0.9v-1c-0.2,0.3-0.6,0.6-0.9,0.8c-0.5,0.3-1,0.4-1.5,0.4
			c-0.6,0-1.1-0.2-1.5-0.5c-0.4-0.3-0.6-0.7-0.6-1.2c0-0.7,0.3-1.2,0.9-1.6c0.5-0.3,1.2-0.5,2.2-0.5l1.5,0v-0.3c0-1-0.5-1.6-1.6-1.6
			c-0.5,0-0.8,0.1-1.1,0.3c-0.3,0.2-0.5,0.5-0.6,0.9l-0.9-0.1c0.1-0.6,0.5-1.1,1-1.5c0.5-0.3,1-0.4,1.8-0.4
			C310.1,59.1,310.8,59.3,311.2,59.8z M309.4,62.5c-1.4,0-2.1,0.5-2.1,1.4c0,0.3,0.1,0.5,0.3,0.7c0.2,0.2,0.6,0.3,0.9,0.3
			c0.6,0,1.1-0.2,1.6-0.6c0.4-0.4,0.7-0.8,0.7-1.3v-0.5L309.4,62.5z"/>
		<path class="st3" d="M318,61H317c-0.1-0.4-0.2-0.7-0.5-0.8c-0.3-0.2-0.6-0.3-1.1-0.3c-0.4,0-0.8,0.1-1,0.2
			c-0.3,0.2-0.4,0.4-0.4,0.6c0,0.3,0.2,0.5,0.5,0.7c0.2,0.1,0.7,0.2,1.3,0.4c0.7,0.2,1.3,0.4,1.6,0.6c0.5,0.3,0.7,0.7,0.7,1.3
			c0,1.3-0.9,1.9-2.6,1.9c-1.6,0-2.5-0.7-2.7-2.1h0.9c0.1,0.5,0.3,0.8,0.5,1.1c0.3,0.2,0.7,0.3,1.2,0.3c1.1,0,1.7-0.4,1.7-1.1
			c0-0.3-0.2-0.6-0.6-0.8c-0.2-0.1-0.6-0.2-1.3-0.4c-0.7-0.2-1.2-0.4-1.5-0.6c-0.5-0.3-0.7-0.7-0.7-1.2s0.2-0.9,0.7-1.2
			c0.4-0.3,1-0.5,1.7-0.5C317,59.1,317.8,59.7,318,61z"/>
		<path class="st3" d="M321,59.3h1.5v0.8H321V64c0,0.2,0,0.4,0.1,0.5c0.1,0.1,0.2,0.2,0.5,0.2h0.8v0.8h-0.9c-0.5,0-0.9-0.1-1.1-0.4
			c-0.2-0.2-0.3-0.6-0.3-1.1v-3.9h-1.2v-0.8h1.2v-1.6l0.9-0.4V59.3z"/>
	</g>
</g>
</svg>
