<!-- Generator: Adobe Illustrator 21.0.0, SVG Export Plug-In  -->
<svg version="1.1"
	 xmlns="http://www.w3.org/2000/svg" xmlns:xlink="http://www.w3.org/1999/xlink" xmlns:a="http://ns.adobe.com/AdobeSVGViewerExtensions/3.0/"
	 x="0px" y="0px" width="30.8px" height="15.2px" viewBox="0 0 30.8 15.2" style="enable-background:new 0 0 30.8 15.2;"
	 xml:space="preserve">
<style type="text/css">
	.st0{fill:#FFFFFF;}
</style>
<defs>
</defs>
<g>
	<path class="st0" d="M3,7.8C2.3,7.3,1,6.6,0,6.1l1-1.4C2,5.1,3.3,5.8,4,6.2L3,7.8z M4.8,9.8C4,11.5,3,13.3,2,14.9l-1.6-1.3
		c0.8-1.2,2.1-3.2,3-5L4.8,9.8z M3.9,3.4c-0.6-0.5-2-1.3-3-1.8l1.1-1.4c1,0.4,2.3,1.1,3,1.6L3.9,3.4z M14.9,12.7v1.8H4.5v-1.8h4.4
		V9.5H5.6V7.7h3.2V4.8H5V3h4.3C9,2.4,8.6,1.4,8.1,0.6L9.9,0c0.5,0.8,1,1.8,1.3,2.5L9.6,3h4.9v1.8h-3.6v2.8h3.1v1.8h-3.1v3.3H14.9z"
		/>
	<path class="st0" d="M30.8,8.1h-1.5v4.8c0,0.9-0.2,1.4-0.7,1.7C28,14.9,27.3,15,26.2,15c-0.1-0.5-0.3-1.3-0.6-1.8
		c0.6,0,1.3,0,1.5,0c0.2,0,0.3-0.1,0.3-0.3V8.1h-1.7c-0.1,2.4-0.6,5.1-1.9,7c-0.2-0.3-0.8-0.9-1.2-1.2c-0.1,0.3-0.3,0.5-0.6,0.7
		c-0.5,0.3-1.3,0.3-2.3,0.3c-0.1-0.5-0.4-1.2-0.6-1.7c0.6,0,1.3,0,1.5,0c0.2,0,0.3-0.1,0.3-0.3V8.1h-1.5c-0.1,2.4-0.7,5.2-2.1,7
		c-0.3-0.4-1-1.1-1.3-1.4c1.2-1.6,1.6-3.7,1.7-5.7H16V6.3h1.7v0V1.1h5.1v5.2h1.2V1.1h5.4v5.2h1.5V8.1z M20.9,6.3V2.8h-1.4v3.5v0
		H20.9z M22.7,13c0,0.1,0,0.2,0,0.3c0.8-1.5,1.1-3.4,1.2-5.2h-1.2V13z M27.4,6.3V2.8h-1.6v3.5H27.4z"/>
</g>
</svg>
