<!-- Generator: Adobe Illustrator 21.0.0, SVG Export Plug-In  -->
<svg version="1.1"
	 xmlns="http://www.w3.org/2000/svg" xmlns:xlink="http://www.w3.org/1999/xlink" xmlns:a="http://ns.adobe.com/AdobeSVGViewerExtensions/3.0/"
	 x="0px" y="0px" width="50.1px" height="12px" viewBox="0 0 50.1 12" style="enable-background:new 0 0 50.1 12;"
	 xml:space="preserve">
<style type="text/css">
	.st0{opacity:0.7;}
	.st1{fill:#FFFFFF;}
</style>
<defs>
</defs>
<g class="st0">
	<path class="st1" d="M1.5,6v3.8c0,0.6,0.3,0.9,0.9,0.9h6.5c0.3,0,0.6-0.1,0.8-0.2c0.3-0.2,0.4-1.1,0.5-2.5l0.9,0.3
		c-0.1,1.6-0.4,2.6-0.7,2.9c-0.3,0.3-0.7,0.4-1.3,0.4h-7C1,11.6,0.5,11,0.5,10V3.1h0.9v1.9h7.2V1.7H0V0.8h9.6V6H1.5z"/>
	<path class="st1" d="M16.3,9.2V12h-0.9V5.2c-0.7,0.9-1.6,1.8-2.5,2.5l-0.6-0.8c1.6-1.3,2.9-2.8,3.8-4.5h-3.4V1.5h3.9
		C16.8,1,17,0.5,17.1,0l0.9,0.1c-0.2,0.5-0.3,0.9-0.5,1.4H24v0.9h-6.9c-0.3,0.5-0.5,1-0.8,1.5h6v7c0,0.6-0.4,1-1.1,1h-1.5l-0.2-0.9
		c0.5,0,1,0.1,1.4,0.1c0.3,0,0.5-0.2,0.5-0.5V9.2H16.3z M16.3,6.2h5.2V4.8h-5.2V6.2z M16.3,7v1.4h5.2V7H16.3z"/>
	<path class="st1" d="M28.5,2.4v4.2c0,1.5-0.2,2.6-0.7,3.5c-0.4,0.8-1.1,1.4-2,1.9l-0.5-0.8c0.9-0.4,1.5-1,1.8-1.7
		c0.3-0.8,0.5-1.7,0.5-2.9V2.4H28.5z M30.3,8.8h-0.8V1.5h-2.8v7.3h-0.9V0.6h4.5V8.8z M30.7,11.3L30,11.9c-0.4-0.7-1-1.4-1.7-2.2
		l0.6-0.6C29.6,9.9,30.2,10.6,30.7,11.3z M32.7,6.4v4.4c0.6-0.2,1.2-0.5,1.8-0.9l0.2,0.8c-0.8,0.5-1.7,0.9-2.8,1.2l-0.4-0.8
		c0.2-0.1,0.3-0.2,0.3-0.4V6.4h-0.9V5.5h0.9V0.1h0.9v5.4H37v0.9h-2.4c0.6,2.1,1.5,3.7,2.6,4.8l-0.6,0.7c-1.2-1.2-2.2-3.1-2.8-5.5
		H32.7z M36.8,1.3c-0.9,1.5-2,2.5-3.2,3.2l-0.5-0.7c1.2-0.7,2.2-1.7,3-3.1L36.8,1.3z"/>
	<path class="st1" d="M38.4,6.1V5.2h11.7v0.9h-7.8l-0.4,1.5h6.4c-0.1,2.1-0.3,3.3-0.6,3.7c-0.3,0.4-0.9,0.6-1.8,0.6
		c-0.6,0-1.2,0-1.7-0.1L43.8,11c0.7,0.1,1.3,0.1,1.8,0.1c0.7,0,1.1-0.1,1.3-0.4c0.2-0.3,0.3-1,0.4-2.2h-6.5l0.6-2.4H38.4z M48.1,0.5
		v3.5h-7.6V0.5H48.1z M47.1,1.4h-5.7v1.8h5.7V1.4z"/>
</g>
</svg>
