<!-- Generator: Adobe Illustrator 21.0.0, SVG Export Plug-In  -->
<svg version="1.1"
	 xmlns="http://www.w3.org/2000/svg" xmlns:xlink="http://www.w3.org/1999/xlink" xmlns:a="http://ns.adobe.com/AdobeSVGViewerExtensions/3.0/"
	 x="0px" y="0px" width="29px" height="40.2px" viewBox="0 0 29 40.2" style="enable-background:new 0 0 29 40.2;"
	 xml:space="preserve">
<style type="text/css">
	.st0{opacity:0.5;}
	.st1{fill:#FFFFFF;}
</style>
<defs>
</defs>
<g class="st0">
	<g>
		<path class="st1" d="M10.6,15.8c0,0-0.1,0-0.1,0c-0.3-0.1-0.4-0.3-0.4-0.6l2.4-11.7c0.1-0.3,0.3-0.4,0.6-0.4
			c0.3,0.1,0.4,0.3,0.4,0.6l-2.4,11.7C11,15.7,10.8,15.8,10.6,15.8z"/>
	</g>
	<g>
		<path class="st1" d="M18.7,15.3c-0.2,0-0.4-0.2-0.5-0.4L15.6,3.8c-0.1-0.3,0.1-0.5,0.4-0.6c0.3-0.1,0.5,0.1,0.6,0.4l2.6,11.1
			c0.1,0.3-0.1,0.5-0.4,0.6C18.8,15.3,18.8,15.3,18.7,15.3z"/>
	</g>
	<g>
		<path class="st1" d="M1.7,13.9c-0.1,0-0.1,0-0.2,0c-0.3-0.1-0.4-0.4-0.3-0.7L6,1.1c0.1-0.3,0.4-0.4,0.7-0.3C6.9,1,7,1.2,6.9,1.5
			l-4.7,12C2.1,13.7,1.9,13.9,1.7,13.9z"/>
	</g>
	<g>
		<path class="st1" d="M27.9,14.9c-0.2,0-0.4-0.1-0.5-0.3L22.2,1.5c-0.1-0.3,0-0.5,0.3-0.7c0.3-0.1,0.6,0,0.7,0.3l5.2,13.1
			c0.1,0.3,0,0.5-0.3,0.7C28,14.9,27.9,14.9,27.9,14.9z"/>
	</g>
	<g>
		<path class="st1" d="M9.2,21c-0.1,0-0.3,0-0.4-0.1c-0.2-0.2-0.2-0.5,0-0.7c1.8-1.8,1.8-4.7,0-6.5c-1.8-1.8-4.7-1.8-6.5,0
			c-0.2,0.2-0.5,0.2-0.7,0c-0.2-0.2-0.2-0.5,0-0.7c2.2-2.2,5.8-2.2,8,0c2.2,2.2,2.2,5.8,0,8C9.5,21,9.3,21,9.2,21z"/>
	</g>
	<g>
		<path class="st1" d="M5.6,22.6c-1.4,0-2.9-0.5-4-1.6c-1.1-1.1-1.6-2.5-1.6-4c0-1.5,0.6-2.9,1.6-4c0.2-0.2,0.5-0.2,0.7,0
			c0.2,0.2,0.2,0.5,0,0.7c-0.9,0.9-1.4,2-1.4,3.3c0,1.2,0.5,2.4,1.4,3.3c1.8,1.8,4.7,1.8,6.5,0c0.2-0.2,0.5-0.2,0.7,0
			c0.2,0.2,0.2,0.5,0,0.7C8.5,22,7.1,22.6,5.6,22.6z"/>
	</g>
	<g>
		<path class="st1" d="M3,17c-0.3,0-0.5-0.2-0.5-0.5c0-1.6,1.3-2.8,2.8-2.8c0.3,0,0.5,0.2,0.5,0.5c0,0.3-0.2,0.5-0.5,0.5
			c-1,0-1.8,0.8-1.8,1.8C3.5,16.8,3.3,17,3,17z"/>
	</g>
	<g>
		<path class="st1" d="M20.8,17c-0.3,0-0.5-0.2-0.5-0.5c0-1.6,1.3-2.8,2.8-2.8c0.3,0,0.5,0.2,0.5,0.5c0,0.3-0.2,0.5-0.5,0.5
			c-1,0-1.8,0.8-1.8,1.8C21.3,16.8,21.1,17,20.8,17z"/>
	</g>
	<g>
		<path class="st1" d="M27,21c-0.1,0-0.3,0-0.4-0.1c-0.2-0.2-0.2-0.5,0-0.7c0.9-0.9,1.4-2,1.4-3.3c0-1.2-0.5-2.4-1.4-3.3
			c-1.8-1.8-4.7-1.8-6.5,0c-0.2,0.2-0.5,0.2-0.7,0c-0.2-0.2-0.2-0.5,0-0.7c2.2-2.2,5.8-2.2,8,0c1.1,1.1,1.6,2.5,1.6,4
			c0,1.5-0.6,2.9-1.6,4C27.3,21,27.1,21,27,21z"/>
	</g>
	<g>
		<path class="st1" d="M23.4,22.6c-1.4,0-2.9-0.5-4-1.6c-1.1-1.1-1.6-2.5-1.6-4c0-1.5,0.6-2.9,1.6-4c0.2-0.2,0.5-0.2,0.7,0
			c0.2,0.2,0.2,0.5,0,0.7c-0.9,0.9-1.4,2-1.4,3.3c0,1.2,0.5,2.4,1.4,3.3c1.8,1.8,4.7,1.8,6.5,0c0.2-0.2,0.5-0.2,0.7,0
			c0.2,0.2,0.2,0.5,0,0.7C26.3,22,24.9,22.6,23.4,22.6z"/>
	</g>
	<g>
		<path class="st1" d="M13,4.2c-0.2,0-0.4-0.1-0.5-0.3c-0.5-1.4-1.3-2.3-2.2-2.6C8.7,0.6,7,1.5,6.9,1.5c-0.2,0.1-0.5,0-0.7-0.2
			C6.1,1,6.2,0.7,6.5,0.6c0.1,0,2.1-1.1,4.2-0.3c1.3,0.5,2.2,1.6,2.8,3.2c0.1,0.3,0,0.5-0.3,0.6C13.1,4.2,13,4.2,13,4.2z"/>
	</g>
	<g>
		<path class="st1" d="M16.1,4.2c-0.1,0-0.1,0-0.2,0c-0.3-0.1-0.4-0.4-0.3-0.6c0.6-1.7,1.6-2.7,2.8-3.2c2-0.8,4.1,0.3,4.2,0.3
			C22.9,0.7,23,1,22.8,1.3c-0.1,0.2-0.4,0.3-0.7,0.2c0,0-1.8-0.9-3.3-0.3c-1,0.4-1.7,1.3-2.2,2.6C16.5,4.1,16.3,4.2,16.1,4.2z"/>
	</g>
	<g>
		<path class="st1" d="M16.1,7.3H13c-0.3,0-0.5-0.2-0.5-0.5c0-0.3,0.2-0.5,0.5-0.5h3.1c0.3,0,0.5,0.2,0.5,0.5
			C16.6,7.1,16.4,7.3,16.1,7.3z"/>
	</g>
	<g>
		<path class="st1" d="M17.4,11.1h-5.2c-0.3,0-0.5-0.2-0.5-0.5s0.2-0.5,0.5-0.5h5.2c0.3,0,0.5,0.2,0.5,0.5S17.7,11.1,17.4,11.1z"/>
	</g>
</g>
<g class="st0">
	<path class="st1" d="M11.2,31.1c-0.2,0.7-0.5,1.4-0.9,1.9h2.1v0.7H9v0.5c0,0.5-0.1,1-0.1,1.4h4.1v0.7H9.3c0.5,1.4,1.8,2.4,3.9,3.2
		l-0.4,0.7c-2.2-0.9-3.6-2.1-4.1-3.6c-0.2,0.6-0.4,1.1-0.8,1.5c-0.7,0.9-1.8,1.6-3.3,2.1l-0.4-0.6c1.5-0.5,2.6-1.1,3.2-1.9
		c0.2-0.4,0.4-0.8,0.6-1.2H4.3v-0.7h3.8c0.1-0.4,0.1-0.9,0.2-1.4v-0.5H4.9v-0.7h4.6c0.4-0.6,0.7-1.3,1-2.1L11.2,31.1z M7.9,32.7
		l-0.7,0.3c-0.4-0.6-0.7-1.2-1.2-1.7L6.7,31C7.1,31.5,7.5,32.1,7.9,32.7z"/>
	<path class="st1" d="M17.1,35l-0.5,0.5c-0.4-0.5-1-1-1.7-1.5l0.5-0.5C16.1,34,16.7,34.5,17.1,35z M17.4,36.5
		c-0.5,1.3-1,2.5-1.5,3.6l-0.7-0.3c0.6-1.1,1.1-2.3,1.6-3.5L17.4,36.5z M17.5,32.6L17,33.1c-0.4-0.5-1-1-1.8-1.5l0.5-0.5
		C16.4,31.6,17,32.1,17.5,32.6z M20.6,32.7c-0.2-0.5-0.4-1.1-0.7-1.6l0.7-0.2c0.3,0.6,0.5,1.1,0.7,1.6l-0.4,0.2h3v0.7h-2.6v2.4h2.3
		v0.7h-2.3v2.6H24v0.7h-6.4v-0.7h2.9v-2.6h-2.3v-0.7h2.3v-2.4h-2.6v-0.7H20.6z"/>
</g>
</svg>
