<!-- Generator: Adobe Illustrator 21.0.0, SVG Export Plug-In  -->
<svg version="1.1"
	 xmlns="http://www.w3.org/2000/svg" xmlns:xlink="http://www.w3.org/1999/xlink" xmlns:a="http://ns.adobe.com/AdobeSVGViewerExtensions/3.0/"
	 x="0px" y="0px" width="33.2px" height="58.4px" viewBox="0 0 33.2 58.4" style="enable-background:new 0 0 33.2 58.4;"
	 xml:space="preserve">
<style type="text/css">
	.st0{fill:#4D4D4D;}
	.st1{opacity:0.83;}
	.st2{fill:#1FB192;}
	.st3{opacity:0.75;}
	.st4{fill:#2A3D96;}
</style>
<defs>
</defs>
<g>
	<path class="st0" d="M8.9,49.8l3.2,7.3h0l3.2-7.3h1.2v8.6h-1v-6.8h0l-3,6.8h-0.9l-3-6.8h0v6.8h-1v-8.6H8.9z"/>
	<path class="st0" d="M18.5,49.8l2.7,7.5h0l2.7-7.5H25l-3.2,8.6h-1.2l-3.2-8.6H18.5z"/>
</g>
<g>
	<g class="st1">
		<path class="st2" d="M27.8,31.8H5.5c-0.7,0-1.2-0.6-1.2-1.2s0.6-1.2,1.2-1.2h22.2c1.6,0,3-2,3-4.4v-18c0-2.4-1.4-4.4-3-4.4
			c-0.7,0-1.2-0.6-1.2-1.2S27.1,0,27.8,0c3,0,5.5,3.1,5.5,6.9v18C33.2,28.7,30.8,31.8,27.8,31.8z"/>
	</g>
	<g class="st3">
		<path class="st4" d="M5.5,31.8c-3,0-5.5-3.1-5.5-6.9v-18C0.1,3.1,2.5,0,5.5,0h22.2C28.4,0,29,0.6,29,1.2s-0.6,1.2-1.2,1.2H5.5
			c-1.6,0-3,2-3,4.4v18c0,2.4,1.4,4.4,3,4.4c0.7,0,1.2,0.6,1.2,1.2S6.2,31.8,5.5,31.8z"/>
	</g>
	<g class="st1">
		<path class="st2" d="M32,17.1H1.3c-0.7,0-1.2-0.6-1.2-1.2c0-0.7,0.6-1.2,1.2-1.2H32c0.7,0,1.2,0.6,1.2,1.2
			C33.2,16.6,32.6,17.1,32,17.1z"/>
	</g>
	<g class="st3">
		<path class="st4" d="M7.1,31.8c-0.7,0-1.2-0.6-1.2-1.2V1.2C5.9,0.6,6.4,0,7.1,0s1.2,0.6,1.2,1.2v29.3C8.4,31.2,7.8,31.8,7.1,31.8z
			"/>
	</g>
	<g class="st3">
		<path class="st4" d="M26.2,31.8c-0.7,0-1.2-0.6-1.2-1.2V1.2C25,0.6,25.5,0,26.2,0s1.2,0.6,1.2,1.2v29.3
			C27.5,31.2,26.9,31.8,26.2,31.8z"/>
	</g>
	<g class="st3">
		<path class="st4" d="M7.1,10.2H1.3c-0.7,0-1.2-0.6-1.2-1.2s0.6-1.2,1.2-1.2h5.8c0.7,0,1.2,0.6,1.2,1.2S7.8,10.2,7.1,10.2z"/>
	</g>
	<g class="st1">
		<path class="st2" d="M32,10.2h-5.7C25.5,10.2,25,9.7,25,9s0.6-1.2,1.2-1.2H32c0.7,0,1.2,0.6,1.2,1.2S32.6,10.2,32,10.2z"/>
	</g>
	<g class="st1">
		<path class="st2" d="M32,24.2h-5.7c-0.7,0-1.2-0.6-1.2-1.2s0.6-1.2,1.2-1.2H32c0.7,0,1.2,0.6,1.2,1.2S32.6,24.2,32,24.2z"/>
	</g>
	<g class="st3">
		<path class="st4" d="M7,24.2H1.2c-0.7,0-1.2-0.6-1.2-1.2s0.6-1.2,1.2-1.2H7c0.7,0,1.2,0.6,1.2,1.2S7.7,24.2,7,24.2z"/>
	</g>
</g>
</svg>
