<?xml version="1.0" standalone="no"?><!DOCTYPE svg PUBLIC "-//W3C//DTD SVG 1.1//EN" "http://www.w3.org/Graphics/SVG/1.1/DTD/svg11.dtd"><svg t="1501068241067" class="icon" style="" viewBox="0 0 1024 1024" version="1.1" xmlns="http://www.w3.org/2000/svg" p-id="1428" xmlns:xlink="http://www.w3.org/1999/xlink" width="200" height="200"><defs><style type="text/css"></style></defs><path d="M822.613333 401.066667H819.2c-17.066667 0-32.426667 5.12-46.08 13.653333-11.946667-35.84-44.373333-61.44-83.626667-61.44-17.066667 0-34.133333 5.12-49.493333 13.653333-11.946667-35.84-44.373333-61.44-83.626667-61.44-15.36 0-30.72 3.413333-42.666666 10.24v-92.16c0-51.2-37.546667-92.16-88.746667-92.16s-92.16 40.96-92.16 92.16v354.986667l-56.32-56.32c-35.84-35.84-98.986667-30.72-129.706667 0-30.72 30.72-51.2 92.16-6.826666 136.533333l256 256c5.12 5.12 11.946667 10.24 17.066666 13.653334C460.8 965.973333 513.706667 989.866667 626.346667 989.866667c259.413333 0 283.306667-139.946667 283.306666-314.026667V493.226667c0-51.2-37.546667-92.16-87.04-92.16m39.253334 274.773333c0 146.773333 0 264.533333-233.813334 264.533333-98.986667 0-158.72-22.186667-203.093333-66.56L180.906667 631.466667c-22.186667-22.186667-15.36-49.493333 1.706666-66.56s49.493333-18.773333 66.56-1.706667c0 0 42.666667 42.666667 80.213334 78.506667l52.906666 52.906666V232.106667c0-23.893333 18.773333-42.666667 44.373334-42.666667 23.893333 0 40.96 18.773333 40.96 42.666667v298.666666c0 13.653333 10.24 23.893333 23.893333 23.893334 13.653333 0 23.893333-10.24 23.893333-23.893334V404.48c0-23.893333 17.066667-42.666667 40.96-42.666667 0 0 42.666667 0 42.666667 42.666667V568.32c0 13.653333 10.24 23.893333 23.893333 23.893333 13.653333 0 23.893333-10.24 23.893334-23.893333v-116.053333c0-23.893333 17.066667-42.666667 40.96-42.666667 0 0 42.666667 3.413333 42.666666 42.666667V597.333333c0 13.653333 10.24 23.893333 23.893334 23.893334 13.653333 0 23.893333-10.24 23.893333-23.893334V496.64c0-23.893333 18.773333-42.666667 42.666667-42.666667 0 0 42.666667-1.706667 42.666666 42.666667l-1.706666 179.2M295.253333 360.106667v-80.213334c-6.826667-17.066667-11.946667-35.84-11.946666-56.32 0-76.8 61.44-138.24 138.24-138.24s138.24 61.44 138.24 138.24c0 10.24-1.706667 20.48-3.413334 30.72 17.066667 0 32.426667 8.533333 44.373334 18.773334 5.12-15.36 6.826667-32.426667 6.826666-49.493334 0-104.106667-83.626667-187.733333-186.026666-187.733333S235.52 119.466667 235.52 221.866667c0 54.613333 23.893333 104.106667 59.733333 138.24" p-id="1429"></path></svg>